<?xml version="1.0" encoding="UTF-8" standalone="no"?><!-- Generator: Gravit.io --><svg xmlns="http://www.w3.org/2000/svg" xmlns:xlink="http://www.w3.org/1999/xlink" style="isolation:isolate" viewBox="122 383.56 14 14.002" width="14pt" height="14.002pt"><path d=" M 123.856 386.2 L 123.856 386.2 C 124.156 386.428 124.223 386.847 124.004 387.134 L 124.004 387.134 C 123.786 387.423 123.364 387.47 123.065 387.242 L 123.065 387.242 C 122.764 387.014 122.698 386.596 122.916 386.308 L 122.916 386.308 C 123.134 386.021 123.555 385.972 123.856 386.2 Z  M 126.951 386.176 C 126.951 386.176 126.951 386.176 126.951 386.176 L 125.677 385.208 C 125.32 384.937 124.853 384.951 124.635 385.238 C 124.417 385.526 124.529 385.979 124.885 386.249 L 126.103 387.175 C 126.242 387.281 126.277 387.47 126.179 387.598 C 126.082 387.726 125.889 387.745 125.751 387.639 L 125.423 387.391 C 125.423 387.391 125.423 387.391 125.423 387.391 L 125.276 387.279 C 124.92 387.009 124.453 387.022 124.235 387.31 C 124.016 387.597 124.129 388.05 124.484 388.321 L 125.046 388.747 C 125.226 388.884 125.261 389.141 125.124 389.321 C 124.988 389.501 124.73 389.536 124.551 389.399 L 123.479 388.585 C 123.478 388.585 123.478 388.585 123.478 388.585 L 123.154 388.338 C 122.797 388.067 122.33 388.081 122.112 388.368 C 121.893 388.656 122.005 389.11 122.362 389.38 L 123.911 390.557 C 123.911 390.557 123.911 390.557 123.911 390.557 L 124.742 391.188 C 125.003 391.386 125.061 391.752 124.87 392.003 C 124.679 392.254 124.312 392.297 124.05 392.098 L 123.28 391.514 C 122.924 391.243 122.457 391.257 122.238 391.544 C 122.02 391.832 122.132 392.285 122.489 392.556 L 123.568 393.376 C 123.817 393.582 124.015 393.773 124.231 394.014 C 124.425 394.23 124.585 394.432 124.737 394.658 C 124.789 394.747 124.844 394.833 124.904 394.917 C 124.911 394.93 124.919 394.942 124.928 394.952 C 125.282 395.464 125.722 395.928 126.243 396.324 C 128.915 398.354 132.733 397.833 134.762 395.16 C 136.792 392.488 136.271 388.67 133.598 386.64 C 132.813 386.045 131.93 385.668 131.021 385.503 C 130.656 385.411 130.295 385.316 129.922 385.162 C 129.573 385.016 129.35 384.942 128.96 384.685 L 127.707 383.733 C 127.35 383.462 126.853 383.514 126.598 383.851 C 126.343 384.187 126.426 384.679 126.782 384.95 L 127.82 385.738 C 127.82 385.738 127.82 385.738 127.82 385.738 L 127.854 385.764 C 127.854 385.764 127.854 385.764 127.853 385.765 C 128.016 385.916 128.041 386.17 127.904 386.35 C 127.757 386.542 127.483 386.58 127.291 386.434 L 126.951 386.176 Z  M 131.375 392.943 L 131.375 392.199 C 130.991 392.739 130.398 393.086 129.734 393.086 C 128.579 393.086 127.641 392.038 127.641 390.747 C 127.641 389.456 128.579 388.409 129.734 388.409 C 130.398 388.409 130.991 388.755 131.375 389.295 L 131.375 388.502 L 132.373 388.502 Q 132.391 393.062 132.379 393.13 C 132.231 394.026 131.668 394.744 130.817 395.108 C 129.814 395.538 128.719 395.335 127.937 394.575 L 128.409 393.78 C 128.876 394.359 129.628 394.559 130.32 394.289 C 130.908 394.06 131.294 393.568 131.375 392.943 Z  M 128.628 390.709 C 128.628 389.873 129.235 389.194 129.984 389.194 C 130.732 389.194 131.34 389.873 131.34 390.709 C 131.34 391.545 130.732 392.224 129.984 392.224 C 129.235 392.224 128.628 391.545 128.628 390.709 Z " fill-rule="evenodd" fill="rgb(81,81,81)"/></svg>