<?xml version="1.0" encoding="UTF-8" standalone="no"?><!-- Generator: Gravit.io --><svg xmlns="http://www.w3.org/2000/svg" xmlns:xlink="http://www.w3.org/1999/xlink" style="isolation:isolate" viewBox="435 267 14 13.124" width="14pt" height="13.124pt"><path d=" M 447.673 272.198 C 447.58 272.198 447.489 272.208 447.402 272.226 C 447.065 271.361 446.405 270.659 445.571 270.264 C 445.578 270.209 445.582 270.154 445.582 270.097 C 445.582 269.364 444.988 268.77 444.255 268.77 C 443.944 268.77 443.66 268.877 443.433 269.056 L 443.433 269.965 L 443.433 270.598 L 443.433 271.138 C 443.66 271.317 443.944 271.424 444.255 271.424 C 444.708 271.424 445.107 271.197 445.347 270.851 C 446.031 271.188 446.566 271.776 446.834 272.497 C 446.537 272.741 446.346 273.11 446.346 273.525 C 446.346 273.945 446.541 274.319 446.845 274.562 C 446.58 275.296 446.04 275.895 445.347 276.237 C 445.107 275.891 444.708 275.664 444.255 275.664 C 443.944 275.664 443.659 275.772 443.433 275.95 L 443.433 276.49 L 443.433 277.123 L 443.433 278.031 C 443.659 278.211 443.944 278.318 444.255 278.318 C 444.988 278.318 445.582 277.723 445.582 276.991 C 445.582 276.934 445.578 276.879 445.571 276.824 C 446.416 276.424 447.081 275.708 447.415 274.827 C 447.498 274.843 447.584 274.852 447.673 274.852 C 448.406 274.852 449 274.258 449 273.525 C 449 272.792 448.406 272.198 447.673 272.198 Z  M 439.358 276.141 C 438.73 276.597 437.907 276.404 437.245 276.132 C 437.236 275.748 437.228 275.363 437.215 274.975 C 437.64 275.29 438.267 275.752 438.774 275.323 C 439.166 274.666 438.396 274.247 437.951 273.929 C 436.996 273.352 436.96 271.773 437.887 271.156 C 438.429 270.813 439.09 270.921 439.688 271.005 C 439.696 271.368 439.705 271.733 439.714 272.095 C 439.216 271.939 438.582 271.622 438.172 272.129 C 437.887 272.874 438.789 273.155 439.225 273.544 C 440.077 274.095 440.15 275.511 439.358 276.141 L 439.358 276.141 Z  M 435.016 268.401 L 435 278.723 L 442.705 280.124 L 442.705 267 L 435.016 268.401 L 435.016 268.401 Z " fill-rule="evenodd" fill="rgb(81,81,81)"/></svg>