<?xml version="1.0" encoding="UTF-8" standalone="no"?><!-- Generator: Gravit.io --><svg xmlns="http://www.w3.org/2000/svg" xmlns:xlink="http://www.w3.org/1999/xlink" style="isolation:isolate" viewBox="1233 541 41.998 24" width="41.998pt" height="24pt"><path d=" M 1267.498 565 L 1253.999 565 L 1241.999 565 C 1241.999 565 1241.999 565 1241.999 565 C 1237.032 565 1233 560.968 1233 555.999 C 1233 551.032 1237.032 547 1241.999 547 C 1242.517 547 1243.028 547.046 1243.515 547.153 C 1245.572 543.485 1249.498 541 1253.999 541 C 1259.671 541 1264.429 544.945 1265.644 550.25 C 1266.235 550.082 1266.856 550.001 1267.498 550.001 C 1271.638 550.001 1274.998 553.361 1274.998 557.501 C 1274.998 561.64 1271.638 565 1267.498 565 L 1267.498 565 Z " fill="rgb(248,0,110)"/></svg>