<?xml version="1.0" encoding="UTF-8" standalone="no"?><!-- Generator: Gravit.io --><svg xmlns="http://www.w3.org/2000/svg" xmlns:xlink="http://www.w3.org/1999/xlink" style="isolation:isolate" viewBox="180 153 12 7.688" width="12pt" height="7.688pt"><path d=" M 180.13 158.49 C 180.041 158.246 180.003 157.987 180 157.725 C 179.98 156.069 181.306 154.71 182.962 154.689 L 182.962 154.689 C 182.974 154.689 182.987 154.688 183 154.688 C 183.557 154.688 184.102 154.843 184.576 155.136 L 184.576 155.135 L 186.033 156.008 L 180.15 158.48 C 180.143 158.483 180.136 158.486 180.13 158.49 Z  M 180.539 159.403 L 180.539 159.403 L 180.539 159.403 L 180.539 159.403 L 180.539 159.403 L 180.539 159.403 C 181.099 160.209 182.019 160.689 183 160.688 L 183 160.688 L 183 160.688 L 189.562 160.688 L 189.562 160.688 C 190.459 160.688 191.283 160.196 191.708 159.407 L 191.708 159.407 L 187.095 156.644 L 180.539 159.403 Z  M 190.718 156.105 C 190.412 155.94 190.074 155.843 189.727 155.819 L 189.727 155.819 L 189.727 155.819 L 189.727 155.819 C 189.727 155.819 189.727 155.819 189.727 155.819 C 189.672 155.816 189.617 155.813 189.562 155.813 C 189.23 155.813 188.901 155.881 188.596 156.013 L 188.596 156.012 L 188.235 156.164 L 191.995 158.415 C 192.056 157.491 191.586 156.573 190.718 156.105 Z  M 189.214 154.669 C 188.355 153.381 186.747 152.712 185.162 153.118 C 184.673 153.244 184.219 153.465 183.829 153.773 C 183.86 153.776 183.89 153.783 183.92 153.79 L 187.148 155.539 L 187.17 155.53 L 187.17 155.53 L 189.214 154.669 Z " fill-rule="evenodd" fill="rgb(215,215,215)"/></svg>