<?xml version="1.0" encoding="UTF-8" standalone="no"?><!-- Generator: Gravit.io --><svg xmlns="http://www.w3.org/2000/svg" xmlns:xlink="http://www.w3.org/1999/xlink" style="isolation:isolate" viewBox="120 143 32 20.502" width="32pt" height="20.502pt"><g><path d=" M 139.333 156.835 L 145.938 150.518 C 144.566 145.169 139.117 141.944 133.767 143.316 C 131.357 143.934 129.265 145.427 127.897 147.505 C 128 147.502 139.333 156.835 139.333 156.835 Z " fill="rgb(3,100,184)"/><path d=" M 132.202 148.694 L 132.202 148.695 C 130.94 147.913 129.484 147.5 128 147.502 C 127.965 147.502 127.932 147.504 127.897 147.505 C 123.481 147.56 119.946 151.184 120.001 155.6 C 120.02 157.202 120.521 158.76 121.437 160.074 L 131.333 158.835 L 138.92 152.718 L 132.202 148.694 Z " fill="rgb(0,120,212)"/><path d=" M 145.938 150.519 C 145.793 150.509 145.647 150.502 145.499 150.502 C 144.613 150.501 143.736 150.682 142.923 151.034 L 142.922 151.033 L 138.92 152.718 L 143.332 158.168 L 151.221 160.086 C 152.924 156.926 151.742 152.984 148.581 151.281 C 147.765 150.841 146.863 150.581 145.938 150.519 L 145.938 150.519 L 145.938 150.519 Z " fill="rgb(20,144,223)"/><path d=" M 121.437 160.074 C 122.931 162.223 125.383 163.503 128 163.502 L 145.499 163.502 C 147.889 163.502 150.087 162.191 151.221 160.086 L 138.92 152.718 L 121.437 160.074 Z " fill="rgb(40,168,234)"/></g></svg>