<?xml version="1.0" standalone="no"?><!-- Generator: Gravit.io --><svg xmlns="http://www.w3.org/2000/svg" xmlns:xlink="http://www.w3.org/1999/xlink" style="isolation:isolate" viewBox="0 0 36 33.748" width="36" height="33.748"><defs><clipPath id="_clipPath_vgUO33xuDfV9DsEx1Bf923Xp55b8w53V"><rect width="36" height="33.748"/></clipPath></defs><g clip-path="url(#_clipPath_vgUO33xuDfV9DsEx1Bf923Xp55b8w53V)"><path d=" M 32.587 13.367 C 32.348 13.367 32.115 13.392 31.89 13.439 C 31.022 11.214 29.328 9.409 27.181 8.392 C 27.199 8.251 27.212 8.109 27.212 7.963 C 27.212 6.079 25.683 4.551 23.799 4.551 C 23 4.551 22.267 4.827 21.685 5.287 L 21.685 7.622 L 21.685 9.251 L 21.685 10.639 C 22.267 11.099 23 11.376 23.799 11.376 C 24.963 11.376 25.99 10.792 26.605 9.902 C 28.365 10.769 29.742 12.282 30.431 14.136 C 29.665 14.761 29.174 15.713 29.174 16.779 C 29.174 17.858 29.677 18.818 30.458 19.444 C 29.778 21.331 28.387 22.873 26.605 23.752 C 25.989 22.862 24.963 22.278 23.798 22.278 C 23 22.278 22.266 22.555 21.685 23.014 L 21.685 24.403 L 21.685 26.031 L 21.685 28.367 C 22.266 28.827 23 29.103 23.798 29.103 C 25.683 29.103 27.211 27.575 27.211 25.691 C 27.211 25.545 27.199 25.402 27.181 25.262 C 29.356 24.232 31.065 22.392 31.923 20.127 C 32.137 20.169 32.36 20.192 32.587 20.192 C 34.472 20.192 36 18.664 36 16.779 C 36 14.895 34.472 13.367 32.587 13.367 Z " fill="rgb(51,120,188)"/><path d=" M 11.206 23.506 C 9.591 24.678 7.475 24.182 5.774 23.483 C 5.752 22.494 5.728 21.504 5.695 20.508 C 6.787 21.316 8.402 22.505 9.704 21.401 C 10.712 19.712 8.732 18.637 7.589 17.818 C 5.132 16.333 5.041 12.272 7.424 10.685 C 8.817 9.804 10.518 10.082 12.054 10.298 C 12.076 11.231 12.099 12.17 12.122 13.103 C 10.842 12.699 9.21 11.886 8.158 13.187 C 7.424 15.105 9.745 15.827 10.865 16.828 C 13.055 18.245 13.243 21.885 11.206 23.506 Z  M 0.043 3.602 L 0 30.146 L 19.813 33.748 L 19.813 0 L 0.043 3.602 Z " fill="rgb(51,120,188)"/></g></svg>