<svg xmlns="http://www.w3.org/2000/svg" viewBox="0 -66.1 285.34 66.10" height="100%"><path fill="currentColor" d="M19.87 -49.75C21.46 -47.02 23.04 -43.63 23.69 -41.47L28.37 -43.27C27.79 -45.07 26.57 -47.45 25.27 -49.75L35.28 -49.75L35.28 -54.29L18.00 -54.29C18.79 -55.87 19.51 -57.53 20.16 -59.18L15.05 -60.41C12.82 -54.00 8.64 -47.81 3.82 -43.78C5.18 -43.13 7.27 -41.69 8.28 -40.82C10.73 -43.20 13.25 -46.30 15.41 -49.75ZM7.92 5.47L13.10 5.47L13.10 -32.54L7.92 -32.54ZM11.66 -39.96C14.47 -37.22 17.57 -33.34 18.86 -30.89L23.11 -33.62C21.67 -36.14 18.43 -39.89 15.70 -42.55ZM44.86 -24.70L44.86 -18.79L27.22 -18.79L27.22 -24.70ZM27.22 -8.50L27.22 -14.83L44.86 -14.83L44.86 -8.50ZM49.97 -4.25L49.97 -28.87L22.25 -28.87L22.25 -0.65L27.22 -0.65L27.22 -4.25ZM64.15 -40.46L25.27 -40.46L25.27 -35.64L58.90 -35.64L58.90 -0.94C58.90 0.22 58.54 0.58 57.10 0.58C55.80 0.72 50.90 0.72 45.94 0.58C46.73 1.94 47.45 3.89 47.74 5.26C54.29 5.26 58.46 5.33 60.84 4.54C63.29 3.67 64.15 2.23 64.15 -0.94ZM46.08 -54.29C46.80 -55.87 47.45 -57.53 47.88 -59.18L42.84 -60.34C41.04 -54.50 37.73 -48.82 33.77 -45.07C34.99 -44.35 37.15 -42.91 38.09 -42.12C40.18 -44.14 42.05 -46.80 43.78 -49.75L49.25 -49.75C51.26 -47.02 53.14 -43.63 53.93 -41.47L58.61 -43.56C57.89 -45.29 56.59 -47.52 55.08 -49.75L66.67 -49.75L66.67 -54.29ZM90.29 -59.98C86.69 -49.10 80.86 -38.38 74.52 -31.39C75.46 -30.17 77.04 -27.36 77.62 -26.14C79.70 -28.58 81.79 -31.39 83.74 -34.42L83.74 5.40L88.85 5.40L88.85 -43.27C91.30 -48.17 93.53 -53.35 95.26 -58.46ZM140.40 -40.61L140.40 -45.79L118.94 -45.79L118.94 -59.98L113.76 -59.98L113.76 -45.79L93.60 -45.79L93.60 -40.61L110.52 -40.61C106.13 -28.44 98.64 -16.27 90.79 -10.01C92.02 -9.07 93.74 -7.20 94.68 -5.98C102.24 -12.89 109.15 -24.70 113.76 -37.15L113.76 -12.67L102.02 -12.67L102.02 -7.78L113.76 -7.78L113.76 5.11L118.94 5.11L118.94 -7.78L130.54 -7.78L130.54 -12.67L118.94 -12.67L118.94 -37.66C123.34 -25.13 130.25 -13.03 137.81 -6.12C138.74 -7.56 140.54 -9.43 141.84 -10.37C134.06 -16.63 126.65 -28.58 122.40 -40.61ZM182.59 -23.11L182.59 -42.19L203.26 -42.19L203.26 -23.11ZM156.46 -23.11L156.46 -42.19L177.05 -42.19L177.05 -23.11ZM182.59 -47.45L182.59 -60.26L177.05 -60.26L177.05 -47.45L151.20 -47.45L151.20 -13.39L156.46 -13.39L156.46 -17.86L177.05 -17.86L177.05 5.47L182.59 5.47L182.59 -17.86L203.26 -17.86L203.26 -13.75L208.73 -13.75L208.73 -47.45ZM257.62 -49.61C256.61 -52.63 254.16 -57.24 252.00 -60.62L246.46 -59.04C248.62 -55.51 250.92 -50.69 251.78 -47.74ZM267.05 -42.34C263.45 -32.62 258.62 -24.70 252.22 -18.22C245.45 -24.98 240.26 -33.19 236.52 -42.34ZM284.40 -42.34L284.40 -47.59L219.89 -47.59L219.89 -42.34L230.98 -42.34C235.15 -31.46 240.84 -22.10 248.26 -14.47C240.41 -7.85 230.76 -2.95 218.88 0.43C219.96 1.66 221.54 4.10 222.19 5.40C234.14 1.58 244.08 -3.60 252.14 -10.66C260.14 -3.46 269.93 1.80 281.66 5.11C282.53 3.60 284.04 1.37 285.34 0.14C273.89 -2.66 264.17 -7.78 256.25 -14.47C263.45 -21.89 268.99 -30.96 273.10 -42.34Z"/></svg>