<svg xmlns="http://www.w3.org/2000/svg" viewBox="0 -42 688.28 42.00" height="100%"><path fill="currentColor" d="M29.11 -21.56L29.11 -22.51L29.11 -22.51Q29.11 -29.40 30.66 -32.98L30.66 -32.98L30.66 -32.98Q32.20 -36.55 35.55 -38.78L35.55 -38.78L35.55 -38.78Q38.89 -41.00 44.75 -41.00L44.75 -41.00L44.75 -41.00Q52.45 -41.00 57.11 -35.57L57.11 -35.57L57.11 -35.57Q61.77 -30.14 61.77 -21.17L61.77 -21.17L61.77 -21.17Q61.77 -14.61 59.26 -9.46L59.26 -9.46L59.26 -9.46Q56.75 -4.31 50.63 0.59L50.63 0.59L46.77 -3.83L46.77 -3.83Q55.44 -10.09 55.44 -20.97L55.44 -20.97L55.44 -20.97Q55.44 -27.64 52.51 -31.72L52.51 -31.72L52.51 -31.72Q49.58 -35.80 44.66 -35.80L44.66 -35.80L44.66 -35.80Q40.92 -35.80 38.78 -33.84L38.78 -33.84L38.78 -33.84Q36.64 -31.89 36.04 -28.47L36.04 -28.47L36.04 -28.47Q35.44 -25.04 35.44 -18.12L35.44 -18.12L35.44 -17.49L35.44 -17.49Q35.44 -10.00 33.45 -6.32L33.45 -6.32L33.45 -6.32Q31.47 -2.63 28.18 -0.81L28.18 -0.81L28.18 -0.81Q24.89 1.00 20.00 1.00L20.00 1.00L20.00 1.00Q12.03 1.00 7.42 -4.30L7.42 -4.30L7.42 -4.30Q2.81 -9.59 2.81 -18.88L2.81 -18.88L2.81 -18.88Q2.81 -25.86 5.50 -31.13L5.50 -31.13L5.50 -31.13Q8.19 -36.40 13.95 -40.98L13.95 -40.98L17.83 -36.52L17.83 -36.52Q9.14 -30.24 9.14 -19.05L9.14 -19.05L9.14 -19.05Q9.14 -12.30 12.04 -8.25L12.04 -8.25L12.04 -8.25Q14.94 -4.20 19.72 -4.20L19.72 -4.20L19.72 -4.20Q23.77 -4.20 25.80 -6.00L25.80 -6.00L25.80 -6.00Q27.84 -7.80 28.48 -11.08L28.48 -11.08L28.48 -11.08Q29.11 -14.36 29.11 -21.56L29.11 -21.56ZM41.09 -5.06L41.09 -5.06ZM41.09 0.00L41.09 0.00ZM23.23 -40.00L23.23 -40.00ZM23.23 -34.94L23.23 -34.94ZM137.81 -15.94L109.38 -15.94L109.38 -5.06L149.09 -5.06L149.09 -40.00L155.31 -40.00L155.31 0.00L103.14 0.00L103.14 -15.94L88.63 -15.94L86.55 -19.69L86.55 -19.69Q89.69 -22.64 89.69 -27.36L89.69 -27.36L89.69 -27.36Q89.69 -31.39 87.55 -33.66L87.55 -33.66L87.55 -33.66Q85.42 -35.94 81.53 -35.94L81.53 -35.94L81.53 -35.94Q77.88 -35.94 75.63 -33.61L75.63 -33.61L75.63 -33.61Q73.38 -31.28 73.38 -27.79L73.38 -27.79L73.38 -27.79Q73.38 -22.47 77.59 -19.63L77.59 -19.63L74.31 -15.44L74.31 -15.44Q70.84 -17.84 69.06 -21.03L69.06 -21.03L69.06 -21.03Q67.28 -24.22 67.28 -27.93L67.28 -27.93L67.28 -27.93Q67.28 -33.70 71.22 -37.35L71.22 -37.35L71.22 -37.35Q75.16 -41.00 81.53 -41.00L81.53 -41.00L81.53 -41.00Q85.75 -41.00 88.98 -39.38L88.98 -39.38L88.98 -39.38Q92.22 -37.77 93.98 -34.82L93.98 -34.82L93.98 -34.82Q95.73 -31.87 95.73 -28.44L95.73 -28.44L95.73 -28.44Q95.73 -23.79 93.52 -21.00L93.52 -21.00L103.14 -21.00L103.14 -22.51L103.14 -22.51Q103.14 -29.37 105.22 -33.21L105.22 -33.21L105.22 -33.21Q107.30 -37.06 111.15 -39.03L111.15 -39.03L111.15 -39.03Q115.00 -41.00 120.52 -41.00L120.52 -41.00L120.52 -41.00Q129.16 -41.00 133.48 -36.54L133.48 -36.54L133.48 -36.54Q137.81 -32.08 137.81 -23.19L137.81 -23.19L137.81 -15.94ZM131.59 -21.00L131.59 -23.02L131.59 -23.02Q131.59 -29.85 128.97 -32.89L128.97 -32.89L128.97 -32.89Q126.34 -35.94 120.44 -35.94L120.44 -35.94L120.44 -35.94Q114.61 -35.94 111.99 -32.88L111.99 -32.88L111.99 -32.88Q109.38 -29.82 109.38 -23.13L109.38 -23.13L109.38 -21.00L131.59 -21.00ZM197.66 0.00L197.66 -22.13L197.66 -22.13Q197.66 -27.95 196.25 -30.62L196.25 -30.62L196.25 -30.62Q194.84 -33.29 192.24 -34.56L192.24 -34.56L192.24 -34.56Q189.64 -35.83 185.70 -35.83L185.70 -35.83L185.70 -35.83Q179.20 -35.83 174.72 -31.81L174.72 -31.81L174.72 -31.81Q170.23 -27.80 169.11 -21.23L169.11 -21.23L169.11 -21.23Q173.25 -24.00 177.83 -24.00L177.83 -24.00L177.83 -24.00Q183.17 -24.00 186.37 -20.78L186.37 -20.78L186.37 -20.78Q189.56 -17.57 189.56 -11.96L189.56 -11.96L189.56 -11.96Q189.56 -6.01 186.24 -2.50L186.24 -2.50L186.24 -2.50Q182.92 1.00 177.27 1.00L177.27 1.00L177.27 1.00Q173.08 1.00 169.79 -1.14L169.79 -1.14L169.79 -1.14Q166.50 -3.28 164.74 -7.44L164.74 -7.44L164.74 -7.44Q162.98 -11.60 162.98 -17.35L162.98 -17.35L162.98 -17.35Q162.98 -24.46 165.84 -29.83L165.84 -29.83L165.84 -29.83Q168.69 -35.19 173.95 -38.10L173.95 -38.10L173.95 -38.10Q179.20 -41.00 185.81 -41.00L185.81 -41.00L185.81 -41.00Q191.08 -41.00 194.84 -39.29L194.84 -39.29L194.84 -39.29Q198.61 -37.58 201.77 -33.55L201.77 -33.55L201.77 -33.55Q204.41 -37.13 208.66 -39.06L208.66 -39.06L208.66 -39.06Q212.91 -41.00 217.83 -41.00L217.83 -41.00L217.83 -41.00Q224.86 -41.00 228.98 -37.84L228.98 -37.84L228.98 -37.84Q233.09 -34.68 233.09 -29.47L233.09 -29.47L233.09 -29.47Q233.09 -25.96 231.42 -23.57L231.42 -23.57L231.42 -23.57Q229.75 -21.19 226.23 -19.64L226.23 -19.64L226.23 -19.64Q229.97 -18.35 231.91 -15.84L231.91 -15.84L231.91 -15.84Q233.86 -13.32 233.86 -10.03L233.86 -10.03L233.86 -10.03Q233.86 -4.84 230.47 -1.93L230.47 -1.93L230.47 -1.93Q227.08 0.97 221.00 0.97L221.00 0.97L221.00 0.97Q217.55 0.97 213.89 0.16L213.89 0.16L215.20 -4.80L215.20 -4.80Q218.05 -4.09 220.30 -4.09L220.30 -4.09L220.30 -4.09Q224.06 -4.09 225.85 -5.59L225.85 -5.59L225.85 -5.59Q227.64 -7.09 227.64 -10.15L227.64 -10.15L227.64 -10.15Q227.64 -12.21 226.52 -13.74L226.52 -13.74L226.52 -13.74Q225.39 -15.27 223.37 -16.10L223.37 -16.10L223.37 -16.10Q221.34 -16.94 217.03 -16.94L217.03 -16.94L215.13 -16.94L215.13 -22.00L216.98 -22.00L216.98 -22.00Q226.88 -22.00 226.88 -28.97L226.88 -28.97L226.88 -28.97Q226.88 -32.23 224.60 -34.01L224.60 -34.01L224.60 -34.01Q222.33 -35.80 217.97 -35.80L217.97 -35.80L217.97 -35.80Q213.19 -35.80 210.06 -33.87L210.06 -33.87L210.06 -33.87Q206.94 -31.94 205.41 -28.41L205.41 -28.41L205.41 -28.41Q203.88 -24.88 203.88 -17.54L203.88 -17.54L203.88 0.00L197.66 0.00ZM168.86 -15.58L168.86 -15.58L168.86 -15.58Q169.03 -9.91 171.28 -6.97L171.28 -6.97L171.28 -6.97Q173.53 -4.03 177.41 -4.03L177.41 -4.03L177.41 -4.03Q180.19 -4.03 181.88 -5.96L181.88 -5.96L181.88 -5.96Q183.56 -7.89 183.56 -11.44L183.56 -11.44L183.56 -11.44Q183.56 -14.97 181.73 -16.97L181.73 -16.97L181.73 -16.97Q179.91 -18.97 176.81 -18.97L176.81 -18.97L176.81 -18.97Q172.73 -18.97 168.86 -15.58ZM298.09 0.00L237.23 0.00L237.23 -5.06L265.42 -5.06L265.42 -5.06Q268.73 -8.07 268.73 -12.56L268.73 -12.56L268.73 -12.56Q268.73 -16.48 266.80 -18.71L266.80 -18.71L266.80 -18.71Q264.86 -20.94 261.28 -20.94L261.28 -20.94L261.28 -20.94Q257.77 -20.94 255.78 -18.95L255.78 -18.95L255.78 -18.95Q253.80 -16.97 253.80 -13.45L253.80 -13.45L253.80 -13.45Q253.80 -11.75 253.97 -10.81L253.97 -10.81L247.98 -10.00L247.98 -10.00Q247.61 -12.04 247.61 -14.15L247.61 -14.15L247.61 -14.15Q247.61 -19.51 251.42 -22.75L251.42 -22.75L251.42 -22.75Q255.23 -26.00 261.45 -26.00L261.45 -26.00L261.45 -26.00Q267.75 -26.00 271.27 -22.46L271.27 -22.46L271.27 -22.46Q274.78 -18.92 274.78 -13.22L274.78 -13.22L274.78 -13.22Q274.78 -8.56 271.94 -5.06L271.94 -5.06L291.80 -5.06L291.80 -40.00L298.09 -40.00L298.09 0.00ZM390.16 -25.65L390.16 -25.65L390.16 -25.65Q388.36 -30.54 383.91 -33.17L383.91 -33.17L383.91 -33.17Q379.47 -35.80 373.34 -35.80L373.34 -35.80L373.34 -35.80Q365.41 -35.80 360.87 -31.52L360.87 -31.52L360.87 -31.52Q356.33 -27.24 356.33 -19.73L356.33 -19.73L356.33 -19.73Q356.33 -15.32 358.13 -11.57L358.13 -11.57L358.13 -11.57Q359.92 -7.83 364.34 -3.91L364.34 -3.91L361.78 0.00L304.23 0.00L304.23 -5.06L332.42 -5.06L332.42 -5.06Q335.73 -8.07 335.73 -12.56L335.73 -12.56L335.73 -12.56Q335.73 -16.48 333.80 -18.71L333.80 -18.71L333.80 -18.71Q331.86 -20.94 328.28 -20.94L328.28 -20.94L328.28 -20.94Q324.77 -20.94 322.78 -18.95L322.78 -18.95L322.78 -18.95Q320.80 -16.97 320.80 -13.45L320.80 -13.45L320.80 -13.45Q320.80 -11.75 320.97 -10.81L320.97 -10.81L314.98 -10.00L314.98 -10.00Q314.61 -12.04 314.61 -14.15L314.61 -14.15L314.61 -14.15Q314.61 -19.51 318.42 -22.75L318.42 -22.75L318.42 -22.75Q322.23 -26.00 328.45 -26.00L328.45 -26.00L328.45 -26.00Q334.75 -26.00 338.27 -22.46L338.27 -22.46L338.27 -22.46Q341.78 -18.92 341.78 -13.22L341.78 -13.22L341.78 -13.22Q341.78 -8.56 338.94 -5.06L338.94 -5.06L355.77 -5.06L355.77 -5.06Q349.94 -11.92 349.94 -20.00L349.94 -20.00L349.94 -20.00Q349.94 -25.96 352.66 -30.81L352.66 -30.81L352.66 -30.81Q355.39 -35.67 360.70 -38.33L360.70 -38.33L360.70 -38.33Q366.00 -41.00 373.31 -41.00L373.31 -41.00L373.31 -41.00Q380.66 -41.00 386.05 -38.21L386.05 -38.21L386.05 -38.21Q391.45 -35.43 394.38 -30.03L394.38 -30.03L394.38 -30.03Q397.30 -24.63 397.30 -17.38L397.30 -17.38L397.30 -17.38Q397.30 -8.46 393.27 -3.73L393.27 -3.73L393.27 -3.73Q389.23 1.00 382.03 1.00L382.03 1.00L382.03 1.00Q375.64 1.00 371.84 -3.23L371.84 -3.23L371.84 -3.23Q368.05 -7.46 368.05 -14.02L368.05 -14.02L368.05 -14.02Q368.05 -20.82 371.73 -24.91L371.73 -24.91L371.73 -24.91Q375.42 -29.00 381.58 -29.00L381.58 -29.00L381.58 -29.00Q386.42 -29.00 390.16 -25.65ZM391.17 -19.62L391.17 -19.62L391.17 -19.62Q389.52 -21.79 387.36 -22.88L387.36 -22.88L387.36 -22.88Q385.20 -23.97 382.81 -23.97L382.81 -23.97L382.81 -23.97Q378.59 -23.97 376.36 -21.41L376.36 -21.41L376.36 -21.41Q374.13 -18.85 374.13 -14.16L374.13 -14.16L374.13 -14.16Q374.13 -9.22 376.15 -6.64L376.15 -6.64L376.15 -6.64Q378.17 -4.06 382.03 -4.06L382.03 -4.06L382.03 -4.06Q386.75 -4.06 389.03 -7.49L389.03 -7.49L389.03 -7.49Q391.31 -10.91 391.31 -17.83L391.31 -17.83L391.31 -17.83Q391.31 -18.48 391.17 -19.62ZM351.77 -40.00L351.77 -40.00ZM436.39 -35.19L436.39 -35.19L436.39 -35.19Q438.75 -38.08 441.98 -39.54L441.98 -39.54L441.98 -39.54Q445.22 -41.00 449.36 -41.00L449.36 -41.00L449.36 -41.00Q454.03 -41.00 457.52 -39.21L457.52 -39.21L457.52 -39.21Q461.00 -37.42 462.84 -34.21L462.84 -34.21L462.84 -34.21Q464.69 -31.01 464.69 -27.33L464.69 -27.33L464.69 -27.33Q464.69 -23.16 463.04 -20.47L463.04 -20.47L463.04 -20.47Q461.39 -17.77 457.83 -15.92L457.83 -15.92L457.83 -15.92Q460.30 -14.91 461.52 -13.02L461.52 -13.02L461.52 -13.02Q462.75 -11.12 462.75 -8.36L462.75 -8.36L462.75 -8.36Q462.75 -3.89 459.99 -1.45L459.99 -1.45L459.99 -1.45Q457.23 1.00 452.20 1.00L452.20 1.00L452.20 1.00Q447.14 1.00 444.31 -1.50L444.31 -1.50L444.31 -1.50Q441.48 -4.00 441.38 -8.52L441.38 -8.52L441.38 -8.52Q437.20 -5.48 429.23 -2.24L429.23 -2.24L429.23 -2.24Q421.27 1.00 414.23 1.00L414.23 1.00L414.23 1.00Q408.75 1.00 405.70 -1.34L405.70 -1.34L405.70 -1.34Q402.64 -3.68 402.64 -8.17L402.64 -8.17L402.64 -8.17Q402.64 -10.18 403.57 -12.10L403.57 -12.10L403.57 -12.10Q404.50 -14.03 407.26 -15.51L407.26 -15.51L407.26 -15.51Q410.02 -17.00 415.64 -17.00L415.64 -17.00L441.14 -17.00L441.14 -17.00Q447.56 -17.00 451.01 -17.82L451.01 -17.82L451.01 -17.82Q454.45 -18.65 456.48 -20.83L456.48 -20.83L456.48 -20.83Q458.50 -23.02 458.50 -27.08L458.50 -27.08L458.50 -27.08Q458.50 -30.82 455.95 -33.40L455.95 -33.40L455.95 -33.40Q453.41 -35.97 448.66 -35.97L448.66 -35.97L448.66 -35.97Q445.14 -35.97 443.02 -34.55L443.02 -34.55L443.02 -34.55Q440.89 -33.14 440.19 -30.83L440.19 -30.83L440.19 -30.83Q439.48 -28.52 439.48 -24.22L439.48 -24.22L439.48 -18.90L433.55 -18.90L433.55 -23.44L433.55 -23.44Q433.55 -26.94 432.93 -29.18L432.93 -29.18L432.93 -29.18Q432.31 -31.41 430.75 -33.06L430.75 -33.06L430.75 -33.06Q429.19 -34.71 426.95 -35.44L426.95 -35.44L426.95 -35.44Q424.72 -36.17 420.98 -36.17L420.98 -36.17L420.98 -36.17Q415.02 -36.17 411.67 -34.46L411.67 -34.46L411.67 -34.46Q413.47 -35.00 415.22 -35.00L415.22 -35.00L415.22 -35.00Q419.69 -35.00 422.12 -32.61L422.12 -32.61L422.12 -32.61Q424.55 -30.21 424.55 -26.41L424.55 -26.41L424.55 -26.41Q424.55 -22.29 421.71 -19.65L421.71 -19.65L421.71 -19.65Q418.88 -17.00 414.00 -17.00L414.00 -17.00L414.00 -17.00Q408.86 -17.00 405.96 -19.75L405.96 -19.75L405.96 -19.75Q403.06 -22.50 403.06 -27.36L403.06 -27.36L403.06 -27.36Q403.06 -31.13 405.26 -34.24L405.26 -34.24L405.26 -34.24Q407.45 -37.34 411.74 -39.17L411.74 -39.17L411.74 -39.17Q416.03 -41.00 421.83 -41.00L421.83 -41.00L421.83 -41.00Q426.75 -41.00 430.16 -39.63L430.16 -39.63L430.16 -39.63Q433.58 -38.25 436.39 -35.19ZM408.55 -30.10L408.55 -30.10L408.55 -30.10Q408.09 -28.78 408.09 -27.57L408.09 -27.57L408.09 -27.57Q408.09 -24.49 409.57 -22.91L409.57 -22.91L409.57 -22.91Q411.05 -21.33 413.89 -21.33L413.89 -21.33L413.89 -21.33Q416.42 -21.33 417.74 -22.72L417.74 -22.72L417.74 -22.72Q419.06 -24.11 419.06 -26.52L419.06 -26.52L419.06 -26.52Q419.06 -28.86 417.73 -30.16L417.73 -30.16L417.73 -30.16Q416.39 -31.45 413.64 -31.45L413.64 -31.45L413.64 -31.45Q411.05 -31.45 408.55 -30.10ZM446.66 -11.52L446.66 -11.52L446.66 -11.52Q446.38 -10.39 446.38 -9.00L446.38 -9.00L446.38 -9.00Q446.38 -6.28 447.87 -4.88L447.87 -4.88L447.87 -4.88Q449.36 -3.47 452.11 -3.47L452.11 -3.47L452.11 -3.47Q454.64 -3.47 455.95 -4.73L455.95 -4.73L455.95 -4.73Q457.27 -5.99 457.27 -8.30L457.27 -8.30L457.27 -8.30Q457.27 -10.71 455.83 -11.98L455.83 -11.98L455.83 -11.98Q454.39 -13.25 451.92 -13.25L451.92 -13.25L451.92 -13.25Q449.11 -13.25 446.66 -11.52ZM440.75 -12.72L440.75 -12.72L440.75 -12.72Q436.92 -12.19 431.58 -12.19L431.58 -12.19L417.38 -12.19L417.38 -12.19Q413.44 -12.19 411.84 -11.82L411.84 -11.82L411.84 -11.82Q410.23 -11.45 409.41 -10.53L409.41 -10.53L409.41 -10.53Q408.58 -9.61 408.58 -8.24L408.58 -8.24L408.58 -8.24Q408.58 -3.92 414.23 -3.92L414.23 -3.92L414.23 -3.92Q417.02 -3.92 420.16 -4.60L420.16 -4.60L420.16 -4.60Q423.31 -5.28 426.02 -6.37L426.02 -6.37L426.02 -6.37Q428.72 -7.45 436.17 -10.84L436.17 -10.84L436.17 -10.84Q438.42 -11.87 440.75 -12.72ZM551.25 -17.70L551.25 -40.00L557.47 -40.00L557.47 -18.98L557.47 -18.98Q557.47 -14.98 557.77 -12.62L557.77 -12.62L557.77 -12.62Q558.08 -10.27 559.13 -8.35L559.13 -8.35L559.13 -8.35Q560.19 -6.44 562.09 -5.31L562.09 -5.31L562.09 -5.31Q563.98 -4.17 566.69 -4.17L566.69 -4.17L566.69 -4.17Q571.58 -4.17 574.79 -8.41L574.79 -8.41L574.79 -8.41Q578.00 -12.65 578.00 -18.99L578.00 -18.99L578.00 -18.99Q578.00 -30.24 569.39 -36.41L569.39 -36.41L573.69 -40.98L573.69 -40.98Q579.38 -36.38 581.85 -31.08L581.85 -31.08L581.85 -31.08Q584.33 -25.79 584.33 -18.99L584.33 -18.99L584.33 -18.99Q584.33 -13.24 582.10 -8.63L582.10 -8.63L582.10 -8.63Q579.88 -4.03 575.80 -1.52L575.80 -1.52L575.80 -1.52Q571.72 1.00 566.41 1.00L566.41 1.00L566.41 1.00Q562.47 1.00 559.55 -0.55L559.55 -0.55L559.55 -0.55Q556.63 -2.09 554.31 -5.58L554.31 -5.58L554.31 -5.58Q550.34 1.00 542.00 1.00L542.00 1.00L542.00 1.00Q538.95 1.00 536.35 -0.03L536.35 -0.03L536.35 -0.03Q533.75 -1.06 531.71 -3.52L531.71 -3.52L531.71 -3.52Q529.67 -5.98 528.95 -9.21L528.95 -9.21L528.95 -9.21Q528.22 -12.44 528.22 -17.85L528.22 -17.85L528.22 -18.96L528.22 -18.96Q528.22 -28.38 524.69 -32.20L524.69 -32.20L524.69 -32.20Q521.16 -36.03 514.48 -36.03L514.48 -36.03L514.48 -36.03Q511.45 -36.03 509.14 -35.40L509.14 -35.40L509.14 -35.40Q513.88 -31.86 516.52 -26.74L516.52 -26.74L516.52 -26.74Q519.16 -21.62 519.16 -15.66L519.16 -15.66L519.16 -15.66Q519.16 -7.75 515.30 -3.38L515.30 -3.38L515.30 -3.38Q511.45 1.00 504.53 1.00L504.53 1.00L504.53 1.00Q497.64 1.00 493.73 -3.41L493.73 -3.41L493.73 -3.41Q489.83 -7.83 489.83 -15.66L489.83 -15.66L489.83 -15.66Q489.83 -21.76 492.34 -26.74L492.34 -26.74L492.34 -26.74Q494.86 -31.72 499.64 -35.32L499.64 -35.32L499.64 -35.32Q497.19 -36.03 493.88 -36.03L493.88 -36.03L493.88 -36.03Q488.84 -36.03 485.07 -34.05L485.07 -34.05L485.07 -34.05Q481.30 -32.08 479.26 -28.32L479.26 -28.32L479.26 -28.32Q477.22 -24.56 477.22 -19.73L477.22 -19.73L477.22 -19.73Q477.22 -9.27 485.97 -3.91L485.97 -3.91L482.42 0.63L482.42 0.63Q476.89 -2.51 473.85 -7.89L473.85 -7.89L473.85 -7.89Q470.81 -13.27 470.81 -20.01L470.81 -20.01L470.81 -20.01Q470.81 -26.22 473.63 -31.03L473.63 -31.03L473.63 -31.03Q476.44 -35.84 481.50 -38.42L481.50 -38.42L481.50 -38.42Q486.56 -41.00 493.25 -41.00L493.25 -41.00L493.25 -41.00Q499.33 -41.00 504.31 -38.64L504.31 -38.64L504.31 -38.64Q509.48 -41.00 514.94 -41.00L514.94 -41.00L514.94 -41.00Q522.36 -41.00 526.61 -38.31L526.61 -38.31L526.61 -38.31Q530.86 -35.61 532.66 -31.48L532.66 -31.48L532.66 -31.48Q534.45 -27.34 534.45 -20.51L534.45 -20.51L534.45 -19.03L534.45 -19.03Q534.45 -12.85 535.19 -10.03L535.19 -10.03L535.19 -10.03Q535.92 -7.21 537.82 -5.69L537.82 -5.69L537.82 -5.69Q539.72 -4.17 542.84 -4.17L542.84 -4.17L542.84 -4.17Q545.77 -4.17 547.75 -5.73L547.75 -5.73L547.75 -5.73Q549.73 -7.29 550.49 -10.01L550.49 -10.01L550.49 -10.01Q551.25 -12.74 551.25 -17.70L551.25 -17.70ZM504.39 -33.01L504.39 -33.01L504.39 -33.01Q500.48 -30.31 498.32 -25.85L498.32 -25.85L498.32 -25.85Q496.16 -21.39 496.16 -15.88L496.16 -15.88L496.16 -15.88Q496.16 -10.00 498.29 -7.03L498.29 -7.03L498.29 -7.03Q500.42 -4.06 504.53 -4.06L504.53 -4.06L504.53 -4.06Q512.83 -4.06 512.83 -15.88L512.83 -15.88L512.83 -15.88Q512.83 -21.08 510.54 -25.69L510.54 -25.69L510.54 -25.69Q508.25 -30.31 504.39 -33.01ZM488.00 -5.06L488.00 -5.06ZM488.00 0.00L488.00 0.00ZM565.06 -34.94L565.06 -34.94ZM630.88 0.00L624.66 0.00L624.66 -22.13L624.66 -22.13Q624.66 -27.95 623.25 -30.62L623.25 -30.62L623.25 -30.62Q621.84 -33.29 619.24 -34.56L619.24 -34.56L619.24 -34.56Q616.64 -35.83 612.70 -35.83L612.70 -35.83L612.70 -35.83Q606.20 -35.83 601.72 -31.81L601.72 -31.81L601.72 -31.81Q597.23 -27.80 596.11 -21.23L596.11 -21.23L596.11 -21.23Q600.25 -24.00 604.83 -24.00L604.83 -24.00L604.83 -24.00Q610.17 -24.00 613.37 -20.78L613.37 -20.78L613.37 -20.78Q616.56 -17.57 616.56 -11.96L616.56 -11.96L616.56 -11.96Q616.56 -6.01 613.24 -2.50L613.24 -2.50L613.24 -2.50Q609.92 1.00 604.27 1.00L604.27 1.00L604.27 1.00Q600.08 1.00 596.79 -1.14L596.79 -1.14L596.79 -1.14Q593.50 -3.28 591.74 -7.44L591.74 -7.44L591.74 -7.44Q589.98 -11.60 589.98 -17.35L589.98 -17.35L589.98 -17.35Q589.98 -24.46 592.84 -29.83L592.84 -29.83L592.84 -29.83Q595.69 -35.19 600.95 -38.10L600.95 -38.10L600.95 -38.10Q606.20 -41.00 612.81 -41.00L612.81 -41.00L612.81 -41.00Q618.02 -41.00 621.69 -39.36L621.69 -39.36L621.69 -39.36Q625.36 -37.72 628.38 -34.00L628.38 -34.00L628.38 -34.00Q630.91 -37.48 634.80 -39.24L634.80 -39.24L634.80 -39.24Q638.69 -41.00 643.92 -41.00L643.92 -41.00L643.92 -41.00Q650.25 -41.00 655.06 -38.67L655.06 -38.67L655.06 -38.67Q660.20 -41.00 666.91 -41.00L666.91 -41.00L666.91 -41.00Q673.45 -41.00 678.29 -38.44L678.29 -38.44L678.29 -38.44Q683.13 -35.87 685.70 -31.13L685.70 -31.13L685.70 -31.13Q688.28 -26.39 688.28 -20.29L688.28 -20.29L688.28 -20.29Q688.28 -6.74 676.69 0.63L676.69 0.63L673.14 -3.91L673.14 -3.91Q677.45 -6.56 679.67 -10.53L679.67 -10.53L679.67 -10.53Q681.89 -14.50 681.89 -19.55L681.89 -19.55L681.89 -19.55Q681.89 -24.31 679.99 -28.12L679.99 -28.12L679.99 -28.12Q678.09 -31.94 674.54 -33.98L674.54 -33.98L674.54 -33.98Q670.98 -36.03 666.20 -36.03L666.20 -36.03L666.20 -36.03Q662.41 -36.03 659.78 -35.32L659.78 -35.32L659.78 -35.32Q664.31 -31.83 666.79 -26.74L666.79 -26.74L666.79 -26.74Q669.27 -21.66 669.27 -15.71L669.27 -15.71L669.27 -15.71Q669.27 -7.81 665.41 -3.41L665.41 -3.41L665.41 -3.41Q661.56 1.00 654.61 1.00L654.61 1.00L654.61 1.00Q647.69 1.00 643.80 -3.43L643.80 -3.43L643.80 -3.43Q639.91 -7.85 639.91 -15.70L639.91 -15.70L639.91 -15.70Q639.91 -21.76 642.56 -26.79L642.56 -26.79L642.56 -26.79Q645.22 -31.83 650.25 -35.37L650.25 -35.37L650.25 -35.37Q647.97 -36.03 644.77 -36.03L644.77 -36.03L644.77 -36.03Q639.25 -36.03 636.38 -34.11L636.38 -34.11L636.38 -34.11Q633.52 -32.19 632.20 -29.12L632.20 -29.12L632.20 -29.12Q630.88 -26.05 630.88 -19.34L630.88 -19.34L630.88 0.00ZM654.95 -33.07L654.95 -33.07L654.95 -33.07Q650.92 -30.48 648.58 -25.94L648.58 -25.94L648.58 -25.94Q646.23 -21.39 646.23 -15.88L646.23 -15.88L646.23 -15.88Q646.23 -10.00 648.37 -7.03L648.37 -7.03L648.37 -7.03Q650.50 -4.06 654.61 -4.06L654.61 -4.06L654.61 -4.06Q662.94 -4.06 662.94 -15.88L662.94 -15.88L662.94 -15.88Q662.94 -21.25 660.84 -25.85L660.84 -25.85L660.84 -25.85Q658.75 -30.45 654.95 -33.07ZM595.86 -15.58L595.86 -15.58L595.86 -15.58Q596.03 -9.91 598.28 -6.97L598.28 -6.97L598.28 -6.97Q600.53 -4.03 604.41 -4.03L604.41 -4.03L604.41 -4.03Q607.19 -4.03 608.88 -5.96L608.88 -5.96L608.88 -5.96Q610.56 -7.89 610.56 -11.44L610.56 -11.44L610.56 -11.44Q610.56 -14.97 608.73 -16.97L608.73 -16.97L608.73 -16.97Q606.91 -18.97 603.81 -18.97L603.81 -18.97L603.81 -18.97Q599.73 -18.97 595.86 -15.58ZM670.98 -5.06L670.98 -5.06Z"/></svg>