<svg xmlns="http://www.w3.org/2000/svg" viewBox="0 -52.91 365.61 52.91" height="100%"><path fill="currentColor" d="M37.66 -25.77L37.66 -25.77L37.66 -25.77Q37.66 -12.27 33.42 -5.78L33.42 -5.78L33.42 -5.78Q29.19 0.70 20.53 0.70L20.53 0.70L20.53 0.70Q12.23 0.70 7.88 -6.02L7.88 -6.02L7.88 -6.02Q3.52 -12.73 3.52 -25.77L3.52 -25.77L3.52 -25.77Q3.52 -39.13 7.72 -45.66L7.72 -45.66L7.72 -45.66Q11.92 -52.20 20.53 -52.20L20.53 -52.20L20.53 -52.20Q29.14 -52.20 33.40 -45.27L33.40 -45.27L33.40 -45.27Q37.66 -38.33 37.66 -25.77ZM9.88 -25.77L9.88 -25.77L9.88 -25.77Q9.88 -15.13 12.29 -9.90L12.29 -9.90L12.29 -9.90Q14.70 -4.67 20.53 -4.67L20.53 -4.67L20.53 -4.67Q26.38 -4.67 28.81 -9.86L28.81 -9.86L28.81 -9.86Q31.25 -15.05 31.25 -25.77L31.25 -25.77L31.25 -25.77Q31.25 -36.36 28.81 -41.58L28.81 -41.58L28.81 -41.58Q26.38 -46.80 20.53 -46.80L20.53 -46.80L20.53 -46.80Q14.70 -46.80 12.29 -41.58L12.29 -41.58L12.29 -41.58Q9.88 -36.36 9.88 -25.77ZM61.14 -25.14L61.14 -19.80L61.14 -19.80Q59.56 -19.02 57.28 -19.02L57.28 -19.02L57.28 -19.02Q51.30 -19.02 47.91 -22.36L47.91 -22.36L47.91 -22.36Q44.52 -25.70 44.52 -32.98L44.52 -32.98L44.52 -32.98Q44.52 -42.69 49.02 -47.45L49.02 -47.45L49.02 -47.45Q53.52 -52.20 61.22 -52.20L61.22 -52.20L61.22 -52.20Q70.00 -52.20 74.33 -45.86L74.33 -45.86L74.33 -45.86Q78.66 -39.52 78.66 -27.95L78.66 -27.95L78.66 -27.95Q78.66 -13.75 73.05 -6.52L73.05 -6.52L73.05 -6.52Q67.44 0.70 55.77 0.70L55.77 0.70L55.77 0.70Q51.66 0.70 48.77 -0.28L48.77 -0.28L48.77 -5.98L48.77 -5.98Q51.80 -4.67 55.77 -4.67L55.77 -4.67L55.77 -4.67Q64.56 -4.67 68.41 -10.41L68.41 -10.41L68.41 -10.41Q72.25 -16.14 72.25 -27.95L72.25 -27.95L72.25 -27.95Q72.25 -37.38 69.69 -42.09L69.69 -42.09L69.69 -42.09Q67.13 -46.80 61.22 -46.80L61.22 -46.80L61.22 -46.80Q55.84 -46.80 53.36 -43.63L53.36 -43.63L53.36 -43.63Q50.88 -40.47 50.88 -32.98L50.88 -32.98L50.88 -32.98Q50.88 -28.44 52.53 -26.42L52.53 -26.42L52.53 -26.42Q54.19 -24.41 57.42 -24.41L57.42 -24.41L57.42 -24.41Q59.56 -24.41 61.14 -25.14L61.14 -25.14ZM122.67 0.00L104.33 0.00L104.33 0.00Q110.09 -11.11 112.22 -17.83L112.22 -17.83L112.22 -17.83Q114.34 -24.55 114.34 -31.39L114.34 -31.39L114.34 -31.39Q114.34 -38.75 111.48 -42.73L111.48 -42.73L111.48 -42.73Q108.61 -46.72 103.38 -46.72L103.38 -46.72L103.38 -46.72Q97.89 -46.72 94.80 -42.15L94.80 -42.15L94.80 -42.15Q91.70 -37.58 91.70 -29.22L91.70 -29.22L91.70 -29.22Q91.70 -22.05 93.04 -15.02L93.04 -15.02L93.04 -15.02Q94.38 -7.98 97.41 0.00L97.41 0.00L91.22 0.00L91.22 0.00Q88.41 -6.92 86.96 -14.41L86.96 -14.41L86.96 -14.41Q85.52 -21.91 85.52 -29.22L85.52 -29.22L85.52 -29.22Q85.52 -39.80 90.27 -45.97L90.27 -45.97L90.27 -45.97Q95.02 -52.14 103.38 -52.14L103.38 -52.14L103.38 -52.14Q111.64 -52.14 116.09 -46.60L116.09 -46.60L116.09 -46.60Q120.53 -41.06 120.53 -31.39L120.53 -31.39L120.53 -31.39Q120.53 -19.41 112.27 -5.77L112.27 -5.77L122.67 -5.77L122.67 0.00ZM156.66 0.00L150.47 0.00L150.47 0.00Q154.09 -11.67 155.13 -17.27L155.13 -17.27L155.13 -17.27Q156.17 -22.86 156.17 -29.22L156.17 -29.22L156.17 -29.22Q156.17 -37.41 153.53 -42.06L153.53 -42.06L153.53 -42.06Q150.89 -46.72 145.94 -46.72L145.94 -46.72L145.94 -46.72Q141.16 -46.72 138.43 -42.08L138.43 -42.08L138.43 -42.08Q135.70 -37.44 135.70 -29.22L135.70 -29.22L135.70 -29.22Q135.70 -22.05 137.04 -15.02L137.04 -15.02L137.04 -15.02Q138.38 -7.98 141.41 0.00L141.41 0.00L135.22 0.00L135.22 0.00Q132.41 -6.92 130.96 -14.41L130.96 -14.41L130.96 -14.41Q129.52 -21.91 129.52 -29.22L129.52 -29.22L129.52 -29.22Q129.52 -39.94 133.96 -46.04L133.96 -46.04L133.96 -46.04Q138.41 -52.14 145.94 -52.14L145.94 -52.14L145.94 -52.14Q152.66 -52.14 156.91 -47.53L156.91 -47.53L156.91 -47.53Q160.48 -52.14 167.56 -52.14L167.56 -52.14L167.56 -52.14Q175.44 -52.14 179.70 -46.60L179.70 -46.60L179.70 -46.60Q183.97 -41.06 183.97 -31.39L183.97 -31.39L183.97 -31.39Q183.97 -25.28 182.07 -19.46L182.07 -19.46L182.07 -19.46Q180.17 -13.64 175.75 -5.77L175.75 -5.77L186.13 -5.77L186.13 0.00L167.77 0.00L167.77 0.00Q173.53 -11.11 175.66 -17.83L175.66 -17.83L175.66 -17.83Q177.78 -24.55 177.78 -31.39L177.78 -31.39L177.78 -31.39Q177.78 -38.75 175.08 -42.73L175.08 -42.73L175.08 -42.73Q172.38 -46.72 167.56 -46.72L167.56 -46.72L167.56 -46.72Q162.56 -46.72 159.92 -42.86L159.92 -42.86L159.92 -42.86Q162.36 -37.30 162.36 -29.22L162.36 -29.22L162.36 -29.22Q162.36 -22.19 160.97 -15.42L160.97 -15.42L160.97 -15.42Q159.58 -8.66 156.66 0.00L156.66 0.00ZM203.84 -36.95L207.22 -32.70L207.22 -32.70Q202.47 -29.22 200.64 -25.72L200.64 -25.72L200.64 -25.72Q198.81 -22.22 198.81 -17.13L198.81 -17.13L198.81 -17.13Q198.81 -11.22 201.43 -7.95L201.43 -7.95L201.43 -7.95Q204.05 -4.67 208.16 -4.67L208.16 -4.67L208.16 -4.67Q212.34 -4.67 215.00 -7.95L215.00 -7.95L215.00 -7.95Q217.66 -11.22 217.66 -17.13L217.66 -17.13L217.66 -17.13Q217.66 -25.45 212.91 -34.51L212.91 -34.51L212.91 -34.51Q208.16 -43.56 201.45 -51.41L201.45 -51.41L209.14 -51.41L209.14 -51.41Q213.13 -46.55 216.88 -40.02L216.88 -40.02L216.88 -40.02Q220.64 -33.50 222.24 -28.35L222.24 -28.35L222.24 -28.35Q223.84 -23.20 223.84 -17.13L223.84 -17.13L223.84 -17.13Q223.84 -8.69 219.73 -3.99L219.73 -3.99L219.73 -3.99Q215.61 0.70 208.16 0.70L208.16 0.70L208.16 0.70Q200.61 0.70 196.60 -4.09L196.60 -4.09L196.60 -4.09Q192.59 -8.89 192.59 -17.13L192.59 -17.13L192.59 -17.13Q192.59 -23.84 195.44 -28.52L195.44 -28.52L195.44 -28.52Q198.28 -33.19 203.84 -36.95L203.84 -36.95ZM276.47 0.00L270.06 0.00L261.56 -34.77L261.56 -34.77Q261.00 -36.95 259.56 -45.81L259.56 -45.81L259.56 -45.81Q258.19 -37.30 257.52 -34.77L257.52 -34.77L253.58 -17.19L253.58 -17.19Q252.11 -10.55 250.31 -6.72L250.31 -6.72L250.31 -6.72Q248.52 -2.89 246.00 -1.09L246.00 -1.09L246.00 -1.09Q243.48 0.70 239.59 0.70L239.59 0.70L239.59 0.70Q234.48 0.70 231.81 -2.29L231.81 -2.29L231.81 -2.29Q229.14 -5.28 229.14 -10.80L229.14 -10.80L229.14 -10.80Q229.14 -14.42 229.76 -17.18L229.76 -17.18L229.76 -17.18Q230.38 -19.94 231.81 -22.95L231.81 -22.95L238.22 -22.95L238.22 -22.95Q236.64 -19.94 236.01 -17.18L236.01 -17.18L236.01 -17.18Q235.38 -14.42 235.38 -10.80L235.38 -10.80L235.38 -10.80Q235.38 -7.77 236.55 -6.22L236.55 -6.22L236.55 -6.22Q237.72 -4.67 239.59 -4.67L239.59 -4.67L239.59 -4.67Q241.63 -4.67 242.91 -6.08L242.91 -6.08L242.91 -6.08Q244.19 -7.48 245.35 -10.58L245.35 -10.58L245.35 -10.58Q246.52 -13.67 247.67 -18.70L247.67 -18.70L255.30 -51.41L263.50 -51.41L276.47 0.00ZM295.05 -17.13L295.05 -36.81L301.28 -36.81L301.28 -30.73L301.73 -30.83L301.98 -30.83L301.98 -30.83Q308.83 -30.83 312.45 -26.95L312.45 -26.95L312.45 -26.95Q316.08 -23.06 316.08 -15.69L316.08 -15.69L316.08 -15.69Q316.08 -7.34 311.77 -3.32L311.77 -3.32L311.77 -3.32Q307.47 0.70 299.45 0.70L299.45 0.70L299.45 0.70Q290.09 0.70 285.12 -5.88L285.12 -5.88L285.12 -5.88Q280.14 -12.45 280.14 -24.33L280.14 -24.33L280.14 -24.33Q280.14 -37.86 286.12 -45.00L286.12 -45.00L286.12 -45.00Q292.09 -52.14 303.70 -52.14L303.70 -52.14L303.70 -52.14Q306.44 -52.14 309.18 -51.66L309.18 -51.66L309.18 -51.66Q311.92 -51.19 313.66 -50.34L313.66 -50.34L313.66 -44.44L313.66 -44.44Q309.61 -46.72 303.84 -46.72L303.84 -46.72L303.84 -46.72Q295.02 -46.72 290.77 -41.19L290.77 -41.19L290.77 -41.19Q286.52 -35.66 286.52 -24.33L286.52 -24.33L286.52 -24.33Q286.52 -14.91 289.99 -9.79L289.99 -9.79L289.99 -9.79Q293.47 -4.67 299.45 -4.67L299.45 -4.67L299.45 -4.67Q303.98 -4.67 306.83 -7.27L306.83 -7.27L306.83 -7.27Q309.67 -9.88 309.67 -15.69L309.67 -15.69L309.67 -15.69Q309.67 -20.89 307.77 -23.30L307.77 -23.30L307.77 -23.30Q305.88 -25.70 301.98 -25.70L301.98 -25.70L301.28 -25.70L301.28 -17.13L295.05 -17.13ZM365.61 -17.86L365.61 -17.86L365.61 -17.86Q365.61 -9.17 362.09 -4.23L362.09 -4.23L362.09 -4.23Q358.58 0.70 351.94 0.70L351.94 0.70L351.94 0.70Q341.28 0.70 341.28 -11.39L341.28 -11.39L341.28 -19.30L341.28 -19.30Q341.28 -22.75 340.28 -24.02L340.28 -24.02L340.28 -24.02Q339.28 -25.28 337.17 -25.28L337.17 -25.28L337.17 -25.28Q335.03 -25.28 333.70 -23.26L333.70 -23.26L333.70 -23.26Q332.36 -21.23 332.36 -16.48L332.36 -16.48L332.36 -16.48Q332.36 -6.50 336.33 0.00L336.33 0.00L329.86 0.00L329.86 0.00Q326.03 -6.78 326.03 -16.48L326.03 -16.48L326.03 -16.48Q326.03 -23.77 328.95 -27.21L328.95 -27.21L328.95 -27.21Q331.86 -30.66 337.17 -30.66L337.17 -30.66L337.17 -30.66Q342.44 -30.66 344.95 -27.67L344.95 -27.67L344.95 -27.67Q347.47 -24.69 347.47 -19.30L347.47 -19.30L347.47 -11.39L347.47 -11.39Q347.47 -7.70 348.73 -6.19L348.73 -6.19L348.73 -6.19Q350.00 -4.67 351.94 -4.67L351.94 -4.67L351.94 -4.67Q355.17 -4.67 357.23 -8.14L357.23 -8.14L357.23 -8.14Q359.28 -11.61 359.28 -17.86L359.28 -17.86L359.28 -17.86Q359.28 -32.06 354.15 -39.39L354.15 -39.39L354.15 -39.39Q349.02 -46.72 339.06 -46.72L339.06 -46.72L339.06 -46.72Q334.00 -46.72 330.70 -44.72L330.70 -44.72L330.70 -50.34L330.70 -50.34Q332.22 -51.19 334.55 -51.66L334.55 -51.66L334.55 -51.66Q336.89 -52.14 339.20 -52.14L339.20 -52.14L339.20 -52.14Q351.91 -52.14 358.76 -43.28L358.76 -43.28L358.76 -43.28Q365.61 -34.42 365.61 -17.86Z"/></svg>