<svg xmlns="http://www.w3.org/2000/svg" viewBox="0 -52.92 369.49 52.92" height="100%"><path fill="currentColor" d="M18.79 0.72L18.79 0.72L18.79 0.72Q13.61 0.72 10.33 -1.51L10.33 -1.51L10.33 -1.51Q7.06 -3.74 5.54 -7.52L5.54 -7.52L5.54 -7.52Q4.03 -11.30 4.03 -15.84L4.03 -15.84L4.03 -15.84Q4.03 -18.00 4.32 -20.09L4.32 -20.09L4.32 -20.09Q4.61 -22.18 5.04 -24.05L5.04 -24.05L11.02 -24.05L11.02 -24.05Q10.66 -21.67 10.51 -19.69L10.51 -19.69L10.51 -19.69Q10.37 -17.71 10.37 -16.42L10.37 -16.42L10.37 -16.42Q10.37 -10.66 12.60 -7.52L12.60 -7.52L12.60 -7.52Q14.83 -4.39 18.94 -4.39L18.94 -4.39L18.94 -4.39Q24.05 -4.39 26.21 -8.35L26.21 -8.35L26.21 -8.35Q28.37 -12.31 28.37 -20.16L28.37 -20.16L28.37 -20.16Q28.37 -35.42 23.26 -51.41L23.26 -51.41L30.31 -51.41L46.73 -35.42L42.91 -31.46L35.71 -38.59L35.71 -38.59Q34.70 -39.60 33.26 -41.33L33.26 -41.33L33.26 -41.33Q31.82 -43.06 31.03 -44.14L31.03 -44.14L31.03 -44.14Q33.26 -37.80 33.98 -32.22L33.98 -32.22L33.98 -32.22Q34.70 -26.64 34.70 -20.88L34.70 -20.88L34.70 -20.88Q34.70 -14.69 33.23 -9.79L33.23 -9.79L33.23 -9.79Q31.75 -4.90 28.26 -2.09L28.26 -2.09L28.26 -2.09Q24.77 0.72 18.79 0.72ZM62.26 0.00L55.06 0.00L55.06 -51.41L61.10 -51.41L61.10 -23.18L61.10 -23.18Q61.10 -20.74 61.03 -17.82L61.03 -17.82L61.03 -17.82Q60.96 -14.90 60.82 -12.42L60.82 -12.42L60.82 -12.42Q60.67 -9.94 60.60 -8.86L60.60 -8.86L60.89 -8.86L89.18 -51.41L96.38 -51.41L96.38 0.00L90.34 0.00L90.34 -27.94L90.34 -27.94Q90.34 -30.53 90.44 -33.59L90.44 -33.59L90.44 -33.59Q90.55 -36.65 90.70 -39.17L90.70 -39.17L90.70 -39.17Q90.84 -41.69 90.91 -42.77L90.91 -42.77L90.62 -42.77L62.26 0.00ZM133.31 -46.30L111.93 -46.30L111.93 -51.41L133.31 -51.41L133.31 -46.30ZM133.31 -37.66L111.93 -37.66L111.93 -42.77L133.31 -42.77L133.31 -37.66ZM122.51 0.72L122.51 0.72L122.51 0.72Q117.98 0.72 114.48 -1.37L114.48 -1.37L114.48 -1.37Q110.99 -3.46 108.98 -7.38L108.98 -7.38L108.98 -7.38Q106.96 -11.30 106.96 -16.92L106.96 -16.92L106.96 -16.92Q106.96 -25.34 111.21 -29.92L111.21 -29.92L111.21 -29.92Q115.46 -34.49 122.73 -34.49L122.73 -34.49L122.73 -34.49Q127.34 -34.49 130.83 -32.44L130.83 -32.44L130.83 -32.44Q134.32 -30.38 136.34 -26.46L136.34 -26.46L136.34 -26.46Q138.35 -22.54 138.35 -16.92L138.35 -16.92L138.35 -16.92Q138.35 -8.50 134.07 -3.89L134.07 -3.89L134.07 -3.89Q129.78 0.72 122.51 0.72ZM122.66 -4.54L122.66 -4.54L122.66 -4.54Q127.34 -4.54 129.57 -7.88L129.57 -7.88L129.57 -7.88Q131.80 -11.23 131.80 -16.92L131.80 -16.92L131.80 -16.92Q131.80 -22.61 129.57 -25.88L129.57 -25.88L129.57 -25.88Q127.34 -29.16 122.58 -29.16L122.58 -29.16L122.58 -29.16Q117.83 -29.16 115.67 -25.88L115.67 -25.88L115.67 -25.88Q113.51 -22.61 113.51 -16.92L113.51 -16.92L113.51 -16.92Q113.51 -11.23 115.71 -7.88L115.71 -7.88L115.71 -7.88Q117.90 -4.54 122.66 -4.54ZM157.62 0.00L150.21 0.00L162.74 -22.61L162.74 -22.61Q160.22 -23.62 157.44 -25.56L157.44 -25.56L157.44 -25.56Q154.67 -27.50 152.30 -30.13L152.30 -30.13L152.30 -30.13Q149.92 -32.76 148.44 -35.86L148.44 -35.86L148.44 -35.86Q146.97 -38.95 146.97 -42.26L146.97 -42.26L146.97 -42.26Q146.97 -47.38 149.88 -49.79L149.88 -49.79L149.88 -49.79Q152.80 -52.20 156.83 -52.20L156.83 -52.20L156.83 -52.20Q159.57 -52.20 162.63 -50.90L162.63 -50.90L162.63 -50.90Q165.69 -49.61 168.60 -47.34L168.60 -47.34L168.60 -47.34Q171.52 -45.07 173.68 -42.34L173.68 -42.34L178.72 -51.41L186.14 -51.41L157.62 0.00ZM165.83 -28.15L165.83 -28.15L170.08 -35.78L170.08 -35.78Q169.00 -37.51 167.31 -39.31L167.31 -39.31L167.31 -39.31Q165.62 -41.11 163.71 -42.62L163.71 -42.62L163.71 -42.62Q161.80 -44.14 160.00 -45.07L160.00 -45.07L160.00 -45.07Q158.20 -46.01 156.83 -46.01L156.83 -46.01L156.83 -46.01Q155.25 -46.01 154.20 -44.96L154.20 -44.96L154.20 -44.96Q153.16 -43.92 153.16 -42.26L153.16 -42.26L153.16 -42.26Q153.16 -40.68 154.42 -38.52L154.42 -38.52L154.42 -38.52Q155.68 -36.36 157.62 -34.20L157.62 -34.20L157.62 -34.20Q159.57 -32.04 161.76 -30.38L161.76 -30.38L161.76 -30.38Q163.96 -28.73 165.83 -28.15ZM182.39 -19.37L182.39 -19.37L182.39 -19.37Q180.59 -19.37 179.30 -20.52L179.30 -20.52L179.30 -20.52Q178.00 -21.67 178.00 -24.26L178.00 -24.26L178.00 -24.26Q178.00 -26.93 179.30 -28.01L179.30 -28.01L179.30 -28.01Q180.59 -29.09 182.39 -29.09L182.39 -29.09L182.39 -29.09Q184.19 -29.09 185.56 -28.01L185.56 -28.01L185.56 -28.01Q186.93 -26.93 186.93 -24.26L186.93 -24.26L186.93 -24.26Q186.93 -21.67 185.56 -20.52L185.56 -20.52L185.56 -20.52Q184.19 -19.37 182.39 -19.37ZM211.03 -43.42L211.03 -43.42L211.03 -43.42Q209.45 -43.42 208.37 -44.39L208.37 -44.39L208.37 -44.39Q207.29 -45.36 207.29 -47.45L207.29 -47.45L207.29 -47.45Q207.29 -49.54 208.37 -50.51L208.37 -50.51L208.37 -50.51Q209.45 -51.48 211.03 -51.48L211.03 -51.48L211.03 -51.48Q212.47 -51.48 213.59 -50.51L213.59 -50.51L213.59 -50.51Q214.70 -49.54 214.70 -47.45L214.70 -47.45L214.70 -47.45Q214.70 -45.36 213.59 -44.39L213.59 -44.39L213.59 -44.39Q212.47 -43.42 211.03 -43.42ZM224.14 0.72L224.14 0.72L224.14 0.72Q218.30 0.72 214.34 -1.73L214.34 -1.73L214.34 -1.73Q210.38 -4.18 208.01 -7.92L208.01 -7.92L208.01 -7.92Q205.99 -4.03 201.67 -2.02L201.67 -2.02L201.67 -2.02Q197.35 0.00 192.46 0.00L192.46 0.00L189.50 0.00L189.50 -5.62L192.60 -5.62L192.60 -5.62Q198.50 -5.62 201.42 -9.72L201.42 -9.72L201.42 -9.72Q204.34 -13.82 205.06 -20.52L205.06 -20.52L207.00 -38.59L213.48 -38.59L212.04 -24.91L212.04 -24.91Q211.75 -21.67 211.68 -19.55L211.68 -19.55L211.68 -19.55Q211.61 -17.42 211.61 -16.92L211.61 -16.92L211.61 -16.92Q211.61 -13.10 213.26 -10.33L213.26 -10.33L213.26 -10.33Q214.92 -7.56 217.69 -6.05L217.69 -6.05L217.69 -6.05Q220.46 -4.54 223.70 -4.54L223.70 -4.54L223.70 -4.54Q229.10 -4.54 231.52 -7.52L231.52 -7.52L231.52 -7.52Q233.93 -10.51 233.93 -14.90L233.93 -14.90L233.93 -14.90Q233.93 -18.43 232.31 -20.66L232.31 -20.66L232.31 -20.66Q230.69 -22.90 228.38 -22.90L228.38 -22.90L228.38 -22.90Q225.94 -22.90 224.53 -20.95L224.53 -20.95L224.53 -20.95Q223.13 -19.01 223.13 -14.83L223.13 -14.83L223.13 -13.68L216.65 -13.68L216.65 -14.18L216.65 -14.18Q216.65 -18.86 218.20 -22.00L218.20 -22.00L218.20 -22.00Q219.74 -25.13 222.37 -26.68L222.37 -26.68L222.37 -26.68Q225.00 -28.22 228.10 -28.22L228.10 -28.22L228.10 -28.22Q232.63 -28.22 235.30 -26.17L235.30 -26.17L235.30 -26.17Q237.96 -24.12 239.15 -20.99L239.15 -20.99L239.15 -20.99Q240.34 -17.86 240.34 -14.54L240.34 -14.54L240.34 -14.54Q240.34 -9.36 238.10 -5.98L238.10 -5.98L238.10 -5.98Q235.87 -2.59 232.20 -0.94L232.20 -0.94L232.20 -0.94Q228.53 0.72 224.14 0.72ZM280.90 -13.25L246.98 -13.25L246.98 -51.41L253.46 -51.41L253.46 -18.94L280.90 -18.94L280.90 -13.25ZM264.05 -24.12L264.05 -24.12L264.05 -24.12Q262.46 -24.12 261.38 -25.09L261.38 -25.09L261.38 -25.09Q260.30 -26.06 260.30 -28.15L260.30 -28.15L260.30 -28.15Q260.30 -30.24 261.38 -31.21L261.38 -31.21L261.38 -31.21Q262.46 -32.18 264.05 -32.18L264.05 -32.18L264.05 -32.18Q265.49 -32.18 266.60 -31.21L266.60 -31.21L266.60 -31.21Q267.72 -30.24 267.72 -28.15L267.72 -28.15L267.72 -28.15Q267.72 -26.06 266.60 -25.09L266.60 -25.09L266.60 -25.09Q265.49 -24.12 264.05 -24.12ZM264.05 0.00L264.05 0.00L264.05 0.00Q262.46 0.00 261.38 -1.01L261.38 -1.01L261.38 -1.01Q260.30 -2.02 260.30 -4.03L260.30 -4.03L260.30 -4.03Q260.30 -6.12 261.38 -7.09L261.38 -7.09L261.38 -7.09Q262.46 -8.06 264.05 -8.06L264.05 -8.06L264.05 -8.06Q265.49 -8.06 266.60 -7.09L266.60 -7.09L266.60 -7.09Q267.72 -6.12 267.72 -4.03L267.72 -4.03L267.72 -4.03Q267.72 -2.02 266.60 -1.01L266.60 -1.01L266.60 -1.01Q265.49 0.00 264.05 0.00ZM300.63 -43.34L300.63 -43.34L300.63 -43.34Q299.05 -43.34 297.97 -44.35L297.97 -44.35L297.97 -44.35Q296.89 -45.36 296.89 -47.38L296.89 -47.38L296.89 -47.38Q296.89 -49.46 297.97 -50.44L297.97 -50.44L297.97 -50.44Q299.05 -51.41 300.63 -51.41L300.63 -51.41L300.63 -51.41Q302.07 -51.41 303.19 -50.44L303.19 -50.44L303.19 -50.44Q304.30 -49.46 304.30 -47.38L304.30 -47.38L304.30 -47.38Q304.30 -45.36 303.19 -44.35L303.19 -44.35L303.19 -44.35Q302.07 -43.34 300.63 -43.34ZM304.52 -14.18L289.69 -14.18L289.69 -19.87L304.52 -19.87L304.52 -19.87Q310.64 -19.87 313.23 -21.31L313.23 -21.31L313.23 -21.31Q315.82 -22.75 315.82 -25.70L315.82 -25.70L315.82 -25.70Q315.82 -28.58 313.38 -30.02L313.38 -30.02L313.38 -30.02Q310.93 -31.46 304.52 -31.46L304.52 -31.46L289.69 -31.46L289.69 -37.15L304.52 -37.15L304.52 -37.15Q311.50 -37.15 315.39 -35.64L315.39 -35.64L315.39 -35.64Q319.28 -34.13 320.83 -31.54L320.83 -31.54L320.83 -31.54Q322.38 -28.94 322.38 -25.70L322.38 -25.70L322.38 -25.70Q322.38 -23.62 321.58 -21.56L321.58 -21.56L321.58 -21.56Q320.79 -19.51 318.85 -17.86L318.85 -17.86L318.85 -17.86Q316.90 -16.20 313.41 -15.19L313.41 -15.19L313.41 -15.19Q309.92 -14.18 304.52 -14.18L304.52 -14.18ZM300.63 0.00L300.63 0.00L300.63 0.00Q299.05 0.00 297.97 -1.01L297.97 -1.01L297.97 -1.01Q296.89 -2.02 296.89 -4.03L296.89 -4.03L296.89 -4.03Q296.89 -6.12 297.97 -7.09L297.97 -7.09L297.97 -7.09Q299.05 -8.06 300.63 -8.06L300.63 -8.06L300.63 -8.06Q302.07 -8.06 303.19 -7.09L303.19 -7.09L303.19 -7.09Q304.30 -6.12 304.30 -4.03L304.30 -4.03L304.30 -4.03Q304.30 -2.02 303.19 -1.01L303.19 -1.01L303.19 -1.01Q302.07 0.00 300.63 0.00ZM334.71 0.00L327.30 0.00L327.30 0.00Q332.34 -9.07 336.91 -16.81L336.91 -16.81L336.91 -16.81Q341.48 -24.55 346.12 -31.61L346.12 -31.61L346.12 -31.61Q350.77 -38.66 356.10 -45.79L356.10 -45.79L331.47 -45.79L331.47 -51.41L365.17 -51.41L365.17 -48.31L365.17 -48.31Q361.50 -43.56 357.86 -38.34L357.86 -38.34L357.86 -38.34Q354.22 -33.12 350.70 -27.43L350.70 -27.43L369.49 0.00L361.50 0.00L350.77 -15.62L350.77 -15.62Q349.62 -17.28 348.75 -18.68L348.75 -18.68L348.75 -18.68Q347.89 -20.09 347.02 -21.60L347.02 -21.60L347.02 -21.60Q340.76 -11.23 334.71 0.00L334.71 0.00Z"/></svg>