<svg xmlns="http://www.w3.org/2000/svg" viewBox="0 -79.64 531.98 79.64" height="100%"><path fill="currentColor" d="M36.39 -10.52L36.39 -10.52L36.39 -10.52Q36.00 -3.94 30.38 -1.13L30.38 -1.13L30.38 2.28L30.38 2.28Q30.38 5.97 31.36 7.87L31.36 7.87L31.36 7.87Q32.34 9.77 34.56 9.77L34.56 9.77L34.56 9.77Q35.61 9.77 36.51 8.77L36.51 8.77L36.51 8.77Q37.41 7.77 37.72 5.38L37.72 5.38L38.05 5.34L38.33 5.34L38.33 5.34Q39.83 5.34 41.17 6.33L41.17 6.33L41.17 6.33Q40.50 10.05 38.36 12.37L38.36 12.37L38.36 12.37Q36.22 14.69 33.36 14.69L33.36 14.69L33.36 14.69Q26.41 14.69 26.41 2.42L26.41 2.42L26.41 0.17L26.41 0.17Q23.98 0.70 20.84 0.70L20.84 0.70L20.84 0.70Q13.11 0.70 9.45 -2.87L9.45 -2.87L9.45 -2.87Q5.80 -6.44 5.80 -13.47L5.80 -13.47L5.80 -38.61L11.78 -38.61L11.78 -13.75L11.78 -13.75Q11.78 -9.17 14.26 -6.89L14.26 -6.89L14.26 -6.89Q16.73 -4.61 22.33 -4.61L22.33 -4.61L22.33 -4.61Q24.69 -4.61 26.41 -4.95L26.41 -4.95L26.41 -7.95L26.41 -7.95Q26.41 -11.64 25.42 -13.54L25.42 -13.54L25.42 -13.54Q24.44 -15.44 22.22 -15.44L22.22 -15.44L22.22 -15.44Q21.17 -15.44 20.27 -14.44L20.27 -14.44L20.27 -14.44Q19.38 -13.44 19.06 -11.05L19.06 -11.05L18.73 -11.00L18.45 -11.00L18.45 -11.00Q16.95 -11.00 15.61 -11.98L15.61 -11.98L15.61 -11.98Q16.28 -15.72 18.42 -18.04L18.42 -18.04L18.42 -18.04Q20.56 -20.36 23.42 -20.36L23.42 -20.36L23.42 -20.36Q30.38 -20.36 30.38 -8.09L30.38 -8.09L30.38 -6.61L30.38 -6.61Q32.20 -8.05 32.34 -10.52L32.34 -10.52L32.34 -10.52Q33.30 -10.86 34.31 -10.86L34.31 -10.86L34.31 -10.86Q35.30 -10.86 36.39 -10.52ZM34.59 -32.56L34.59 -32.56L34.59 -32.56Q37.55 -39.31 44.72 -39.31L44.72 -39.31L44.72 -39.31Q55.13 -39.31 55.13 -25.14L55.13 -25.14L55.13 0.00L49.16 0.00L49.16 -24.86L49.16 -24.86Q49.16 -29.42 47.98 -31.71L47.98 -31.71L47.98 -31.71Q46.80 -34.00 43.77 -34.00L43.77 -34.00L43.77 -34.00Q40.25 -34.00 38.39 -31.55L38.39 -31.55L38.39 -31.55Q36.53 -29.11 36.42 -22.53L36.42 -22.53L36.42 -22.16L36.42 -22.16Q35.41 -21.88 34.56 -21.88L34.56 -21.88L34.56 -21.88Q33.83 -21.88 32.77 -22.08L32.77 -22.08L32.77 -22.22L32.77 -22.22Q32.66 -28.77 30.94 -31.38L30.94 -31.38L30.94 -31.38Q29.22 -34.00 25.88 -34.00L25.88 -34.00L25.88 -34.00Q22.58 -34.00 20.85 -31.47L20.85 -31.47L20.85 -31.47Q19.13 -28.94 18.98 -22.22L18.98 -22.22L18.98 -22.22Q17.97 -21.94 17.13 -21.94L17.13 -21.94L17.13 -21.94Q16.39 -21.94 15.33 -22.16L15.33 -22.16L15.30 -22.67L15.30 -23.23L15.30 -23.23Q15.30 -29.78 18.11 -34.55L18.11 -34.55L18.11 -34.55Q20.92 -39.31 25.84 -39.31L25.84 -39.31L25.84 -39.31Q28.69 -39.31 30.94 -37.59L30.94 -37.59L30.94 -37.59Q33.19 -35.86 34.59 -32.56ZM97.42 -22.53L97.42 -22.16L97.42 -22.16Q96.41 -21.88 95.56 -21.88L95.56 -21.88L95.56 -21.88Q94.83 -21.88 93.77 -22.08L93.77 -22.08L93.77 -22.22L93.77 -22.22Q93.66 -28.77 91.94 -31.38L91.94 -31.38L91.94 -31.38Q90.22 -34.00 86.88 -34.00L86.88 -34.00L86.88 -34.00Q83.58 -34.00 81.85 -31.47L81.85 -31.47L81.85 -31.47Q80.13 -28.94 79.98 -22.22L79.98 -22.22L79.98 -22.22Q78.97 -21.94 78.13 -21.94L78.13 -21.94L78.13 -21.94Q77.39 -21.94 76.33 -22.16L76.33 -22.16L76.33 -22.16Q76.33 -30.34 79.04 -34.83L79.04 -34.83L79.04 -34.83Q81.75 -39.31 86.84 -39.31L86.84 -39.31L86.84 -39.31Q89.69 -39.31 91.94 -37.59L91.94 -37.59L91.94 -37.59Q94.19 -35.86 95.59 -32.56L95.59 -32.56L95.59 -32.56Q98.55 -39.31 105.72 -39.31L105.72 -39.31L105.72 -39.31Q112.92 -39.31 115.08 -32.84L115.08 -32.84L115.31 -32.84L115.31 -32.84Q116.80 -36.14 119.19 -37.73L119.19 -37.73L119.19 -37.73Q121.58 -39.31 124.50 -39.31L124.50 -39.31L124.50 -39.31Q134.91 -39.31 134.91 -25.14L134.91 -25.14L134.91 0.00L128.92 0.00L128.92 -24.86L128.92 -24.86Q128.92 -29.42 127.80 -31.71L127.80 -31.71L127.80 -31.71Q126.67 -34.00 123.66 -34.00L123.66 -34.00L123.66 -34.00Q119.78 -34.00 118.01 -31.10L118.01 -31.10L118.01 -31.10Q116.23 -28.20 116.23 -21.31L116.23 -21.31L116.23 0.00L110.33 0.00L110.33 -24.86L110.33 -24.86Q110.33 -29.61 108.98 -31.80L108.98 -31.80L108.98 -31.80Q107.63 -34.00 104.77 -34.00L104.77 -34.00L104.77 -34.00Q101.25 -34.00 99.39 -31.55L99.39 -31.55L99.39 -31.55Q97.53 -29.11 97.42 -22.53L97.42 -22.53ZM97.39 -10.52L97.39 -10.52L97.39 -10.52Q97.17 -5.06 93.09 -2.18L93.09 -2.18L93.09 -2.18Q89.02 0.70 81.84 0.70L81.84 0.70L81.84 0.70Q74.11 0.70 70.45 -2.87L70.45 -2.87L70.45 -2.87Q66.80 -6.44 66.80 -13.47L66.80 -13.47L66.80 -38.61L72.78 -38.61L72.78 -13.75L72.78 -13.75Q72.78 -9.17 75.26 -6.89L75.26 -6.89L75.26 -6.89Q77.73 -4.61 83.33 -4.61L83.33 -4.61L83.33 -4.61Q87.89 -4.61 90.53 -6.05L90.53 -6.05L90.53 -6.05Q93.17 -7.48 93.34 -10.52L93.34 -10.52L93.34 -10.52Q94.30 -10.86 95.31 -10.86L95.31 -10.86L95.31 -10.86Q96.30 -10.86 97.39 -10.52ZM129.31 20.39L129.31 21.66L129.31 21.66Q127.48 22.22 126.36 22.22L126.36 22.22L126.36 22.22Q125.20 22.22 123.38 21.66L123.38 21.66L123.38 20.67L123.38 20.67Q123.38 16.09 122.00 13.80L122.00 13.80L122.00 13.80Q120.63 11.50 117.20 10.76L117.20 10.76L117.20 10.76Q113.77 10.02 112.52 8.13L112.52 8.13L112.52 8.13Q111.28 6.25 111.28 2.45L111.28 2.45L111.28 2.45Q112.22 2.11 113.25 2.11L113.25 2.11L113.25 2.11Q114.23 2.11 115.31 2.45L115.31 2.45L115.31 2.45Q115.31 6.81 119.46 7.20L119.46 7.20L119.46 7.20Q123.61 7.59 125.42 8.88L125.42 8.88L125.42 8.88Q127.23 10.16 128.27 12.63L128.27 12.63L128.27 12.63Q129.31 15.11 129.31 20.39L129.31 20.39ZM177.42 -22.53L177.42 -22.16L177.42 -22.16Q176.41 -21.88 175.56 -21.88L175.56 -21.88L175.56 -21.88Q174.83 -21.88 173.77 -22.08L173.77 -22.08L173.77 -22.22L173.77 -22.22Q173.66 -28.77 171.94 -31.38L171.94 -31.38L171.94 -31.38Q170.22 -34.00 166.88 -34.00L166.88 -34.00L166.88 -34.00Q163.58 -34.00 161.85 -31.47L161.85 -31.47L161.85 -31.47Q160.13 -28.94 159.98 -22.22L159.98 -22.22L159.98 -22.22Q158.97 -21.94 158.13 -21.94L158.13 -21.94L158.13 -21.94Q157.39 -21.94 156.33 -22.16L156.33 -22.16L156.33 -22.16Q156.33 -30.34 159.04 -34.83L159.04 -34.83L159.04 -34.83Q161.75 -39.31 166.84 -39.31L166.84 -39.31L166.84 -39.31Q169.69 -39.31 171.94 -37.59L171.94 -37.59L171.94 -37.59Q174.19 -35.86 175.59 -32.56L175.59 -32.56L175.59 -32.56Q178.55 -39.31 185.72 -39.31L185.72 -39.31L185.72 -39.31Q192.92 -39.31 195.08 -32.84L195.08 -32.84L195.31 -32.84L195.31 -32.84Q196.80 -36.14 199.19 -37.73L199.19 -37.73L199.19 -37.73Q201.58 -39.31 204.50 -39.31L204.50 -39.31L204.50 -39.31Q214.91 -39.31 214.91 -25.14L214.91 -25.14L214.91 0.00L208.92 0.00L208.92 -24.86L208.92 -24.86Q208.92 -29.42 207.80 -31.71L207.80 -31.71L207.80 -31.71Q206.67 -34.00 203.66 -34.00L203.66 -34.00L203.66 -34.00Q199.78 -34.00 198.01 -31.10L198.01 -31.10L198.01 -31.10Q196.23 -28.20 196.23 -21.31L196.23 -21.31L196.23 0.00L190.33 0.00L190.33 -24.86L190.33 -24.86Q190.33 -29.61 188.98 -31.80L188.98 -31.80L188.98 -31.80Q187.63 -34.00 184.77 -34.00L184.77 -34.00L184.77 -34.00Q181.25 -34.00 179.39 -31.55L179.39 -31.55L179.39 -31.55Q177.53 -29.11 177.42 -22.53L177.42 -22.53ZM177.39 -10.52L177.39 -10.52L177.39 -10.52Q177.00 -3.94 171.38 -1.13L171.38 -1.13L171.38 2.28L171.38 2.28Q171.38 5.97 172.36 7.87L172.36 7.87L172.36 7.87Q173.34 9.77 175.56 9.77L175.56 9.77L175.56 9.77Q176.61 9.77 177.51 8.77L177.51 8.77L177.51 8.77Q178.41 7.77 178.72 5.38L178.72 5.38L179.05 5.34L179.33 5.34L179.33 5.34Q180.83 5.34 182.17 6.33L182.17 6.33L182.17 6.33Q181.50 10.05 179.36 12.37L179.36 12.37L179.36 12.37Q177.22 14.69 174.36 14.69L174.36 14.69L174.36 14.69Q167.41 14.69 167.41 2.42L167.41 2.42L167.41 0.17L167.41 0.17Q164.98 0.70 161.84 0.70L161.84 0.70L161.84 0.70Q154.11 0.70 150.45 -2.87L150.45 -2.87L150.45 -2.87Q146.80 -6.44 146.80 -13.47L146.80 -13.47L146.80 -38.61L152.78 -38.61L152.78 -13.75L152.78 -13.75Q152.78 -9.17 155.26 -6.89L155.26 -6.89L155.26 -6.89Q157.73 -4.61 163.33 -4.61L163.33 -4.61L163.33 -4.61Q165.69 -4.61 167.41 -4.95L167.41 -4.95L167.41 -7.95L167.41 -7.95Q167.41 -11.64 166.42 -13.54L166.42 -13.54L166.42 -13.54Q165.44 -15.44 163.22 -15.44L163.22 -15.44L163.22 -15.44Q162.17 -15.44 161.27 -14.44L161.27 -14.44L161.27 -14.44Q160.38 -13.44 160.06 -11.05L160.06 -11.05L159.73 -11.00L159.45 -11.00L159.45 -11.00Q157.95 -11.00 156.61 -11.98L156.61 -11.98L156.61 -11.98Q157.28 -15.72 159.42 -18.04L159.42 -18.04L159.42 -18.04Q161.56 -20.36 164.42 -20.36L164.42 -20.36L164.42 -20.36Q171.38 -20.36 171.38 -8.09L171.38 -8.09L171.38 -6.61L171.38 -6.61Q173.20 -8.05 173.34 -10.52L173.34 -10.52L173.34 -10.52Q174.30 -10.86 175.31 -10.86L175.31 -10.86L175.31 -10.86Q176.30 -10.86 177.39 -10.52ZM255.59 -32.56L255.59 -32.56L255.59 -32.56Q258.55 -39.31 265.72 -39.31L265.72 -39.31L265.72 -39.31Q276.13 -39.31 276.13 -25.14L276.13 -25.14L276.13 5.94L276.13 5.94Q272.13 5.94 263.41 10.35L263.41 10.35L263.41 10.35Q254.69 14.77 249.25 20.55L249.25 20.55L249.25 20.55Q243.81 26.33 243.81 32.13L243.81 32.13L243.81 32.13Q243.81 33.81 244.40 34.73L244.40 34.73L244.40 34.73Q244.98 35.64 246.84 35.64L246.84 35.64L246.84 35.64Q250.56 35.64 255.95 31.00L255.95 31.00L255.95 31.00Q261.33 26.36 265.35 24.71L265.35 24.71L265.35 24.71Q269.38 23.06 273.56 23.06L273.56 23.06L273.56 23.06Q275.67 23.06 278.15 23.38L278.15 23.38L278.15 23.38Q280.63 23.69 282.00 24.08L282.00 24.08L282.00 24.08Q282.28 25.28 282.28 26.16L282.28 26.16L282.28 26.16Q282.28 27.03 282.00 28.09L282.00 28.09L282.00 28.09Q281.02 27.67 278.87 27.39L278.87 27.39L278.87 27.39Q276.72 27.11 274.30 27.11L274.30 27.11L274.30 27.11Q270.30 27.11 266.60 28.87L266.60 28.87L266.60 28.87Q262.91 30.63 259.25 33.86L259.25 33.86L259.25 33.86Q255.59 37.09 252.64 38.71L252.64 38.71L252.64 38.71Q249.69 40.33 246.77 40.33L246.77 40.33L246.77 40.33Q240.02 40.33 240.02 32.34L240.02 32.34L240.02 32.34Q240.02 26.08 244.16 19.58L244.16 19.58L244.16 19.58Q248.31 13.08 255.66 7.88L255.66 7.88L255.66 7.88Q263.02 2.67 270.16 0.81L270.16 0.81L270.16 -24.86L270.16 -24.86Q270.16 -29.42 268.98 -31.71L268.98 -31.71L268.98 -31.71Q267.80 -34.00 264.77 -34.00L264.77 -34.00L264.77 -34.00Q261.25 -34.00 259.39 -31.55L259.39 -31.55L259.39 -31.55Q257.53 -29.11 257.42 -22.53L257.42 -22.53L257.42 -22.16L257.42 -22.16Q256.41 -21.88 255.56 -21.88L255.56 -21.88L255.56 -21.88Q254.83 -21.88 253.77 -22.08L253.77 -22.08L253.77 -22.22L253.77 -22.22Q253.66 -28.77 251.94 -31.38L251.94 -31.38L251.94 -31.38Q250.22 -34.00 246.88 -34.00L246.88 -34.00L246.88 -34.00Q243.58 -34.00 241.85 -31.47L241.85 -31.47L241.85 -31.47Q240.13 -28.94 239.98 -22.22L239.98 -22.22L239.98 -22.22Q238.97 -21.94 238.13 -21.94L238.13 -21.94L238.13 -21.94Q237.39 -21.94 236.33 -22.16L236.33 -22.16L236.30 -22.67L236.30 -23.23L236.30 -23.23Q236.30 -29.78 239.11 -34.55L239.11 -34.55L239.11 -34.55Q241.92 -39.31 246.84 -39.31L246.84 -39.31L246.84 -39.31Q249.69 -39.31 251.94 -37.59L251.94 -37.59L251.94 -37.59Q254.19 -35.86 255.59 -32.56ZM257.39 -10.52L257.39 -10.52L257.39 -10.52Q257.17 -5.06 253.09 -2.18L253.09 -2.18L253.09 -2.18Q249.02 0.70 241.84 0.70L241.84 0.70L241.84 0.70Q234.11 0.70 230.45 -2.87L230.45 -2.87L230.45 -2.87Q226.80 -6.44 226.80 -13.47L226.80 -13.47L226.80 -38.61L232.78 -38.61L232.78 -13.75L232.78 -13.75Q232.78 -9.17 235.26 -6.89L235.26 -6.89L235.26 -6.89Q237.73 -4.61 243.33 -4.61L243.33 -4.61L243.33 -4.61Q247.89 -4.61 250.53 -6.05L250.53 -6.05L250.53 -6.05Q253.17 -7.48 253.34 -10.52L253.34 -10.52L253.34 -10.52Q254.30 -10.86 255.31 -10.86L255.31 -10.86L255.31 -10.86Q256.30 -10.86 257.39 -10.52ZM287.98 -13.47L287.98 -38.61L293.95 -38.61L293.95 -13.75L293.95 -13.75Q293.95 -9.28 295.08 -6.95L295.08 -6.95L295.08 -6.95Q296.20 -4.61 299.89 -4.61L299.89 -4.61L299.89 -4.61Q303.45 -4.61 305.07 -5.52L305.07 -5.52L305.07 -5.52Q306.69 -6.44 307.34 -8.42L307.34 -8.42L307.34 -8.42Q307.98 -10.41 307.98 -15.27L307.98 -15.27L307.98 -23.00L307.98 -23.00Q307.98 -30.63 311.15 -34.97L311.15 -34.97L311.15 -34.97Q314.31 -39.31 319.97 -39.31L319.97 -39.31L319.97 -39.31Q325.14 -39.31 327.80 -35.73L327.80 -35.73L327.80 -35.73Q330.45 -32.14 330.45 -25.14L330.45 -25.14L330.45 0.00L324.47 0.00L324.47 -24.86L324.47 -24.86Q324.47 -29.98 323.08 -31.99L323.08 -31.99L323.08 -31.99Q321.69 -34.00 318.67 -34.00L318.67 -34.00L318.67 -34.00Q315.19 -34.00 313.41 -31.29L313.41 -31.29L313.41 -31.29Q311.64 -28.58 311.64 -22.11L311.64 -22.11L311.61 -14.23L311.61 -14.23Q311.61 -6.41 308.35 -2.85L308.35 -2.85L308.35 -2.85Q305.09 0.70 298.39 0.70L298.39 0.70L298.39 0.70Q292.86 0.70 290.42 -2.76L290.42 -2.76L290.42 -2.76Q287.98 -6.22 287.98 -13.47L287.98 -13.47ZM315.97 20.39L315.97 21.66L315.97 21.66Q314.14 22.22 313.02 22.22L313.02 22.22L313.02 22.22Q311.84 22.22 310.02 21.66L310.02 21.66L310.02 20.67L310.02 20.67Q310.02 16.09 308.65 13.80L308.65 13.80L308.65 13.80Q307.28 11.50 303.85 10.76L303.85 10.76L303.85 10.76Q300.42 10.02 299.17 8.13L299.17 8.13L299.17 8.13Q297.92 6.25 297.92 2.45L297.92 2.45L297.92 2.45Q298.88 2.11 299.89 2.11L299.89 2.11L299.89 2.11Q300.88 2.11 301.97 2.45L301.97 2.45L301.97 2.45Q301.97 6.81 306.12 7.20L306.12 7.20L306.12 7.20Q310.27 7.59 312.08 8.88L312.08 8.88L312.08 8.88Q313.89 10.16 314.93 12.63L314.93 12.63L314.93 12.63Q315.97 15.11 315.97 20.39L315.97 20.39ZM370.59 -32.56L370.59 -32.56L370.59 -32.56Q373.55 -39.31 380.72 -39.31L380.72 -39.31L380.72 -39.31Q391.30 -39.31 391.30 -25.14L391.30 -25.14L391.30 4.56L395.73 4.56L395.73 4.56Q397.39 4.50 398.46 3.60L398.46 3.60L398.46 3.60Q399.53 2.70 399.53 1.27L399.53 1.27L399.53 1.27Q400.58 0.98 401.47 0.98L401.47 0.98L401.47 0.98Q402.34 0.98 403.53 1.27L403.53 1.27L403.53 1.27Q403.53 4.47 401.23 6.51L401.23 6.51L401.23 6.51Q398.94 8.55 395.42 8.55L395.42 8.55L391.30 8.55L391.30 24.36L391.30 24.36Q391.30 32.06 387.24 35.72L387.24 35.72L387.24 35.72Q383.19 39.38 373.80 39.38L373.80 39.38L373.80 39.38Q364.69 39.38 359.52 34.47L359.52 34.47L359.52 34.47Q354.36 29.56 354.36 20.84L354.36 20.84L354.36 20.84Q354.36 12.58 362.02 8.55L362.02 8.55L362.02 8.55Q369.69 4.53 385.33 4.53L385.33 4.53L385.33 -24.86L385.33 -24.86Q385.33 -29.39 384.06 -31.70L384.06 -31.70L384.06 -31.70Q382.80 -34.00 379.77 -34.00L379.77 -34.00L379.77 -34.00Q376.25 -34.00 374.39 -31.55L374.39 -31.55L374.39 -31.55Q372.53 -29.11 372.42 -22.53L372.42 -22.53L372.42 -22.16L372.42 -22.16Q371.41 -21.88 370.56 -21.88L370.56 -21.88L370.56 -21.88Q369.83 -21.88 368.77 -22.08L368.77 -22.08L368.77 -22.22L368.77 -22.22Q368.66 -28.77 366.94 -31.38L366.94 -31.38L366.94 -31.38Q365.22 -34.00 361.88 -34.00L361.88 -34.00L361.88 -34.00Q358.58 -34.00 356.85 -31.47L356.85 -31.47L356.85 -31.47Q355.13 -28.94 354.98 -22.22L354.98 -22.22L354.98 -22.22Q353.97 -21.94 353.13 -21.94L353.13 -21.94L353.13 -21.94Q352.39 -21.94 351.33 -22.16L351.33 -22.16L351.33 -22.16Q351.33 -29.75 354.02 -34.53L354.02 -34.53L354.02 -34.53Q356.70 -39.31 361.84 -39.31L361.84 -39.31L361.84 -39.31Q364.69 -39.31 366.94 -37.59L366.94 -37.59L366.94 -37.59Q369.19 -35.86 370.59 -32.56ZM385.33 23.94L385.33 8.55L385.33 8.55Q372.64 8.55 366.54 11.13L366.54 11.13L366.54 11.13Q360.44 13.70 360.44 20.14L360.44 20.14L360.44 20.14Q360.44 27.59 364.11 31.48L364.11 31.48L364.11 31.48Q367.78 35.36 374.70 35.36L374.70 35.36L374.70 35.36Q380.97 35.36 383.15 32.94L383.15 32.94L383.15 32.94Q385.33 30.52 385.33 23.94L385.33 23.94ZM372.39 -10.52L372.39 -10.52L372.39 -10.52Q372.17 -5.06 368.09 -2.18L368.09 -2.18L368.09 -2.18Q364.02 0.70 356.84 0.70L356.84 0.70L356.84 0.70Q349.11 0.70 345.45 -2.87L345.45 -2.87L345.45 -2.87Q341.80 -6.44 341.80 -13.47L341.80 -13.47L341.80 -38.61L347.78 -38.61L347.78 -13.75L347.78 -13.75Q347.78 -9.17 350.26 -6.89L350.26 -6.89L350.26 -6.89Q352.73 -4.61 358.33 -4.61L358.33 -4.61L358.33 -4.61Q362.89 -4.61 365.53 -6.05L365.53 -6.05L365.53 -6.05Q368.17 -7.48 368.34 -10.52L368.34 -10.52L368.34 -10.52Q369.30 -10.86 370.31 -10.86L370.31 -10.86L370.31 -10.86Q371.30 -10.86 372.39 -10.52ZM453.67 27.63L453.67 27.63L453.67 27.63Q454.59 27.28 455.89 27.28L455.89 27.28L455.89 27.28Q457.41 27.28 457.89 27.63L457.89 27.63L457.89 27.63Q458.06 29.67 459.31 30.88L459.31 30.88L459.31 30.88Q460.56 32.09 462.28 32.09L462.28 32.09L462.28 32.09Q464.19 32.09 465.75 30.53L465.75 30.53L465.75 30.53Q467.31 28.97 467.31 26.97L467.31 26.97L467.31 26.97Q467.31 24.67 464.94 23.32L464.94 23.32L464.94 23.32Q462.56 21.97 458.77 21.97L458.77 21.97L458.77 21.97Q458.42 21.48 458.42 20.00L458.42 20.00L458.42 20.00Q458.42 18.73 458.77 17.83L458.77 17.83L458.77 17.83Q461.44 17.83 463.53 16.38L463.53 16.38L463.53 16.38Q465.63 14.94 465.63 13.08L465.63 13.08L465.63 13.08Q465.63 10.80 462.50 9.63L462.50 9.63L462.50 9.63Q459.38 8.47 452.30 8.47L452.30 8.47L452.30 24.36L452.30 24.36Q452.30 32.06 448.24 35.72L448.24 35.72L448.24 35.72Q444.19 39.38 434.80 39.38L434.80 39.38L434.80 39.38Q425.69 39.38 420.52 34.47L420.52 34.47L420.52 34.47Q415.36 29.56 415.36 20.84L415.36 20.84L415.36 20.84Q415.36 12.77 422.76 8.63L422.76 8.63L422.76 8.63Q430.16 4.50 446.33 4.50L446.33 4.50L446.33 -24.86L446.33 -24.86Q446.33 -29.39 445.06 -31.70L445.06 -31.70L445.06 -31.70Q443.80 -34.00 440.77 -34.00L440.77 -34.00L440.77 -34.00Q437.25 -34.00 435.39 -31.55L435.39 -31.55L435.39 -31.55Q433.53 -29.11 433.42 -22.53L433.42 -22.53L433.42 -22.16L433.42 -22.16Q432.41 -21.88 431.56 -21.88L431.56 -21.88L431.56 -21.88Q430.83 -21.88 429.77 -22.08L429.77 -22.08L429.77 -22.22L429.77 -22.22Q429.66 -28.77 427.94 -31.38L427.94 -31.38L427.94 -31.38Q426.22 -34.00 422.88 -34.00L422.88 -34.00L422.88 -34.00Q419.58 -34.00 417.85 -31.47L417.85 -31.47L417.85 -31.47Q416.13 -28.94 415.98 -22.22L415.98 -22.22L415.98 -22.22Q414.97 -21.94 414.13 -21.94L414.13 -21.94L414.13 -21.94Q413.39 -21.94 412.33 -22.16L412.33 -22.16L412.33 -22.16Q412.33 -29.75 415.02 -34.53L415.02 -34.53L415.02 -34.53Q417.70 -39.31 422.84 -39.31L422.84 -39.31L422.84 -39.31Q425.69 -39.31 427.94 -37.59L427.94 -37.59L427.94 -37.59Q430.19 -35.86 431.59 -32.56L431.59 -32.56L431.59 -32.56Q434.55 -39.31 441.72 -39.31L441.72 -39.31L441.72 -39.31Q452.30 -39.31 452.30 -25.14L452.30 -25.14L452.30 4.50L452.30 4.50Q471.61 4.92 471.61 13.05L471.61 13.05L471.61 13.05Q471.61 15.11 470.57 16.59L470.57 16.59L470.57 16.59Q469.53 18.06 467.48 19.27L467.48 19.27L467.48 19.27Q470.66 20.28 472.05 21.97L472.05 21.97L472.05 21.97Q473.44 23.66 473.44 26.05L473.44 26.05L473.44 26.05Q473.44 30.09 470.04 33.15L470.04 33.15L470.04 33.15Q466.64 36.20 462.61 36.20L462.61 36.20L462.61 36.20Q458.84 36.20 456.31 33.80L456.31 33.80L456.31 33.80Q453.78 31.39 453.67 27.63ZM446.33 23.94L446.33 8.55L446.33 8.55Q433.08 8.55 427.26 11.34L427.26 11.34L427.26 11.34Q421.44 14.13 421.44 20.14L421.44 20.14L421.44 20.14Q421.44 27.59 425.11 31.48L425.11 31.48L425.11 31.48Q428.78 35.36 435.70 35.36L435.70 35.36L435.70 35.36Q441.97 35.36 444.15 32.94L444.15 32.94L444.15 32.94Q446.33 30.52 446.33 23.94L446.33 23.94ZM433.39 -10.52L433.39 -10.52L433.39 -10.52Q433.17 -5.06 429.09 -2.18L429.09 -2.18L429.09 -2.18Q425.02 0.70 417.84 0.70L417.84 0.70L417.84 0.70Q410.11 0.70 406.45 -2.87L406.45 -2.87L406.45 -2.87Q402.80 -6.44 402.80 -13.47L402.80 -13.47L402.80 -38.61L408.78 -38.61L408.78 -13.75L408.78 -13.75Q408.78 -9.17 411.26 -6.89L411.26 -6.89L411.26 -6.89Q413.73 -4.61 419.33 -4.61L419.33 -4.61L419.33 -4.61Q423.89 -4.61 426.53 -6.05L426.53 -6.05L426.53 -6.05Q429.17 -7.48 429.34 -10.52L429.34 -10.52L429.34 -10.52Q430.30 -10.86 431.31 -10.86L431.31 -10.86L431.31 -10.86Q432.30 -10.86 433.39 -10.52ZM513.42 -30.97L513.42 -30.97Q513.42 -27.36 510.17 -25.30L510.17 -25.30L510.17 -25.30Q506.92 -23.23 501.25 -23.23L501.25 -23.23L501.25 -23.23Q498.30 -23.23 495.51 -23.84L495.51 -23.84L495.51 -23.84Q492.72 -24.44 490.75 -25.28L490.75 -25.28L490.75 -25.28Q489.44 -21.88 489.44 -18.39L489.44 -18.39L489.44 -18.39Q489.44 -12.23 493.57 -8.10L493.57 -8.10L493.57 -8.10Q497.70 -3.97 503.61 -3.97L503.61 -3.97L503.61 -3.97Q508.81 -3.97 513.17 -8.61L513.17 -8.61L513.17 -8.61Q517.53 -13.25 522.73 -13.25L522.73 -13.25L522.73 -13.25Q526.70 -13.25 529.34 -11.21L529.34 -11.21L529.34 -11.21Q531.98 -9.17 531.98 -6.08L531.98 -6.08L531.98 -6.08Q531.98 -3.34 530.12 -1.32L530.12 -1.32L530.12 -1.32Q528.25 0.70 525.63 0.70L525.63 0.70L525.63 0.70Q525.34 -0.36 525.34 -1.23L525.34 -1.23L525.34 -1.23Q525.34 -2.11 525.63 -3.31L525.63 -3.31L525.63 -3.31Q526.53 -3.38 527.25 -4.22L527.25 -4.22L527.25 -4.22Q527.97 -5.06 527.97 -6.27L527.97 -6.27L527.97 -6.27Q527.97 -7.81 526.62 -8.69L526.62 -8.69L526.62 -8.69Q525.27 -9.56 523.05 -9.56L523.05 -9.56L523.05 -9.56Q519.11 -9.56 515.72 -5.73L515.72 -5.73L515.72 -5.73Q512.33 -1.91 509.38 -0.60L509.38 -0.60L509.38 -0.60Q506.42 0.70 503.30 0.70L503.30 0.70L503.30 0.70Q498.02 0.70 493.23 -2.01L493.23 -2.01L493.23 -2.01Q488.45 -4.72 485.66 -9.38L485.66 -9.38L485.66 -9.38Q482.88 -14.03 482.88 -19.44L482.88 -19.44L482.88 -19.44Q482.88 -27.64 488.41 -33.48L488.41 -33.48L488.41 -33.48Q493.94 -39.31 502.28 -39.31L502.28 -39.31L502.28 -39.31Q507.30 -39.31 510.36 -36.97L510.36 -36.97L510.36 -36.97Q513.42 -34.63 513.42 -30.97L513.42 -30.97ZM492.53 -28.86L492.53 -28.86L492.53 -28.86Q494.41 -28.09 497.04 -27.69L497.04 -27.69L497.04 -27.69Q499.67 -27.28 502.06 -27.28L502.06 -27.28L502.06 -27.28Q505.61 -27.28 507.48 -28.14L507.48 -28.14L507.48 -28.14Q509.34 -29.00 509.34 -30.59L509.34 -30.59L509.34 -30.59Q509.34 -32.42 507.18 -33.84L507.18 -33.84L507.18 -33.84Q505.02 -35.27 502.34 -35.27L502.34 -35.27L502.34 -35.27Q499.61 -35.27 497.02 -33.59L497.02 -33.59L497.02 -33.59Q494.44 -31.92 492.53 -28.86Z"/></svg>