<svg xmlns="http://www.w3.org/2000/svg" viewBox="0 -64.08 669.59 64.08" height="100%"><path fill="currentColor" d="M11.81 -39.89L11.81 -39.89L11.81 -39.89Q12.45 -43.63 12.45 -47.66L12.45 -47.66L12.45 -47.66Q12.45 -51.34 11.81 -55.44L11.81 -55.44L11.81 -55.44Q15.27 -54.22 19.91 -53.28L19.91 -53.28L19.91 -53.28Q24.55 -52.34 31.10 -51.63L31.10 -51.63L31.10 -51.63Q37.66 -50.91 46.77 -50.37L46.77 -50.37L46.77 -50.37Q55.88 -49.83 68.19 -49.47L68.19 -49.47L68.19 -47.81L68.19 -47.81Q57.81 -47.02 50.04 -46.37L50.04 -46.37L50.04 -46.37Q42.27 -45.72 36.51 -45.04L36.51 -45.04L36.51 -45.04Q30.75 -44.36 26.43 -43.63L26.43 -43.63L26.43 -43.63Q22.11 -42.91 18.62 -41.98L18.62 -41.98L18.62 -41.98Q15.13 -41.05 11.81 -39.89ZM23.41 7.06L21.53 7.06L21.53 7.06Q20.81 -1.22 20.16 -7.23L20.16 -7.23L20.16 -7.23Q19.52 -13.25 18.90 -17.68L18.90 -17.68L18.90 -17.68Q18.28 -22.11 17.56 -25.52L17.56 -25.52L17.56 -25.52Q16.84 -28.94 15.91 -31.89L15.91 -31.89L15.91 -31.89Q14.97 -34.84 13.83 -38.02L13.83 -38.02L13.83 -38.02Q17.42 -37.30 21.39 -37.30L21.39 -37.30L21.39 -37.30Q23.25 -37.30 25.23 -37.48L25.23 -37.48L25.23 -37.48Q27.22 -37.66 29.38 -38.02L29.38 -38.02L29.38 -38.02Q28.16 -34.70 27.18 -30.89L27.18 -30.89L27.18 -30.89Q26.20 -27.08 25.52 -22.00L25.52 -22.00L25.52 -22.00Q24.84 -16.92 24.30 -9.83L24.30 -9.83L24.30 -9.83Q23.77 -2.73 23.41 7.06L23.41 7.06ZM41.83 7.06L39.95 7.06L39.95 7.06Q39.23 -1.22 38.59 -7.23L38.59 -7.23L38.59 -7.23Q37.94 -13.25 37.33 -17.68L37.33 -17.68L37.33 -17.68Q36.72 -22.11 36.00 -25.52L36.00 -25.52L36.00 -25.52Q35.28 -28.94 34.34 -31.89L34.34 -31.89L34.34 -31.89Q33.41 -34.84 32.25 -38.02L32.25 -38.02L32.25 -38.02Q35.86 -37.30 39.81 -37.30L39.81 -37.30L39.81 -37.30Q41.69 -37.30 43.66 -37.48L43.66 -37.48L43.66 -37.48Q45.64 -37.66 47.81 -38.02L47.81 -38.02L47.81 -38.02Q46.66 -34.70 45.72 -30.89L45.72 -30.89L45.72 -30.89Q44.78 -27.08 44.06 -22.00L44.06 -22.00L44.06 -22.00Q43.34 -16.92 42.80 -9.83L42.80 -9.83L42.80 -9.83Q42.27 -2.73 41.83 7.06L41.83 7.06ZM60.48 7.06L58.61 7.06L58.61 7.06Q57.89 -1.22 57.24 -7.23L57.24 -7.23L57.24 -7.23Q56.59 -13.25 55.98 -17.68L55.98 -17.68L55.98 -17.68Q55.38 -22.11 54.65 -25.52L54.65 -25.52L54.65 -25.52Q53.92 -28.94 53.02 -31.89L53.02 -31.89L53.02 -31.89Q52.13 -34.84 50.91 -38.02L50.91 -38.02L50.91 -38.02Q54.50 -37.30 58.47 -37.30L58.47 -37.30L58.47 -37.30Q60.34 -37.30 62.32 -37.48L62.32 -37.48L62.32 -37.48Q64.30 -37.66 66.45 -38.02L66.45 -38.02L66.45 -38.02Q65.23 -34.70 64.26 -30.89L64.26 -30.89L64.26 -30.89Q63.28 -27.08 62.60 -22.00L62.60 -22.00L62.60 -22.00Q61.92 -16.92 61.38 -9.83L61.38 -9.83L61.38 -9.83Q60.84 -2.73 60.48 7.06L60.48 7.06ZM91.16 -39.89L91.16 -39.89L91.16 -39.89Q91.30 -41.61 91.41 -43.38L91.41 -43.38L91.41 -43.38Q91.52 -45.14 91.52 -46.94L91.52 -46.94L91.52 -46.94Q91.52 -48.95 91.34 -51.05L91.34 -51.05L91.34 -51.05Q91.16 -53.14 90.80 -55.44L90.80 -55.44L90.80 -55.44Q94.33 -53.56 100.70 -51.98L100.70 -51.98L100.70 -51.98Q107.08 -50.41 117.52 -49.53L117.52 -49.53L117.52 -49.53Q117.30 -52.27 116.86 -55.44L116.86 -55.44L116.86 -55.44Q120.47 -53.50 127.05 -51.91L127.05 -51.91L127.05 -51.91Q133.64 -50.33 144.58 -49.47L144.58 -49.47L144.58 -47.81L144.58 -47.81Q136.73 -46.58 131.63 -45.32L131.63 -45.32L131.63 -45.32Q126.52 -44.06 123.13 -42.70L123.13 -42.70L123.13 -42.70Q119.75 -41.33 117.16 -39.89L117.16 -39.89L117.16 -39.89Q117.30 -41.77 117.41 -43.67L117.41 -43.67L117.41 -43.67Q117.52 -45.58 117.52 -47.59L117.52 -47.59L117.52 -47.59Q110.09 -46.38 105.13 -45.15L105.13 -45.15L105.13 -45.15Q100.16 -43.92 96.88 -42.63L96.88 -42.63L96.88 -42.63Q93.61 -41.33 91.16 -39.89ZM106.72 7.06L104.84 7.06L104.84 7.06Q104.05 -1.22 103.44 -7.23L103.44 -7.23L103.44 -7.23Q102.83 -13.25 102.18 -17.68L102.18 -17.68L102.18 -17.68Q101.53 -22.11 100.81 -25.52L100.81 -25.52L100.81 -25.52Q100.09 -28.94 99.19 -31.89L99.19 -31.89L99.19 -31.89Q98.28 -34.84 97.14 -38.02L97.14 -38.02L97.14 -38.02Q100.73 -37.30 104.70 -37.30L104.70 -37.30L104.70 -37.30Q106.56 -37.30 108.55 -37.48L108.55 -37.48L108.55 -37.48Q110.53 -37.66 112.69 -38.02L112.69 -38.02L112.69 -38.02Q111.47 -34.70 110.49 -30.89L110.49 -30.89L110.49 -30.89Q109.52 -27.08 108.84 -22.00L108.84 -22.00L108.84 -22.00Q108.16 -16.92 107.62 -9.83L107.62 -9.83L107.62 -9.83Q107.08 -2.73 106.72 7.06L106.72 7.06ZM130.91 7.06L129.03 7.06L129.03 7.06Q128.31 -1.22 127.70 -7.23L127.70 -7.23L127.70 -7.23Q127.09 -13.25 126.45 -17.68L126.45 -17.68L126.45 -17.68Q125.80 -22.11 125.08 -25.52L125.08 -25.52L125.08 -25.52Q124.36 -28.94 123.45 -31.89L123.45 -31.89L123.45 -31.89Q122.55 -34.84 121.41 -38.02L121.41 -38.02L121.41 -38.02Q125.00 -37.30 128.95 -37.30L128.95 -37.30L128.95 -37.30Q130.83 -37.30 132.81 -37.48L132.81 -37.48L132.81 -37.48Q134.80 -37.66 136.95 -38.02L136.95 -38.02L136.95 -38.02Q135.73 -34.70 134.76 -30.89L134.76 -30.89L134.76 -30.89Q133.78 -27.08 133.06 -22.00L133.06 -22.00L133.06 -22.00Q132.34 -16.92 131.84 -9.83L131.84 -9.83L131.84 -9.83Q131.34 -2.73 130.91 7.06L130.91 7.06ZM199.00 -39.31L199.00 -39.31L199.00 -39.31Q199.14 -41.11 199.29 -42.84L199.29 -42.84L199.29 -42.84Q199.44 -44.56 199.44 -46.38L199.44 -46.38L199.44 -46.38Q199.44 -48.39 199.26 -50.48L199.26 -50.48L199.26 -50.48Q199.08 -52.56 198.72 -54.86L198.72 -54.86L198.72 -54.86Q202.31 -52.98 208.90 -51.37L208.90 -51.37L208.90 -51.37Q215.48 -49.75 226.44 -48.81L226.44 -48.81L226.44 -47.16L226.44 -47.16Q218.66 -46.02 213.47 -44.75L213.47 -44.75L213.47 -44.75Q208.28 -43.48 204.90 -42.12L204.90 -42.12L204.90 -42.12Q201.52 -40.75 199.00 -39.31ZM196.19 7.48L194.97 8.64L194.97 8.64Q187.13 0.94 181.22 -4.46L181.22 -4.46L181.22 -4.46Q175.31 -9.86 170.85 -13.64L170.85 -13.64L170.85 -13.64Q166.39 -17.42 162.78 -20.30L162.78 -20.30L162.78 -20.30Q166.09 -23.33 170.99 -28.55L170.99 -28.55L170.99 -28.55Q175.89 -33.77 181.65 -40.43L181.65 -40.43L181.65 -40.43Q187.41 -47.09 193.23 -54.58L193.23 -54.58L194.61 -53.78L194.61 -53.78Q189.36 -43.20 185.18 -35.35L185.18 -35.35L185.18 -35.35Q181.00 -27.50 177.47 -21.17L177.47 -21.17L177.47 -21.17Q180.20 -16.56 184.81 -9.47L184.81 -9.47L184.81 -9.47Q189.42 -2.38 196.19 7.48L196.19 7.48ZM203.83 7.70L201.95 7.70L201.95 7.70Q201.23 -0.58 200.59 -6.66L200.59 -6.66L200.59 -6.66Q199.94 -12.75 199.33 -17.17L199.33 -17.17L199.33 -17.17Q198.72 -21.59 197.99 -24.98L197.99 -24.98L197.99 -24.98Q197.27 -28.38 196.37 -31.32L196.37 -31.32L196.37 -31.32Q195.47 -34.27 194.25 -37.44L194.25 -37.44L194.25 -37.44Q198.06 -36.80 201.88 -36.80L201.88 -36.80L201.88 -36.80Q205.48 -36.80 209.80 -37.44L209.80 -37.44L209.80 -37.44Q208.58 -34.13 207.68 -30.34L207.68 -30.34L207.68 -30.34Q206.78 -26.56 206.06 -21.45L206.06 -21.45L206.06 -21.45Q205.34 -16.34 204.80 -9.25L204.80 -9.25L204.80 -9.25Q204.25 -2.16 203.83 7.70L203.83 7.70ZM221.61 7.70L219.73 7.70L219.73 7.70Q219.02 -0.58 218.37 -6.66L218.37 -6.66L218.37 -6.66Q217.72 -12.75 217.11 -17.17L217.11 -17.17L217.11 -17.17Q216.50 -21.59 215.78 -24.98L215.78 -24.98L215.78 -24.98Q215.06 -28.38 214.20 -31.32L214.20 -31.32L214.20 -31.32Q213.33 -34.27 212.11 -37.44L212.11 -37.44L212.11 -37.44Q215.92 -36.80 219.66 -36.80L219.66 -36.80L219.66 -36.80Q223.27 -36.80 227.58 -37.44L227.58 -37.44L227.58 -37.44Q226.44 -34.13 225.50 -30.34L225.50 -30.34L225.50 -30.34Q224.56 -26.56 223.84 -21.45L223.84 -21.45L223.84 -21.45Q223.13 -16.34 222.59 -9.25L222.59 -9.25L222.59 -9.25Q222.05 -2.16 221.61 7.70L221.61 7.70ZM260.39 8.06L258.52 8.06L258.52 8.06Q257.80 -3.17 257.15 -11.34L257.15 -11.34L257.15 -11.34Q256.50 -19.52 255.88 -25.49L255.88 -25.49L255.88 -25.49Q255.27 -31.47 254.55 -36.08L254.55 -36.08L254.55 -36.08Q253.83 -40.69 252.89 -44.72L252.89 -44.72L252.89 -44.72Q251.95 -48.75 250.81 -52.98L250.81 -52.98L250.81 -52.98Q254.34 -52.06 258.38 -52.06L258.38 -52.06L258.38 -52.06Q262.19 -52.06 266.36 -52.98L266.36 -52.98L266.36 -52.98Q265.36 -49.39 264.56 -45.40L264.56 -45.40L264.56 -45.40Q263.77 -41.41 263.12 -36.51L263.12 -36.51L263.12 -36.51Q262.47 -31.61 261.97 -25.31L261.97 -25.31L261.97 -25.31Q261.47 -19.02 261.07 -10.80L261.07 -10.80L261.07 -10.80Q260.67 -2.59 260.39 8.06L260.39 8.06ZM268.66 -28.38L268.66 -28.38L268.66 -28.38Q269.09 -32.05 269.09 -35.78L269.09 -35.78L269.09 -35.78Q269.09 -37.66 268.95 -39.71L268.95 -39.71L268.95 -39.71Q268.81 -41.77 268.45 -43.92L268.45 -43.92L268.45 -43.92Q271.97 -41.91 279.10 -40.32L279.10 -40.32L279.10 -40.32Q286.23 -38.73 297.17 -37.88L297.17 -37.88L297.17 -36.22L297.17 -36.22Q289.41 -35.06 284.00 -33.80L284.00 -33.80L284.00 -33.80Q278.59 -32.55 274.92 -31.18L274.92 -31.18L274.92 -31.18Q271.25 -29.81 268.66 -28.38ZM269.09 -0.94L269.09 -0.94L269.09 -0.94Q269.23 -2.73 269.38 -4.54L269.38 -4.54L269.38 -4.54Q269.53 -6.34 269.53 -8.20L269.53 -8.20L269.53 -8.20Q269.53 -10.16 269.35 -12.20L269.35 -12.20L269.35 -12.20Q269.17 -14.25 268.81 -16.48L268.81 -16.48L268.81 -16.48Q272.41 -14.47 279.50 -12.88L279.50 -12.88L279.50 -12.88Q286.59 -11.30 297.53 -10.52L297.53 -10.52L297.53 -8.78L297.53 -8.78Q289.69 -7.63 284.32 -6.37L284.32 -6.37L284.32 -6.37Q278.95 -5.11 275.32 -3.74L275.32 -3.74L275.32 -3.74Q271.69 -2.38 269.09 -0.94ZM350.19 7.56L348.97 8.64L348.97 8.64Q341.13 0.94 335.22 -4.43L335.22 -4.43L335.22 -4.43Q329.31 -9.80 324.85 -13.58L324.85 -13.58L324.85 -13.58Q320.39 -17.36 316.78 -20.23L316.78 -20.23L316.78 -20.23Q320.09 -23.33 324.99 -28.55L324.99 -28.55L324.99 -28.55Q329.89 -33.77 335.65 -40.43L335.65 -40.43L335.65 -40.43Q341.41 -47.09 347.23 -54.50L347.23 -54.50L348.61 -53.78L348.61 -53.78Q343.36 -43.20 339.18 -35.35L339.18 -35.35L339.18 -35.35Q335.00 -27.50 331.47 -21.09L331.47 -21.09L331.47 -21.09Q334.20 -16.56 338.81 -9.47L338.81 -9.47L338.81 -9.47Q343.42 -2.38 350.19 7.56L350.19 7.56ZM360.70 8.06L358.83 8.06L358.83 8.06Q358.11 -3.09 357.46 -11.27L357.46 -11.27L357.46 -11.27Q356.81 -19.44 356.20 -25.45L356.20 -25.45L356.20 -25.45Q355.59 -31.47 354.88 -36.08L354.88 -36.08L354.88 -36.08Q354.16 -40.69 353.26 -44.68L353.26 -44.68L353.26 -44.68Q352.36 -48.67 351.13 -52.92L351.13 -52.92L351.13 -52.92Q352.92 -52.56 354.84 -52.34L354.84 -52.34L354.84 -52.34Q356.75 -52.13 358.69 -52.13L358.69 -52.13L358.69 -52.13Q360.70 -52.13 362.68 -52.34L362.68 -52.34L362.68 -52.34Q364.66 -52.56 366.69 -52.92L366.69 -52.92L366.69 -52.92Q365.67 -49.31 364.88 -45.36L364.88 -45.36L364.88 -45.36Q364.09 -41.41 363.45 -36.51L363.45 -36.51L363.45 -36.51Q362.80 -31.61 362.29 -25.27L362.29 -25.27L362.29 -25.27Q361.78 -18.94 361.38 -10.77L361.38 -10.77L361.38 -10.77Q360.98 -2.59 360.70 8.06L360.70 8.06ZM417.67 7.56L416.16 8.64L416.16 8.64Q408.95 0.94 403.55 -4.43L403.55 -4.43L403.55 -4.43Q398.16 -9.80 394.05 -13.58L394.05 -13.58L394.05 -13.58Q389.95 -17.36 386.78 -20.23L386.78 -20.23L386.78 -20.23Q389.81 -23.33 394.31 -28.55L394.31 -28.55L394.31 -28.55Q398.81 -33.77 404.10 -40.43L404.10 -40.43L404.10 -40.43Q409.39 -47.09 414.64 -54.50L414.64 -54.50L416.09 -53.78L416.09 -53.78Q411.41 -43.20 407.63 -35.35L407.63 -35.35L407.63 -35.35Q403.84 -27.50 400.69 -21.09L400.69 -21.09L400.69 -21.09Q402.98 -16.56 407.23 -9.47L407.23 -9.47L407.23 -9.47Q411.48 -2.38 417.67 7.56L417.67 7.56ZM428.41 8.06L426.53 8.06L426.53 8.06Q425.81 -3.09 425.16 -11.27L425.16 -11.27L425.16 -11.27Q424.52 -19.44 423.87 -25.45L423.87 -25.45L423.87 -25.45Q423.22 -31.47 422.53 -36.08L422.53 -36.08L422.53 -36.08Q421.84 -40.69 420.95 -44.68L420.95 -44.68L420.95 -44.68Q420.05 -48.67 418.89 -52.92L418.89 -52.92L418.89 -52.92Q420.77 -52.56 422.64 -52.34L422.64 -52.34L422.64 -52.34Q424.52 -52.13 426.45 -52.13L426.45 -52.13L426.45 -52.13Q428.41 -52.13 430.38 -52.34L430.38 -52.34L430.38 -52.34Q432.36 -52.56 434.38 -52.92L434.38 -52.92L434.38 -52.92Q433.44 -49.31 432.65 -45.36L432.65 -45.36L432.65 -45.36Q431.86 -41.41 431.21 -36.51L431.21 -36.51L431.21 -36.51Q430.56 -31.61 430.05 -25.27L430.05 -25.27L430.05 -25.27Q429.55 -18.94 429.12 -10.77L429.12 -10.77L429.12 -10.77Q428.69 -2.59 428.41 8.06L428.41 8.06ZM446.69 8.06L444.81 8.06L444.81 8.06Q444.09 -3.09 443.45 -11.27L443.45 -11.27L443.45 -11.27Q442.80 -19.44 442.19 -25.45L442.19 -25.45L442.19 -25.45Q441.58 -31.47 440.86 -36.08L440.86 -36.08L440.86 -36.08Q440.14 -40.69 439.24 -44.68L439.24 -44.68L439.24 -44.68Q438.34 -48.67 437.11 -52.92L437.11 -52.92L437.11 -52.92Q438.98 -52.56 440.89 -52.34L440.89 -52.34L440.89 -52.34Q442.80 -52.13 444.75 -52.13L444.75 -52.13L444.75 -52.13Q446.69 -52.13 448.66 -52.34L448.66 -52.34L448.66 -52.34Q450.64 -52.56 452.66 -52.92L452.66 -52.92L452.66 -52.92Q451.66 -49.31 450.87 -45.36L450.87 -45.36L450.87 -45.36Q450.08 -41.41 449.43 -36.51L449.43 -36.51L449.43 -36.51Q448.78 -31.61 448.27 -25.27L448.27 -25.27L448.27 -25.27Q447.77 -18.94 447.37 -10.77L447.37 -10.77L447.37 -10.77Q446.97 -2.59 446.69 8.06L446.69 8.06ZM453.39 -14.83L453.39 -14.83L453.39 -14.83Q453.53 -16.56 453.67 -18.29L453.67 -18.29L453.67 -18.29Q453.81 -20.02 453.81 -21.89L453.81 -21.89L453.81 -21.89Q453.81 -23.91 453.63 -25.99L453.63 -25.99L453.63 -25.99Q453.45 -28.08 453.09 -30.39L453.09 -30.39L453.09 -30.39Q456.13 -28.52 462.13 -26.86L462.13 -26.86L462.13 -26.86Q468.14 -25.20 477.36 -24.41L477.36 -24.41L477.36 -22.69L477.36 -22.69Q470.73 -21.53 466.20 -20.27L466.20 -20.27L466.20 -20.27Q461.66 -19.02 458.60 -17.64L458.60 -17.64L458.60 -17.64Q455.55 -16.27 453.39 -14.83ZM526.67 7.56L525.23 8.64L525.23 8.64Q518.11 0.94 512.67 -4.43L512.67 -4.43L512.67 -4.43Q507.23 -9.80 503.13 -13.58L503.13 -13.58L503.13 -13.58Q499.03 -17.36 495.78 -20.23L495.78 -20.23L495.78 -20.23Q498.81 -23.33 503.34 -28.55L503.34 -28.55L503.34 -28.55Q507.88 -33.77 513.13 -40.43L513.13 -40.43L513.13 -40.43Q518.39 -47.09 523.72 -54.50L523.72 -54.50L525.09 -53.78L525.09 -53.78Q520.41 -43.20 516.66 -35.35L516.66 -35.35L516.66 -35.35Q512.92 -27.50 509.75 -21.09L509.75 -21.09L509.75 -21.09Q512.06 -16.56 516.30 -9.47L516.30 -9.47L516.30 -9.47Q520.55 -2.38 526.67 7.56L526.67 7.56ZM526.59 -33.91L526.59 -33.91L526.59 -33.91Q526.81 -35.78 526.96 -37.69L526.96 -37.69L526.96 -37.69Q527.11 -39.59 527.11 -41.55L527.11 -41.55L527.11 -41.55Q527.11 -43.42 526.93 -45.40L526.93 -45.40L526.93 -45.40Q526.75 -47.38 526.31 -49.47L526.31 -49.47L526.31 -49.47Q528.77 -47.81 533.37 -46.16L533.37 -46.16L533.37 -46.16Q537.97 -44.50 545.17 -43.42L545.17 -43.42L545.17 -43.42Q545.03 -44.86 544.89 -46.34L544.89 -46.34L544.89 -46.34Q544.75 -47.81 544.39 -49.47L544.39 -49.47L544.39 -49.47Q546.91 -47.73 551.77 -46.05L551.77 -46.05L551.77 -46.05Q556.63 -44.36 564.11 -43.27L564.11 -43.27L564.11 -41.91L564.11 -41.91Q556.05 -40.03 551.66 -37.98L551.66 -37.98L551.66 -37.98Q547.27 -35.92 544.67 -33.91L544.67 -33.91L544.67 -33.91Q544.89 -35.78 545.07 -37.73L545.07 -37.73L545.07 -37.73Q545.25 -39.67 545.25 -41.69L545.25 -41.69L545.25 -41.69Q537.55 -39.89 533.30 -37.88L533.30 -37.88L533.30 -37.88Q529.05 -35.86 526.59 -33.91ZM526.67 -15.41L526.67 -15.41L526.67 -15.41Q526.95 -17.28 527.13 -19.08L527.13 -19.08L527.13 -19.08Q527.31 -20.88 527.31 -22.75L527.31 -22.75L527.31 -22.75Q527.31 -24.70 527.10 -26.72L527.10 -26.72L527.10 -26.72Q526.89 -28.73 526.31 -30.95L526.31 -30.95L526.31 -30.95Q530.92 -29.16 540.64 -27.50L540.64 -27.50L540.64 -27.50Q550.36 -25.84 564.11 -24.91L564.11 -24.91L564.11 -23.25L564.11 -23.25Q554.25 -22.11 547.12 -20.84L547.12 -20.84L547.12 -20.84Q539.98 -19.58 535.02 -18.21L535.02 -18.21L535.02 -18.21Q530.06 -16.84 526.67 -15.41ZM527.25 2.95L527.25 2.95L527.25 2.95Q527.47 1.16 527.61 -0.57L527.61 -0.57L527.61 -0.57Q527.75 -2.30 527.75 -4.17L527.75 -4.17L527.75 -4.17Q527.75 -6.19 527.57 -8.28L527.57 -8.28L527.57 -8.28Q527.39 -10.38 526.89 -12.59L526.89 -12.59L526.89 -12.59Q531.50 -10.80 541.22 -9.11L541.22 -9.11L541.22 -9.11Q550.94 -7.42 564.83 -6.63L564.83 -6.63L564.83 -4.89L564.83 -4.89Q554.89 -3.75 547.66 -2.48L547.66 -2.48L547.66 -2.48Q540.42 -1.22 535.45 0.15L535.45 0.15L535.45 0.15Q530.48 1.52 527.25 2.95ZM634.61 7.56L633.09 8.64L633.09 8.64Q625.97 0.94 620.53 -4.43L620.53 -4.43L620.53 -4.43Q615.09 -9.80 610.99 -13.58L610.99 -13.58L610.99 -13.58Q606.89 -17.36 603.72 -20.23L603.72 -20.23L603.72 -20.23Q606.67 -23.33 611.21 -28.55L611.21 -28.55L611.21 -28.55Q615.75 -33.77 621.00 -40.43L621.00 -40.43L621.00 -40.43Q626.25 -47.09 631.52 -54.50L631.52 -54.50L633.03 -53.78L633.03 -53.78Q628.27 -43.20 624.49 -35.35L624.49 -35.35L624.49 -35.35Q620.72 -27.50 617.55 -21.09L617.55 -21.09L617.55 -21.09Q619.92 -16.56 624.17 -9.47L624.17 -9.47L624.17 -9.47Q628.42 -2.38 634.61 7.56L634.61 7.56ZM615.59 7.56L614.16 8.64L614.16 8.64Q606.95 0.94 601.59 -4.43L601.59 -4.43L601.59 -4.43Q596.23 -9.80 592.13 -13.58L592.13 -13.58L592.13 -13.58Q588.03 -17.36 584.78 -20.23L584.78 -20.23L584.78 -20.23Q587.81 -23.33 592.34 -28.55L592.34 -28.55L592.34 -28.55Q596.88 -33.77 602.13 -40.43L602.13 -40.43L602.13 -40.43Q607.39 -47.09 612.58 -54.50L612.58 -54.50L614.09 -53.78L614.09 -53.78Q609.41 -43.20 605.66 -35.35L605.66 -35.35L605.66 -35.35Q601.92 -27.50 598.75 -21.09L598.75 -21.09L598.75 -21.09Q601.06 -16.56 605.23 -9.47L605.23 -9.47L605.23 -9.47Q609.41 -2.38 615.59 7.56L615.59 7.56ZM645.27 8.06L643.39 8.06L643.39 8.06Q642.67 -3.09 642.02 -11.27L642.02 -11.27L642.02 -11.27Q641.38 -19.44 640.77 -25.45L640.77 -25.45L640.77 -25.45Q640.16 -31.47 639.44 -36.08L639.44 -36.08L639.44 -36.08Q638.72 -40.69 637.81 -44.68L637.81 -44.68L637.81 -44.68Q636.91 -48.67 635.69 -52.92L635.69 -52.92L635.69 -52.92Q637.56 -52.56 639.47 -52.34L639.47 -52.34L639.47 -52.34Q641.38 -52.13 643.31 -52.13L643.31 -52.13L643.31 -52.13Q645.27 -52.13 647.24 -52.34L647.24 -52.34L647.24 -52.34Q649.22 -52.56 651.23 -52.92L651.23 -52.92L651.23 -52.92Q650.30 -49.31 649.51 -45.36L649.51 -45.36L649.51 -45.36Q648.72 -41.41 648.07 -36.51L648.07 -36.51L648.07 -36.51Q647.42 -31.61 646.92 -25.27L646.92 -25.27L646.92 -25.27Q646.42 -18.94 645.98 -10.77L645.98 -10.77L645.98 -10.77Q645.55 -2.59 645.27 8.06L645.27 8.06ZM663.63 8.06L661.75 8.06L661.75 8.06Q660.95 -3.09 660.34 -11.27L660.34 -11.27L660.34 -11.27Q659.73 -19.44 659.09 -25.45L659.09 -25.45L659.09 -25.45Q658.44 -31.47 657.72 -36.08L657.72 -36.08L657.72 -36.08Q657.00 -40.69 656.10 -44.68L656.10 -44.68L656.10 -44.68Q655.20 -48.67 654.05 -52.92L654.05 -52.92L654.05 -52.92Q655.92 -52.56 657.79 -52.34L657.79 -52.34L657.79 -52.34Q659.66 -52.13 661.61 -52.13L661.61 -52.13L661.61 -52.13Q663.55 -52.13 665.56 -52.34L665.56 -52.34L665.56 -52.34Q667.58 -52.56 669.59 -52.92L669.59 -52.92L669.59 -52.92Q668.59 -49.31 667.80 -45.36L667.80 -45.36L667.80 -45.36Q667.02 -41.41 666.37 -36.51L666.37 -36.51L666.37 -36.51Q665.72 -31.61 665.21 -25.27L665.21 -25.27L665.21 -25.27Q664.70 -18.94 664.30 -10.77L664.30 -10.77L664.30 -10.77Q663.91 -2.59 663.63 8.06L663.63 8.06Z"/></svg>