<svg xmlns="http://www.w3.org/2000/svg" viewBox="0 -64.3 344.47 64.30" height="100%"><path fill="currentColor" d="M24.27 0.94L24.27 0.94L24.27 0.94Q19.44 0.94 16.41 -0.86L16.41 -0.86L16.41 -0.86Q13.39 -2.66 11.95 -5.87L11.95 -5.87L11.95 -5.87Q10.52 -9.08 10.52 -13.11L10.52 -13.11L10.52 -19.66L3.53 -19.66L3.53 -23.91L10.52 -23.91L10.52 -51.41L15.48 -51.41L15.48 -40.25L33.19 -40.25L33.19 -51.41L38.09 -51.41L38.09 -13.11L38.09 -13.11Q38.09 -9.08 36.69 -5.87L36.69 -5.87L36.69 -5.87Q35.28 -2.66 32.22 -0.86L32.22 -0.86L32.22 -0.86Q29.16 0.94 24.27 0.94ZM24.34 -3.31L24.34 -3.31L24.34 -3.31Q26.64 -3.31 28.66 -4.18L28.66 -4.18L28.66 -4.18Q30.67 -5.05 31.93 -7.16L31.93 -7.16L31.93 -7.16Q33.19 -9.28 33.19 -13.03L33.19 -13.03L33.19 -36.00L15.48 -36.00L15.48 -23.91L22.83 -23.91L22.83 -19.66L15.48 -19.66L15.48 -13.03L15.48 -13.03Q15.48 -9.22 16.74 -7.13L16.74 -7.13L16.74 -7.13Q18.00 -5.05 20.02 -4.18L20.02 -4.18L20.02 -4.18Q22.03 -3.31 24.34 -3.31ZM68.27 0.94L68.27 0.94L68.27 0.94Q62.80 0.94 59.66 -1.41L59.66 -1.41L59.66 -1.41Q56.53 -3.75 55.30 -7.48L55.30 -7.48L55.30 -7.48Q53.58 -7.20 51.81 -7.05L51.81 -7.05L51.81 -7.05Q50.05 -6.91 48.25 -6.91L48.25 -6.91L48.25 -11.09L48.25 -11.09Q51.63 -11.09 54.58 -11.52L54.58 -11.52L54.58 -11.52Q54.52 -11.88 54.52 -12.27L54.52 -12.27L54.52 -12.27Q54.52 -12.67 54.52 -13.11L54.52 -13.11L54.52 -26.72L54.52 -26.72Q52.92 -26.86 51.27 -26.93L51.27 -26.93L51.27 -26.93Q49.61 -27.00 48.25 -27.08L48.25 -27.08L48.25 -31.31L48.25 -31.31Q49.61 -31.25 51.23 -31.18L51.23 -31.18L51.23 -31.18Q52.86 -31.11 54.52 -30.81L54.52 -30.81L54.52 -51.41L59.48 -51.41L59.48 -40.25L77.19 -40.25L77.19 -51.41L82.09 -51.41L82.09 -13.11L82.09 -13.11Q82.09 -9.08 80.69 -5.87L80.69 -5.87L80.69 -5.87Q79.28 -2.66 76.22 -0.86L76.22 -0.86L76.22 -0.86Q73.16 0.94 68.27 0.94ZM68.34 -3.31L68.34 -3.31L68.34 -3.31Q70.64 -3.31 72.66 -4.18L72.66 -4.18L72.66 -4.18Q74.67 -5.05 75.93 -7.16L75.93 -7.16L75.93 -7.16Q77.19 -9.28 77.19 -13.03L77.19 -13.03L77.19 -36.00L59.48 -36.00L59.48 -29.88L59.48 -29.88Q62.28 -29.09 64.66 -27.76L64.66 -27.76L64.66 -27.76Q67.05 -26.42 68.52 -24.30L68.52 -24.30L68.52 -24.30Q69.98 -22.17 69.98 -19.08L69.98 -19.08L69.98 -19.08Q69.98 -15.48 67.22 -12.85L67.22 -12.85L67.22 -12.85Q64.45 -10.22 60.06 -8.78L60.06 -8.78L60.06 -8.78Q61.06 -5.61 63.37 -4.46L63.37 -4.46L63.37 -4.46Q65.67 -3.31 68.34 -3.31ZM59.48 -25.70L59.48 -12.75L59.48 -12.75Q62.14 -13.69 63.77 -15.30L63.77 -15.30L63.77 -15.30Q65.39 -16.92 65.39 -19.08L65.39 -19.08L65.39 -19.08Q65.39 -21.75 63.70 -23.33L63.70 -23.33L63.70 -23.33Q62.00 -24.91 59.48 -25.70L59.48 -25.70ZM52.47 -55.73L52.47 -55.73L49.73 -58.53L49.73 -58.53Q52.91 -61.20 56.11 -62.28L56.11 -62.28L56.11 -62.28Q59.31 -63.36 62.70 -63.36L62.70 -63.36L62.70 -63.36Q66.08 -63.36 69.32 -62.28L69.32 -62.28L69.32 -62.28Q72.56 -61.20 75.66 -58.53L75.66 -58.53L72.92 -55.73L72.92 -55.73Q70.47 -57.67 67.77 -58.50L67.77 -58.50L67.77 -58.50Q65.08 -59.33 62.70 -59.33L62.70 -59.33L62.70 -59.33Q60.25 -59.33 57.55 -58.50L57.55 -58.50L57.55 -58.50Q54.84 -57.67 52.47 -55.73ZM112.27 0.94L112.27 0.94L112.27 0.94Q106.80 0.94 103.66 -1.41L103.66 -1.41L103.66 -1.41Q100.53 -3.75 99.30 -7.48L99.30 -7.48L99.30 -7.48Q97.58 -7.20 95.81 -7.05L95.81 -7.05L95.81 -7.05Q94.05 -6.91 92.25 -6.91L92.25 -6.91L92.25 -11.09L92.25 -11.09Q95.63 -11.09 98.58 -11.52L98.58 -11.52L98.58 -11.52Q98.52 -11.88 98.52 -12.27L98.52 -12.27L98.52 -12.27Q98.52 -12.67 98.52 -13.11L98.52 -13.11L98.52 -26.72L98.52 -26.72Q96.92 -26.86 95.27 -26.93L95.27 -26.93L95.27 -26.93Q93.61 -27.00 92.25 -27.08L92.25 -27.08L92.25 -31.31L92.25 -31.31Q93.61 -31.25 95.23 -31.18L95.23 -31.18L95.23 -31.18Q96.86 -31.11 98.52 -30.81L98.52 -30.81L98.52 -51.41L103.48 -51.41L103.48 -40.25L121.19 -40.25L121.19 -51.41L126.09 -51.41L126.09 -13.11L126.09 -13.11Q126.09 -9.08 124.69 -5.87L124.69 -5.87L124.69 -5.87Q123.28 -2.66 120.22 -0.86L120.22 -0.86L120.22 -0.86Q117.16 0.94 112.27 0.94ZM112.34 -3.31L112.34 -3.31L112.34 -3.31Q114.64 -3.31 116.66 -4.18L116.66 -4.18L116.66 -4.18Q118.67 -5.05 119.93 -7.16L119.93 -7.16L119.93 -7.16Q121.19 -9.28 121.19 -13.03L121.19 -13.03L121.19 -36.00L103.48 -36.00L103.48 -29.88L103.48 -29.88Q106.28 -29.09 108.66 -27.76L108.66 -27.76L108.66 -27.76Q111.05 -26.42 112.52 -24.30L112.52 -24.30L112.52 -24.30Q113.98 -22.17 113.98 -19.08L113.98 -19.08L113.98 -19.08Q113.98 -15.48 111.22 -12.85L111.22 -12.85L111.22 -12.85Q108.45 -10.22 104.06 -8.78L104.06 -8.78L104.06 -8.78Q105.06 -5.61 107.37 -4.46L107.37 -4.46L107.37 -4.46Q109.67 -3.31 112.34 -3.31ZM103.48 -25.70L103.48 -12.75L103.48 -12.75Q106.14 -13.69 107.77 -15.30L107.77 -15.30L107.77 -15.30Q109.39 -16.92 109.39 -19.08L109.39 -19.08L109.39 -19.08Q109.39 -21.75 107.70 -23.33L107.70 -23.33L107.70 -23.33Q106.00 -24.91 103.48 -25.70L103.48 -25.70ZM165.77 0.00L159.64 0.00L159.64 0.00Q151.16 0.00 145.61 -2.88L145.61 -2.88L145.61 -2.88Q143.38 -1.94 140.78 -1.51L140.78 -1.51L140.78 -1.51Q138.19 -1.08 135.53 -1.08L135.53 -1.08L135.53 -5.25L135.53 -5.25Q137.11 -5.25 138.59 -5.43L138.59 -5.43L138.59 -5.43Q140.06 -5.61 141.50 -5.97L141.50 -5.97L141.50 -5.97Q137.61 -10.08 137.61 -16.63L137.61 -16.63L137.61 -16.63Q137.61 -20.09 138.73 -22.83L138.73 -22.83L138.73 -22.83Q139.84 -25.56 141.80 -27.58L141.80 -27.58L141.80 -27.58Q138.91 -28.44 135.53 -28.44L135.53 -28.44L135.53 -32.61L135.53 -32.61Q141.36 -32.61 145.97 -30.75L145.97 -30.75L145.97 -30.75Q151.44 -33.70 158.86 -33.70L158.86 -33.70L160.88 -33.70L160.88 -52.48L175.34 -44.56L173.91 -40.31L165.77 -44.56L165.77 0.00ZM158.06 -4.25L158.06 -4.25L160.88 -4.25L160.88 -29.45L158.06 -29.45L158.06 -29.45Q154.03 -29.45 150.64 -28.16L150.64 -28.16L150.64 -28.16Q153.17 -26.14 154.57 -23.30L154.57 -23.30L154.57 -23.30Q155.97 -20.45 155.97 -16.63L155.97 -16.63L155.97 -16.63Q155.97 -13.11 154.46 -10.30L154.46 -10.30L154.46 -10.30Q152.95 -7.48 150.44 -5.55L150.44 -5.55L150.44 -5.55Q152.16 -4.83 154.10 -4.54L154.10 -4.54L154.10 -4.54Q156.05 -4.25 158.06 -4.25ZM146.25 -7.98L146.25 -7.98L146.25 -7.98Q148.48 -9.36 149.78 -11.52L149.78 -11.52L149.78 -11.52Q151.08 -13.69 151.08 -16.63L151.08 -16.63L151.08 -16.63Q151.08 -19.66 149.82 -21.89L149.82 -21.89L149.82 -21.89Q148.56 -24.13 146.41 -25.56L146.41 -25.56L146.41 -25.56Q144.59 -23.91 143.55 -21.71L143.55 -21.71L143.55 -21.71Q142.52 -19.52 142.52 -16.63L142.52 -16.63L142.52 -16.63Q142.52 -13.89 143.52 -11.73L143.52 -11.73L143.52 -11.73Q144.53 -9.58 146.25 -7.98ZM200.17 0.94L200.17 0.94L200.17 0.94Q194.42 0.94 191.14 -3.78L191.14 -3.78L191.14 -3.78Q187.86 -8.50 186.72 -16.20L186.72 -16.20L182.53 -16.20L182.53 -20.38L186.20 -20.38L186.20 -20.38Q185.98 -23.05 185.98 -26.06L185.98 -26.06L185.98 -26.06Q185.98 -29.09 186.20 -31.90L186.20 -31.90L186.20 -31.90Q186.42 -34.70 186.92 -37.22L186.92 -37.22L186.92 -37.22Q184.84 -39.89 183.55 -43.23L183.55 -43.23L183.55 -43.23Q182.25 -46.58 181.53 -50.19L181.53 -50.19L186.14 -50.19L186.14 -50.19Q186.50 -48.39 187.11 -46.59L187.11 -46.59L187.11 -46.59Q187.72 -44.78 188.52 -43.13L188.52 -43.13L188.52 -43.13Q190.17 -47.45 193.05 -49.90L193.05 -49.90L193.05 -49.90Q195.92 -52.34 200.17 -52.34L200.17 -52.34L200.17 -52.34Q204.42 -52.34 207.27 -49.90L207.27 -49.90L207.27 -49.90Q210.11 -47.45 211.77 -43.13L211.77 -43.13L211.77 -43.13Q213.28 -46.22 214.14 -50.19L214.14 -50.19L218.75 -50.19L218.75 -50.19Q218.03 -46.58 216.73 -43.23L216.73 -43.23L216.73 -43.23Q215.44 -39.89 213.36 -37.22L213.36 -37.22L213.36 -37.22Q213.86 -34.63 214.04 -31.78L214.04 -31.78L214.04 -31.78Q214.22 -28.94 214.22 -25.78L214.22 -25.78L214.22 -25.78Q214.22 -18.00 212.81 -11.95L212.81 -11.95L212.81 -11.95Q211.41 -5.91 208.31 -2.48L208.31 -2.48L208.31 -2.48Q205.22 0.94 200.17 0.94ZM199.95 -35.14L199.95 -35.14L199.95 -35.14Q202.55 -35.14 204.60 -35.97L204.60 -35.97L204.60 -35.97Q206.66 -36.80 208.31 -38.30L208.31 -38.30L208.31 -38.30Q207.38 -42.84 205.43 -45.47L205.43 -45.47L205.43 -45.47Q203.48 -48.09 200.11 -48.09L200.11 -48.09L200.11 -48.09Q196.72 -48.09 194.77 -45.50L194.77 -45.50L194.77 -45.50Q192.83 -42.91 191.89 -38.38L191.89 -38.38L191.89 -38.38Q193.48 -36.86 195.46 -36.00L195.46 -36.00L195.46 -36.00Q197.44 -35.14 199.95 -35.14ZM200.11 -3.31L200.11 -3.31L200.11 -3.31Q203.63 -3.31 205.64 -6.23L205.64 -6.23L205.64 -6.23Q207.66 -9.14 208.48 -14.22L208.48 -14.22L208.48 -14.22Q209.31 -19.30 209.31 -25.78L209.31 -25.78L209.31 -25.78Q209.31 -27.80 209.24 -29.70L209.24 -29.70L209.24 -29.70Q209.17 -31.61 209.03 -33.34L209.03 -33.34L209.03 -33.34Q207.23 -32.19 205.00 -31.57L205.00 -31.57L205.00 -31.57Q202.77 -30.95 200.11 -30.95L200.11 -30.95L200.11 -30.95Q197.44 -30.95 195.24 -31.57L195.24 -31.57L195.24 -31.57Q193.05 -32.19 191.25 -33.34L191.25 -33.34L191.25 -33.34Q191.11 -31.69 191.03 -29.85L191.03 -29.85L191.03 -29.85Q190.95 -28.02 190.95 -26.06L190.95 -26.06L190.95 -26.06Q190.95 -24.55 190.95 -23.15L190.95 -23.15L190.95 -23.15Q190.95 -21.75 191.11 -20.38L191.11 -20.38L198.30 -20.38L198.30 -16.20L191.53 -16.20L191.53 -16.20Q192.25 -10.38 194.27 -6.84L194.27 -6.84L194.27 -6.84Q196.28 -3.31 200.11 -3.31ZM244.89 -14.11L244.89 0.94L226.25 -6.13L227.83 -10.16L240.00 -5.41L240.00 -14.11L240.00 -14.11Q235.11 -14.55 232.16 -16.45L232.16 -16.45L232.16 -16.45Q229.20 -18.36 227.84 -21.06L227.84 -21.06L227.84 -21.06Q226.47 -23.77 226.47 -26.50L226.47 -26.50L226.47 -26.50Q226.47 -29.09 227.84 -31.79L227.84 -31.79L227.84 -31.79Q229.20 -34.48 232.16 -36.47L232.16 -36.47L232.16 -36.47Q235.11 -38.45 240.00 -38.95L240.00 -38.95L240.00 -52.48L258.72 -45.44L257.06 -41.41L244.89 -46.16L244.89 -38.95L244.89 -38.95Q249.80 -38.45 252.78 -36.47L252.78 -36.47L252.78 -36.47Q255.77 -34.48 257.13 -31.79L257.13 -31.79L257.13 -31.79Q258.50 -29.09 258.50 -26.50L258.50 -26.50L258.50 -26.50Q258.50 -23.91 257.13 -21.20L257.13 -21.20L257.13 -21.20Q255.77 -18.50 252.78 -16.52L252.78 -16.52L252.78 -16.52Q249.80 -14.55 244.89 -14.11L244.89 -14.11ZM242.52 -18.22L242.52 -18.22L242.52 -18.22Q246.63 -18.22 249.04 -19.34L249.04 -19.34L249.04 -19.34Q251.45 -20.45 252.49 -22.32L252.49 -22.32L252.49 -22.32Q253.53 -24.19 253.53 -26.50L253.53 -26.50L253.53 -26.50Q253.53 -28.80 252.49 -30.67L252.49 -30.67L252.49 -30.67Q251.45 -32.55 249.04 -33.66L249.04 -33.66L249.04 -33.66Q246.63 -34.78 242.52 -34.78L242.52 -34.78L242.52 -34.78Q236.25 -34.78 233.80 -32.37L233.80 -32.37L233.80 -32.37Q231.36 -29.95 231.36 -26.50L231.36 -26.50L231.36 -26.50Q231.36 -24.19 232.41 -22.32L232.41 -22.32L232.41 -22.32Q233.45 -20.45 235.90 -19.34L235.90 -19.34L235.90 -19.34Q238.34 -18.22 242.52 -18.22ZM232.47 -55.73L232.47 -55.73L229.73 -58.53L229.73 -58.53Q232.91 -61.20 236.11 -62.28L236.11 -62.28L236.11 -62.28Q239.31 -63.36 242.70 -63.36L242.70 -63.36L242.70 -63.36Q246.08 -63.36 249.32 -62.28L249.32 -62.28L249.32 -62.28Q252.56 -61.20 255.66 -58.53L255.66 -58.53L252.92 -55.73L252.92 -55.73Q250.47 -57.67 247.77 -58.50L247.77 -58.50L247.77 -58.50Q245.08 -59.33 242.70 -59.33L242.70 -59.33L242.70 -59.33Q240.25 -59.33 237.55 -58.50L237.55 -58.50L237.55 -58.50Q234.84 -57.67 232.47 -55.73ZM285.89 -14.11L285.89 0.94L267.25 -6.13L268.83 -10.16L281.00 -5.41L281.00 -14.11L281.00 -14.11Q276.11 -14.55 273.16 -16.45L273.16 -16.45L273.16 -16.45Q270.20 -18.36 268.84 -21.06L268.84 -21.06L268.84 -21.06Q267.47 -23.77 267.47 -26.50L267.47 -26.50L267.47 -26.50Q267.47 -29.09 268.84 -31.79L268.84 -31.79L268.84 -31.79Q270.20 -34.48 273.16 -36.47L273.16 -36.47L273.16 -36.47Q276.11 -38.45 281.00 -38.95L281.00 -38.95L281.00 -52.48L299.72 -45.44L298.06 -41.41L285.89 -46.16L285.89 -38.95L285.89 -38.95Q290.80 -38.45 293.78 -36.47L293.78 -36.47L293.78 -36.47Q296.77 -34.48 298.13 -31.79L298.13 -31.79L298.13 -31.79Q299.50 -29.09 299.50 -26.50L299.50 -26.50L299.50 -26.50Q299.50 -23.91 298.13 -21.20L298.13 -21.20L298.13 -21.20Q296.77 -18.50 293.78 -16.52L293.78 -16.52L293.78 -16.52Q290.80 -14.55 285.89 -14.11L285.89 -14.11ZM283.52 -18.22L283.52 -18.22L283.52 -18.22Q287.63 -18.22 290.04 -19.34L290.04 -19.34L290.04 -19.34Q292.45 -20.45 293.49 -22.32L293.49 -22.32L293.49 -22.32Q294.53 -24.19 294.53 -26.50L294.53 -26.50L294.53 -26.50Q294.53 -28.80 293.49 -30.67L293.49 -30.67L293.49 -30.67Q292.45 -32.55 290.04 -33.66L290.04 -33.66L290.04 -33.66Q287.63 -34.78 283.52 -34.78L283.52 -34.78L283.52 -34.78Q277.25 -34.78 274.80 -32.37L274.80 -32.37L274.80 -32.37Q272.36 -29.95 272.36 -26.50L272.36 -26.50L272.36 -26.50Q272.36 -24.19 273.41 -22.32L273.41 -22.32L273.41 -22.32Q274.45 -20.45 276.90 -19.34L276.90 -19.34L276.90 -19.34Q279.34 -18.22 283.52 -18.22ZM322.00 0.94L322.00 0.94L322.00 0.94Q314.73 0.94 311.81 -4.17L311.81 -4.17L311.81 -4.17Q308.89 -9.28 308.89 -18.80L308.89 -18.80L308.89 -32.97L308.89 -32.97Q308.89 -42.41 311.81 -47.38L311.81 -47.38L311.81 -47.38Q314.73 -52.34 322.00 -52.34L322.00 -52.34L322.00 -52.34Q326.83 -52.34 329.67 -50.15L329.67 -50.15L329.67 -50.15Q332.52 -47.95 333.81 -43.63L333.81 -43.63L333.81 -43.63Q335.17 -44.14 336.58 -44.43L336.58 -44.43L336.58 -44.43Q337.98 -44.72 339.50 -44.86L339.50 -44.86L339.50 -51.41L344.47 -51.41L344.47 -35.72L339.50 -35.72L339.50 -40.61L339.50 -40.61Q337.05 -40.39 334.67 -39.59L334.67 -39.59L334.67 -39.59Q335.11 -36.58 335.11 -32.97L335.11 -32.97L335.11 -18.80L335.11 -18.80Q335.11 -16.92 335.00 -15.16L335.00 -15.16L335.00 -15.16Q334.89 -13.39 334.59 -11.81L334.59 -11.81L334.59 -11.81Q336.97 -10.94 339.50 -10.73L339.50 -10.73L339.50 -15.70L344.47 -15.70L344.47 0.00L339.50 0.00L339.50 -6.55L339.50 -6.55Q337.98 -6.63 336.55 -6.95L336.55 -6.95L336.55 -6.95Q335.11 -7.27 333.73 -7.70L333.73 -7.70L333.73 -7.70Q332.44 -3.45 329.59 -1.26L329.59 -1.26L329.59 -1.26Q326.75 0.94 322.00 0.94ZM322.00 -3.31L322.00 -3.31L322.00 -3.31Q325.17 -3.31 326.90 -4.90L326.90 -4.90L326.90 -4.90Q328.63 -6.48 329.42 -9.58L329.42 -9.58L329.42 -9.58Q325.09 -12.09 322.43 -16.20L322.43 -16.20L322.43 -16.20Q319.77 -20.30 319.77 -25.92L319.77 -25.92L319.77 -25.92Q319.77 -31.25 322.43 -35.32L322.43 -35.32L322.43 -35.32Q325.09 -39.39 329.42 -41.83L329.42 -41.83L329.42 -41.83Q328.63 -44.92 326.90 -46.51L326.90 -46.51L326.90 -46.51Q325.17 -48.09 322.00 -48.09L322.00 -48.09L322.00 -48.09Q317.11 -48.09 315.48 -44.42L315.48 -44.42L315.48 -44.42Q313.86 -40.75 313.86 -33.27L313.86 -33.27L313.86 -18.08L313.86 -18.08Q313.86 -10.66 315.48 -6.98L315.48 -6.98L315.48 -6.98Q317.11 -3.31 322.00 -3.31ZM330.06 -14.33L330.06 -14.33L330.06 -14.33Q330.14 -15.19 330.14 -16.13L330.14 -16.13L330.14 -16.13Q330.14 -17.06 330.14 -18.08L330.14 -18.08L330.14 -33.27L330.14 -33.27Q330.14 -34.27 330.14 -35.24L330.14 -35.24L330.14 -35.24Q330.14 -36.22 330.06 -37.16L330.06 -37.16L330.06 -37.16Q327.47 -35.14 325.92 -32.33L325.92 -32.33L325.92 -32.33Q324.38 -29.52 324.38 -25.92L324.38 -25.92L324.38 -25.92Q324.38 -22.25 325.89 -19.30L325.89 -19.30L325.89 -19.30Q327.41 -16.34 330.06 -14.33Z"/></svg>