<svg xmlns="http://www.w3.org/2000/svg" viewBox="0 -81.84 640.69 81.84" height="100%"><path fill="currentColor" d="M16.73 -24.61L15.47 -25.53L15.47 -25.53Q16.67 -29.22 18.97 -31.48L18.97 -31.48L18.97 -31.48Q21.27 -33.75 24.05 -33.75L24.05 -33.75L24.05 -33.75Q27.14 -33.75 29.25 -31.80L29.25 -31.80L29.25 -31.80Q31.36 -29.84 31.36 -26.86L31.36 -26.86L31.36 -26.86Q31.36 -21.55 27.17 -18.84L27.17 -18.84L27.17 -18.84Q29.98 -17.97 31.52 -15.96L31.52 -15.96L31.52 -15.96Q33.05 -13.95 33.05 -11.28L33.05 -11.28L33.05 -11.28Q33.05 -5.94 29.59 -2.62L29.59 -2.62L29.59 -2.62Q26.13 0.70 20.39 0.70L20.39 0.70L20.39 0.70Q13.22 0.70 8.37 -5.55L8.37 -5.55L8.37 -5.55Q3.52 -11.81 3.52 -20.98L3.52 -20.98L3.52 -20.98Q3.52 -27.14 6.10 -31.96L6.10 -31.96L6.10 -31.96Q8.69 -36.78 13.66 -39.66L13.66 -39.66L13.66 -39.66Q18.64 -42.55 24.22 -42.55L24.22 -42.55L24.22 -42.55Q31.33 -42.55 37.01 -39.05L37.01 -39.05L37.01 -39.05Q42.69 -35.55 45.42 -29.67L45.42 -29.67L42.97 -28.06L42.97 -28.06Q38.50 -34.67 34.13 -36.85L34.13 -36.85L34.13 -36.85Q29.75 -39.03 24.30 -39.03L24.30 -39.03L24.30 -39.03Q17.02 -39.03 12.02 -34.13L12.02 -34.13L12.02 -34.13Q7.03 -29.22 7.03 -21.27L7.03 -21.27L7.03 -21.27Q7.03 -13.50 10.49 -9.39L10.49 -9.39L10.49 -9.39Q13.95 -5.28 20.39 -5.28L20.39 -5.28L20.39 -5.28Q25.28 -5.28 27.41 -6.90L27.41 -6.90L27.41 -6.90Q29.53 -8.52 29.53 -11.67L29.53 -11.67L29.53 -11.67Q29.53 -13.95 27.62 -15.33L27.62 -15.33L27.62 -15.33Q25.70 -16.70 21.97 -16.70L21.97 -16.70L18.73 -16.70L19.09 -19.52L21.80 -19.52L21.80 -19.52Q24.36 -19.80 26.10 -21.26L26.10 -21.26L26.10 -21.26Q27.84 -22.72 27.84 -24.30L27.84 -24.30L27.84 -24.30Q27.84 -25.88 26.55 -26.83L26.55 -26.83L26.55 -26.83Q25.25 -27.78 23.38 -27.78L23.38 -27.78L23.38 -27.78Q20.92 -27.78 19.34 -27.02L19.34 -27.02L19.34 -27.02Q17.75 -26.27 16.73 -24.61L16.73 -24.61ZM78.33 -14.91L77.45 -12.17L72.70 -14.20L72.70 0.00L69.89 0.00L69.89 -15.44L69.89 -15.44Q65.78 -17.23 63.73 -17.89L63.73 -17.89L63.73 -17.05L63.73 -17.05Q63.73 -8.13 60.50 -3.71L60.50 -3.71L60.50 -3.71Q57.27 0.70 51.13 0.70L51.13 0.70L51.13 0.70Q45.14 0.70 41.64 -2.83L41.64 -2.83L41.64 -2.83Q38.14 -6.36 37.41 -13.02L37.41 -13.02L39.73 -13.72L39.73 -13.72Q40.30 -9.64 43.18 -7.46L43.18 -7.46L43.18 -7.46Q46.06 -5.28 51.13 -5.28L51.13 -5.28L51.13 -5.28Q55.91 -5.28 58.41 -8.32L58.41 -8.32L58.41 -8.32Q60.92 -11.36 60.92 -17.44L60.92 -17.44L60.92 -18.67L60.92 -18.67Q59.38 -19.02 58.44 -19.02L58.44 -19.02L58.44 -19.02Q56.98 -19.02 56.04 -18.24L56.04 -18.24L56.04 -18.24Q55.09 -17.47 55.09 -16.14L55.09 -16.14L55.09 -16.14Q55.09 -14.66 56.56 -13.11L56.56 -13.11L54.81 -11.64L54.81 -11.64Q52.77 -13.36 51.55 -15.47L51.55 -15.47L51.55 -15.47Q50.34 -17.58 50.34 -19.38L50.34 -19.38L50.34 -19.38Q50.34 -21.09 51.59 -22.15L51.59 -22.15L51.59 -22.15Q52.84 -23.20 54.78 -23.20L54.78 -23.20L54.78 -23.20Q56.98 -23.20 60.92 -21.97L60.92 -21.97L60.92 -38.67L62.58 -38.67L62.58 -38.67Q66.27 -38.67 68.52 -37.16L68.52 -37.16L68.52 -37.16Q70.77 -35.66 71.73 -32.51L71.73 -32.51L71.73 -32.51Q72.70 -29.36 72.70 -22.33L72.70 -22.33L72.70 -17.30L78.33 -14.91ZM63.73 -32.70L63.73 -21.03L69.89 -18.50L69.89 -22.02L69.89 -22.02Q69.89 -32.70 64.66 -32.70L64.66 -32.70L63.73 -32.70ZM95.73 -24.61L94.47 -25.53L94.47 -25.53Q95.67 -29.22 97.97 -31.48L97.97 -31.48L97.97 -31.48Q100.27 -33.75 103.05 -33.75L103.05 -33.75L103.05 -33.75Q106.14 -33.75 108.25 -31.80L108.25 -31.80L108.25 -31.80Q110.36 -29.84 110.36 -26.86L110.36 -26.86L110.36 -26.86Q110.36 -21.55 106.17 -18.84L106.17 -18.84L106.17 -18.84Q108.98 -17.97 110.52 -15.96L110.52 -15.96L110.52 -15.96Q112.05 -13.95 112.05 -11.28L112.05 -11.28L112.05 -11.28Q112.05 -5.94 108.59 -2.62L108.59 -2.62L108.59 -2.62Q105.13 0.70 99.39 0.70L99.39 0.70L99.39 0.70Q92.22 0.70 87.37 -5.55L87.37 -5.55L87.37 -5.55Q82.52 -11.81 82.52 -20.98L82.52 -20.98L82.52 -20.98Q82.52 -27.14 85.10 -31.96L85.10 -31.96L85.10 -31.96Q87.69 -36.78 92.66 -39.66L92.66 -39.66L92.66 -39.66Q97.64 -42.55 103.22 -42.55L103.22 -42.55L103.22 -42.55Q110.33 -42.55 116.01 -39.05L116.01 -39.05L116.01 -39.05Q121.69 -35.55 124.42 -29.67L124.42 -29.67L121.97 -28.06L121.97 -28.06Q117.50 -34.67 113.13 -36.85L113.13 -36.85L113.13 -36.85Q108.75 -39.03 103.30 -39.03L103.30 -39.03L103.30 -39.03Q96.02 -39.03 91.02 -34.13L91.02 -34.13L91.02 -34.13Q86.03 -29.22 86.03 -21.27L86.03 -21.27L86.03 -21.27Q86.03 -13.50 89.49 -9.39L89.49 -9.39L89.49 -9.39Q92.95 -5.28 99.39 -5.28L99.39 -5.28L99.39 -5.28Q104.28 -5.28 106.41 -6.90L106.41 -6.90L106.41 -6.90Q108.53 -8.52 108.53 -11.67L108.53 -11.67L108.53 -11.67Q108.53 -13.95 106.62 -15.33L106.62 -15.33L106.62 -15.33Q104.70 -16.70 100.97 -16.70L100.97 -16.70L97.73 -16.70L98.09 -19.52L100.80 -19.52L100.80 -19.52Q103.36 -19.80 105.10 -21.26L105.10 -21.26L105.10 -21.26Q106.84 -22.72 106.84 -24.30L106.84 -24.30L106.84 -24.30Q106.84 -25.88 105.55 -26.83L105.55 -26.83L105.55 -26.83Q104.25 -27.78 102.38 -27.78L102.38 -27.78L102.38 -27.78Q99.92 -27.78 98.34 -27.02L98.34 -27.02L98.34 -27.02Q96.75 -26.27 95.73 -24.61L95.73 -24.61ZM157.33 -14.91L156.45 -12.17L151.70 -14.20L151.70 0.00L148.89 0.00L148.89 -15.44L148.89 -15.44Q144.78 -17.23 142.73 -17.89L142.73 -17.89L142.73 -17.05L142.73 -17.05Q142.73 -8.13 139.50 -3.71L139.50 -3.71L139.50 -3.71Q136.27 0.70 130.13 0.70L130.13 0.70L130.13 0.70Q124.14 0.70 120.64 -2.83L120.64 -2.83L120.64 -2.83Q117.14 -6.36 116.41 -13.02L116.41 -13.02L118.73 -13.72L118.73 -13.72Q119.30 -9.64 122.18 -7.46L122.18 -7.46L122.18 -7.46Q125.06 -5.28 130.13 -5.28L130.13 -5.28L130.13 -5.28Q134.91 -5.28 137.41 -8.32L137.41 -8.32L137.41 -8.32Q139.92 -11.36 139.92 -17.44L139.92 -17.44L139.92 -18.67L139.92 -18.67Q138.38 -19.02 137.44 -19.02L137.44 -19.02L137.44 -19.02Q135.98 -19.02 135.04 -18.24L135.04 -18.24L135.04 -18.24Q134.09 -17.47 134.09 -16.14L134.09 -16.14L134.09 -16.14Q134.09 -14.66 135.56 -13.11L135.56 -13.11L133.81 -11.64L133.81 -11.64Q131.77 -13.36 130.55 -15.47L130.55 -15.47L130.55 -15.47Q129.34 -17.58 129.34 -19.38L129.34 -19.38L129.34 -19.38Q129.34 -21.09 130.59 -22.15L130.59 -22.15L130.59 -22.15Q131.84 -23.20 133.78 -23.20L133.78 -23.20L133.78 -23.20Q135.98 -23.20 139.92 -21.97L139.92 -21.97L139.92 -38.67L141.58 -38.67L141.58 -38.67Q145.27 -38.67 147.52 -37.16L147.52 -37.16L147.52 -37.16Q149.77 -35.66 150.73 -32.51L150.73 -32.51L150.73 -32.51Q151.70 -29.36 151.70 -22.33L151.70 -22.33L151.70 -17.30L157.33 -14.91ZM142.73 -32.70L142.73 -21.03L148.89 -18.50L148.89 -22.02L148.89 -22.02Q148.89 -32.70 143.66 -32.70L143.66 -32.70L142.73 -32.70ZM160.61 -28.27L158.00 -29.89L158.00 -29.89Q160.08 -34.28 163.77 -36.80L163.77 -36.80L163.77 -36.80Q167.45 -39.31 171.64 -39.31L171.64 -39.31L171.64 -39.31Q178.50 -39.31 182.59 -34.74L182.59 -34.74L182.59 -34.74Q186.69 -30.17 186.69 -23.14L186.69 -23.14L186.69 -23.14Q186.69 -15.44 183.07 -10.85L183.07 -10.85L183.07 -10.85Q179.45 -6.27 173.36 -6.27L173.36 -6.27L173.36 -6.27Q171.08 -6.27 169.25 -7.56L169.25 -7.56L169.25 -7.56Q167.42 -8.86 167.42 -10.80L167.42 -10.80L167.42 -10.80Q167.42 -15.19 171.25 -18.39L171.25 -18.39L173.61 -16.59L173.61 -16.59Q172.09 -15.08 172.09 -13.25L172.09 -13.25L172.09 -13.25Q172.09 -11.75 173.01 -10.99L173.01 -10.99L173.01 -10.99Q173.92 -10.23 175.33 -10.23L175.33 -10.23L175.33 -10.23Q178.61 -10.23 180.89 -13.89L180.89 -13.89L180.89 -13.89Q183.17 -17.55 183.17 -22.89L183.17 -22.89L183.17 -22.89Q183.17 -27.78 180.12 -30.73L180.12 -30.73L180.12 -30.73Q177.06 -33.69 171.75 -33.69L171.75 -33.69L171.75 -33.69Q167.84 -33.69 164.93 -32.28L164.93 -32.28L164.93 -32.28Q162.02 -30.88 160.61 -28.27L160.61 -28.27ZM252.58 0.00L249.77 0.00L249.77 -21.66L249.77 -21.66Q249.77 -27.70 247.94 -30.52L247.94 -30.52L247.94 -30.52Q246.11 -33.33 241.69 -33.33L241.69 -33.33L241.69 -33.33Q238.69 -33.33 236.56 -31.29L236.56 -31.29L236.56 -31.29Q234.44 -29.25 234.13 -25.77L234.13 -25.77L231.70 -25.77L231.70 -25.77Q231.70 -28.72 229.43 -31.02L229.43 -31.02L229.43 -31.02Q227.16 -33.33 224.14 -33.33L224.14 -33.33L224.14 -33.33Q219.70 -33.33 217.86 -30.52L217.86 -30.52L217.86 -30.52Q216.02 -27.70 216.02 -21.66L216.02 -21.66L216.02 0.00L214.36 0.00L214.36 0.00Q210.75 0.00 208.48 -1.52L208.48 -1.52L208.48 -1.52Q206.20 -3.03 205.27 -6.14L205.27 -6.14L205.27 -6.14Q204.34 -9.25 204.34 -16.34L204.34 -16.34L204.34 -23.20L204.34 -23.20Q204.34 -29.00 203.41 -31.16L203.41 -31.16L203.41 -31.16Q202.48 -33.33 200.16 -33.33L200.16 -33.33L200.16 -33.33Q198.41 -33.33 197.44 -32.52L197.44 -32.52L197.44 -32.52Q196.47 -31.72 196.09 -30.19L196.09 -30.19L196.09 -30.19Q195.70 -28.66 195.63 -24.19L195.63 -24.19L195.63 -24.19Q194.61 -23.91 194.08 -23.91L194.08 -23.91L192.81 -24.13L192.81 -24.13Q192.81 -32.34 194.66 -35.83L194.66 -35.83L194.66 -35.83Q196.50 -39.31 200.06 -39.31L200.06 -39.31L200.06 -39.31Q203.61 -39.31 205.38 -36.01L205.38 -36.01L205.38 -36.01Q207.16 -32.70 207.16 -22.95L207.16 -22.95L207.16 -14.66L207.16 -14.66Q207.16 -10.41 208.51 -8.20L208.51 -8.20L208.51 -8.20Q209.86 -5.98 212.30 -5.98L212.30 -5.98L213.20 -5.98L213.20 -21.66L213.20 -21.66Q213.20 -31.30 215.73 -35.30L215.73 -35.30L215.73 -35.30Q218.27 -39.31 224.14 -39.31L224.14 -39.31L224.14 -39.31Q230.58 -39.31 232.89 -32.06L232.89 -32.06L232.89 -32.06Q235.25 -39.31 241.69 -39.31L241.69 -39.31L241.69 -39.31Q247.59 -39.31 250.09 -35.30L250.09 -35.30L250.09 -35.30Q252.58 -31.30 252.58 -21.66L252.58 -21.66L252.58 0.00ZM239.19 3.38L237.81 5.88L237.81 5.88Q235.73 4.56 232.30 4.56L232.30 4.56L232.30 4.56Q230.19 4.56 228.74 5.23L228.74 5.23L228.74 5.23Q227.30 5.91 227.30 7.03L227.30 7.03L227.30 7.03Q227.30 8.72 232.13 9.76L232.13 9.76L232.13 9.76Q236.97 10.80 239.68 12.53L239.68 12.53L239.68 12.53Q242.39 14.27 242.39 17.36L242.39 17.36L242.39 17.36Q242.39 20.73 239.77 23.02L239.77 23.02L239.77 23.02Q237.14 25.31 233.11 25.31L233.11 25.31L233.11 25.31Q229.27 25.31 225.44 22.88L225.44 22.88L225.44 22.88Q221.61 20.45 220.52 17.27L220.52 17.27L221.86 16.34L221.86 16.34Q222.80 17.83 226.13 18.95L226.13 18.95L226.13 18.95Q229.45 20.08 232.41 20.08L232.41 20.08L232.41 20.08Q235.14 20.08 237.27 19.20L237.27 19.20L237.27 19.20Q239.39 18.31 239.39 16.88L239.39 16.88L239.39 16.88Q239.39 15.47 237.87 14.52L237.87 14.52L237.87 14.52Q236.34 13.56 231.88 12.58L231.88 12.58L231.88 12.58Q227.41 11.59 225.86 10.40L225.86 10.40L225.86 10.40Q224.31 9.20 224.31 7.48L224.31 7.48L224.31 7.48Q224.31 4.98 226.65 3.37L226.65 3.37L226.65 3.37Q228.98 1.75 232.47 1.75L232.47 1.75L232.47 1.75Q234.83 1.75 236.36 2.21L236.36 2.21L236.36 2.21Q237.89 2.67 239.19 3.38L239.19 3.38ZM319.58 0.00L316.77 0.00L316.77 -21.66L316.77 -21.66Q316.77 -27.70 314.94 -30.52L314.94 -30.52L314.94 -30.52Q313.11 -33.33 308.69 -33.33L308.69 -33.33L308.69 -33.33Q305.69 -33.33 303.56 -31.29L303.56 -31.29L303.56 -31.29Q301.44 -29.25 301.13 -25.77L301.13 -25.77L298.70 -25.77L298.70 -25.77Q298.70 -28.72 296.43 -31.02L296.43 -31.02L296.43 -31.02Q294.16 -33.33 291.14 -33.33L291.14 -33.33L291.14 -33.33Q286.70 -33.33 284.86 -30.52L284.86 -30.52L284.86 -30.52Q283.02 -27.70 283.02 -21.66L283.02 -21.66L283.02 0.00L281.36 0.00L281.36 0.00Q277.75 0.00 275.48 -1.52L275.48 -1.52L275.48 -1.52Q273.20 -3.03 272.27 -6.14L272.27 -6.14L272.27 -6.14Q271.34 -9.25 271.34 -16.34L271.34 -16.34L271.34 -23.20L271.34 -23.20Q271.34 -29.00 270.41 -31.16L270.41 -31.16L270.41 -31.16Q269.48 -33.33 267.16 -33.33L267.16 -33.33L267.16 -33.33Q265.41 -33.33 264.44 -32.52L264.44 -32.52L264.44 -32.52Q263.47 -31.72 263.09 -30.19L263.09 -30.19L263.09 -30.19Q262.70 -28.66 262.63 -24.19L262.63 -24.19L262.63 -24.19Q261.61 -23.91 261.08 -23.91L261.08 -23.91L259.81 -24.13L259.81 -24.13Q259.81 -32.34 261.66 -35.83L261.66 -35.83L261.66 -35.83Q263.50 -39.31 267.06 -39.31L267.06 -39.31L267.06 -39.31Q270.61 -39.31 272.38 -36.01L272.38 -36.01L272.38 -36.01Q274.16 -32.70 274.16 -22.95L274.16 -22.95L274.16 -14.66L274.16 -14.66Q274.16 -10.41 275.51 -8.20L275.51 -8.20L275.51 -8.20Q276.86 -5.98 279.30 -5.98L279.30 -5.98L280.20 -5.98L280.20 -21.66L280.20 -21.66Q280.20 -31.30 282.73 -35.30L282.73 -35.30L282.73 -35.30Q285.27 -39.31 291.14 -39.31L291.14 -39.31L291.14 -39.31Q297.58 -39.31 299.89 -32.06L299.89 -32.06L299.89 -32.06Q302.25 -39.31 308.69 -39.31L308.69 -39.31L308.69 -39.31Q314.59 -39.31 317.09 -35.30L317.09 -35.30L317.09 -35.30Q319.58 -31.30 319.58 -21.66L319.58 -21.66L319.58 0.00ZM306.19 3.38L304.81 5.88L304.81 5.88Q302.73 4.56 299.30 4.56L299.30 4.56L299.30 4.56Q297.19 4.56 295.74 5.23L295.74 5.23L295.74 5.23Q294.30 5.91 294.30 7.03L294.30 7.03L294.30 7.03Q294.30 8.72 299.13 9.76L299.13 9.76L299.13 9.76Q303.97 10.80 306.68 12.53L306.68 12.53L306.68 12.53Q309.39 14.27 309.39 17.36L309.39 17.36L309.39 17.36Q309.39 20.73 306.77 23.02L306.77 23.02L306.77 23.02Q304.14 25.31 300.11 25.31L300.11 25.31L300.11 25.31Q296.27 25.31 292.44 22.88L292.44 22.88L292.44 22.88Q288.61 20.45 287.52 17.27L287.52 17.27L288.86 16.34L288.86 16.34Q289.80 17.83 293.13 18.95L293.13 18.95L293.13 18.95Q296.45 20.08 299.41 20.08L299.41 20.08L299.41 20.08Q302.14 20.08 304.27 19.20L304.27 19.20L304.27 19.20Q306.39 18.31 306.39 16.88L306.39 16.88L306.39 16.88Q306.39 15.47 304.87 14.52L304.87 14.52L304.87 14.52Q303.34 13.56 298.88 12.58L298.88 12.58L298.88 12.58Q294.41 11.59 292.86 10.40L292.86 10.40L292.86 10.40Q291.31 9.20 291.31 7.48L291.31 7.48L291.31 7.48Q291.31 4.98 293.65 3.37L293.65 3.37L293.65 3.37Q295.98 1.75 299.47 1.75L299.47 1.75L299.47 1.75Q301.83 1.75 303.36 2.21L303.36 2.21L303.36 2.21Q304.89 2.67 306.19 3.38L306.19 3.38ZM326.61 -28.27L324.00 -29.89L324.00 -29.89Q326.08 -34.28 329.77 -36.80L329.77 -36.80L329.77 -36.80Q333.45 -39.31 337.64 -39.31L337.64 -39.31L337.64 -39.31Q344.50 -39.31 348.59 -34.74L348.59 -34.74L348.59 -34.74Q352.69 -30.17 352.69 -23.14L352.69 -23.14L352.69 -23.14Q352.69 -15.44 349.07 -10.85L349.07 -10.85L349.07 -10.85Q345.45 -6.27 339.36 -6.27L339.36 -6.27L339.36 -6.27Q337.08 -6.27 335.25 -7.56L335.25 -7.56L335.25 -7.56Q333.42 -8.86 333.42 -10.80L333.42 -10.80L333.42 -10.80Q333.42 -15.19 337.25 -18.39L337.25 -18.39L339.61 -16.59L339.61 -16.59Q338.09 -15.08 338.09 -13.25L338.09 -13.25L338.09 -13.25Q338.09 -11.75 339.01 -10.99L339.01 -10.99L339.01 -10.99Q339.92 -10.23 341.33 -10.23L341.33 -10.23L341.33 -10.23Q344.61 -10.23 346.89 -13.89L346.89 -13.89L346.89 -13.89Q349.17 -17.55 349.17 -22.89L349.17 -22.89L349.17 -22.89Q349.17 -27.78 346.12 -30.73L346.12 -30.73L346.12 -30.73Q343.06 -33.69 337.75 -33.69L337.75 -33.69L337.75 -33.69Q333.84 -33.69 330.93 -32.28L330.93 -32.28L330.93 -32.28Q328.02 -30.88 326.61 -28.27L326.61 -28.27ZM405.36 39.30L402.55 39.30L402.55 29.03L402.55 29.03Q402.55 22.81 399.30 19.98L399.30 19.98L399.30 19.98Q396.05 17.16 388.84 17.16L388.84 17.16L388.84 17.16Q381.59 17.16 378.36 20.04L378.36 20.04L378.36 20.04Q375.13 22.92 375.13 28.89L375.13 28.89L375.13 39.30L373.47 39.30L373.47 39.30Q367.42 39.30 364.00 35.20L364.00 35.20L364.00 35.20Q360.58 31.11 360.58 23.77L360.58 23.77L360.58 23.77Q360.58 17.58 364.32 11.62L364.32 11.62L364.32 11.62Q368.06 5.66 377.80 -2.57L377.80 -2.57L377.80 -2.57Q387.53 -10.80 390.79 -15.68L390.79 -15.68L390.79 -15.68Q394.05 -20.56 394.05 -25.34L394.05 -25.34L394.05 -25.34Q394.05 -29.11 392.01 -31.22L392.01 -31.22L392.01 -31.22Q389.97 -33.33 386.59 -33.33L386.59 -33.33L386.59 -33.33Q382.94 -33.33 380.83 -30.95L380.83 -30.95L380.83 -30.95Q378.72 -28.58 378.64 -24.19L378.64 -24.19L378.64 -24.19Q377.63 -23.91 377.09 -23.91L377.09 -23.91L375.83 -24.13L375.83 -24.13Q375.83 -31.05 378.59 -35.18L378.59 -35.18L378.59 -35.18Q381.34 -39.31 386.48 -39.31L386.48 -39.31L386.48 -39.31Q391.52 -39.31 394.54 -35.49L394.54 -35.49L394.54 -35.49Q397.56 -31.67 397.56 -25.11L397.56 -25.11L397.56 -25.11Q397.56 -19.41 395.20 -14.15L395.20 -14.15L395.20 -14.15Q392.84 -8.89 388.01 -4.01L388.01 -4.01L388.01 -4.01Q383.17 0.88 376.49 6.19L376.49 6.19L376.49 6.19Q369.81 11.50 366.95 15.72L366.95 15.72L366.95 15.72Q364.09 19.94 364.09 23.94L364.09 23.94L364.09 23.94Q364.09 27.95 366.43 30.64L366.43 30.64L366.43 30.64Q368.77 33.33 371.41 33.33L371.41 33.33L372.31 33.33L372.31 28.89L372.31 28.89Q372.31 20.28 376.52 15.73L376.52 15.73L376.52 15.73Q380.72 11.17 388.80 11.17L388.80 11.17L388.80 11.17Q396.75 11.17 401.05 15.55L401.05 15.55L401.05 15.55Q405.36 19.94 405.36 28.94L405.36 28.94L405.36 39.30ZM459.36 39.30L456.55 39.30L456.55 29.03L456.55 29.03Q456.55 22.81 453.30 19.98L453.30 19.98L453.30 19.98Q450.05 17.16 442.84 17.16L442.84 17.16L442.84 17.16Q435.59 17.16 432.36 20.04L432.36 20.04L432.36 20.04Q429.13 22.92 429.13 28.89L429.13 28.89L429.13 39.30L427.47 39.30L427.47 39.30Q421.42 39.30 418.00 35.20L418.00 35.20L418.00 35.20Q414.58 31.11 414.58 23.77L414.58 23.77L414.58 23.77Q414.58 17.58 418.32 11.62L418.32 11.62L418.32 11.62Q422.06 5.66 431.80 -2.57L431.80 -2.57L431.80 -2.57Q441.53 -10.80 444.79 -15.68L444.79 -15.68L444.79 -15.68Q448.05 -20.56 448.05 -25.34L448.05 -25.34L448.05 -25.34Q448.05 -29.11 446.01 -31.22L446.01 -31.22L446.01 -31.22Q443.97 -33.33 440.59 -33.33L440.59 -33.33L440.59 -33.33Q436.94 -33.33 434.83 -30.95L434.83 -30.95L434.83 -30.95Q432.72 -28.58 432.64 -24.19L432.64 -24.19L432.64 -24.19Q431.63 -23.91 431.09 -23.91L431.09 -23.91L429.83 -24.13L429.83 -24.13Q429.83 -31.05 432.59 -35.18L432.59 -35.18L432.59 -35.18Q435.34 -39.31 440.48 -39.31L440.48 -39.31L440.48 -39.31Q445.52 -39.31 448.54 -35.49L448.54 -35.49L448.54 -35.49Q451.56 -31.67 451.56 -25.11L451.56 -25.11L451.56 -25.11Q451.56 -19.41 449.20 -14.15L449.20 -14.15L449.20 -14.15Q446.84 -8.89 442.01 -4.01L442.01 -4.01L442.01 -4.01Q437.17 0.88 430.49 6.19L430.49 6.19L430.49 6.19Q423.81 11.50 420.95 15.72L420.95 15.72L420.95 15.72Q418.09 19.94 418.09 23.94L418.09 23.94L418.09 23.94Q418.09 27.95 420.43 30.64L420.43 30.64L420.43 30.64Q422.77 33.33 425.41 33.33L425.41 33.33L426.31 33.33L426.31 28.89L426.31 28.89Q426.31 20.28 430.52 15.73L430.52 15.73L430.52 15.73Q434.72 11.17 442.80 11.17L442.80 11.17L442.80 11.17Q450.75 11.17 455.05 15.55L455.05 15.55L455.05 15.55Q459.36 19.94 459.36 28.94L459.36 28.94L459.36 39.30ZM466.61 -28.27L464.00 -29.89L464.00 -29.89Q466.08 -34.28 469.77 -36.80L469.77 -36.80L469.77 -36.80Q473.45 -39.31 477.64 -39.31L477.64 -39.31L477.64 -39.31Q484.50 -39.31 488.59 -34.74L488.59 -34.74L488.59 -34.74Q492.69 -30.17 492.69 -23.14L492.69 -23.14L492.69 -23.14Q492.69 -15.44 489.07 -10.85L489.07 -10.85L489.07 -10.85Q485.45 -6.27 479.36 -6.27L479.36 -6.27L479.36 -6.27Q477.08 -6.27 475.25 -7.56L475.25 -7.56L475.25 -7.56Q473.42 -8.86 473.42 -10.80L473.42 -10.80L473.42 -10.80Q473.42 -15.19 477.25 -18.39L477.25 -18.39L479.61 -16.59L479.61 -16.59Q478.09 -15.08 478.09 -13.25L478.09 -13.25L478.09 -13.25Q478.09 -11.75 479.01 -10.99L479.01 -10.99L479.01 -10.99Q479.92 -10.23 481.33 -10.23L481.33 -10.23L481.33 -10.23Q484.61 -10.23 486.89 -13.89L486.89 -13.89L486.89 -13.89Q489.17 -17.55 489.17 -22.89L489.17 -22.89L489.17 -22.89Q489.17 -27.78 486.12 -30.73L486.12 -30.73L486.12 -30.73Q483.06 -33.69 477.75 -33.69L477.75 -33.69L477.75 -33.69Q473.84 -33.69 470.93 -32.28L470.93 -32.28L470.93 -32.28Q468.02 -30.88 466.61 -28.27L466.61 -28.27ZM549.55 0.00L546.73 0.00L546.73 -22.02L546.73 -22.02Q546.73 -32.70 541.50 -32.70L541.50 -32.70L540.58 -32.70L540.58 -16.95L540.58 -16.95Q540.58 -8.33 536.80 -3.81L536.80 -3.81L536.80 -3.81Q533.02 0.70 525.50 0.70L525.50 0.70L525.50 0.70Q517.94 0.70 514.14 -3.64L514.14 -3.64L514.14 -3.64Q510.34 -7.98 510.34 -16.31L510.34 -16.31L510.34 -23.20L510.34 -23.20Q510.34 -29.00 509.41 -31.16L509.41 -31.16L509.41 -31.16Q508.48 -33.33 506.16 -33.33L506.16 -33.33L506.16 -33.33Q504.41 -33.33 503.44 -32.52L503.44 -32.52L503.44 -32.52Q502.47 -31.72 502.09 -30.19L502.09 -30.19L502.09 -30.19Q501.70 -28.66 501.63 -24.19L501.63 -24.19L501.63 -24.19Q500.61 -23.91 500.08 -23.91L500.08 -23.91L498.81 -24.13L498.81 -24.13Q498.81 -32.34 500.66 -35.83L500.66 -35.83L500.66 -35.83Q502.50 -39.31 506.06 -39.31L506.06 -39.31L506.06 -39.31Q509.61 -39.31 511.38 -36.01L511.38 -36.01L511.38 -36.01Q513.16 -32.70 513.16 -22.95L513.16 -22.95L513.16 -17.09L513.16 -17.09Q513.16 -10.77 516.04 -8.02L516.04 -8.02L516.04 -8.02Q518.92 -5.28 525.47 -5.28L525.47 -5.28L525.47 -5.28Q532.03 -5.28 534.90 -8.13L534.90 -8.13L534.90 -8.13Q537.77 -10.97 537.77 -16.95L537.77 -16.95L537.77 -38.67L539.42 -38.67L539.42 -38.67Q543.11 -38.67 545.36 -37.16L545.36 -37.16L545.36 -37.16Q547.61 -35.66 548.58 -32.51L548.58 -32.51L548.58 -32.51Q549.55 -29.36 549.55 -22.33L549.55 -22.33L549.55 0.00ZM532.17 5.13L530.81 7.63L530.81 7.63Q528.73 6.33 525.28 6.33L525.28 6.33L525.28 6.33Q523.17 6.33 521.73 6.99L521.73 6.99L521.73 6.99Q520.30 7.66 520.30 8.78L520.30 8.78L520.30 8.78Q520.30 10.47 525.13 11.51L525.13 11.51L525.13 11.51Q529.97 12.55 532.67 14.29L532.67 14.29L532.67 14.29Q535.38 16.03 535.38 19.13L535.38 19.13L535.38 19.13Q535.38 22.50 532.76 24.78L532.76 24.78L532.76 24.78Q530.14 27.06 526.09 27.06L526.09 27.06L526.09 27.06Q522.27 27.06 518.43 24.64L518.43 24.64L518.43 24.64Q514.59 22.22 513.52 19.02L513.52 19.02L514.84 18.11L514.84 18.11Q515.80 19.58 519.12 20.70L519.12 20.70L519.12 20.70Q522.44 21.83 525.39 21.83L525.39 21.83L525.39 21.83Q528.14 21.83 530.27 20.95L530.27 20.95L530.27 20.95Q532.39 20.08 532.39 18.63L532.39 18.63L532.39 18.63Q532.39 17.22 530.86 16.27L530.86 16.27L530.86 16.27Q529.33 15.33 524.87 14.34L524.87 14.34L524.87 14.34Q520.41 13.36 518.86 12.16L518.86 12.16L518.86 12.16Q517.31 10.97 517.31 9.25L517.31 9.25L517.31 9.25Q517.31 6.75 519.65 5.13L519.65 5.13L519.65 5.13Q521.98 3.52 525.47 3.52L525.47 3.52L525.47 3.52Q527.81 3.52 529.34 3.97L529.34 3.97L529.34 3.97Q530.88 4.42 532.17 5.13L532.17 5.13ZM607.55 0.00L604.73 0.00L604.73 -22.02L604.73 -22.02Q604.73 -32.70 599.50 -32.70L599.50 -32.70L598.58 -32.70L598.58 -16.95L598.58 -16.95Q598.58 -8.33 594.80 -3.81L594.80 -3.81L594.80 -3.81Q591.02 0.70 583.50 0.70L583.50 0.70L583.50 0.70Q575.94 0.70 572.14 -3.64L572.14 -3.64L572.14 -3.64Q568.34 -7.98 568.34 -16.31L568.34 -16.31L568.34 -23.20L568.34 -23.20Q568.34 -29.00 567.41 -31.16L567.41 -31.16L567.41 -31.16Q566.48 -33.33 564.16 -33.33L564.16 -33.33L564.16 -33.33Q562.41 -33.33 561.44 -32.52L561.44 -32.52L561.44 -32.52Q560.47 -31.72 560.09 -30.19L560.09 -30.19L560.09 -30.19Q559.70 -28.66 559.63 -24.19L559.63 -24.19L559.63 -24.19Q558.61 -23.91 558.08 -23.91L558.08 -23.91L556.81 -24.13L556.81 -24.13Q556.81 -32.34 558.66 -35.83L558.66 -35.83L558.66 -35.83Q560.50 -39.31 564.06 -39.31L564.06 -39.31L564.06 -39.31Q567.61 -39.31 569.38 -36.01L569.38 -36.01L569.38 -36.01Q571.16 -32.70 571.16 -22.95L571.16 -22.95L571.16 -17.09L571.16 -17.09Q571.16 -10.77 574.04 -8.02L574.04 -8.02L574.04 -8.02Q576.92 -5.28 583.47 -5.28L583.47 -5.28L583.47 -5.28Q590.03 -5.28 592.90 -8.13L592.90 -8.13L592.90 -8.13Q595.77 -10.97 595.77 -16.95L595.77 -16.95L595.77 -38.67L597.42 -38.67L597.42 -38.67Q601.11 -38.67 603.36 -37.16L603.36 -37.16L603.36 -37.16Q605.61 -35.66 606.58 -32.51L606.58 -32.51L606.58 -32.51Q607.55 -29.36 607.55 -22.33L607.55 -22.33L607.55 0.00ZM590.17 5.13L588.81 7.63L588.81 7.63Q586.73 6.33 583.28 6.33L583.28 6.33L583.28 6.33Q581.17 6.33 579.73 6.99L579.73 6.99L579.73 6.99Q578.30 7.66 578.30 8.78L578.30 8.78L578.30 8.78Q578.30 10.47 583.13 11.51L583.13 11.51L583.13 11.51Q587.97 12.55 590.67 14.29L590.67 14.29L590.67 14.29Q593.38 16.03 593.38 19.13L593.38 19.13L593.38 19.13Q593.38 22.50 590.76 24.78L590.76 24.78L590.76 24.78Q588.14 27.06 584.09 27.06L584.09 27.06L584.09 27.06Q580.27 27.06 576.43 24.64L576.43 24.64L576.43 24.64Q572.59 22.22 571.52 19.02L571.52 19.02L572.84 18.11L572.84 18.11Q573.80 19.58 577.12 20.70L577.12 20.70L577.12 20.70Q580.44 21.83 583.39 21.83L583.39 21.83L583.39 21.83Q586.14 21.83 588.27 20.95L588.27 20.95L588.27 20.95Q590.39 20.08 590.39 18.63L590.39 18.63L590.39 18.63Q590.39 17.22 588.86 16.27L588.86 16.27L588.86 16.27Q587.33 15.33 582.87 14.34L582.87 14.34L582.87 14.34Q578.41 13.36 576.86 12.16L576.86 12.16L576.86 12.16Q575.31 10.97 575.31 9.25L575.31 9.25L575.31 9.25Q575.31 6.75 577.65 5.13L577.65 5.13L577.65 5.13Q579.98 3.52 583.47 3.52L583.47 3.52L583.47 3.52Q585.81 3.52 587.34 3.97L587.34 3.97L587.34 3.97Q588.88 4.42 590.17 5.13L590.17 5.13ZM614.61 -28.27L612.00 -29.89L612.00 -29.89Q614.08 -34.28 617.77 -36.80L617.77 -36.80L617.77 -36.80Q621.45 -39.31 625.64 -39.31L625.64 -39.31L625.64 -39.31Q632.50 -39.31 636.59 -34.74L636.59 -34.74L636.59 -34.74Q640.69 -30.17 640.69 -23.14L640.69 -23.14L640.69 -23.14Q640.69 -15.44 637.07 -10.85L637.07 -10.85L637.07 -10.85Q633.45 -6.27 627.36 -6.27L627.36 -6.27L627.36 -6.27Q625.08 -6.27 623.25 -7.56L623.25 -7.56L623.25 -7.56Q621.42 -8.86 621.42 -10.80L621.42 -10.80L621.42 -10.80Q621.42 -15.19 625.25 -18.39L625.25 -18.39L627.61 -16.59L627.61 -16.59Q626.09 -15.08 626.09 -13.25L626.09 -13.25L626.09 -13.25Q626.09 -11.75 627.01 -10.99L627.01 -10.99L627.01 -10.99Q627.92 -10.23 629.33 -10.23L629.33 -10.23L629.33 -10.23Q632.61 -10.23 634.89 -13.89L634.89 -13.89L634.89 -13.89Q637.17 -17.55 637.17 -22.89L637.17 -22.89L637.17 -22.89Q637.17 -27.78 634.12 -30.73L634.12 -30.73L634.12 -30.73Q631.06 -33.69 625.75 -33.69L625.75 -33.69L625.75 -33.69Q621.84 -33.69 618.93 -32.28L618.93 -32.28L618.93 -32.28Q616.02 -30.88 614.61 -28.27L614.61 -28.27Z"/></svg>