<svg xmlns="http://www.w3.org/2000/svg" viewBox="0 -53.28 358.45 53.28" height="100%"><path fill="currentColor" d="M19.87 0.72L19.87 0.72L19.87 0.72Q11.45 0.72 7.13 -3.49L7.13 -3.49L7.13 -3.49Q2.81 -7.70 2.81 -14.33L2.81 -14.33L2.81 -14.33Q2.81 -20.02 5.00 -24.95L5.00 -24.95L5.00 -24.95Q7.20 -29.88 10.94 -34.16L10.94 -34.16L10.94 -34.16Q14.69 -38.45 19.30 -42.12L19.30 -42.12L19.30 -42.12Q17.71 -43.34 15.84 -44.60L15.84 -44.60L15.84 -44.60Q13.97 -45.86 11.88 -47.23L11.88 -47.23L15.26 -52.42L15.26 -52.42Q20.59 -49.10 24.77 -46.01L24.77 -46.01L24.77 -46.01Q27.22 -47.59 29.92 -49.18L29.92 -49.18L29.92 -49.18Q32.62 -50.76 35.64 -52.42L35.64 -52.42L38.02 -47.23L38.02 -47.23Q35.57 -45.86 33.44 -44.60L33.44 -44.60L33.44 -44.60Q31.32 -43.34 29.45 -42.12L29.45 -42.12L29.45 -42.12Q35.14 -37.01 37.91 -31.64L37.91 -31.64L37.91 -31.64Q40.68 -26.28 40.68 -19.94L40.68 -19.94L40.68 -19.94Q40.68 -13.97 38.23 -9.32L38.23 -9.32L38.23 -9.32Q35.78 -4.68 31.14 -1.98L31.14 -1.98L31.14 -1.98Q26.50 0.72 19.87 0.72ZM20.45 -4.90L20.45 -4.90L20.45 -4.90Q27.36 -4.90 30.60 -9.07L30.60 -9.07L30.60 -9.07Q33.84 -13.25 33.84 -19.94L33.84 -19.94L33.84 -19.94Q33.84 -24.77 31.72 -29.16L31.72 -29.16L31.72 -29.16Q29.59 -33.55 23.98 -38.38L23.98 -38.38L23.98 -38.38Q20.16 -35.50 16.88 -32.04L16.88 -32.04L16.88 -32.04Q13.61 -28.58 11.63 -24.30L11.63 -24.30L11.63 -24.30Q9.65 -20.02 9.65 -14.83L9.65 -14.83L9.65 -14.83Q9.65 -10.08 12.46 -7.49L12.46 -7.49L12.46 -7.49Q15.26 -4.90 20.45 -4.90ZM63.57 0.79L63.57 0.79L63.57 0.79Q58.02 0.79 55.11 -0.58L55.11 -0.58L55.11 -0.58Q52.19 -1.94 51.15 -4.18L51.15 -4.18L51.15 -4.18Q50.10 -6.41 50.10 -8.93L50.10 -8.93L50.10 -8.93Q50.10 -11.66 52.01 -13.86L52.01 -13.86L52.01 -13.86Q53.92 -16.06 57.20 -17.75L57.20 -17.75L57.20 -17.75Q60.47 -19.44 64.61 -20.70L64.61 -20.70L64.61 -20.70Q68.75 -21.96 73.22 -22.86L73.22 -22.86L73.22 -22.86Q77.68 -23.76 81.86 -24.26L81.86 -24.26L82.36 -28.58L82.36 -28.58Q81.14 -28.01 79.70 -27.65L79.70 -27.65L79.70 -27.65Q78.26 -27.29 76.67 -27.29L76.67 -27.29L76.67 -27.29Q71.49 -27.29 68.54 -30.67L68.54 -30.67L68.54 -30.67Q66.88 -29.09 64.65 -28.19L64.65 -28.19L64.65 -28.19Q62.42 -27.29 59.68 -27.29L59.68 -27.29L59.68 -27.29Q55.36 -27.29 52.44 -29.63L52.44 -29.63L52.44 -29.63Q49.53 -31.97 49.53 -37.58L49.53 -37.58L49.53 -37.58Q49.53 -38.16 49.53 -38.77L49.53 -38.77L49.53 -38.77Q49.53 -39.38 49.60 -39.96L49.60 -39.96L50.75 -51.41L57.23 -51.41L56.22 -40.90L56.22 -40.90Q56.22 -40.75 56.15 -40.03L56.15 -40.03L56.15 -40.03Q56.08 -39.31 56.01 -38.59L56.01 -38.59L56.01 -38.59Q55.94 -37.87 55.94 -37.73L55.94 -37.73L55.94 -37.73Q55.94 -35.86 56.94 -34.42L56.94 -34.42L56.94 -34.42Q57.95 -32.98 60.40 -32.98L60.40 -32.98L60.40 -32.98Q65.94 -32.98 66.52 -38.88L66.52 -38.88L67.82 -51.41L74.30 -51.41L73.14 -40.54L73.14 -40.54Q73.07 -39.96 73.04 -39.35L73.04 -39.35L73.04 -39.35Q73.00 -38.74 73.00 -38.16L73.00 -38.16L73.00 -38.16Q73.00 -36.14 73.90 -34.56L73.90 -34.56L73.90 -34.56Q74.80 -32.98 77.68 -32.98L77.68 -32.98L77.68 -32.98Q80.49 -32.98 81.82 -34.49L81.82 -34.49L81.82 -34.49Q83.15 -36.00 83.44 -38.88L83.44 -38.88L84.81 -51.41L91.29 -51.41L88.55 -24.98L88.55 -24.98Q90.50 -25.13 92.19 -25.20L92.19 -25.20L92.19 -25.20Q93.88 -25.27 95.18 -25.34L95.18 -25.34L94.31 -19.87L94.31 -19.87Q92.87 -19.80 91.25 -19.69L91.25 -19.69L91.25 -19.69Q89.63 -19.58 87.98 -19.51L87.98 -19.51L87.98 -19.51Q86.97 -13.61 84.45 -9.68L84.45 -9.68L84.45 -9.68Q81.93 -5.76 78.44 -3.46L78.44 -3.46L78.44 -3.46Q74.94 -1.15 71.09 -0.18L71.09 -0.18L71.09 -0.18Q67.24 0.79 63.57 0.79ZM63.64 -4.82L63.64 -4.82L63.64 -4.82Q68.75 -4.82 72.32 -6.66L72.32 -6.66L72.32 -6.66Q75.88 -8.50 78.00 -11.66L78.00 -11.66L78.00 -11.66Q80.13 -14.83 81.06 -18.79L81.06 -18.79L81.06 -18.79Q76.53 -18.14 72.17 -17.21L72.17 -17.21L72.17 -17.21Q67.82 -16.27 64.29 -15.05L64.29 -15.05L64.29 -15.05Q60.76 -13.82 58.67 -12.28L58.67 -12.28L58.67 -12.28Q56.58 -10.73 56.58 -8.86L56.58 -8.86L56.58 -8.86Q56.58 -6.98 57.95 -5.90L57.95 -5.90L57.95 -5.90Q59.32 -4.82 63.64 -4.82ZM130.34 0.86L130.34 0.86L130.34 0.86Q119.69 0.86 119.69 -10.44L119.69 -10.44L119.69 -10.44Q119.69 -11.09 119.72 -11.63L119.72 -11.63L119.72 -11.63Q119.76 -12.17 119.83 -13.28L119.83 -13.28L119.83 -13.28Q119.90 -14.40 120.19 -16.70L120.19 -16.70L122.21 -35.35L116.95 -35.35L116.95 -35.35Q117.60 -33.70 117.60 -31.82L117.60 -31.82L117.60 -31.82Q117.60 -28.66 116.09 -26.14L116.09 -26.14L116.09 -26.14Q114.58 -23.62 112.06 -22.18L112.06 -22.18L112.06 -22.18Q109.54 -20.74 106.44 -20.74L106.44 -20.74L106.44 -20.74Q102.55 -20.74 100.00 -23.33L100.00 -23.33L100.00 -23.33Q97.44 -25.92 97.44 -29.66L97.44 -29.66L97.44 -29.66Q97.44 -32.47 98.95 -35.03L98.95 -35.03L98.95 -35.03Q100.46 -37.58 102.98 -39.17L102.98 -39.17L102.98 -39.17Q105.50 -40.75 108.53 -40.75L108.53 -40.75L122.78 -40.75L123.86 -51.41L130.34 -51.41L126.89 -18.29L126.89 -18.29Q126.67 -15.98 126.49 -14.18L126.49 -14.18L126.49 -14.18Q126.31 -12.38 126.31 -11.30L126.31 -11.30L126.31 -11.30Q126.31 -7.78 127.36 -6.26L127.36 -6.26L127.36 -6.26Q128.40 -4.75 130.49 -4.75L130.49 -4.75L130.49 -4.75Q133.30 -4.75 134.74 -6.41L134.74 -6.41L134.74 -6.41Q136.18 -8.06 136.68 -10.44L136.68 -10.44L136.68 -10.44Q137.18 -12.82 137.18 -14.83L137.18 -14.83L137.18 -14.83Q137.18 -15.34 137.08 -16.88L137.08 -16.88L137.08 -16.88Q136.97 -18.43 136.61 -20.30L136.61 -20.30L142.80 -21.82L142.80 -21.82Q143.30 -19.87 143.41 -17.96L143.41 -17.96L143.41 -17.96Q143.52 -16.06 143.52 -15.34L143.52 -15.34L143.52 -15.34Q143.52 -11.23 142.30 -7.52L142.30 -7.52L142.30 -7.52Q141.07 -3.82 138.19 -1.48L138.19 -1.48L138.19 -1.48Q135.31 0.86 130.34 0.86ZM107.02 -26.21L107.02 -26.21L107.02 -26.21Q108.96 -26.21 110.54 -27.68L110.54 -27.68L110.54 -27.68Q112.13 -29.16 112.13 -31.25L112.13 -31.25L112.13 -31.25Q112.13 -32.98 110.94 -34.13L110.94 -34.13L110.94 -34.13Q109.75 -35.28 108.02 -35.28L108.02 -35.28L108.02 -35.28Q106.01 -35.28 104.46 -33.77L104.46 -33.77L104.46 -33.77Q102.91 -32.26 102.91 -30.24L102.91 -30.24L102.91 -30.24Q102.91 -28.51 104.06 -27.36L104.06 -27.36L104.06 -27.36Q105.22 -26.21 107.02 -26.21ZM157.38 0.00L150.90 0.00L156.30 -51.41L162.78 -51.41L157.38 0.00ZM208.03 0.86L208.03 0.86L208.03 0.86Q197.38 0.86 197.38 -10.44L197.38 -10.44L197.38 -10.44Q197.38 -11.38 197.56 -13.21L197.56 -13.21L197.56 -13.21Q197.74 -15.05 197.95 -16.70L197.95 -16.70L201.34 -43.56L201.05 -43.56L192.05 -30.24L188.52 -30.24L182.33 -43.63L182.04 -43.63L182.04 -43.63Q181.97 -41.40 181.79 -38.20L181.79 -38.20L181.79 -38.20Q181.61 -34.99 181.25 -31.18L181.25 -31.18L178.01 0.00L171.53 0.00L176.93 -51.41L184.78 -51.41L191.11 -38.09L200.04 -51.41L208.10 -51.41L204.65 -18.29L204.65 -18.29Q204.43 -15.98 204.25 -14.18L204.25 -14.18L204.25 -14.18Q204.07 -12.38 204.07 -11.30L204.07 -11.30L204.07 -11.30Q204.07 -7.78 205.12 -6.26L205.12 -6.26L205.12 -6.26Q206.16 -4.75 208.25 -4.75L208.25 -4.75L208.25 -4.75Q211.06 -4.75 212.50 -6.41L212.50 -6.41L212.50 -6.41Q213.94 -8.06 214.40 -10.44L214.40 -10.44L214.40 -10.44Q214.87 -12.82 214.87 -14.83L214.87 -14.83L214.87 -14.83Q214.87 -15.34 214.76 -16.92L214.76 -16.92L214.76 -16.92Q214.66 -18.50 214.37 -20.30L214.37 -20.30L220.49 -21.82L220.49 -21.82Q220.92 -19.87 221.06 -17.96L221.06 -17.96L221.06 -17.96Q221.21 -16.06 221.21 -15.34L221.21 -15.34L221.21 -15.34Q221.21 -11.23 219.98 -7.52L219.98 -7.52L219.98 -7.52Q218.76 -3.82 215.88 -1.48L215.88 -1.48L215.88 -1.48Q213.00 0.86 208.03 0.86ZM258.56 0.86L258.56 0.86L258.56 0.86Q255.68 0.86 253.23 0.07L253.23 0.07L253.23 0.07Q250.78 -0.72 249.34 -2.81L249.34 -2.81L249.34 -2.81Q247.90 -4.90 247.90 -8.64L247.90 -8.64L247.90 -8.64Q247.90 -11.66 248.41 -14.72L248.41 -14.72L248.41 -14.72Q248.91 -17.78 248.91 -21.02L248.91 -21.02L248.91 -21.02Q248.91 -24.26 247.87 -26.03L247.87 -26.03L247.87 -26.03Q246.82 -27.79 243.44 -27.79L243.44 -27.79L243.44 -27.79Q241.14 -27.79 239.44 -27.04L239.44 -27.04L239.44 -27.04Q237.75 -26.28 236.60 -24.98L236.60 -24.98L234.01 0.00L227.53 0.00L231.20 -35.35L231.20 -35.35Q231.70 -40.32 233.61 -44.14L233.61 -44.14L233.61 -44.14Q235.52 -47.95 239.01 -50.08L239.01 -50.08L239.01 -50.08Q242.50 -52.20 247.83 -52.20L247.83 -52.20L247.83 -52.20Q252.22 -52.20 255.21 -50.65L255.21 -50.65L255.21 -50.65Q258.20 -49.10 260.79 -46.66L260.79 -46.66L256.26 -42.48L256.26 -42.48Q254.38 -44.35 252.15 -45.43L252.15 -45.43L252.15 -45.43Q249.92 -46.51 247.11 -46.51L247.11 -46.51L247.11 -46.51Q242.50 -46.51 240.38 -43.34L240.38 -43.34L240.38 -43.34Q238.26 -40.18 237.68 -35.06L237.68 -35.06L237.32 -31.54L237.32 -31.54Q240.49 -33.41 244.88 -33.41L244.88 -33.41L244.88 -33.41Q250.93 -33.41 253.20 -30.31L253.20 -30.31L253.20 -30.31Q255.46 -27.22 255.46 -21.74L255.46 -21.74L255.46 -21.74Q255.46 -18.50 255.00 -15.23L255.00 -15.23L255.00 -15.23Q254.53 -11.95 254.53 -8.64L254.53 -8.64L254.53 -8.64Q254.53 -7.06 255.50 -5.90L255.50 -5.90L255.50 -5.90Q256.47 -4.75 258.78 -4.75L258.78 -4.75L258.78 -4.75Q261.58 -4.75 263.02 -6.01L263.02 -6.01L263.02 -6.01Q264.46 -7.27 264.97 -9.32L264.97 -9.32L264.97 -9.32Q265.47 -11.38 265.47 -13.68L265.47 -13.68L265.47 -13.68Q265.47 -14.26 265.36 -16.34L265.36 -16.34L265.36 -16.34Q265.26 -18.43 264.90 -20.30L264.90 -20.30L271.09 -21.82L271.09 -21.82Q271.38 -20.52 271.52 -19.04L271.52 -19.04L271.52 -19.04Q271.66 -17.57 271.74 -16.34L271.74 -16.34L271.74 -16.34Q271.81 -15.12 271.81 -14.69L271.81 -14.69L271.81 -14.69Q271.81 -10.51 270.58 -6.98L270.58 -6.98L270.58 -6.98Q269.36 -3.46 266.48 -1.30L266.48 -1.30L266.48 -1.30Q263.60 0.86 258.56 0.86ZM298.69 0.79L298.69 0.79L298.69 0.79Q291.99 0.79 287.60 -2.09L287.60 -2.09L287.60 -2.09Q283.21 -4.97 281.05 -10.12L281.05 -10.12L281.05 -10.12Q278.89 -15.26 278.89 -21.89L278.89 -21.89L278.89 -21.89Q278.89 -30.53 281.73 -37.40L281.73 -37.40L281.73 -37.40Q284.58 -44.28 290.23 -48.24L290.23 -48.24L290.23 -48.24Q295.88 -52.20 304.30 -52.20L304.30 -52.20L304.30 -52.20Q310.71 -52.20 315.14 -49.32L315.14 -49.32L315.14 -49.32Q319.57 -46.44 321.80 -41.33L321.80 -41.33L321.80 -41.33Q324.03 -36.22 324.03 -29.45L324.03 -29.45L324.03 -29.45Q324.03 -20.02 321.01 -13.25L321.01 -13.25L321.01 -13.25Q317.98 -6.48 312.33 -2.84L312.33 -2.84L312.33 -2.84Q306.68 0.79 298.69 0.79ZM299.26 -4.82L299.26 -4.82L299.26 -4.82Q305.38 -4.82 309.34 -8.03L309.34 -8.03L309.34 -8.03Q313.30 -11.23 315.25 -16.78L315.25 -16.78L315.25 -16.78Q317.19 -22.32 317.19 -29.38L317.19 -29.38L317.19 -29.38Q317.19 -37.15 313.92 -41.87L313.92 -41.87L313.92 -41.87Q310.64 -46.58 303.73 -46.58L303.73 -46.58L303.73 -46.58Q297.61 -46.58 293.61 -43.45L293.61 -43.45L293.61 -43.45Q289.62 -40.32 287.64 -34.78L287.64 -34.78L287.64 -34.78Q285.66 -29.23 285.66 -22.18L285.66 -22.18L285.66 -22.18Q285.66 -14.40 289.00 -9.61L289.00 -9.61L289.00 -9.61Q292.35 -4.82 299.26 -4.82ZM353.05 0.00L346.57 0.00L351.39 -45.50L351.39 -45.50Q349.95 -45.22 349.27 -45.11L349.27 -45.11L349.27 -45.11Q348.58 -45.00 347.29 -45.00L347.29 -45.00L347.29 -45.00Q343.62 -45.00 340.99 -45.76L340.99 -45.76L340.99 -45.76Q338.36 -46.51 335.91 -46.51L335.91 -46.51L335.91 -46.51Q335.19 -46.51 333.93 -46.44L333.93 -46.44L333.93 -46.44Q332.67 -46.37 331.16 -45.79L331.16 -45.79L329.00 -50.69L329.00 -50.69Q330.66 -51.55 332.31 -51.88L332.31 -51.88L332.31 -51.88Q333.97 -52.20 335.91 -52.20L335.91 -52.20L335.91 -52.20Q338.22 -52.20 339.98 -51.80L339.98 -51.80L339.98 -51.80Q341.74 -51.41 343.58 -51.05L343.58 -51.05L343.58 -51.05Q345.42 -50.69 348.01 -50.69L348.01 -50.69L348.01 -50.69Q349.52 -50.69 350.85 -50.87L350.85 -50.87L350.85 -50.87Q352.18 -51.05 354.13 -51.41L354.13 -51.41L358.45 -51.41L353.05 0.00Z"/></svg>