<svg xmlns="http://www.w3.org/2000/svg" viewBox="0 -65.81 565.63 65.81" height="100%"><path fill="currentColor" d="M20.02 -31.68L51.98 -31.68L51.98 -34.70L20.02 -34.70ZM20.02 -20.02L51.98 -20.02L51.98 -23.04L20.02 -23.04ZM101.38 -28.37C101.66 -26.86 101.88 -24.98 101.88 -23.26C101.88 -14.18 100.37 -7.78 92.23 -2.23C90.07 -0.72 88.27 0.14 86.40 0.86L94.03 6.98C110.88 -2.23 110.88 -14.90 111.31 -28.37ZM130.68 -40.75C129.53 -40.39 126.43 -40.25 124.85 -40.25L91.44 -40.25C89.06 -40.25 86.18 -40.46 83.95 -40.82L83.95 -31.54C86.62 -31.82 89.06 -31.97 91.44 -31.97L122.69 -31.97C120.96 -28.94 116.42 -23.83 112.32 -21.02L119.52 -15.98C124.63 -19.94 131.33 -29.02 133.85 -33.05C134.28 -33.77 135.29 -35.14 136.01 -35.93ZM172.94 -39.02C173.30 -36.72 173.45 -34.78 173.45 -32.54C173.45 -20.74 171.72 -13.10 162.58 -6.77C159.91 -4.82 157.32 -3.60 155.02 -2.81L163.37 4.03C183.02 -6.48 183.38 -21.17 183.38 -39.02ZM207.00 -54.07C205.70 -53.64 201.74 -53.42 199.73 -53.42L160.92 -53.42C157.90 -53.42 154.87 -53.71 152.14 -54.14L152.14 -44.14C155.52 -44.42 157.90 -44.64 160.92 -44.64L198.43 -44.64C196.56 -41.11 190.94 -34.78 185.18 -31.25L192.60 -25.27C199.73 -30.31 206.57 -39.38 209.95 -45.00C210.60 -46.08 211.97 -47.81 212.76 -48.74ZM267.41 -45.14C263.81 -40.46 256.25 -34.49 248.90 -30.17C243.22 -26.86 232.78 -22.39 223.49 -20.45L228.31 -12.10C234.36 -13.75 242.28 -16.92 248.62 -19.94L248.62 -1.44C248.62 1.08 248.47 4.90 248.26 6.34L258.91 6.34C258.48 4.90 258.41 1.08 258.41 -1.44L258.41 -25.42C264.96 -29.66 271.22 -34.70 274.61 -38.45ZM332.64 -35.71C339.77 -40.32 346.25 -45.72 351.72 -51.19L344.02 -58.18C339.98 -52.85 332.50 -46.44 325.22 -41.90C317.16 -36.94 305.06 -31.61 292.46 -28.87L297.65 -20.09C306.00 -22.39 315.00 -26.14 322.42 -29.88L322.42 -6.26C322.42 -3.10 322.20 1.44 321.91 3.17L333.29 3.17C332.78 1.37 332.64 -3.10 332.64 -6.26ZM415.44 -37.44C414.43 -37.08 412.85 -36.94 410.40 -36.94L400.39 -36.94L400.39 -40.75C400.39 -42.34 400.46 -43.63 400.75 -46.08L390.67 -46.08C391.10 -43.63 391.18 -42.34 391.18 -40.75L391.18 -36.94L378.86 -36.94C376.63 -36.94 373.90 -37.08 371.95 -37.30C372.10 -35.86 372.38 -32.98 372.38 -31.61L372.38 -20.66C372.38 -19.08 372.24 -17.28 372.10 -15.84L381.24 -15.84C381.10 -16.99 381.02 -18.79 381.02 -20.16L381.02 -28.58L410.18 -28.58C409.68 -23.11 407.52 -17.71 404.78 -13.82C401.26 -8.86 396.00 -5.76 390.96 -3.89C388.94 -3.10 384.84 -2.02 382.18 -1.58L389.30 6.55C400.32 3.89 409.82 -2.52 414.50 -11.09C417.38 -16.27 419.83 -24.12 420.62 -29.23C420.77 -30.31 421.20 -32.76 421.70 -34.13ZM491.18 -47.45C489.96 -47.02 488.23 -46.66 485.21 -46.66L472.68 -46.66L472.68 -52.20C472.68 -54.22 472.82 -55.73 473.18 -58.82L462.10 -58.82C462.60 -55.73 462.67 -54.22 462.67 -52.20L462.67 -46.66L447.26 -46.66C444.53 -46.66 442.44 -46.73 439.92 -47.02C440.21 -45.29 440.28 -42.41 440.28 -40.82L440.28 -28.37C440.28 -26.42 440.14 -24.12 439.92 -22.32L449.86 -22.32C449.71 -23.76 449.64 -25.99 449.64 -27.65L449.64 -38.16L485.35 -38.16C484.49 -31.75 482.62 -24.91 478.94 -19.66C474.91 -13.82 468.58 -9.58 462.60 -7.34C459.65 -6.19 455.69 -5.11 452.45 -4.54L459.94 4.10C472.75 0.79 483.55 -6.84 489.31 -17.50C492.84 -24.05 494.78 -30.96 496.01 -37.87C496.30 -39.31 496.87 -42.05 497.45 -43.63ZM544.54 -7.06L544.54 -30.24L556.85 -30.24C558.43 -30.24 560.66 -30.10 562.46 -29.95L562.46 -39.02C560.74 -38.81 558.58 -38.66 556.85 -38.66L523.87 -38.66C522.29 -38.66 519.77 -38.74 518.18 -39.02L518.18 -29.95C519.77 -30.10 522.36 -30.24 523.87 -30.24L535.10 -30.24L535.10 -7.06L520.42 -7.06C518.62 -7.06 516.38 -7.27 514.51 -7.49L514.51 1.94C516.46 1.66 518.69 1.58 520.42 1.58L560.16 1.58C561.46 1.58 564.12 1.66 565.63 1.94L565.63 -7.49C564.19 -7.34 562.18 -7.06 560.16 -7.06Z"/></svg>