<svg xmlns="http://www.w3.org/2000/svg" viewBox="0 -48.53 379.66 48.53" height="100%"><path fill="currentColor" d="M38.74 -37.37L7.06 -37.37L7.06 -42.19L38.74 -42.19L38.74 -37.37ZM13.68 0.00L7.06 0.00L7.06 -21.10L7.06 -21.10Q7.06 -32.47 22.90 -32.47L22.90 -32.47L22.90 -32.47Q38.74 -32.47 38.74 -21.10L38.74 -21.10L38.74 0.00L32.11 0.00L32.11 -21.10L32.11 -21.10Q32.11 -27.65 22.90 -27.65L22.90 -27.65L22.90 -27.65Q13.68 -27.65 13.68 -21.10L13.68 -21.10L13.68 0.00ZM68.82 0.00L68.82 0.00L68.82 0.00Q62.99 0.00 59.54 -1.51L59.54 -1.51L59.54 -1.51Q56.08 -3.02 54.57 -5.58L54.57 -5.58L54.57 -5.58Q53.06 -8.14 53.06 -11.38L53.06 -11.38L53.06 -20.59L65.51 -22.39L65.51 -22.39Q71.78 -23.33 74.91 -25.45L74.91 -25.45L74.91 -25.45Q78.04 -27.58 78.04 -31.32L78.04 -31.32L78.04 -31.32Q78.04 -34.20 75.99 -35.78L75.99 -35.78L75.99 -35.78Q73.94 -37.37 68.82 -37.37L68.82 -37.37L68.82 -37.37Q63.71 -37.37 61.66 -35.89L61.66 -35.89L61.66 -35.89Q59.61 -34.42 59.61 -32.83L59.61 -32.83L59.61 -32.83Q59.61 -30.31 63.14 -30.31L63.14 -30.31L63.14 -25.27L60.11 -25.27L60.11 -25.27Q57.45 -25.27 55.25 -26.89L55.25 -26.89L55.25 -26.89Q53.06 -28.51 53.06 -32.04L53.06 -32.04L53.06 -32.04Q53.06 -34.56 54.57 -36.90L54.57 -36.90L54.57 -36.90Q56.08 -39.24 59.54 -40.72L59.54 -40.72L59.54 -40.72Q62.99 -42.19 68.82 -42.19L68.82 -42.19L68.82 -42.19Q74.66 -42.19 78.15 -40.72L78.15 -40.72L78.15 -40.72Q81.64 -39.24 83.15 -36.83L83.15 -36.83L83.15 -36.83Q84.66 -34.42 84.66 -31.54L84.66 -31.54L84.66 -31.54Q84.66 -25.70 79.95 -22.36L79.95 -22.36L79.95 -22.36Q75.23 -19.01 65.87 -17.57L65.87 -17.57L59.68 -16.63L59.68 -11.38L59.68 -11.38Q59.68 -8.14 61.70 -6.48L61.70 -6.48L61.70 -6.48Q63.71 -4.82 68.82 -4.82L68.82 -4.82L68.82 -4.82Q73.94 -4.82 75.99 -6.48L75.99 -6.48L75.99 -6.48Q78.04 -8.14 78.04 -11.38L78.04 -11.38L78.04 -16.85L84.66 -16.85L84.66 -11.38L84.66 -11.38Q84.66 -8.14 83.15 -5.58L83.15 -5.58L83.15 -5.58Q81.64 -3.02 78.15 -1.51L78.15 -1.51L78.15 -1.51Q74.66 0.00 68.82 0.00ZM130.66 -37.37L99.06 -37.37L99.06 -42.19L130.66 -42.19L130.66 -37.37ZM105.61 0.00L99.06 0.00L99.06 -21.10L99.06 -21.10Q99.06 -32.47 114.82 -32.47L114.82 -32.47L114.82 -32.47Q130.66 -32.47 130.66 -21.10L130.66 -21.10L130.66 0.00L124.04 0.00L124.04 -21.10L124.04 -21.10Q124.04 -27.58 114.82 -27.58L114.82 -27.58L114.82 -27.58Q105.61 -27.58 105.61 -21.10L105.61 -21.10L105.61 -11.23L105.61 -11.23Q108.13 -14.04 112.16 -14.04L112.16 -14.04L116.62 -14.04L116.62 -9.22L112.95 -9.22L112.95 -9.22Q109.35 -9.22 107.88 -7.60L107.88 -7.60L107.88 -7.60Q106.40 -5.98 105.61 -3.02L105.61 -3.02L105.61 0.00ZM145.06 -11.38L145.06 -11.38L145.06 -34.99L145.06 -34.99Q145.06 -37.37 140.09 -37.37L140.09 -37.37L140.09 -42.19L146.35 -42.19L146.35 -42.19Q151.68 -42.19 151.68 -38.59L151.68 -38.59L151.68 -11.38L151.68 -11.38Q151.68 -4.82 159.96 -4.82L159.96 -4.82L159.96 -4.82Q168.31 -4.82 168.31 -11.38L168.31 -11.38L168.31 -28.37L168.31 -28.37Q166.08 -31.10 165.00 -32.44L165.00 -32.44L165.00 -32.44Q163.92 -33.77 163.63 -34.31L163.63 -34.31L163.63 -34.31Q163.34 -34.85 163.34 -35.35L163.34 -35.35L163.34 -35.35Q163.34 -35.71 163.70 -36.36L163.70 -36.36L163.70 -36.36Q164.06 -37.01 165.04 -38.30L165.04 -38.30L165.04 -38.30Q166.01 -39.60 167.95 -42.19L167.95 -42.19L176.66 -42.19L176.66 -37.37L167.95 -37.37L167.95 -37.30L174.94 -29.52L174.94 -11.38L174.94 -11.38Q174.94 -4.82 183.00 -4.82L183.00 -4.82L183.00 -4.82Q191.14 -4.82 191.14 -11.38L191.14 -11.38L191.14 -28.37L191.14 -28.37Q188.83 -31.10 187.79 -32.44L187.79 -32.44L187.79 -32.44Q186.74 -33.77 186.46 -34.31L186.46 -34.31L186.46 -34.31Q186.17 -34.85 186.17 -35.35L186.17 -35.35L186.17 -35.35Q186.17 -35.71 186.49 -36.36L186.49 -36.36L186.49 -36.36Q186.82 -37.01 187.82 -38.30L187.82 -38.30L187.82 -38.30Q188.83 -39.60 190.78 -42.19L190.78 -42.19L199.49 -42.19L199.49 -37.37L190.78 -37.37L190.78 -37.30L197.76 -29.52L197.76 -11.38L197.76 -11.38Q197.76 0.00 183.00 0.00L183.00 0.00L183.00 0.00Q175.30 0.00 171.62 -3.46L171.62 -3.46L171.62 -3.46Q167.81 0.00 159.96 0.00L159.96 0.00L159.96 0.00Q145.06 0.00 145.06 -11.38ZM219.69 0.00L211.98 0.00L211.98 -18.50L211.98 -18.50Q211.98 -19.66 211.16 -20.09L211.16 -20.09L211.16 -20.09Q210.33 -20.52 208.53 -20.52L208.53 -20.52L208.53 -25.34L213.78 -25.34L213.78 -25.34Q218.61 -25.34 218.61 -20.23L218.61 -20.23L218.61 -5.83L227.90 -14.26L237.04 -5.90L237.04 -24.41L237.04 -24.41Q237.04 -26.57 236.07 -27.79L236.07 -27.79L236.07 -27.79Q235.10 -29.02 233.66 -29.88L233.66 -29.88L233.66 -29.88Q231.21 -29.02 228.69 -28.30L228.69 -28.30L228.69 -28.30Q226.17 -27.58 223.65 -27.58L223.65 -27.58L223.65 -27.58Q220.41 -27.58 217.78 -28.55L217.78 -28.55L217.78 -28.55Q215.15 -29.52 213.60 -31.50L213.60 -31.50L213.60 -31.50Q212.06 -33.48 212.06 -36.50L212.06 -36.50L212.06 -48.53L218.61 -48.53L218.61 -36.50L218.61 -36.50Q218.61 -34.78 219.87 -33.59L219.87 -33.59L219.87 -33.59Q221.13 -32.40 223.65 -32.40L223.65 -32.40L223.65 -32.40Q224.94 -32.40 226.13 -32.58L226.13 -32.58L226.13 -32.58Q227.32 -32.76 229.05 -33.26L229.05 -33.26L229.05 -33.26Q226.89 -34.78 226.89 -37.66L226.89 -37.66L226.89 -37.66Q226.89 -39.60 228.47 -41.36L228.47 -41.36L228.47 -41.36Q230.06 -43.13 233.37 -43.13L233.37 -43.13L233.37 -43.13Q236.54 -43.13 238.19 -41.44L238.19 -41.44L238.19 -41.44Q239.85 -39.74 239.85 -37.44L239.85 -37.44L239.85 -37.44Q239.85 -36.14 239.49 -35.17L239.49 -35.17L239.49 -35.17Q239.13 -34.20 238.12 -33.26L238.12 -33.26L238.12 -33.26Q241.00 -31.90 242.33 -30.02L242.33 -30.02L242.33 -30.02Q243.66 -28.15 243.66 -24.55L243.66 -24.55L243.66 0.00L236.03 0.00L227.90 -7.42L219.69 0.00ZM282.32 -31.61L282.32 -31.61L282.32 -31.61Q285.06 -31.61 286.64 -30.53L286.64 -30.53L286.64 -30.53Q288.22 -29.45 288.22 -27.36L288.22 -27.36L288.22 -11.38L288.22 -11.38Q288.22 0.00 272.38 0.00L272.38 0.00L272.38 0.00Q256.62 0.00 256.62 -11.38L256.62 -11.38L256.62 -27.65L256.62 -27.65Q254.74 -30.02 253.92 -31.32L253.92 -31.32L253.92 -31.32Q253.09 -32.62 253.09 -33.55L253.09 -33.55L253.09 -33.55Q253.09 -34.27 253.27 -34.81L253.27 -34.81L253.27 -34.81Q253.45 -35.35 253.99 -36.11L253.99 -36.11L253.99 -36.11Q254.53 -36.86 255.64 -38.27L255.64 -38.27L255.64 -38.27Q256.76 -39.67 258.63 -42.19L258.63 -42.19L288.22 -42.19L288.22 -37.37L258.78 -37.37L258.78 -37.37Q257.91 -36.43 257.91 -36.00L257.91 -36.00L257.91 -36.00Q257.91 -35.06 259.14 -33.55L259.14 -33.55L259.14 -33.55Q260.36 -32.04 263.24 -28.80L263.24 -28.80L263.24 -11.38L263.24 -11.38Q263.24 -4.82 272.38 -4.82L272.38 -4.82L272.38 -4.82Q281.60 -4.82 281.60 -11.38L281.60 -11.38L281.60 -17.64L281.60 -17.64Q277.93 -17.64 275.73 -19.33L275.73 -19.33L275.73 -19.33Q273.54 -21.02 273.54 -24.26L273.54 -24.26L273.54 -24.26Q273.54 -27.79 276.13 -29.70L276.13 -29.70L276.13 -29.70Q278.72 -31.61 282.32 -31.61ZM281.60 -22.54L281.60 -22.54L281.60 -26.78L281.60 -26.78Q278.36 -26.78 278.36 -24.62L278.36 -24.62L278.36 -24.62Q278.36 -22.54 281.60 -22.54ZM327.76 -31.61L327.76 -31.61L327.76 -31.61Q330.50 -31.61 332.08 -30.53L332.08 -30.53L332.08 -30.53Q333.66 -29.45 333.66 -27.36L333.66 -27.36L333.66 -11.38L333.66 -11.38Q333.66 -6.34 331.11 -3.17L331.11 -3.17L331.11 -3.17Q328.55 0.00 324.09 0.00L324.09 0.00L324.09 0.00Q321.71 0.00 319.80 -1.30L319.80 -1.30L319.80 -1.30Q317.90 -2.59 316.17 -4.39L316.17 -4.39L316.17 -4.39Q314.73 -5.98 313.76 -6.98L313.76 -6.98L313.76 -6.98Q312.78 -7.99 311.67 -8.53L311.67 -8.53L311.67 -8.53Q310.55 -9.07 308.68 -9.22L308.68 -9.22L308.68 0.00L302.06 0.00L302.06 0.00Q298.53 -5.69 298.53 -9.86L298.53 -9.86L298.53 -9.86Q298.53 -13.82 302.06 -14.04L302.06 -14.04L302.06 -27.65L302.06 -27.65Q300.18 -30.02 299.36 -31.32L299.36 -31.32L299.36 -31.32Q298.53 -32.62 298.53 -33.55L298.53 -33.55L298.53 -33.55Q298.53 -34.27 298.71 -34.81L298.71 -34.81L298.71 -34.81Q298.89 -35.35 299.43 -36.11L299.43 -36.11L299.43 -36.11Q299.97 -36.86 301.08 -38.27L301.08 -38.27L301.08 -38.27Q302.20 -39.67 304.07 -42.19L304.07 -42.19L333.66 -42.19L333.66 -37.37L304.22 -37.37L304.22 -37.37Q303.35 -36.43 303.35 -36.00L303.35 -36.00L303.35 -36.00Q303.35 -35.06 304.58 -33.55L304.58 -33.55L304.58 -33.55Q305.80 -32.04 308.68 -28.80L308.68 -28.80L308.68 -14.04L308.68 -14.04Q311.27 -13.82 312.89 -13.36L312.89 -13.36L312.89 -13.36Q314.51 -12.89 315.63 -12.10L315.63 -12.10L315.63 -12.10Q316.74 -11.30 317.90 -10.08L317.90 -10.08L317.90 -10.08Q318.76 -9.07 319.73 -7.85L319.73 -7.85L319.73 -7.85Q320.70 -6.62 321.75 -5.72L321.75 -5.72L321.75 -5.72Q322.79 -4.82 323.94 -4.82L323.94 -4.82L323.94 -4.82Q325.24 -4.82 325.92 -5.87L325.92 -5.87L325.92 -5.87Q326.61 -6.91 326.82 -8.42L326.82 -8.42L326.82 -8.42Q327.04 -9.94 327.04 -11.38L327.04 -11.38L327.04 -17.64L327.04 -17.64Q323.37 -17.64 321.17 -19.33L321.17 -19.33L321.17 -19.33Q318.98 -21.02 318.98 -24.26L318.98 -24.26L318.98 -24.26Q318.98 -27.79 321.57 -29.70L321.57 -29.70L321.57 -29.70Q324.16 -31.61 327.76 -31.61ZM327.04 -22.54L327.04 -22.54L327.04 -26.78L327.04 -26.78Q323.80 -26.78 323.80 -24.62L323.80 -24.62L323.80 -24.62Q323.80 -22.54 327.04 -22.54ZM355.69 0.00L348.06 0.00L348.06 -27.65L348.06 -27.65Q346.18 -30.02 345.36 -31.32L345.36 -31.32L345.36 -31.32Q344.53 -32.62 344.53 -33.55L344.53 -33.55L344.53 -33.55Q344.53 -34.27 344.71 -34.81L344.71 -34.81L344.71 -34.81Q344.89 -35.35 345.43 -36.11L345.43 -36.11L345.43 -36.11Q345.97 -36.86 347.08 -38.27L347.08 -38.27L347.08 -38.27Q348.20 -39.67 350.07 -42.19L350.07 -42.19L370.16 -42.19L370.16 -42.19Q371.38 -42.19 372.21 -42.62L372.21 -42.62L372.21 -42.62Q373.04 -43.06 373.04 -43.92L373.04 -43.92L373.04 -48.53L379.66 -48.53L379.66 -43.92L379.66 -43.92Q379.66 -40.61 377.68 -38.99L377.68 -38.99L377.68 -38.99Q375.70 -37.37 370.88 -37.37L370.88 -37.37L350.22 -37.37L350.22 -37.37Q349.35 -36.43 349.35 -36.00L349.35 -36.00L349.35 -36.00Q349.35 -35.06 350.58 -33.55L350.58 -33.55L350.58 -33.55Q351.80 -32.04 354.68 -28.80L354.68 -28.80L354.68 -5.83L363.90 -14.26L373.04 -5.90L373.04 -32.47L379.66 -32.47L379.66 0.00L372.03 0.00L363.90 -7.42L355.69 0.00Z"/></svg>