<svg xmlns="http://www.w3.org/2000/svg" viewBox="0 -52.13 423.64 52.13" height="100%"><path fill="currentColor" d="M28.51 0.72L28.51 0.72L28.51 0.72Q21.31 0.72 15.88 -2.27L15.88 -2.27L15.88 -2.27Q10.44 -5.26 7.42 -10.73L7.42 -10.73L7.42 -10.73Q4.39 -16.20 4.39 -23.62L4.39 -23.62L4.39 -23.62Q4.39 -28.94 6.12 -33.30L6.12 -33.30L6.12 -33.30Q7.85 -37.66 10.84 -40.86L10.84 -40.86L10.84 -40.86Q13.82 -44.06 17.57 -45.86L17.57 -45.86L17.57 -46.08L5.69 -46.08L5.69 -51.41L41.76 -51.41L41.76 -45.79L32.69 -45.79L32.69 -45.79Q25.92 -45.79 21.13 -43.13L21.13 -43.13L21.13 -43.13Q16.34 -40.46 13.79 -35.64L13.79 -35.64L13.79 -35.64Q11.23 -30.82 11.23 -24.41L11.23 -24.41L11.23 -24.41Q11.23 -15.12 15.91 -10.04L15.91 -10.04L15.91 -10.04Q20.59 -4.97 29.45 -4.97L29.45 -4.97L29.45 -4.97Q32.83 -4.97 35.86 -5.54L35.86 -5.54L35.86 -5.54Q38.88 -6.12 41.76 -6.98L41.76 -6.98L41.76 -1.37L41.76 -1.37Q38.88 -0.29 35.82 0.22L35.82 0.22L35.82 0.22Q32.76 0.72 28.51 0.72ZM100.22 0.00L80.28 0.00L80.28 -17.42L80.28 -17.42Q80.28 -17.86 80.39 -19.15L80.39 -19.15L80.39 -19.15Q80.50 -20.45 80.64 -22.46L80.64 -22.46L80.28 -22.46L80.28 -22.46Q78.19 -19.30 74.20 -17.39L74.20 -17.39L74.20 -17.39Q70.20 -15.48 65.59 -15.48L65.59 -15.48L65.59 -15.48Q57.67 -15.48 53.35 -20.27L53.35 -20.27L53.35 -20.27Q49.03 -25.06 49.03 -33.84L49.03 -33.84L49.03 -33.84Q49.03 -42.84 54.36 -51.41L54.36 -51.41L61.92 -51.41L61.92 -51.41Q60.19 -49.39 58.82 -46.55L58.82 -46.55L58.82 -46.55Q57.46 -43.70 56.66 -40.39L56.66 -40.39L56.66 -40.39Q55.87 -37.08 55.87 -33.77L55.87 -33.77L55.87 -33.77Q55.87 -27.79 58.50 -24.44L58.50 -24.44L58.50 -24.44Q61.13 -21.10 66.60 -21.10L66.60 -21.10L66.60 -21.10Q73.66 -21.10 77.00 -24.73L77.00 -24.73L77.00 -24.73Q80.35 -28.37 80.35 -36.50L80.35 -36.50L80.35 -51.41L86.83 -51.41L86.83 -5.62L100.22 -5.62L100.22 0.00ZM149.63 0.00L129.69 0.00L129.69 -45.79L108.95 -45.79L108.95 -28.08L102.47 -28.08L102.47 -51.41L136.17 -51.41L136.17 -5.62L149.63 -5.62L149.63 0.00ZM176.36 0.72L176.36 0.72L176.36 0.72Q169.16 0.72 164.05 -1.84L164.05 -1.84L164.05 -1.84Q158.94 -4.39 156.16 -9.11L156.16 -9.11L156.16 -9.11Q153.39 -13.82 153.39 -20.23L153.39 -20.23L153.39 -20.23Q153.39 -26.21 155.80 -30.71L155.80 -30.71L155.80 -30.71Q158.22 -35.21 162.68 -37.91L162.68 -37.91L162.68 -37.91Q167.14 -40.61 173.26 -41.18L173.26 -41.18L173.26 -45.72L155.77 -45.72L155.77 -51.41L197.17 -51.41L197.17 -45.72L179.74 -45.72L179.74 -41.18L179.74 -41.18Q189.18 -40.46 194.36 -34.88L194.36 -34.88L194.36 -34.88Q199.54 -29.30 199.54 -20.23L199.54 -20.23L199.54 -20.23Q199.54 -10.37 193.46 -4.82L193.46 -4.82L193.46 -4.82Q187.38 0.72 176.36 0.72ZM176.36 -4.97L176.36 -4.97L176.36 -4.97Q184.21 -4.97 188.46 -8.89L188.46 -8.89L188.46 -8.89Q192.70 -12.82 192.70 -20.30L192.70 -20.30L192.70 -20.30Q192.70 -27.72 188.49 -31.72L188.49 -31.72L188.49 -31.72Q184.28 -35.71 176.43 -35.71L176.43 -35.71L176.43 -35.71Q168.66 -35.71 164.44 -31.75L164.44 -31.75L164.44 -31.75Q160.23 -27.79 160.23 -20.30L160.23 -20.30L160.23 -20.30Q160.23 -12.82 164.41 -8.89L164.41 -8.89L164.41 -8.89Q168.58 -4.97 176.36 -4.97ZM240.17 0.00L233.69 0.00L233.69 -45.79L212.95 -45.79L212.95 -28.08L206.47 -28.08L206.47 -51.41L240.17 -51.41L240.17 0.00ZM286.17 0.00L279.69 0.00L279.69 -45.79L258.95 -45.79L258.95 -28.08L252.47 -28.08L252.47 -51.41L286.17 -51.41L286.17 -30.02L303.23 -30.02L303.23 -12.53L297.04 -12.53L297.04 -24.41L286.17 -24.41L286.17 0.00ZM336.91 0.72L336.91 0.72L336.91 0.72Q328.06 0.72 323.09 -4.68L323.09 -4.68L323.09 -4.68Q318.12 -10.08 318.12 -19.22L318.12 -19.22L318.12 -45.79L303.36 -45.79L303.36 -51.41L324.60 -51.41L324.60 -38.16L324.60 -38.16Q324.60 -37.15 324.49 -35.35L324.49 -35.35L324.49 -35.35Q324.38 -33.55 324.24 -31.97L324.24 -31.97L324.67 -31.97L324.67 -31.97Q327.41 -36.00 330.68 -37.66L330.68 -37.66L330.68 -37.66Q333.96 -39.31 338.64 -39.31L338.64 -39.31L338.64 -39.31Q344.33 -39.31 348.29 -36.76L348.29 -36.76L348.29 -36.76Q352.25 -34.20 354.37 -29.70L354.37 -29.70L354.37 -29.70Q356.50 -25.20 356.50 -19.37L356.50 -19.37L356.50 -19.37Q356.50 -13.25 354.16 -8.71L354.16 -8.71L354.16 -8.71Q351.82 -4.18 347.42 -1.73L347.42 -1.73L347.42 -1.73Q343.03 0.72 336.91 0.72ZM336.84 -4.90L336.84 -4.90L336.84 -4.90Q342.96 -4.90 346.38 -8.71L346.38 -8.71L346.38 -8.71Q349.80 -12.53 349.80 -19.37L349.80 -19.37L349.80 -19.37Q349.80 -26.21 346.60 -29.95L346.60 -29.95L346.60 -29.95Q343.39 -33.70 337.63 -33.70L337.63 -33.70L337.63 -33.70Q331.37 -33.70 327.98 -29.81L327.98 -29.81L327.98 -29.81Q324.60 -25.92 324.60 -19.22L324.60 -19.22L324.60 -19.22Q324.60 -12.53 327.84 -8.71L327.84 -8.71L327.84 -8.71Q331.08 -4.90 336.84 -4.90ZM406.58 -51.41L406.58 -30.02L423.64 -30.02L423.64 -12.53L417.45 -12.53L417.45 -24.41L406.58 -24.41L406.58 0.00L390.74 0.00L390.74 0.00Q378.64 0.00 372.02 -6.66L372.02 -6.66L372.02 -6.66Q365.39 -13.32 365.39 -25.20L365.39 -25.20L365.39 -25.20Q365.39 -37.94 372.34 -44.68L372.34 -44.68L372.34 -44.68Q379.29 -51.41 392.25 -51.41L392.25 -51.41L406.58 -51.41ZM391.67 -5.54L400.10 -5.54L400.10 -45.86L393.11 -45.86L393.11 -45.86Q372.23 -45.86 372.23 -25.42L372.23 -25.42L372.23 -25.42Q372.23 -5.54 391.67 -5.54L391.67 -5.54Z"/></svg>