<svg xmlns="http://www.w3.org/2000/svg" viewBox="0 -53.34 378.52 53.34" height="100%"><path fill="currentColor" d="M41.41 -0.72L34.63 0.36L34.63 -8.78L11.81 -2.95L11.81 -2.95Q10.80 -2.73 10.16 -2.73L10.16 -2.73L10.16 -2.73Q7.98 -2.73 7.98 -5.55L7.98 -5.55L7.98 -5.55Q7.98 -17.72 7.02 -28.55L7.02 -28.55L7.02 -28.55Q6.05 -39.39 5.25 -49.31L5.25 -49.31L11.81 -50.11L11.81 -50.11Q11.95 -48.53 12.13 -46.77L12.13 -46.77L12.13 -46.77Q12.31 -45.00 12.45 -43.06L12.45 -43.06L36.08 -49.03L36.08 -49.03Q36.36 -49.11 36.61 -49.14L36.61 -49.14L36.61 -49.14Q36.86 -49.17 37.08 -49.17L37.08 -49.17L37.08 -49.17Q38.81 -49.17 39.03 -47.30L39.03 -47.30L39.03 -47.30Q39.17 -45.80 39.74 -40.32L39.74 -40.32L39.74 -40.32Q40.31 -34.84 40.82 -25.05L40.82 -25.05L40.82 -25.05Q41.33 -15.27 41.41 -0.72L41.41 -0.72ZM13.89 -26.28L13.89 -26.28L33.70 -31.31L33.70 -31.31Q33.48 -34.42 33.27 -37.09L33.27 -37.09L33.27 -37.09Q33.05 -39.75 32.83 -42.27L32.83 -42.27L13.03 -37.22L13.03 -37.22Q13.25 -34.70 13.47 -31.97L13.47 -31.97L13.47 -31.97Q13.69 -29.23 13.89 -26.28ZM14.55 -9.58L14.55 -9.58L34.56 -14.69L34.56 -14.69Q34.34 -20.73 34.13 -25.48L34.13 -25.48L14.19 -20.45L14.19 -20.45Q14.33 -17.86 14.40 -15.16L14.40 -15.16L14.40 -15.16Q14.47 -12.45 14.55 -9.58ZM69.11 0.80L69.11 0.80L69.11 0.80Q67.89 0.80 67.02 0.22L67.02 0.22L67.02 0.22Q66.16 -0.36 65.66 -1.88L65.66 -1.88L65.66 -1.88Q65.44 -2.45 65.26 -4.83L65.26 -4.83L65.26 -4.83Q65.08 -7.20 64.97 -10.48L64.97 -10.48L64.97 -10.48Q64.86 -13.75 64.79 -17.13L64.79 -17.13L64.79 -17.13Q64.72 -20.52 64.72 -23.11L64.72 -23.11L64.72 -23.11Q64.72 -24.27 64.83 -27.04L64.83 -27.04L64.83 -27.04Q64.94 -29.81 65.08 -33.30L65.08 -33.30L65.08 -33.30Q65.22 -36.80 65.48 -40.11L65.48 -40.11L65.48 -40.11Q65.73 -43.42 66.02 -45.58L66.02 -45.58L50.89 -41.55L51.19 -47.38L66.38 -51.70L66.38 -51.70Q67.53 -51.98 69.01 -52.23L69.01 -52.23L69.01 -52.23Q70.48 -52.48 71.13 -52.48L71.13 -52.48L71.13 -52.48Q72.20 -52.48 72.60 -51.70L72.60 -51.70L72.60 -51.70Q73.00 -50.91 73.00 -49.83L73.00 -49.83L73.00 -49.83Q73.00 -48.45 72.78 -45.54L72.78 -45.54L72.78 -45.54Q72.56 -42.63 72.24 -38.84L72.24 -38.84L72.24 -38.84Q71.92 -35.06 71.70 -31.03L71.70 -31.03L71.70 -31.03Q71.48 -27.00 71.48 -23.41L71.48 -23.41L71.48 -23.41Q71.48 -17.56 71.55 -12.77L71.55 -12.77L71.55 -12.77Q71.63 -7.98 71.98 -5.83L71.98 -5.83L86.75 -9.50L87.83 -4.03L76.53 -0.80L76.53 -0.80Q75.52 -0.50 74.04 -0.14L74.04 -0.14L74.04 -0.14Q72.56 0.22 71.16 0.51L71.16 0.51L71.16 0.51Q69.77 0.80 69.11 0.80ZM131.52 -4.39L126.77 0.58L126.77 0.58Q123.45 -2.73 121.08 -7.99L121.08 -7.99L121.08 -7.99Q118.70 -13.25 117.45 -19.41L117.45 -19.41L117.45 -19.41Q116.19 -25.56 116.19 -31.47L116.19 -31.47L116.19 -31.47Q116.19 -32.11 116.19 -32.94L116.19 -32.94L116.19 -32.94Q116.19 -33.77 116.25 -34.63L116.25 -34.63L116.25 -34.63Q114.17 -33.63 111.69 -33.02L111.69 -33.02L111.69 -33.02Q109.20 -32.41 106.39 -32.41L106.39 -32.41L106.39 -32.41Q100.63 -32.41 97.42 -35.64L97.42 -35.64L97.42 -35.64Q94.22 -38.88 94.22 -43.63L94.22 -43.63L94.22 -43.63Q94.22 -45.58 94.76 -47.63L94.76 -47.63L94.76 -47.63Q95.30 -49.69 96.53 -51.77L96.53 -51.77L102.58 -49.11L102.58 -49.11Q101.92 -48.09 101.49 -46.69L101.49 -46.69L101.49 -46.69Q101.06 -45.28 101.06 -43.78L101.06 -43.78L101.06 -43.78Q101.06 -41.61 102.29 -39.85L102.29 -39.85L102.29 -39.85Q103.52 -38.09 106.69 -38.09L106.69 -38.09L106.69 -38.09Q112.02 -38.09 116.05 -41.73L116.05 -41.73L116.05 -41.73Q120.08 -45.36 122.81 -52.27L122.81 -52.27L128.42 -48.81L128.42 -48.81Q126.27 -45.08 125.11 -42.20L125.11 -42.20L125.11 -42.20Q123.95 -39.31 123.49 -36.87L123.49 -36.87L123.49 -36.87Q123.03 -34.42 123.03 -31.83L123.03 -31.83L123.03 -31.83Q123.03 -25.92 124.18 -20.66L124.18 -20.66L124.18 -20.66Q125.33 -15.41 127.27 -11.23L127.27 -11.23L127.27 -11.23Q129.22 -7.06 131.52 -4.39L131.52 -4.39ZM184.58 -1.08L178.83 0.86L178.83 0.86Q177.89 -3.31 176.73 -7.63L176.73 -7.63L176.73 -7.63Q175.58 -11.95 174.44 -16.13L174.44 -16.13L174.44 -16.13Q166.38 -9.58 155.56 -3.45L155.56 -3.45L152.83 -8.50L152.83 -8.50Q158.88 -11.81 163.84 -15.30L163.84 -15.30L163.84 -15.30Q168.81 -18.80 172.63 -22.03L172.63 -22.03L172.63 -22.03Q171.91 -24.41 171.16 -26.67L171.16 -26.67L171.16 -26.67Q170.41 -28.94 169.69 -30.95L169.69 -30.95L169.69 -30.95Q165.28 -27.80 160.39 -24.66L160.39 -24.66L160.39 -24.66Q155.50 -21.53 150.17 -18.44L150.17 -18.44L147.44 -23.47L147.44 -23.47Q152.97 -26.64 158.02 -29.88L158.02 -29.88L158.02 -29.88Q163.06 -33.13 167.66 -36.50L167.66 -36.50L167.66 -36.50Q166.66 -39.17 165.65 -41.33L165.65 -41.33L165.65 -41.33Q164.64 -43.48 163.78 -45.00L163.78 -45.00L163.78 -45.00Q158.52 -41.83 153.77 -38.59L153.77 -38.59L153.77 -38.59Q149.02 -35.36 144.55 -32.05L144.55 -32.05L141.53 -36.80L141.53 -36.80Q144.13 -38.73 146.14 -40.28L146.14 -40.28L146.14 -40.28Q148.16 -41.83 150.13 -43.23L150.13 -43.23L150.13 -43.23Q152.11 -44.64 154.38 -46.23L154.38 -46.23L154.38 -46.23Q156.64 -47.81 159.75 -49.97L159.75 -49.97L159.75 -49.97Q162.34 -51.77 164.64 -51.77L164.64 -51.77L164.64 -51.77Q166.30 -51.77 167.13 -51.09L167.13 -51.09L167.13 -51.09Q167.95 -50.41 168.45 -49.39L168.45 -49.39L168.45 -49.39Q172.42 -41.19 175.23 -33.45L175.23 -33.45L175.23 -33.45Q178.03 -25.70 180.27 -17.75L180.27 -17.75L180.27 -17.75Q182.50 -9.80 184.58 -1.08L184.58 -1.08ZM232.70 -9.50L226.66 -7.70L226.66 -7.70Q225.72 -10.88 224.42 -14.69L224.42 -14.69L224.42 -14.69Q223.13 -18.50 221.55 -22.47L221.55 -22.47L221.55 -22.47Q219.31 -21.89 216.00 -21.35L216.00 -21.35L216.00 -21.35Q212.69 -20.81 208.98 -20.48L208.98 -20.48L208.98 -20.48Q205.27 -20.16 201.95 -20.16L201.95 -20.16L201.95 -20.16Q197.78 -20.16 195.16 -20.84L195.16 -20.84L195.16 -20.84Q192.53 -21.53 192.53 -23.25L192.53 -23.25L192.53 -23.25Q192.53 -25.63 193.57 -28.69L193.57 -28.69L193.57 -28.69Q194.61 -31.75 196.27 -34.92L196.27 -34.92L196.27 -34.92Q197.92 -38.09 199.76 -40.97L199.76 -40.97L199.76 -40.97Q201.59 -43.84 203.15 -45.97L203.15 -45.97L203.15 -45.97Q204.70 -48.09 205.48 -48.89L205.48 -48.89L205.48 -48.89Q206.86 -50.25 207.94 -51.01L207.94 -51.01L207.94 -51.01Q209.02 -51.77 210.81 -51.77L210.81 -51.77L210.81 -51.77Q212.19 -51.77 213.23 -50.80L213.23 -50.80L213.23 -50.80Q214.27 -49.83 215.14 -48.67L215.14 -48.67L215.14 -48.67Q216.64 -46.66 218.59 -43.16L218.59 -43.16L218.59 -43.16Q220.53 -39.67 222.59 -35.31L222.59 -35.31L222.59 -35.31Q224.64 -30.95 226.59 -26.31L226.59 -26.31L226.59 -26.31Q228.53 -21.67 230.12 -17.31L230.12 -17.31L230.12 -17.31Q231.70 -12.95 232.70 -9.50L232.70 -9.50ZM203.61 -25.84L203.61 -25.84L203.61 -25.84Q206.78 -25.84 211.03 -26.38L211.03 -26.38L211.03 -26.38Q215.28 -26.92 219.31 -27.64L219.31 -27.64L219.31 -27.64Q217.02 -32.97 214.56 -37.62L214.56 -37.62L214.56 -37.62Q212.11 -42.27 210.03 -45.00L210.03 -45.00L210.03 -45.00Q207.50 -41.77 205.30 -38.16L205.30 -38.16L205.30 -38.16Q203.11 -34.56 201.67 -31.43L201.67 -31.43L201.67 -31.43Q200.23 -28.30 199.88 -26.50L199.88 -26.50L200.02 -26.14L200.02 -26.14Q200.73 -25.98 201.63 -25.91L201.63 -25.91L201.63 -25.91Q202.53 -25.84 203.61 -25.84ZM270.63 -1.52L263.86 0.00L263.86 0.00Q263.72 -7.06 263.11 -13.47L263.11 -13.47L263.11 -13.47Q262.50 -19.88 261.56 -25.63L261.56 -25.63L261.56 -25.63Q261.06 -28.94 260.45 -32.33L260.45 -32.33L260.45 -32.33Q259.83 -35.72 259.18 -38.70L259.18 -38.70L259.18 -38.70Q258.53 -41.69 257.75 -43.78L257.75 -43.78L257.75 -43.78Q253.56 -40.69 249.53 -37.20L249.53 -37.20L249.53 -37.20Q245.50 -33.70 241.25 -28.73L241.25 -28.73L237.08 -32.97L237.08 -32.97Q241.47 -38.30 246.19 -42.59L246.19 -42.59L246.19 -42.59Q250.91 -46.88 256.45 -50.61L256.45 -50.61L256.45 -50.61Q257.23 -51.13 258.10 -51.48L258.10 -51.48L258.10 -51.48Q258.97 -51.84 259.97 -51.84L259.97 -51.84L259.97 -51.84Q261.42 -51.84 262.10 -51.13L262.10 -51.13L262.10 -51.13Q262.78 -50.41 263.14 -49.47L263.14 -49.47L263.14 -49.47Q264.88 -45.22 266.06 -39.35L266.06 -39.35L266.06 -39.35Q267.25 -33.48 268.25 -27.58L268.25 -27.58L268.25 -27.58Q269.27 -21.53 269.91 -15.16L269.91 -15.16L269.91 -15.16Q270.56 -8.78 270.63 -1.52L270.63 -1.52ZM291.69 0.80L291.69 0.80L289.02 -4.47L289.02 -4.47Q291.97 -5.47 294.99 -7.05L294.99 -7.05L294.99 -7.05Q298.02 -8.64 300.89 -10.30L300.89 -10.30L300.89 -10.30Q302.55 -11.23 304.42 -12.67L304.42 -12.67L304.42 -12.67Q306.30 -14.11 307.63 -15.88L307.63 -15.88L307.63 -15.88Q308.95 -17.64 308.95 -19.58L308.95 -19.58L308.95 -19.58Q308.95 -20.95 308.70 -22.68L308.70 -22.68L308.70 -22.68Q308.45 -24.41 308.03 -26.56L308.03 -26.56L308.03 -26.56Q300.17 -25.98 293.80 -25.84L293.80 -25.84L293.80 -25.84Q287.44 -25.70 283.97 -25.70L283.97 -25.70L283.97 -25.70Q281.89 -25.70 281.35 -26.82L281.35 -26.82L281.35 -26.82Q280.81 -27.94 280.81 -28.94L280.81 -28.94L280.81 -28.94Q280.81 -30.17 281.53 -31.39L281.53 -31.39L281.53 -31.39Q282.25 -32.61 283.33 -33.77L283.33 -33.77L283.33 -33.77Q287.08 -37.73 290.75 -41.66L290.75 -41.66L290.75 -41.66Q294.42 -45.58 298.09 -48.81L298.09 -48.81L298.09 -48.81Q299.45 -49.97 300.61 -50.87L300.61 -50.87L300.61 -50.87Q301.77 -51.77 303.70 -51.77L303.70 -51.77L303.70 -51.77Q305.80 -51.77 306.70 -50.87L306.70 -50.87L306.70 -50.87Q307.59 -49.97 308.09 -48.75L308.09 -48.75L308.09 -48.75Q308.75 -47.09 309.65 -44.39L309.65 -44.39L309.65 -44.39Q310.55 -41.69 311.48 -38.45L311.48 -38.45L311.48 -38.45Q312.42 -35.20 313.32 -31.93L313.32 -31.93L313.32 -31.93Q314.22 -28.66 314.86 -25.84L314.86 -25.84L314.86 -25.84Q315.16 -24.63 315.48 -22.75L315.48 -22.75L315.48 -22.75Q315.80 -20.88 315.80 -19.08L315.80 -19.08L315.80 -19.08Q315.80 -16.92 314.65 -14.94L314.65 -14.94L314.65 -14.94Q313.50 -12.95 311.73 -11.20L311.73 -11.20L311.73 -11.20Q309.97 -9.44 308.06 -8.03L308.06 -8.03L308.06 -8.03Q306.16 -6.63 304.56 -5.61L304.56 -5.61L304.56 -5.61Q301.69 -3.75 298.55 -2.23L298.55 -2.23L298.55 -2.23Q295.42 -0.72 291.69 0.80ZM288.94 -31.69L289.09 -31.39L290.81 -31.39L290.81 -31.39Q294.27 -31.39 298.48 -31.57L298.48 -31.57L298.48 -31.57Q302.70 -31.75 306.66 -32.05L306.66 -32.05L306.66 -32.05Q305.72 -35.36 304.75 -38.59L304.75 -38.59L304.75 -38.59Q303.78 -41.83 302.70 -45.00L302.70 -45.00L302.70 -45.00Q300.03 -43.13 297.41 -40.64L297.41 -40.64L297.41 -40.64Q294.78 -38.16 292.59 -35.78L292.59 -35.78L292.59 -35.78Q290.39 -33.41 288.94 -31.69L288.94 -31.69ZM361.66 -1.02L355.47 0.86L355.47 0.86Q354.69 -3.45 353.82 -7.45L353.82 -7.45L353.82 -7.45Q352.95 -11.45 351.94 -15.19L351.94 -15.19L351.94 -15.19Q345.17 -14.97 339.99 -14.90L339.99 -14.90L339.99 -14.90Q334.81 -14.83 332.22 -14.83L332.22 -14.83L332.22 -14.83Q325.81 -14.83 325.81 -19.22L325.81 -19.22L325.81 -19.22Q325.81 -21.39 327.14 -23.01L327.14 -23.01L327.14 -23.01Q328.47 -24.63 330.98 -26.36L330.98 -26.36L330.98 -26.36Q334.45 -28.73 338.02 -31.18L338.02 -31.18L338.02 -31.18Q341.58 -33.63 345.31 -36.08L345.31 -36.08L345.31 -36.08Q344.09 -39.45 342.73 -42.77L342.73 -42.77L342.73 -42.77Q341.36 -46.08 339.92 -49.47L339.92 -49.47L345.69 -52.20L345.69 -52.20Q347.05 -49.11 348.34 -46.01L348.34 -46.01L348.34 -46.01Q349.64 -42.91 350.86 -39.75L350.86 -39.75L350.86 -39.75Q354.53 -42.13 358.35 -44.50L358.35 -44.50L358.35 -44.50Q362.17 -46.88 366.13 -49.17L366.13 -49.17L368.72 -43.92L368.72 -43.92Q364.47 -41.55 360.51 -39.17L360.51 -39.17L360.51 -39.17Q356.55 -36.80 352.81 -34.42L352.81 -34.42L352.81 -34.42Q354.03 -31.11 355.11 -27.73L355.11 -27.73L355.11 -27.73Q356.19 -24.34 357.13 -20.95L357.13 -20.95L357.13 -20.95Q362.31 -21.17 367.50 -21.46L367.50 -21.46L367.50 -21.46Q372.69 -21.75 377.72 -22.03L377.72 -22.03L378.52 -16.34L378.52 -16.34Q373.41 -15.98 368.36 -15.77L368.36 -15.77L368.36 -15.77Q363.31 -15.55 358.64 -15.41L358.64 -15.41L358.64 -15.41Q359.58 -11.81 360.30 -8.25L360.30 -8.25L360.30 -8.25Q361.02 -4.69 361.66 -1.02L361.66 -1.02ZM332.50 -20.59L332.64 -20.23L332.64 -20.23Q337.11 -20.30 341.58 -20.45L341.58 -20.45L341.58 -20.45Q346.05 -20.59 350.44 -20.66L350.44 -20.66L350.44 -20.66Q349.64 -23.25 348.85 -25.77L348.85 -25.77L348.85 -25.77Q348.06 -28.30 347.19 -30.75L347.19 -30.75L347.19 -30.75Q339.63 -25.78 332.50 -20.59L332.50 -20.59Z"/></svg>