<svg xmlns="http://www.w3.org/2000/svg" viewBox="0 -59.75 370.77 59.75" height="100%"><path fill="currentColor" d="M42.77 -57.59L42.77 -23.77L37.73 -23.77L37.73 -39.23L27.44 -39.23L27.44 0.00L22.39 0.00L22.39 -39.23L12.17 -39.23L12.17 -23.77L7.13 -23.77L7.13 -57.59L12.17 -57.59L12.17 -43.78L37.73 -43.78L37.73 -57.59L42.77 -57.59ZM59.80 0.00L54.75 0.00L54.75 0.00Q55.05 -6.05 56.02 -12.89L56.02 -12.89L56.02 -12.89Q56.98 -19.73 58.46 -26.50L58.46 -26.50L58.46 -26.50Q59.94 -33.27 61.81 -39.23L61.81 -39.23L59.36 -39.23L59.36 -43.78L63.39 -43.78L63.39 -43.78Q65.91 -50.19 68.97 -54.25L68.97 -54.25L68.97 -54.25Q72.03 -58.31 75.48 -58.31L75.48 -58.31L75.48 -58.31Q79.16 -58.31 82.29 -54.25L82.29 -54.25L82.29 -54.25Q85.42 -50.19 87.88 -43.78L87.88 -43.78L91.97 -43.78L91.97 -39.23L89.53 -39.23L89.53 -39.23Q91.47 -33.19 92.88 -26.31L92.88 -26.31L92.88 -26.31Q94.28 -19.44 95.18 -12.60L95.18 -12.60L95.18 -12.60Q96.08 -5.77 96.38 0.00L96.38 0.00L91.25 0.00L91.25 0.00Q90.89 -6.19 89.88 -13.21L89.88 -13.21L89.88 -13.21Q88.88 -20.23 87.44 -27.00L87.44 -27.00L63.47 -27.00L63.47 -27.00Q62.09 -20.30 61.09 -13.24L61.09 -13.24L61.09 -13.24Q60.08 -6.19 59.80 0.00L59.80 0.00ZM75.48 -53.28L75.48 -53.28L75.48 -53.28Q73.61 -53.28 71.67 -50.69L71.67 -50.69L71.67 -50.69Q69.73 -48.09 68.08 -43.78L68.08 -43.78L82.91 -43.78L82.91 -43.78Q81.25 -48.09 79.30 -50.69L79.30 -50.69L79.30 -50.69Q77.36 -53.28 75.48 -53.28ZM84.27 -39.23L66.63 -39.23L66.63 -39.23Q66.13 -37.44 65.59 -35.49L65.59 -35.49L65.59 -35.49Q65.05 -33.55 64.55 -31.53L64.55 -31.53L86.44 -31.53L86.44 -31.53Q85.42 -35.78 84.27 -39.23L84.27 -39.23ZM125.98 -31.11L127.64 -31.11L127.64 -31.11Q127.86 -32.33 128.65 -34.70L128.65 -34.70L128.65 -34.70Q129.44 -37.08 130.55 -40.10L130.55 -40.10L130.55 -40.10Q131.67 -43.13 132.97 -46.30L132.97 -46.30L137.72 -58.31L142.41 -56.45L134.63 -38.30L134.63 -38.30Q133.25 -35.14 132.60 -33.84L132.60 -33.84L132.60 -33.84Q131.95 -32.55 131.23 -31.31L131.23 -31.31L131.45 -31.11L131.45 -31.11Q132.39 -31.25 133.33 -31.28L133.33 -31.28L133.33 -31.28Q134.27 -31.31 135.42 -31.31L135.42 -31.31L135.42 -26.78L134.77 -26.78L134.77 -26.78Q131.03 -26.78 128.91 -26.82L128.91 -26.82L128.91 -26.82Q126.78 -26.86 125.98 -26.92L125.98 -26.92L125.98 -26.92Q126.20 -24.19 126.20 -19.73L126.20 -19.73L126.20 0.00L121.16 0.00L121.16 -19.73L121.16 -19.73Q121.16 -24.19 121.38 -26.92L121.38 -26.92L121.38 -26.92Q120.66 -26.86 118.53 -26.82L118.53 -26.82L118.53 -26.82Q116.41 -26.78 112.59 -26.78L112.59 -26.78L111.94 -26.78L111.94 -31.31L111.94 -31.31Q113.09 -31.31 114.03 -31.28L114.03 -31.28L114.03 -31.28Q114.97 -31.25 115.91 -31.11L115.91 -31.11L116.13 -31.31L116.13 -31.31Q115.41 -32.55 114.76 -33.84L114.76 -33.84L114.76 -33.84Q114.11 -35.14 112.73 -38.30L112.73 -38.30L104.95 -56.45L109.64 -58.31L114.39 -46.30L114.39 -46.30Q116.27 -41.61 117.74 -37.55L117.74 -37.55L117.74 -37.55Q119.22 -33.48 119.64 -31.11L119.64 -31.11L121.38 -31.11L121.38 -31.11Q121.30 -32.47 121.23 -34.63L121.23 -34.63L121.23 -34.63Q121.16 -36.80 121.16 -39.23L121.16 -39.23L121.16 -57.59L126.20 -57.59L126.20 -39.23L126.20 -39.23Q126.20 -36.94 126.13 -34.67L126.13 -34.67L126.13 -34.67Q126.06 -32.41 125.98 -31.11L125.98 -31.11ZM153.98 -57.59L164.72 -57.59L164.72 -57.59Q167.31 -57.59 168.86 -55.98L168.86 -55.98L168.86 -55.98Q170.41 -54.36 171.56 -51.84L171.56 -51.84L171.56 -51.84Q172.72 -49.31 173.94 -46.47L173.94 -46.47L173.94 -46.47Q175.16 -43.63 177.03 -41.11L177.03 -41.11L177.03 -41.11Q178.91 -38.59 181.97 -36.98L181.97 -36.98L181.97 -36.98Q185.03 -35.36 189.78 -35.36L189.78 -35.36L189.78 0.00L153.98 0.00L153.98 -57.59ZM178.19 -46.02L175.52 -48.95L175.52 -48.95Q176.59 -50.05 178.22 -51.23L178.22 -51.23L178.22 -51.23Q179.84 -52.42 181.57 -53.25L181.57 -53.25L181.57 -53.25Q183.30 -54.08 184.81 -54.08L184.81 -54.08L184.81 -54.08Q187.25 -54.08 189.09 -52.34L189.09 -52.34L189.09 -52.34Q190.92 -50.61 190.92 -48.03L190.92 -48.03L190.92 -48.03Q190.92 -46.52 190.02 -44.82L190.02 -44.82L190.02 -44.82Q189.13 -43.13 187.87 -41.58L187.87 -41.58L187.87 -41.58Q186.61 -40.03 185.45 -38.95L185.45 -38.95L182.64 -41.55L182.64 -41.55Q183.30 -42.19 184.30 -43.16L184.30 -43.16L184.30 -43.16Q185.31 -44.14 186.14 -45.33L186.14 -45.33L186.14 -45.33Q186.97 -46.52 186.97 -47.66L186.97 -47.66L186.97 -47.66Q186.97 -48.59 186.28 -49.32L186.28 -49.32L186.28 -49.32Q185.59 -50.05 184.59 -50.05L184.59 -50.05L184.59 -50.05Q183.44 -50.05 182.21 -49.29L182.21 -49.29L182.21 -49.29Q180.98 -48.53 179.91 -47.59L179.91 -47.59L179.91 -47.59Q178.83 -46.66 178.19 -46.02L178.19 -46.02ZM163.56 -53.06L158.81 -53.06L158.81 -4.53L184.73 -4.53L184.73 -31.47L184.73 -31.47Q180.56 -32.19 177.75 -34.05L177.75 -34.05L177.75 -34.05Q174.94 -35.92 173.14 -38.38L173.14 -38.38L173.14 -38.38Q171.34 -40.83 170.20 -43.38L170.20 -43.38L170.20 -43.38Q169.05 -45.94 168.11 -48.13L168.11 -48.13L168.11 -48.13Q167.17 -50.33 166.16 -51.70L166.16 -51.70L166.16 -51.70Q165.16 -53.06 163.56 -53.06L163.56 -53.06ZM226.45 -28.58L221.77 -27.94L220.83 -34.70L209.17 -34.70L209.17 0.00L204.13 0.00L204.13 -37.52L204.13 -37.52Q204.13 -48.53 207.77 -53.24L207.77 -53.24L207.77 -53.24Q211.41 -57.95 217.95 -57.95L217.95 -57.95L217.95 -57.95Q219.97 -57.95 222.45 -57.81L222.45 -57.81L222.45 -57.81Q224.94 -57.67 227.23 -57.17L227.23 -57.17L226.45 -52.70L226.45 -52.70Q224.58 -53.06 223.14 -53.14L223.14 -53.14L225.02 -39.23L231.70 -39.23L231.70 -34.70L225.58 -34.70L226.45 -28.58ZM220.25 -39.23L218.39 -53.42L218.39 -53.42Q215.36 -53.42 213.38 -52.20L213.38 -52.20L213.38 -52.20Q211.41 -50.97 210.32 -47.88L210.32 -47.88L210.32 -47.88Q209.23 -44.78 209.17 -39.23L209.17 -39.23L220.25 -39.23ZM267.25 -33.70L267.25 -29.16L249.03 -29.16L249.03 0.00L243.98 0.00L243.98 -57.59L249.03 -57.59L249.03 -33.70L267.25 -33.70ZM310.45 -35.06L305.98 -35.06L302.67 -43.48L302.67 -43.48Q301.88 -45.58 301.13 -48.06L301.13 -48.06L301.13 -48.06Q300.38 -50.55 300.22 -52.06L300.22 -52.06L299.94 -52.06L299.94 -52.06Q299.72 -50.55 299.11 -48.09L299.11 -48.09L299.11 -48.09Q298.50 -45.64 297.70 -43.63L297.70 -43.63L294.25 -34.92L289.78 -34.92L286.77 -41.91L286.77 -41.91Q285.89 -43.92 285.24 -45.65L285.24 -45.65L285.24 -45.65Q284.59 -47.38 284.31 -48.39L284.31 -48.39L284.09 -48.31L284.09 -48.31Q284.09 -46.22 283.45 -41.83L283.45 -41.83L282.80 -37.30L278.34 -38.09L281.22 -53.64L279.84 -56.66L284.31 -58.89L287.84 -51.05L287.84 -51.05Q288.56 -49.39 289.46 -47.16L289.46 -47.16L289.46 -47.16Q290.36 -44.92 291.05 -42.88L291.05 -42.88L291.05 -42.88Q291.73 -40.83 291.94 -39.81L291.94 -39.81L292.23 -39.81L292.23 -39.81Q292.30 -40.89 292.84 -42.98L292.84 -42.98L292.84 -42.98Q293.39 -45.08 294.07 -47.34L294.07 -47.34L294.07 -47.34Q294.75 -49.61 295.25 -51.05L295.25 -51.05L298.20 -59.11L301.95 -59.11L304.97 -51.13L304.97 -51.13Q305.55 -49.53 306.34 -47.27L306.34 -47.27L306.34 -47.27Q307.14 -45.00 307.79 -42.91L307.79 -42.91L307.79 -42.91Q308.44 -40.83 308.64 -39.81L308.64 -39.81L308.94 -39.81L308.94 -39.81Q309.08 -40.75 309.62 -42.77L309.62 -42.77L309.62 -42.77Q310.16 -44.78 310.88 -47.09L310.88 -47.09L310.88 -47.09Q311.59 -49.39 312.39 -51.05L312.39 -51.05L315.92 -58.89L320.39 -56.66L319.02 -53.64L321.89 -38.09L317.44 -37.30L316.78 -41.83L316.78 -41.83Q316.50 -44.06 316.39 -45.65L316.39 -45.65L316.39 -45.65Q316.28 -47.23 316.28 -48.31L316.28 -48.31L316.06 -48.39L316.06 -48.39Q315.78 -47.38 315.06 -45.61L315.06 -45.61L315.06 -45.61Q314.34 -43.84 313.47 -41.91L313.47 -41.91L310.45 -35.06ZM287.13 0.64L282.44 -1.66L282.44 -1.66Q285.75 -7.34 289.17 -11.38L289.17 -11.38L289.17 -11.38Q292.59 -15.41 296.63 -19.22L296.63 -19.22L296.63 -19.22Q293.89 -21.75 291.23 -24.27L291.23 -24.27L291.23 -24.27Q288.56 -26.78 286.25 -28.38L286.25 -28.38L286.25 -32.91L314.05 -32.91L314.05 -28.38L314.05 -28.38Q311.75 -26.78 309.09 -24.27L309.09 -24.27L309.09 -24.27Q306.42 -21.75 303.69 -19.22L303.69 -19.22L303.69 -19.22Q307.72 -15.41 311.10 -11.38L311.10 -11.38L311.10 -11.38Q314.48 -7.34 317.86 -1.66L317.86 -1.66L313.19 0.64L313.19 0.64Q310.73 -3.81 308.32 -6.84L308.32 -6.84L308.32 -6.84Q305.91 -9.86 303.69 -12.31L303.69 -12.31L303.69 -12.31Q302.23 -13.89 301.41 -14.98L301.41 -14.98L301.41 -14.98Q300.58 -16.06 300.30 -16.98L300.30 -16.98L300.02 -16.98L300.02 -16.98Q299.44 -15.48 296.48 -12.45L296.48 -12.45L296.48 -12.45Q294.17 -10.08 291.87 -6.95L291.87 -6.95L291.87 -6.95Q289.56 -3.81 287.13 0.64L287.13 0.64ZM300.02 -21.31L300.30 -21.31L300.30 -21.31Q300.66 -21.95 301.27 -22.78L301.27 -22.78L301.27 -22.78Q301.88 -23.61 303.39 -24.98L303.39 -24.98L303.39 -24.98Q304.55 -25.92 305.95 -27.11L305.95 -27.11L305.95 -27.11Q307.36 -28.30 308.22 -28.52L308.22 -28.52L308.22 -28.94L308.22 -28.94Q307.78 -28.88 306.63 -28.80L306.63 -28.80L306.63 -28.80Q305.48 -28.73 304.11 -28.73L304.11 -28.73L296.19 -28.73L296.19 -28.73Q294.83 -28.73 293.67 -28.80L293.67 -28.80L293.67 -28.80Q292.52 -28.88 292.09 -28.94L292.09 -28.94L292.09 -28.52L292.09 -28.52Q293.03 -28.30 294.43 -27.11L294.43 -27.11L294.43 -27.11Q295.83 -25.92 296.91 -24.91L296.91 -24.91L296.91 -24.91Q298.20 -23.77 298.92 -22.90L298.92 -22.90L298.92 -22.90Q299.64 -22.03 300.02 -21.31L300.02 -21.31ZM370.77 -57.59L370.77 -53.06L335.13 -53.06L335.13 -57.59L370.77 -57.59ZM340.17 -48.95L340.17 -29.52L335.13 -29.52L335.13 -48.95L340.17 -48.95ZM365.73 -48.95L370.77 -48.95L370.77 -29.52L365.73 -29.52L365.73 -48.95ZM355.44 -48.95L355.44 -29.52L350.39 -29.52L350.39 -48.95L355.44 -48.95ZM355.44 -25.56L355.44 0.00L350.39 0.00L350.39 -25.56L355.44 -25.56Z"/></svg>