<svg xmlns="http://www.w3.org/2000/svg" viewBox="0 -52.2 362.20 52.20" height="100%"><path fill="currentColor" d="M13.47 0.00L6.98 0.00L6.98 -51.41L13.47 -51.41L13.47 -37.44L13.47 -37.44Q16.98 -37.44 19.65 -39.31L19.65 -39.31L19.65 -39.31Q22.31 -41.19 23.76 -44.21L23.76 -44.21L23.76 -44.21Q25.20 -47.23 25.20 -50.69L25.20 -50.69L25.20 -51.41L32.05 -51.41L32.05 -50.61L32.05 -50.61Q32.05 -46.66 30.57 -43.23L30.57 -43.23L30.57 -43.23Q29.09 -39.81 26.50 -37.22L26.50 -37.22L26.50 -37.22Q23.91 -34.63 20.55 -33.16L20.55 -33.16L20.55 -33.16Q17.20 -31.69 13.47 -31.69L13.47 -31.69L13.47 -23.69L13.47 -23.69Q19.16 -23.69 24.20 -25.56L24.20 -25.56L24.20 -25.56Q29.23 -27.44 33.02 -30.96L33.02 -30.96L33.02 -30.96Q36.80 -34.48 38.95 -39.45L38.95 -39.45L38.95 -39.45Q41.11 -44.42 41.11 -50.69L41.11 -50.69L41.11 -51.41L47.95 -51.41L47.95 -50.61L47.95 -50.61Q47.95 -42.98 45.36 -36.94L45.36 -36.94L45.36 -36.94Q42.77 -30.89 38.09 -26.64L38.09 -26.64L38.09 -26.64Q33.41 -22.39 27.11 -20.16L27.11 -20.16L27.11 -20.16Q20.81 -17.92 13.47 -17.92L13.47 -17.92L13.47 0.00ZM68.52 -44.14L68.52 -44.14L68.52 -44.14Q66.92 -44.14 65.84 -45.11L65.84 -45.11L65.84 -45.11Q64.77 -46.08 64.77 -48.17L64.77 -48.17L64.77 -48.17Q64.77 -50.25 65.84 -51.23L65.84 -51.23L65.84 -51.23Q66.92 -52.20 68.52 -52.20L68.52 -52.20L68.52 -52.20Q69.95 -52.20 71.07 -51.23L71.07 -51.23L71.07 -51.23Q72.19 -50.25 72.19 -48.17L72.19 -48.17L72.19 -48.17Q72.19 -46.08 71.07 -45.11L71.07 -45.11L71.07 -45.11Q69.95 -44.14 68.52 -44.14ZM62.47 0.00L55.98 0.00L55.98 -51.41L62.47 -51.41L62.47 -37.44L62.47 -37.44Q66.92 -37.44 69.95 -39.31L69.95 -39.31L69.95 -39.31Q72.97 -41.19 74.48 -44.21L74.48 -44.21L74.48 -44.21Q76.00 -47.23 76.00 -50.69L76.00 -50.69L76.00 -51.41L82.84 -51.41L82.84 -50.61L82.84 -50.61Q82.84 -45.36 80.18 -41.08L80.18 -41.08L80.18 -41.08Q77.52 -36.80 72.91 -34.24L72.91 -34.24L72.91 -34.24Q68.30 -31.69 62.47 -31.69L62.47 -31.69L62.47 -23.69L62.47 -23.69Q70.89 -23.69 77.55 -26.96L77.55 -26.96L77.55 -26.96Q84.20 -30.23 88.05 -36.29L88.05 -36.29L88.05 -36.29Q91.91 -42.34 91.91 -50.69L91.91 -50.69L91.91 -51.41L98.75 -51.41L98.75 -50.61L98.75 -50.61Q98.75 -42.98 96.13 -36.94L96.13 -36.94L96.13 -36.94Q93.50 -30.89 88.67 -26.64L88.67 -26.64L88.67 -26.64Q83.84 -22.39 77.19 -20.16L77.19 -20.16L77.19 -20.16Q70.53 -17.92 62.47 -17.92L62.47 -17.92L62.47 0.00ZM113.47 0.00L106.98 0.00L106.98 -51.41L113.83 -51.41L113.83 -51.41Q119.16 -51.41 124.34 -49.97L124.34 -49.97L124.34 -49.97Q129.52 -48.53 133.73 -45.47L133.73 -45.47L133.73 -45.47Q137.94 -42.41 140.46 -37.55L140.46 -37.55L140.46 -37.55Q142.98 -32.69 142.98 -25.78L142.98 -25.78L142.98 0.00L136.28 0.00L136.28 -25.42L136.28 -25.42Q136.28 -32.19 133.19 -36.40L133.19 -36.40L133.19 -36.40Q130.09 -40.61 124.91 -42.59L124.91 -42.59L124.91 -42.59Q119.73 -44.56 113.47 -44.56L113.47 -44.56L113.47 0.00ZM162.47 0.00L155.98 0.00L155.98 -51.41L163.97 -51.41L192.13 0.00L184.56 0.00L162.03 -42.77L162.03 -42.77Q162.17 -40.97 162.32 -38.48L162.32 -38.48L162.32 -38.48Q162.47 -36.00 162.47 -34.63L162.47 -34.63L162.47 0.00ZM173.91 0.00L168.22 0.00L168.22 -13.25L173.91 -13.25L173.91 0.00ZM205.47 0.00L198.98 0.00L198.98 -51.41L205.83 -51.41L205.83 -51.41Q211.16 -51.41 216.34 -49.97L216.34 -49.97L216.34 -49.97Q221.52 -48.53 225.73 -45.47L225.73 -45.47L225.73 -45.47Q229.94 -42.41 232.46 -37.55L232.46 -37.55L232.46 -37.55Q234.98 -32.69 234.98 -25.78L234.98 -25.78L234.98 0.00L228.28 0.00L228.28 -25.42L228.28 -25.42Q228.28 -32.19 225.19 -36.40L225.19 -36.40L225.19 -36.40Q222.09 -40.61 216.91 -42.59L216.91 -42.59L216.91 -42.59Q211.73 -44.56 205.47 -44.56L205.47 -44.56L205.47 0.00ZM216.48 -20.30L216.48 -20.30L216.48 -20.30Q214.89 -20.30 213.81 -21.30L213.81 -21.30L213.81 -21.30Q212.73 -22.31 212.73 -24.34L212.73 -24.34L212.73 -24.34Q212.73 -26.42 213.81 -27.40L213.81 -27.40L213.81 -27.40Q214.89 -28.38 216.48 -28.38L216.48 -28.38L216.48 -28.38Q217.92 -28.38 219.04 -27.40L219.04 -27.40L219.04 -27.40Q220.16 -26.42 220.16 -24.34L220.16 -24.34L220.16 -24.34Q220.16 -22.31 219.04 -21.30L219.04 -21.30L219.04 -21.30Q217.92 -20.30 216.48 -20.30ZM254.47 0.00L247.98 0.00L247.98 -51.41L254.83 -51.41L254.83 -51.41Q260.16 -51.41 265.34 -49.97L265.34 -49.97L265.34 -49.97Q270.52 -48.53 274.73 -45.47L274.73 -45.47L274.73 -45.47Q278.94 -42.41 281.46 -37.55L281.46 -37.55L281.46 -37.55Q283.98 -32.69 283.98 -25.78L283.98 -25.78L283.98 0.00L277.64 0.00L277.64 -25.42L277.64 -25.42Q277.64 -30.53 275.80 -34.13L275.80 -34.13L275.80 -34.13Q273.97 -37.73 270.73 -40.07L270.73 -40.07L270.73 -40.07Q267.50 -42.41 263.32 -43.48L263.32 -43.48L263.32 -43.48Q259.14 -44.56 254.47 -44.56L254.47 -44.56L254.47 -30.03L254.47 -30.03Q258.42 -30.03 261.80 -28.52L261.80 -28.52L261.80 -28.52Q265.19 -27.00 267.20 -23.51L267.20 -23.51L267.20 -23.51Q269.22 -20.02 269.22 -14.25L269.22 -14.25L269.22 0.00L262.89 0.00L262.89 -13.11L262.89 -13.11Q262.89 -19.73 260.44 -22.29L260.44 -22.29L260.44 -22.29Q257.98 -24.84 254.47 -24.84L254.47 -24.84L254.47 0.00ZM303.11 0.00L296.98 0.00L296.98 -51.41L303.11 -51.41L303.11 -45.08L303.11 -45.08Q313.33 -43.84 318.77 -39.45L318.77 -39.45L318.77 -39.45Q324.20 -35.06 324.20 -26.42L324.20 -26.42L324.20 -26.42Q324.20 -20.81 322.44 -17.10L322.44 -17.10L322.44 -17.10Q320.67 -13.39 317.65 -11.20L317.65 -11.20L317.65 -11.20Q314.63 -9.00 310.88 -7.88L310.88 -7.88L310.88 -7.88Q307.14 -6.77 303.11 -6.34L303.11 -6.34L303.11 0.00ZM303.11 -39.31L303.11 -11.81L303.11 -11.81Q307.72 -12.53 310.92 -13.90L310.92 -13.90L310.92 -13.90Q314.13 -15.27 315.74 -18.11L315.74 -18.11L315.74 -18.11Q317.36 -20.95 317.36 -26.20L317.36 -26.20L317.36 -26.20Q317.36 -32.61 313.83 -35.53L313.83 -35.53L313.83 -35.53Q310.30 -38.45 303.11 -39.31L303.11 -39.31ZM341.11 0.00L334.98 0.00L334.98 -51.41L341.11 -51.41L341.11 -45.08L341.11 -45.08Q351.33 -43.84 356.77 -39.45L356.77 -39.45L356.77 -39.45Q362.20 -35.06 362.20 -26.42L362.20 -26.42L362.20 -26.42Q362.20 -20.81 360.44 -17.10L360.44 -17.10L360.44 -17.10Q358.67 -13.39 355.65 -11.20L355.65 -11.20L355.65 -11.20Q352.63 -9.00 348.88 -7.88L348.88 -7.88L348.88 -7.88Q345.14 -6.77 341.11 -6.34L341.11 -6.34L341.11 0.00ZM341.11 -39.31L341.11 -11.81L341.11 -11.81Q345.72 -12.53 348.92 -13.90L348.92 -13.90L348.92 -13.90Q352.13 -15.27 353.74 -18.11L353.74 -18.11L353.74 -18.11Q355.36 -20.95 355.36 -26.20L355.36 -26.20L355.36 -26.20Q355.36 -32.61 351.83 -35.53L351.83 -35.53L351.83 -35.53Q348.30 -38.45 341.11 -39.31L341.11 -39.31ZM347.88 -21.81L347.88 -21.81L347.88 -21.81Q346.28 -21.81 345.20 -22.79L345.20 -22.79L345.20 -22.79Q344.13 -23.77 344.13 -25.84L344.13 -25.84L344.13 -25.84Q344.13 -27.94 345.20 -28.91L345.20 -28.91L345.20 -28.91Q346.28 -29.88 347.88 -29.88L347.88 -29.88L347.88 -29.88Q349.31 -29.88 350.43 -28.91L350.43 -28.91L350.43 -28.91Q351.55 -27.94 351.55 -25.84L351.55 -25.84L351.55 -25.84Q351.55 -23.77 350.43 -22.79L350.43 -22.79L350.43 -22.79Q349.31 -21.81 347.88 -21.81Z"/></svg>