<svg xmlns="http://www.w3.org/2000/svg" viewBox="0 -45 391.09 45.00" height="100%"><path fill="currentColor" d="M40.81 -19.52L40.81 -19.52Q34.06 -17.52 24.13 -17.52L24.13 -17.52L24.13 -17.52Q17.44 -17.52 11.08 -18.56L11.08 -18.56L11.08 -18.00L11.08 -18.00Q11.08 -13.19 12.75 -10.41L12.75 -10.41L12.75 -10.41Q14.42 -7.63 17.94 -6.48L17.94 -6.48L17.94 -6.48Q21.45 -5.34 27.36 -5.34L27.36 -5.34L27.36 -5.34Q33.27 -5.34 37.38 -6.61L37.38 -6.61L37.38 -0.88L37.38 -0.88Q33.33 0.48 27.42 0.48L27.42 0.48L27.42 0.48Q19.38 0.48 14.47 -1.34L14.47 -1.34L14.47 -1.34Q9.56 -3.17 7.30 -7.13L7.30 -7.13L7.30 -7.13Q5.03 -11.08 5.03 -17.72L5.03 -17.72L5.03 -17.72Q5.03 -23.91 6.58 -29.52L6.58 -29.52L6.58 -29.52Q8.13 -35.13 11.95 -42.41L11.95 -42.41L11.95 -42.41Q17.13 -41.09 23.91 -41.09L23.91 -41.09L23.91 -41.09Q31.19 -41.09 36.70 -42.69L36.70 -42.69L36.70 -37.09L36.70 -37.09Q31.61 -35.38 23.77 -35.38L23.77 -35.38L23.77 -35.38Q19.30 -35.38 15.86 -35.86L15.86 -35.86L15.86 -35.86Q12.73 -30.38 11.67 -24.13L11.67 -24.13L11.67 -24.13Q16.91 -23.28 24.05 -23.28L24.05 -23.28L24.05 -23.28Q33.55 -23.28 40.81 -25.28L40.81 -25.28L40.81 -19.52ZM53.94 -28.86L53.94 -28.86Q53.16 -25.48 51.72 -22.33L51.72 -22.33L51.94 -22.25L51.94 -22.25Q56.53 -25.42 62.23 -25.42L62.23 -25.42L62.23 -25.42Q68.91 -25.42 72.45 -21.75L72.45 -21.75L72.45 -21.75Q75.98 -18.08 75.98 -11.89L75.98 -11.89L75.98 -11.89Q75.98 -5.34 71.66 0.00L71.66 0.00L64.52 0.00L64.52 0.00Q69.86 -5.63 69.86 -11.95L69.86 -11.95L69.86 -11.95Q69.86 -19.80 62.09 -19.80L62.09 -19.80L62.09 -19.80Q56.53 -19.80 51.38 -15.69L51.38 -15.69L45.53 -19.16L51.44 -42.69L51.44 -42.69Q56.95 -41.09 63.33 -41.09L63.33 -41.09L63.33 -41.09Q70.88 -41.09 76.55 -42.69L76.55 -42.69L76.55 -37.09L76.55 -37.09Q71.38 -35.38 63.33 -35.38L63.33 -35.38L63.33 -35.38Q59.20 -35.38 55.73 -36.00L55.73 -36.00L53.94 -28.86ZM101.72 -41.98L101.72 -41.98Q96.70 -34.48 94.75 -29.16L94.75 -29.16L94.75 -29.16Q92.80 -23.84 92.80 -18.28L92.80 -18.28L92.80 -18.28Q92.80 -11.67 96.12 -8.31L96.12 -8.31L96.12 -8.31Q99.44 -4.95 105.70 -4.95L105.70 -4.95L105.70 -4.95Q110.38 -4.95 112.82 -7.33L112.82 -7.33L112.82 -7.33Q115.27 -9.70 115.27 -13.81L115.27 -13.81L115.27 -13.81Q115.27 -15.92 114.54 -17.79L114.54 -17.79L114.54 -17.79Q113.81 -19.66 112.38 -22.19L112.38 -22.19L112.38 -22.19Q110.72 -25.28 109.90 -27.59L109.90 -27.59L109.90 -27.59Q109.08 -29.89 109.08 -32.63L109.08 -32.63L109.08 -32.63Q109.08 -37.23 111.89 -39.96L111.89 -39.96L111.89 -39.96Q114.70 -42.69 119.38 -42.69L119.38 -42.69L119.38 -42.69Q122.11 -42.69 124.15 -41.61L124.15 -41.61L124.15 -41.61Q126.19 -40.53 128.23 -38.47L128.23 -38.47L124.27 -34.06L124.27 -34.06Q122.75 -35.66 121.61 -36.30L121.61 -36.30L121.61 -36.30Q120.47 -36.95 119.16 -36.95L119.16 -36.95L119.16 -36.95Q115.27 -36.95 115.27 -32.70L115.27 -32.70L115.27 -32.70Q115.27 -30.66 115.95 -28.87L115.95 -28.87L115.95 -28.87Q116.63 -27.08 118.08 -24.33L118.08 -24.33L118.08 -24.33Q119.72 -21.17 120.55 -18.94L120.55 -18.94L120.55 -18.94Q121.38 -16.70 121.38 -13.81L121.38 -13.81L121.38 -13.81Q121.38 -9.70 119.48 -6.37L119.48 -6.37L119.48 -6.37Q117.58 -3.03 113.98 -1.04L113.98 -1.04L113.98 -1.04Q110.38 0.95 105.63 0.95L105.63 0.95L105.63 0.95Q96.98 0.95 91.90 -4.09L91.90 -4.09L91.90 -4.09Q86.81 -9.14 86.81 -18.28L86.81 -18.28L86.81 -18.28Q86.81 -24.05 88.70 -29.67L88.70 -29.67L88.70 -29.67Q90.58 -35.30 94.83 -41.98L94.83 -41.98L101.72 -41.98ZM173.13 -43.70L173.13 -43.70Q182.13 -39.66 186.63 -33.02L186.63 -33.02L186.63 -33.02Q191.13 -26.38 191.13 -17.52L191.13 -17.52L191.13 -17.52Q191.13 -8.80 186.92 -3.96L186.92 -3.96L186.92 -3.96Q182.72 0.88 175.58 0.88L175.58 0.88L175.58 0.88Q165.88 0.88 162.69 -8.44L162.69 -8.44L162.41 -8.44L162.41 -8.44Q159.23 0.88 149.61 0.88L149.61 0.88L149.61 0.88Q142.47 0.88 138.25 -3.96L138.25 -3.96L138.25 -3.96Q134.03 -8.80 134.03 -17.52L134.03 -17.52L134.03 -17.52Q134.03 -35.58 151.89 -43.70L151.89 -43.70L154.48 -38.14L154.48 -38.14Q147.08 -34.77 143.61 -29.84L143.61 -29.84L143.61 -29.84Q140.14 -24.92 140.14 -17.66L140.14 -17.66L140.14 -17.66Q140.14 -4.95 150.09 -4.95L150.09 -4.95L150.09 -4.95Q154.63 -4.95 157.11 -9.14L157.11 -9.14L157.11 -9.14Q159.59 -13.33 159.52 -23.09L159.52 -23.09L165.56 -23.09L165.56 -23.09Q165.50 -4.95 175.09 -4.95L175.09 -4.95L175.09 -4.95Q184.94 -4.95 184.94 -17.66L184.94 -17.66L184.94 -17.66Q184.94 -24.92 181.49 -29.84L181.49 -29.84L181.49 -29.84Q178.05 -34.77 170.70 -38.14L170.70 -38.14L173.13 -43.70ZM261.22 -20.08L258.05 -20.08L258.05 -20.08Q258.13 -19.23 258.13 -17.52L258.13 -17.52L258.13 -17.52Q258.13 -8.80 253.92 -3.96L253.92 -3.96L253.92 -3.96Q249.72 0.88 242.58 0.88L242.58 0.88L242.58 0.88Q232.88 0.88 229.69 -8.44L229.69 -8.44L229.41 -8.44L229.41 -8.44Q226.23 0.88 216.61 0.88L216.61 0.88L216.61 0.88Q209.47 0.88 205.25 -3.96L205.25 -3.96L205.25 -3.96Q201.03 -8.80 201.03 -17.52L201.03 -17.52L201.03 -17.52Q201.03 -19.23 201.09 -20.08L201.09 -20.08L197.94 -20.08L197.94 -25.48L202.05 -25.48L202.05 -25.48Q205.36 -37.52 218.89 -43.70L218.89 -43.70L221.48 -38.14L221.48 -38.14Q211.19 -33.41 208.38 -25.48L208.38 -25.48L250.70 -25.48L250.70 -25.48Q247.92 -33.41 237.70 -38.14L237.70 -38.14L240.13 -43.70L240.13 -43.70Q253.73 -37.52 257.14 -25.48L257.14 -25.48L261.22 -25.48L261.22 -20.08ZM207.22 -20.08L207.22 -20.08Q207.14 -19.30 207.14 -17.66L207.14 -17.66L207.14 -17.66Q207.14 -4.95 217.09 -4.95L217.09 -4.95L217.09 -4.95Q225.89 -4.95 226.45 -20.08L226.45 -20.08L207.22 -20.08ZM232.64 -20.08L232.64 -20.08Q233.30 -4.95 242.09 -4.95L242.09 -4.95L242.09 -4.95Q251.94 -4.95 251.94 -17.66L251.94 -17.66L251.94 -17.66Q251.94 -19.30 251.86 -20.08L251.86 -20.08L232.64 -20.08ZM264.44 -42.69L264.44 -42.69Q270.14 -41.09 277.70 -41.09L277.70 -41.09L277.70 -41.09Q284.17 -41.09 291.02 -42.69L291.02 -42.69L291.02 -37.16L291.02 -37.16Q279.70 -26.94 279.70 -16.20L279.70 -16.20L279.70 -16.20Q279.70 -11.53 281.18 -7.72L281.18 -7.72L281.18 -7.72Q282.66 -3.91 285.89 0.00L285.89 0.00L279.00 0.00L279.00 0.00Q273.58 -6.69 273.58 -16.20L273.58 -16.20L273.58 -16.20Q273.58 -26.19 281.95 -35.66L281.95 -35.66L281.95 -35.66Q280.13 -35.38 277.70 -35.38L277.70 -35.38L277.70 -35.38Q269.61 -35.38 264.44 -37.09L264.44 -37.09L264.44 -42.69ZM304.44 -24.13L304.44 -24.13Q304.94 -29.47 307.27 -33.84L307.27 -33.84L307.27 -33.84Q309.61 -38.22 313.21 -40.75L313.21 -40.75L313.21 -40.75Q316.81 -43.28 321.00 -43.28L321.00 -43.28L321.00 -43.28Q325.53 -43.28 329.38 -40.29L329.38 -40.29L329.38 -40.29Q333.23 -37.30 335.47 -32.22L335.47 -32.22L335.47 -32.22Q337.70 -27.14 337.70 -21.17L337.70 -21.17L337.70 -21.17Q337.70 -15.19 335.47 -10.11L335.47 -10.11L335.47 -10.11Q333.23 -5.03 329.38 -2.01L329.38 -2.01L329.38 -2.01Q325.53 1.02 321.00 1.02L321.00 1.02L321.00 1.02Q316.81 1.02 313.21 -1.55L313.21 -1.55L313.21 -1.55Q309.61 -4.11 307.27 -8.54L307.27 -8.54L307.27 -8.54Q304.94 -12.97 304.44 -18.28L304.44 -18.28L295.66 -18.28L295.66 -24.13L304.44 -24.13ZM321.00 -4.89L321.00 -4.89Q323.75 -4.89 326.23 -7.13L326.23 -7.13L326.23 -7.13Q328.70 -9.36 330.18 -13.13L330.18 -13.13L330.18 -13.13Q331.66 -16.91 331.66 -21.17L331.66 -21.17L331.66 -21.17Q331.66 -25.42 330.18 -29.20L330.18 -29.20L330.18 -29.20Q328.70 -32.98 326.23 -35.21L326.23 -35.21L326.23 -35.21Q323.75 -37.44 321.00 -37.44L321.00 -37.44L321.00 -37.44Q318.27 -37.44 315.78 -35.21L315.78 -35.21L315.78 -35.21Q313.30 -32.98 311.82 -29.20L311.82 -29.20L311.82 -29.20Q310.34 -25.42 310.34 -21.17L310.34 -21.17L310.34 -21.17Q310.34 -16.91 311.82 -13.13L311.82 -13.13L311.82 -13.13Q313.30 -9.36 315.78 -7.13L315.78 -7.13L315.78 -7.13Q318.27 -4.89 321.00 -4.89L321.00 -4.89ZM387.86 -36.00L387.86 -36.00Q383.47 -37.80 379.14 -37.80L379.14 -37.80L379.14 -37.80Q373.09 -37.80 373.09 -32.91L373.09 -32.91L373.09 -32.91Q373.09 -29.67 377.05 -23.29L377.05 -23.29L377.05 -23.29Q381.00 -16.91 391.09 -5.09L391.09 -5.09L386.98 1.30L386.98 1.30Q380.86 -0.50 376.63 -1.15L376.63 -1.15L376.63 -1.15Q372.39 -1.80 368.06 -1.80L368.06 -1.80L368.06 -1.80Q363.75 -1.80 359.46 -1.15L359.46 -1.15L359.46 -1.15Q355.17 -0.50 349.05 1.30L349.05 1.30L345.00 -5.09L345.00 -5.09Q355.03 -16.91 358.98 -23.29L358.98 -23.29L358.98 -23.29Q362.94 -29.67 362.94 -32.91L362.94 -32.91L362.94 -32.91Q362.94 -37.80 356.89 -37.80L356.89 -37.80L356.89 -37.80Q352.42 -37.80 348.28 -35.94L348.28 -35.94L348.28 -42.05L348.28 -42.05Q352.56 -43.63 357.09 -43.63L357.09 -43.63L357.09 -43.63Q361.28 -43.63 364.02 -41.91L364.02 -41.91L364.02 -41.91Q366.77 -40.19 367.92 -37.23L367.92 -37.23L368.14 -37.23L368.14 -37.23Q369.30 -40.19 372.02 -41.91L372.02 -41.91L372.02 -41.91Q374.75 -43.63 378.94 -43.63L378.94 -43.63L378.94 -43.63Q383.53 -43.63 387.86 -42.05L387.86 -42.05L387.86 -36.00ZM383.95 -5.34L383.95 -5.34Q370.50 -21.17 368.14 -29.33L368.14 -29.33L367.92 -29.33L367.92 -29.33Q365.53 -21.23 352.14 -5.34L352.14 -5.34L352.14 -5.03L352.14 -5.03Q360.38 -7.70 368.06 -7.70L368.06 -7.70L368.06 -7.70Q375.48 -7.70 383.95 -5.03L383.95 -5.03L383.95 -5.34Z"/></svg>