<svg xmlns="http://www.w3.org/2000/svg" viewBox="0 -87.83 724.30 87.83" height="100%"><path fill="currentColor" d="M42.27 -30.03L42.27 -30.03L42.27 -30.03Q42.27 -27.14 40.93 -24.05L40.93 -24.05L40.93 -24.05Q39.59 -20.95 36.28 -18.64L36.28 -18.64L36.28 -18.64Q39.53 -16.70 40.75 -14.26L40.75 -14.26L40.75 -14.26Q41.97 -11.81 41.97 -9.44L41.97 -9.44L41.97 -9.44Q41.97 -6.48 40.46 -3.93L40.46 -3.93L40.46 -3.93Q38.95 -1.38 35.68 0.21L35.68 0.21L35.68 0.21Q32.41 1.80 27.14 1.80L27.14 1.80L27.14 1.80Q20.88 1.80 17.53 -0.29L17.53 -0.29L17.53 -0.29Q14.19 -2.38 14.19 -5.91L14.19 -5.91L14.19 -5.91Q14.19 -8.72 16.34 -10.52L16.34 -10.52L16.34 -10.52Q18.50 -12.31 21.81 -12.31L21.81 -12.31L21.81 -12.31Q26.06 -12.31 28.30 -9.76L28.30 -9.76L28.30 -9.76Q30.53 -7.20 30.75 -4.11L30.75 -4.11L30.75 -4.11Q33.63 -5.69 33.63 -9.22L33.63 -9.22L33.63 -9.22Q33.63 -11.66 31.93 -13.57L31.93 -13.57L31.93 -13.57Q30.23 -15.48 27.08 -16.63L27.08 -16.63L27.08 -20.88L27.08 -20.88Q29.73 -22.03 30.78 -24.27L30.78 -24.27L30.78 -24.27Q31.83 -26.50 31.83 -28.73L31.83 -28.73L31.83 -28.73Q31.83 -32.83 29.13 -34.99L29.13 -34.99L29.13 -34.99Q26.42 -37.16 22.25 -37.16L22.25 -37.16L22.25 -37.16Q17.56 -37.16 14.98 -34.70L14.98 -34.70L14.98 -34.70Q12.39 -32.25 12.39 -28.02L12.39 -28.02L12.39 -28.02Q12.39 -27.50 12.39 -27.00L12.39 -27.00L12.39 -27.00Q14.61 -28.73 17.50 -28.73L17.50 -28.73L17.50 -28.73Q20.38 -28.73 22.21 -27.04L22.21 -27.04L22.21 -27.04Q24.05 -25.34 24.05 -22.47L24.05 -22.47L24.05 -22.47Q24.05 -19.52 21.96 -17.68L21.96 -17.68L21.96 -17.68Q19.88 -15.84 16.27 -15.84L16.27 -15.84L16.27 -15.84Q12.75 -15.84 9.91 -17.50L9.91 -17.50L9.91 -17.50Q7.06 -19.16 5.37 -22.14L5.37 -22.14L5.37 -22.14Q3.67 -25.13 3.67 -29.23L3.67 -29.23L3.67 -29.23Q3.67 -36.72 8.82 -41.04L8.82 -41.04L8.82 -41.04Q13.97 -45.36 22.75 -45.36L22.75 -45.36L22.75 -45.36Q28.58 -45.36 32.98 -43.48L32.98 -43.48L32.98 -43.48Q37.38 -41.61 39.82 -38.20L39.82 -38.20L39.82 -38.20Q42.27 -34.78 42.27 -30.03ZM17.06 -24.63L17.06 -24.63L17.06 -24.63Q14.83 -24.63 13.61 -22.25L13.61 -22.25L13.61 -22.25Q14.83 -20.16 17.06 -20.16L17.06 -20.16L17.06 -20.16Q18.36 -20.16 18.90 -20.84L18.90 -20.84L18.90 -20.84Q19.44 -21.53 19.44 -22.47L19.44 -22.47L19.44 -22.47Q19.44 -23.61 18.68 -24.12L18.68 -24.12L18.68 -24.12Q17.92 -24.63 17.06 -24.63ZM19.73 -5.77L19.73 -5.77L19.73 -5.77Q19.73 -4.61 21.13 -3.85L21.13 -3.85L21.13 -3.85Q22.53 -3.09 25.92 -3.09L25.92 -3.09L25.92 -3.09Q25.92 -3.39 25.92 -3.67L25.92 -3.67L25.92 -3.67Q25.92 -5.55 24.95 -6.63L24.95 -6.63L24.95 -6.63Q23.97 -7.70 22.25 -7.70L22.25 -7.70L22.25 -7.70Q19.73 -7.70 19.73 -5.77ZM87.47 -31.25L87.47 -31.25L87.47 -31.25Q87.47 -28.08 86.28 -25.34L86.28 -25.34L86.28 -25.34Q85.09 -22.61 82.36 -19.66L82.36 -19.66L74.58 -25.13L74.58 -25.13Q77.31 -27.86 77.31 -31.25L77.31 -31.25L77.31 -31.25Q77.31 -34.13 75.52 -35.64L75.52 -35.64L75.52 -35.64Q73.72 -37.16 70.97 -37.16L70.97 -37.16L70.97 -37.16Q68.03 -37.16 66.41 -35.64L66.41 -35.64L66.41 -35.64Q64.78 -34.13 64.78 -31.61L64.78 -31.61L64.78 -31.61Q64.78 -29.81 65.21 -27.76L65.21 -27.76L65.21 -27.76Q65.64 -25.70 65.64 -23.41L65.64 -23.41L65.64 -23.41Q65.64 -18.72 61.14 -15.41L61.14 -15.41L61.14 -15.41Q56.64 -12.09 48.73 -10.16L48.73 -10.16L46.86 -13.31L46.86 -13.31Q47.08 -14.11 47.15 -14.98L47.15 -14.98L47.15 -14.98Q47.22 -15.84 47.22 -16.70L47.22 -16.70L47.22 -16.70Q47.22 -19.94 45.34 -22.10L45.34 -22.10L45.34 -22.10Q43.47 -24.27 40.88 -24.41L40.88 -24.41L40.30 -33.27L40.30 -33.27Q44.48 -32.77 47.36 -30.64L47.36 -30.64L47.36 -30.64Q50.23 -28.52 51.75 -25.41L51.75 -25.41L51.75 -25.41Q53.27 -22.31 53.34 -18.86L53.34 -18.86L53.34 -18.86Q54.84 -19.88 55.46 -20.99L55.46 -20.99L55.46 -20.99Q56.08 -22.11 56.08 -23.61L56.08 -23.61L56.08 -23.61Q56.08 -25.34 55.46 -27.83L55.46 -27.83L55.46 -27.83Q54.84 -30.31 54.84 -32.69L54.84 -32.69L54.84 -32.69Q54.84 -38.38 59.16 -41.87L59.16 -41.87L59.16 -41.87Q63.48 -45.36 70.97 -45.36L70.97 -45.36L70.97 -45.36Q75.94 -45.36 79.65 -43.59L79.65 -43.59L79.65 -43.59Q83.36 -41.83 85.41 -38.63L85.41 -38.63L85.41 -38.63Q87.47 -35.42 87.47 -31.25ZM155.23 -25.92L155.23 -25.92L155.23 -25.92Q155.23 -17.36 150.91 -10.23L150.91 -10.23L150.91 -10.23Q146.59 -3.09 137.73 2.23L137.73 2.23L137.73 2.23Q132.63 5.33 130.00 7.16L130.00 7.16L130.00 7.16Q127.38 9.00 126.44 10.30L126.44 10.30L126.44 10.30Q125.50 11.59 125.50 12.95L125.50 12.95L125.50 12.95Q125.50 14.11 126.26 14.94L126.26 14.94L126.26 14.94Q127.02 15.77 128.16 15.77L128.16 15.77L128.16 15.77Q129.31 15.77 130.39 14.76L130.39 14.76L130.39 14.76Q131.47 13.75 132.73 12.27L132.73 12.27L132.73 12.27Q133.98 10.80 135.50 9.36L135.50 9.36L135.50 9.36Q137.02 7.92 138.99 6.91L138.99 6.91L138.99 6.91Q140.97 5.91 143.50 5.91L143.50 5.91L143.50 5.91Q147.45 5.91 150.01 8.39L150.01 8.39L150.01 8.39Q152.56 10.88 152.56 14.33L152.56 14.33L152.56 14.33Q152.56 15.70 152.02 17.64L152.02 17.64L152.02 17.64Q151.48 19.58 150.34 21.23L150.34 21.23L143.14 18.08L143.14 18.08Q144.00 16.84 144.00 15.63L144.00 15.63L144.00 15.63Q144.00 13.69 141.91 13.69L141.91 13.69L141.91 13.69Q140.77 13.69 139.79 14.70L139.79 14.70L139.79 14.70Q138.81 15.70 137.70 17.17L137.70 17.17L137.70 17.17Q136.58 18.64 135.18 20.12L135.18 20.12L135.18 20.12Q133.78 21.59 131.80 22.60L131.80 22.60L131.80 22.60Q129.81 23.61 127.02 23.61L127.02 23.61L127.02 23.61Q124.27 23.61 121.89 22.39L121.89 22.39L121.89 22.39Q119.52 21.17 118.08 19.01L118.08 19.01L118.08 19.01Q116.64 16.84 116.64 13.97L116.64 13.97L116.64 13.97Q116.64 12.17 117.14 10.37L117.14 10.37L117.14 10.37Q117.64 8.56 119.09 6.55L119.09 6.55L119.09 6.55Q120.53 4.53 123.48 2.16L123.48 2.16L123.48 2.16Q126.44 -0.22 131.25 -3.09L131.25 -3.09L131.25 -3.09Q136.52 -6.19 139.47 -9.79L139.47 -9.79L139.47 -9.79Q142.42 -13.39 143.64 -17.42L143.64 -17.42L143.64 -17.42Q144.86 -21.45 144.86 -25.92L144.86 -25.92L144.86 -25.92Q144.86 -30.95 142.70 -33.77L142.70 -33.77L142.70 -33.77Q140.55 -36.58 137.16 -36.58L137.16 -36.58L137.16 -36.58Q135.28 -36.58 133.95 -35.71L133.95 -35.71L133.95 -35.71Q132.63 -34.84 131.40 -33.70L131.40 -33.70L131.40 -33.70Q130.17 -32.55 128.73 -31.68L128.73 -31.68L128.73 -31.68Q127.30 -30.81 125.14 -30.81L125.14 -30.81L125.14 -30.81Q122.97 -30.81 121.50 -31.68L121.50 -31.68L121.50 -31.68Q120.03 -32.55 118.80 -33.70L118.80 -33.70L118.80 -33.70Q117.58 -34.84 116.24 -35.71L116.24 -35.71L116.24 -35.71Q114.91 -36.58 113.05 -36.58L113.05 -36.58L113.05 -36.58Q109.80 -36.58 107.64 -33.05L107.64 -33.05L107.64 -33.05Q105.48 -29.52 105.48 -22.31L105.48 -22.31L105.48 -22.31Q105.48 -16.78 106.34 -12.81L106.34 -12.81L106.34 -12.81Q109.38 -16.06 113.91 -16.06L113.91 -16.06L113.91 -16.06Q117.94 -16.06 120.56 -13.76L120.56 -13.76L120.56 -13.76Q123.19 -11.45 123.19 -7.56L123.19 -7.56L123.19 -7.56Q123.19 -3.75 120.52 -1.30L120.52 -1.30L120.52 -1.30Q117.86 1.16 113.19 1.16L113.19 1.16L113.19 1.16Q107.56 1.16 103.50 -1.84L103.50 -1.84L103.50 -1.84Q99.44 -4.83 97.27 -10.34L97.27 -10.34L97.27 -10.34Q95.11 -15.84 95.11 -23.47L95.11 -23.47L95.11 -23.47Q95.11 -30.23 97.09 -35.13L97.09 -35.13L97.09 -35.13Q99.08 -40.03 102.60 -42.70L102.60 -42.70L102.60 -42.70Q106.13 -45.36 110.73 -45.36L110.73 -45.36L110.73 -45.36Q113.97 -45.36 116.02 -44.49L116.02 -44.49L116.02 -44.49Q118.08 -43.63 119.52 -42.48L119.52 -42.48L119.52 -42.48Q120.95 -41.33 122.25 -40.46L122.25 -40.46L122.25 -40.46Q123.55 -39.59 125.14 -39.59L125.14 -39.59L125.14 -39.59Q126.72 -39.59 127.98 -40.46L127.98 -40.46L127.98 -40.46Q129.23 -41.33 130.68 -42.48L130.68 -42.48L130.68 -42.48Q132.13 -43.63 134.17 -44.49L134.17 -44.49L134.17 -44.49Q136.22 -45.36 139.47 -45.36L139.47 -45.36L139.47 -45.36Q144.14 -45.36 147.70 -42.98L147.70 -42.98L147.70 -42.98Q151.27 -40.61 153.25 -36.22L153.25 -36.22L153.25 -36.22Q155.23 -31.83 155.23 -25.92ZM113.77 -10.94L113.77 -10.94L113.77 -10.94Q111.89 -10.94 110.59 -9.86L110.59 -9.86L110.59 -9.86Q109.30 -8.78 108.64 -7.27L108.64 -7.27L108.64 -7.27Q110.66 -4.31 113.91 -4.31L113.91 -4.31L113.91 -4.31Q115.56 -4.31 116.53 -5.22L116.53 -5.22L116.53 -5.22Q117.50 -6.13 117.50 -7.56L117.50 -7.56L117.50 -7.56Q117.50 -9.44 116.35 -10.19L116.35 -10.19L116.35 -10.19Q115.20 -10.94 113.77 -10.94ZM203.06 -29.81L203.06 -29.81L203.06 -29.81Q203.06 -25.06 201.05 -22.11L201.05 -22.11L201.05 -22.11Q199.03 -19.16 195.72 -17.28L195.72 -17.28L195.72 -17.28Q192.41 -15.41 188.52 -13.89L188.52 -13.89L188.52 -13.89Q183.69 -12.03 181.67 -10.88L181.67 -10.88L181.67 -10.88Q179.66 -9.72 179.66 -8.14L179.66 -8.14L179.66 -8.14Q179.66 -5.61 184.41 -5.61L184.41 -5.61L184.41 -5.61Q187.08 -5.61 187.91 -6.80L187.91 -6.80L187.91 -6.80Q188.73 -7.98 188.73 -9.94L188.73 -9.94L198.23 -9.94L198.23 -9.94Q198.23 -4.69 194.56 -1.48L194.56 -1.48L194.56 -1.48Q190.89 1.73 184.13 1.73L184.13 1.73L184.13 1.73Q177.72 1.73 173.61 -0.54L173.61 -0.54L173.61 -0.54Q169.50 -2.81 169.50 -7.70L169.50 -7.70L169.50 -7.70Q169.50 -10.80 171.02 -12.81L171.02 -12.81L171.02 -12.81Q172.53 -14.83 175.23 -16.27L175.23 -16.27L175.23 -16.27Q177.92 -17.72 181.39 -19.16L181.39 -19.16L181.39 -19.16Q184.70 -20.52 187.26 -21.85L187.26 -21.85L187.26 -21.85Q189.81 -23.19 191.25 -24.98L191.25 -24.98L191.25 -24.98Q192.69 -26.78 192.69 -29.45L192.69 -29.45L192.69 -29.45Q192.69 -33.13 190.20 -35.17L190.20 -35.17L190.20 -35.17Q187.72 -37.22 182.97 -37.22L182.97 -37.22L182.97 -37.22Q177.86 -37.22 175.34 -35.13L175.34 -35.13L175.34 -35.13Q172.81 -33.05 172.81 -29.30L172.81 -29.30L172.81 -29.30Q172.81 -27.94 173.32 -26.24L173.32 -26.24L173.32 -26.24Q173.83 -24.55 174.61 -23.05L174.61 -23.05L166.34 -19.08L166.34 -19.08Q164.75 -21.53 163.89 -24.23L163.89 -24.23L163.89 -24.23Q163.03 -26.92 163.03 -29.02L163.03 -29.02L163.03 -29.02Q163.03 -33.98 165.55 -37.66L165.55 -37.66L165.55 -37.66Q168.06 -41.33 172.56 -43.34L172.56 -43.34L172.56 -43.34Q177.06 -45.36 183.05 -45.36L183.05 -45.36L183.05 -45.36Q189.09 -45.36 193.59 -43.38L193.59 -43.38L193.59 -43.38Q198.09 -41.41 200.58 -37.91L200.58 -37.91L200.58 -37.91Q203.06 -34.42 203.06 -29.81ZM278.94 -50.97L278.94 -50.97L278.94 -50.97Q278.94 -48.17 277.68 -45.54L277.68 -45.54L277.68 -45.54Q276.42 -42.91 273.89 -41.11L273.89 -41.11L267.27 -46.88L267.27 -46.88Q267.98 -47.59 268.49 -48.56L268.49 -48.56L268.49 -48.56Q269.00 -49.53 269.00 -50.83L269.00 -50.83L269.00 -50.83Q269.00 -53.36 267.23 -54.73L267.23 -54.73L267.23 -54.73Q265.47 -56.09 262.81 -56.09L262.81 -56.09L262.81 -56.09Q259.92 -56.09 258.27 -54.62L258.27 -54.62L258.27 -54.62Q256.61 -53.14 256.61 -50.69L256.61 -50.69L256.61 -50.69Q256.61 -48.45 257.95 -46.41L257.95 -46.41L257.95 -46.41Q259.28 -44.36 261.23 -42.30L261.23 -42.30L261.23 -42.30Q263.17 -40.25 265.15 -37.91L265.15 -37.91L265.15 -37.91Q267.13 -35.56 268.46 -32.80L268.46 -32.80L268.46 -32.80Q269.80 -30.03 269.80 -26.56L269.80 -26.56L269.80 -26.56Q269.80 -21.89 267.02 -18.76L267.02 -18.76L267.02 -18.76Q264.25 -15.63 260.00 -14.47L260.00 -14.47L260.00 -14.47Q258.92 -12.81 257.16 -11.70L257.16 -11.70L257.16 -11.70Q255.39 -10.58 253.16 -9.80L253.16 -9.80L253.16 -9.80Q249.78 -8.64 248.88 -7.95L248.88 -7.95L248.88 -7.95Q247.97 -7.27 247.97 -6.41L247.97 -6.41L247.97 -6.41Q247.97 -5.25 250.36 -3.67L250.36 -3.67L248.13 1.52L248.13 1.52Q247.19 1.66 245.89 1.70L245.89 1.70L245.89 1.70Q244.59 1.73 243.16 1.73L243.16 1.73L243.16 1.73Q237.97 1.73 233.94 -0.25L233.94 -0.25L233.94 -0.25Q229.91 -2.23 227.64 -5.62L227.64 -5.62L227.64 -5.62Q225.38 -9.00 225.38 -13.25L225.38 -13.25L225.38 -13.25Q225.38 -16.13 226.38 -18.47L226.38 -18.47L226.38 -18.47Q227.39 -20.81 228.72 -22.83L228.72 -22.83L228.72 -22.83Q230.05 -24.84 231.05 -26.82L231.05 -26.82L231.05 -26.82Q232.06 -28.80 232.06 -31.03L232.06 -31.03L232.06 -31.03Q232.06 -33.70 230.41 -35.46L230.41 -35.46L230.41 -35.46Q228.75 -37.22 225.88 -37.22L225.88 -37.22L225.88 -37.22Q222.98 -37.22 221.23 -35.53L221.23 -35.53L221.23 -35.53Q219.47 -33.84 219.47 -31.11L219.47 -31.11L219.47 -31.11Q219.47 -29.30 220.22 -27.72L220.22 -27.72L220.22 -27.72Q220.97 -26.14 221.98 -25.20L221.98 -25.20L214.42 -19.44L214.42 -19.44Q211.77 -21.53 210.54 -24.66L210.54 -24.66L210.54 -24.66Q209.31 -27.80 209.31 -30.75L209.31 -30.75L209.31 -30.75Q209.31 -35.14 211.44 -38.41L211.44 -38.41L211.44 -38.41Q213.56 -41.69 217.34 -43.52L217.34 -43.52L217.34 -43.52Q221.13 -45.36 226.16 -45.36L226.16 -45.36L226.16 -45.36Q230.91 -45.36 234.58 -43.66L234.58 -43.66L234.58 -43.66Q238.25 -41.97 240.34 -38.95L240.34 -38.95L240.34 -38.95Q242.44 -35.92 242.44 -31.89L242.44 -31.89L242.44 -31.89Q242.44 -28.80 241.43 -26.38L241.43 -26.38L241.43 -26.38Q240.42 -23.97 239.09 -21.88L239.09 -21.88L239.09 -21.88Q237.75 -19.80 236.74 -17.67L236.74 -17.67L236.74 -17.67Q235.73 -15.55 235.73 -13.11L235.73 -13.11L235.73 -13.11Q235.73 -10.88 236.89 -8.97L236.89 -8.97L236.89 -8.97Q238.05 -7.06 240.20 -6.19L240.20 -6.19L240.20 -6.19Q240.34 -9.22 242.32 -10.88L242.32 -10.88L242.32 -10.88Q244.30 -12.53 248.27 -13.97L248.27 -13.97L248.27 -13.97Q249.20 -14.33 249.92 -14.61L249.92 -14.61L249.92 -14.61Q246.83 -15.48 245.17 -17.35L245.17 -17.35L245.17 -17.35Q243.52 -19.22 243.52 -21.53L243.52 -21.53L243.52 -21.53Q243.52 -24.34 245.71 -26.28L245.71 -26.28L245.71 -26.28Q247.91 -28.22 251.86 -28.22L251.86 -28.22L251.86 -28.22Q255.17 -28.22 257.63 -26.67L257.63 -26.67L257.63 -26.67Q260.08 -25.13 261.02 -22.61L261.02 -22.61L261.02 -22.61Q261.38 -23.77 261.38 -25.13L261.38 -25.13L261.38 -25.13Q261.38 -27.86 259.86 -30.23L259.86 -30.23L259.86 -30.23Q258.34 -32.61 256.11 -34.91L256.11 -34.91L256.11 -34.91Q253.88 -37.22 251.65 -39.67L251.65 -39.67L251.65 -39.67Q249.42 -42.13 247.91 -44.93L247.91 -44.93L247.91 -44.93Q246.39 -47.73 246.39 -51.27L246.39 -51.27L246.39 -51.27Q246.39 -55.08 248.38 -57.99L248.38 -57.99L248.38 -57.99Q250.36 -60.91 253.95 -62.56L253.95 -62.56L253.95 -62.56Q257.55 -64.22 262.52 -64.22L262.52 -64.22L262.52 -64.22Q267.48 -64.22 271.20 -62.46L271.20 -62.46L271.20 -62.46Q274.91 -60.70 276.92 -57.71L276.92 -57.71L276.92 -57.71Q278.94 -54.72 278.94 -50.97ZM248.91 -21.53L248.91 -21.53L248.91 -21.53Q248.91 -20.30 249.99 -19.51L249.99 -19.51L249.99 -19.51Q251.08 -18.72 253.88 -18.72L253.88 -18.72L253.88 -18.72Q254.39 -18.72 254.81 -18.72L254.81 -18.72L254.81 -18.72Q255.03 -19.44 255.03 -20.30L255.03 -20.30L255.03 -20.30Q255.03 -21.45 254.20 -22.53L254.20 -22.53L254.20 -22.53Q253.38 -23.61 251.58 -23.61L251.58 -23.61L251.58 -23.61Q250.20 -23.61 249.55 -23.04L249.55 -23.04L249.55 -23.04Q248.91 -22.47 248.91 -21.53ZM341.23 -25.98L341.23 -25.98L341.23 -25.98Q341.23 -18.22 338.82 -12.46L338.82 -12.46L338.82 -12.46Q336.41 -6.70 331.41 -2.34L331.41 -2.34L331.41 -2.34Q326.41 2.02 318.55 5.55L318.55 5.55L318.55 5.55Q314.59 7.34 312.61 8.71L312.61 8.71L312.61 8.71Q310.63 10.08 309.95 11.20L309.95 11.20L309.95 11.20Q309.27 12.31 309.27 13.31L309.27 13.31L309.27 13.31Q309.27 16.27 313.94 16.27L313.94 16.27L313.94 16.27Q316.61 16.27 317.44 15.08L317.44 15.08L317.44 15.08Q318.27 13.89 318.27 11.95L318.27 11.95L327.84 11.95L327.84 11.95Q327.84 17.20 324.17 20.41L324.17 20.41L324.17 20.41Q320.50 23.61 313.73 23.61L313.73 23.61L313.73 23.61Q307.31 23.61 303.21 21.16L303.21 21.16L303.21 21.16Q299.11 18.72 299.11 13.53L299.11 13.53L299.11 13.53Q299.11 9.08 302.53 5.77L302.53 5.77L302.53 5.77Q305.95 2.45 311.42 0.00L311.42 0.00L311.42 0.00Q318.48 -3.23 322.77 -6.73L322.77 -6.73L322.77 -6.73Q327.05 -10.22 328.95 -14.80L328.95 -14.80L328.95 -14.80Q330.86 -19.38 330.86 -25.92L330.86 -25.92L330.86 -25.92Q330.86 -30.95 328.70 -33.77L328.70 -33.77L328.70 -33.77Q326.55 -36.58 323.16 -36.58L323.16 -36.58L323.16 -36.58Q321.28 -36.58 319.95 -35.71L319.95 -35.71L319.95 -35.71Q318.63 -34.84 317.40 -33.70L317.40 -33.70L317.40 -33.70Q316.17 -32.55 314.73 -31.68L314.73 -31.68L314.73 -31.68Q313.30 -30.81 311.14 -30.81L311.14 -30.81L311.14 -30.81Q308.97 -30.81 307.50 -31.68L307.50 -31.68L307.50 -31.68Q306.03 -32.55 304.80 -33.70L304.80 -33.70L304.80 -33.70Q303.58 -34.84 302.24 -35.71L302.24 -35.71L302.24 -35.71Q300.91 -36.58 299.05 -36.58L299.05 -36.58L299.05 -36.58Q295.80 -36.58 293.64 -33.12L293.64 -33.12L293.64 -33.12Q291.48 -29.66 291.48 -22.69L291.48 -22.69L291.48 -22.69Q291.48 -18.08 292.27 -14.55L292.27 -14.55L292.27 -14.55Q293.72 -16.13 295.66 -16.99L295.66 -16.99L295.66 -16.99Q297.59 -17.86 299.91 -17.86L299.91 -17.86L299.91 -17.86Q303.94 -17.86 306.56 -15.55L306.56 -15.55L306.56 -15.55Q309.19 -13.25 309.19 -9.28L309.19 -9.28L309.19 -9.28Q309.19 -5.47 306.52 -3.05L306.52 -3.05L306.52 -3.05Q303.86 -0.64 299.19 -0.64L299.19 -0.64L299.19 -0.64Q290.69 -0.64 285.90 -6.84L285.90 -6.84L285.90 -6.84Q281.11 -13.03 281.11 -23.83L281.11 -23.83L281.11 -23.83Q281.11 -30.53 283.09 -35.35L283.09 -35.35L283.09 -35.35Q285.08 -40.17 288.60 -42.77L288.60 -42.77L288.60 -42.77Q292.13 -45.36 296.73 -45.36L296.73 -45.36L296.73 -45.36Q299.97 -45.36 302.02 -44.49L302.02 -44.49L302.02 -44.49Q304.08 -43.63 305.52 -42.48L305.52 -42.48L305.52 -42.48Q306.95 -41.33 308.25 -40.46L308.25 -40.46L308.25 -40.46Q309.55 -39.59 311.14 -39.59L311.14 -39.59L311.14 -39.59Q312.72 -39.59 313.98 -40.46L313.98 -40.46L313.98 -40.46Q315.23 -41.33 316.68 -42.48L316.68 -42.48L316.68 -42.48Q318.13 -43.63 320.17 -44.49L320.17 -44.49L320.17 -44.49Q322.22 -45.36 325.47 -45.36L325.47 -45.36L325.47 -45.36Q330.14 -45.36 333.70 -42.98L333.70 -42.98L333.70 -42.98Q337.27 -40.61 339.25 -36.25L339.25 -36.25L339.25 -36.25Q341.23 -31.89 341.23 -25.98ZM299.77 -12.75L299.77 -12.75L299.77 -12.75Q297.89 -12.75 296.59 -11.66L296.59 -11.66L296.59 -11.66Q295.30 -10.58 294.58 -9.00L294.58 -9.00L294.58 -9.00Q295.58 -7.63 296.91 -6.88L296.91 -6.88L296.91 -6.88Q298.25 -6.13 299.91 -6.13L299.91 -6.13L299.91 -6.13Q301.56 -6.13 302.53 -7.02L302.53 -7.02L302.53 -7.02Q303.50 -7.92 303.50 -9.36L303.50 -9.36L303.50 -9.36Q303.50 -11.23 302.35 -11.99L302.35 -11.99L302.35 -11.99Q301.20 -12.75 299.77 -12.75ZM388.27 -30.03L388.27 -30.03L388.27 -30.03Q388.27 -27.14 386.93 -24.05L386.93 -24.05L386.93 -24.05Q385.59 -20.95 382.28 -18.64L382.28 -18.64L382.28 -18.64Q385.53 -16.70 386.75 -14.26L386.75 -14.26L386.75 -14.26Q387.97 -11.81 387.97 -9.44L387.97 -9.44L387.97 -9.44Q387.97 -6.48 386.46 -3.93L386.46 -3.93L386.46 -3.93Q384.95 -1.38 381.68 0.21L381.68 0.21L381.68 0.21Q378.41 1.80 373.14 1.80L373.14 1.80L373.14 1.80Q366.88 1.80 363.53 -0.29L363.53 -0.29L363.53 -0.29Q360.19 -2.38 360.19 -5.91L360.19 -5.91L360.19 -5.91Q360.19 -8.72 362.34 -10.52L362.34 -10.52L362.34 -10.52Q364.50 -12.31 367.81 -12.31L367.81 -12.31L367.81 -12.31Q372.06 -12.31 374.30 -9.76L374.30 -9.76L374.30 -9.76Q376.53 -7.20 376.75 -4.11L376.75 -4.11L376.75 -4.11Q379.63 -5.69 379.63 -9.22L379.63 -9.22L379.63 -9.22Q379.63 -11.66 377.93 -13.57L377.93 -13.57L377.93 -13.57Q376.23 -15.48 373.08 -16.63L373.08 -16.63L373.08 -20.88L373.08 -20.88Q375.73 -22.03 376.78 -24.27L376.78 -24.27L376.78 -24.27Q377.83 -26.50 377.83 -28.73L377.83 -28.73L377.83 -28.73Q377.83 -32.83 375.13 -34.99L375.13 -34.99L375.13 -34.99Q372.42 -37.16 368.25 -37.16L368.25 -37.16L368.25 -37.16Q363.56 -37.16 360.98 -34.70L360.98 -34.70L360.98 -34.70Q358.39 -32.25 358.39 -28.02L358.39 -28.02L358.39 -28.02Q358.39 -27.50 358.39 -27.00L358.39 -27.00L358.39 -27.00Q360.61 -28.73 363.50 -28.73L363.50 -28.73L363.50 -28.73Q366.38 -28.73 368.21 -27.04L368.21 -27.04L368.21 -27.04Q370.05 -25.34 370.05 -22.47L370.05 -22.47L370.05 -22.47Q370.05 -19.52 367.96 -17.68L367.96 -17.68L367.96 -17.68Q365.88 -15.84 362.27 -15.84L362.27 -15.84L362.27 -15.84Q358.75 -15.84 355.91 -17.50L355.91 -17.50L355.91 -17.50Q353.06 -19.16 351.37 -22.14L351.37 -22.14L351.37 -22.14Q349.67 -25.13 349.67 -29.23L349.67 -29.23L349.67 -29.23Q349.67 -36.72 354.82 -41.04L354.82 -41.04L354.82 -41.04Q359.97 -45.36 368.75 -45.36L368.75 -45.36L368.75 -45.36Q374.58 -45.36 378.98 -43.48L378.98 -43.48L378.98 -43.48Q383.38 -41.61 385.82 -38.20L385.82 -38.20L385.82 -38.20Q388.27 -34.78 388.27 -30.03ZM363.06 -24.63L363.06 -24.63L363.06 -24.63Q360.83 -24.63 359.61 -22.25L359.61 -22.25L359.61 -22.25Q360.83 -20.16 363.06 -20.16L363.06 -20.16L363.06 -20.16Q364.36 -20.16 364.90 -20.84L364.90 -20.84L364.90 -20.84Q365.44 -21.53 365.44 -22.47L365.44 -22.47L365.44 -22.47Q365.44 -23.61 364.68 -24.12L364.68 -24.12L364.68 -24.12Q363.92 -24.63 363.06 -24.63ZM365.73 -5.77L365.73 -5.77L365.73 -5.77Q365.73 -4.61 367.13 -3.85L367.13 -3.85L367.13 -3.85Q368.53 -3.09 371.92 -3.09L371.92 -3.09L371.92 -3.09Q371.92 -3.39 371.92 -3.67L371.92 -3.67L371.92 -3.67Q371.92 -5.55 370.95 -6.63L370.95 -6.63L370.95 -6.63Q369.97 -7.70 368.25 -7.70L368.25 -7.70L368.25 -7.70Q365.73 -7.70 365.73 -5.77ZM455.56 -31.11L455.56 -31.11L455.56 -31.11Q455.56 -27.94 454.41 -25.20L454.41 -25.20L454.41 -25.20Q453.27 -22.47 450.53 -19.66L450.53 -19.66L442.83 -25.13L442.83 -25.13Q445.42 -27.72 445.42 -31.17L445.42 -31.17L445.42 -31.17Q445.42 -33.91 443.77 -35.53L443.77 -35.53L443.77 -35.53Q442.11 -37.16 439.30 -37.16L439.30 -37.16L439.30 -37.16Q436.27 -37.16 434.29 -34.96L434.29 -34.96L434.29 -34.96Q432.31 -32.77 432.59 -27.80L432.59 -27.80L423.75 -27.80L423.75 -27.80Q424.03 -32.69 422.20 -34.92L422.20 -34.92L422.20 -34.92Q420.36 -37.16 417.27 -37.16L417.27 -37.16L417.27 -37.16Q414.39 -37.16 412.77 -35.50L412.77 -35.50L412.77 -35.50Q411.14 -33.84 411.14 -31.25L411.14 -31.25L411.14 -31.25Q411.14 -28.80 412.26 -25.99L412.26 -25.99L412.26 -25.99Q413.38 -23.19 414.49 -20.02L414.49 -20.02L414.49 -20.02Q415.61 -16.84 415.61 -13.25L415.61 -13.25L415.61 -13.25Q415.61 -6.48 410.96 -1.88L410.96 -1.88L410.96 -1.88Q406.31 2.73 398.11 4.03L398.11 4.03L396.23 -4.53L396.23 -4.53Q400.34 -5.41 402.79 -7.71L402.79 -7.71L402.79 -7.71Q405.23 -10.02 405.23 -13.97L405.23 -13.97L405.23 -13.97Q405.23 -16.56 404.13 -19.34L404.13 -19.34L404.13 -19.34Q403.02 -22.11 401.90 -25.20L401.90 -25.20L401.90 -25.20Q400.78 -28.30 400.78 -31.83L400.78 -31.83L400.78 -31.83Q400.78 -35.72 402.65 -38.77L402.65 -38.77L402.65 -38.77Q404.52 -41.83 407.83 -43.59L407.83 -43.59L407.83 -43.59Q411.14 -45.36 415.47 -45.36L415.47 -45.36L415.47 -45.36Q419.50 -45.36 422.73 -43.85L422.73 -43.85L422.73 -43.85Q425.97 -42.34 428.14 -39.53L428.14 -39.53L428.14 -39.53Q430.16 -42.34 433.39 -43.85L433.39 -43.85L433.39 -43.85Q436.63 -45.36 440.66 -45.36L440.66 -45.36L440.66 -45.36Q445.13 -45.36 448.48 -43.56L448.48 -43.56L448.48 -43.56Q451.83 -41.77 453.70 -38.56L453.70 -38.56L453.70 -38.56Q455.56 -35.36 455.56 -31.11ZM554.34 -31.11L554.34 -31.11L554.34 -31.11Q554.34 -27.94 553.23 -25.20L553.23 -25.20L553.23 -25.20Q552.11 -22.47 549.38 -19.66L549.38 -19.66L541.59 -25.13L541.59 -25.13Q544.19 -27.64 544.19 -31.17L544.19 -31.17L544.19 -31.17Q544.19 -33.91 542.57 -35.53L542.57 -35.53L542.57 -35.53Q540.95 -37.16 538.22 -37.16L538.22 -37.16L538.22 -37.16Q535.34 -37.16 533.83 -35.35L533.83 -35.35L533.83 -35.35Q532.31 -33.55 531.66 -29.95L531.66 -29.95L531.66 -29.95Q530.80 -25.06 528.31 -22.72L528.31 -22.72L528.31 -22.72Q525.83 -20.38 520.58 -19.16L520.58 -19.16L520.58 -19.16Q519.78 -9.36 515.39 -3.81L515.39 -3.81L515.39 -3.81Q511.00 1.73 504.30 1.73L504.30 1.73L504.30 1.73Q499.05 1.73 495.80 -1.22L495.80 -1.22L495.80 -1.22Q492.56 -4.17 492.56 -9.44L492.56 -9.44L492.56 -9.44Q492.56 -13.47 494.84 -16.45L494.84 -16.45L494.84 -16.45Q497.11 -19.44 501.17 -21.31L501.17 -21.31L501.17 -21.31Q505.23 -23.19 510.56 -23.97L510.56 -23.97L510.56 -23.97Q510.36 -37.16 503.30 -37.16L503.30 -37.16L503.30 -37.16Q500.48 -37.16 498.44 -34.99L498.44 -34.99L498.44 -34.99Q496.39 -32.83 496.59 -27.80L496.59 -27.80L487.81 -27.80L487.81 -27.80Q488.11 -32.69 486.23 -34.92L486.23 -34.92L486.23 -34.92Q484.36 -37.16 481.27 -37.16L481.27 -37.16L481.27 -37.16Q478.39 -37.16 476.80 -35.50L476.80 -35.50L476.80 -35.50Q475.22 -33.84 475.22 -31.25L475.22 -31.25L475.22 -31.25Q475.22 -28.80 476.34 -25.99L476.34 -25.99L476.34 -25.99Q477.45 -23.19 478.57 -20.02L478.57 -20.02L478.57 -20.02Q479.69 -16.84 479.69 -13.25L479.69 -13.25L479.69 -13.25Q479.69 -6.48 475.00 -1.88L475.00 -1.88L475.00 -1.88Q470.31 2.73 462.11 4.03L462.11 4.03L460.23 -4.53L460.23 -4.53Q464.34 -5.41 466.79 -7.71L466.79 -7.71L466.79 -7.71Q469.23 -10.02 469.23 -13.97L469.23 -13.97L469.23 -13.97Q469.23 -16.56 468.13 -19.34L468.13 -19.34L468.13 -19.34Q467.02 -22.11 465.90 -25.20L465.90 -25.20L465.90 -25.20Q464.78 -28.30 464.78 -31.83L464.78 -31.83L464.78 -31.83Q464.78 -35.72 466.65 -38.77L466.65 -38.77L466.65 -38.77Q468.52 -41.83 471.83 -43.59L471.83 -43.59L471.83 -43.59Q475.14 -45.36 479.47 -45.36L479.47 -45.36L479.47 -45.36Q483.50 -45.36 486.77 -43.81L486.77 -43.81L486.77 -43.81Q490.05 -42.27 492.14 -39.45L492.14 -39.45L492.14 -39.45Q496.45 -45.36 504.59 -45.36L504.59 -45.36L504.59 -45.36Q511.50 -45.36 515.68 -40.50L515.68 -40.50L515.68 -40.50Q519.86 -35.64 520.58 -26.56L520.58 -26.56L520.58 -26.56Q521.94 -27.58 522.84 -29.38L522.84 -29.38L522.84 -29.38Q523.75 -31.17 524.31 -34.13L524.31 -34.13L524.31 -34.13Q525.55 -40.11 529.51 -42.73L529.51 -42.73L529.51 -42.73Q533.47 -45.36 539.22 -45.36L539.22 -45.36L539.22 -45.36Q543.83 -45.36 547.21 -43.56L547.21 -43.56L547.21 -43.56Q550.59 -41.77 552.47 -38.56L552.47 -38.56L552.47 -38.56Q554.34 -35.36 554.34 -31.11ZM501.64 -9.80L501.64 -9.80L501.64 -9.80Q501.64 -8.20 502.36 -7.20L502.36 -7.20L502.36 -7.20Q503.08 -6.19 504.45 -6.19L504.45 -6.19L504.45 -6.19Q506.53 -6.19 508.08 -8.92L508.08 -8.92L508.08 -8.92Q509.63 -11.66 510.28 -17.06L510.28 -17.06L510.28 -17.06Q505.09 -15.55 503.37 -13.68L503.37 -13.68L503.37 -13.68Q501.64 -11.81 501.64 -9.80ZM620.86 -31.11L620.86 -31.11L620.86 -31.11Q620.86 -27.94 619.74 -25.23L619.74 -25.23L619.74 -25.23Q618.63 -22.53 615.95 -19.52L615.95 -19.52L608.19 -24.91L608.19 -24.91Q609.48 -26.36 610.13 -27.83L610.13 -27.83L610.13 -27.83Q610.78 -29.30 610.78 -31.17L610.78 -31.17L610.78 -31.17Q610.78 -33.91 609.05 -35.53L609.05 -35.53L609.05 -35.53Q607.31 -37.16 604.52 -37.16L604.52 -37.16L604.52 -37.16Q601.34 -37.16 599.37 -34.92L599.37 -34.92L599.37 -34.92Q597.39 -32.69 597.59 -27.80L597.59 -27.80L588.81 -27.80L588.81 -27.80Q589.11 -32.55 587.16 -34.85L587.16 -34.85L587.16 -34.85Q585.22 -37.16 582.13 -37.16L582.13 -37.16L582.13 -37.16Q578.16 -37.16 575.82 -33.52L575.82 -33.52L575.82 -33.52Q573.48 -29.88 573.48 -23.25L573.48 -23.25L573.48 -23.25Q573.48 -19.08 574.13 -15.80L574.13 -15.80L574.13 -15.80Q574.78 -12.53 575.92 -10.16L575.92 -10.16L575.92 -10.16Q577.38 -12.59 579.67 -14.00L579.67 -14.00L579.67 -14.00Q581.97 -15.41 584.92 -15.41L584.92 -15.41L584.92 -15.41Q589.03 -15.41 591.66 -13.10L591.66 -13.10L591.66 -13.10Q594.28 -10.80 594.28 -6.84L594.28 -6.84L594.28 -6.84Q594.28 -3.03 591.62 -0.62L591.62 -0.62L591.62 -0.62Q588.95 1.80 584.06 1.80L584.06 1.80L584.06 1.80Q578.02 1.80 573.27 -1.19L573.27 -1.19L573.27 -1.19Q568.52 -4.17 565.81 -9.79L565.81 -9.79L565.81 -9.79Q563.11 -15.41 563.11 -23.11L563.11 -23.11L563.11 -23.11Q563.11 -29.95 565.30 -34.95L565.30 -34.95L565.30 -34.95Q567.50 -39.95 571.53 -42.66L571.53 -42.66L571.53 -42.66Q575.56 -45.36 581.11 -45.36L581.11 -45.36L581.11 -45.36Q585.08 -45.36 588.17 -43.85L588.17 -43.85L588.17 -43.85Q591.27 -42.34 593.28 -39.59L593.28 -39.59L593.28 -39.59Q595.30 -42.34 598.54 -43.85L598.54 -43.85L598.54 -43.85Q601.78 -45.36 605.88 -45.36L605.88 -45.36L605.88 -45.36Q610.34 -45.36 613.73 -43.56L613.73 -43.56L613.73 -43.56Q617.11 -41.77 618.98 -38.56L618.98 -38.56L618.98 -38.56Q620.86 -35.36 620.86 -31.11ZM584.86 -10.30L584.86 -10.30L584.86 -10.30Q582.63 -10.30 581.29 -8.89L581.29 -8.89L581.29 -8.89Q579.95 -7.48 579.39 -5.69L579.39 -5.69L579.39 -5.69Q581.83 -3.67 585.00 -3.67L585.00 -3.67L585.00 -3.67Q586.66 -3.67 587.59 -4.57L587.59 -4.57L587.59 -4.57Q588.53 -5.47 588.53 -6.91L588.53 -6.91L588.53 -6.91Q588.53 -8.78 587.38 -9.54L587.38 -9.54L587.38 -9.54Q586.22 -10.30 584.86 -10.30ZM724.30 -31.11L724.30 -31.11L724.30 -31.11Q724.30 -27.94 723.14 -25.20L723.14 -25.20L723.14 -25.20Q721.98 -22.47 719.25 -19.58L719.25 -19.58L711.48 -25.13L711.48 -25.13Q714.08 -27.64 714.08 -31.17L714.08 -31.17L714.08 -31.17Q714.08 -33.91 712.42 -35.53L712.42 -35.53L712.42 -35.53Q710.77 -37.16 707.95 -37.16L707.95 -37.16L707.95 -37.16Q705.00 -37.16 703.02 -34.96L703.02 -34.96L703.02 -34.96Q701.05 -32.77 701.33 -27.80L701.33 -27.80L692.47 -27.80L692.47 -27.80Q692.77 -32.69 690.93 -34.92L690.93 -34.92L690.93 -34.92Q689.09 -37.16 685.92 -37.16L685.92 -37.16L685.92 -37.16Q683.05 -37.16 681.42 -35.64L681.42 -35.64L681.42 -35.64Q679.80 -34.13 679.80 -31.61L679.80 -31.61L679.80 -31.61Q679.80 -30.17 680.23 -28.55L680.23 -28.55L680.23 -28.55Q680.66 -26.92 680.66 -25.06L680.66 -25.06L680.66 -25.06Q680.66 -21.95 679.40 -20.05L679.40 -20.05L679.40 -20.05Q678.14 -18.14 676.34 -16.84L676.34 -16.84L676.34 -16.84Q674.55 -15.55 672.71 -14.47L672.71 -14.47L672.71 -14.47Q670.88 -13.39 669.62 -12.06L669.62 -12.06L669.62 -12.06Q668.36 -10.73 668.36 -8.64L668.36 -8.64L668.36 -8.64Q668.36 -7.34 668.93 -6.34L668.93 -6.34L668.93 -6.34Q669.50 -5.33 670.73 -3.95L670.73 -3.95L668.36 1.52L668.36 1.52Q667.34 1.66 665.94 1.70L665.94 1.70L665.94 1.70Q664.53 1.73 662.95 1.73L662.95 1.73L662.95 1.73Q657.55 1.73 653.55 -0.25L653.55 -0.25L653.55 -0.25Q649.56 -2.23 647.37 -5.58L647.37 -5.58L647.37 -5.58Q645.17 -8.92 645.17 -13.11L645.17 -13.11L645.17 -13.11Q645.17 -15.70 645.93 -17.93L645.93 -17.93L645.93 -17.93Q646.69 -20.16 647.66 -22.28L647.66 -22.28L647.66 -22.28Q648.63 -24.41 649.38 -26.49L649.38 -26.49L649.38 -26.49Q650.14 -28.58 650.14 -30.81L650.14 -30.81L650.14 -30.81Q650.14 -33.55 648.52 -35.35L648.52 -35.35L648.52 -35.35Q646.89 -37.16 643.94 -37.16L643.94 -37.16L643.94 -37.16Q641.06 -37.16 639.30 -35.57L639.30 -35.57L639.30 -35.57Q637.53 -33.98 637.53 -31.17L637.53 -31.17L637.53 -31.17Q637.53 -29.52 638.25 -27.97L638.25 -27.97L638.25 -27.97Q638.97 -26.42 640.13 -25.27L640.13 -25.27L632.56 -19.58L632.56 -19.58Q629.77 -22.03 628.54 -25.05L628.54 -25.05L628.54 -25.05Q627.31 -28.08 627.31 -30.95L627.31 -30.95L627.31 -30.95Q627.31 -35.28 629.44 -38.52L629.44 -38.52L629.44 -38.52Q631.56 -41.77 635.34 -43.56L635.34 -43.56L635.34 -43.56Q639.13 -45.36 644.16 -45.36L644.16 -45.36L644.16 -45.36Q648.91 -45.36 652.62 -43.63L652.62 -43.63L652.62 -43.63Q656.33 -41.91 658.41 -38.73L658.41 -38.73L658.41 -38.73Q660.50 -35.56 660.50 -31.25L660.50 -31.25L660.50 -31.25Q660.50 -28.52 659.74 -26.14L659.74 -26.14L659.74 -26.14Q658.98 -23.77 658.05 -21.60L658.05 -21.60L658.05 -21.60Q657.13 -19.44 656.37 -17.39L656.37 -17.39L656.37 -17.39Q655.61 -15.34 655.61 -13.25L655.61 -13.25L655.61 -13.25Q655.61 -10.38 657.09 -8.25L657.09 -8.25L657.09 -8.25Q658.56 -6.13 660.86 -6.13L660.86 -6.13L660.86 -6.13Q660.36 -6.91 660.18 -7.77L660.18 -7.77L660.18 -7.77Q660.00 -8.64 660.00 -9.72L660.00 -9.72L660.00 -9.72Q660.00 -12.53 661.08 -14.33L661.08 -14.33L661.08 -14.33Q662.16 -16.13 663.74 -17.42L663.74 -17.42L663.74 -17.42Q665.33 -18.72 666.91 -19.88L666.91 -19.88L666.91 -19.88Q668.50 -21.03 669.58 -22.50L669.58 -22.50L669.58 -22.50Q670.66 -23.97 670.66 -26.20L670.66 -26.20L670.66 -26.20Q670.66 -27.50 670.19 -29.34L670.19 -29.34L670.19 -29.34Q669.72 -31.17 669.72 -33.19L669.72 -33.19L669.72 -33.19Q669.72 -38.52 673.61 -41.94L673.61 -41.94L673.61 -41.94Q677.50 -45.36 684.19 -45.36L684.19 -45.36L684.19 -45.36Q688.22 -45.36 691.50 -43.81L691.50 -43.81L691.50 -43.81Q694.78 -42.27 696.86 -39.45L696.86 -39.45L696.86 -39.45Q698.88 -42.27 702.08 -43.81L702.08 -43.81L702.08 -43.81Q705.28 -45.36 709.31 -45.36L709.31 -45.36L709.31 -45.36Q713.78 -45.36 717.16 -43.56L717.16 -43.56L717.16 -43.56Q720.55 -41.77 722.42 -38.56L722.42 -38.56L722.42 -38.56Q724.30 -35.36 724.30 -31.11Z"/></svg>