<svg xmlns="http://www.w3.org/2000/svg" viewBox="0 -81.73 239.47 81.73" height="100%"><path fill="currentColor" d="M16.11 -30.66L33.50 -30.66L33.50 -30.66Q38.81 -30.66 43.63 -30.81L43.63 -30.81L43.63 -30.81Q48.45 -30.97 49.47 -31.22L49.47 -31.22L49.47 2.17L44.55 2.17L44.55 -25.67L33.97 -25.39L33.97 -25.39Q34.14 -24.36 34.27 -23.08L34.27 -23.08L34.27 -23.08Q34.39 -21.80 34.39 -20.89L34.39 -20.89L34.39 -20.89Q34.39 -9.22 30.63 -4.58L30.63 -4.58L30.63 -4.58Q26.86 0.06 19.23 0.06L19.23 0.06L19.23 0.06Q12.77 0.06 8.84 -4.47L8.84 -4.47L8.84 -4.47Q4.92 -9.00 4.92 -16.25L4.92 -16.25L4.92 -16.25Q4.92 -22.08 8.00 -26.37L8.00 -26.37L8.00 -26.37Q11.08 -30.66 16.11 -30.66L16.11 -30.66ZM29.00 -25.39L16.53 -25.42L16.53 -25.42Q13.89 -25.42 12.05 -22.92L12.05 -22.92L12.05 -22.92Q10.20 -20.42 10.20 -16.77L10.20 -16.77L10.20 -16.77Q10.20 -11.19 12.66 -8.25L12.66 -8.25L12.66 -8.25Q15.13 -5.31 19.80 -5.31L19.80 -5.31L19.80 -5.31Q23.17 -5.31 25.35 -6.79L25.35 -6.79L25.35 -6.79Q27.53 -8.27 28.50 -11.30L28.50 -11.30L28.50 -11.30Q29.47 -14.34 29.47 -20.98L29.47 -20.98L29.47 -20.98Q29.47 -22.11 29.36 -23.29L29.36 -23.29L29.36 -23.29Q29.25 -24.47 29.00 -25.39L29.00 -25.39ZM86.45 0.00L59.63 0.00L59.63 -5.45L81.22 -5.45L81.22 -5.45Q81.22 -16.06 78.07 -20.87L78.07 -20.87L78.07 -20.87Q74.92 -25.67 68.56 -25.67L68.56 -25.67L68.56 -25.67Q66.77 -25.67 64.76 -25.25L64.76 -25.25L64.76 -25.25Q62.75 -24.83 60.47 -23.80L60.47 -23.80L60.47 -28.77L60.47 -28.77Q62.09 -29.70 64.36 -30.34L64.36 -30.34L64.36 -30.34Q66.63 -30.97 69.22 -30.97L69.22 -30.97L69.22 -30.97Q78.08 -30.97 82.32 -24.78L82.32 -24.78L82.32 -24.78Q86.56 -18.59 86.56 -5.20L86.56 -5.20L86.56 -2.67L86.56 -2.67Q86.56 -1.27 86.45 0.00L86.45 0.00ZM107.13 12.80L107.13 6.66L112.98 6.66L112.98 12.80L107.13 12.80ZM118.88 -8.61L118.00 -13.75L118.00 -13.75Q116.91 -19.94 113.91 -22.82L113.91 -22.82L113.91 -22.82Q110.91 -25.70 105.31 -25.70L105.31 -25.70L105.31 -25.70Q103.55 -25.70 101.30 -25.21L101.30 -25.21L101.30 -25.21Q99.05 -24.72 97.50 -23.91L97.50 -23.91L97.50 -28.69L97.50 -28.69Q98.77 -29.67 101.30 -30.32L101.30 -30.32L101.30 -30.32Q103.83 -30.97 106.41 -30.97L106.41 -30.97L106.41 -30.97Q113.25 -30.97 117.35 -27.41L117.35 -27.41L117.35 -27.41Q121.45 -23.84 122.75 -16.67L122.75 -16.67L124.27 -8.69L124.27 -8.69Q124.61 -6.83 125.38 -6.14L125.38 -6.14L125.38 -6.14Q126.16 -5.45 127.14 -5.45L127.14 -5.45L128.30 -5.45L128.30 0.00L127.14 0.00L127.14 0.00Q122.81 0.00 120.70 -3.31L120.70 -3.31L120.56 -3.31L119.30 0.00L96.63 0.00L96.63 -5.45L119.69 -5.45L119.69 -5.45Q119.41 -6.16 119.23 -6.93L119.23 -6.93L119.23 -6.93Q119.06 -7.70 118.88 -8.61L118.88 -8.61ZM155.50 0.00L154.89 0.00L160.17 10.13L163.52 10.13L163.52 17.30L156.58 17.30L156.58 10.97L149.23 -3.31L149.09 -3.31L147.80 0.00L128.00 0.00L128.00 0.00Q126.84 0.00 126.02 -0.72L126.02 -0.72L126.02 -0.72Q125.19 -1.44 125.19 -2.70L125.19 -2.70L125.19 -2.70Q125.19 -3.97 126.02 -4.71L126.02 -4.71L126.02 -4.71Q126.84 -5.45 128.00 -5.45L128.00 -5.45L147.94 -5.45L126.31 -47.47L131.38 -49.92L152.08 -9.67L152.08 -9.67Q153.31 -7.31 153.98 -6.38L153.98 -6.38L153.98 -6.38Q154.66 -5.45 155.50 -5.45L155.50 -5.45L155.50 0.00ZM129.13 -11.20L129.13 -17.34L134.98 -17.34L134.98 -11.20L129.13 -11.20ZM182.50 0.00L181.89 0.00L187.17 10.13L190.52 10.13L190.52 17.30L183.58 17.30L183.58 10.97L176.23 -3.31L176.09 -3.31L174.80 0.00L155.00 0.00L155.00 0.00Q153.84 0.00 153.02 -0.72L153.02 -0.72L153.02 -0.72Q152.19 -1.44 152.19 -2.70L152.19 -2.70L152.19 -2.70Q152.19 -3.97 153.02 -4.71L153.02 -4.71L153.02 -4.71Q153.84 -5.45 155.00 -5.45L155.00 -5.45L174.94 -5.45L153.31 -47.47L158.38 -49.92L179.08 -9.67L179.08 -9.67Q180.31 -7.31 180.98 -6.38L180.98 -6.38L180.98 -6.38Q181.66 -5.45 182.50 -5.45L182.50 -5.45L182.50 0.00ZM209.50 0.00L182.00 0.00L182.00 0.00Q180.84 0.00 180.02 -0.72L180.02 -0.72L180.02 -0.72Q179.19 -1.44 179.19 -2.70L179.19 -2.70L179.19 -2.70Q179.19 -3.97 180.02 -4.71L180.02 -4.71L180.02 -4.71Q180.84 -5.45 182.00 -5.45L182.00 -5.45L207.03 -5.45L207.03 -25.39L196.56 -25.39L196.56 -25.39Q192.38 -25.39 188.68 -25.70L188.68 -25.70L188.68 -25.70Q184.98 -26.02 183.41 -26.44L183.41 -26.44L183.41 -31.58L183.41 -31.58Q184.70 -31.25 188.40 -30.95L188.40 -30.95L188.40 -30.95Q192.09 -30.66 196.20 -30.66L196.20 -30.66L212.31 -30.66L212.31 -3.88L209.50 0.00ZM225.78 -45.81L225.86 -47.67L225.86 -47.67Q228.00 -50.31 229.00 -53.09L229.00 -53.09L229.00 -53.09Q230.00 -55.86 230.00 -58.14L230.00 -58.14L230.00 -58.14Q230.00 -58.92 229.84 -59.77L229.84 -59.77L229.84 -59.77Q229.69 -60.61 229.33 -61.06L229.33 -61.06L227.05 -61.98L228.25 -64.44L228.25 -64.44Q230.42 -64.27 231.46 -62.82L231.46 -62.82L231.46 -62.82Q232.50 -61.38 232.50 -58.42L232.50 -58.42L232.50 -58.42Q232.50 -56.14 231.71 -53.59L231.71 -53.59L231.71 -53.59Q230.92 -51.05 228.84 -48.30L228.84 -48.30L228.84 -48.06L228.84 -48.06Q230.36 -48.16 231.66 -48.16L231.66 -48.16L233.69 -48.16L233.69 -45.81L225.78 -45.81ZM239.47 0.00L221.16 0.00L221.30 -4.33L221.30 -4.33Q225.72 -9.70 228.34 -16.35L228.34 -16.35L228.34 -16.35Q230.95 -23.00 230.95 -29.00L230.95 -29.00L230.95 -29.00Q230.95 -30.91 230.52 -32.89L230.52 -32.89L230.52 -32.89Q230.08 -34.88 229.34 -35.75L229.34 -35.75L224.11 -38.14L226.59 -43.28L226.59 -43.28Q231.38 -42.86 233.75 -39.87L233.75 -39.87L233.75 -39.87Q236.13 -36.88 236.13 -29.70L236.13 -29.70L236.13 -29.70Q236.13 -23.52 233.93 -17.07L233.93 -17.07L233.93 -17.07Q231.73 -10.63 228.08 -5.63L228.08 -5.63L228.08 -5.34L228.08 -5.34Q228.42 -5.34 229.31 -5.42L229.31 -5.42L232.97 -5.45L239.47 -5.45L239.47 0.00Z"/></svg>