<svg xmlns="http://www.w3.org/2000/svg" viewBox="0 -48.82 444.70 48.82" height="100%"><path fill="currentColor" d="M18.29 17.28L11.88 17.28L11.88 9.36L11.88 9.36Q8.21 7.92 6.08 5.58L6.08 5.58L6.08 5.58Q3.96 3.24 3.96 -0.43L3.96 -0.43L3.96 -0.43Q3.96 -3.82 5.98 -5.94L5.98 -5.94L5.98 -5.94Q7.99 -8.06 11.52 -9.43L11.52 -9.43L11.52 -9.43Q7.49 -10.80 5.72 -13.32L5.72 -13.32L5.72 -13.32Q3.96 -15.84 3.96 -19.44L3.96 -19.44L3.96 -19.44Q3.96 -25.13 7.96 -28.33L7.96 -28.33L7.96 -28.33Q11.95 -31.54 19.01 -31.54L19.01 -31.54L19.01 -25.92L19.01 -25.92Q14.54 -25.92 12.56 -24.05L12.56 -24.05L12.56 -24.05Q10.58 -22.18 10.58 -19.01L10.58 -19.01L10.58 -19.01Q10.58 -14.98 12.56 -13.54L12.56 -13.54L12.56 -13.54Q14.54 -12.10 19.01 -11.95L19.01 -11.95L19.01 -7.13L19.01 -7.13Q14.54 -7.13 12.56 -5.44L12.56 -5.44L12.56 -5.44Q10.58 -3.74 10.58 -0.65L10.58 -0.65L10.58 -0.65Q10.58 2.23 12.38 3.64L12.38 3.64L12.38 3.64Q14.18 5.04 18.29 5.83L18.29 5.83L18.29 17.28ZM41.29 12.17L39.20 17.28L39.20 17.28Q33.01 15.98 29.98 12.78L29.98 12.78L29.98 12.78Q26.96 9.58 26.96 3.82L26.96 3.82L26.96 3.82Q26.96 -0.36 28.98 -2.95L28.98 -2.95L28.98 -2.95Q30.99 -5.54 34.52 -7.20L34.52 -7.20L34.52 -7.20Q30.49 -8.71 28.72 -11.48L28.72 -11.48L28.72 -11.48Q26.96 -14.26 26.96 -18.22L26.96 -18.22L26.96 -18.22Q26.96 -24.41 30.96 -27.97L30.96 -27.97L30.96 -27.97Q34.95 -31.54 42.01 -31.54L42.01 -31.54L42.01 -25.92L42.01 -25.92Q37.54 -25.92 35.56 -23.83L35.56 -23.83L35.56 -23.83Q33.58 -21.74 33.58 -18.14L33.58 -18.14L33.58 -18.14Q33.58 -13.61 35.56 -12.02L35.56 -12.02L35.56 -12.02Q37.54 -10.44 42.01 -10.22L42.01 -10.22L42.01 -4.61L42.01 -4.61Q37.54 -4.61 35.56 -2.41L35.56 -2.41L35.56 -2.41Q33.58 -0.22 33.58 3.74L33.58 3.74L33.58 3.74Q33.58 7.49 35.38 9.36L35.38 9.36L35.38 9.36Q37.18 11.23 41.29 12.17L41.29 12.17ZM76.89 17.28L70.98 17.28L70.98 17.28Q67.60 14.04 65.37 9.97L65.37 9.97L65.37 9.97Q63.14 5.90 61.91 0.00L61.91 0.00L55.07 0.00L55.07 7.20L48.66 7.20L48.66 -5.62L61.05 -5.62L61.05 -5.62Q60.40 -11.66 60.40 -19.73L60.40 -19.73L60.40 -30.82L66.81 -30.82L66.81 -30.38L66.81 -30.38Q66.81 -24.98 67.67 -22.00L67.67 -22.00L67.67 -22.00Q68.54 -19.01 70.37 -17.86L70.37 -17.86L70.37 -17.86Q72.21 -16.70 75.16 -16.70L75.16 -16.70L75.16 -16.70Q78.26 -16.70 79.88 -17.42L79.88 -17.42L79.88 -17.42Q81.50 -18.14 82.07 -19.84L82.07 -19.84L82.07 -19.84Q82.65 -21.53 82.65 -24.41L82.65 -24.41L82.65 -30.82L87.69 -30.82L87.69 -30.82Q88.19 -28.94 88.66 -26.53L88.66 -26.53L88.66 -26.53Q89.13 -24.12 89.13 -22.46L89.13 -22.46L89.13 -22.46Q89.13 -18.36 87.90 -15.88L87.90 -15.88L87.90 -15.88Q86.68 -13.39 83.69 -12.24L83.69 -12.24L83.69 -12.24Q80.70 -11.09 75.38 -11.09L75.38 -11.09L75.38 -11.09Q72.50 -11.09 70.37 -11.88L70.37 -11.88L70.37 -11.88Q68.25 -12.67 66.81 -14.54L66.81 -14.54L66.81 -14.54Q66.88 -12.02 66.99 -9.61L66.99 -9.61L66.99 -9.61Q67.10 -7.20 67.31 -5.62L67.31 -5.62L90.64 -5.62L90.64 0.00L68.10 0.00L68.10 0.00Q69.11 5.18 71.20 9.04L71.20 9.04L71.20 9.04Q73.29 12.89 76.89 17.28L76.89 17.28ZM98.65 7.78L92.60 7.78L92.60 7.78Q95.05 2.30 96.42 -4.07L96.42 -4.07L96.42 -4.07Q97.78 -10.44 97.78 -16.63L97.78 -16.63L97.78 -16.63Q97.78 -18.94 97.28 -21.60L97.28 -21.60L97.28 -21.60Q96.78 -24.26 95.66 -26.71L95.66 -26.71L95.66 -26.71Q94.54 -29.16 92.67 -30.82L92.67 -30.82L98.79 -30.82L98.79 -30.82Q100.81 -29.23 102.18 -25.56L102.18 -25.56L102.18 -25.56Q103.54 -21.89 103.83 -17.78L103.83 -17.78L103.83 -17.78Q105.63 -31.54 116.65 -31.54L116.65 -31.54L116.65 -31.54Q121.98 -31.54 124.42 -29.02L124.42 -29.02L124.42 -29.02Q126.87 -26.50 126.87 -22.46L126.87 -22.46L126.87 -22.46Q126.87 -20.66 127.77 -19.37L127.77 -19.37L127.77 -19.37Q128.67 -18.07 131.05 -18.07L131.05 -18.07L131.05 -18.07Q133.57 -18.07 134.72 -19.62L134.72 -19.62L134.72 -19.62Q135.87 -21.17 135.87 -24.34L135.87 -24.34L135.87 -30.82L140.84 -30.82L140.84 -30.82Q141.42 -29.16 141.85 -26.93L141.85 -26.93L141.85 -26.93Q142.28 -24.70 142.28 -23.18L142.28 -23.18L142.28 -23.18Q142.28 -18.22 139.47 -15.52L139.47 -15.52L139.47 -15.52Q136.66 -12.82 131.05 -12.82L131.05 -12.82L131.05 -12.82Q127.30 -12.82 125.04 -14.00L125.04 -14.00L125.04 -14.00Q122.77 -15.19 121.76 -17.10L121.76 -17.10L121.76 -17.10Q120.75 -19.01 120.75 -21.31L120.75 -21.31L120.75 -21.31Q120.75 -23.83 119.64 -25.24L119.64 -25.24L119.64 -25.24Q118.52 -26.64 116.65 -26.64L116.65 -26.64L116.65 -26.64Q113.19 -26.64 111.54 -23.22L111.54 -23.22L111.54 -23.22Q109.88 -19.80 109.88 -12.38L109.88 -12.38L109.88 -12.38Q109.88 -5.76 112.11 -1.01L112.11 -1.01L112.11 -1.01Q114.34 3.74 117.66 7.78L117.66 7.78L111.32 7.78L111.32 7.78Q108.30 4.46 106.24 -0.22L106.24 -0.22L106.24 -0.22Q104.19 -4.90 103.83 -10.66L103.83 -10.66L103.83 -10.66Q103.26 -5.83 101.96 -1.12L101.96 -1.12L101.96 -1.12Q100.66 3.60 98.65 7.78L98.65 7.78ZM163.29 12.17L161.20 17.28L161.20 17.28Q155.01 15.98 151.98 12.78L151.98 12.78L151.98 12.78Q148.96 9.58 148.96 3.82L148.96 3.82L148.96 3.82Q148.96 -0.36 150.98 -2.95L150.98 -2.95L150.98 -2.95Q152.99 -5.54 156.52 -7.20L156.52 -7.20L156.52 -7.20Q152.49 -8.71 150.72 -11.48L150.72 -11.48L150.72 -11.48Q148.96 -14.26 148.96 -18.22L148.96 -18.22L148.96 -18.22Q148.96 -24.41 152.96 -27.97L152.96 -27.97L152.96 -27.97Q156.95 -31.54 164.01 -31.54L164.01 -31.54L164.01 -25.92L164.01 -25.92Q159.54 -25.92 157.56 -23.83L157.56 -23.83L157.56 -23.83Q155.58 -21.74 155.58 -18.14L155.58 -18.14L155.58 -18.14Q155.58 -14.98 156.48 -13.32L156.48 -13.32L156.48 -13.32Q157.38 -11.66 159.40 -10.94L159.40 -10.94L159.40 -11.30L170.13 -11.30L170.13 -11.30Q175.24 -11.30 177.44 -13.57L177.44 -13.57L177.44 -13.57Q179.63 -15.84 179.63 -21.10L179.63 -21.10L179.63 -30.82L184.67 -30.82L184.67 -30.82Q185.18 -28.66 185.64 -26.03L185.64 -26.03L185.64 -26.03Q186.11 -23.40 186.11 -21.46L186.11 -21.46L186.11 -21.46Q186.11 -15.70 188.20 -13.50L188.20 -13.50L188.20 -13.50Q190.29 -11.30 194.82 -11.30L194.82 -11.30L194.82 -11.30Q199.72 -11.30 201.92 -13.43L201.92 -13.43L201.92 -13.43Q204.11 -15.55 204.11 -20.74L204.11 -20.74L204.11 -30.82L209.15 -30.82L209.15 -30.82Q209.66 -28.51 210.12 -25.92L210.12 -25.92L210.12 -25.92Q210.59 -23.33 210.59 -21.24L210.59 -21.24L210.59 -21.24Q210.59 -15.55 212.68 -13.43L212.68 -13.43L212.68 -13.43Q214.77 -11.30 219.30 -11.30L219.30 -11.30L219.30 -11.30Q224.20 -11.30 226.40 -13.43L226.40 -13.43L226.40 -13.43Q228.59 -15.55 228.59 -20.74L228.59 -20.74L228.59 -30.82L233.63 -30.82L233.63 -30.82Q234.14 -28.37 234.60 -25.60L234.60 -25.60L234.60 -25.60Q235.07 -22.82 235.07 -20.66L235.07 -20.66L235.07 -20.66Q235.07 -12.82 231.36 -9.43L231.36 -9.43L231.36 -9.43Q227.66 -6.05 219.59 -6.05L219.59 -6.05L219.59 -6.05Q214.55 -6.05 211.89 -7.99L211.89 -7.99L211.89 -7.99Q209.22 -9.94 207.35 -13.54L207.35 -13.54L207.35 -13.54Q205.48 -9.94 202.74 -7.99L202.74 -7.99L202.74 -7.99Q200.01 -6.05 194.90 -6.05L194.90 -6.05L194.90 -6.05Q190.00 -6.05 187.34 -7.99L187.34 -7.99L187.34 -7.99Q184.67 -9.94 182.87 -13.54L182.87 -13.54L182.87 -13.54Q181.00 -9.94 178.30 -7.99L178.30 -7.99L178.30 -7.99Q175.60 -6.05 170.49 -6.05L170.49 -6.05L170.49 -6.05Q166.89 -6.05 164.01 -6.26L164.01 -6.26L164.01 -4.61L164.01 -4.61Q159.54 -4.61 157.56 -2.41L157.56 -2.41L157.56 -2.41Q155.58 -0.22 155.58 3.74L155.58 3.74L155.58 3.74Q155.58 7.49 157.38 9.36L157.38 9.36L157.38 9.36Q159.18 11.23 163.29 12.17L163.29 12.17ZM258.29 12.17L256.20 17.28L256.20 17.28Q250.01 15.98 246.98 12.78L246.98 12.78L246.98 12.78Q243.96 9.58 243.96 3.82L243.96 3.82L243.96 3.82Q243.96 -0.36 245.98 -2.95L245.98 -2.95L245.98 -2.95Q247.99 -5.54 251.52 -7.20L251.52 -7.20L251.52 -7.20Q247.49 -8.71 245.72 -11.48L245.72 -11.48L245.72 -11.48Q243.96 -14.26 243.96 -18.22L243.96 -18.22L243.96 -18.22Q243.96 -24.41 247.96 -27.97L247.96 -27.97L247.96 -27.97Q251.95 -31.54 259.01 -31.54L259.01 -31.54L259.01 -25.92L259.01 -25.92Q254.54 -25.92 252.56 -23.83L252.56 -23.83L252.56 -23.83Q250.58 -21.74 250.58 -18.14L250.58 -18.14L250.58 -18.14Q250.58 -15.05 251.45 -13.36L251.45 -13.36L251.45 -13.36Q252.31 -11.66 254.33 -10.94L254.33 -10.94L254.33 -11.30L265.13 -11.30L265.13 -11.30Q270.24 -11.30 272.44 -13.57L272.44 -13.57L272.44 -13.57Q274.63 -15.84 274.63 -21.02L274.63 -21.02L274.63 -30.82L279.67 -30.82L279.67 -30.82Q280.18 -28.66 280.64 -25.99L280.64 -25.99L280.64 -25.99Q281.11 -23.33 281.11 -21.38L281.11 -21.38L281.11 -21.38Q281.11 -15.70 283.20 -13.50L283.20 -13.50L283.20 -13.50Q285.29 -11.30 289.82 -11.30L289.82 -11.30L289.82 -11.30Q294.72 -11.30 296.92 -13.43L296.92 -13.43L296.92 -13.43Q299.11 -15.55 299.11 -20.74L299.11 -20.74L299.11 -30.82L304.15 -30.82L304.15 -30.82Q304.66 -28.37 305.12 -25.56L305.12 -25.56L305.12 -25.56Q305.59 -22.75 305.59 -20.66L305.59 -20.66L305.59 -20.66Q305.59 -12.82 301.88 -9.43L301.88 -9.43L301.88 -9.43Q298.18 -6.05 290.11 -6.05L290.11 -6.05L290.11 -6.05Q285.07 -6.05 282.41 -7.99L282.41 -7.99L282.41 -7.99Q279.74 -9.94 277.87 -13.54L277.87 -13.54L277.87 -13.54Q276.00 -9.94 273.30 -7.99L273.30 -7.99L273.30 -7.99Q270.60 -6.05 265.49 -6.05L265.49 -6.05L265.49 -6.05Q261.89 -6.05 259.01 -6.26L259.01 -6.26L259.01 -4.61L259.01 -4.61Q254.54 -4.61 252.56 -2.41L252.56 -2.41L252.56 -2.41Q250.58 -0.22 250.58 3.74L250.58 3.74L250.58 3.74Q250.58 7.49 252.38 9.36L252.38 9.36L252.38 9.36Q254.18 11.23 258.29 12.17L258.29 12.17ZM322.53 -6.05L322.53 -6.05L322.53 -6.05Q319.22 -6.05 316.52 -6.26L316.52 -6.26L316.52 -6.26Q313.82 -6.48 311.44 -6.77L311.44 -6.77L311.44 -11.30L322.17 -11.30L322.17 -11.30Q327.28 -11.30 329.48 -13.57L329.48 -13.57L329.48 -13.57Q331.67 -15.84 331.67 -21.10L331.67 -21.10L331.67 -30.82L336.71 -30.82L336.71 -30.82Q337.22 -28.66 337.68 -26.03L337.68 -26.03L337.68 -26.03Q338.15 -23.40 338.15 -21.46L338.15 -21.46L338.15 -21.46Q338.15 -15.70 340.24 -13.50L340.24 -13.50L340.24 -13.50Q342.33 -11.30 346.86 -11.30L346.86 -11.30L346.86 -11.30Q351.76 -11.30 353.96 -13.43L353.96 -13.43L353.96 -13.43Q356.15 -15.55 356.15 -20.74L356.15 -20.74L356.15 -30.82L361.19 -30.82L361.19 -30.82Q361.70 -28.51 362.16 -25.92L362.16 -25.92L362.16 -25.92Q362.63 -23.33 362.63 -21.24L362.63 -21.24L362.63 -21.24Q362.63 -15.55 364.72 -13.43L364.72 -13.43L364.72 -13.43Q366.81 -11.30 371.34 -11.30L371.34 -11.30L371.34 -11.30Q376.24 -11.30 378.44 -13.43L378.44 -13.43L378.44 -13.43Q380.63 -15.55 380.63 -20.74L380.63 -20.74L380.63 -30.82L385.67 -30.82L385.67 -30.82Q386.18 -28.37 386.64 -25.60L386.64 -25.60L386.64 -25.60Q387.11 -22.82 387.11 -20.66L387.11 -20.66L387.11 -20.66Q387.11 -12.82 383.40 -9.43L383.40 -9.43L383.40 -9.43Q379.70 -6.05 371.63 -6.05L371.63 -6.05L371.63 -6.05Q366.59 -6.05 363.93 -7.99L363.93 -7.99L363.93 -7.99Q361.26 -9.94 359.39 -13.54L359.39 -13.54L359.39 -13.54Q357.52 -9.94 354.78 -7.99L354.78 -7.99L354.78 -7.99Q352.05 -6.05 346.94 -6.05L346.94 -6.05L346.94 -6.05Q342.04 -6.05 339.38 -7.99L339.38 -7.99L339.38 -7.99Q336.71 -9.94 334.91 -13.54L334.91 -13.54L334.91 -13.54Q333.04 -9.94 330.34 -7.99L330.34 -7.99L330.34 -7.99Q327.64 -6.05 322.53 -6.05ZM404.60 -6.05L404.60 -6.05L404.60 -6.05Q401.22 -6.05 398.52 -6.26L398.52 -6.26L398.52 -6.26Q395.82 -6.48 393.44 -6.77L393.44 -6.77L393.44 -11.30L404.24 -11.30L404.24 -11.30Q409.28 -11.30 411.51 -13.57L411.51 -13.57L411.51 -13.57Q413.74 -15.84 413.74 -21.02L413.74 -21.02L413.74 -30.82L418.78 -30.82L418.78 -30.82Q419.36 -28.66 419.79 -25.99L419.79 -25.99L419.79 -25.99Q420.22 -23.33 420.22 -21.38L420.22 -21.38L420.22 -21.38Q420.22 -15.70 422.31 -13.50L422.31 -13.50L422.31 -13.50Q424.40 -11.30 428.94 -11.30L428.94 -11.30L428.94 -11.30Q433.83 -11.30 436.03 -13.43L436.03 -13.43L436.03 -13.43Q438.22 -15.55 438.22 -20.74L438.22 -20.74L438.22 -30.82L443.26 -30.82L443.26 -30.82Q443.84 -28.37 444.27 -25.56L444.27 -25.56L444.27 -25.56Q444.70 -22.75 444.70 -20.66L444.70 -20.66L444.70 -20.66Q444.70 -12.82 441.03 -9.43L441.03 -9.43L441.03 -9.43Q437.36 -6.05 429.22 -6.05L429.22 -6.05L429.22 -6.05Q424.18 -6.05 421.48 -7.99L421.48 -7.99L421.48 -7.99Q418.78 -9.94 416.98 -13.54L416.98 -13.54L416.98 -13.54Q415.18 -9.94 412.45 -7.99L412.45 -7.99L412.45 -7.99Q409.71 -6.05 404.60 -6.05Z"/></svg>