<svg xmlns="http://www.w3.org/2000/svg" viewBox="0 -69.78 440.77 69.78" height="100%"><path fill="currentColor" d="M4.22 -36.14L6.55 -39.31L6.55 -39.31Q10.63 -36.98 12.71 -32.99L12.71 -32.99L12.71 -32.99Q14.80 -29.00 15.30 -23.14L15.30 -23.14L15.30 -23.14Q17.16 -27.50 20.05 -31.26L20.05 -31.26L20.05 -31.26Q22.95 -35.02 26.16 -37.16L26.16 -37.16L26.16 -37.16Q29.36 -39.31 32.31 -39.31L32.31 -39.31L32.31 -39.31Q36.73 -39.31 39.01 -35.62L39.01 -35.62L39.01 -35.62Q41.28 -31.92 41.28 -24.58L41.28 -24.58L41.28 -24.58Q41.28 -21.03 41.05 -17.27L41.05 -17.27L41.05 -17.27Q40.81 -13.50 40.81 -9.98L40.81 -9.98L40.81 -9.98Q40.81 -4.89 42.30 -1.77L42.30 -1.77L36.08 0.34L36.08 0.34Q34.48 -3.06 34.48 -8.89L34.48 -8.89L34.48 -8.89Q34.48 -12.03 34.72 -15.76L34.72 -15.76L34.72 -15.76Q34.95 -19.48 34.95 -24.16L34.95 -24.16L34.95 -24.16Q34.95 -34.39 31.47 -34.39L31.47 -34.39L31.47 -34.39Q29.05 -34.39 25.91 -31.26L25.91 -31.26L25.91 -31.26Q22.78 -28.13 19.80 -22.54L19.80 -22.54L19.80 -22.54Q16.81 -16.95 14.80 -10.34L14.80 -10.34L14.80 -10.34Q14.03 -5.94 12.59 -1.77L12.59 -1.77L5.84 0.17L5.84 0.17Q7.31 -3.66 8.24 -9.74L8.24 -9.74L8.24 -9.74Q9.17 -15.83 9.17 -21.45L9.17 -21.45L9.17 -21.45Q9.17 -28.23 7.96 -31.47L7.96 -31.47L7.96 -31.47Q6.75 -34.70 4.22 -36.14L4.22 -36.14ZM57.06 -1.72L50.52 0.17L50.52 0.17Q55.69 -39.31 75.20 -39.31L75.20 -39.31L75.20 -39.31Q81.98 -39.31 84.63 -34.03L84.63 -34.03L84.63 -34.03Q90.91 -37.77 96.81 -39.97L96.81 -39.97L97.80 -37.09L97.80 -37.09Q93.02 -35.23 85.81 -30.48L85.81 -30.48L85.81 -30.48Q86.38 -27.73 86.38 -24.58L86.38 -24.58L86.38 -24.58Q86.38 -21.03 86.15 -17.27L86.15 -17.27L86.15 -17.27Q85.92 -13.50 85.92 -9.98L85.92 -9.98L85.92 -9.98Q85.92 -4.86 87.39 -1.72L87.39 -1.72L81.17 0.28L81.17 0.28Q79.59 -3.13 79.59 -8.89L79.59 -8.89L79.59 -8.89Q79.59 -12.03 79.82 -15.76L79.82 -15.76L79.82 -15.76Q80.05 -19.48 80.05 -24.16L80.05 -24.16L80.05 -25.25L80.02 -26.30L80.02 -26.30Q72.45 -20.56 66.32 -14.01L66.32 -14.01L66.32 -14.01Q60.19 -7.45 57.06 -1.77L57.06 -1.77L57.06 -1.72ZM74.64 -34.39L74.64 -34.39L74.64 -34.39Q68.73 -34.39 64.59 -28.67L64.59 -28.67L64.59 -28.67Q60.44 -22.95 58.28 -11.67L58.28 -11.67L58.28 -11.67Q66.91 -22.25 79.45 -30.73L79.45 -30.73L79.45 -30.73Q78.36 -34.39 74.64 -34.39ZM148.05 9.63L149.63 7.38L149.63 7.38Q150.97 8.41 152.88 8.95L152.88 8.95L152.88 8.95Q154.80 9.48 156.55 9.48L156.55 9.48L156.55 9.48Q160.31 9.48 161.98 8.13L161.98 8.13L161.98 8.13Q163.66 6.78 163.66 4.25L163.66 4.25L163.66 4.25Q163.66 1.94 161.49 0.51L161.49 0.51L161.49 0.51Q159.33 -0.92 155.50 -0.92L155.50 -0.92L155.50 -0.92Q151.03 -0.92 145.77 -0.11L145.77 -0.11L145.77 -0.11Q140.52 0.70 135.81 0.70L135.81 0.70L135.81 0.70Q131.73 0.70 129.64 -1.28L129.64 -1.28L129.64 -1.28Q127.55 -3.27 127.55 -6.89L127.55 -6.89L127.55 -6.89Q127.55 -8.94 128.08 -11.63L128.08 -11.63L128.08 -11.63Q128.61 -14.31 129.24 -17.34L129.24 -17.34L129.24 -17.34Q129.88 -20.36 130.40 -23.61L130.40 -23.61L130.40 -23.61Q130.92 -26.86 130.92 -30.03L130.92 -30.03L130.92 -30.03Q130.92 -31.92 129.71 -33.16L129.71 -33.16L129.71 -33.16Q128.50 -34.39 126.78 -34.39L126.78 -34.39L126.78 -34.39Q123.61 -34.39 121.26 -33.00L121.26 -33.00L121.26 -33.00Q118.91 -31.61 117.16 -29.22L117.16 -29.22L117.16 -29.22Q115.42 -26.83 114.19 -23.61L114.19 -23.61L114.19 -23.61Q112.95 -20.39 112.08 -16.77L112.08 -16.77L112.08 -16.77Q111.20 -13.16 110.59 -9.29L110.59 -9.29L110.59 -9.29Q109.97 -5.42 109.41 -1.72L109.41 -1.72L102.52 0.17L102.52 0.17Q104.00 -11.84 107.59 -20.77L107.59 -20.77L107.59 -20.77Q111.17 -29.70 116.49 -34.51L116.49 -34.51L116.49 -34.51Q121.81 -39.31 128.25 -39.31L128.25 -39.31L128.25 -39.31Q131.09 -39.31 133.12 -38.15L133.12 -38.15L133.12 -38.15Q135.14 -36.98 136.20 -35.00L136.20 -35.00L136.20 -35.00Q137.25 -33.02 137.25 -30.59L137.25 -30.59L137.25 -30.59Q137.25 -26.94 135.56 -18.08L135.56 -18.08L135.56 -18.08Q134.41 -11.98 134.14 -10.02L134.14 -10.02L134.14 -10.02Q133.88 -8.05 133.88 -6.75L133.88 -6.75L133.88 -6.75Q133.88 -5.56 134.51 -4.89L134.51 -4.89L134.51 -4.89Q135.14 -4.22 136.97 -4.22L136.97 -4.22L136.97 -4.22Q140.80 -4.22 146.25 -5.14L146.25 -5.14L149.28 -5.52L149.28 -5.52Q150.50 -20.11 154.86 -30.98L154.86 -30.98L154.86 -30.98Q159.22 -41.84 166.36 -48.69L166.36 -48.69L168.05 -46.48L168.05 -46.48Q164.81 -43.25 162.11 -37.18L162.11 -37.18L162.11 -37.18Q159.41 -31.11 157.59 -22.70L157.59 -22.70L157.59 -22.70Q155.78 -14.28 155.39 -5.84L155.39 -5.84L155.39 -5.84Q161.83 -5.77 165.38 -3.20L165.38 -3.20L165.38 -3.20Q168.92 -0.64 168.92 3.66L168.92 3.66L168.92 3.66Q168.92 8.16 165.81 10.76L165.81 10.76L165.81 10.76Q162.70 13.36 157.19 13.36L157.19 13.36L157.19 13.36Q152.33 13.36 148.05 9.63L148.05 9.63ZM236.44 -20.47L236.44 -20.47L236.44 -20.47Q237.53 -20.67 238.63 -20.67L238.63 -20.67L238.63 -20.67Q242.03 -20.67 244.20 -18.34L244.20 -18.34L244.20 -18.34Q246.36 -16.00 246.36 -12.13L246.36 -12.13L246.36 -12.13Q246.36 -6.92 242.38 -0.93L242.38 -0.93L242.38 -0.93Q238.41 5.06 230.48 11.30L230.48 11.30L230.48 11.30Q222.56 17.55 214.72 21.09L214.72 21.09L213.06 18.39L213.06 18.39Q225.27 12.23 232.65 4.13L232.65 4.13L232.65 4.13Q240.03 -3.97 240.03 -10.97L240.03 -10.97L240.03 -10.97Q240.03 -13.53 238.96 -14.64L238.96 -14.64L238.96 -14.64Q237.89 -15.75 236.23 -15.75L236.23 -15.75L236.23 -15.75Q234.80 -15.75 233.65 -15.44L233.65 -15.44L233.65 -15.44Q232.50 -15.13 231.43 -14.49L231.43 -14.49L231.43 -14.49Q230.36 -13.86 228.14 -11.92L228.14 -11.92L225.58 -15.41L225.58 -15.41Q228.42 -17.58 230.48 -21.29L230.48 -21.29L230.48 -21.29Q232.55 -25.00 232.55 -28.20L232.55 -28.20L232.55 -28.20Q232.55 -31.16 231.30 -32.77L231.30 -32.77L231.30 -32.77Q230.05 -34.39 227.91 -34.39L227.91 -34.39L227.91 -34.39Q225.75 -34.39 224.20 -33.21L224.20 -33.21L224.20 -33.21Q222.66 -32.03 221.41 -29.50L221.41 -29.50L221.41 -29.50Q220.17 -26.97 218.55 -21.23L218.55 -21.23L218.55 -21.23Q215.20 -9.28 212.86 -1.58L212.86 -1.58L212.86 -1.58Q212.50 -0.45 211.67 0.13L211.67 0.13L211.67 0.13Q210.84 0.70 209.30 0.70L209.30 0.70L209.30 0.70Q207.69 0.70 206.73 -0.39L206.73 -0.39L206.73 -0.39Q205.78 -1.48 204.12 -7.14L204.12 -7.14L204.12 -7.14Q202.45 -12.80 201.09 -19.32L201.09 -19.32L201.09 -19.32Q199.73 -25.84 199.36 -29.50L199.36 -29.50L199.36 -29.50Q198.05 -27.92 195.91 -20.73L195.91 -20.73L195.91 -20.73Q193.77 -13.53 191.58 -4.64L191.58 -4.64L191.58 -4.64Q190.95 -2.05 189.98 -0.67L189.98 -0.67L189.98 -0.67Q189.02 0.70 187.47 0.70L187.47 0.70L187.47 0.70Q185.75 0.70 184.87 -0.25L184.87 -0.25L184.87 -0.25Q183.98 -1.20 182.91 -3.85L182.91 -3.85L182.91 -3.85Q181.84 -6.50 180.59 -10.91L180.59 -10.91L180.59 -10.91Q179.34 -15.33 178.20 -20.67L178.20 -20.67L178.20 -20.67Q177.06 -26.02 176.33 -30.81L176.33 -30.81L176.33 -30.81Q175.59 -35.61 175.52 -38.00L175.52 -38.00L181.25 -39.31L181.25 -39.31Q181.81 -32.91 184.22 -21.20L184.22 -21.20L184.22 -21.20Q186.63 -9.50 187.92 -7.17L187.92 -7.17L187.92 -7.17Q189.75 -15.13 192.18 -22.38L192.18 -22.38L192.18 -22.38Q194.61 -29.64 197.10 -34.48L197.10 -34.48L197.10 -34.48Q199.59 -39.31 200.97 -39.31L200.97 -39.31L200.97 -39.31Q203.47 -39.31 204.09 -35.83L204.09 -35.83L204.09 -35.83Q204.77 -32.14 206.93 -22.09L206.93 -22.09L206.93 -22.09Q209.09 -12.03 210.42 -7.67L210.42 -7.67L210.42 -7.67Q213.88 -21.59 215.63 -26.48L215.63 -26.48L215.63 -26.48Q217.39 -31.36 219.22 -34.02L219.22 -34.02L219.22 -34.02Q221.05 -36.67 223.38 -37.99L223.38 -37.99L223.38 -37.99Q225.72 -39.31 228.81 -39.31L228.81 -39.31L228.81 -39.31Q233.53 -39.31 236.20 -36.66L236.20 -36.66L236.20 -36.66Q238.88 -34.00 238.88 -28.83L238.88 -28.83L238.88 -28.83Q238.88 -24.36 236.44 -20.47ZM314.84 -48.69L316.53 -46.48L316.53 -46.48Q310.20 -39.73 306.97 -31.30L306.97 -31.30L306.97 -31.30Q303.73 -22.86 303.73 -13.30L303.73 -13.30L303.73 -13.30Q303.73 -11.25 303.95 -9.56L303.95 -9.56L303.95 -9.56Q307.30 -10.44 310.17 -10.44L310.17 -10.44L310.17 -10.44Q314.08 -10.44 316.17 -8.86L316.17 -8.86L316.17 -8.86Q318.27 -7.28 318.27 -4.44L318.27 -4.44L318.27 -4.44Q318.27 -2.98 317.09 -1.60L317.09 -1.60L317.09 -1.60Q315.91 -0.22 313.92 0.59L313.92 0.59L313.92 0.59Q311.94 1.41 309.58 1.41L309.58 1.41L309.58 1.41Q303.11 1.41 299.91 -3.63L299.91 -3.63L299.91 -3.63Q295.83 -1.52 293.95 -0.83L293.95 -0.83L293.95 -0.83Q292.06 -0.14 290.12 0.28L290.12 0.28L290.12 0.28Q288.17 0.70 285.81 0.70L285.81 0.70L285.81 0.70Q281.73 0.70 279.64 -1.28L279.64 -1.28L279.64 -1.28Q277.55 -3.27 277.55 -6.89L277.55 -6.89L277.55 -6.89Q277.55 -8.94 278.08 -11.57L278.08 -11.57L278.08 -11.57Q278.61 -14.20 279.24 -17.16L279.24 -17.16L279.24 -17.16Q279.88 -20.11 280.40 -23.29L280.40 -23.29L280.40 -23.29Q280.92 -26.47 280.92 -29.64L280.92 -29.64L280.92 -29.64Q280.92 -31.58 279.71 -32.98L279.71 -32.98L279.71 -32.98Q278.50 -34.39 276.78 -34.39L276.78 -34.39L276.78 -34.39Q273.41 -34.39 270.77 -32.68L270.77 -32.68L270.77 -32.68Q268.13 -30.97 266.16 -27.72L266.16 -27.72L266.16 -27.72Q264.19 -24.47 262.66 -19.04L262.66 -19.04L262.66 -19.04Q261.13 -13.61 259.41 -1.72L259.41 -1.72L252.52 0.17L252.52 0.17Q253.81 -11.47 257.52 -20.59L257.52 -20.59L257.52 -20.59Q261.23 -29.70 266.56 -34.51L266.56 -34.51L266.56 -34.51Q271.89 -39.31 278.25 -39.31L278.25 -39.31L278.25 -39.31Q282.41 -39.31 284.83 -36.81L284.83 -36.81L284.83 -36.81Q287.25 -34.31 287.25 -30.20L287.25 -30.20L287.25 -30.20Q287.25 -27.53 286.73 -24.31L286.73 -24.31L286.73 -24.31Q286.20 -21.09 285.57 -17.88L285.57 -17.88L285.57 -17.88Q284.94 -14.66 284.41 -11.74L284.41 -11.74L284.41 -11.74Q283.88 -8.83 283.88 -6.75L283.88 -6.75L283.88 -6.75Q283.88 -5.56 284.51 -4.89L284.51 -4.89L284.51 -4.89Q285.14 -4.22 286.97 -4.22L286.97 -4.22L286.97 -4.22Q288.20 -4.22 289.41 -4.43L289.41 -4.43L289.41 -4.43Q290.63 -4.64 292.03 -5.08L292.03 -5.08L292.03 -5.08Q293.44 -5.52 298.16 -7.48L298.16 -7.48L298.16 -7.48Q297.41 -10.06 297.41 -13.05L297.41 -13.05L297.41 -13.05Q297.41 -22.16 302.10 -31.82L302.10 -31.82L302.10 -31.82Q306.80 -41.48 314.84 -48.69L314.84 -48.69ZM309.75 -6.58L309.75 -6.58L309.75 -6.58Q307.39 -6.58 304.94 -5.80L304.94 -5.80L304.94 -5.80Q306.38 -2.47 309.78 -2.47L309.78 -2.47L309.78 -2.47Q312.98 -2.47 312.98 -4.36L312.98 -4.36L312.98 -4.36Q312.98 -5.45 312.11 -6.02L312.11 -6.02L312.11 -6.02Q311.23 -6.58 309.75 -6.58ZM341.73 -20.47L341.73 -20.47L341.73 -20.47Q342.81 -20.67 343.91 -20.67L343.91 -20.67L343.91 -20.67Q345.91 -20.67 347.72 -19.49L347.72 -19.49L347.72 -19.49Q349.53 -18.31 350.59 -16.20L350.59 -16.20L350.59 -16.20Q351.64 -14.09 351.64 -11.36L351.64 -11.36L351.64 -11.36Q351.64 -1.80 343.98 6.15L343.98 6.15L343.98 6.15Q336.31 14.09 319.89 21.09L319.89 21.09L318.25 18.39L318.25 18.39Q332.20 12.52 338.76 5.64L338.76 5.64L338.76 5.64Q345.31 -1.23 345.31 -10.16L345.31 -10.16L345.31 -10.16Q345.31 -12.77 343.82 -14.41L343.82 -14.41L343.82 -14.41Q342.33 -16.06 339.94 -16.06L339.94 -16.06L339.94 -16.06Q338.17 -16.06 336.41 -15.47L336.41 -15.47L336.41 -15.47Q334.66 -14.88 333.47 -14.03L333.47 -14.03L330.91 -17.52L330.91 -17.52Q334.73 -19.72 336.70 -22.71L336.70 -22.71L336.70 -22.71Q338.67 -25.70 338.67 -29.25L338.67 -29.25L338.67 -29.25Q338.67 -34.39 333.36 -34.39L333.36 -34.39L333.36 -34.39Q330.06 -34.39 328.34 -32.82L328.34 -32.82L328.34 -32.82Q326.61 -31.25 326.02 -27.98L326.02 -27.98L322.47 -27.98L322.47 -27.98Q322.61 -32.91 325.80 -36.11L325.80 -36.11L325.80 -36.11Q329.00 -39.31 333.78 -39.31L333.78 -39.31L333.78 -39.31Q339.23 -39.31 342.12 -36.81L342.12 -36.81L342.12 -36.81Q345.00 -34.31 345.00 -29.67L345.00 -29.67L345.00 -29.67Q345.00 -27.17 344.14 -24.77L344.14 -24.77L344.14 -24.77Q343.28 -22.36 341.73 -20.47ZM371.09 -18.78L372.11 -15.02L372.11 -15.02Q370.91 -14.77 369.41 -14.77L369.41 -14.77L369.41 -14.77Q364.44 -14.77 360.98 -18.02L360.98 -18.02L360.98 -18.02Q357.52 -21.27 357.52 -26.13L357.52 -26.13L357.52 -26.13Q357.52 -29.75 359.38 -32.80L359.38 -32.80L359.38 -32.80Q361.25 -35.86 364.64 -37.59L364.64 -37.59L364.64 -37.59Q368.03 -39.31 372.31 -39.31L372.31 -39.31L372.31 -39.31Q380.80 -39.31 385.68 -33.91L385.68 -33.91L385.68 -33.91Q390.56 -28.52 390.56 -18.81L390.56 -18.81L390.56 -18.81Q390.56 -10.72 386.36 -3.05L386.36 -3.05L386.36 -3.05Q382.16 4.61 374.42 10.90L374.42 10.90L374.42 10.90Q366.69 17.19 356.70 21.09L356.70 21.09L355.06 18.39L355.06 18.39Q369.55 12.27 376.89 2.77L376.89 2.77L376.89 2.77Q384.23 -6.72 384.23 -18.98L384.23 -18.98L384.23 -18.98Q384.23 -26.38 381.18 -30.38L381.18 -30.38L381.18 -30.38Q378.13 -34.39 372.56 -34.39L372.56 -34.39L372.56 -34.39Q368.66 -34.39 366.25 -32.24L366.25 -32.24L366.25 -32.24Q363.84 -30.09 363.84 -26.19L363.84 -26.19L363.84 -26.19Q363.84 -22.50 365.34 -20.57L365.34 -20.57L365.34 -20.57Q366.83 -18.64 369.61 -18.64L369.61 -18.64L369.61 -18.64Q370.53 -18.64 371.09 -18.78L371.09 -18.78ZM407.25 -2.39L407.22 -2.39L400.89 -0.53L400.89 -0.53Q399.66 -3.91 398.94 -8.39L398.94 -8.39L398.94 -8.39Q398.22 -12.88 398.22 -16.91L398.22 -16.91L398.22 -16.91Q398.22 -23.77 400.47 -28.98L400.47 -28.98L400.47 -28.98Q402.72 -34.20 407.02 -37.11L407.02 -37.11L407.02 -37.11Q411.33 -40.02 417.20 -40.02L417.20 -40.02L417.20 -40.02Q424.59 -40.02 429.52 -34.31L429.52 -34.31L429.52 -34.31Q434.16 -37.69 439.39 -40.02L439.39 -40.02L440.77 -37.58L440.77 -37.58Q436.27 -34.98 431.66 -31.33L431.66 -31.33L431.66 -31.33Q434.86 -25.98 434.86 -19.06L434.86 -19.06L434.86 -19.06Q434.86 -10.41 431.74 -2.81L431.74 -2.81L431.74 -2.81Q428.63 4.78 422.63 10.70L422.63 10.70L422.63 10.70Q416.64 16.63 408.06 20.39L408.06 20.39L406.41 17.69L406.41 17.69Q417.80 12.09 423.16 3.30L423.16 3.30L423.16 3.30Q428.53 -5.48 428.53 -18.53L428.53 -18.53L428.53 -18.53Q428.53 -23.63 427.05 -27.39L427.05 -27.39L427.05 -27.39Q414.89 -16.34 407.25 -2.39L407.25 -2.39ZM404.55 -18.53L404.55 -18.53L404.55 -18.53Q404.55 -12.52 405.33 -8.27L405.33 -8.27L405.33 -8.27Q414.61 -22.05 425.16 -30.94L425.16 -30.94L425.16 -30.94Q421.92 -35.09 416.53 -35.09L416.53 -35.09L416.53 -35.09Q410.88 -35.09 407.71 -30.68L407.71 -30.68L407.71 -30.68Q404.55 -26.27 404.55 -18.53Z"/></svg>