<svg xmlns="http://www.w3.org/2000/svg" viewBox="0 -48.31 135.06 48.31" height="100%"><path fill="currentColor" d="M2.16 0.07L2.16 0.07L2.16 0.07Q2.16 -2.52 2.88 -5.69L2.88 -5.69L2.88 -5.69Q3.60 -8.86 5.18 -12.67L5.18 -12.67L10.37 -10.66L10.37 -10.66Q9.22 -7.63 8.64 -5.11L8.64 -5.11L8.64 -5.11Q8.06 -2.59 8.06 -0.43L8.06 -0.43L8.06 -0.43Q8.06 3.60 10.40 6.08L10.40 6.08L10.40 6.08Q12.74 8.57 16.60 9.72L16.60 9.72L16.60 9.72Q20.45 10.87 25.06 10.87L25.06 10.87L25.06 10.87Q30.60 10.87 35.17 9.61L35.17 9.61L35.17 9.61Q39.74 8.35 42.48 6.19L42.48 6.19L42.48 6.19Q45.22 4.03 45.22 1.44L45.22 1.44L45.22 1.44Q45.22 -0.43 42.34 -1.80L42.34 -1.80L42.34 -1.80Q39.46 -3.17 34.27 -4.61L34.27 -4.61L35.64 -10.58L35.64 -10.58Q43.06 -7.63 47.27 -6.59L47.27 -6.59L47.27 -6.59Q51.48 -5.54 53.71 -5.54L53.71 -5.54L53.71 -5.54Q55.22 -5.54 55.91 -4.72L55.91 -4.72L55.91 -4.72Q56.59 -3.89 56.59 -2.74L56.59 -2.74L56.59 -2.74Q56.59 -1.58 55.58 -0.61L55.58 -0.61L55.58 -0.61Q54.58 0.36 52.99 0.36L52.99 0.36L50.33 0.36L50.33 0.36Q50.40 1.01 50.51 1.40L50.51 1.40L50.51 1.40Q50.62 1.80 50.62 2.45L50.62 2.45L50.62 2.45Q50.62 5.98 47.38 9.25L47.38 9.25L47.38 9.25Q44.14 12.53 38.05 14.62L38.05 14.62L38.05 14.62Q31.97 16.70 23.47 16.70L23.47 16.70L23.47 16.70Q17.71 16.70 12.89 14.90L12.89 14.90L12.89 14.90Q8.06 13.10 5.11 9.40L5.11 9.40L5.11 9.40Q2.16 5.69 2.16 0.07ZM53.00 0.36L53.00 0.36L53.72 -5.54L53.72 -5.54Q57.18 -5.54 59.30 -5.98L59.30 -5.98L59.30 -5.98Q61.42 -6.41 62.36 -7.74L62.36 -7.74L62.36 -7.74Q63.30 -9.07 63.30 -11.74L63.30 -11.74L63.30 -11.74Q63.30 -14.40 62.04 -18.58L62.04 -18.58L62.04 -18.58Q60.78 -22.75 59.19 -26.86L59.19 -26.86L65.02 -29.02L65.02 -29.02Q65.96 -26.64 66.79 -23.72L66.79 -23.72L66.79 -23.72Q67.62 -20.81 68.19 -17.93L68.19 -17.93L68.19 -17.93Q68.77 -15.05 68.77 -12.89L68.77 -12.89L68.77 -12.89Q68.77 -5.62 64.92 -2.63L64.92 -2.63L64.92 -2.63Q61.06 0.36 53.00 0.36ZM60.70 13.75L60.70 13.75L60.70 13.75Q59.19 13.75 58.15 12.71L58.15 12.71L58.15 12.71Q57.10 11.66 57.10 10.22L57.10 10.22L57.10 10.22Q57.10 8.78 58.15 7.70L58.15 7.70L58.15 7.70Q59.19 6.62 60.70 6.62L60.70 6.62L60.70 6.62Q62.14 6.62 63.19 7.70L63.19 7.70L63.19 7.70Q64.23 8.78 64.23 10.22L64.23 10.22L64.23 10.22Q64.23 11.66 63.19 12.71L63.19 12.71L63.19 12.71Q62.14 13.75 60.70 13.75ZM72.29 16.70L72.29 16.70L70.20 11.23L70.20 11.23Q77.18 8.93 81.11 5.76L81.11 5.76L81.11 5.76Q85.03 2.59 86.65 -0.90L86.65 -0.90L86.65 -0.90Q88.27 -4.39 88.27 -7.70L88.27 -7.70L88.27 -7.70Q88.27 -11.23 86.72 -14.87L86.72 -14.87L86.72 -14.87Q85.18 -18.50 83.30 -21.74L83.30 -21.74L88.56 -24.41L88.56 -24.41Q90.58 -20.59 91.98 -17.06L91.98 -17.06L91.98 -17.06Q93.38 -13.54 94.18 -10.87L94.18 -10.87L94.18 -10.87Q95.18 -7.78 96.80 -6.66L96.80 -6.66L96.80 -6.66Q98.42 -5.54 101.23 -5.54L101.23 -5.54L101.23 -5.54Q102.74 -5.54 103.43 -4.72L103.43 -4.72L103.43 -4.72Q104.11 -3.89 104.11 -2.74L104.11 -2.74L104.11 -2.74Q104.11 -1.58 103.10 -0.61L103.10 -0.61L103.10 -0.61Q102.10 0.36 100.51 0.36L100.51 0.36L100.51 0.36Q97.78 0.36 95.94 -0.50L95.94 -0.50L95.94 -0.50Q94.10 -1.37 92.95 -2.81L92.95 -2.81L92.95 -2.81Q92.23 1.22 89.93 4.54L89.93 4.54L89.93 4.54Q87.62 7.85 84.53 10.33L84.53 10.33L84.53 10.33Q81.43 12.82 78.19 14.40L78.19 14.40L78.19 14.40Q74.95 15.98 72.29 16.70ZM101.00 0.36L101.00 0.36L101.72 -5.54L101.72 -5.54Q106.26 -5.54 108.74 -5.62L108.74 -5.62L108.74 -5.62Q111.22 -5.69 112.38 -5.80L112.38 -5.80L112.38 -5.80Q113.53 -5.90 113.96 -5.90L113.96 -5.90L113.96 -5.90Q112.66 -6.62 110.94 -8.17L110.94 -8.17L110.94 -8.17Q109.21 -9.72 107.91 -12.13L107.91 -12.13L107.91 -12.13Q106.62 -14.54 106.62 -17.86L106.62 -17.86L106.62 -17.86Q106.62 -21.89 108.52 -25.02L108.52 -25.02L108.52 -25.02Q110.43 -28.15 113.78 -29.88L113.78 -29.88L113.78 -29.88Q117.13 -31.61 121.45 -31.61L121.45 -31.61L121.45 -31.61Q124.90 -31.61 128.58 -30.46L128.58 -30.46L127.35 -24.91L127.35 -24.91Q124.33 -25.70 121.45 -25.70L121.45 -25.70L121.45 -25.70Q117.49 -25.70 115.00 -23.58L115.00 -23.58L115.00 -23.58Q112.52 -21.46 112.52 -17.86L112.52 -17.86L112.52 -17.86Q112.52 -15.48 113.74 -13.64L113.74 -13.64L113.74 -13.64Q114.97 -11.81 116.80 -10.55L116.80 -10.55L116.80 -10.55Q118.64 -9.29 120.62 -8.64L120.62 -8.64L120.62 -8.64Q122.60 -7.99 124.18 -8.06L124.18 -8.06L124.18 -8.06Q125.34 -8.42 126.31 -8.75L126.31 -8.75L126.31 -8.75Q127.28 -9.07 128.76 -9.65L128.76 -9.65L128.76 -9.65Q130.23 -10.22 133.04 -11.52L133.04 -11.52L135.06 -6.26L135.06 -6.26Q130.23 -4.32 125.23 -2.81L125.23 -2.81L125.23 -2.81Q120.22 -1.30 114.36 -0.47L114.36 -0.47L114.36 -0.47Q108.49 0.36 101.00 0.36Z"/></svg>