<svg xmlns="http://www.w3.org/2000/svg" viewBox="0 -101.05 253.88 101.05" height="100%"><path fill="currentColor" d="M41.73 -20.14L41.48 -20.11L41.48 -20.11Q40.67 -18.56 38.95 -16.10L38.95 -16.10L38.95 -16.10Q37.23 -13.64 35.33 -11.36L35.33 -11.36L35.33 -11.36Q34.20 -6.22 29.98 -3.11L29.98 -3.11L29.98 -3.11Q25.77 0.00 19.77 0.00L19.77 0.00L19.77 0.00Q12.91 0.00 8.56 -4.23L8.56 -4.23L8.56 -4.23Q4.22 -8.47 4.22 -15.19L4.22 -15.19L4.22 -15.19Q4.22 -21.66 8.51 -25.86L8.51 -25.86L8.51 -25.86Q12.80 -30.06 19.09 -30.06L19.09 -30.06L19.09 -30.06Q25.20 -30.06 29.48 -26.98L29.48 -26.98L29.48 -26.98Q33.75 -23.91 34.98 -18.73L34.98 -18.73L35.23 -18.73L35.23 -18.73Q36.59 -20.64 37.97 -23.10L37.97 -23.10L37.97 -23.10Q39.34 -25.56 40.58 -27.88L40.58 -27.88L44.66 -28.77L44.66 -28.77Q45.88 -25.91 46.63 -21.83L46.63 -21.83L46.63 -21.83Q47.39 -17.75 47.39 -14.45L47.39 -14.45L47.39 -14.45Q47.39 -10.20 47.01 -6.55L47.01 -6.55L47.01 -6.55Q46.63 -2.89 45.67 0.53L45.67 0.53L41.03 -0.28L41.03 -0.28Q41.66 -3.41 42.03 -7.13L42.03 -7.13L42.03 -7.13Q42.41 -10.86 42.41 -13.64L42.41 -13.64L42.41 -13.64Q42.41 -15.61 42.23 -17.45L42.23 -17.45L42.23 -17.45Q42.05 -19.30 41.73 -20.14L41.73 -20.14ZM30.45 -14.94L30.45 -14.94Q30.45 -19.27 27.32 -22.02L27.32 -22.02L27.32 -22.02Q24.19 -24.78 19.09 -24.78L19.09 -24.78L19.09 -24.78Q15.02 -24.78 12.23 -22.22L12.23 -22.22L12.23 -22.22Q9.45 -19.66 9.45 -15.58L9.45 -15.58L9.45 -15.58Q9.45 -11.14 12.41 -8.30L12.41 -8.30L12.41 -8.30Q15.36 -5.45 20.47 -5.45L20.47 -5.45L20.47 -5.45Q24.92 -5.45 27.69 -8.05L27.69 -8.05L27.69 -8.05Q30.45 -10.66 30.45 -14.94L30.45 -14.94ZM62.73 9.39L62.73 9.39L59.05 6.25L59.05 6.25Q60.73 4.70 62.46 3.04L62.46 3.04L62.46 3.04Q64.19 1.38 65.48 -0.31L65.48 -0.31L65.48 -0.31Q65.31 -1.27 62.95 -2.90L62.95 -2.90L62.95 -2.90Q60.59 -4.53 59.26 -6.66L59.26 -6.66L59.26 -6.66Q57.92 -8.80 57.92 -11.36L57.92 -11.36L57.92 -11.36Q57.92 -14.66 60.42 -17.54L60.42 -17.54L60.42 -17.54Q62.92 -20.42 66.47 -20.42L66.47 -20.42L66.47 -20.42Q70.27 -20.42 72.66 -17.73L72.66 -17.73L72.66 -17.73Q75.05 -15.05 75.05 -10.41L75.05 -10.41L75.05 -10.41Q75.05 -5.70 71.90 -0.66L71.90 -0.66L71.90 -0.66Q68.75 4.39 62.73 9.39ZM89.00 16.67L89.00 16.67Q90.80 16.67 91.77 17.70L91.77 17.70L91.77 17.70Q92.73 18.73 92.73 20.75L92.73 20.75L92.73 20.75Q92.73 22.72 91.75 23.75L91.75 23.75L91.75 23.75Q90.77 24.78 89.00 24.78L89.00 24.78L89.00 24.78Q87.45 24.78 86.45 23.85L86.45 23.85L86.45 23.85Q85.45 22.92 85.45 20.75L85.45 20.75L85.45 20.75Q85.45 18.73 86.38 17.70L86.38 17.70L86.38 17.70Q87.31 16.67 89.00 16.67L89.00 16.67ZM88.08 11.64L84.98 8.36L84.98 8.36Q86.67 6.61 87.94 4.63L87.94 4.63L87.94 4.63Q89.20 2.64 89.20 1.52L89.20 1.52L89.20 1.52Q89.02 0.59 88.11 -0.28L88.11 -0.28L86.17 -2.08L86.17 -2.08Q84.94 -3.27 84.43 -4.46L84.43 -4.46L84.43 -4.46Q83.92 -5.66 83.92 -7.25L83.92 -7.25L83.92 -7.25Q83.92 -9.56 85.58 -11.22L85.58 -11.22L85.58 -11.22Q87.23 -12.88 89.58 -12.88L89.58 -12.88L89.58 -12.88Q91.73 -12.88 93.26 -11.85L93.26 -11.85L93.26 -11.85Q94.78 -10.83 96.02 -8.98L96.02 -8.98L96.02 -8.98Q97.25 -7.14 98.67 -6.30L98.67 -6.30L98.67 -6.30Q100.09 -5.45 103.19 -5.45L103.19 -5.45L103.19 0.00L103.19 0.00Q101.72 0.00 100.10 -0.04L100.10 -0.04L100.10 -0.04Q98.48 -0.08 96.83 -0.25L96.83 -0.25L96.83 -0.25Q95.59 3.38 93.26 6.34L93.26 6.34L93.26 6.34Q90.92 9.31 88.08 11.64L88.08 11.64ZM135.00 3.86L135.00 3.86Q136.06 3.86 136.87 4.59L136.87 4.59L136.87 4.59Q137.67 5.33 137.67 6.81L137.67 6.81L137.67 6.81Q137.67 8.25 136.87 9.01L136.87 9.01L136.87 9.01Q136.06 9.77 135.00 9.77L135.00 9.77L135.00 9.77Q133.81 9.77 133.04 9.01L133.04 9.01L133.04 9.01Q132.27 8.25 132.27 6.81L132.27 6.81L132.27 6.81Q132.27 5.33 133.04 4.59L133.04 4.59L133.04 4.59Q133.81 3.86 135.00 3.86L135.00 3.86ZM129.89 -9.98L135.84 -5.45L148.45 -5.45L148.45 0.00L148.11 0.00L148.11 0.00Q147.44 0.00 146.30 -0.11L146.30 -0.11L146.30 -0.11Q145.16 -0.22 143.61 -0.45L143.61 -0.45L141.89 -0.73L141.89 -0.53L141.89 -0.53Q142.20 -0.36 143.08 0.20L143.08 0.20L145.02 1.47L145.02 1.47Q146.03 2.17 146.96 2.83L146.96 2.83L146.96 2.83Q147.89 3.48 148.31 3.80L148.31 3.80L158.52 11.42L158.52 11.42Q160.73 13.08 161.66 14.80L161.66 14.80L161.66 14.80Q162.59 16.52 162.59 18.63L162.59 18.63L162.59 18.63Q162.59 22.53 159.45 25.34L159.45 25.34L159.45 25.34Q156.30 28.16 151.03 28.16L151.03 28.16L151.03 28.16Q148.42 28.16 145.63 27.09L145.63 27.09L145.63 27.09Q142.83 26.02 139.56 23.59L139.56 23.59L112.92 3.66L112.92 3.66Q109.89 1.44 107.98 0.72L107.98 0.72L107.98 0.72Q106.06 0.00 104.23 0.00L104.23 0.00L103.00 0.00L103.00 0.00Q101.84 0.00 101.02 -0.74L101.02 -0.74L101.02 -0.74Q100.19 -1.48 100.19 -2.75L100.19 -2.75L100.19 -2.75Q100.19 -4.02 101.02 -4.73L101.02 -4.73L101.02 -4.73Q101.84 -5.45 103.00 -5.45L103.00 -5.45L104.86 -5.45L104.86 -5.45Q107.16 -5.45 109.65 -4.61L109.65 -4.61L109.65 -4.61Q112.14 -3.77 116.47 -0.64L116.47 -0.64L143.61 19.69L143.61 19.69Q145.22 20.92 147.03 21.81L147.03 21.81L147.03 21.81Q148.84 22.70 151.20 22.70L151.20 22.70L151.20 22.70Q153.80 22.70 155.45 21.53L155.45 21.53L155.45 21.53Q157.11 20.36 157.11 18.63L157.11 18.63L157.11 18.63Q157.11 17.83 156.67 17.14L156.67 17.14L156.67 17.14Q156.23 16.45 155.42 15.86L155.42 15.86L126.66 -5.45L129.89 -9.98ZM155.03 -5.45L155.03 0.00L148.00 0.00L148.00 0.00Q146.84 0.00 146.02 -0.72L146.02 -0.72L146.02 -0.72Q145.19 -1.44 145.19 -2.70L145.19 -2.70L145.19 -2.70Q145.19 -3.97 146.02 -4.71L146.02 -4.71L146.02 -4.71Q146.84 -5.45 148.00 -5.45L148.00 -5.45L155.03 -5.45ZM181.89 -9.98L187.84 -5.45L200.45 -5.45L200.45 0.00L200.11 0.00L200.11 0.00Q199.44 0.00 198.30 -0.11L198.30 -0.11L198.30 -0.11Q197.16 -0.22 195.61 -0.45L195.61 -0.45L193.89 -0.73L193.89 -0.53L193.89 -0.53Q194.20 -0.36 195.08 0.20L195.08 0.20L197.02 1.47L197.02 1.47Q198.03 2.17 198.96 2.83L198.96 2.83L198.96 2.83Q199.89 3.48 200.31 3.80L200.31 3.80L210.52 11.42L210.52 11.42Q212.73 13.08 213.66 14.80L213.66 14.80L213.66 14.80Q214.59 16.52 214.59 18.63L214.59 18.63L214.59 18.63Q214.59 22.53 211.45 25.34L211.45 25.34L211.45 25.34Q208.30 28.16 203.03 28.16L203.03 28.16L203.03 28.16Q200.42 28.16 197.63 27.09L197.63 27.09L197.63 27.09Q194.83 26.02 191.56 23.59L191.56 23.59L164.92 3.66L164.92 3.66Q161.89 1.44 159.98 0.72L159.98 0.72L159.98 0.72Q158.06 0.00 156.23 0.00L156.23 0.00L155.00 0.00L155.00 0.00Q153.84 0.00 153.02 -0.74L153.02 -0.74L153.02 -0.74Q152.19 -1.48 152.19 -2.75L152.19 -2.75L152.19 -2.75Q152.19 -4.02 153.02 -4.73L153.02 -4.73L153.02 -4.73Q153.84 -5.45 155.00 -5.45L155.00 -5.45L156.86 -5.45L156.86 -5.45Q159.16 -5.45 161.65 -4.61L161.65 -4.61L161.65 -4.61Q164.14 -3.77 168.47 -0.64L168.47 -0.64L195.61 19.69L195.61 19.69Q197.22 20.92 199.03 21.81L199.03 21.81L199.03 21.81Q200.84 22.70 203.20 22.70L203.20 22.70L203.20 22.70Q205.80 22.70 207.45 21.53L207.45 21.53L207.45 21.53Q209.11 20.36 209.11 18.63L209.11 18.63L209.11 18.63Q209.11 17.83 208.67 17.14L208.67 17.14L208.67 17.14Q208.23 16.45 207.42 15.86L207.42 15.86L178.66 -5.45L181.89 -9.98ZM220.28 0.00L193.00 0.00L193.00 0.00Q191.84 0.00 191.02 -0.72L191.02 -0.72L191.02 -0.72Q190.19 -1.44 190.19 -2.70L190.19 -2.70L190.19 -2.70Q190.19 -3.97 191.02 -4.71L191.02 -4.71L191.02 -4.71Q191.84 -5.45 193.00 -5.45L193.00 -5.45L221.38 -5.45L221.38 -5.45Q223.73 -5.45 225.09 -6.54L225.09 -6.54L225.09 -6.54Q226.44 -7.63 226.44 -9.67L226.44 -9.67L226.44 -9.67Q226.44 -15.47 220.32 -19.95L220.32 -19.95L220.32 -19.95Q214.20 -24.44 206.39 -24.44L206.39 -24.44L206.39 -24.44Q204.75 -24.44 202.30 -24.07L202.30 -24.07L202.30 -24.07Q199.86 -23.70 198.38 -23.23L198.38 -23.23L197.19 -27.84L197.19 -27.84Q198.73 -28.58 201.81 -29.18L201.81 -29.18L201.81 -29.18Q204.89 -29.78 207.14 -29.78L207.14 -29.78L207.14 -29.78Q217.08 -29.78 224.41 -23.89L224.41 -23.89L224.41 -23.89Q231.75 -18.00 231.75 -9.42L231.75 -9.42L231.75 -9.42Q231.75 -4.81 228.87 -2.41L228.87 -2.41L228.87 -2.41Q225.98 0.00 220.28 0.00L220.28 0.00ZM244.92 -71.13L246.83 -72.89L246.83 -72.89Q248.30 -71.66 248.86 -70.48L248.86 -70.48L248.86 -70.48Q249.42 -69.30 249.42 -67.86L249.42 -67.86L249.42 -67.86Q249.42 -65.78 248.35 -63.02L248.35 -63.02L248.35 -63.02Q247.28 -60.27 247.25 -58.83L247.25 -58.83L247.22 -57.95L247.22 -57.95Q247.22 -57.25 247.34 -56.52L247.34 -56.52L247.34 -56.52Q247.45 -55.80 247.92 -54.47L247.92 -54.47L245.59 -53.41L245.59 -53.41Q244.50 -55.45 244.50 -57.77L244.50 -57.77L244.50 -57.77Q244.50 -60.23 245.65 -63.05L245.65 -63.05L245.65 -63.05Q246.80 -65.86 246.80 -67.52L246.80 -67.52L246.80 -67.52Q246.80 -68.45 246.34 -69.39L246.34 -69.39L246.34 -69.39Q245.88 -70.33 244.92 -71.13L244.92 -71.13ZM246.95 -48.94L247.27 -48.97L247.27 -48.97Q250.64 -46.16 252.26 -43.13L252.26 -43.13L252.26 -43.13Q253.88 -40.11 253.88 -35.83L253.88 -35.83L253.88 -35.83Q253.88 -32.45 253.03 -29.04L253.03 -29.04L253.03 -29.04Q252.19 -25.63 250.78 -22.02L250.78 -22.02L250.78 -22.02Q249.38 -18.42 248.53 -15.24L248.53 -15.24L248.53 -15.24Q247.69 -12.06 247.69 -8.19L247.69 -8.19L247.69 -8.19Q247.69 -4.47 248.23 -1.81L248.23 -1.81L248.23 -1.81Q248.78 0.84 249.91 3.80L249.91 3.80L246.25 6.47L245.27 6.47L245.27 6.47Q243.89 3.97 243.09 0.47L243.09 0.47L243.09 0.47Q242.28 -3.03 242.28 -7.39L242.28 -7.39L242.28 -7.39Q242.28 -14.59 245.49 -22.38L245.49 -22.38L245.49 -22.38Q248.70 -30.17 248.70 -35.05L248.70 -35.05L248.70 -35.05Q248.70 -37.55 247.79 -39.52L247.79 -39.52L247.79 -39.52Q246.88 -41.48 243.50 -44.86L243.50 -44.86L246.95 -48.94Z"/></svg>