<svg xmlns="http://www.w3.org/2000/svg" viewBox="0 -49.67 474.86 49.67" height="100%"><path fill="currentColor" d="M4.47 -9.00L0.22 -13.75L30.52 -40.75L34.77 -35.94L4.47 -9.00ZM18.36 -0.08L14.03 -4.81L44.30 -31.75L48.59 -26.94L18.36 -0.08ZM54.63 0.00L50.38 -4.75L68.23 -20.95L68.23 -20.95Q70.91 -23.34 73.17 -24.77L73.17 -24.77L73.17 -24.77Q75.44 -26.19 78.47 -26.19L78.47 -26.19L78.47 -26.19Q81.03 -26.19 83.13 -24.95L83.13 -24.95L83.13 -24.95Q85.22 -23.70 87.95 -20.39L87.95 -20.39L94.95 -12.38L94.95 -12.38Q97.23 -9.64 98.82 -8.28L98.82 -8.28L98.82 -8.28Q100.41 -6.92 102.30 -6.92L102.30 -6.92L102.30 -6.92Q104.16 -6.92 105.74 -7.96L105.74 -7.96L105.74 -7.96Q107.33 -9.00 109.61 -11.33L109.61 -11.33L109.92 -11.67L109.92 -11.67Q112.28 -14.03 112.28 -16.14L112.28 -16.14L112.28 -16.14Q112.28 -17.38 111.86 -18.34L111.86 -18.34L111.86 -18.34Q111.44 -19.30 110.38 -20.60L110.38 -20.60L110.38 -20.60Q109.33 -21.91 91.55 -42.13L91.55 -42.13L95.58 -45.64L114.22 -24.47L114.22 -24.47Q116.39 -22.05 117.59 -20.16L117.59 -20.16L117.59 -20.16Q118.78 -18.28 118.78 -15.78L118.78 -15.78L118.78 -15.78Q118.78 -13.39 118.06 -11.74L118.06 -11.74L118.06 -11.74Q117.34 -10.09 115.87 -8.51L115.87 -8.51L115.87 -8.51Q114.39 -6.92 111.76 -4.63L111.76 -4.63L111.76 -4.63Q109.13 -2.33 107.33 -1.41L107.33 -1.41L107.33 -1.41Q105.53 -0.50 102.66 -0.36L102.66 -0.36L102.66 -0.36Q99.48 -0.36 97.43 -2.05L97.43 -2.05L97.43 -2.05Q95.38 -3.73 93.19 -6.19L93.19 -6.19L86.23 -14.17L86.23 -14.17Q83.91 -16.91 82.33 -18.31L82.33 -18.31L82.33 -18.31Q80.75 -19.72 78.89 -19.72L78.89 -19.72L78.89 -19.72Q77.02 -19.72 75.47 -18.62L75.47 -18.62L75.47 -18.62Q73.92 -17.52 71.53 -15.27L71.53 -15.27L54.63 0.00ZM74.28 -4.89L74.28 -4.89L74.28 -4.89Q74.28 -9.70 78.67 -9.70L78.67 -9.70L78.67 -9.70Q83.20 -9.70 83.20 -4.89L83.20 -4.89L83.20 -4.89Q83.20 -2.33 81.87 -1.16L81.87 -1.16L81.87 -1.16Q80.53 0.00 78.67 0.00L78.67 0.00L78.67 0.00Q74.28 0.00 74.28 -4.89ZM134.44 -35.94L138.48 -39.38L169.64 -3.38L165.77 0.00L149.98 -18.00L129.91 0.00L125.66 -4.75L145.83 -22.75L134.44 -35.94ZM223.58 -13.53L219.61 -9.64L209.70 -21.09L209.70 -21.09Q207.31 -23.77 205.77 -25.21L205.77 -25.21L205.77 -25.21Q204.22 -26.66 202.34 -26.66L202.34 -26.66L202.34 -26.66Q200.48 -26.66 198.94 -25.53L198.94 -25.53L198.94 -25.53Q197.39 -24.41 195.00 -22.19L195.00 -22.19L194.44 -21.66L194.44 -21.66Q197.08 -21.45 198.78 -20.01L198.78 -20.01L198.78 -20.01Q200.48 -18.56 202.42 -16.56L202.42 -16.56L213.64 -3.91L209.77 0.00L199.39 -11.81L199.39 -11.81Q197.08 -14.48 195.49 -15.89L195.49 -15.89L195.49 -15.89Q193.91 -17.30 192.05 -17.30L192.05 -17.30L192.05 -17.30Q189.73 -17.30 186.64 -14.63L186.64 -14.63L173.63 -2.81L169.38 -7.56L191.70 -27.81L191.70 -27.81Q194.38 -30.17 196.64 -31.65L196.64 -31.65L196.64 -31.65Q198.91 -33.13 201.92 -33.13L201.92 -33.13L201.92 -33.13Q204.22 -33.13 206.23 -32.02L206.23 -32.02L206.23 -32.02Q208.25 -30.91 211.42 -27.28L211.42 -27.28L223.58 -13.53ZM227.63 0.00L223.38 -4.75L241.23 -20.95L241.23 -20.95Q243.91 -23.34 246.17 -24.77L246.17 -24.77L246.17 -24.77Q248.44 -26.19 251.47 -26.19L251.47 -26.19L251.47 -26.19Q254.03 -26.19 256.13 -24.95L256.13 -24.95L256.13 -24.95Q258.22 -23.70 260.95 -20.39L260.95 -20.39L267.95 -12.38L267.95 -12.38Q270.23 -9.64 271.82 -8.28L271.82 -8.28L271.82 -8.28Q273.41 -6.92 275.30 -6.92L275.30 -6.92L275.30 -6.92Q277.16 -6.92 278.74 -7.96L278.74 -7.96L278.74 -7.96Q280.33 -9.00 282.61 -11.33L282.61 -11.33L282.92 -11.67L282.92 -11.67Q285.28 -14.03 285.28 -16.14L285.28 -16.14L285.28 -16.14Q285.28 -17.38 284.86 -18.34L284.86 -18.34L284.86 -18.34Q284.44 -19.30 283.38 -20.60L283.38 -20.60L283.38 -20.60Q282.33 -21.91 264.55 -42.13L264.55 -42.13L268.58 -45.64L287.22 -24.47L287.22 -24.47Q289.39 -22.05 290.59 -20.16L290.59 -20.16L290.59 -20.16Q291.78 -18.28 291.78 -15.78L291.78 -15.78L291.78 -15.78Q291.78 -13.39 291.06 -11.74L291.06 -11.74L291.06 -11.74Q290.34 -10.09 288.87 -8.51L288.87 -8.51L288.87 -8.51Q287.39 -6.92 284.76 -4.63L284.76 -4.63L284.76 -4.63Q282.13 -2.33 280.33 -1.41L280.33 -1.41L280.33 -1.41Q278.53 -0.50 275.66 -0.36L275.66 -0.36L275.66 -0.36Q272.48 -0.36 270.43 -2.05L270.43 -2.05L270.43 -2.05Q268.38 -3.73 266.19 -6.19L266.19 -6.19L259.23 -14.17L259.23 -14.17Q256.91 -16.91 255.33 -18.31L255.33 -18.31L255.33 -18.31Q253.75 -19.72 251.89 -19.72L251.89 -19.72L251.89 -19.72Q250.02 -19.72 248.47 -18.62L248.47 -18.62L248.47 -18.62Q246.92 -17.52 244.53 -15.27L244.53 -15.27L227.63 0.00ZM302.91 0.00L298.66 -4.75L318.66 -22.67L316.38 -25.42L316.38 -25.42Q314.19 -27.88 312.95 -29.74L312.95 -29.74L312.95 -29.74Q311.70 -31.61 311.70 -34.28L311.70 -34.28L311.70 -34.28Q311.70 -36.88 313.00 -39.22L313.00 -39.22L313.00 -39.22Q314.30 -41.56 318.04 -44.76L318.04 -44.76L318.04 -44.76Q321.78 -47.95 323.72 -48.81L323.72 -48.81L323.72 -48.81Q325.66 -49.67 327.91 -49.67L327.91 -49.67L327.91 -49.67Q329.63 -49.67 331.03 -49.13L331.03 -49.13L331.03 -49.13Q332.44 -48.59 333.69 -47.55L333.69 -47.55L333.69 -47.55Q334.94 -46.52 346.81 -32.98L346.81 -32.98L342.70 -29.39L335.33 -37.86L335.33 -37.86Q333.28 -40.25 331.70 -41.66L331.70 -41.66L331.70 -41.66Q330.13 -43.06 328.39 -43.06L328.39 -43.06L328.39 -43.06Q326.75 -43.06 325.63 -42.48L325.63 -42.48L325.63 -42.48Q324.50 -41.91 322.20 -39.83L322.20 -39.83L322.20 -39.83Q318.17 -36.56 318.17 -33.86L318.17 -33.86L318.17 -33.86Q318.17 -32.09 319.30 -30.52L319.30 -30.52L319.30 -30.52Q320.42 -28.94 322.70 -26.30L322.70 -26.30L342.64 -3.38L338.77 0.00L322.91 -17.94L302.91 0.00ZM347.09 -29.47L351.09 -33.13L369.63 -12.03L369.63 -12.03Q371.91 -9.36 373.45 -7.91L373.45 -7.91L373.45 -7.91Q375.00 -6.47 376.91 -6.47L376.91 -6.47L376.91 -6.47Q378.77 -6.47 380.31 -7.59L380.31 -7.59L380.31 -7.59Q381.86 -8.72 384.22 -10.94L384.22 -10.94L408.66 -33.13L412.97 -28.38L387.56 -5.28L387.56 -5.28Q384.89 -2.89 382.62 -1.45L382.62 -1.45L382.62 -1.45Q380.34 0.00 377.33 0.00L377.33 0.00L377.33 0.00Q374.86 0.00 372.93 -1.07L372.93 -1.07L372.93 -1.07Q371.00 -2.14 367.83 -5.84L367.83 -5.84L347.09 -29.47ZM419.91 0.00L415.66 -4.75L435.83 -22.75L424.44 -35.94L428.48 -39.38L452.00 -12.17L452.00 -12.17Q454.11 -9.81 455.73 -8.44L455.73 -8.44L455.73 -8.44Q457.34 -7.06 459.22 -7.06L459.22 -7.06L459.22 -7.06Q460.58 -7.06 461.66 -7.59L461.66 -7.59L461.66 -7.59Q462.73 -8.13 464.82 -9.94L464.82 -9.94L464.82 -9.94Q466.91 -11.75 467.59 -12.71L467.59 -12.71L467.59 -12.71Q468.28 -13.67 468.36 -15.55L468.36 -15.55L468.36 -15.55Q468.36 -16.63 467.90 -17.75L467.90 -17.75L467.90 -17.75Q467.44 -18.88 466.28 -20.35L466.28 -20.35L466.28 -20.35Q465.13 -21.83 453.03 -36.08L453.03 -36.08L457.00 -39.38L470.33 -24.13L470.33 -24.13Q472.81 -21.23 473.84 -19.34L473.84 -19.34L473.84 -19.34Q474.86 -17.44 474.86 -15.13L474.86 -15.13L474.86 -15.13Q474.69 -12.45 473.89 -10.70L473.89 -10.70L473.89 -10.70Q473.09 -8.94 470.41 -6.38L470.41 -6.38L470.41 -6.38Q467.72 -3.83 465.23 -2.16L465.23 -2.16L465.23 -2.16Q462.73 -0.50 459.70 -0.50L459.70 -0.50L459.70 -0.50Q457.28 -0.50 455.40 -1.52L455.40 -1.52L455.40 -1.52Q453.52 -2.53 450.14 -6.33L450.14 -6.33L439.98 -18.00L419.91 0.00Z"/></svg>