<svg xmlns="http://www.w3.org/2000/svg" viewBox="0 -55.52 456.13 55.52" height="100%"><path fill="currentColor" d="M7.28 -5.70L26.66 -5.70L29.75 -14.84L36.50 -14.84L31.61 0.00L-1.58 0.00L15.41 -51.41L31.25 -51.41L29.39 -45.70L20.47 -45.70L7.28 -5.70ZM46.61 0.00L61.66 -45.70L45.17 -45.70L47.06 -51.41L70.73 -51.41L55.61 -5.70L77.30 -5.70L72.91 -9.56L72.91 -9.56Q68.66 -13.39 68.66 -17.19L68.66 -17.19L68.66 -17.19Q68.66 -21.03 71.20 -23.16L71.20 -23.16L71.20 -23.16Q73.75 -25.28 78.47 -25.28L78.47 -25.28L94.81 -25.28L92.91 -19.58L78.53 -19.58L78.53 -19.58Q75.30 -19.58 75.30 -16.98L75.30 -16.98L75.30 -16.98Q75.30 -15.50 78.89 -12.45L78.89 -12.45L88.45 -3.91L87.14 0.00L46.61 0.00ZM136.70 -30.38L136.70 -30.38L136.70 -30.38Q141.94 -30.38 146.23 -28.49L146.23 -28.49L146.23 -28.49Q150.52 -26.61 152.89 -23.30L152.89 -23.30L152.89 -23.30Q155.27 -20.00 155.27 -16.06L155.27 -16.06L155.27 -16.06Q155.27 -10.80 152.36 -6.89L152.36 -6.89L152.36 -6.89Q149.45 -2.98 144.15 -1.02L144.15 -1.02L144.15 -1.02Q138.84 0.95 131.42 0.95L131.42 0.95L131.42 0.95Q116.59 0.95 108.65 -6.75L108.65 -6.75L108.65 -6.75Q100.70 -14.45 100.70 -28.38L100.70 -28.38L100.70 -28.38Q100.70 -34.06 102.35 -39.76L102.35 -39.76L102.35 -39.76Q104.00 -45.45 106.95 -49.81L106.95 -49.81L108.58 -52.17L109.17 -52.98L116.83 -52.98L114.44 -49.53L114.44 -49.53Q110.72 -44.27 109.19 -39.16L109.19 -39.16L109.19 -39.16Q107.66 -34.06 107.66 -28.38L107.66 -28.38L107.66 -28.38Q107.66 -16.98 113.77 -10.97L113.77 -10.97L113.77 -10.97Q119.89 -4.95 131.42 -4.95L131.42 -4.95L131.42 -4.95Q136.48 -4.95 140.25 -6.34L140.25 -6.34L140.25 -6.34Q144.02 -7.73 146.03 -10.28L146.03 -10.28L146.03 -10.28Q148.05 -12.83 148.05 -16.06L148.05 -16.06L148.05 -16.06Q148.05 -20.22 143.87 -22.68L143.87 -22.68L143.87 -22.68Q139.69 -25.14 133.00 -25.14L133.00 -25.14L126.25 -25.14L127.91 -30.38L144.47 -45.70L123.16 -45.70L124.95 -51.41L155.05 -51.41L154.56 -46.94L144.53 -37.66L144.53 -37.66Q148.61 -38.75 151.00 -38.75L151.00 -38.75L151.00 -38.75Q153.39 -38.75 155.13 -38.05L155.13 -38.05L155.13 -38.05Q156.88 -37.34 157.84 -36.16L157.84 -36.16L157.84 -36.16Q158.81 -34.98 158.81 -33.69L158.81 -33.69L158.81 -33.69Q158.81 -32.34 157.93 -31.54L157.93 -31.54L157.93 -31.54Q157.05 -30.73 155.61 -30.73L155.61 -30.73L155.61 -30.73Q154.42 -30.73 153.65 -31.33L153.65 -31.33L153.65 -31.33Q152.88 -31.92 151.99 -32.64L151.99 -32.64L151.99 -32.64Q151.11 -33.36 149.91 -33.96L149.91 -33.96L149.91 -33.96Q148.72 -34.56 146.69 -34.56L146.69 -34.56L146.69 -34.56Q143.91 -34.56 141.50 -33.59L141.50 -33.59L141.50 -33.59Q139.09 -32.63 136.70 -30.38ZM179.50 -35.72L182.91 -45.70L175.56 -45.70L179.50 -35.72ZM176.61 -5.70L190.00 -5.70L193.98 -16.77L193.98 -16.77Q195.17 -20.14 196.77 -21.97L196.77 -21.97L196.77 -21.97Q198.38 -23.80 200.77 -24.78L200.77 -24.78L200.77 -24.78Q203.16 -25.77 206.50 -25.77L206.50 -25.77L206.50 -25.77Q210.58 -25.77 213.23 -23.70L213.23 -23.70L213.23 -23.70Q215.88 -21.63 215.88 -18.45L215.88 -18.45L215.88 -18.45Q215.88 -17.13 215.36 -15.55L215.36 -15.55L210.19 0.00L203.47 0.00L207.72 -13.19L207.72 -13.19Q207.94 -13.86 208.18 -14.63L208.18 -14.63L208.18 -14.63Q208.42 -15.41 208.56 -16.18L208.56 -16.18L208.56 -16.18Q208.70 -16.95 208.70 -17.69L208.70 -17.69L208.70 -17.69Q208.64 -20.14 205.52 -20.14L205.52 -20.14L205.52 -20.14Q203.72 -20.14 202.51 -19.07L202.51 -19.07L202.51 -19.07Q201.30 -18.00 200.38 -15.27L200.38 -15.27L195.06 0.00L167.61 0.00L176.69 -27.08L166.91 -51.41L191.83 -51.41L176.61 -5.70ZM270.41 -45.70L268.61 -45.70L268.61 -45.70Q257.42 -45.70 252.29 -43.23L252.29 -43.23L252.29 -43.23Q247.16 -40.75 247.16 -35.80L247.16 -35.80L247.16 -35.80Q247.16 -32.45 249.22 -30.64L249.22 -30.64L249.22 -30.64Q251.28 -28.83 255.76 -28.02L255.76 -28.02L255.76 -28.02Q260.23 -27.22 267.97 -27.22L267.97 -27.22L272.86 -27.22L272.86 -24.78L272.86 -24.78Q272.86 -17.44 269.88 -11.55L269.88 -11.55L269.88 -11.55Q266.89 -5.66 261.37 -2.35L261.37 -2.35L261.37 -2.35Q255.84 0.95 248.53 0.95L248.53 0.95L248.53 0.95Q240.23 0.95 234.27 -2.53L234.27 -2.53L234.27 -2.53Q228.31 -6.02 225.06 -12.94L225.06 -12.94L225.06 -12.94Q221.81 -19.86 221.81 -29.08L221.81 -29.08L221.81 -32.56L228.81 -32.56L228.81 -30.31L228.81 -30.31Q228.81 -18.39 234.05 -11.67L234.05 -11.67L234.05 -11.67Q239.28 -4.95 248.53 -4.95L248.53 -4.95L248.53 -4.95Q252.75 -4.95 256.59 -7.09L256.59 -7.09L256.59 -7.09Q260.42 -9.22 262.97 -13.13L262.97 -13.13L262.97 -13.13Q265.52 -17.05 265.52 -20.89L265.52 -20.89L265.52 -20.89Q252.44 -20.89 246.20 -24.49L246.20 -24.49L246.20 -24.49Q239.95 -28.09 239.95 -35.58L239.95 -35.58L239.95 -35.58Q239.95 -43.45 247.09 -47.43L247.09 -47.43L247.09 -47.43Q254.23 -51.41 269.03 -51.41L269.03 -51.41L272.30 -51.41L270.41 -45.70ZM331.38 -34.98L316.81 -27.42L316.81 -27.42Q324.63 -27.42 329.00 -23.82L329.00 -23.82L329.00 -23.82Q333.38 -20.22 333.38 -13.89L333.38 -13.89L333.38 -13.89Q333.38 -9.39 330.88 -6.09L330.88 -6.09L330.88 -6.09Q328.39 -2.78 323.54 -0.91L323.54 -0.91L323.54 -0.91Q318.69 0.95 311.80 0.95L311.80 0.95L311.80 0.95Q302.44 0.95 295.69 -2.46L295.69 -2.46L295.69 -2.46Q288.94 -5.88 285.32 -12.54L285.32 -12.54L285.32 -12.54Q281.70 -19.20 281.70 -28.38L281.70 -28.38L281.70 -28.38Q281.70 -34.06 283.35 -39.76L283.35 -39.76L283.35 -39.76Q285.00 -45.45 287.95 -49.81L287.95 -49.81L289.58 -52.17L290.17 -52.98L297.83 -52.98L295.44 -49.53L295.44 -49.53Q291.72 -44.27 290.19 -39.16L290.19 -39.16L290.19 -39.16Q288.66 -34.06 288.66 -28.38L288.66 -28.38L288.66 -28.38Q288.66 -17.38 294.70 -11.16L294.70 -11.16L294.70 -11.16Q300.75 -4.95 311.80 -4.95L311.80 -4.95L311.80 -4.95Q318.36 -4.95 322.27 -7.40L322.27 -7.40L322.27 -7.40Q326.17 -9.84 326.17 -13.89L326.17 -13.89L326.17 -13.89Q326.17 -18.25 323.04 -20.22L323.04 -20.22L323.04 -20.22Q319.91 -22.19 313.44 -22.19L313.44 -22.19L306.03 -22.19L308.03 -28.44L320.30 -34.77L302.44 -34.77L304.23 -40.47L332.00 -40.47L331.38 -34.98ZM312.88 -54.56L319.28 -48.17L325.67 -54.56L332.39 -54.56L321.64 -43.63L316.89 -43.63L306.17 -54.56L312.88 -54.56ZM369.73 -51.41L352.61 0.00L345.47 0.00L360.91 -45.70L344.42 -45.70L346.28 -51.41L369.73 -51.41ZM398.84 -51.41L381.69 0.00L374.58 0.00L389.98 -45.70L373.48 -45.70L375.36 -51.41L398.84 -51.41ZM456.13 -51.41L439.28 0.00L432.14 0.00L447.27 -45.70L435.45 -45.70L420.41 0.00L413.30 0.00L428.42 -45.70L416.61 -45.70L401.48 0.00L394.34 0.00L411.33 -51.41L456.13 -51.41Z"/></svg>