<svg xmlns="http://www.w3.org/2000/svg" viewBox="0 -62.78 404.22 62.78" height="100%"><path fill="currentColor" d="M25.92 0.72L25.92 0.72L25.92 0.72Q16.56 0.72 11.52 -4.32L11.52 -4.32L11.52 -4.32Q6.48 -9.36 6.48 -18.29L6.48 -18.29L6.48 -51.41L12.96 -51.41L12.96 -19.22L12.96 -19.22Q12.96 -11.74 16.34 -8.24L16.34 -8.24L16.34 -8.24Q19.73 -4.75 26.14 -4.75L26.14 -4.75L26.14 -4.75Q32.40 -4.75 35.82 -8.24L35.82 -8.24L35.82 -8.24Q39.24 -11.74 39.24 -18.79L39.24 -18.79L39.24 -51.41L45.72 -51.41L45.72 -18.14L45.72 -18.14Q45.72 -16.99 45.65 -15.84L45.65 -15.84L45.65 -15.84Q46.37 -15.98 47.23 -15.98L47.23 -15.98L47.23 -15.98Q52.56 -15.98 55.40 -13.00L55.40 -13.00L55.40 -13.00Q58.25 -10.01 58.25 -3.31L58.25 -3.31L58.25 0.00L52.49 0.00L52.49 -2.95L52.49 -2.95Q52.49 -7.34 50.90 -9.14L50.90 -9.14L50.90 -9.14Q49.32 -10.94 46.30 -10.94L46.30 -10.94L46.30 -10.94Q45.36 -10.94 44.64 -10.87L44.64 -10.87L44.64 -10.87Q42.77 -5.33 37.98 -2.30L37.98 -2.30L37.98 -2.30Q33.19 0.72 25.92 0.72ZM72.96 0.00L66.48 0.00L66.48 -33.26L66.48 -33.26Q66.48 -42.05 71.52 -47.09L71.52 -47.09L71.52 -47.09Q76.56 -52.13 85.92 -52.13L85.92 -52.13L85.92 -52.13Q95.57 -52.13 100.28 -47.02L100.28 -47.02L100.28 -47.02Q105.00 -41.90 105.00 -32.04L105.00 -32.04L98.52 -32.04L98.52 -32.04Q98.52 -39.53 95.39 -43.09L95.39 -43.09L95.39 -43.09Q92.26 -46.66 85.70 -46.66L85.70 -46.66L85.70 -46.66Q72.96 -46.66 72.96 -32.62L72.96 -32.62L72.96 -24.55L105.22 -24.55L105.22 -19.08L72.96 -19.08L72.96 0.00ZM151.69 -19.08L151.69 0.00L145.21 0.00L145.21 -19.08L134.19 -19.08L134.19 -19.08Q124.54 -19.08 119.61 -23.36L119.61 -23.36L119.61 -23.36Q114.68 -27.65 114.68 -35.64L114.68 -35.64L114.68 -35.64Q114.68 -43.49 119.50 -47.81L119.50 -47.81L119.50 -47.81Q124.33 -52.13 133.18 -52.13L133.18 -52.13L133.18 -52.13Q142.11 -52.13 146.90 -47.02L146.90 -47.02L146.90 -47.02Q151.69 -41.90 151.69 -31.54L151.69 -31.54L151.69 -24.55L162.99 -24.55L162.99 -19.08L151.69 -19.08ZM134.91 -24.55L134.91 -24.55L145.21 -24.55L145.21 -31.39L145.21 -31.39Q145.21 -38.88 142.15 -42.77L142.15 -42.77L142.15 -42.77Q139.09 -46.66 133.18 -46.66L133.18 -46.66L133.18 -46.66Q121.38 -46.66 121.38 -35.64L121.38 -35.64L121.38 -35.64Q121.38 -30.10 124.62 -27.32L124.62 -27.32L124.62 -27.32Q127.86 -24.55 134.91 -24.55ZM203.05 -19.08L203.05 0.00L196.57 0.00L196.57 -32.62L196.57 -32.62Q196.57 -39.89 193.36 -43.27L193.36 -43.27L193.36 -43.27Q190.16 -46.66 184.11 -46.66L184.11 -46.66L184.11 -46.66Q177.78 -46.66 174.75 -43.06L174.75 -43.06L174.75 -43.06Q171.73 -39.46 171.73 -32.04L171.73 -32.04L165.25 -32.04L165.25 -32.04Q165.25 -41.54 169.96 -46.84L169.96 -46.84L169.96 -46.84Q174.68 -52.13 184.26 -52.13L184.26 -52.13L184.26 -52.13Q193.26 -52.13 198.15 -47.20L198.15 -47.20L198.15 -47.20Q203.05 -42.26 203.05 -33.19L203.05 -33.19L203.05 -24.55L213.70 -24.55L213.70 -19.08L203.05 -19.08ZM222.48 -18.14L222.48 -51.41L228.96 -51.41L228.96 -43.49L261.22 -43.49L261.22 -38.02L228.96 -38.02L228.96 -18.79L228.96 -18.79Q228.96 -4.75 241.70 -4.75L241.70 -4.75L241.70 -4.75Q248.26 -4.75 251.39 -8.32L251.39 -8.32L251.39 -8.32Q254.52 -11.88 254.52 -19.37L254.52 -19.37L261.00 -19.37L261.00 -19.37Q261.00 -9.50 256.28 -4.39L256.28 -4.39L256.28 -4.39Q251.57 0.72 241.92 0.72L241.92 0.72L241.92 0.72Q232.56 0.72 227.52 -4.32L227.52 -4.32L227.52 -4.32Q222.48 -9.36 222.48 -18.14L222.48 -18.14ZM288.18 -20.66L288.18 -20.66L288.18 -20.66Q282.85 -20.66 278.92 -22.72L278.92 -22.72L278.92 -22.72Q275.00 -24.77 272.88 -28.37L272.88 -28.37L272.88 -28.37Q270.75 -31.97 270.75 -36.58L270.75 -36.58L270.75 -36.58Q270.75 -41.33 273.02 -44.93L273.02 -44.93L273.02 -44.93Q275.29 -48.53 279.43 -50.51L279.43 -50.51L279.43 -50.51Q283.57 -52.49 289.18 -52.49L289.18 -52.49L289.18 -52.49Q297.97 -52.49 302.58 -47.88L302.58 -47.88L302.58 -47.88Q307.18 -43.27 307.18 -35.86L307.18 -35.86L307.18 -35.86Q307.18 -35.06 307.04 -34.20L307.04 -34.20L307.04 -34.20Q306.61 -26.50 302.86 -20.95L302.86 -20.95L302.86 -20.95Q299.12 -15.41 293.58 -12.24L293.58 -12.24L303.30 -12.24L303.30 -12.24Q307.18 -12.24 309.27 -10.40L309.27 -10.40L309.27 -10.40Q311.36 -8.57 311.36 -4.18L311.36 -4.18L311.36 0.00L305.67 0.00L305.67 -2.59L305.67 -2.59Q305.67 -4.97 304.59 -5.87L304.59 -5.87L304.59 -5.87Q303.51 -6.77 301.14 -6.77L301.14 -6.77L276.94 -6.77L276.94 0.00L271.26 0.00L271.26 -16.34L276.94 -16.34L276.94 -12.24L277.30 -12.24L277.30 -12.24Q283.14 -12.24 288.61 -14.87L288.61 -14.87L288.61 -14.87Q294.08 -17.50 297.39 -22.54L297.39 -22.54L297.39 -22.54Q295.45 -21.67 293.11 -21.17L293.11 -21.17L293.11 -21.17Q290.77 -20.66 288.18 -20.66ZM288.90 -25.99L288.90 -25.99L288.90 -25.99Q294.94 -25.99 297.79 -28.91L297.79 -28.91L297.79 -28.91Q300.63 -31.82 300.63 -36.58L300.63 -36.58L300.63 -36.58Q300.63 -41.26 297.90 -44.21L297.90 -44.21L297.90 -44.21Q295.16 -47.16 289.11 -47.16L289.11 -47.16L289.11 -47.16Q283.35 -47.16 280.29 -44.39L280.29 -44.39L280.29 -44.39Q277.23 -41.62 277.23 -36.58L277.23 -36.58L277.23 -36.58Q277.23 -31.75 280.11 -28.87L280.11 -28.87L280.11 -28.87Q282.99 -25.99 288.90 -25.99ZM343.45 0.00L343.45 0.00L320.91 0.00L320.91 -51.41L327.39 -51.41L327.39 -35.42L353.60 -35.42L353.60 -29.95L327.39 -29.95L327.39 -5.47L344.17 -5.47L344.17 -5.47Q349.28 -5.47 351.98 -2.92L351.98 -2.92L351.98 -2.92Q354.68 -0.36 354.68 4.61L354.68 4.61L354.68 10.30L348.20 10.30L348.20 5.18L348.20 5.18Q348.20 0.00 343.45 0.00ZM404.22 0.00L365.48 0.00L365.48 -33.26L365.48 -33.26Q365.48 -42.05 370.52 -47.09L370.52 -47.09L370.52 -47.09Q375.56 -52.13 384.92 -52.13L384.92 -52.13L384.92 -52.13Q394.57 -52.13 399.28 -47.02L399.28 -47.02L399.28 -47.02Q404.00 -41.90 404.00 -32.04L404.00 -32.04L397.52 -32.04L397.52 -32.04Q397.52 -39.60 394.39 -43.13L394.39 -43.13L394.39 -43.13Q391.26 -46.66 384.70 -46.66L384.70 -46.66L384.70 -46.66Q378.44 -46.66 375.20 -43.20L375.20 -43.20L375.20 -43.20Q371.96 -39.74 371.96 -32.62L371.96 -32.62L371.96 -5.47L404.22 -5.47L404.22 0.00Z"/></svg>