<svg xmlns="http://www.w3.org/2000/svg" viewBox="0 -118 532.67 118.00" height="100%"><path fill="currentColor" d="M45.42 -49.00L54.50 -49.00L53.05 -42.78L53.05 -6.27L49.75 -7.00L49.75 -7.00Q36.50 -28.70 25.95 -40.17L25.95 -40.17L25.95 -40.17Q21.55 -35.96 18.84 -31.97L18.84 -31.97L18.84 -31.97Q19.06 -32.00 19.44 -32.00L19.44 -32.00L19.44 -32.00Q22.78 -32.00 25.33 -30.81L25.33 -30.81L25.33 -30.81Q27.88 -29.61 29.30 -27.21L29.30 -27.21L29.30 -27.21Q30.73 -24.81 30.73 -21.37L30.73 -21.37L30.73 -21.37Q30.73 -17.65 29.19 -14.85L29.19 -14.85L29.19 -14.85Q27.64 -12.04 24.84 -10.52L24.84 -10.52L24.84 -10.52Q22.05 -9.00 18.42 -9.00L18.42 -9.00L18.42 -9.00Q14.06 -9.00 10.84 -11.23L10.84 -11.23L10.84 -11.23Q7.63 -13.45 5.87 -17.86L5.87 -17.86L5.87 -17.86Q4.11 -22.27 4.11 -28.65L4.11 -28.65L4.11 -28.65Q4.11 -32.30 4.46 -36.02L4.46 -36.02L4.46 -36.02Q4.81 -39.74 5.42 -42.78L5.42 -42.78L3.17 -42.78L4.61 -49.00L13.25 -49.00L13.25 -49.00Q10.38 -43.98 8.83 -39.00L8.83 -39.00L8.83 -39.00Q7.28 -34.03 7.28 -29.35L7.28 -29.35L7.28 -29.35Q7.28 -22.08 10.55 -18.70L10.55 -18.70L10.55 -18.70Q13.81 -15.33 19.58 -15.33L19.58 -15.33L19.58 -15.33Q23.45 -15.33 25.44 -16.82L25.44 -16.82L25.44 -16.82Q27.42 -18.32 27.42 -20.74L27.42 -20.74L27.42 -20.74Q27.42 -23.15 25.49 -24.48L25.49 -24.48L25.49 -24.48Q23.56 -25.81 19.80 -25.81L19.80 -25.81L19.80 -25.81Q18.11 -25.81 16.28 -25.47L16.28 -25.47L13.95 -27.89L13.95 -27.89Q15.30 -31.76 17.25 -35.58L17.25 -35.58L17.25 -35.58Q19.20 -39.41 21.48 -42.78L21.48 -42.78L16.77 -42.78L18.22 -49.00L39.31 -49.00L37.86 -42.78L32.42 -42.78L32.42 -42.78Q37.77 -34.96 42.41 -27.01L42.41 -27.01L42.41 -27.01Q47.05 -19.06 50.23 -11.69L50.23 -11.69L50.23 -11.69Q49.86 -20.57 48.99 -28.61L48.99 -28.61L48.99 -28.61Q48.13 -36.66 46.86 -42.78L46.86 -42.78L43.98 -42.78L45.42 -49.00ZM30.34 -69.00L30.34 -69.00Q28.13 -69.00 26.42 -69.95L26.42 -69.95L26.42 -69.95Q24.72 -70.89 23.75 -72.58L23.75 -72.58L23.75 -72.58Q22.78 -74.27 22.78 -76.50L22.78 -76.50L22.78 -76.50Q22.78 -78.73 23.75 -80.42L23.75 -80.42L23.75 -80.42Q24.72 -82.11 26.42 -83.05L26.42 -83.05L26.42 -83.05Q28.13 -84.00 30.34 -84.00L30.34 -84.00L30.34 -84.00Q32.55 -84.00 34.27 -83.05L34.27 -83.05L34.27 -83.05Q36.00 -82.11 36.97 -80.42L36.97 -80.42L36.97 -80.42Q37.94 -78.73 37.94 -76.50L37.94 -76.50L37.94 -76.50Q37.94 -74.27 36.97 -72.58L36.97 -72.58L36.97 -72.58Q36.00 -70.89 34.27 -69.95L34.27 -69.95L34.27 -69.95Q32.55 -69.00 30.34 -69.00L30.34 -69.00ZM30.34 -80.41L30.34 -80.41Q28.58 -80.41 27.49 -79.34L27.49 -79.34L27.49 -79.34Q26.41 -78.27 26.41 -76.50L26.41 -76.50L26.41 -76.50Q26.41 -74.76 27.49 -73.69L27.49 -73.69L27.49 -73.69Q28.58 -72.63 30.34 -72.63L30.34 -72.63L30.34 -72.63Q32.13 -72.63 33.22 -73.69L33.22 -73.69L33.22 -73.69Q34.31 -74.76 34.31 -76.50L34.31 -76.50L34.31 -76.50Q34.31 -78.27 33.22 -79.34L33.22 -79.34L33.22 -79.34Q32.13 -80.41 30.34 -80.41L30.34 -80.41ZM60.53 -75.00L62.86 -72.36L62.86 -72.36Q60.95 -68.07 58.42 -65.81L58.42 -65.81L58.42 -65.81Q55.89 -63.55 51.67 -62.63L51.67 -62.63L51.67 -62.63Q49.89 -62.24 48.11 -62.03L48.11 -62.03L48.11 -62.03Q46.33 -61.83 43.42 -61.55L43.42 -61.55L43.42 -61.55Q40.98 -61.35 39.80 -61.22L39.80 -61.22L39.80 -61.22Q36.98 -60.92 35.33 -60.03L35.33 -60.03L35.33 -60.03Q33.67 -59.14 32.38 -57.10L32.38 -57.10L32.38 -57.10Q34.14 -55.21 35.02 -54.19L35.02 -54.19L35.55 -53.59L34.48 -51.00L34.48 -51.00Q27.88 -56.55 23.34 -59.49L23.34 -59.49L23.34 -59.49Q18.81 -62.43 15.70 -63.48L15.70 -63.48L15.70 -63.48Q12.58 -64.53 9.63 -64.53L9.63 -64.53L9.63 -64.53Q6.95 -64.53 4.22 -63.69L4.22 -63.69L5.31 -70.02L5.31 -70.02Q7.52 -71.00 10.66 -71.00L10.66 -71.00L10.66 -71.00Q13.61 -71.00 16.30 -70.06L16.30 -70.06L16.30 -70.06Q18.98 -69.12 22.30 -66.63L22.30 -66.63L22.30 -66.63Q25.63 -64.13 30.06 -59.56L30.06 -59.56L30.06 -59.56Q31.78 -63.43 34.27 -65.28L34.27 -65.28L34.27 -65.28Q36.77 -67.13 40.47 -67.55L40.47 -67.55L40.47 -67.55Q43.03 -67.93 46.47 -68.16L46.47 -68.16L46.47 -68.16Q50.27 -68.48 52.17 -68.82L52.17 -68.82L52.17 -68.82Q55.47 -69.45 57.35 -70.91L57.35 -70.91L57.35 -70.91Q59.23 -72.36 60.53 -75.00L60.53 -75.00ZM83.95 -40.19L83.95 -40.19Q79.55 -35.97 76.84 -31.97L76.84 -31.97L76.84 -31.97Q77.06 -32.00 77.44 -32.00L77.44 -32.00L77.44 -32.00Q80.78 -32.00 83.33 -30.81L83.33 -30.81L83.33 -30.81Q85.88 -29.61 87.30 -27.21L87.30 -27.21L87.30 -27.21Q88.73 -24.81 88.73 -21.37L88.73 -21.37L88.73 -21.37Q88.73 -17.65 87.19 -14.85L87.19 -14.85L87.19 -14.85Q85.64 -12.04 82.84 -10.52L82.84 -10.52L82.84 -10.52Q80.05 -9.00 76.42 -9.00L76.42 -9.00L76.42 -9.00Q72.06 -9.00 68.84 -11.23L68.84 -11.23L68.84 -11.23Q65.63 -13.45 63.87 -17.86L63.87 -17.86L63.87 -17.86Q62.11 -22.27 62.11 -28.65L62.11 -28.65L62.11 -28.65Q62.11 -32.30 62.46 -36.02L62.46 -36.02L62.46 -36.02Q62.81 -39.74 63.42 -42.78L63.42 -42.78L61.17 -42.78L62.61 -49.00L71.25 -49.00L71.25 -49.00Q68.38 -43.98 66.83 -39.00L66.83 -39.00L66.83 -39.00Q65.28 -34.03 65.28 -29.35L65.28 -29.35L65.28 -29.35Q65.28 -22.08 68.55 -18.70L68.55 -18.70L68.55 -18.70Q71.81 -15.33 77.58 -15.33L77.58 -15.33L77.58 -15.33Q81.45 -15.33 83.44 -16.82L83.44 -16.82L83.44 -16.82Q85.42 -18.32 85.42 -20.74L85.42 -20.74L85.42 -20.74Q85.42 -23.15 83.49 -24.48L83.49 -24.48L83.49 -24.48Q81.56 -25.81 77.80 -25.81L77.80 -25.81L77.80 -25.81Q76.11 -25.81 74.28 -25.47L74.28 -25.47L71.95 -27.89L71.95 -27.89Q73.30 -31.76 75.25 -35.58L75.25 -35.58L75.25 -35.58Q77.20 -39.41 79.48 -42.78L79.48 -42.78L74.77 -42.78L76.22 -49.00L97.31 -49.00L95.86 -42.78L90.42 -42.78L90.42 -42.78Q96.70 -33.55 102.10 -24.19L102.10 -24.19L102.10 -24.19Q107.50 -14.83 111.05 -6.27L111.05 -6.27L107.75 -7.00L107.75 -7.00Q94.50 -28.72 83.95 -40.19L83.95 -40.19ZM142.80 -65.00L142.80 -65.00Q140.58 -65.00 138.86 -65.94L138.86 -65.94L138.86 -65.94Q137.14 -66.88 136.19 -68.58L136.19 -68.58L136.19 -68.58Q135.23 -70.27 135.23 -72.51L135.23 -72.51L135.23 -72.51Q135.23 -74.74 136.19 -76.43L136.19 -76.43L136.19 -76.43Q137.14 -78.12 138.86 -79.06L138.86 -79.06L138.86 -79.06Q140.58 -80.00 142.80 -80.00L142.80 -80.00L142.80 -80.00Q145.02 -80.00 146.73 -79.06L146.73 -79.06L146.73 -79.06Q148.45 -78.12 149.41 -76.43L149.41 -76.43L149.41 -76.43Q150.36 -74.74 150.36 -72.51L150.36 -72.51L150.36 -72.51Q150.36 -70.27 149.41 -68.58L149.41 -68.58L149.41 -68.58Q148.45 -66.88 146.73 -65.94L146.73 -65.94L146.73 -65.94Q145.02 -65.00 142.80 -65.00L142.80 -65.00ZM142.80 -76.42L142.80 -76.42Q141.03 -76.42 139.95 -75.34L139.95 -75.34L139.95 -75.34Q138.86 -74.26 138.86 -72.51L138.86 -72.51L138.86 -72.51Q138.86 -70.74 139.95 -69.66L139.95 -69.66L139.95 -69.66Q141.03 -68.58 142.80 -68.58L142.80 -68.58L142.80 -68.58Q144.59 -68.58 145.68 -69.66L145.68 -69.66L145.68 -69.66Q146.77 -70.74 146.77 -72.51L146.77 -72.51L146.77 -72.51Q146.77 -74.26 145.68 -75.34L145.68 -75.34L145.68 -75.34Q144.59 -76.42 142.80 -76.42L142.80 -76.42ZM142.80 -53.00L142.80 -53.00Q137.14 -53.00 133.41 -56.22L133.41 -56.22L133.41 -56.22Q129.69 -59.44 128.03 -65.73L128.03 -65.73L130.70 -67.38L130.70 -67.38Q132.50 -62.84 135.34 -60.79L135.34 -60.79L135.34 -60.79Q138.19 -58.73 142.80 -58.73L142.80 -58.73L142.80 -58.73Q147.41 -58.73 150.25 -60.79L150.25 -60.79L150.25 -60.79Q153.09 -62.84 154.89 -67.38L154.89 -67.38L157.56 -65.73L157.56 -65.73Q155.94 -59.47 152.20 -56.23L152.20 -56.23L152.20 -56.23Q148.45 -53.00 142.80 -53.00L142.80 -53.00ZM175.56 -30.00L175.56 -30.00Q172.47 -30.00 170.29 -31.25L170.29 -31.25L170.29 -31.25Q168.11 -32.51 166.98 -34.73L166.98 -34.73L166.98 -34.73Q165.86 -36.94 165.86 -39.73L165.86 -39.73L165.86 -39.73Q165.86 -42.75 167.18 -45.09L167.18 -45.09L167.18 -45.09Q168.50 -47.43 170.87 -48.71L170.87 -48.71L170.87 -48.71Q173.23 -50.00 176.30 -50.00L176.30 -50.00L176.30 -50.00Q179.36 -50.00 181.54 -48.75L181.54 -48.75L181.54 -48.75Q183.72 -47.49 184.86 -45.30L184.86 -45.30L184.86 -45.30Q186.00 -43.11 186.00 -40.29L186.00 -40.29L186.00 -40.29Q186.00 -37.25 184.66 -34.91L184.66 -34.91L184.66 -34.91Q183.33 -32.57 180.95 -31.29L180.95 -31.29L180.95 -31.29Q178.58 -30.00 175.56 -30.00L175.56 -30.00ZM164.17 -5.43L164.17 -5.43Q166.25 -4.14 167.38 -1.96L167.38 -1.96L167.38 -1.96Q168.50 0.22 168.50 2.94L168.50 2.94L168.50 2.94Q168.50 6.40 166.98 9.13L166.98 9.13L166.98 9.13Q165.47 11.86 162.55 13.43L162.55 13.43L162.55 13.43Q159.64 15.00 155.63 15.00L155.63 15.00L155.63 15.00Q150.70 15.00 146.71 13.18L146.71 13.18L146.71 13.18Q142.72 11.37 139.30 8.36L139.30 8.36L139.30 8.36Q135.88 5.35 130.03 -0.66L130.03 -0.66L130.03 -0.66Q126.34 -4.46 123.13 -7.66L123.13 -7.66L123.13 -7.66Q119.91 -10.86 116.14 -14.22L116.14 -14.22L118.92 -16.00L118.92 -16.00Q122.47 -13.21 125.35 -10.76L125.35 -10.76L125.35 -10.76Q128.23 -8.32 132.36 -4.69L132.36 -4.69L132.36 -4.69Q138.22 0.48 141.62 3.04L141.62 3.04L141.62 3.04Q145.02 5.60 148.93 7.10L148.93 7.10L148.93 7.10Q152.84 8.61 157.77 8.61L157.77 8.61L157.77 8.61Q160.09 8.61 161.77 7.95L161.77 7.95L161.77 7.95Q163.44 7.29 164.28 6.18L164.28 6.18L164.28 6.18Q165.13 5.07 165.13 3.68L165.13 3.68L165.13 3.68Q165.13 1.74 163.73 0.57L163.73 0.57L163.73 0.57Q162.34 -0.59 159.88 -0.59L159.88 -0.59L159.88 -0.59Q157.98 -0.59 156.24 -0.07L156.24 -0.07L156.24 -0.07Q154.50 0.45 153.09 1.48L153.09 1.48L152.08 -4.70L152.08 -4.70Q153.13 -5.77 154.85 -6.38L154.85 -6.38L154.85 -6.38Q156.58 -7.00 158.44 -7.00L158.44 -7.00L158.44 -7.00Q159.67 -7.00 160.83 -6.78L160.83 -6.78L160.83 -6.78Q157.70 -11.68 155.02 -14.38L155.02 -14.38L155.02 -14.38Q152.33 -17.08 149.30 -18.24L149.30 -18.24L149.30 -18.24Q146.28 -19.39 142.09 -19.39L142.09 -19.39L142.09 -19.39Q140.89 -19.39 139.54 -19.23L139.54 -19.23L139.54 -19.23Q138.19 -19.08 137.09 -18.77L137.09 -18.77L137.84 -25.38L137.84 -25.38Q140.30 -26.00 143.39 -26.00L143.39 -26.00L143.39 -26.00Q146.06 -26.00 148.24 -25.48L148.24 -25.48L148.24 -25.48Q150.42 -24.96 152.33 -23.80L152.33 -23.80L152.33 -23.80Q154.25 -27.84 154.25 -32.44L154.25 -32.44L154.25 -32.44Q154.25 -35.45 153.60 -37.98L153.60 -37.98L153.60 -37.98Q152.95 -40.51 151.58 -42.78L151.58 -42.78L129.33 -42.78L129.33 -42.78Q127.78 -41.04 126.94 -38.56L126.94 -38.56L126.94 -38.56Q126.09 -36.08 126.09 -33.16L126.09 -33.16L126.09 -33.16Q126.09 -29.49 127.23 -26.52L127.23 -26.52L127.23 -26.52Q128.38 -23.56 130.91 -20.53L130.91 -20.53L126.52 -16.00L126.52 -16.00Q123.73 -19.38 122.51 -22.87L122.51 -22.87L122.51 -22.87Q121.28 -26.36 121.28 -30.23L121.28 -30.23L121.28 -30.23Q121.28 -33.89 122.56 -37.44L122.56 -37.44L122.56 -37.44Q123.84 -40.99 126.30 -44.00L126.30 -44.00L126.30 -44.00Q128.77 -47.01 132.22 -49.00L132.22 -49.00L158.72 -49.00L157.39 -43.23L157.39 -43.23Q158.66 -39.42 158.66 -35.33L158.66 -35.33L158.66 -35.33Q158.66 -31.70 157.60 -28.47L157.60 -28.47L157.60 -28.47Q156.55 -25.24 154.39 -22.28L154.39 -22.28L154.39 -22.28Q157.00 -20.03 159.49 -16.07L159.49 -16.07L159.49 -16.07Q161.98 -12.10 165.13 -5.59L165.13 -5.59L164.17 -5.43ZM173.77 -45.97L173.77 -45.97Q171.91 -45.97 170.88 -44.98L170.88 -44.98L170.88 -44.98Q169.86 -43.98 169.86 -42.23L169.86 -42.23L169.86 -42.23Q169.86 -40.21 171.01 -38.31L171.01 -38.31L171.01 -38.31Q172.16 -36.40 174.05 -35.23L174.05 -35.23L174.05 -35.23Q175.95 -34.05 178.16 -34.05L178.16 -34.05L178.16 -34.05Q180.03 -34.05 180.99 -35.03L180.99 -35.03L180.99 -35.03Q181.95 -36.02 181.95 -37.82L181.95 -37.82L181.95 -37.82Q181.95 -39.82 180.83 -41.72L180.83 -41.72L180.83 -41.72Q179.70 -43.61 177.83 -44.79L177.83 -44.79L177.83 -44.79Q175.95 -45.97 173.77 -45.97L173.77 -45.97ZM176.30 -25.00L176.30 -25.00Q179.36 -25.00 181.54 -23.74L181.54 -23.74L181.54 -23.74Q183.72 -22.49 184.86 -20.29L184.86 -20.29L184.86 -20.29Q186.00 -18.10 186.00 -15.30L186.00 -15.30L186.00 -15.30Q186.00 -12.26 184.66 -9.92L184.66 -9.92L184.66 -9.92Q183.33 -7.58 180.95 -6.29L180.95 -6.29L180.95 -6.29Q178.58 -5.00 175.56 -5.00L175.56 -5.00L175.56 -5.00Q172.47 -5.00 170.29 -6.26L170.29 -6.26L170.29 -6.26Q168.11 -7.51 166.98 -9.71L166.98 -9.71L166.98 -9.71Q165.86 -11.90 165.86 -14.70L165.86 -14.70L165.86 -14.70Q165.86 -17.74 167.18 -20.08L167.18 -20.08L167.18 -20.08Q168.50 -22.42 170.87 -23.71L170.87 -23.71L170.87 -23.71Q173.23 -25.00 176.30 -25.00L176.30 -25.00ZM178.09 -9.00L178.09 -9.00Q179.98 -9.00 180.97 -10.00L180.97 -10.00L180.97 -10.00Q181.95 -10.99 181.95 -12.80L181.95 -12.80L181.95 -12.80Q181.95 -14.78 180.83 -16.67L180.83 -16.67L180.83 -16.67Q179.70 -18.56 177.84 -19.76L177.84 -19.76L177.84 -19.76Q175.98 -20.95 173.84 -20.95L173.84 -20.95L173.84 -20.95Q171.91 -20.95 170.88 -19.96L170.88 -19.96L170.88 -19.96Q169.86 -18.98 169.86 -17.20L169.86 -17.20L169.86 -17.20Q169.86 -15.22 171.01 -13.32L171.01 -13.32L171.01 -13.32Q172.16 -11.41 174.05 -10.20L174.05 -10.20L174.05 -10.20Q175.95 -9.00 178.09 -9.00L178.09 -9.00ZM218.80 -65.00L218.80 -65.00Q216.58 -65.00 214.86 -65.94L214.86 -65.94L214.86 -65.94Q213.14 -66.88 212.19 -68.58L212.19 -68.58L212.19 -68.58Q211.23 -70.27 211.23 -72.51L211.23 -72.51L211.23 -72.51Q211.23 -74.74 212.19 -76.43L212.19 -76.43L212.19 -76.43Q213.14 -78.12 214.86 -79.06L214.86 -79.06L214.86 -79.06Q216.58 -80.00 218.80 -80.00L218.80 -80.00L218.80 -80.00Q221.02 -80.00 222.73 -79.06L222.73 -79.06L222.73 -79.06Q224.45 -78.12 225.41 -76.43L225.41 -76.43L225.41 -76.43Q226.36 -74.74 226.36 -72.51L226.36 -72.51L226.36 -72.51Q226.36 -70.27 225.41 -68.58L225.41 -68.58L225.41 -68.58Q224.45 -66.88 222.73 -65.94L222.73 -65.94L222.73 -65.94Q221.02 -65.00 218.80 -65.00L218.80 -65.00ZM218.80 -76.42L218.80 -76.42Q217.03 -76.42 215.95 -75.34L215.95 -75.34L215.95 -75.34Q214.86 -74.26 214.86 -72.51L214.86 -72.51L214.86 -72.51Q214.86 -70.74 215.95 -69.66L215.95 -69.66L215.95 -69.66Q217.03 -68.58 218.80 -68.58L218.80 -68.58L218.80 -68.58Q220.59 -68.58 221.68 -69.66L221.68 -69.66L221.68 -69.66Q222.77 -70.74 222.77 -72.51L222.77 -72.51L222.77 -72.51Q222.77 -74.26 221.68 -75.34L221.68 -75.34L221.68 -75.34Q220.59 -76.42 218.80 -76.42L218.80 -76.42ZM218.80 -53.00L218.80 -53.00Q213.14 -53.00 209.41 -56.22L209.41 -56.22L209.41 -56.22Q205.69 -59.44 204.03 -65.73L204.03 -65.73L206.70 -67.38L206.70 -67.38Q208.50 -62.84 211.34 -60.79L211.34 -60.79L211.34 -60.79Q214.19 -58.73 218.80 -58.73L218.80 -58.73L218.80 -58.73Q223.41 -58.73 226.25 -60.79L226.25 -60.79L226.25 -60.79Q229.09 -62.84 230.89 -67.38L230.89 -67.38L233.56 -65.73L233.56 -65.73Q231.94 -59.47 228.20 -56.23L228.20 -56.23L228.20 -56.23Q224.45 -53.00 218.80 -53.00L218.80 -53.00ZM254.44 -31.00L254.44 -31.00Q251.34 -31.00 249.15 -32.26L249.15 -32.26L249.15 -32.26Q246.95 -33.51 245.83 -35.71L245.83 -35.71L245.83 -35.71Q244.70 -37.90 244.70 -40.70L244.70 -40.70L244.70 -40.70Q244.70 -43.74 246.04 -46.08L246.04 -46.08L246.04 -46.08Q247.38 -48.42 249.75 -49.71L249.75 -49.71L249.75 -49.71Q252.13 -51.00 255.14 -51.00L255.14 -51.00L255.14 -51.00Q258.20 -51.00 260.40 -49.74L260.40 -49.74L260.40 -49.74Q262.59 -48.49 263.74 -46.29L263.74 -46.29L263.74 -46.29Q264.89 -44.10 264.89 -41.30L264.89 -41.30L264.89 -41.30Q264.89 -38.26 263.55 -35.92L263.55 -35.92L263.55 -35.92Q262.22 -33.58 259.84 -32.29L259.84 -32.29L259.84 -32.29Q257.47 -31.00 254.44 -31.00L254.44 -31.00ZM240.17 -5.43L240.17 -5.43Q242.25 -4.14 243.38 -1.96L243.38 -1.96L243.38 -1.96Q244.50 0.22 244.50 2.94L244.50 2.94L244.50 2.94Q244.50 6.40 242.98 9.13L242.98 9.13L242.98 9.13Q241.47 11.86 238.55 13.43L238.55 13.43L238.55 13.43Q235.64 15.00 231.63 15.00L231.63 15.00L231.63 15.00Q226.70 15.00 222.71 13.18L222.71 13.18L222.71 13.18Q218.72 11.37 215.30 8.36L215.30 8.36L215.30 8.36Q211.88 5.35 206.03 -0.66L206.03 -0.66L206.03 -0.66Q202.34 -4.46 199.13 -7.66L199.13 -7.66L199.13 -7.66Q195.91 -10.86 192.14 -14.22L192.14 -14.22L194.92 -16.00L194.92 -16.00Q198.47 -13.21 201.35 -10.76L201.35 -10.76L201.35 -10.76Q204.23 -8.32 208.36 -4.69L208.36 -4.69L208.36 -4.69Q214.22 0.48 217.62 3.04L217.62 3.04L217.62 3.04Q221.02 5.60 224.93 7.10L224.93 7.10L224.93 7.10Q228.84 8.61 233.77 8.61L233.77 8.61L233.77 8.61Q236.09 8.61 237.77 7.95L237.77 7.95L237.77 7.95Q239.44 7.29 240.28 6.18L240.28 6.18L240.28 6.18Q241.13 5.07 241.13 3.68L241.13 3.68L241.13 3.68Q241.13 1.74 239.73 0.57L239.73 0.57L239.73 0.57Q238.34 -0.59 235.88 -0.59L235.88 -0.59L235.88 -0.59Q233.98 -0.59 232.24 -0.07L232.24 -0.07L232.24 -0.07Q230.50 0.45 229.09 1.48L229.09 1.48L228.08 -4.70L228.08 -4.70Q229.13 -5.77 230.85 -6.38L230.85 -6.38L230.85 -6.38Q232.58 -7.00 234.44 -7.00L234.44 -7.00L234.44 -7.00Q235.67 -7.00 236.83 -6.78L236.83 -6.78L236.83 -6.78Q233.70 -11.68 231.02 -14.38L231.02 -14.38L231.02 -14.38Q228.33 -17.08 225.30 -18.24L225.30 -18.24L225.30 -18.24Q222.28 -19.39 218.09 -19.39L218.09 -19.39L218.09 -19.39Q216.89 -19.39 215.54 -19.23L215.54 -19.23L215.54 -19.23Q214.19 -19.08 213.09 -18.77L213.09 -18.77L213.84 -25.38L213.84 -25.38Q216.30 -26.00 219.39 -26.00L219.39 -26.00L219.39 -26.00Q222.06 -26.00 224.24 -25.48L224.24 -25.48L224.24 -25.48Q226.42 -24.96 228.33 -23.80L228.33 -23.80L228.33 -23.80Q230.25 -27.84 230.25 -32.44L230.25 -32.44L230.25 -32.44Q230.25 -35.45 229.60 -37.98L229.60 -37.98L229.60 -37.98Q228.95 -40.51 227.58 -42.78L227.58 -42.78L205.33 -42.78L205.33 -42.78Q203.78 -41.04 202.94 -38.56L202.94 -38.56L202.94 -38.56Q202.09 -36.08 202.09 -33.16L202.09 -33.16L202.09 -33.16Q202.09 -29.49 203.23 -26.52L203.23 -26.52L203.23 -26.52Q204.38 -23.56 206.91 -20.53L206.91 -20.53L202.52 -16.00L202.52 -16.00Q199.73 -19.38 198.51 -22.87L198.51 -22.87L198.51 -22.87Q197.28 -26.36 197.28 -30.23L197.28 -30.23L197.28 -30.23Q197.28 -33.89 198.56 -37.44L198.56 -37.44L198.56 -37.44Q199.84 -40.99 202.30 -44.00L202.30 -44.00L202.30 -44.00Q204.77 -47.01 208.22 -49.00L208.22 -49.00L234.72 -49.00L233.39 -43.23L233.39 -43.23Q234.66 -39.42 234.66 -35.33L234.66 -35.33L234.66 -35.33Q234.66 -31.70 233.60 -28.47L233.60 -28.47L233.60 -28.47Q232.55 -25.24 230.39 -22.28L230.39 -22.28L230.39 -22.28Q233.00 -20.03 235.49 -16.07L235.49 -16.07L235.49 -16.07Q237.98 -12.10 241.13 -5.59L241.13 -5.59L240.17 -5.43ZM252.66 -46.95L252.66 -46.95Q250.78 -46.95 249.77 -45.96L249.77 -45.96L249.77 -45.96Q248.75 -44.98 248.75 -43.20L248.75 -43.20L248.75 -43.20Q248.75 -41.19 249.89 -39.28L249.89 -39.28L249.89 -39.28Q251.03 -37.36 252.93 -36.18L252.93 -36.18L252.93 -36.18Q254.83 -35.00 257.05 -35.00L257.05 -35.00L257.05 -35.00Q258.91 -35.00 259.88 -36.00L259.88 -36.00L259.88 -36.00Q260.84 -36.99 260.84 -38.80L260.84 -38.80L260.84 -38.80Q260.84 -40.81 259.72 -42.70L259.72 -42.70L259.72 -42.70Q258.59 -44.59 256.71 -45.77L256.71 -45.77L256.71 -45.77Q254.83 -46.95 252.66 -46.95L252.66 -46.95ZM245.30 -22.42L245.30 -26.00L263.58 -26.00L263.58 -22.42L245.30 -22.42ZM255.14 -17.00L255.14 -17.00Q258.20 -17.00 260.40 -15.75L260.40 -15.75L260.40 -15.75Q262.59 -14.49 263.74 -12.29L263.74 -12.29L263.74 -12.29Q264.89 -10.10 264.89 -7.28L264.89 -7.28L264.89 -7.28Q264.89 -4.24 263.55 -1.91L263.55 -1.91L263.55 -1.91Q262.22 0.41 259.84 1.71L259.84 1.71L259.84 1.71Q257.47 3.00 254.44 3.00L254.44 3.00L254.44 3.00Q251.34 3.00 249.15 1.75L249.15 1.75L249.15 1.75Q246.95 0.49 245.83 -1.72L245.83 -1.72L245.83 -1.72Q244.70 -3.93 244.70 -6.72L244.70 -6.72L244.70 -6.72Q244.70 -9.76 246.04 -12.09L246.04 -12.09L246.04 -12.09Q247.38 -14.41 249.75 -15.71L249.75 -15.71L249.75 -15.71Q252.13 -17.00 255.14 -17.00L255.14 -17.00ZM256.97 -1.05L256.97 -1.05Q258.88 -1.05 259.86 -2.03L259.86 -2.03L259.86 -2.03Q260.84 -3.02 260.84 -4.78L260.84 -4.78L260.84 -4.78Q260.84 -6.75 259.72 -8.66L259.72 -8.66L259.72 -8.66Q258.59 -10.57 256.71 -11.76L256.71 -11.76L256.71 -11.76Q254.83 -12.95 252.72 -12.95L252.72 -12.95L252.72 -12.95Q250.78 -12.95 249.77 -11.97L249.77 -11.97L249.77 -11.97Q248.75 -10.98 248.75 -9.18L248.75 -9.18L248.75 -9.18Q248.75 -7.20 249.89 -5.32L249.89 -5.32L249.89 -5.32Q251.03 -3.43 252.93 -2.24L252.93 -2.24L252.93 -2.24Q254.83 -1.05 256.97 -1.05L256.97 -1.05ZM272.25 -58.00L272.25 -58.00Q277.11 -55.84 281.10 -52.78L281.10 -52.78L281.10 -52.78Q285.09 -49.72 288.08 -46.61L288.08 -46.61L288.08 -46.61Q291.06 -43.51 294.97 -38.90L294.97 -38.90L294.97 -38.90Q299.33 -33.77 302.28 -30.89L302.28 -30.89L302.28 -30.89Q305.23 -28.00 309.02 -26.09L309.02 -26.09L309.02 -26.09Q312.80 -24.19 317.47 -24.19L317.47 -24.19L317.47 -24.19Q321.75 -24.19 324.73 -25.57L324.73 -25.57L324.73 -25.57Q327.70 -26.94 329.21 -29.37L329.21 -29.37L329.21 -29.37Q330.72 -31.80 330.72 -34.87L330.72 -34.87L330.72 -34.87Q330.72 -37.60 329.42 -39.69L329.42 -39.69L329.42 -39.69Q328.13 -41.77 325.61 -42.93L325.61 -42.93L325.61 -42.93Q323.09 -44.09 319.55 -44.09L319.55 -44.09L319.55 -44.09Q316.13 -44.09 314.42 -42.98L314.42 -42.98L314.42 -42.98Q312.72 -41.87 312.72 -40.11L312.72 -40.11L312.72 -40.11Q312.72 -38.40 314.34 -37.40L314.34 -37.40L314.34 -37.40Q315.95 -36.41 319.27 -36.41L319.27 -36.41L319.27 -36.41Q321.80 -36.41 323.94 -37.34L323.94 -37.34L323.02 -31.23L323.02 -31.23Q322.17 -30.64 320.96 -30.32L320.96 -30.32L320.96 -30.32Q319.75 -30.00 318.42 -30.00L318.42 -30.00L318.42 -30.00Q315.70 -30.00 313.70 -31.22L313.70 -31.22L313.70 -31.22Q311.70 -32.44 310.63 -34.60L310.63 -34.60L310.63 -34.60Q309.56 -36.76 309.56 -39.52L309.56 -39.52L309.56 -39.52Q309.56 -42.45 310.84 -44.83L310.84 -44.83L310.84 -44.83Q312.13 -47.21 314.64 -48.60L314.64 -48.60L314.64 -48.60Q317.16 -50.00 320.70 -50.00L320.70 -50.00L320.70 -50.00Q324.50 -50.00 327.51 -48.21L327.51 -48.21L327.51 -48.21Q330.52 -46.42 332.20 -43.13L332.20 -43.13L332.20 -43.13Q333.89 -39.85 333.89 -35.55L333.89 -35.55L333.89 -35.55Q333.89 -30.28 331.71 -26.31L331.71 -26.31L331.71 -26.31Q329.53 -22.33 325.70 -20.17L325.70 -20.17L325.70 -20.17Q321.86 -18.00 316.97 -18.00L316.97 -18.00L316.97 -18.00Q311.39 -18.00 307.19 -20.12L307.19 -20.12L307.19 -20.12Q302.98 -22.23 299.92 -25.51L299.92 -25.51L299.92 -25.51Q296.86 -28.79 292.47 -34.60L292.47 -34.60L292.47 -34.60Q288.56 -39.71 285.66 -43.09L285.66 -43.09L285.66 -43.09Q282.77 -46.47 278.67 -49.97L278.67 -49.97L278.67 -49.97Q274.58 -53.47 269.44 -56.20L269.44 -56.20L272.25 -58.00ZM272.25 -43.00L272.25 -43.00Q275.39 -41.52 278.16 -39.33L278.16 -39.33L278.16 -39.33Q280.94 -37.14 283.20 -34.77L283.20 -34.77L283.20 -34.77Q285.47 -32.40 288.64 -28.73L288.64 -28.73L288.64 -28.73Q293.39 -23.32 296.80 -20.12L296.80 -20.12L296.80 -20.12Q300.20 -16.92 304.88 -14.73L304.88 -14.73L304.88 -14.73Q309.56 -12.55 315.53 -12.55L315.53 -12.55L315.53 -12.55Q321.55 -12.55 325.94 -14.88L325.94 -14.88L325.94 -14.88Q330.33 -17.22 333.81 -22.00L333.81 -22.00L334.45 -18.63L334.45 -18.63Q330.97 -12.30 326.27 -9.15L326.27 -9.15L326.27 -9.15Q321.58 -6.00 315.14 -6.00L315.14 -6.00L315.14 -6.00Q308.19 -6.00 303.05 -8.51L303.05 -8.51L303.05 -8.51Q297.92 -11.01 294.39 -14.66L294.39 -14.66L294.39 -14.66Q290.86 -18.32 286.00 -24.70L286.00 -24.70L286.00 -24.70Q282.84 -28.85 280.63 -31.50L280.63 -31.50L280.63 -31.50Q278.41 -34.15 275.58 -36.76L275.58 -36.76L275.58 -36.76Q272.75 -39.37 269.44 -41.34L269.44 -41.34L272.25 -43.00ZM333.03 -33.00L333.03 -33.00Q336.52 -28.59 340.45 -26.39L340.45 -26.39L340.45 -26.39Q344.39 -24.19 349.73 -24.19L349.73 -24.19L349.73 -24.19Q354.02 -24.19 356.98 -25.57L356.98 -25.57L356.98 -25.57Q359.95 -26.94 361.47 -29.37L361.47 -29.37L361.47 -29.37Q362.98 -31.80 362.98 -34.87L362.98 -34.87L362.98 -34.87Q362.98 -37.60 361.70 -39.69L361.70 -39.69L361.70 -39.69Q360.42 -41.77 357.91 -42.93L357.91 -42.93L357.91 -42.93Q355.39 -44.09 351.84 -44.09L351.84 -44.09L351.84 -44.09Q348.39 -44.09 346.69 -42.98L346.69 -42.98L346.69 -42.98Q344.98 -41.87 344.98 -40.11L344.98 -40.11L344.98 -40.11Q344.98 -38.40 346.62 -37.40L346.62 -37.40L346.62 -37.40Q348.25 -36.41 351.56 -36.41L351.56 -36.41L351.56 -36.41Q354.05 -36.41 356.23 -37.34L356.23 -37.34L355.28 -31.23L355.28 -31.23Q354.44 -30.64 353.23 -30.32L353.23 -30.32L353.23 -30.32Q352.02 -30.00 350.67 -30.00L350.67 -30.00L350.67 -30.00Q347.97 -30.00 345.97 -31.22L345.97 -31.22L345.97 -31.22Q343.97 -32.44 342.89 -34.60L342.89 -34.60L342.89 -34.60Q341.81 -36.76 341.81 -39.52L341.81 -39.52L341.81 -39.52Q341.81 -42.45 343.10 -44.83L343.10 -44.83L343.10 -44.83Q344.39 -47.21 346.92 -48.60L346.92 -48.60L346.92 -48.60Q349.45 -50.00 353.00 -50.00L353.00 -50.00L353.00 -50.00Q356.80 -50.00 359.78 -48.21L359.78 -48.21L359.78 -48.21Q362.77 -46.42 364.45 -43.13L364.45 -43.13L364.45 -43.13Q366.14 -39.85 366.14 -35.55L366.14 -35.55L366.14 -35.55Q366.14 -30.28 363.98 -26.31L363.98 -26.31L363.98 -26.31Q361.83 -22.33 357.98 -20.17L357.98 -20.17L357.98 -20.17Q354.13 -18.00 349.23 -18.00L349.23 -18.00L349.23 -18.00Q343.55 -18.00 339.55 -21.21L339.55 -21.21L339.55 -21.21Q335.56 -24.41 332.25 -30.72L332.25 -30.72L333.03 -33.00ZM334.05 -22.00L334.05 -22.00Q337.25 -17.39 340.82 -14.97L340.82 -14.97L340.82 -14.97Q344.39 -12.55 349.23 -12.55L349.23 -12.55L349.23 -12.55Q354.80 -12.55 358.85 -14.88L358.85 -14.88L358.85 -14.88Q362.91 -17.22 366.08 -22.00L366.08 -22.00L366.75 -18.63L366.75 -18.63Q363.47 -12.30 359.15 -9.15L359.15 -9.15L359.15 -9.15Q354.83 -6.00 348.89 -6.00L348.89 -6.00L348.89 -6.00Q343.19 -6.00 339.60 -9.23L339.60 -9.23L339.60 -9.23Q336.02 -12.46 333.42 -18.63L333.42 -18.63L334.05 -22.00ZM373.25 -58.00L373.25 -58.00Q378.11 -56.05 382.10 -53.34L382.10 -53.34L382.10 -53.34Q386.09 -50.62 389.05 -47.88L389.05 -47.88L389.05 -47.88Q392.00 -45.14 395.94 -41.01L395.94 -41.01L395.94 -41.01Q400.36 -36.41 403.30 -33.86L403.30 -33.86L403.30 -33.86Q406.23 -31.30 410.02 -29.60L410.02 -29.60L410.02 -29.60Q413.80 -27.91 418.47 -27.91L418.47 -27.91L418.47 -27.91Q422.72 -27.91 425.71 -29.08L425.71 -29.08L425.71 -29.08Q428.70 -30.25 430.21 -32.30L430.21 -32.30L430.21 -32.30Q431.72 -34.34 431.72 -36.93L431.72 -36.93L431.72 -36.93Q431.72 -39.06 430.42 -40.75L430.42 -40.75L430.42 -40.75Q429.13 -42.45 426.61 -43.41L426.61 -43.41L426.61 -43.41Q424.09 -44.38 420.55 -44.38L420.55 -44.38L420.55 -44.38Q417.09 -44.38 415.41 -43.43L415.41 -43.43L415.41 -43.43Q413.72 -42.49 413.72 -40.99L413.72 -40.99L413.72 -40.99Q413.72 -39.63 415.34 -38.87L415.34 -38.87L415.34 -38.87Q416.95 -38.11 420.27 -38.11L420.27 -38.11L420.27 -38.11Q422.94 -38.11 424.94 -38.86L424.94 -38.86L424.02 -33.02L424.02 -33.02Q423.14 -32.53 421.93 -32.27L421.93 -32.27L421.93 -32.27Q420.72 -32.00 419.42 -32.00L419.42 -32.00L419.42 -32.00Q416.70 -32.00 414.70 -33.07L414.70 -33.07L414.70 -33.07Q412.70 -34.14 411.63 -36.06L411.63 -36.06L411.63 -36.06Q410.56 -37.97 410.56 -40.43L410.56 -40.43L410.56 -40.43Q410.56 -43.11 411.84 -45.29L411.84 -45.29L411.84 -45.29Q413.13 -47.46 415.64 -48.73L415.64 -48.73L415.64 -48.73Q418.16 -50.00 421.70 -50.00L421.70 -50.00L421.70 -50.00Q425.50 -50.00 428.51 -48.46L428.51 -48.46L428.51 -48.46Q431.52 -46.92 433.20 -44.11L433.20 -44.11L433.20 -44.11Q434.89 -41.31 434.89 -37.59L434.89 -37.59L434.89 -37.59Q434.89 -32.90 432.71 -29.36L432.71 -29.36L432.71 -29.36Q430.53 -25.82 426.70 -23.91L426.70 -23.91L426.70 -23.91Q422.86 -22.00 417.97 -22.00L417.97 -22.00L417.97 -22.00Q412.39 -22.00 408.19 -23.91L408.19 -23.91L408.19 -23.91Q403.98 -25.81 400.92 -28.72L400.92 -28.72L400.92 -28.72Q397.86 -31.63 393.44 -36.86L393.44 -36.86L393.44 -36.86Q389.53 -41.42 386.63 -44.44L386.63 -44.44L386.63 -44.44Q383.73 -47.45 379.66 -50.59L379.66 -50.59L379.66 -50.59Q375.58 -53.74 370.44 -56.20L370.44 -56.20L373.25 -58.00ZM373.25 -43.00L373.25 -43.00Q376.39 -41.73 379.18 -39.80L379.18 -39.80L379.18 -39.80Q381.97 -37.87 384.19 -35.82L384.19 -35.82L384.19 -35.82Q386.41 -33.78 389.67 -30.47L389.67 -30.47L389.67 -30.47Q394.39 -25.73 397.80 -22.92L397.80 -22.92L397.80 -22.92Q401.20 -20.10 405.88 -18.18L405.88 -18.18L405.88 -18.18Q410.56 -16.25 416.53 -16.25L416.53 -16.25L416.53 -16.25Q422.58 -16.25 426.95 -18.65L426.95 -18.65L426.95 -18.65Q431.33 -21.06 434.81 -26.00L434.81 -26.00L435.45 -22.63L435.45 -22.63Q431.97 -16.31 427.27 -13.16L427.27 -13.16L427.27 -13.16Q422.58 -10.00 416.14 -10.00L416.14 -10.00L416.14 -10.00Q409.16 -10.00 404.02 -12.22L404.02 -12.22L404.02 -12.22Q398.89 -14.45 395.35 -17.67L395.35 -17.67L395.35 -17.67Q391.81 -20.90 386.94 -26.58L386.94 -26.58L386.94 -26.58Q383.84 -30.19 381.63 -32.55L381.63 -32.55L381.63 -32.55Q379.41 -34.91 376.58 -37.24L376.58 -37.24L376.58 -37.24Q373.75 -39.58 370.44 -41.34L370.44 -41.34L373.25 -43.00ZM420.41 -5.00L418.11 1.16L418.11 34.00L414.81 31.68L414.81 31.68Q414.28 20.17 413.63 13.48L413.63 13.48L413.63 13.48Q412.98 6.79 411.92 1.16L411.92 1.16L409.61 -5.00L420.41 -5.00ZM441.38 -57.77L441.38 -57.77Q446.23 -55.43 450.22 -52.13L450.22 -52.13L450.22 -52.13Q454.20 -48.84 457.18 -45.47L457.18 -45.47L457.18 -45.47Q460.16 -42.10 464.09 -37.11L464.09 -37.11L464.09 -37.11Q468.45 -31.56 471.41 -28.43L471.41 -28.43L471.41 -28.43Q474.36 -25.30 478.13 -23.24L478.13 -23.24L478.13 -23.24Q481.91 -21.19 486.59 -21.19L486.59 -21.19L486.59 -21.19Q490.88 -21.19 493.84 -22.76L493.84 -22.76L493.84 -22.76Q496.81 -24.34 498.33 -27.09L498.33 -27.09L498.33 -27.09Q499.84 -29.84 499.84 -33.40L499.84 -33.40L499.84 -33.40Q499.84 -36.53 498.49 -38.94L498.49 -38.94L498.49 -38.94Q497.14 -41.35 494.48 -42.72L494.48 -42.72L494.48 -42.72Q491.83 -44.09 488.09 -44.09L488.09 -44.09L488.09 -44.09Q484.48 -44.09 482.69 -42.70L482.69 -42.70L482.69 -42.70Q480.89 -41.30 480.89 -39.10L480.89 -39.10L480.89 -39.10Q480.89 -36.91 482.63 -35.65L482.63 -35.65L482.63 -35.65Q484.38 -34.39 487.81 -34.39L487.81 -34.39L487.81 -34.39Q490.45 -34.39 492.50 -35.34L492.50 -35.34L491.55 -29.23L491.55 -29.23Q490.73 -28.63 489.51 -28.31L489.51 -28.31L489.51 -28.31Q488.28 -28.00 486.94 -28.00L486.94 -28.00L486.94 -28.00Q484.13 -28.00 482.05 -29.33L482.05 -29.33L482.05 -29.33Q479.98 -30.67 478.86 -33.06L478.86 -33.06L478.86 -33.06Q477.73 -35.45 477.73 -38.53L477.73 -38.53L477.73 -38.53Q477.73 -41.75 479.07 -44.36L479.07 -44.36L479.07 -44.36Q480.41 -46.96 483.01 -48.48L483.01 -48.48L483.01 -48.48Q485.61 -50.00 489.27 -50.00L489.27 -50.00L489.27 -50.00Q493.23 -50.00 496.36 -48.04L496.36 -48.04L496.36 -48.04Q499.48 -46.08 501.24 -42.47L501.24 -42.47L501.24 -42.47Q503.00 -38.87 503.00 -34.06L503.00 -34.06L503.00 -34.06Q503.00 -28.34 500.82 -24.02L500.82 -24.02L500.82 -24.02Q498.64 -19.69 494.81 -17.35L494.81 -17.35L494.81 -17.35Q490.98 -15.00 486.09 -15.00L486.09 -15.00L486.09 -15.00Q480.50 -15.00 476.30 -17.28L476.30 -17.28L476.30 -17.28Q472.11 -19.56 469.06 -23.04L469.06 -23.04L469.06 -23.04Q466.02 -26.52 461.59 -32.78L461.59 -32.78L461.59 -32.78Q457.72 -38.24 454.80 -41.88L454.80 -41.88L454.80 -41.88Q451.89 -45.53 447.80 -49.30L447.80 -49.30L447.80 -49.30Q443.70 -53.06 438.56 -55.97L438.56 -55.97L441.38 -57.77ZM508.91 -49.00L512.81 -49.00L512.81 -16.00L508.91 -16.00L508.91 -49.00ZM528.81 -49.00L532.67 -49.00L532.67 -16.00L528.81 -16.00L528.81 -49.00ZM520.80 -37.36L520.80 -37.36Q519.64 -37.36 518.63 -37.94L518.63 -37.94L518.63 -37.94Q517.63 -38.52 517.05 -39.52L517.05 -39.52L517.05 -39.52Q516.47 -40.52 516.47 -41.69L516.47 -41.69L516.47 -41.69Q516.47 -42.84 517.05 -43.84L517.05 -43.84L517.05 -43.84Q517.63 -44.84 518.63 -45.42L518.63 -45.42L518.63 -45.42Q519.64 -46.00 520.80 -46.00L520.80 -46.00L520.80 -46.00Q521.95 -46.00 522.95 -45.42L522.95 -45.42L522.95 -45.42Q523.95 -44.84 524.54 -43.84L524.54 -43.84L524.54 -43.84Q525.13 -42.84 525.13 -41.69L525.13 -41.69L525.13 -41.69Q525.13 -39.89 523.86 -38.63L523.86 -38.63L523.86 -38.63Q522.59 -37.36 520.80 -37.36L520.80 -37.36ZM520.80 -19.00L520.80 -19.00Q519.64 -19.00 518.63 -19.58L518.63 -19.58L518.63 -19.58Q517.63 -20.16 517.05 -21.16L517.05 -21.16L517.05 -21.16Q516.47 -22.16 516.47 -23.33L516.47 -23.33L516.47 -23.33Q516.47 -24.48 517.05 -25.48L517.05 -25.48L517.05 -25.48Q517.63 -26.48 518.63 -27.06L518.63 -27.06L518.63 -27.06Q519.64 -27.64 520.80 -27.64L520.80 -27.64L520.80 -27.64Q521.95 -27.64 522.95 -27.06L522.95 -27.06L522.95 -27.06Q523.95 -26.48 524.54 -25.48L524.54 -25.48L524.54 -25.48Q525.13 -24.48 525.13 -23.33L525.13 -23.33L525.13 -23.33Q525.13 -21.53 523.86 -20.27L523.86 -20.27L523.86 -20.27Q522.59 -19.00 520.80 -19.00L520.80 -19.00Z"/></svg>