<svg xmlns="http://www.w3.org/2000/svg" viewBox="0 -82.95 515.44 82.95" height="100%"><path fill="currentColor" d="M37.38 -28.58L37.38 -28.58L37.38 -28.58Q37.38 -25.56 35.93 -22.29L35.93 -22.29L35.93 -22.29Q34.48 -19.02 31.17 -16.92L31.17 -16.92L31.17 -16.92Q34.13 -15.19 35.38 -12.92L35.38 -12.92L35.38 -12.92Q36.64 -10.66 36.64 -8.20L36.64 -8.20L36.64 -8.20Q36.64 -5.69 35.38 -3.53L35.38 -3.53L35.38 -3.53Q34.13 -1.38 31.61 -0.04L31.61 -0.04L31.61 -0.04Q29.09 1.30 25.20 1.30L25.20 1.30L25.20 1.30Q20.59 1.30 17.97 -0.32L17.97 -0.32L17.97 -0.32Q15.34 -1.94 15.34 -4.61L15.34 -4.61L15.34 -4.61Q15.34 -6.91 17.07 -8.35L17.07 -8.35L17.07 -8.35Q18.80 -9.80 21.53 -9.80L21.53 -9.80L21.53 -9.80Q24.98 -9.80 26.75 -7.74L26.75 -7.74L26.75 -7.74Q28.52 -5.69 28.52 -2.88L28.52 -2.88L28.52 -2.81L28.52 -2.81Q31.53 -4.39 31.53 -8.14L31.53 -8.14L31.53 -8.14Q31.53 -13.17 25.27 -15.84L25.27 -15.84L25.27 -18.44L25.27 -18.44Q28.44 -19.73 29.80 -22.43L29.80 -22.43L29.80 -22.43Q31.17 -25.13 31.17 -27.86L31.17 -27.86L31.17 -27.86Q31.17 -32.69 28.12 -35.24L28.12 -35.24L28.12 -35.24Q25.06 -37.80 20.16 -37.80L20.16 -37.80L20.16 -37.80Q15.13 -37.80 12.17 -34.99L12.17 -34.99L12.17 -34.99Q9.22 -32.19 9.22 -27.72L9.22 -27.72L9.22 -27.72Q9.22 -25.48 9.80 -23.77L9.80 -23.77L9.80 -23.77Q10.73 -25.27 12.24 -26.17L12.24 -26.17L12.24 -26.17Q13.75 -27.08 15.63 -27.08L15.63 -27.08L15.63 -27.08Q18.14 -27.08 19.73 -25.60L19.73 -25.60L19.73 -25.60Q21.31 -24.13 21.31 -21.67L21.31 -21.67L21.31 -21.67Q21.31 -19.16 19.52 -17.57L19.52 -17.57L19.52 -17.57Q17.72 -15.98 14.83 -15.98L14.83 -15.98L14.83 -15.98Q11.81 -15.98 9.33 -17.57L9.33 -17.57L9.33 -17.57Q6.84 -19.16 5.37 -21.93L5.37 -21.93L5.37 -21.93Q3.89 -24.70 3.89 -28.38L3.89 -28.38L3.89 -28.38Q3.89 -32.69 5.94 -35.93L5.94 -35.93L5.94 -35.93Q7.98 -39.17 11.70 -40.97L11.70 -40.97L11.70 -40.97Q15.41 -42.77 20.38 -42.77L20.38 -42.77L20.38 -42.77Q25.48 -42.77 29.30 -41.08L29.30 -41.08L29.30 -41.08Q33.13 -39.39 35.25 -36.18L35.25 -36.18L35.25 -36.18Q37.38 -32.97 37.38 -28.58ZM15.41 -24.19L15.41 -24.19L15.41 -24.19Q13.97 -24.19 12.96 -23.25L12.96 -23.25L12.96 -23.25Q11.95 -22.31 11.45 -20.66L11.45 -20.66L11.45 -20.66Q12.95 -18.94 15.27 -18.94L15.27 -18.94L15.27 -18.94Q16.70 -18.94 17.46 -19.70L17.46 -19.70L17.46 -19.70Q18.22 -20.45 18.22 -21.67L18.22 -21.67L18.22 -21.67Q18.22 -22.97 17.39 -23.58L17.39 -23.58L17.39 -23.58Q16.56 -24.19 15.41 -24.19ZM19.02 -4.61L19.02 -4.61L19.02 -4.61Q19.02 -3.39 20.38 -2.70L20.38 -2.70L20.38 -2.70Q21.75 -2.02 24.77 -2.02L24.77 -2.02L24.77 -2.02Q24.98 -2.02 25.20 -2.02L25.20 -2.02L25.20 -2.02Q25.27 -2.52 25.27 -2.95L25.27 -2.95L25.27 -2.95Q25.27 -6.70 21.75 -6.70L21.75 -6.70L21.75 -6.70Q20.38 -6.70 19.70 -6.13L19.70 -6.13L19.70 -6.13Q19.02 -5.55 19.02 -4.61ZM77.20 -30.31L77.20 -30.31L77.20 -30.31Q77.20 -24.55 72.59 -19.73L72.59 -19.73L68.06 -23.11L68.06 -23.11Q69.50 -24.55 70.33 -26.38L70.33 -26.38L70.33 -26.38Q71.16 -28.22 71.16 -30.31L71.16 -30.31L71.16 -30.31Q71.16 -33.84 69.03 -35.82L69.03 -35.82L69.03 -35.82Q66.91 -37.80 63.31 -37.80L63.31 -37.80L63.31 -37.80Q59.72 -37.80 57.66 -35.89L57.66 -35.89L57.66 -35.89Q55.61 -33.98 55.61 -30.89L55.61 -30.89L55.61 -30.89Q55.61 -29.02 56.08 -27.04L56.08 -27.04L56.08 -27.04Q56.55 -25.06 56.55 -22.97L56.55 -22.97L56.55 -22.97Q56.55 -19.38 53.73 -16.63L53.73 -16.63L53.73 -16.63Q50.92 -13.89 46.03 -12.39L46.03 -12.39L44.16 -14.33L44.16 -14.33Q44.38 -15.41 44.38 -16.63L44.38 -16.63L44.38 -16.63Q44.38 -20.38 42.18 -22.72L42.18 -22.72L42.18 -22.72Q39.98 -25.06 36.39 -25.27L36.39 -25.27L36.17 -30.53L36.17 -30.53Q41.86 -29.88 45.02 -26.35L45.02 -26.35L45.02 -26.35Q48.19 -22.83 48.19 -17.78L48.19 -17.78L48.19 -17.78Q49.63 -18.80 50.24 -20.13L50.24 -20.13L50.24 -20.13Q50.86 -21.45 50.86 -23.05L50.86 -23.05L50.86 -23.05Q50.86 -24.70 50.28 -26.90L50.28 -26.90L50.28 -26.90Q49.70 -29.09 49.70 -31.39L49.70 -31.39L49.70 -31.39Q49.70 -36.44 53.34 -39.60L53.34 -39.60L53.34 -39.60Q56.97 -42.77 63.31 -42.77L63.31 -42.77L63.31 -42.77Q69.58 -42.77 73.39 -39.34L73.39 -39.34L73.39 -39.34Q77.20 -35.92 77.20 -30.31ZM142.78 -24.84L142.78 -24.84L142.78 -24.84Q142.78 -16.48 139.36 -9.86L139.36 -9.86L139.36 -9.86Q135.94 -3.23 127.58 1.58L127.58 1.58L127.58 1.58Q120.67 5.61 117.79 8.06L117.79 8.06L117.79 8.06Q114.91 10.52 114.91 12.81L114.91 12.81L114.91 12.81Q114.91 14.19 115.77 15.16L115.77 15.16L115.77 15.16Q116.64 16.13 118.22 16.13L118.22 16.13L118.22 16.13Q119.66 16.13 120.81 15.05L120.81 15.05L120.81 15.05Q121.97 13.97 123.09 12.38L123.09 12.38L123.09 12.38Q124.20 10.80 125.53 9.21L125.53 9.21L125.53 9.21Q126.86 7.63 128.70 6.55L128.70 6.55L128.70 6.55Q130.53 5.47 133.20 5.47L133.20 5.47L133.20 5.47Q136.30 5.47 138.38 7.48L138.38 7.48L138.38 7.48Q140.47 9.50 140.47 12.39L140.47 12.39L140.47 12.39Q140.47 13.61 139.97 15.23L139.97 15.23L139.97 15.23Q139.47 16.84 138.53 18.22L138.53 18.22L133.63 15.98L133.63 15.98Q134.64 14.55 134.64 13.17L134.64 13.17L134.64 13.17Q134.64 10.73 132.13 10.73L132.13 10.73L132.13 10.73Q130.75 10.73 129.67 11.81L129.67 11.81L129.67 11.81Q128.59 12.89 127.52 14.51L127.52 14.51L127.52 14.51Q126.44 16.13 125.10 17.75L125.10 17.75L125.10 17.75Q123.77 19.38 121.93 20.45L121.93 20.45L121.93 20.45Q120.09 21.53 117.44 21.53L117.44 21.53L117.44 21.53Q113.91 21.53 111.38 19.23L111.38 19.23L111.38 19.23Q108.86 16.92 108.86 13.39L108.86 13.39L108.86 13.39Q108.86 11.16 109.95 8.89L109.95 8.89L109.95 8.89Q111.03 6.63 114.16 3.96L114.16 3.96L114.16 3.96Q117.28 1.30 123.48 -2.23L123.48 -2.23L123.48 -2.23Q130.97 -6.55 133.77 -12.13L133.77 -12.13L133.77 -12.13Q136.58 -17.72 136.58 -24.84L136.58 -24.84L136.58 -24.84Q136.58 -30.59 134.02 -33.95L134.02 -33.95L134.02 -33.95Q131.47 -37.30 128.02 -37.30L128.02 -37.30L128.02 -37.30Q125.78 -37.30 124.34 -36.43L124.34 -36.43L124.34 -36.43Q122.91 -35.56 121.65 -34.38L121.65 -34.38L121.65 -34.38Q120.39 -33.19 118.80 -32.33L118.80 -32.33L118.80 -32.33Q117.22 -31.47 114.84 -31.47L114.84 -31.47L114.84 -31.47Q112.47 -31.47 110.88 -32.33L110.88 -32.33L110.88 -32.33Q109.30 -33.19 108.04 -34.38L108.04 -34.38L108.04 -34.38Q106.78 -35.56 105.34 -36.43L105.34 -36.43L105.34 -36.43Q103.89 -37.30 101.66 -37.30L101.66 -37.30L101.66 -37.30Q97.92 -37.30 95.44 -33.34L95.44 -33.34L95.44 -33.34Q92.95 -29.38 92.95 -22.17L92.95 -22.17L92.95 -22.17Q92.95 -17.64 93.71 -14.15L93.71 -14.15L93.71 -14.15Q94.47 -10.66 95.69 -8.14L95.69 -8.14L95.69 -8.14Q96.98 -10.52 99.04 -11.81L99.04 -11.81L99.04 -11.81Q101.09 -13.11 103.83 -13.11L103.83 -13.11L103.83 -13.11Q107.28 -13.11 109.52 -11.16L109.52 -11.16L109.52 -11.16Q111.75 -9.22 111.75 -5.91L111.75 -5.91L111.75 -5.91Q111.75 -2.73 109.48 -0.68L109.48 -0.68L109.48 -0.68Q107.20 1.38 103.25 1.38L103.25 1.38L103.25 1.38Q98.50 1.38 94.79 -1.47L94.79 -1.47L94.79 -1.47Q91.08 -4.31 88.92 -9.57L88.92 -9.57L88.92 -9.57Q86.77 -14.83 86.77 -22.17L86.77 -22.17L86.77 -22.17Q86.77 -28.52 88.49 -33.16L88.49 -33.16L88.49 -33.16Q90.22 -37.80 93.31 -40.28L93.31 -40.28L93.31 -40.28Q96.41 -42.77 100.52 -42.77L100.52 -42.77L100.52 -42.77Q103.61 -42.77 105.63 -41.91L105.63 -41.91L105.63 -41.91Q107.64 -41.05 109.12 -39.85L109.12 -39.85L109.12 -39.85Q110.59 -38.66 111.92 -37.80L111.92 -37.80L111.92 -37.80Q113.25 -36.94 114.84 -36.94L114.84 -36.94L114.84 -36.94Q116.42 -36.94 117.72 -37.80L117.72 -37.80L117.72 -37.80Q119.02 -38.66 120.49 -39.85L120.49 -39.85L120.49 -39.85Q121.97 -41.05 124.02 -41.91L124.02 -41.91L124.02 -41.91Q126.08 -42.77 129.17 -42.77L129.17 -42.77L129.17 -42.77Q133.13 -42.77 136.19 -40.53L136.19 -40.53L136.19 -40.53Q139.25 -38.30 141.02 -34.27L141.02 -34.27L141.02 -34.27Q142.78 -30.23 142.78 -24.84ZM103.75 -9.44L103.75 -9.44L103.75 -9.44Q101.59 -9.44 100.23 -8.10L100.23 -8.10L100.23 -8.10Q98.86 -6.77 98.20 -4.75L98.20 -4.75L98.20 -4.75Q100.58 -2.52 103.61 -2.52L103.61 -2.52L103.61 -2.52Q105.48 -2.52 106.56 -3.45L106.56 -3.45L106.56 -3.45Q107.64 -4.39 107.64 -5.97L107.64 -5.97L107.64 -5.97Q107.64 -7.78 106.49 -8.61L106.49 -8.61L106.49 -8.61Q105.34 -9.44 103.75 -9.44ZM187.81 -28.44L187.81 -28.44L187.81 -28.44Q187.81 -24.13 185.94 -21.35L185.94 -21.35L185.94 -21.35Q184.06 -18.58 180.93 -16.70L180.93 -16.70L180.93 -16.70Q177.80 -14.83 174.20 -13.17L174.20 -13.17L174.20 -13.17Q169.66 -11.09 167.54 -9.73L167.54 -9.73L167.54 -9.73Q165.42 -8.36 165.42 -6.55L165.42 -6.55L165.42 -6.55Q165.42 -3.31 170.81 -3.31L170.81 -3.31L170.81 -3.31Q173.77 -3.31 175.02 -4.79L175.02 -4.79L175.02 -4.79Q176.28 -6.27 176.28 -8.78L176.28 -8.78L182.05 -8.78L182.05 -8.78Q182.05 -4.25 179.02 -1.52L179.02 -1.52L179.02 -1.52Q176.00 1.22 170.67 1.22L170.67 1.22L170.67 1.22Q165.56 1.22 162.47 -0.69L162.47 -0.69L162.47 -0.69Q159.38 -2.59 159.38 -6.34L159.38 -6.34L159.38 -6.34Q159.38 -8.78 160.70 -10.44L160.70 -10.44L160.70 -10.44Q162.03 -12.09 164.45 -13.46L164.45 -13.46L164.45 -13.46Q166.86 -14.83 170.09 -16.42L170.09 -16.42L170.09 -16.42Q173.41 -18.00 176.03 -19.55L176.03 -19.55L176.03 -19.55Q178.66 -21.09 180.17 -23.15L180.17 -23.15L180.17 -23.15Q181.69 -25.20 181.69 -28.30L181.69 -28.30L181.69 -28.30Q181.69 -32.69 178.66 -35.24L178.66 -35.24L178.66 -35.24Q175.64 -37.80 170.17 -37.80L170.17 -37.80L170.17 -37.80Q164.34 -37.80 161.28 -35.24L161.28 -35.24L161.28 -35.24Q158.22 -32.69 158.22 -28.16L158.22 -28.16L158.22 -28.16Q158.22 -25.06 160.30 -21.23L160.30 -21.23L155.34 -18.86L155.34 -18.86Q153.89 -21.17 153.10 -23.66L153.10 -23.66L153.10 -23.66Q152.31 -26.14 152.31 -28.02L152.31 -28.02L152.31 -28.02Q152.31 -32.55 154.55 -35.86L154.55 -35.86L154.55 -35.86Q156.78 -39.17 160.81 -40.97L160.81 -40.97L160.81 -40.97Q164.84 -42.77 170.23 -42.77L170.23 -42.77L170.23 -42.77Q175.64 -42.77 179.56 -40.97L179.56 -40.97L179.56 -40.97Q183.48 -39.17 185.65 -35.93L185.65 -35.93L185.65 -35.93Q187.81 -32.69 187.81 -28.44ZM256.08 -49.83L256.08 -49.83L256.08 -49.83Q256.08 -47.52 255.07 -45.29L255.07 -45.29L255.07 -45.29Q254.06 -43.06 252.27 -41.47L252.27 -41.47L248.23 -44.92L248.23 -44.92Q249.09 -45.94 249.63 -47.13L249.63 -47.13L249.63 -47.13Q250.17 -48.31 250.17 -49.75L250.17 -49.75L250.17 -49.75Q250.17 -52.92 248.05 -54.72L248.05 -54.72L248.05 -54.72Q245.92 -56.52 242.41 -56.52L242.41 -56.52L242.41 -56.52Q238.94 -56.52 236.82 -54.68L236.82 -54.68L236.82 -54.68Q234.70 -52.84 234.70 -49.75L234.70 -49.75L234.70 -49.75Q234.70 -47.09 236.03 -44.86L236.03 -44.86L236.03 -44.86Q237.36 -42.63 239.30 -40.54L239.30 -40.54L239.30 -40.54Q241.25 -38.45 243.23 -36.18L243.23 -36.18L243.23 -36.18Q245.20 -33.91 246.54 -31.21L246.54 -31.21L246.54 -31.21Q247.88 -28.52 247.88 -25.13L247.88 -25.13L247.88 -25.13Q247.88 -21.03 245.64 -18.26L245.64 -18.26L245.64 -18.26Q243.41 -15.48 239.81 -14.47L239.81 -14.47L239.81 -14.47Q238.94 -12.81 237.32 -11.70L237.32 -11.70L237.32 -11.70Q235.70 -10.58 233.55 -9.72L233.55 -9.72L233.55 -9.72Q230.59 -8.50 229.55 -7.67L229.55 -7.67L229.55 -7.67Q228.50 -6.84 228.50 -5.55L228.50 -5.55L228.50 -5.55Q228.50 -3.95 231.17 -2.02L231.17 -2.02L229.88 1.16L229.88 1.16Q229.08 1.22 228.11 1.22L228.11 1.22L228.11 1.22Q227.14 1.22 226.13 1.22L226.13 1.22L226.13 1.22Q221.52 1.22 218.10 -0.47L218.10 -0.47L218.10 -0.47Q214.69 -2.16 212.77 -5.18L212.77 -5.18L212.77 -5.18Q210.86 -8.20 210.86 -12.17L210.86 -12.17L210.86 -12.17Q210.86 -14.91 211.84 -17.17L211.84 -17.17L211.84 -17.17Q212.81 -19.44 214.14 -21.45L214.14 -21.45L214.14 -21.45Q215.47 -23.47 216.45 -25.55L216.45 -25.55L216.45 -25.55Q217.42 -27.64 217.42 -30.09L217.42 -30.09L217.42 -30.09Q217.42 -33.55 215.37 -35.67L215.37 -35.67L215.37 -35.67Q213.31 -37.80 209.78 -37.80L209.78 -37.80L209.78 -37.80Q206.25 -37.80 204.05 -35.78L204.05 -35.78L204.05 -35.78Q201.86 -33.77 201.86 -30.23L201.86 -30.23L201.86 -30.23Q201.86 -28.22 202.69 -26.42L202.69 -26.42L202.69 -26.42Q203.52 -24.63 204.67 -23.41L204.67 -23.41L200.20 -19.88L200.20 -19.88Q197.97 -21.81 196.89 -24.59L196.89 -24.59L196.89 -24.59Q195.81 -27.36 195.81 -30.03L195.81 -30.03L195.81 -30.03Q195.81 -35.78 199.70 -39.27L199.70 -39.27L199.70 -39.27Q203.59 -42.77 209.92 -42.77L209.92 -42.77L209.92 -42.77Q213.95 -42.77 217.02 -41.26L217.02 -41.26L217.02 -41.26Q220.08 -39.75 221.80 -36.98L221.80 -36.98L221.80 -36.98Q223.53 -34.20 223.53 -30.53L223.53 -30.53L223.53 -30.53Q223.53 -27.58 222.56 -25.23L222.56 -25.23L222.56 -25.23Q221.59 -22.89 220.26 -20.80L220.26 -20.80L220.26 -20.80Q218.92 -18.72 217.95 -16.59L217.95 -16.59L217.95 -16.59Q216.98 -14.47 216.98 -11.95L216.98 -11.95L216.98 -11.95Q216.98 -8.72 218.86 -6.41L218.86 -6.41L218.86 -6.41Q220.73 -4.11 224.05 -3.53L224.05 -3.53L224.05 -3.53Q223.75 -4.39 223.75 -5.33L223.75 -5.33L223.75 -5.33Q223.75 -7.92 225.30 -9.40L225.30 -9.40L225.30 -9.40Q226.84 -10.88 230.38 -12.31L230.38 -12.31L230.38 -12.31Q231.45 -12.75 232.35 -13.18L232.35 -13.18L232.35 -13.18Q233.25 -13.61 233.97 -14.05L233.97 -14.05L233.97 -14.05Q230.30 -14.47 228.14 -16.27L228.14 -16.27L228.14 -16.27Q225.98 -18.08 225.98 -20.45L225.98 -20.45L225.98 -20.45Q225.98 -22.75 227.82 -24.45L227.82 -24.45L227.82 -24.45Q229.66 -26.14 232.83 -26.14L232.83 -26.14L232.83 -26.14Q236.28 -26.14 238.52 -24.09L238.52 -24.09L238.52 -24.09Q240.75 -22.03 240.75 -19.08L240.75 -19.08L240.75 -19.08Q242.77 -20.95 242.77 -24.27L242.77 -24.27L242.77 -24.27Q242.77 -27.22 241.32 -29.70L241.32 -29.70L241.32 -29.70Q239.88 -32.19 237.79 -34.41L237.79 -34.41L237.79 -34.41Q235.70 -36.64 233.62 -38.95L233.62 -38.95L233.62 -38.95Q231.53 -41.25 230.09 -43.91L230.09 -43.91L230.09 -43.91Q228.64 -46.58 228.64 -49.89L228.64 -49.89L228.64 -49.89Q228.64 -55.08 232.39 -58.25L232.39 -58.25L232.39 -58.25Q236.14 -61.42 242.25 -61.42L242.25 -61.42L242.25 -61.42Q246.44 -61.42 249.53 -59.91L249.53 -59.91L249.53 -59.91Q252.63 -58.39 254.35 -55.77L254.35 -55.77L254.35 -55.77Q256.08 -53.14 256.08 -49.83ZM229.58 -20.45L229.58 -20.45L229.58 -20.45Q229.58 -19.02 230.98 -18.11L230.98 -18.11L230.98 -18.11Q232.39 -17.20 235.20 -17.20L235.20 -17.20L235.20 -17.20Q235.84 -17.20 236.50 -17.28L236.50 -17.28L236.50 -17.28Q236.72 -18.08 236.72 -19.08L236.72 -19.08L236.72 -19.08Q236.72 -20.73 235.71 -21.89L235.71 -21.89L235.71 -21.89Q234.70 -23.05 232.69 -23.05L232.69 -23.05L232.69 -23.05Q231.09 -23.05 230.34 -22.29L230.34 -22.29L230.34 -22.29Q229.58 -21.53 229.58 -20.45ZM316.78 -24.84L316.78 -24.84L316.78 -24.84Q316.78 -17.72 314.48 -12.17L314.48 -12.17L314.48 -12.17Q312.17 -6.63 307.31 -2.23L307.31 -2.23L307.31 -2.23Q302.45 2.16 294.75 5.77L294.75 5.77L294.75 5.77Q289.70 8.14 287.87 9.83L287.87 9.83L287.87 9.83Q286.03 11.52 286.03 13.25L286.03 13.25L286.03 13.25Q286.03 14.91 287.44 15.95L287.44 15.95L287.44 15.95Q288.84 16.98 291.50 16.98L291.50 16.98L291.50 16.98Q294.45 16.98 295.68 15.52L295.68 15.52L295.68 15.52Q296.91 14.05 296.91 11.45L296.91 11.45L302.66 11.45L302.66 11.45Q302.66 15.98 299.63 18.76L299.63 18.76L299.63 18.76Q296.61 21.53 291.28 21.53L291.28 21.53L291.28 21.53Q286.25 21.53 283.12 19.37L283.12 19.37L283.12 19.37Q279.98 17.20 279.98 13.39L279.98 13.39L279.98 13.39Q279.98 9.64 282.83 6.88L282.83 6.88L282.83 6.88Q285.67 4.11 290.64 1.66L290.64 1.66L290.64 1.66Q297.77 -1.88 302.16 -5.55L302.16 -5.55L302.16 -5.55Q306.55 -9.22 308.56 -13.86L308.56 -13.86L308.56 -13.86Q310.58 -18.50 310.58 -24.84L310.58 -24.84L310.58 -24.84Q310.58 -30.59 308.02 -33.95L308.02 -33.95L308.02 -33.95Q305.47 -37.30 302.02 -37.30L302.02 -37.30L302.02 -37.30Q299.78 -37.30 298.34 -36.43L298.34 -36.43L298.34 -36.43Q296.91 -35.56 295.65 -34.38L295.65 -34.38L295.65 -34.38Q294.39 -33.19 292.80 -32.33L292.80 -32.33L292.80 -32.33Q291.22 -31.47 288.84 -31.47L288.84 -31.47L288.84 -31.47Q286.47 -31.47 284.88 -32.33L284.88 -32.33L284.88 -32.33Q283.30 -33.19 282.04 -34.38L282.04 -34.38L282.04 -34.38Q280.78 -35.56 279.34 -36.43L279.34 -36.43L279.34 -36.43Q277.89 -37.30 275.66 -37.30L275.66 -37.30L275.66 -37.30Q271.92 -37.30 269.44 -33.45L269.44 -33.45L269.44 -33.45Q266.95 -29.59 266.95 -22.61L266.95 -22.61L266.95 -22.61Q266.95 -18.36 267.67 -15.01L267.67 -15.01L267.67 -15.01Q268.39 -11.66 269.69 -9.36L269.69 -9.36L269.69 -9.36Q270.91 -11.73 273.00 -13.07L273.00 -13.07L273.00 -13.07Q275.09 -14.41 277.83 -14.41L277.83 -14.41L277.83 -14.41Q281.28 -14.41 283.52 -12.46L283.52 -12.46L283.52 -12.46Q285.75 -10.52 285.75 -7.20L285.75 -7.20L285.75 -7.20Q285.75 -4.03 283.48 -1.98L283.48 -1.98L283.48 -1.98Q281.20 0.08 277.25 0.08L277.25 0.08L277.25 0.08Q272.50 0.08 268.79 -2.66L268.79 -2.66L268.79 -2.66Q265.08 -5.41 262.92 -10.48L262.92 -10.48L262.92 -10.48Q260.77 -15.55 260.77 -22.61L260.77 -22.61L260.77 -22.61Q260.77 -28.80 262.49 -33.34L262.49 -33.34L262.49 -33.34Q264.22 -37.88 267.31 -40.32L267.31 -40.32L267.31 -40.32Q270.41 -42.77 274.52 -42.77L274.52 -42.77L274.52 -42.77Q277.61 -42.77 279.63 -41.91L279.63 -41.91L279.63 -41.91Q281.64 -41.05 283.12 -39.85L283.12 -39.85L283.12 -39.85Q284.59 -38.66 285.92 -37.80L285.92 -37.80L285.92 -37.80Q287.25 -36.94 288.84 -36.94L288.84 -36.94L288.84 -36.94Q290.42 -36.94 291.72 -37.80L291.72 -37.80L291.72 -37.80Q293.02 -38.66 294.49 -39.85L294.49 -39.85L294.49 -39.85Q295.97 -41.05 298.02 -41.91L298.02 -41.91L298.02 -41.91Q300.08 -42.77 303.17 -42.77L303.17 -42.77L303.17 -42.77Q307.13 -42.77 310.19 -40.53L310.19 -40.53L310.19 -40.53Q313.25 -38.30 315.02 -34.27L315.02 -34.27L315.02 -34.27Q316.78 -30.23 316.78 -24.84ZM277.75 -10.73L277.75 -10.73L277.75 -10.73Q275.59 -10.73 274.19 -9.36L274.19 -9.36L274.19 -9.36Q272.78 -7.98 272.20 -5.97L272.20 -5.97L272.20 -5.97Q274.58 -3.81 277.61 -3.81L277.61 -3.81L277.61 -3.81Q279.48 -3.81 280.56 -4.75L280.56 -4.75L280.56 -4.75Q281.64 -5.69 281.64 -7.27L281.64 -7.27L281.64 -7.27Q281.64 -9.08 280.49 -9.91L280.49 -9.91L280.49 -9.91Q279.34 -10.73 277.75 -10.73ZM360.38 -28.58L360.38 -28.58L360.38 -28.58Q360.38 -25.56 358.93 -22.29L358.93 -22.29L358.93 -22.29Q357.48 -19.02 354.17 -16.92L354.17 -16.92L354.17 -16.92Q357.13 -15.19 358.38 -12.92L358.38 -12.92L358.38 -12.92Q359.64 -10.66 359.64 -8.20L359.64 -8.20L359.64 -8.20Q359.64 -5.69 358.38 -3.53L358.38 -3.53L358.38 -3.53Q357.13 -1.38 354.61 -0.04L354.61 -0.04L354.61 -0.04Q352.09 1.30 348.20 1.30L348.20 1.30L348.20 1.30Q343.59 1.30 340.97 -0.32L340.97 -0.32L340.97 -0.32Q338.34 -1.94 338.34 -4.61L338.34 -4.61L338.34 -4.61Q338.34 -6.91 340.07 -8.35L340.07 -8.35L340.07 -8.35Q341.80 -9.80 344.53 -9.80L344.53 -9.80L344.53 -9.80Q347.98 -9.80 349.75 -7.74L349.75 -7.74L349.75 -7.74Q351.52 -5.69 351.52 -2.88L351.52 -2.88L351.52 -2.81L351.52 -2.81Q354.53 -4.39 354.53 -8.14L354.53 -8.14L354.53 -8.14Q354.53 -13.17 348.27 -15.84L348.27 -15.84L348.27 -18.44L348.27 -18.44Q351.44 -19.73 352.80 -22.43L352.80 -22.43L352.80 -22.43Q354.17 -25.13 354.17 -27.86L354.17 -27.86L354.17 -27.86Q354.17 -32.69 351.12 -35.24L351.12 -35.24L351.12 -35.24Q348.06 -37.80 343.16 -37.80L343.16 -37.80L343.16 -37.80Q338.13 -37.80 335.17 -34.99L335.17 -34.99L335.17 -34.99Q332.22 -32.19 332.22 -27.72L332.22 -27.72L332.22 -27.72Q332.22 -25.48 332.80 -23.77L332.80 -23.77L332.80 -23.77Q333.73 -25.27 335.24 -26.17L335.24 -26.17L335.24 -26.17Q336.75 -27.08 338.63 -27.08L338.63 -27.08L338.63 -27.08Q341.14 -27.08 342.73 -25.60L342.73 -25.60L342.73 -25.60Q344.31 -24.13 344.31 -21.67L344.31 -21.67L344.31 -21.67Q344.31 -19.16 342.52 -17.57L342.52 -17.57L342.52 -17.57Q340.72 -15.98 337.83 -15.98L337.83 -15.98L337.83 -15.98Q334.81 -15.98 332.33 -17.57L332.33 -17.57L332.33 -17.57Q329.84 -19.16 328.37 -21.93L328.37 -21.93L328.37 -21.93Q326.89 -24.70 326.89 -28.38L326.89 -28.38L326.89 -28.38Q326.89 -32.69 328.94 -35.93L328.94 -35.93L328.94 -35.93Q330.98 -39.17 334.70 -40.97L334.70 -40.97L334.70 -40.97Q338.41 -42.77 343.38 -42.77L343.38 -42.77L343.38 -42.77Q348.48 -42.77 352.30 -41.08L352.30 -41.08L352.30 -41.08Q356.13 -39.39 358.25 -36.18L358.25 -36.18L358.25 -36.18Q360.38 -32.97 360.38 -28.58ZM338.41 -24.19L338.41 -24.19L338.41 -24.19Q336.97 -24.19 335.96 -23.25L335.96 -23.25L335.96 -23.25Q334.95 -22.31 334.45 -20.66L334.45 -20.66L334.45 -20.66Q335.95 -18.94 338.27 -18.94L338.27 -18.94L338.27 -18.94Q339.70 -18.94 340.46 -19.70L340.46 -19.70L340.46 -19.70Q341.22 -20.45 341.22 -21.67L341.22 -21.67L341.22 -21.67Q341.22 -22.97 340.39 -23.58L340.39 -23.58L340.39 -23.58Q339.56 -24.19 338.41 -24.19ZM342.02 -4.61L342.02 -4.61L342.02 -4.61Q342.02 -3.39 343.38 -2.70L343.38 -2.70L343.38 -2.70Q344.75 -2.02 347.77 -2.02L347.77 -2.02L347.77 -2.02Q347.98 -2.02 348.20 -2.02L348.20 -2.02L348.20 -2.02Q348.27 -2.52 348.27 -2.95L348.27 -2.95L348.27 -2.95Q348.27 -6.70 344.75 -6.70L344.75 -6.70L344.75 -6.70Q343.38 -6.70 342.70 -6.13L342.70 -6.13L342.70 -6.13Q342.02 -5.55 342.02 -4.61ZM422.75 -30.03L422.75 -30.03L422.75 -30.03Q422.75 -27.08 421.74 -24.59L421.74 -24.59L421.74 -24.59Q420.73 -22.11 418.50 -19.73L418.50 -19.73L413.95 -23.05L413.95 -23.05Q416.70 -25.98 416.70 -30.09L416.70 -30.09L416.70 -30.09Q416.70 -33.70 414.61 -35.75L414.61 -35.75L414.61 -35.75Q412.52 -37.80 408.84 -37.80L408.84 -37.80L408.84 -37.80Q405.17 -37.80 402.73 -35.20L402.73 -35.20L402.73 -35.20Q400.28 -32.61 400.36 -27.28L400.36 -27.28L395.03 -27.28L395.03 -27.28Q395.17 -32.55 392.83 -35.17L392.83 -35.17L392.83 -35.17Q390.48 -37.80 386.75 -37.80L386.75 -37.80L386.75 -37.80Q383.14 -37.80 381.02 -35.71L381.02 -35.71L381.02 -35.71Q378.89 -33.63 378.89 -30.23L378.89 -30.23L378.89 -30.23Q378.89 -27.50 380.01 -24.70L380.01 -24.70L380.01 -24.70Q381.13 -21.89 382.24 -18.80L382.24 -18.80L382.24 -18.80Q383.36 -15.70 383.36 -12.09L383.36 -12.09L383.36 -12.09Q383.36 -6.05 379.69 -1.95L379.69 -1.95L379.69 -1.95Q376.02 2.16 369.61 3.23L369.61 3.23L368.45 -1.94L368.45 -1.94Q372.48 -2.73 374.86 -5.44L374.86 -5.44L374.86 -5.44Q377.23 -8.14 377.23 -12.45L377.23 -12.45L377.23 -12.45Q377.23 -15.41 376.13 -18.29L376.13 -18.29L376.13 -18.29Q375.02 -21.17 373.90 -24.16L373.90 -24.16L373.90 -24.16Q372.78 -27.14 372.78 -30.53L372.78 -30.53L372.78 -30.53Q372.78 -34.13 374.44 -36.90L374.44 -36.90L374.44 -36.90Q376.09 -39.67 379.04 -41.22L379.04 -41.22L379.04 -41.22Q381.98 -42.77 385.81 -42.77L385.81 -42.77L385.81 -42.77Q389.70 -42.77 392.80 -41.08L392.80 -41.08L392.80 -41.08Q395.89 -39.39 397.69 -36.22L397.69 -36.22L397.69 -36.22Q399.42 -39.39 402.55 -41.08L402.55 -41.08L402.55 -41.08Q405.69 -42.77 409.64 -42.77L409.64 -42.77L409.64 -42.77Q415.55 -42.77 419.15 -39.24L419.15 -39.24L419.15 -39.24Q422.75 -35.72 422.75 -30.03ZM515.44 -30.03L515.44 -30.03L515.44 -30.03Q515.44 -27.08 514.46 -24.59L514.46 -24.59L514.46 -24.59Q513.48 -22.11 511.25 -19.73L511.25 -19.73L506.64 -23.05L506.64 -23.05Q509.39 -25.84 509.39 -30.09L509.39 -30.09L509.39 -30.09Q509.39 -33.70 507.34 -35.75L507.34 -35.75L507.34 -35.75Q505.28 -37.80 501.69 -37.80L501.69 -37.80L501.69 -37.80Q498.66 -37.80 496.82 -35.82L496.82 -35.82L496.82 -35.82Q494.98 -33.84 494.34 -30.09L494.34 -30.09L494.34 -30.09Q493.77 -26.64 492.58 -24.55L492.58 -24.55L492.58 -24.55Q491.39 -22.47 489.27 -21.24L489.27 -21.24L489.27 -21.24Q487.14 -20.02 483.69 -19.16L483.69 -19.16L483.69 -19.16Q483.31 -12.95 481.45 -8.38L481.45 -8.38L481.45 -8.38Q479.58 -3.81 476.52 -1.30L476.52 -1.30L476.52 -1.30Q473.45 1.22 469.50 1.22L469.50 1.22L469.50 1.22Q465.11 1.22 462.52 -1.23L462.52 -1.23L462.52 -1.23Q459.92 -3.67 459.92 -8.06L459.92 -8.06L459.92 -8.06Q459.92 -13.83 464.64 -17.50L464.64 -17.50L464.64 -17.50Q469.36 -21.17 477.20 -22.47L477.20 -22.47L477.70 -22.53L477.70 -22.53Q477.63 -30.09 475.33 -33.95L475.33 -33.95L475.33 -33.95Q473.03 -37.80 468.70 -37.80L468.70 -37.80L468.70 -37.80Q465.17 -37.80 462.77 -35.28L462.77 -35.28L462.77 -35.28Q460.36 -32.77 460.50 -27.28L460.50 -27.28L455.09 -27.28L455.09 -27.28Q455.23 -32.55 452.86 -35.17L452.86 -35.17L452.86 -35.17Q450.48 -37.80 446.75 -37.80L446.75 -37.80L446.75 -37.80Q443.14 -37.80 441.05 -35.71L441.05 -35.71L441.05 -35.71Q438.97 -33.63 438.97 -30.23L438.97 -30.23L438.97 -30.23Q438.97 -27.50 440.09 -24.70L440.09 -24.70L440.09 -24.70Q441.20 -21.89 442.32 -18.80L442.32 -18.80L442.32 -18.80Q443.44 -15.70 443.44 -12.09L443.44 -12.09L443.44 -12.09Q443.44 -6.05 439.73 -1.95L439.73 -1.95L439.73 -1.95Q436.02 2.16 429.61 3.23L429.61 3.23L428.45 -1.94L428.45 -1.94Q432.48 -2.73 434.86 -5.44L434.86 -5.44L434.86 -5.44Q437.23 -8.14 437.23 -12.45L437.23 -12.45L437.23 -12.45Q437.23 -15.41 436.13 -18.29L436.13 -18.29L436.13 -18.29Q435.02 -21.17 433.90 -24.16L433.90 -24.16L433.90 -24.16Q432.78 -27.14 432.78 -30.53L432.78 -30.53L432.78 -30.53Q432.78 -34.13 434.44 -36.90L434.44 -36.90L434.44 -36.90Q436.09 -39.67 439.01 -41.22L439.01 -41.22L439.01 -41.22Q441.92 -42.77 445.81 -42.77L445.81 -42.77L445.81 -42.77Q449.84 -42.77 452.94 -41.04L452.94 -41.04L452.94 -41.04Q456.03 -39.31 457.77 -36.08L457.77 -36.08L457.77 -36.08Q459.48 -39.31 462.55 -41.04L462.55 -41.04L462.55 -41.04Q465.61 -42.77 469.50 -42.77L469.50 -42.77L469.50 -42.77Q475.83 -42.77 479.57 -37.91L479.57 -37.91L479.57 -37.91Q483.31 -33.05 483.69 -23.97L483.69 -23.97L483.69 -23.97Q486.06 -24.91 487.28 -26.78L487.28 -26.78L487.28 -26.78Q488.50 -28.66 489.16 -32.33L489.16 -32.33L489.16 -32.33Q490.09 -37.80 493.62 -40.28L493.62 -40.28L493.62 -40.28Q497.14 -42.77 502.19 -42.77L502.19 -42.77L502.19 -42.77Q508.23 -42.77 511.84 -39.24L511.84 -39.24L511.84 -39.24Q515.44 -35.72 515.44 -30.03ZM465.89 -8.28L465.89 -8.28L465.89 -8.28Q465.89 -6.27 466.80 -4.97L466.80 -4.97L466.80 -4.97Q467.70 -3.67 469.50 -3.67L469.50 -3.67L469.50 -3.67Q472.66 -3.67 474.82 -7.41L474.82 -7.41L474.82 -7.41Q476.98 -11.16 477.56 -17.86L477.56 -17.86L477.56 -17.86Q470.94 -16.34 468.41 -13.79L468.41 -13.79L468.41 -13.79Q465.89 -11.23 465.89 -8.28Z"/></svg>