<svg xmlns="http://www.w3.org/2000/svg" viewBox="0 -72 420.63 72.00" height="100%"><path fill="currentColor" d="M24.19 -13.00L24.19 -13.00L29.78 -13.00L29.78 -13.00Q30.06 -8.98 32.23 -6.82L32.23 -6.82L32.23 -6.82Q34.39 -4.66 37.97 -4.66L37.97 -4.66L37.97 -4.66Q41.14 -4.66 42.84 -6.02L42.84 -6.02L42.84 -6.02Q44.55 -7.39 44.55 -9.99L44.55 -9.99L44.55 -9.99Q44.55 -12.34 43.16 -14.32L43.16 -14.32L43.16 -14.32Q41.77 -16.30 38.70 -18.19L38.70 -18.19L42.55 -23.00L42.55 -23.00Q46.41 -20.51 48.46 -17.16L48.46 -17.16L48.46 -17.16Q50.52 -13.81 50.52 -10.52L50.52 -10.52L50.52 -10.52Q50.52 -4.87 47.30 -1.94L47.30 -1.94L47.30 -1.94Q44.09 1.00 38.19 1.00L38.19 1.00L38.19 1.00Q34.17 1.00 31.54 -0.49L31.54 -0.49L31.54 -0.49Q28.91 -1.99 27.00 -5.13L27.00 -5.13L27.00 -5.13Q24.83 -2.07 22.13 -0.53L22.13 -0.53L22.13 -0.53Q19.44 1.00 14.77 1.00L14.77 1.00L14.77 1.00Q9.22 1.00 6.09 -1.91L6.09 -1.91L6.09 -1.91Q2.95 -4.82 2.95 -9.33L2.95 -9.33L2.95 -9.33Q2.95 -13.42 5.41 -16.07L5.41 -16.07L5.41 -16.07Q7.88 -18.71 13.64 -20.76L13.64 -20.76L13.64 -20.76Q17.58 -22.17 18.81 -23.52L18.81 -23.52L18.81 -23.52Q20.05 -24.86 20.05 -26.70L20.05 -26.70L20.05 -26.70Q20.05 -28.68 18.67 -29.72L18.67 -29.72L18.67 -29.72Q17.30 -30.77 14.59 -30.77L14.59 -30.77L14.59 -30.77Q11.50 -30.77 9.98 -29.58L9.98 -29.58L9.98 -29.58Q8.47 -28.39 8.47 -26.30L8.47 -26.30L8.47 -26.30Q8.47 -24.92 9.22 -23.27L9.22 -23.27L3.83 -21.72L3.83 -21.72Q2.56 -24.01 2.56 -26.97L2.56 -26.97L2.56 -26.97Q2.56 -30.95 5.71 -33.48L5.71 -33.48L5.71 -33.48Q8.86 -36.00 14.59 -36.00L14.59 -36.00L14.59 -36.00Q20.05 -36.00 22.98 -33.38L22.98 -33.38L22.98 -33.38Q25.91 -30.75 25.91 -26.66L25.91 -26.66L25.91 -26.66Q25.91 -22.95 23.80 -20.54L23.80 -20.54L23.80 -20.54Q21.69 -18.13 16.34 -16.15L16.34 -16.15L16.34 -16.15Q11.92 -14.48 10.39 -12.97L10.39 -12.97L10.39 -12.97Q8.86 -11.45 8.86 -9.36L8.86 -9.36L8.86 -9.36Q8.86 -7.13 10.41 -5.89L10.41 -5.89L10.41 -5.89Q11.95 -4.66 14.88 -4.66L14.88 -4.66L14.88 -4.66Q18.98 -4.66 21.39 -6.75L21.39 -6.75L21.39 -6.75Q23.80 -8.84 24.19 -13.00ZM16.45 -15.34L16.45 -15.34ZM37.34 -18.25L37.34 -18.25ZM77.19 -13.00L77.19 -13.00L82.78 -13.00L82.78 -13.00Q83.06 -8.98 85.23 -6.82L85.23 -6.82L85.23 -6.82Q87.39 -4.66 90.97 -4.66L90.97 -4.66L90.97 -4.66Q94.14 -4.66 95.84 -6.02L95.84 -6.02L95.84 -6.02Q97.55 -7.39 97.55 -9.99L97.55 -9.99L97.55 -9.99Q97.55 -12.34 96.16 -14.32L96.16 -14.32L96.16 -14.32Q94.77 -16.30 91.70 -18.19L91.70 -18.19L95.55 -23.00L95.55 -23.00Q99.41 -20.51 101.46 -17.16L101.46 -17.16L101.46 -17.16Q103.52 -13.81 103.52 -10.52L103.52 -10.52L103.52 -10.52Q103.52 -4.87 100.30 -1.94L100.30 -1.94L100.30 -1.94Q97.09 1.00 91.19 1.00L91.19 1.00L91.19 1.00Q87.17 1.00 84.54 -0.49L84.54 -0.49L84.54 -0.49Q81.91 -1.99 80.00 -5.13L80.00 -5.13L80.00 -5.13Q77.83 -2.07 75.13 -0.53L75.13 -0.53L75.13 -0.53Q72.44 1.00 67.77 1.00L67.77 1.00L67.77 1.00Q62.22 1.00 59.09 -1.91L59.09 -1.91L59.09 -1.91Q55.95 -4.82 55.95 -9.33L55.95 -9.33L55.95 -9.33Q55.95 -13.42 58.41 -16.07L58.41 -16.07L58.41 -16.07Q60.88 -18.71 66.64 -20.76L66.64 -20.76L66.64 -20.76Q70.58 -22.17 71.81 -23.52L71.81 -23.52L71.81 -23.52Q73.05 -24.86 73.05 -26.70L73.05 -26.70L73.05 -26.70Q73.05 -28.68 71.67 -29.72L71.67 -29.72L71.67 -29.72Q70.30 -30.77 67.59 -30.77L67.59 -30.77L67.59 -30.77Q64.50 -30.77 62.98 -29.58L62.98 -29.58L62.98 -29.58Q61.47 -28.39 61.47 -26.30L61.47 -26.30L61.47 -26.30Q61.47 -24.92 62.22 -23.27L62.22 -23.27L56.83 -21.72L56.83 -21.72Q55.56 -24.01 55.56 -26.97L55.56 -26.97L55.56 -26.97Q55.56 -29.51 56.92 -31.54L56.92 -31.54L56.92 -31.54Q58.28 -33.57 60.70 -34.70L60.70 -34.70L60.70 -34.70Q59.36 -36.80 59.36 -39.75L59.36 -39.75L59.36 -39.75Q59.36 -43.49 62.20 -45.74L62.20 -45.74L62.20 -45.74Q65.03 -48.00 69.53 -48.00L69.53 -48.00L69.53 -48.00Q73.50 -48.00 76.12 -46.34L76.12 -46.34L76.12 -46.34Q78.73 -44.67 80.14 -40.97L80.14 -40.97L74.66 -39.57L74.66 -39.57Q73.36 -43.27 69.63 -43.27L69.63 -43.27L69.63 -43.27Q67.48 -43.27 66.13 -42.15L66.13 -42.15L66.13 -42.15Q64.78 -41.03 64.78 -39.18L64.78 -39.18L64.78 -39.18Q64.78 -37.43 66.08 -35.92L66.08 -35.92L66.08 -35.92Q66.81 -36.00 67.59 -36.00L67.59 -36.00L67.59 -36.00Q73.05 -36.00 75.98 -33.38L75.98 -33.38L75.98 -33.38Q78.91 -30.75 78.91 -26.66L78.91 -26.66L78.91 -26.66Q78.91 -22.95 76.80 -20.54L76.80 -20.54L76.80 -20.54Q74.69 -18.13 69.34 -16.15L69.34 -16.15L69.34 -16.15Q64.92 -14.48 63.39 -12.97L63.39 -12.97L63.39 -12.97Q61.86 -11.45 61.86 -9.36L61.86 -9.36L61.86 -9.36Q61.86 -7.13 63.41 -5.89L63.41 -5.89L63.41 -5.89Q64.95 -4.66 67.88 -4.66L67.88 -4.66L67.88 -4.66Q71.98 -4.66 74.39 -6.75L74.39 -6.75L74.39 -6.75Q76.80 -8.84 77.19 -13.00ZM69.45 -15.34L69.45 -15.34ZM90.34 -18.25L90.34 -18.25ZM69.88 -63.00L69.88 -63.00ZM130.19 -13.00L130.19 -13.00L135.78 -13.00L135.78 -13.00Q136.06 -8.98 138.23 -6.82L138.23 -6.82L138.23 -6.82Q140.39 -4.66 143.97 -4.66L143.97 -4.66L143.97 -4.66Q147.14 -4.66 148.84 -6.02L148.84 -6.02L148.84 -6.02Q150.55 -7.39 150.55 -9.99L150.55 -9.99L150.55 -9.99Q150.55 -12.34 149.16 -14.32L149.16 -14.32L149.16 -14.32Q147.77 -16.30 144.70 -18.19L144.70 -18.19L148.55 -23.00L148.55 -23.00Q152.41 -20.51 154.46 -17.16L154.46 -17.16L154.46 -17.16Q156.52 -13.81 156.52 -10.52L156.52 -10.52L156.52 -10.52Q156.52 -4.87 153.30 -1.94L153.30 -1.94L153.30 -1.94Q150.09 1.00 144.19 1.00L144.19 1.00L144.19 1.00Q140.17 1.00 137.54 -0.49L137.54 -0.49L137.54 -0.49Q134.91 -1.99 133.00 -5.13L133.00 -5.13L133.00 -5.13Q130.83 -2.07 128.13 -0.53L128.13 -0.53L128.13 -0.53Q125.44 1.00 120.77 1.00L120.77 1.00L120.77 1.00Q115.22 1.00 112.09 -1.91L112.09 -1.91L112.09 -1.91Q108.95 -4.82 108.95 -9.33L108.95 -9.33L108.95 -9.33Q108.95 -13.42 111.41 -16.07L111.41 -16.07L111.41 -16.07Q113.88 -18.71 119.64 -20.76L119.64 -20.76L119.64 -20.76Q123.58 -22.17 124.81 -23.52L124.81 -23.52L124.81 -23.52Q126.05 -24.86 126.05 -26.70L126.05 -26.70L126.05 -26.70Q126.05 -28.68 124.67 -29.72L124.67 -29.72L124.67 -29.72Q123.30 -30.77 120.59 -30.77L120.59 -30.77L120.59 -30.77Q117.50 -30.77 115.98 -29.58L115.98 -29.58L115.98 -29.58Q114.47 -28.39 114.47 -26.30L114.47 -26.30L114.47 -26.30Q114.47 -24.92 115.22 -23.27L115.22 -23.27L109.83 -21.72L109.83 -21.72Q108.56 -24.01 108.56 -26.97L108.56 -26.97L108.56 -26.97Q108.56 -30.95 111.71 -33.48L111.71 -33.48L111.71 -33.48Q114.86 -36.00 120.59 -36.00L120.59 -36.00L120.59 -36.00Q126.05 -36.00 128.98 -33.38L128.98 -33.38L128.98 -33.38Q131.91 -30.75 131.91 -26.66L131.91 -26.66L131.91 -26.66Q131.91 -22.95 129.80 -20.54L129.80 -20.54L129.80 -20.54Q127.69 -18.13 122.34 -16.15L122.34 -16.15L122.34 -16.15Q117.92 -14.48 116.39 -12.97L116.39 -12.97L116.39 -12.97Q114.86 -11.45 114.86 -9.36L114.86 -9.36L114.86 -9.36Q114.86 -7.13 116.41 -5.89L116.41 -5.89L116.41 -5.89Q117.95 -4.66 120.88 -4.66L120.88 -4.66L120.88 -4.66Q124.98 -4.66 127.39 -6.75L127.39 -6.75L127.39 -6.75Q129.80 -8.84 130.19 -13.00ZM122.45 -15.34L122.45 -15.34ZM143.34 -18.25L143.34 -18.25ZM118.38 -43.58L107.41 -43.58L107.41 -49.00L143.38 -49.00L143.38 -49.00Q147.48 -49.00 149.96 -48.56L149.96 -48.56L149.96 -48.56Q152.44 -48.12 154.45 -46.84L154.45 -46.84L154.45 -46.84Q156.45 -45.55 157.54 -43.48L157.54 -43.48L157.54 -43.48Q158.63 -41.41 158.63 -38.35L158.63 -38.35L158.63 -38.35Q158.63 -34.07 155.87 -31.53L155.87 -31.53L155.87 -31.53Q153.11 -29.00 148.47 -29.00L148.47 -29.00L148.47 -29.00Q143.86 -29.00 141.23 -31.55L141.23 -31.55L141.23 -31.55Q138.59 -34.10 138.59 -37.87L138.59 -37.87L138.59 -37.87Q138.59 -40.95 140.14 -43.58L140.14 -43.58L129.80 -43.58L129.80 -43.58Q130.55 -41.88 130.55 -39.73L130.55 -39.73L130.55 -39.73Q130.55 -37.45 129.45 -35.43L129.45 -35.43L129.45 -35.43Q128.36 -33.40 125.73 -32.17L125.73 -32.17L125.73 -32.17Q123.09 -30.94 118.03 -30.94L118.03 -30.94L111.91 -30.94L111.91 -36.00L118.13 -36.00L118.13 -36.00Q120.91 -36.00 122.16 -36.40L122.16 -36.40L122.16 -36.40Q123.41 -36.79 124.02 -37.63L124.02 -37.63L124.02 -37.63Q124.64 -38.47 124.64 -39.71L124.64 -39.71L124.64 -39.71Q124.64 -41.14 123.91 -42.07L123.91 -42.07L123.91 -42.07Q123.19 -43.00 121.98 -43.29L121.98 -43.29L121.98 -43.29Q120.77 -43.58 118.38 -43.58L118.38 -43.58ZM146.64 -43.58L145.69 -43.58L145.69 -43.58Q143.86 -41.21 143.86 -38.46L143.86 -38.46L143.86 -38.46Q143.86 -36.32 145.18 -35.03L145.18 -35.03L145.18 -35.03Q146.50 -33.75 148.72 -33.75L148.72 -33.75L148.72 -33.75Q150.89 -33.75 152.13 -34.99L152.13 -34.99L152.13 -34.99Q153.36 -36.23 153.36 -38.29L153.36 -38.29L153.36 -38.29Q153.36 -40.96 151.74 -42.27L151.74 -42.27L151.74 -42.27Q150.13 -43.58 146.64 -43.58L146.64 -43.58ZM160.20 -10.36L166.42 -12.04L166.42 -12.04Q167.58 -8.11 170.43 -6.39L170.43 -6.39L170.43 -6.39Q173.28 -4.66 178.13 -4.66L178.13 -4.66L178.13 -4.66Q183.16 -4.66 185.74 -6.02L185.74 -6.02L185.74 -6.02Q188.33 -7.38 188.33 -9.81L188.33 -9.81L188.33 -9.81Q188.33 -12.41 186.45 -13.66L186.45 -13.66L186.45 -13.66Q184.56 -14.91 180.34 -15.24L180.34 -15.24L175.63 -15.58L175.63 -15.58Q169.58 -16.04 166.80 -17.31L166.80 -17.31L166.80 -17.31Q164.03 -18.57 162.80 -20.62L162.80 -20.62L162.80 -20.62Q161.56 -22.66 161.56 -25.67L161.56 -25.67L161.56 -25.67Q161.56 -30.42 165.61 -33.21L165.61 -33.21L165.61 -33.21Q169.66 -36.00 177.08 -36.00L177.08 -36.00L177.08 -36.00Q184.81 -36.00 188.41 -33.62L188.41 -33.62L188.41 -33.62Q192.02 -31.23 193.77 -25.90L193.77 -25.90L187.58 -24.32L187.58 -24.32Q186.56 -27.75 184.12 -29.16L184.12 -29.16L184.12 -29.16Q181.67 -30.58 177.08 -30.58L177.08 -30.58L177.08 -30.58Q167.55 -30.58 167.55 -25.74L167.55 -25.74L167.55 -25.74Q167.55 -23.41 169.55 -22.42L169.55 -22.42L169.55 -22.42Q171.55 -21.43 175.56 -21.14L175.56 -21.14L181.08 -20.75L181.08 -20.75Q188.14 -20.25 191.22 -17.48L191.22 -17.48L191.22 -17.48Q194.30 -14.72 194.30 -10.10L194.30 -10.10L194.30 -10.10Q194.30 -4.67 190.16 -1.84L190.16 -1.84L190.16 -1.84Q186.03 1.00 177.95 1.00L177.95 1.00L177.95 1.00Q170.70 1.00 166.09 -1.96L166.09 -1.96L166.09 -1.96Q161.47 -4.93 160.20 -10.36L160.20 -10.36ZM177.70 1.75L177.70 1.75ZM196.44 1.75L196.44 1.75ZM165.48 -40.58L171.47 -42.51L171.47 -42.51Q172.17 -39.85 172.84 -38.46L172.84 -38.46L172.84 -38.46Q173.50 -37.08 174.26 -36.54L174.26 -36.54L174.26 -36.54Q175.02 -36.00 176.14 -36.00L176.14 -36.00L176.14 -36.00Q177.55 -36.00 178.81 -36.86L178.81 -36.86L178.81 -36.86Q180.08 -37.72 182.41 -40.68L182.41 -40.68L184.61 -43.51L184.61 -43.51Q188.34 -48.33 191.40 -50.15L191.40 -50.15L191.40 -50.15Q194.45 -51.97 199.00 -52.00L199.00 -52.00L199.38 -46.45L199.38 -46.45Q196.89 -46.31 195.34 -45.72L195.34 -45.72L195.34 -45.72Q193.80 -45.13 192.48 -44.00L192.48 -44.00L192.48 -44.00Q191.16 -42.88 188.83 -39.94L188.83 -39.94L187.19 -37.83L187.19 -37.83Q184.23 -34.04 181.61 -32.31L181.61 -32.31L181.61 -32.31Q178.98 -30.58 175.72 -30.58L175.72 -30.58L175.72 -30.58Q171.61 -30.58 169.20 -33.21L169.20 -33.21L169.20 -33.21Q166.80 -35.84 165.48 -40.58L165.48 -40.58ZM181.23 -63.00L181.23 -63.00ZM223.78 -7.81L223.78 -7.81L223.78 -7.81Q226.23 -6.14 228.48 -5.40L228.48 -5.40L228.48 -5.40Q230.73 -4.66 233.44 -4.66L233.44 -4.66L233.44 -4.66Q237.63 -4.66 239.73 -7.02L239.73 -7.02L239.73 -7.02Q241.84 -9.38 241.84 -13.81L241.84 -13.81L241.84 -13.81Q241.84 -19.18 238.77 -23.31L238.77 -23.31L238.77 -23.31Q235.69 -27.44 229.22 -30.44L229.22 -30.44L231.89 -36.00L231.89 -36.00Q239.34 -32.75 243.59 -26.97L243.59 -26.97L243.59 -26.97Q247.83 -21.18 247.83 -14.19L247.83 -14.19L247.83 -14.19Q247.83 -7.14 243.89 -3.07L243.89 -3.07L243.89 -3.07Q239.95 1.00 233.27 1.00L233.27 1.00L233.27 1.00Q229.89 1.00 226.95 -0.04L226.95 -0.04L226.95 -0.04Q224.02 -1.08 220.44 -3.56L220.44 -3.56L220.44 -3.56Q217.91 -1.26 214.95 -0.13L214.95 -0.13L214.95 -0.13Q212.00 1.00 208.63 1.00L208.63 1.00L208.63 1.00Q203.53 1.00 200.82 -1.24L200.82 -1.24L200.82 -1.24Q198.11 -3.47 198.11 -7.23L198.11 -7.23L198.11 -7.23Q198.11 -10.68 200.75 -12.84L200.75 -12.84L200.75 -12.84Q203.39 -15.00 207.89 -15.00L207.89 -15.00L207.89 -15.00Q210.56 -15.00 213.25 -14.02L213.25 -14.02L213.25 -14.02Q215.94 -13.05 219.28 -10.86L219.28 -10.86L219.28 -10.86Q220.47 -13.67 220.47 -17.51L220.47 -17.51L220.47 -17.51Q220.47 -23.98 217.91 -27.51L217.91 -27.51L217.91 -27.51Q218.02 -26.75 218.02 -26.00L218.02 -26.00L218.02 -26.00Q218.02 -21.92 215.38 -19.46L215.38 -19.46L215.38 -19.46Q212.73 -17.00 208.38 -17.00L208.38 -17.00L208.38 -17.00Q204.16 -17.00 201.36 -19.60L201.36 -19.60L201.36 -19.60Q198.56 -22.20 198.56 -26.44L198.56 -26.44L198.56 -26.44Q198.56 -30.56 201.66 -33.28L201.66 -33.28L201.66 -33.28Q204.75 -36.00 209.78 -36.00L209.78 -36.00L209.78 -36.00Q214.98 -36.00 218.70 -33.62L218.70 -33.62L218.70 -33.62Q222.41 -31.23 224.36 -26.95L224.36 -26.95L224.36 -26.95Q226.31 -22.66 226.31 -17.91L226.31 -17.91L226.31 -17.91Q226.31 -12.33 223.78 -7.81ZM212.39 -30.72L212.39 -30.72L212.39 -30.72Q211.05 -31.11 209.50 -31.11L209.50 -31.11L209.50 -31.11Q206.97 -31.11 205.51 -29.83L205.51 -29.83L205.51 -29.83Q204.05 -28.55 204.05 -26.50L204.05 -26.50L204.05 -26.50Q204.05 -24.34 205.23 -23.15L205.23 -23.15L205.23 -23.15Q206.41 -21.97 208.55 -21.97L208.55 -21.97L208.55 -21.97Q210.94 -21.97 212.23 -23.17L212.23 -23.17L212.23 -23.17Q213.52 -24.37 213.52 -26.65L213.52 -26.65L213.52 -26.65Q213.52 -28.78 212.39 -30.72ZM216.14 -6.68L216.14 -6.68L216.14 -6.68Q213.58 -8.49 211.68 -9.20L211.68 -9.20L211.68 -9.20Q209.78 -9.91 207.78 -9.91L207.78 -9.91L207.78 -9.91Q205.73 -9.91 204.65 -9.15L204.65 -9.15L204.65 -9.15Q203.56 -8.40 203.56 -7.15L203.56 -7.15L203.56 -7.15Q203.56 -5.91 204.93 -5.14L204.93 -5.14L204.93 -5.14Q206.30 -4.38 208.69 -4.38L208.69 -4.38L208.69 -4.38Q210.98 -4.38 212.84 -4.94L212.84 -4.94L212.84 -4.94Q214.70 -5.51 216.14 -6.68ZM223.92 9.00L217.45 9.00L217.97 -1.06L223.39 -1.06L223.92 9.00ZM223.17 1.75L223.17 1.75ZM250.39 1.75L250.39 1.75ZM226.27 -30.58L226.27 -30.58ZM283.44 0.56L277.45 -2.08L277.45 -2.08Q280.94 -7.01 282.01 -10.40L282.01 -10.40L282.01 -10.40Q283.08 -13.79 283.08 -17.56L283.08 -17.56L283.08 -17.56Q283.08 -23.90 279.95 -27.24L279.95 -27.24L279.95 -27.24Q276.83 -30.58 270.78 -30.58L270.78 -30.58L270.78 -30.58Q265.27 -30.58 262.06 -27.13L262.06 -27.13L262.06 -27.13Q258.86 -23.68 258.86 -17.63L258.86 -17.63L258.86 -17.63Q258.86 -13.48 260.18 -9.78L260.18 -9.78L260.18 -9.78Q261.50 -6.08 264.48 -2.08L264.48 -2.08L258.47 0.56L258.47 0.56Q252.89 -8.16 252.89 -17.62L252.89 -17.62L252.89 -17.62Q252.89 -22.88 255.14 -27.15L255.14 -27.15L255.14 -27.15Q257.39 -31.42 261.55 -33.71L261.55 -33.71L261.55 -33.71Q265.72 -36.00 271.20 -36.00L271.20 -36.00L271.20 -36.00Q279.61 -36.00 284.34 -31.30L284.34 -31.30L284.34 -31.30Q289.06 -26.60 289.06 -18.41L289.06 -18.41L289.06 -18.41Q289.06 -13.37 287.83 -8.94L287.83 -8.94L287.83 -8.94Q286.59 -4.50 283.44 0.56L283.44 0.56ZM270.95 1.75L270.95 1.75ZM291.94 1.75L291.94 1.75ZM270.75 0.00L270.75 0.00ZM258.48 -40.58L264.47 -42.51L264.47 -42.51Q265.17 -39.85 265.84 -38.46L265.84 -38.46L265.84 -38.46Q266.50 -37.08 267.26 -36.54L267.26 -36.54L267.26 -36.54Q268.02 -36.00 269.14 -36.00L269.14 -36.00L269.14 -36.00Q270.55 -36.00 271.81 -36.86L271.81 -36.86L271.81 -36.86Q273.08 -37.72 275.41 -40.68L275.41 -40.68L277.61 -43.51L277.61 -43.51Q281.34 -48.33 284.40 -50.15L284.40 -50.15L284.40 -50.15Q287.45 -51.97 292.00 -52.00L292.00 -52.00L292.38 -46.45L292.38 -46.45Q289.89 -46.31 288.34 -45.72L288.34 -45.72L288.34 -45.72Q286.80 -45.13 285.48 -44.00L285.48 -44.00L285.48 -44.00Q284.16 -42.88 281.83 -39.94L281.83 -39.94L280.19 -37.83L280.19 -37.83Q277.23 -34.04 274.61 -32.31L274.61 -32.31L274.61 -32.31Q271.98 -30.58 268.72 -30.58L268.72 -30.58L268.72 -30.58Q264.61 -30.58 262.20 -33.21L262.20 -33.21L262.20 -33.21Q259.80 -35.84 258.48 -40.58L258.48 -40.58ZM274.23 -63.00L274.23 -63.00ZM338.66 -5.33L338.66 -5.33L338.66 -5.33Q336.89 -2.17 333.96 -0.58L333.96 -0.58L333.96 -0.58Q331.03 1.00 326.91 1.00L326.91 1.00L326.91 1.00Q323.47 1.00 320.71 -0.37L320.71 -0.37L320.71 -0.37Q317.95 -1.73 315.14 -4.93L315.14 -4.93L315.14 -4.93Q312.64 -1.56 310.25 -0.28L310.25 -0.28L310.25 -0.28Q307.86 1.00 304.63 1.00L304.63 1.00L304.63 1.00Q299.67 1.00 296.89 -1.95L296.89 -1.95L296.89 -1.95Q294.11 -4.89 294.11 -9.67L294.11 -9.67L294.11 -9.67Q294.11 -14.21 296.99 -17.11L296.99 -17.11L296.99 -17.11Q299.88 -20.00 304.27 -20.00L304.27 -20.00L304.27 -20.00Q307.50 -20.00 310.13 -18.45L310.13 -18.45L310.13 -18.45Q312.75 -16.89 317.06 -11.33L317.06 -11.33L317.06 -11.33Q320.27 -7.18 322.30 -5.92L322.30 -5.92L322.30 -5.92Q324.34 -4.66 327.27 -4.66L327.27 -4.66L327.27 -4.66Q330.84 -4.66 332.77 -7.02L332.77 -7.02L332.77 -7.02Q334.69 -9.38 334.69 -13.81L334.69 -13.81L334.69 -13.81Q334.69 -19.18 331.61 -23.31L331.61 -23.31L331.61 -23.31Q328.53 -27.44 322.06 -30.44L322.06 -30.44L324.73 -36.00L324.73 -36.00Q332.19 -32.75 336.42 -26.97L336.42 -26.97L336.42 -26.97Q340.66 -21.18 340.66 -14.19L340.66 -14.19L340.66 -14.19Q340.66 -12.72 340.48 -11.30L340.48 -11.30L340.48 -11.30Q343.22 -7.89 346.03 -6.27L346.03 -6.27L346.03 -6.27Q348.84 -4.66 352.05 -4.66L352.05 -4.66L352.05 -4.66Q355.73 -4.66 357.67 -7.00L357.67 -7.00L357.67 -7.00Q359.61 -9.35 359.61 -13.81L359.61 -13.81L359.61 -13.81Q359.61 -19.18 356.53 -23.31L356.53 -23.31L356.53 -23.31Q353.45 -27.44 346.98 -30.44L346.98 -30.44L349.66 -36.00L349.66 -36.00Q357.08 -32.75 361.33 -26.97L361.33 -26.97L361.33 -26.97Q365.58 -21.18 365.58 -14.19L365.58 -14.19L365.58 -14.19Q365.58 -6.93 361.96 -2.97L361.96 -2.97L361.96 -2.97Q358.34 1.00 351.59 1.00L351.59 1.00L351.59 1.00Q344.20 1.00 338.66 -5.33ZM311.55 -9.39L311.55 -9.39L311.55 -9.39Q309.02 -12.69 307.61 -13.66L307.61 -13.66L307.61 -13.66Q306.20 -14.63 304.41 -14.63L304.41 -14.63L304.41 -14.63Q302.30 -14.63 301.02 -13.26L301.02 -13.26L301.02 -13.26Q299.73 -11.89 299.73 -9.56L299.73 -9.56L299.73 -9.56Q299.73 -7.28 301.14 -5.83L301.14 -5.83L301.14 -5.83Q302.55 -4.38 304.94 -4.38L304.94 -4.38L304.94 -4.38Q307.27 -4.38 308.86 -5.68L308.86 -5.68L308.86 -5.68Q310.45 -6.98 311.55 -9.39ZM318.61 9.00L312.14 9.00L312.67 -1.06L318.09 -1.06L318.61 9.00ZM335.70 1.75L335.70 1.75ZM368.16 1.75L368.16 1.75ZM317.88 -30.58L317.88 -30.58ZM295.48 -40.58L301.47 -42.51L301.47 -42.51Q302.17 -39.85 302.84 -38.46L302.84 -38.46L302.84 -38.46Q303.50 -37.08 304.26 -36.54L304.26 -36.54L304.26 -36.54Q305.02 -36.00 306.14 -36.00L306.14 -36.00L306.14 -36.00Q307.55 -36.00 308.81 -36.86L308.81 -36.86L308.81 -36.86Q310.08 -37.72 312.41 -40.68L312.41 -40.68L314.61 -43.51L314.61 -43.51Q318.34 -48.33 321.40 -50.15L321.40 -50.15L321.40 -50.15Q324.45 -51.97 329.00 -52.00L329.00 -52.00L329.38 -46.45L329.38 -46.45Q326.89 -46.31 325.34 -45.72L325.34 -45.72L325.34 -45.72Q323.80 -45.13 322.48 -44.00L322.48 -44.00L322.48 -44.00Q321.16 -42.88 318.83 -39.94L318.83 -39.94L317.19 -37.83L317.19 -37.83Q314.23 -34.04 311.61 -32.31L311.61 -32.31L311.61 -32.31Q308.98 -30.58 305.72 -30.58L305.72 -30.58L305.72 -30.58Q301.61 -30.58 299.20 -33.21L299.20 -33.21L299.20 -33.21Q296.80 -35.84 295.48 -40.58L295.48 -40.58ZM311.23 -63.00L311.23 -63.00ZM400.52 -36.00L407.20 -36.00L406.75 -26.00L415.89 -26.00L415.89 -20.80L391.77 -20.80L391.77 -20.80Q389.69 -18.13 384.34 -16.15L384.34 -16.15L384.34 -16.15Q379.92 -14.48 378.39 -12.97L378.39 -12.97L378.39 -12.97Q376.86 -11.45 376.86 -9.36L376.86 -9.36L376.86 -9.36Q376.86 -7.13 378.41 -5.89L378.41 -5.89L378.41 -5.89Q379.95 -4.66 382.88 -4.66L382.88 -4.66L382.88 -4.66Q386.98 -4.66 389.39 -6.75L389.39 -6.75L389.39 -6.75Q391.80 -8.84 392.19 -13.00L392.19 -13.00L397.78 -13.00L397.78 -13.00Q398.06 -8.98 400.23 -6.82L400.23 -6.82L400.23 -6.82Q402.39 -4.66 405.97 -4.66L405.97 -4.66L405.97 -4.66Q409.17 -4.66 410.86 -6.07L410.86 -6.07L410.86 -6.07Q412.55 -7.48 412.55 -10.17L412.55 -10.17L412.55 -10.17Q412.55 -12.88 410.78 -15.88L410.78 -15.88L416.09 -18.25L416.09 -18.25Q417.25 -16.43 417.88 -14.16L417.88 -14.16L417.88 -14.16Q418.52 -11.88 418.52 -9.72L418.52 -9.72L418.52 -9.72Q418.52 -4.68 415.23 -1.84L415.23 -1.84L415.23 -1.84Q411.95 1.00 406.19 1.00L406.19 1.00L406.19 1.00Q402.17 1.00 399.54 -0.49L399.54 -0.49L399.54 -0.49Q396.91 -1.99 395.00 -5.13L395.00 -5.13L395.00 -5.13Q392.83 -2.07 390.13 -0.53L390.13 -0.53L390.13 -0.53Q387.44 1.00 382.77 1.00L382.77 1.00L382.77 1.00Q377.22 1.00 374.09 -1.91L374.09 -1.91L374.09 -1.91Q370.95 -4.82 370.95 -9.33L370.95 -9.33L370.95 -9.33Q370.95 -13.42 373.41 -16.07L373.41 -16.07L373.41 -16.07Q375.88 -18.71 381.64 -20.76L381.64 -20.76L381.64 -20.76Q385.58 -22.17 386.81 -23.52L386.81 -23.52L386.81 -23.52Q388.05 -24.86 388.05 -26.70L388.05 -26.70L388.05 -26.70Q388.05 -28.68 386.67 -29.72L386.67 -29.72L386.67 -29.72Q385.30 -30.77 382.59 -30.77L382.59 -30.77L382.59 -30.77Q379.50 -30.77 377.98 -29.58L377.98 -29.58L377.98 -29.58Q376.47 -28.39 376.47 -26.30L376.47 -26.30L376.47 -26.30Q376.47 -24.92 377.22 -23.27L377.22 -23.27L371.83 -21.72L371.83 -21.72Q370.56 -24.01 370.56 -26.97L370.56 -26.97L370.56 -26.97Q370.56 -30.95 373.71 -33.48L373.71 -33.48L373.71 -33.48Q376.86 -36.00 382.59 -36.00L382.59 -36.00L382.59 -36.00Q388.05 -36.00 390.98 -33.38L390.98 -33.38L390.98 -33.38Q393.91 -30.75 393.91 -26.66L393.91 -26.66L393.91 -26.33L393.91 -26.33Q393.88 -26.16 393.88 -26.00L393.88 -26.00L401.02 -26.00L400.52 -36.00ZM394.30 1.75L394.30 1.75ZM420.63 1.75L420.63 1.75ZM384.45 -15.34L384.45 -15.34Z"/></svg>