<svg xmlns="http://www.w3.org/2000/svg" viewBox="0 -42.55 384.42 42.55" height="100%"><path fill="currentColor" d="M37.52 -6.44L37.52 -36.28L23.06 -36.28L11.19 -23.28L25.28 -23.28L9.95 -6.47L9.95 -6.47Q12.91 -8.05 16.76 -8.88L16.76 -8.88L16.76 -8.88Q20.61 -9.70 24.22 -9.70L24.22 -9.70L24.22 -9.70Q27.98 -9.70 31.57 -8.84L31.57 -8.84L31.57 -8.84Q35.16 -7.98 37.52 -6.44L37.52 -6.44ZM43.28 -41.48L43.28 -2.47L37.86 0.00L37.86 0.00Q35.55 -2.33 32.17 -3.41L32.17 -3.41L32.17 -3.41Q28.80 -4.50 23.56 -4.50L23.56 -4.50L23.56 -4.50Q19.20 -4.50 14.05 -3.45L14.05 -3.45L14.05 -3.45Q8.89 -2.39 1.02 0.31L1.02 0.31L0.36 -1.09L17.19 -19.52L3.41 -19.52L18.31 -36.28L1.77 -36.28L3.52 -41.48L43.28 -41.48ZM53.58 -41.48L89.58 -41.48L89.05 -39.03L89.05 -39.03Q81.77 -32.17 73.63 -22.59L73.63 -22.59L73.63 -22.59Q65.48 -13.02 60.36 -5.20L60.36 -5.20L89.75 -5.20L87.98 0.00L52.09 0.00L53.33 -5.17L53.33 -5.17Q60.39 -14.66 66.86 -21.76L66.86 -21.76L66.86 -21.76Q73.33 -28.86 81.52 -36.28L81.52 -36.28L51.81 -36.28L53.58 -41.48ZM139.77 -7.48L141.34 -5.91L141.34 -5.91Q139.20 -3.03 137.91 -1.91L137.91 -1.91L137.91 -1.91Q136.63 -0.78 135.12 -0.13L135.12 -0.13L135.12 -0.13Q133.61 0.53 131.67 0.53L131.67 0.53L131.67 0.53Q128.66 0.53 126.42 -1.42L126.42 -1.42L126.42 -1.42Q124.19 -3.38 122.98 -6.69L122.98 -6.69L122.98 -6.69Q119.94 -3.09 116.42 -1.28L116.42 -1.28L116.42 -1.28Q112.91 0.53 109.34 0.53L109.34 0.53L109.34 0.53Q103.16 0.53 99.48 -3.99L99.48 -3.99L99.48 -3.99Q95.81 -8.52 95.81 -16.59L95.81 -16.59L95.81 -16.59Q95.81 -29.64 107.48 -41.48L107.48 -41.48L139.20 -41.48L137.44 -36.28L137.44 -36.28Q133.58 -32.34 131.71 -29.29L131.71 -29.29L131.71 -29.29Q129.84 -26.23 128.83 -22.65L128.83 -22.65L128.83 -22.65Q127.81 -19.06 127.81 -14.63L127.81 -14.63L127.81 -14.63Q127.81 -9.84 129.46 -7.26L129.46 -7.26L129.46 -7.26Q131.11 -4.67 134.31 -4.67L134.31 -4.67L134.31 -4.67Q136.20 -4.67 137.37 -5.38L137.37 -5.38L137.37 -5.38Q138.53 -6.08 139.77 -7.48L139.77 -7.48ZM101.72 -18.08L101.72 -18.08L101.72 -18.08Q101.72 -4.67 111.14 -4.67L111.14 -4.67L111.14 -4.67Q117.50 -4.67 122.19 -9.88L122.19 -9.88L122.19 -9.88Q121.91 -11.70 121.91 -13.64L121.91 -13.64L121.91 -13.64Q121.91 -19.09 125.07 -25.27L125.07 -25.27L125.07 -25.27Q128.23 -31.44 133.61 -36.28L133.61 -36.28L107.80 -36.28L107.80 -36.28Q105.06 -32.70 103.39 -27.85L103.39 -27.85L103.39 -27.85Q101.72 -23.00 101.72 -18.08ZM148.28 -22.47L156.02 -36.28L144.77 -36.28L146.52 -41.48L161.70 -41.48L161.08 -39.20L153.52 -25.77L154.19 -25.81L154.19 -25.81Q159.98 -25.81 164.52 -24.92L164.52 -24.92L164.52 -24.92Q170.25 -30.03 173.41 -33.80L173.41 -33.80L173.41 -33.80Q176.58 -37.58 178.66 -41.48L178.66 -41.48L183.02 -41.48L183.02 -41.48Q180.97 -37.13 177.68 -32.91L177.68 -32.91L177.68 -32.91Q174.39 -28.69 168.91 -23.80L168.91 -23.80L168.91 -23.80Q173.66 -22.19 176.26 -19.15L176.26 -19.15L176.26 -19.15Q178.86 -16.11 178.86 -11.84L178.86 -11.84L178.86 -11.84Q178.86 -8.38 177.16 -5.56L177.16 -5.56L177.16 -5.56Q175.45 -2.75 172.29 -1.11L172.29 -1.11L172.29 -1.11Q169.13 0.53 164.83 0.53L164.83 0.53L164.83 0.53Q158.41 0.53 155.12 -1.97L155.12 -1.97L155.12 -1.97Q151.83 -4.47 151.83 -9.14L151.83 -9.14L151.83 -9.14Q151.83 -11.47 153.30 -13.89L153.30 -13.89L153.30 -13.89Q154.78 -16.31 159.11 -20.25L159.11 -20.25L159.11 -20.25Q155.94 -20.61 151.80 -20.61L151.80 -20.61L151.80 -20.61Q149.69 -20.61 147.86 -20.25L147.86 -20.25L148.28 -22.47ZM172.95 -11.84L172.95 -11.84L172.95 -11.84Q172.95 -14.59 170.58 -16.52L170.58 -16.52L170.58 -16.52Q168.20 -18.45 163.78 -19.48L163.78 -19.48L163.78 -19.48Q159.31 -15.72 157.89 -13.77L157.89 -13.77L157.89 -13.77Q156.47 -11.81 156.47 -10.09L156.47 -10.09L156.47 -10.09Q156.47 -7.67 158.59 -6.17L158.59 -6.17L158.59 -6.17Q160.72 -4.67 164.31 -4.67L164.31 -4.67L164.31 -4.67Q168.31 -4.67 170.63 -6.59L170.63 -6.59L170.63 -6.59Q172.95 -8.52 172.95 -11.84ZM193.45 -36.28L187.77 -36.28L189.52 -41.48L224.08 -41.48L224.08 -1.41L218.31 0.34L218.31 -18.17L218.31 -18.17Q212.02 -11.67 204.59 -11.67L204.59 -11.67L204.59 -11.67Q193.45 -11.67 193.45 -24.89L193.45 -24.89L193.45 -36.28ZM218.31 -22.05L218.31 -36.28L199.22 -36.28L199.22 -26.38L199.22 -26.38Q199.22 -22.78 200.05 -20.76L200.05 -20.76L200.05 -20.76Q200.88 -18.73 202.30 -17.80L202.30 -17.80L202.30 -17.80Q203.72 -16.88 206.84 -16.88L206.84 -16.88L206.84 -16.88Q213.84 -16.88 218.31 -22.05L218.31 -22.05ZM242.95 -41.48L273.86 -41.48L273.33 -39.03L260.50 -26.83L260.50 -26.83Q268.20 -26.83 273.25 -23.65L273.25 -23.65L273.25 -23.65Q278.30 -20.47 278.30 -14.84L278.30 -14.84L278.30 -14.84Q278.30 -10.23 276.06 -6.75L276.06 -6.75L276.06 -6.75Q273.83 -3.27 269.50 -1.37L269.50 -1.37L269.50 -1.37Q265.17 0.53 259.23 0.53L259.23 0.53L259.23 0.53Q251.47 0.53 245.14 -3.53L245.14 -3.53L245.14 -3.53Q238.81 -7.59 235.31 -14.85L235.31 -14.85L235.31 -14.85Q231.81 -22.11 231.81 -31.16L231.81 -31.16L231.81 -31.16Q231.81 -35.41 232.34 -38.25L232.34 -38.25L235.83 -37.20L235.83 -37.20Q235.58 -35.97 235.49 -34.93L235.49 -34.93L235.49 -34.93Q235.41 -33.89 235.41 -31.50L235.41 -31.50L235.41 -31.50Q235.41 -23.70 238.38 -17.67L238.38 -17.67L238.38 -17.67Q241.34 -11.64 246.76 -8.16L246.76 -8.16L246.76 -8.16Q252.17 -4.67 258.25 -4.67L258.25 -4.67L258.25 -4.67Q272.39 -4.67 272.39 -14.84L272.39 -14.84L272.39 -14.84Q272.39 -18.98 268.75 -21.16L268.75 -21.16L268.75 -21.16Q265.11 -23.34 257.94 -23.34L257.94 -23.34L256.53 -23.23L254.25 -23.14L254.59 -25.53L265.84 -36.28L241.20 -36.28L242.95 -41.48ZM276.36 -33.33L276.36 -33.33L276.36 -33.33Q276.36 -37.09 278.89 -39.55L278.89 -39.55L278.89 -39.55Q281.42 -42.02 285.36 -42.02L285.36 -42.02L285.36 -42.02Q289.05 -42.02 291.34 -39.80L291.34 -39.80L291.34 -39.80Q293.63 -37.58 293.63 -33.83L293.63 -33.83L293.63 -33.83Q293.63 -29.78 291.32 -27.27L291.32 -27.27L291.32 -27.27Q289.02 -24.75 285.19 -24.75L285.19 -24.75L285.19 -24.75Q281.42 -24.75 278.89 -27.21L278.89 -27.21L278.89 -27.21Q276.36 -29.67 276.36 -33.33ZM280.92 -33.50L280.92 -33.50L280.92 -33.50Q280.92 -31.50 282.19 -30.29L282.19 -30.29L282.19 -30.29Q283.45 -29.08 285.50 -29.08L285.50 -29.08L285.50 -29.08Q287.67 -29.08 288.82 -30.47L288.82 -30.47L288.82 -30.47Q289.97 -31.86 289.97 -34.20L289.97 -34.20L289.97 -34.20Q289.97 -36.36 288.70 -37.46L288.70 -37.46L288.70 -37.46Q287.44 -38.56 285.61 -38.56L285.61 -38.56L285.61 -38.56Q283.36 -38.56 282.14 -37.25L282.14 -37.25L282.14 -37.25Q280.92 -35.94 280.92 -33.50ZM297.77 -36.28L299.52 -41.48L303.25 -41.48L303.25 -41.48Q312.70 -41.48 318.20 -36.83L318.20 -36.83L318.20 -36.83Q323.70 -32.17 323.70 -23.88L323.70 -23.88L323.70 -23.88Q323.70 -18.50 321.33 -13.66L321.33 -13.66L321.33 -13.66Q318.95 -8.83 314.88 -5.95L314.88 -5.95L314.88 -5.95Q310.80 -3.06 305.98 -3.06L305.98 -3.06L305.98 -3.06Q302.69 -3.06 300.40 -5.30L300.40 -5.30L300.40 -5.30Q298.11 -7.53 298.11 -10.97L298.11 -10.97L298.11 -10.97Q298.11 -14.20 300.57 -16.56L300.57 -16.56L300.57 -16.56Q303.03 -18.92 306.34 -18.92L306.34 -18.92L306.34 -18.92Q309.75 -18.92 311.95 -16.81L311.95 -16.81L311.95 -16.81Q314.14 -14.70 314.14 -11.47L314.14 -11.47L314.00 -9.98L314.00 -9.98Q315.80 -11.75 316.80 -14.61L316.80 -14.61L316.80 -14.61Q317.80 -17.47 317.80 -21.97L317.80 -21.97L317.80 -21.97Q317.80 -36.28 302.69 -36.28L302.69 -36.28L297.77 -36.28ZM335.91 -1.41L330.14 0.34L330.14 -40.08L335.91 -41.84L335.91 -1.41ZM303.28 -11.53L303.28 -11.53L303.28 -11.53Q303.28 -9.84 304.21 -8.86L304.21 -8.86L304.21 -8.86Q305.14 -7.88 306.91 -7.88L306.91 -7.88L306.91 -7.88Q308.31 -7.88 309.34 -8.88L309.34 -8.88L309.34 -8.88Q310.38 -9.88 310.38 -11.50L310.38 -11.50L310.38 -11.50Q310.38 -13.25 309.32 -14.20L309.32 -14.20L309.32 -14.20Q308.27 -15.16 306.80 -15.16L306.80 -15.16L306.80 -15.16Q305.25 -15.16 304.27 -14.06L304.27 -14.06L304.27 -14.06Q303.28 -12.97 303.28 -11.53ZM382.48 -36.28L363.81 -36.28L363.81 -36.28Q356.92 -32.70 353.34 -27.78L353.34 -27.78L371.83 -27.78L371.66 -26.33L365.97 -19.02L376.13 -19.02L373.14 -13.81L358.66 -13.81L358.83 -15.27L364.52 -22.58L350.70 -22.58L350.70 -22.58Q349.86 -19.97 349.86 -16.88L349.86 -16.88L349.86 -16.88Q349.86 -11.08 353.30 -7.88L353.30 -7.88L353.30 -7.88Q356.75 -4.67 363.05 -4.67L363.05 -4.67L363.05 -4.67Q369.20 -4.67 373.68 -6.52L373.68 -6.52L373.68 -6.52Q378.16 -8.38 382.42 -12.34L382.42 -12.34L384.42 -10.52L384.42 -10.52Q382.31 -7.53 378.66 -4.86L378.66 -4.86L378.66 -4.86Q375.00 -2.19 371.09 -0.83L371.09 -0.83L371.09 -0.83Q367.19 0.53 363.16 0.53L363.16 0.53L363.16 0.53Q357.11 0.53 352.77 -1.56L352.77 -1.56L352.77 -1.56Q348.42 -3.66 346.12 -7.49L346.12 -7.49L346.12 -7.49Q343.81 -11.33 343.81 -16.28L343.81 -16.28L343.81 -16.28Q343.81 -22.11 347.40 -27.41L347.40 -27.41L347.40 -27.41Q350.98 -32.70 357.56 -36.28L357.56 -36.28L343.81 -36.28L345.58 -41.48L384.25 -41.48L382.48 -36.28Z"/></svg>