<svg xmlns="http://www.w3.org/2000/svg" viewBox="0 -42.62 184.62 42.62" height="100%"><path fill="currentColor" d="M5.47 0.00L2.52 0.00L2.52 -5.98L5.83 -5.98L5.83 -5.98Q9.79 -5.98 9.79 -12.60L9.79 -12.60L9.79 -36.65L2.81 -36.65L2.81 -42.62L27.79 -42.62L27.79 -42.62Q35.14 -42.62 38.70 -39.38L38.70 -39.38L38.70 -39.38Q42.26 -36.14 42.26 -29.02L42.26 -29.02L42.26 0.00L35.78 0.00L35.78 -27.72L35.78 -27.72Q35.78 -32.76 33.55 -34.70L33.55 -34.70L33.55 -34.70Q31.32 -36.65 27.36 -36.65L27.36 -36.65L16.27 -36.65L16.27 -12.96L16.27 -12.96Q16.27 -6.48 13.75 -3.24L13.75 -3.24L13.75 -3.24Q11.23 0.00 5.47 0.00L5.47 0.00ZM56.64 -15.34L53.40 -15.34L53.40 -42.62L59.88 -42.62L59.88 -21.82L56.64 -15.34ZM98.26 0.00L91.78 0.00L91.78 -27.72L91.78 -27.72Q91.78 -32.76 89.55 -34.70L89.55 -34.70L89.55 -34.70Q87.32 -36.65 83.36 -36.65L83.36 -36.65L66.08 -36.65L66.08 -42.62L83.79 -42.62L83.79 -42.62Q91.14 -42.62 94.70 -39.38L94.70 -39.38L94.70 -39.38Q98.26 -36.14 98.26 -29.02L98.26 -29.02L98.26 0.00ZM141.22 0.00L106.16 0.00L106.16 -5.98L129.13 -5.98L129.13 -27.72L129.13 -27.72Q129.13 -32.76 126.90 -34.70L126.90 -34.70L126.90 -34.70Q124.66 -36.65 120.70 -36.65L120.70 -36.65L106.16 -36.65L106.16 -42.62L121.14 -42.62L121.14 -42.62Q128.48 -42.62 132.04 -39.38L132.04 -39.38L132.04 -39.38Q135.61 -36.14 135.61 -29.02L135.61 -29.02L135.61 -5.98L141.22 -5.98L141.22 0.00ZM157.83 0.00L144.80 0.00L144.80 -5.98L156.46 -5.98L147.97 -42.62L154.45 -42.62L162.73 -6.34L162.73 -6.34Q168.92 -7.49 172.34 -12.02L172.34 -12.02L172.34 -12.02Q175.76 -16.56 176.55 -25.56L176.55 -25.56L178.14 -42.62L184.62 -42.62L183.03 -25.56L183.03 -25.56Q182.74 -22.32 182.02 -18.79L182.02 -18.79L182.02 -18.79Q181.30 -15.26 179.72 -11.92L179.72 -11.92L179.72 -11.92Q178.14 -8.57 175.36 -5.87L175.36 -5.87L175.36 -5.87Q172.59 -3.17 168.31 -1.58L168.31 -1.58L168.31 -1.58Q164.02 0.00 157.83 0.00L157.83 0.00Z"/></svg>