<svg xmlns="http://www.w3.org/2000/svg" viewBox="0 -52.99 427.58 52.99" height="100%"><path fill="currentColor" d="M25.70 0.00L5.04 0.00L5.04 -3.67L11.02 -4.32L11.02 -47.09L5.04 -47.74L5.04 -51.41L27.22 -51.41L27.22 -51.41Q38.74 -51.41 45.18 -44.78L45.18 -44.78L45.18 -44.78Q51.62 -38.16 51.62 -26.14L51.62 -26.14L51.62 -26.14Q51.62 -13.46 44.96 -6.73L44.96 -6.73L44.96 -6.73Q38.30 0.00 25.70 0.00L25.70 0.00ZM17.14 -46.94L17.14 -4.46L25.13 -4.46L25.13 -4.46Q35.06 -4.46 40.18 -9.94L40.18 -9.94L40.18 -9.94Q45.29 -15.41 45.29 -25.92L45.29 -25.92L45.29 -25.92Q45.29 -36.14 40.39 -41.54L40.39 -41.54L40.39 -41.54Q35.50 -46.94 26.21 -46.94L26.21 -46.94L17.14 -46.94ZM102.71 0.36L102.71 0.36L102.71 0.36Q98.82 0.36 97.35 -1.62L97.35 -1.62L97.35 -1.62Q95.87 -3.60 95.30 -6.55L95.30 -6.55L94.29 -12.38L94.29 -12.38Q92.70 -21.60 87.38 -22.68L87.38 -22.68L75.06 -22.68L75.06 -4.10L81.54 -3.53L81.54 0.00L63.04 0.00L63.04 -3.53L69.02 -4.10L69.02 -47.30L63.04 -47.88L63.04 -51.41L84.35 -51.41L84.35 -51.41Q103.14 -51.41 103.14 -38.09L103.14 -38.09L103.14 -38.09Q103.14 -32.69 100.44 -29.30L100.44 -29.30L100.44 -29.30Q97.74 -25.92 92.63 -24.84L92.63 -24.84L92.63 -24.55L92.63 -24.55Q95.58 -23.54 97.38 -20.77L97.38 -20.77L97.38 -20.77Q99.18 -18.00 99.98 -14.04L99.98 -14.04L101.27 -7.63L101.27 -7.63Q101.63 -5.62 102.57 -4.79L102.57 -4.79L102.57 -4.79Q103.50 -3.96 105.16 -3.96L105.16 -3.96L105.16 -3.96Q105.81 -3.96 106.24 -4.00L106.24 -4.00L106.24 -4.00Q106.67 -4.03 107.03 -4.10L107.03 -4.10L107.46 -0.43L107.46 -0.43Q106.67 -0.14 105.52 0.11L105.52 0.11L105.52 0.11Q104.37 0.36 102.71 0.36ZM75.06 -46.94L75.06 -27.00L85.29 -27.00L85.29 -27.00Q96.81 -27.00 96.81 -37.22L96.81 -37.22L96.81 -37.22Q96.81 -41.33 95.22 -43.42L95.22 -43.42L95.22 -43.42Q93.64 -45.50 90.62 -46.22L90.62 -46.22L90.62 -46.22Q87.59 -46.94 83.27 -46.94L83.27 -46.94L75.06 -46.94ZM146.42 0.00L125.76 0.00L125.76 -3.53L133.10 -4.10L133.10 -46.94L118.56 -46.94L117.98 -38.81L113.45 -38.81L113.45 -51.41L158.81 -51.41L158.81 -38.81L154.27 -38.81L153.70 -46.94L139.15 -46.94L139.15 -4.10L146.42 -3.53L146.42 0.00ZM195.46 0.79L195.46 0.79L195.46 -3.74L195.46 -3.74Q208.99 -6.26 208.99 -18.43L208.99 -18.43L208.99 -18.43Q208.99 -25.27 204.17 -29.52L204.17 -29.52L204.17 -29.52Q199.34 -33.77 190.27 -35.57L190.27 -35.57L190.27 -35.57Q188.47 -33.98 186.64 -32.62L186.64 -32.62L186.64 -32.62Q184.80 -31.25 183.00 -30.31L183.00 -30.31L183.00 -30.31Q186.17 -28.15 187.90 -24.66L187.90 -24.66L187.90 -24.66Q189.62 -21.17 189.62 -16.70L189.62 -16.70L189.62 -16.70Q189.62 -11.81 187.79 -8.21L187.79 -8.21L187.79 -8.21Q185.95 -4.61 182.64 -2.59L182.64 -2.59L182.64 -2.59Q179.33 -0.58 174.86 -0.58L174.86 -0.58L174.86 -0.58Q167.95 -0.58 164.03 -4.72L164.03 -4.72L164.03 -4.72Q160.10 -8.86 160.10 -16.13L160.10 -16.13L160.10 -16.13Q160.10 -21.02 161.94 -24.70L161.94 -24.70L161.94 -24.70Q163.78 -28.37 167.09 -30.35L167.09 -30.35L167.09 -30.35Q170.40 -32.33 174.86 -32.33L174.86 -32.33L174.86 -32.33Q176.30 -32.33 177.67 -32.04L177.67 -32.04L177.67 -32.04Q180.26 -33.26 182.46 -34.96L182.46 -34.96L182.46 -34.96Q184.66 -36.65 186.02 -38.41L186.02 -38.41L186.02 -38.41Q187.39 -40.18 187.46 -41.62L187.46 -41.62L187.46 -47.30L181.34 -47.88L181.34 -51.41L199.27 -51.41L199.27 -47.88L193.15 -47.30L193.15 -39.53L193.15 -39.53Q204.10 -37.01 209.46 -31.82L209.46 -31.82L209.46 -31.82Q214.82 -26.64 214.82 -18.50L214.82 -18.50L214.82 -18.50Q214.82 -13.10 212.45 -8.96L212.45 -8.96L212.45 -8.96Q210.07 -4.82 205.72 -2.27L205.72 -2.27L205.72 -2.27Q201.36 0.29 195.46 0.79ZM174.86 -4.97L174.86 -4.97L174.86 -4.97Q179.18 -4.97 181.63 -8.06L181.63 -8.06L181.63 -8.06Q184.08 -11.16 184.08 -16.56L184.08 -16.56L184.08 -16.56Q184.08 -21.89 181.67 -24.88L181.67 -24.88L181.67 -24.88Q179.26 -27.86 174.86 -27.86L174.86 -27.86L174.86 -27.86Q170.62 -27.86 168.17 -24.77L168.17 -24.77L168.17 -24.77Q165.72 -21.67 165.72 -16.34L165.72 -16.34L165.72 -16.34Q165.72 -11.02 168.13 -7.99L168.13 -7.99L168.13 -7.99Q170.54 -4.97 174.86 -4.97ZM245.71 0.79L245.71 0.79L245.71 0.79Q234.84 0.79 229.15 -5.98L229.15 -5.98L229.15 -5.98Q223.46 -12.74 223.46 -25.78L223.46 -25.78L223.46 -25.78Q223.46 -38.45 229.33 -45.32L229.33 -45.32L229.33 -45.32Q235.20 -52.20 245.93 -52.20L245.93 -52.20L245.93 -52.20Q262.27 -52.20 266.66 -34.49L266.66 -34.49L266.66 -34.49Q268.03 -28.94 271.24 -25.81L271.24 -25.81L271.24 -25.81Q274.44 -22.68 278.83 -22.68L278.83 -22.68L278.83 -22.68Q284.09 -22.68 286.68 -26.21L286.68 -26.21L286.68 -26.21Q289.27 -29.74 289.27 -37.08L289.27 -37.08L289.27 -37.08Q289.27 -47.30 283.08 -47.30L283.08 -47.30L283.08 -47.30Q277.61 -47.30 277.61 -39.74L277.61 -39.74L277.61 -37.44L273.36 -37.44L273.36 -37.44Q273.14 -38.59 273.14 -41.26L273.14 -41.26L273.14 -41.26Q273.14 -46.15 275.70 -48.96L275.70 -48.96L275.70 -48.96Q278.26 -51.77 282.79 -51.77L282.79 -51.77L282.79 -51.77Q288.26 -51.77 291.25 -47.92L291.25 -47.92L291.25 -47.92Q294.24 -44.06 294.24 -37.08L294.24 -37.08L294.24 -37.08Q294.24 -27.94 290.32 -22.79L290.32 -22.79L290.32 -22.79Q286.39 -17.64 279.34 -17.64L279.34 -17.64L279.34 -17.64Q275.30 -17.64 272.46 -19.12L272.46 -19.12L272.46 -19.12Q269.62 -20.59 267.46 -23.98L267.46 -23.98L267.46 -23.98Q266.66 -11.81 261.16 -5.51L261.16 -5.51L261.16 -5.51Q255.65 0.79 245.71 0.79ZM245.71 -4.10L245.71 -4.10L245.71 -4.10Q261.48 -4.10 261.48 -25.70L261.48 -25.70L261.48 -25.70Q261.48 -47.30 245.93 -47.30L245.93 -47.30L245.93 -47.30Q229.80 -47.30 229.80 -25.70L229.80 -25.70L229.80 -25.70Q229.80 -15.05 233.83 -9.58L233.83 -9.58L233.83 -9.58Q237.86 -4.10 245.71 -4.10ZM310.24 -43.63L310.24 -43.63L310.24 -43.63Q308.44 -43.63 307.43 -44.78L307.43 -44.78L307.43 -44.78Q306.42 -45.94 306.42 -47.95L306.42 -47.95L306.42 -47.95Q306.42 -52.20 310.24 -52.20L310.24 -52.20L310.24 -52.20Q312.04 -52.20 313.01 -51.08L313.01 -51.08L313.01 -51.08Q313.98 -49.97 313.98 -47.95L313.98 -47.95L313.98 -47.95Q313.98 -45.94 312.98 -44.78L312.98 -44.78L312.98 -44.78Q311.97 -43.63 310.24 -43.63ZM319.24 0.00L301.24 0.00L301.24 -3.53L307.36 -4.10L307.36 -33.70L313.12 -33.70L313.12 -4.10L319.24 -3.53L319.24 0.00ZM344.97 0.79L344.97 0.79L344.97 0.79Q341.15 0.79 337.73 -0.32L337.73 -0.32L337.73 -0.32Q334.31 -1.44 332.22 -3.56L332.22 -3.56L332.22 -3.56Q330.14 -5.69 330.14 -8.78L330.14 -8.78L330.14 -8.78Q330.14 -10.94 331.29 -12.24L331.29 -12.24L331.29 -12.24Q332.44 -13.54 334.31 -13.54L334.31 -13.54L334.31 -13.54Q336.11 -13.54 337.12 -12.60L337.12 -12.60L337.12 -12.60Q338.13 -11.66 338.13 -10.08L338.13 -10.08L338.13 -10.08Q338.13 -7.78 335.54 -6.84L335.54 -6.84L335.54 -6.84Q336.54 -5.47 339.14 -4.72L339.14 -4.72L339.14 -4.72Q341.73 -3.96 344.97 -3.96L344.97 -3.96L344.97 -3.96Q350.80 -3.96 354.00 -6.16L354.00 -6.16L354.00 -6.16Q357.21 -8.35 357.21 -12.38L357.21 -12.38L357.21 -12.38Q357.21 -15.98 354.47 -18.72L354.47 -18.72L354.47 -18.72Q351.74 -21.46 345.76 -23.90L345.76 -23.90L328.34 -23.90L328.34 -27.94L333.16 -27.94L333.16 -27.94Q336.98 -27.94 338.99 -27.72L338.99 -27.72L338.99 -28.01L338.99 -28.01Q334.96 -30.60 333.23 -33.30L333.23 -33.30L333.23 -33.30Q331.50 -36.00 331.50 -39.38L331.50 -39.38L331.50 -39.38Q331.50 -45.22 335.90 -48.71L335.90 -48.71L335.90 -48.71Q340.29 -52.20 347.70 -52.20L347.70 -52.20L347.70 -52.20Q351.52 -52.20 354.98 -51.01L354.98 -51.01L354.98 -51.01Q358.43 -49.82 360.63 -47.66L360.63 -47.66L360.63 -47.66Q362.82 -45.50 362.82 -42.41L362.82 -42.41L362.82 -42.41Q362.82 -37.66 358.72 -37.66L358.72 -37.66L358.72 -37.66Q356.92 -37.66 355.91 -38.56L355.91 -38.56L355.91 -38.56Q354.90 -39.46 354.90 -41.04L354.90 -41.04L354.90 -41.04Q354.90 -43.34 356.99 -44.42L356.99 -44.42L356.99 -44.42Q356.27 -45.86 353.68 -46.73L353.68 -46.73L353.68 -46.73Q351.09 -47.59 347.63 -47.59L347.63 -47.59L347.63 -47.59Q342.66 -47.59 339.96 -45.61L339.96 -45.61L339.96 -45.61Q337.26 -43.63 337.26 -39.89L337.26 -39.89L337.26 -39.89Q337.26 -36.14 339.68 -33.62L339.68 -33.62L339.68 -33.62Q342.09 -31.10 348.21 -28.44L348.21 -28.44L366.50 -28.44L366.50 -24.41L360.38 -24.41L360.38 -24.41Q357.14 -24.41 354.62 -24.62L354.62 -24.62L354.62 -24.26L354.62 -24.26Q359.44 -21.17 361.28 -18.54L361.28 -18.54L361.28 -18.54Q363.11 -15.91 363.11 -12.53L363.11 -12.53L363.11 -12.53Q363.11 -6.26 358.32 -2.74L358.32 -2.74L358.32 -2.74Q353.54 0.79 344.97 0.79ZM401.30 0.79L401.30 0.79L401.30 0.79Q394.31 0.79 388.88 -1.84L388.88 -1.84L388.88 -1.84Q383.44 -4.46 380.34 -9.36L380.34 -9.36L380.34 -9.36Q377.25 -14.26 377.25 -20.88L377.25 -20.88L377.25 -20.88Q377.25 -25.92 378.98 -29.66L378.98 -29.66L378.98 -29.66Q380.70 -33.41 383.91 -35.46L383.91 -35.46L383.91 -35.46Q387.11 -37.51 391.36 -37.51L391.36 -37.51L391.36 -37.51Q397.19 -37.51 400.58 -34.13L400.58 -34.13L400.58 -34.13Q403.96 -30.74 403.96 -24.98L403.96 -24.98L403.96 -24.98Q403.96 -18.94 400.29 -14.44L400.29 -14.44L400.29 -14.44Q396.62 -9.94 389.56 -7.49L389.56 -7.49L389.56 -7.49Q393.81 -4.10 401.30 -4.10L401.30 -4.10L401.30 -4.10Q407.56 -4.10 412.02 -6.98L412.02 -6.98L412.02 -6.98Q416.49 -9.86 418.86 -14.87L418.86 -14.87L418.86 -14.87Q421.24 -19.87 421.24 -26.42L421.24 -26.42L421.24 -26.42Q421.24 -32.90 418.72 -37.58L418.72 -37.58L418.72 -37.58Q416.20 -42.26 411.56 -44.78L411.56 -44.78L411.56 -44.78Q406.91 -47.30 400.43 -47.30L400.43 -47.30L400.43 -47.30Q397.84 -47.30 395.03 -46.69L395.03 -46.69L395.03 -46.69Q392.22 -46.08 389.74 -45.00L389.74 -45.00L389.74 -45.00Q387.26 -43.92 385.46 -42.48L385.46 -42.48L382.65 -46.15L382.65 -46.15Q385.74 -48.96 390.57 -50.58L390.57 -50.58L390.57 -50.58Q395.39 -52.20 400.72 -52.20L400.72 -52.20L400.72 -52.20Q409.14 -52.20 415.16 -49.10L415.16 -49.10L415.16 -49.10Q421.17 -46.01 424.37 -40.25L424.37 -40.25L424.37 -40.25Q427.58 -34.49 427.58 -26.42L427.58 -26.42L427.58 -26.42Q427.58 -18.22 424.34 -12.10L424.34 -12.10L424.34 -12.10Q421.10 -5.98 415.19 -2.59L415.19 -2.59L415.19 -2.59Q409.29 0.79 401.30 0.79ZM386.61 -10.66L386.61 -10.66L386.61 -10.66Q391.86 -12.24 394.92 -16.09L394.92 -16.09L394.92 -16.09Q397.98 -19.94 397.98 -24.91L397.98 -24.91L397.98 -24.91Q397.98 -28.73 396.29 -31.00L396.29 -31.00L396.29 -31.00Q394.60 -33.26 391.65 -33.26L391.65 -33.26L391.65 -33.26Q387.69 -33.26 385.49 -30.02L385.49 -30.02L385.49 -30.02Q383.30 -26.78 383.30 -21.02L383.30 -21.02L383.30 -21.02Q383.30 -17.93 384.16 -15.12L384.16 -15.12L384.16 -15.12Q385.02 -12.31 386.61 -10.66Z"/></svg>