<svg xmlns="http://www.w3.org/2000/svg" viewBox="0 -63.36 564.98 63.36" height="100%"><path fill="currentColor" d="M20.45 -31.68L51.55 -31.68L51.55 -34.27L20.45 -34.27ZM20.45 -20.45L51.55 -20.45L51.55 -23.04L20.45 -23.04ZM103.82 -28.94C104.04 -27.50 104.26 -26.06 104.26 -24.70C104.26 -15.26 102.89 -7.34 93.17 -0.79C91.51 0.36 89.78 1.08 88.20 1.66L93.31 5.69C108.50 -2.74 109.94 -13.61 110.09 -28.94ZM131.04 -39.38C130.10 -39.17 128.16 -39.02 127.08 -39.02L91.51 -39.02C89.35 -39.02 86.76 -39.24 84.74 -39.53L84.74 -33.55C86.98 -33.77 89.35 -33.84 91.51 -33.84L125.93 -33.77C123.84 -30.24 118.66 -23.90 113.54 -20.81L118.22 -17.57C124.70 -22.03 130.75 -31.03 132.84 -34.42C133.20 -34.99 133.85 -35.86 134.28 -36.36ZM175.82 -39.17C176.04 -37.30 176.11 -35.71 176.11 -33.98C176.11 -21.96 174.53 -11.66 163.37 -4.82C161.35 -3.46 158.90 -2.30 156.96 -1.66L162.22 2.66C180.58 -6.48 182.30 -19.66 182.30 -39.17ZM207.50 -52.06C206.42 -51.84 203.83 -51.62 202.46 -51.62L161.14 -51.62C158.47 -51.62 155.45 -51.91 152.93 -52.20L152.93 -45.72C155.81 -46.01 158.47 -46.15 161.14 -46.15L202.10 -46.15C199.80 -41.69 193.03 -33.91 186.41 -30.02L191.16 -26.21C199.37 -31.90 206.21 -41.18 209.09 -46.08C209.59 -46.87 210.53 -47.95 211.03 -48.67ZM267.91 -43.42C264.24 -38.81 256.54 -32.76 249.34 -28.58C243.36 -25.13 233.57 -20.74 224.35 -18.72L227.45 -13.46C235.30 -15.70 243.94 -19.44 250.06 -22.68L250.06 -0.65C250.06 1.51 249.91 4.46 249.77 5.54L256.39 5.54C256.10 4.46 256.03 1.51 256.03 -0.65L256.03 -26.14C262.58 -30.24 268.99 -35.50 272.38 -39.17ZM345.24 -56.23C341.21 -51.12 333.65 -44.86 326.30 -40.32C318.38 -35.35 306.14 -29.88 294.12 -27.07L297.43 -21.46C306.86 -24.26 316.80 -28.44 324.50 -32.69L324.50 -5.47C324.50 -2.74 324.29 0.86 324.07 2.23L331.13 2.23C330.84 0.79 330.70 -2.74 330.70 -5.47L330.70 -36.29C338.11 -40.97 345.02 -46.87 349.99 -51.91ZM416.02 -35.71C415.30 -35.50 414.14 -35.35 411.98 -35.35L398.45 -35.35L398.45 -40.46C398.45 -41.54 398.52 -42.98 398.81 -44.71L392.40 -44.71C392.69 -42.98 392.76 -41.54 392.76 -40.46L392.76 -35.35L379.58 -35.35C377.57 -35.35 375.19 -35.42 373.54 -35.57C373.68 -34.27 373.82 -31.82 373.82 -30.53L373.82 -20.09C373.82 -18.94 373.68 -17.35 373.61 -16.34L379.51 -16.34C379.37 -17.21 379.30 -18.79 379.30 -19.80L379.30 -30.10L412.78 -30.10C412.27 -24.91 410.40 -18.36 407.38 -13.61C403.27 -7.13 397.08 -3.74 390.74 -1.44C389.16 -0.86 386.06 0.00 383.90 0.29L388.44 5.33C400.68 2.16 409.10 -4.39 413.28 -11.88C416.45 -17.42 418.39 -25.56 419.04 -29.88C419.18 -31.03 419.54 -32.69 419.83 -33.55ZM491.62 -46.15C490.68 -45.79 489.31 -45.58 486.65 -45.58L470.52 -45.58L470.52 -52.27C470.52 -53.78 470.59 -55.44 470.95 -57.67L464.04 -57.67C464.33 -55.44 464.40 -53.78 464.40 -52.27L464.40 -45.58L448.49 -45.58C445.97 -45.58 443.88 -45.65 441.79 -45.86C442.01 -44.28 442.01 -41.83 442.01 -40.32L442.01 -27.65C442.01 -26.28 441.94 -24.34 441.79 -23.11L448.06 -23.11C447.84 -24.19 447.77 -26.06 447.77 -27.36L447.77 -40.25L488.02 -40.25C487.37 -34.06 485.06 -25.34 481.18 -19.22C476.78 -12.38 468.86 -7.06 461.66 -4.75C459.36 -3.89 456.62 -3.10 454.18 -2.74L458.86 2.66C472.03 -0.94 481.97 -8.28 487.37 -17.78C491.40 -24.62 493.49 -33.62 494.42 -39.38C494.71 -40.75 495.14 -42.62 495.50 -43.70ZM542.74 -5.18L542.74 -31.68L556.78 -31.68C558.43 -31.68 560.30 -31.61 561.89 -31.46L561.89 -37.22C560.38 -37.08 558.58 -36.94 556.78 -36.94L523.66 -36.94C522.50 -36.94 520.20 -37.01 518.69 -37.22L518.69 -31.46C520.20 -31.61 522.50 -31.68 523.66 -31.68L536.90 -31.68L536.90 -5.18L520.34 -5.18C518.76 -5.18 516.82 -5.33 515.16 -5.54L515.16 0.50C516.89 0.36 518.76 0.29 520.34 0.29L560.16 0.29C561.31 0.29 563.54 0.36 564.98 0.50L564.98 -5.54C563.54 -5.33 561.89 -5.18 560.16 -5.18Z"/></svg>