<svg xmlns="http://www.w3.org/2000/svg" viewBox="0 -56.09 388.72 56.09" height="100%"><path fill="currentColor" d="M35.21 -9.79L35.21 -26.42L35.21 -26.42Q33.48 -24.91 31.32 -23.29L31.32 -23.29L31.32 -23.29Q29.16 -21.67 26.46 -20.56L26.46 -20.56L26.46 -20.56Q23.76 -19.44 20.23 -19.44L20.23 -19.44L19.66 -19.44L19.66 -19.44Q15.55 -16.70 13.68 -14.18L13.68 -14.18L13.68 -14.18Q11.81 -11.66 11.23 -9.79L11.23 -9.79L11.23 -9.79Q10.66 -7.92 10.58 -7.13L10.58 -7.13L10.30 -5.11L10.30 -5.11Q10.08 -3.96 9.79 -2.77L9.79 -2.77L9.79 -2.77Q9.50 -1.58 8.71 -0.79L8.71 -0.79L8.71 -0.79Q7.92 0.00 6.34 0.00L6.34 0.00L4.82 0.00L4.82 0.00Q3.74 0.00 3.74 -1.30L3.74 -1.30L3.74 -1.30Q3.74 -2.81 4.10 -4.36L4.10 -4.36L4.10 -4.36Q4.46 -5.90 5.04 -7.34L5.04 -7.34L5.04 -7.34Q5.76 -9.22 6.77 -10.94L6.77 -10.94L6.77 -10.94Q7.78 -12.67 9.90 -14.76L9.90 -14.76L9.90 -14.76Q12.02 -16.85 15.98 -19.80L15.98 -19.80L15.98 -19.80Q10.66 -20.88 7.85 -24.41L7.85 -24.41L7.85 -24.41Q5.04 -27.94 5.04 -33.26L5.04 -33.26L5.04 -33.26Q5.04 -36.58 6.77 -39.89L6.77 -39.89L6.77 -39.89Q8.50 -43.20 11.34 -45.90L11.34 -45.90L11.34 -45.90Q14.18 -48.60 17.64 -50.22L17.64 -50.22L17.64 -50.22Q21.10 -51.84 24.62 -51.84L24.62 -51.84L29.30 -51.84L29.30 -51.84Q31.10 -51.84 32.65 -51.95L32.65 -51.95L32.65 -51.95Q34.20 -52.06 36.11 -52.52L36.11 -52.52L36.11 -52.52Q38.02 -52.99 40.82 -54.07L40.82 -54.07L40.82 -54.07Q41.26 -54.22 42.05 -54.61L42.05 -54.61L42.05 -54.61Q42.84 -55.01 43.13 -55.01L43.13 -55.01L43.13 -55.01Q43.49 -55.01 43.49 -54.58L43.49 -54.58L43.49 -54.58Q43.49 -54.07 42.23 -52.78L42.23 -52.78L42.23 -52.78Q40.97 -51.48 38.52 -50.00L38.52 -50.00L38.52 -50.00Q36.07 -48.53 32.58 -47.48L32.58 -47.48L32.58 -47.48Q29.09 -46.44 24.62 -46.44L24.62 -46.44L20.23 -46.44L20.23 -46.44Q18.00 -46.44 15.88 -45.58L15.88 -45.58L15.88 -45.58Q13.75 -44.71 12.35 -42.48L12.35 -42.48L12.35 -42.48Q10.94 -40.25 10.94 -36.07L10.94 -36.07L10.94 -36.07Q10.94 -29.66 14.08 -27.07L14.08 -27.07L14.08 -27.07Q17.21 -24.48 22.39 -24.48L22.39 -24.48L22.39 -24.48Q24.48 -24.48 26.78 -24.91L26.78 -24.91L26.78 -24.91Q29.09 -25.34 31.28 -26.68L31.28 -26.68L31.28 -26.68Q33.48 -28.01 35.21 -30.82L35.21 -30.82L35.21 -37.30L35.21 -37.30Q35.21 -39.89 34.88 -40.79L34.88 -40.79L34.88 -40.79Q34.56 -41.69 34.56 -42.62L34.56 -42.62L34.56 -42.62Q34.56 -43.42 35.53 -43.88L35.53 -43.88L35.53 -43.88Q36.50 -44.35 38.30 -44.93L38.30 -44.93L38.30 -44.93Q38.66 -45.07 38.99 -45.14L38.99 -45.14L38.99 -45.14Q39.31 -45.22 39.60 -45.22L39.60 -45.22L39.60 -45.22Q40.46 -45.22 40.72 -44.14L40.72 -44.14L40.72 -44.14Q40.97 -43.06 40.97 -40.18L40.97 -40.18L40.97 -7.85L40.97 -7.85Q40.97 -6.05 42.05 -5.72L42.05 -5.72L42.05 -5.72Q43.13 -5.40 44.42 -5.40L44.42 -5.40L44.42 -5.40Q45.58 -5.40 45.58 -4.54L45.58 -4.54L45.58 -4.54Q45.58 -3.74 44.93 -2.45L44.93 -2.45L44.93 -2.45Q44.28 -1.15 43.78 0.00L43.78 0.00L42.48 0.00L42.48 0.00Q41.04 0.00 39.35 -1.30L39.35 -1.30L39.35 -1.30Q37.66 -2.59 36.43 -4.82L36.43 -4.82L36.43 -4.82Q35.21 -7.06 35.21 -9.79L35.21 -9.79ZM50.83 0.00L43.92 0.00L43.92 0.00Q41.83 0.00 39.89 -1.55L39.89 -1.55L39.89 -1.55Q37.94 -3.10 37.94 -5.40L37.94 -5.40L50.83 -5.40L50.83 0.00ZM71.18 -5.40L82.42 -5.40L82.42 -5.40Q83.57 -5.40 83.57 -4.54L83.57 -4.54L83.57 -4.54Q83.57 -3.74 82.92 -2.45L82.92 -2.45L82.92 -2.45Q82.27 -1.15 81.77 0.00L81.77 0.00L60.74 0.00L60.74 0.00Q59.81 0.00 58.15 -1.01L58.15 -1.01L58.15 -1.01Q56.50 -2.02 55.13 -3.85L55.13 -3.85L55.13 -3.85Q53.76 -5.69 53.76 -8.21L53.76 -8.21L53.76 -42.19L53.76 -42.19Q53.76 -44.64 53.29 -45.86L53.29 -45.86L53.29 -45.86Q52.82 -47.09 52.25 -47.56L52.25 -47.56L52.25 -47.56Q51.67 -48.02 51.20 -48.24L51.20 -48.24L51.20 -48.24Q50.74 -48.46 50.74 -48.96L50.74 -48.96L50.74 -48.96Q50.74 -49.39 51.31 -49.72L51.31 -49.72L51.31 -49.72Q51.89 -50.04 52.68 -50.54L52.68 -50.54L55.06 -51.91L55.06 -51.91Q55.78 -52.34 56.42 -52.63L56.42 -52.63L56.42 -52.63Q57.07 -52.92 57.43 -52.92L57.43 -52.92L57.43 -52.92Q58.15 -52.92 58.76 -52.06L58.76 -52.06L58.76 -52.06Q59.38 -51.19 59.45 -48.46L59.45 -48.46L59.45 -48.46Q61.39 -50.04 64.09 -51.48L64.09 -51.48L64.09 -51.48Q66.79 -52.92 70.10 -52.92L70.10 -52.92L70.10 -52.92Q74.57 -52.92 77.45 -51.16L77.45 -51.16L77.45 -51.16Q80.33 -49.39 81.98 -46.51L81.98 -46.51L81.98 -46.51Q83.64 -43.63 84.29 -40.18L84.29 -40.18L84.29 -40.18Q84.94 -36.72 84.94 -33.34L84.94 -33.34L84.94 -33.34Q84.94 -28.73 83.64 -24.55L83.64 -24.55L83.64 -24.55Q82.34 -20.38 80.26 -16.78L80.26 -16.78L80.26 -16.78Q78.17 -13.18 75.76 -10.30L75.76 -10.30L75.76 -10.30Q73.34 -7.42 71.18 -5.40L71.18 -5.40ZM59.52 -45.65L59.52 -9.94L59.52 -9.94Q59.52 -6.91 60.10 -6.16L60.10 -6.16L60.10 -6.16Q60.67 -5.40 62.62 -5.40L62.62 -5.40L67.15 -5.40L67.15 -5.40Q72.62 -10.22 75.72 -16.85L75.72 -16.85L75.72 -16.85Q78.82 -23.47 78.82 -33.26L78.82 -33.26L78.82 -33.26Q78.82 -35.57 78.38 -38.20L78.38 -38.20L78.38 -38.20Q77.95 -40.82 76.73 -43.16L76.73 -43.16L76.73 -43.16Q75.50 -45.50 73.16 -46.98L73.16 -46.98L73.16 -46.98Q70.82 -48.46 67.01 -48.46L67.01 -48.46L67.01 -48.46Q64.70 -48.46 62.83 -47.63L62.83 -47.63L62.83 -47.63Q60.96 -46.80 59.52 -45.65L59.52 -45.65ZM77.52 0.00L77.52 -5.40L92.28 -5.40L92.28 0.00L77.52 0.00ZM65.64 -5.40L65.64 0.00L45.12 0.00L45.12 -5.40L65.64 -5.40ZM99.15 0.00L99.15 -5.40L131.41 -5.40L131.41 -5.40Q135.44 -5.40 137.06 -7.02L137.06 -7.02L137.06 -7.02Q138.68 -8.64 138.68 -13.25L138.68 -13.25L138.68 -21.60L138.68 -21.60Q136.45 -18.94 133.60 -16.81L133.60 -16.81L133.60 -16.81Q130.76 -14.69 127.81 -14.69L127.81 -14.69L127.81 -14.69Q123.85 -14.69 121.15 -16.42L121.15 -16.42L121.15 -16.42Q118.45 -18.14 117.37 -22.10L117.37 -22.10L117.37 -22.10Q115.86 -20.30 113.98 -18.58L113.98 -18.58L113.98 -18.58Q112.11 -16.85 110.06 -15.77L110.06 -15.77L110.06 -15.77Q108.01 -14.69 105.85 -14.69L105.85 -14.69L105.85 -14.69Q100.81 -14.69 97.78 -17.68L97.78 -17.68L97.78 -17.68Q94.76 -20.66 94.76 -27.65L94.76 -27.65L94.76 -42.19L94.76 -42.19Q94.76 -44.64 94.29 -45.86L94.29 -45.86L94.29 -45.86Q93.82 -47.09 93.25 -47.56L93.25 -47.56L93.25 -47.56Q92.67 -48.02 92.20 -48.24L92.20 -48.24L92.20 -48.24Q91.74 -48.46 91.74 -48.96L91.74 -48.96L91.74 -48.96Q91.74 -49.39 92.31 -49.72L92.31 -49.72L92.31 -49.72Q92.89 -50.04 93.68 -50.54L93.68 -50.54L96.06 -51.91L96.06 -51.91Q96.78 -52.34 97.42 -52.63L97.42 -52.63L97.42 -52.63Q98.07 -52.92 98.43 -52.92L98.43 -52.92L98.43 -52.92Q99.22 -52.92 99.87 -51.84L99.87 -51.84L99.87 -51.84Q100.52 -50.76 100.52 -47.02L100.52 -47.02L100.52 -27.86L100.52 -27.86Q100.52 -24.48 101.56 -22.75L101.56 -22.75L101.56 -22.75Q102.61 -21.02 104.16 -20.45L104.16 -20.45L104.16 -20.45Q105.70 -19.87 107.14 -19.87L107.14 -19.87L107.14 -19.87Q109.88 -19.87 112.33 -21.10L112.33 -21.10L112.33 -21.10Q114.78 -22.32 116.86 -24.98L116.86 -24.98L116.86 -24.98Q116.79 -25.56 116.76 -26.24L116.76 -26.24L116.76 -26.24Q116.72 -26.93 116.72 -27.65L116.72 -27.65L116.72 -42.19L116.72 -42.19Q116.72 -44.64 116.25 -45.86L116.25 -45.86L116.25 -45.86Q115.78 -47.09 115.21 -47.56L115.21 -47.56L115.21 -47.56Q114.63 -48.02 114.16 -48.24L114.16 -48.24L114.16 -48.24Q113.70 -48.46 113.70 -48.96L113.70 -48.96L113.70 -48.96Q113.70 -49.39 114.27 -49.72L114.27 -49.72L114.27 -49.72Q114.85 -50.04 115.64 -50.54L115.64 -50.54L118.02 -51.91L118.02 -51.91Q118.81 -52.34 119.46 -52.63L119.46 -52.63L119.46 -52.63Q120.10 -52.92 120.39 -52.92L120.39 -52.92L120.39 -52.92Q121.18 -52.92 121.83 -51.84L121.83 -51.84L121.83 -51.84Q122.48 -50.76 122.48 -47.02L122.48 -47.02L122.48 -27.86L122.48 -27.86Q122.48 -24.48 123.52 -22.75L123.52 -22.75L123.52 -22.75Q124.57 -21.02 126.08 -20.45L126.08 -20.45L126.08 -20.45Q127.59 -19.87 129.10 -19.87L129.10 -19.87L129.10 -19.87Q131.77 -19.87 134.18 -21.06L134.18 -21.06L134.18 -21.06Q136.59 -22.25 138.68 -24.77L138.68 -24.77L138.68 -42.19L138.68 -42.19Q138.68 -44.64 138.21 -45.86L138.21 -45.86L138.21 -45.86Q137.74 -47.09 137.17 -47.56L137.17 -47.56L137.17 -47.56Q136.59 -48.02 136.12 -48.24L136.12 -48.24L136.12 -48.24Q135.66 -48.46 135.66 -48.96L135.66 -48.96L135.66 -48.96Q135.66 -49.39 136.23 -49.72L136.23 -49.72L136.23 -49.72Q136.81 -50.04 137.60 -50.54L137.60 -50.54L139.98 -51.91L139.98 -51.91Q140.70 -52.34 141.34 -52.63L141.34 -52.63L141.34 -52.63Q141.99 -52.92 142.35 -52.92L142.35 -52.92L142.35 -52.92Q143.14 -52.92 143.79 -51.84L143.79 -51.84L143.79 -51.84Q144.44 -50.76 144.44 -47.02L144.44 -47.02L144.44 -13.25L144.44 -13.25Q144.44 -11.95 143.22 -9.76L143.22 -9.76L143.22 -9.76Q141.99 -7.56 139.76 -5.33L139.76 -5.33L139.76 -5.33Q137.53 -3.10 134.50 -1.55L134.50 -1.55L134.50 -1.55Q131.48 0.00 127.95 0.00L127.95 0.00L99.15 0.00ZM86.12 0.00L86.12 -5.40L100.88 -5.40L100.88 0.00L86.12 0.00ZM153.08 0.00L141.78 0.00L141.78 0.00Q139.69 0.00 137.74 -1.55L137.74 -1.55L137.74 -1.55Q135.80 -3.10 135.80 -5.40L135.80 -5.40L153.08 -5.40L153.08 0.00ZM155.76 -6.26L155.76 -42.19L155.76 -42.19Q155.76 -44.64 155.29 -45.86L155.29 -45.86L155.29 -45.86Q154.82 -47.09 154.25 -47.56L154.25 -47.56L154.25 -47.56Q153.67 -48.02 153.20 -48.24L153.20 -48.24L153.20 -48.24Q152.74 -48.46 152.74 -48.96L152.74 -48.96L152.74 -48.96Q152.74 -49.39 153.31 -49.72L153.31 -49.72L153.31 -49.72Q153.89 -50.04 154.68 -50.54L154.68 -50.54L157.06 -51.91L157.06 -51.91Q157.78 -52.34 158.42 -52.63L158.42 -52.63L158.42 -52.63Q159.07 -52.92 159.43 -52.92L159.43 -52.92L159.43 -52.92Q160.22 -52.92 160.87 -51.84L160.87 -51.84L160.87 -51.84Q161.52 -50.76 161.52 -47.02L161.52 -47.02L161.52 -23.54L161.52 -23.54Q163.75 -21.31 166.78 -20.48L166.78 -20.48L166.78 -20.48Q169.80 -19.66 173.90 -19.66L173.90 -19.66L175.20 -19.66L175.20 -46.08L175.20 -46.08Q175.20 -47.16 176.89 -48.78L176.89 -48.78L176.89 -48.78Q178.58 -50.40 181.46 -51.66L181.46 -51.66L181.46 -51.66Q184.34 -52.92 187.80 -52.92L187.80 -52.92L187.80 -52.92Q192.12 -52.92 194.96 -51.55L194.96 -51.55L194.96 -51.55Q197.81 -50.18 199.46 -47.99L199.46 -47.99L199.46 -47.99Q201.12 -45.79 201.84 -43.42L201.84 -43.42L201.84 -43.42Q202.56 -41.04 202.56 -38.95L202.56 -38.95L202.56 -38.95Q202.56 -34.20 199.75 -29.59L199.75 -29.59L199.75 -29.59Q196.94 -24.98 192.08 -21.35L192.08 -21.35L192.08 -21.35Q187.22 -17.71 180.96 -15.91L180.96 -15.91L180.96 -9.94L180.96 -9.94Q180.96 -6.91 181.54 -6.16L181.54 -6.16L181.54 -6.16Q182.11 -5.40 184.06 -5.40L184.06 -5.40L199.54 -5.40L199.54 -5.40Q200.69 -5.40 200.69 -4.54L200.69 -4.54L200.69 -4.54Q200.69 -3.74 200.04 -2.45L200.04 -2.45L200.04 -2.45Q199.39 -1.15 198.89 0.00L198.89 0.00L182.18 0.00L182.18 0.00Q181.25 0.00 179.59 -1.01L179.59 -1.01L179.59 -1.01Q177.94 -2.02 176.57 -3.85L176.57 -3.85L176.57 -3.85Q175.20 -5.69 175.20 -8.21L175.20 -8.21L175.20 -14.76L175.20 -14.76Q174.05 -14.62 172.90 -14.54L172.90 -14.54L172.90 -14.54Q171.74 -14.47 170.59 -14.47L170.59 -14.47L170.59 -14.47Q168.50 -14.47 166.09 -14.87L166.09 -14.87L166.09 -14.87Q163.68 -15.26 161.52 -16.20L161.52 -16.20L161.52 -6.26L161.52 -6.26Q161.52 -3.46 160.15 -1.73L160.15 -1.73L160.15 -1.73Q158.78 0.00 156.62 0.00L156.62 0.00L155.98 0.00L155.98 0.00Q154.97 0.00 154.97 -1.22L154.97 -1.22L154.97 -1.22Q154.97 -1.58 155.15 -2.59L155.15 -2.59L155.15 -2.59Q155.33 -3.60 155.54 -4.68L155.54 -4.68L155.54 -4.68Q155.76 -5.76 155.76 -6.26L155.76 -6.26ZM180.96 -47.09L180.96 -20.16L180.96 -20.16Q186.86 -21.17 190.21 -23.72L190.21 -23.72L190.21 -23.72Q193.56 -26.28 195.00 -29.95L195.00 -29.95L195.00 -29.95Q196.44 -33.62 196.44 -37.94L196.44 -37.94L196.44 -37.94Q196.44 -39.02 196.08 -40.79L196.08 -40.79L196.08 -40.79Q195.72 -42.55 194.60 -44.39L194.60 -44.39L194.60 -44.39Q193.49 -46.22 191.22 -47.48L191.22 -47.48L191.22 -47.48Q188.95 -48.74 185.14 -48.74L185.14 -48.74L185.14 -48.74Q183.48 -48.74 182.22 -48.35L182.22 -48.35L182.22 -48.35Q180.96 -47.95 180.96 -47.09L180.96 -47.09ZM193.42 0.00L193.42 -5.40L208.18 -5.40L208.18 0.00L193.42 0.00ZM146.40 0.00L146.40 -5.40L156.12 -5.40L156.12 0.00L146.40 0.00ZM211.77 0.00L211.77 -5.40L232.43 -5.40L232.43 -5.40Q236.46 -5.40 238.08 -7.02L238.08 -7.02L238.08 -7.02Q239.70 -8.64 239.70 -13.25L239.70 -13.25L239.70 -17.50L239.70 -17.50Q239.70 -19.22 238.01 -20.12L238.01 -20.12L238.01 -20.12Q236.32 -21.02 233.55 -21.53L233.55 -21.53L233.55 -21.53Q230.78 -22.03 227.46 -22.50L227.46 -22.50L227.46 -22.50Q224.15 -22.97 220.88 -23.72L220.88 -23.72L220.88 -23.72Q217.60 -24.48 214.83 -25.96L214.83 -25.96L214.83 -25.96Q212.06 -27.43 210.36 -29.92L210.36 -29.92L210.36 -29.92Q208.67 -32.40 208.67 -36.36L208.67 -36.36L208.67 -36.36Q208.67 -39.17 210.72 -42.08L210.72 -42.08L210.72 -42.08Q212.78 -45.00 216.09 -47.45L216.09 -47.45L216.09 -47.45Q219.40 -49.90 223.36 -51.41L223.36 -51.41L223.36 -51.41Q227.32 -52.92 231.06 -52.92L231.06 -52.92L231.06 -52.92Q233.22 -52.92 235.71 -52.31L235.71 -52.31L235.71 -52.31Q238.19 -51.70 240.42 -50.22L240.42 -50.22L240.42 -50.22Q242.66 -48.74 244.06 -46.08L244.06 -46.08L244.06 -46.08Q245.46 -43.42 245.46 -39.31L245.46 -39.31L245.46 -13.61L245.46 -13.61Q245.46 -12.60 244.28 -10.40L244.28 -10.40L244.28 -10.40Q243.09 -8.21 240.93 -5.80L240.93 -5.80L240.93 -5.80Q238.77 -3.38 235.71 -1.69L235.71 -1.69L235.71 -1.69Q232.65 0.00 228.98 0.00L228.98 0.00L211.77 0.00ZM214.79 -37.30L214.79 -37.30L214.79 -37.30Q214.79 -34.34 216.20 -32.54L216.20 -32.54L216.20 -32.54Q217.60 -30.74 219.94 -29.74L219.94 -29.74L219.94 -29.74Q222.28 -28.73 225.09 -28.26L225.09 -28.26L225.09 -28.26Q227.90 -27.79 230.70 -27.47L230.70 -27.47L230.70 -27.47Q233.51 -27.14 235.89 -26.68L235.89 -26.68L235.89 -26.68Q238.26 -26.21 239.70 -25.20L239.70 -25.20L239.70 -38.52L239.70 -38.52Q239.70 -42.34 238.23 -44.39L238.23 -44.39L238.23 -44.39Q236.75 -46.44 234.16 -47.23L234.16 -47.23L234.16 -47.23Q231.57 -48.02 228.18 -48.02L228.18 -48.02L228.18 -48.02Q224.58 -48.02 221.52 -47.09L221.52 -47.09L221.52 -47.09Q218.46 -46.15 216.63 -43.81L216.63 -43.81L216.63 -43.81Q214.79 -41.47 214.79 -37.30ZM222.64 -5.40L222.64 0.00L202.12 0.00L202.12 -5.40L222.64 -5.40ZM254.10 0.00L242.80 0.00L242.80 0.00Q240.71 0.00 238.77 -1.55L238.77 -1.55L238.77 -1.55Q236.82 -3.10 236.82 -5.40L236.82 -5.40L254.10 -5.40L254.10 0.00ZM257.84 0.00L257.84 -5.40L276.27 -5.40L276.27 -5.40Q280.30 -5.40 281.92 -7.02L281.92 -7.02L281.92 -7.02Q283.54 -8.64 283.54 -13.25L283.54 -13.25L283.54 -38.52L283.54 -38.52Q283.54 -42.34 282.32 -44.39L282.32 -44.39L282.32 -44.39Q281.10 -46.44 278.97 -47.23L278.97 -47.23L278.97 -47.23Q276.85 -48.02 274.18 -48.02L274.18 -48.02L274.18 -48.02Q270.87 -48.02 267.78 -47.09L267.78 -47.09L267.78 -47.09Q264.68 -46.15 262.74 -43.81L262.74 -43.81L262.74 -43.81Q260.79 -41.47 260.79 -37.30L260.79 -37.30L260.79 -29.45L260.79 -29.45Q260.79 -27.94 261.37 -27.40L261.37 -27.40L261.37 -27.40Q261.94 -26.86 262.56 -26.68L262.56 -26.68L262.56 -26.68Q263.17 -26.50 263.17 -25.92L263.17 -25.92L263.17 -25.92Q263.17 -25.49 261.58 -23.98L261.58 -23.98L259.35 -21.96L259.35 -21.96Q258.70 -21.38 258.52 -21.28L258.52 -21.28L258.52 -21.28Q258.34 -21.17 257.98 -21.17L257.98 -21.17L257.98 -21.17Q257.48 -21.17 256.76 -21.60L256.76 -21.60L256.76 -21.60Q256.04 -22.03 255.54 -23.33L255.54 -23.33L255.54 -23.33Q255.03 -24.62 255.03 -27.07L255.03 -27.07L255.03 -35.28L255.03 -35.28Q255.03 -38.30 257.01 -41.40L257.01 -41.40L257.01 -41.40Q258.99 -44.50 262.27 -47.09L262.27 -47.09L262.27 -47.09Q265.54 -49.68 269.43 -51.30L269.43 -51.30L269.43 -51.30Q273.32 -52.92 277.06 -52.92L277.06 -52.92L277.06 -52.92Q279.94 -52.92 282.75 -51.80L282.75 -51.80L282.75 -51.80Q285.56 -50.69 287.43 -47.74L287.43 -47.74L287.43 -47.74Q289.30 -44.78 289.30 -39.31L289.30 -39.31L289.30 -13.61L289.30 -13.61Q289.30 -12.60 288.19 -10.40L288.19 -10.40L288.19 -10.40Q287.07 -8.21 284.95 -5.80L284.95 -5.80L284.95 -5.80Q282.82 -3.38 279.76 -1.69L279.76 -1.69L279.76 -1.69Q276.70 0.00 272.82 0.00L272.82 0.00L257.84 0.00ZM297.22 0.00L285.92 0.00L285.92 0.00Q283.83 0.00 281.89 -1.55L281.89 -1.55L281.89 -1.55Q279.94 -3.10 279.94 -5.40L279.94 -5.40L297.22 -5.40L297.22 0.00ZM268.64 -5.40L268.64 0.00L248.12 0.00L248.12 -5.40L268.64 -5.40ZM329.56 -18.14L329.56 -42.19L329.56 -42.19Q329.56 -44.64 329.09 -45.86L329.09 -45.86L329.09 -45.86Q328.62 -47.09 328.05 -47.56L328.05 -47.56L328.05 -47.56Q327.47 -48.02 327.00 -48.24L327.00 -48.24L327.00 -48.24Q326.54 -48.46 326.54 -48.96L326.54 -48.96L326.54 -48.96Q326.54 -49.39 327.11 -49.72L327.11 -49.72L327.11 -49.72Q327.69 -50.04 328.48 -50.54L328.48 -50.54L330.86 -51.91L330.86 -51.91Q331.58 -52.34 332.22 -52.63L332.22 -52.63L332.22 -52.63Q332.87 -52.92 333.23 -52.92L333.23 -52.92L333.23 -52.92Q334.02 -52.92 334.67 -51.84L334.67 -51.84L334.67 -51.84Q335.32 -50.76 335.32 -47.02L335.32 -47.02L335.32 -7.85L335.32 -7.85Q335.32 -6.05 336.40 -5.72L336.40 -5.72L336.40 -5.72Q337.48 -5.40 338.78 -5.40L338.78 -5.40L338.78 -5.40Q339.93 -5.40 339.93 -4.54L339.93 -4.54L339.93 -4.54Q339.93 -3.74 339.28 -2.45L339.28 -2.45L339.28 -2.45Q338.63 -1.15 338.13 0.00L338.13 0.00L336.83 0.00L336.83 0.00Q335.32 0.00 333.48 -1.48L333.48 -1.48L333.48 -1.48Q331.65 -2.95 330.50 -5.40L330.50 -5.40L330.50 -5.40Q328.55 -3.10 325.67 -1.55L325.67 -1.55L325.67 -1.55Q322.79 0.00 318.83 0.00L318.83 0.00L302.92 0.00L302.92 -5.40L322.29 -5.40L322.29 -5.40Q325.82 -5.40 327.47 -6.59L327.47 -6.59L327.47 -6.59Q329.13 -7.78 329.42 -11.09L329.42 -11.09L329.42 -11.09Q327.18 -13.25 324.23 -14.62L324.23 -14.62L324.23 -14.62Q321.28 -15.98 318.08 -16.92L318.08 -16.92L318.08 -16.92Q314.87 -17.86 311.78 -18.79L311.78 -18.79L311.78 -18.79Q308.68 -19.73 306.20 -21.06L306.20 -21.06L306.20 -21.06Q303.71 -22.39 302.24 -24.55L302.24 -24.55L302.24 -24.55Q300.76 -26.71 300.76 -30.17L300.76 -30.17L300.76 -42.19L300.76 -42.19Q300.76 -44.64 300.29 -45.86L300.29 -45.86L300.29 -45.86Q299.82 -47.09 299.25 -47.56L299.25 -47.56L299.25 -47.56Q298.67 -48.02 298.20 -48.24L298.20 -48.24L298.20 -48.24Q297.74 -48.46 297.74 -48.96L297.74 -48.96L297.74 -48.96Q297.74 -49.39 298.31 -49.72L298.31 -49.72L298.31 -49.72Q298.89 -50.04 299.68 -50.54L299.68 -50.54L302.06 -51.91L302.06 -51.91Q302.78 -52.34 303.42 -52.63L303.42 -52.63L303.42 -52.63Q304.07 -52.92 304.43 -52.92L304.43 -52.92L304.43 -52.92Q305.22 -52.92 305.87 -51.84L305.87 -51.84L305.87 -51.84Q306.52 -50.76 306.52 -47.02L306.52 -47.02L306.52 -32.11L306.52 -32.11Q306.52 -28.94 308.03 -27.07L308.03 -27.07L308.03 -27.07Q309.54 -25.20 312.06 -24.12L312.06 -24.12L312.06 -24.12Q314.58 -23.04 317.61 -22.28L317.61 -22.28L317.61 -22.28Q320.63 -21.53 323.76 -20.63L323.76 -20.63L323.76 -20.63Q326.90 -19.73 329.56 -18.14L329.56 -18.14ZM312.64 -5.40L312.64 0.00L292.12 0.00L292.12 -5.40L312.64 -5.40ZM336.33 0.00L336.33 -5.40L346.05 -5.40L346.05 0.00L336.33 0.00ZM381.38 -16.70L381.38 -19.22L381.38 -19.22Q381.38 -21.38 380.48 -23.72L380.48 -23.72L380.48 -23.72Q379.58 -26.06 377.27 -27.68L377.27 -27.68L377.27 -27.68Q374.97 -29.30 370.58 -29.30L370.58 -29.30L370.58 -29.30Q370.07 -29.30 370.07 -29.66L370.07 -29.66L370.07 -29.66Q370.07 -30.02 370.36 -30.60L370.36 -30.60L373.17 -33.41L373.17 -33.41Q373.24 -33.62 373.38 -33.80L373.38 -33.80L373.38 -33.80Q373.53 -33.98 373.89 -33.98L373.89 -33.98L373.89 -33.98Q377.42 -33.98 380.44 -32.33L380.44 -32.33L380.44 -32.33Q383.46 -30.67 385.30 -27.72L385.30 -27.72L385.30 -27.72Q387.14 -24.77 387.14 -21.02L387.14 -21.02L387.14 -7.13L387.14 -7.13Q387.14 -5.40 388.14 -5.40L388.14 -5.40L388.14 -5.40Q388.72 -5.40 388.72 -4.82L388.72 -4.82L388.72 -4.82Q388.72 -4.46 388.54 -3.96L388.54 -3.96L388.54 -3.96Q388.36 -3.46 388.22 -3.10L388.22 -3.10L387.64 -1.80L387.64 -1.80Q387.28 -0.94 386.81 -0.47L386.81 -0.47L386.81 -0.47Q386.34 0.00 385.34 0.00L385.34 0.00L384.54 0.00L384.54 0.00Q382.67 0.00 382.02 -1.22L382.02 -1.22L382.02 -1.22Q381.38 -2.45 381.38 -3.67L381.38 -3.67L381.38 -7.85L381.38 -7.85Q378.86 -5.47 375.83 -3.42L375.83 -3.42L375.83 -3.42Q372.81 -1.37 369.78 -0.14L369.78 -0.14L369.78 -0.14Q366.76 1.08 364.24 1.08L364.24 1.08L364.24 1.08Q358.41 1.08 355.02 -0.86L355.02 -0.86L355.02 -0.86Q351.64 -2.81 350.20 -5.83L350.20 -5.83L350.20 -5.83Q348.76 -8.86 348.76 -12.02L348.76 -12.02L348.76 -37.66L348.76 -37.66Q348.76 -38.95 349.98 -41.36L349.98 -41.36L349.98 -41.36Q351.21 -43.78 353.44 -46.26L353.44 -46.26L353.44 -46.26Q355.67 -48.74 358.77 -50.47L358.77 -50.47L358.77 -50.47Q361.86 -52.20 365.54 -52.20L365.54 -52.20L372.88 -52.20L372.88 -52.20Q375.83 -52.20 378.89 -51.41L378.89 -51.41L378.89 -51.41Q381.95 -50.62 383.97 -49.36L383.97 -49.36L383.97 -49.36Q385.98 -48.10 385.98 -46.80L385.98 -46.80L385.98 -46.80Q385.98 -46.30 385.41 -45.50L385.41 -45.50L383.68 -43.34L383.68 -43.34Q383.32 -42.91 382.92 -42.44L382.92 -42.44L382.92 -42.44Q382.53 -41.98 382.24 -41.98L382.24 -41.98L382.24 -41.98Q381.81 -41.98 381.66 -42.34L381.66 -42.34L381.66 -42.34Q380.87 -44.28 378.39 -45.54L378.39 -45.54L378.39 -45.54Q375.90 -46.80 370.86 -46.80L370.86 -46.80L361.29 -46.80L361.29 -46.80Q358.41 -46.80 356.46 -44.71L356.46 -44.71L356.46 -44.71Q354.52 -42.62 354.52 -39.10L354.52 -39.10L354.52 -16.13L354.52 -16.13Q354.52 -11.09 356.14 -8.71L356.14 -8.71L356.14 -8.71Q357.76 -6.34 360.53 -5.58L360.53 -5.58L360.53 -5.58Q363.30 -4.82 366.62 -4.82L366.62 -4.82L366.62 -4.82Q371.37 -4.82 374.68 -6.44L374.68 -6.44L374.68 -6.44Q377.99 -8.06 379.68 -10.80L379.68 -10.80L379.68 -10.80Q381.38 -13.54 381.38 -16.70L381.38 -16.70ZM360.64 -5.40L360.64 0.00L340.12 0.00L340.12 -5.40L360.64 -5.40Z"/></svg>