<svg xmlns="http://www.w3.org/2000/svg" viewBox="0 -72.5 405.48 72.50" height="100%"><path fill="currentColor" d="M33.84 -15.70L33.84 -15.70L33.84 -15.70Q33.84 -10.66 30.56 -8.21L30.56 -8.21L30.56 -8.21Q27.29 -5.76 22.46 -5.76L22.46 -5.76L22.46 -5.76Q16.27 -5.76 11.45 -10.37L11.45 -10.37L11.45 -10.37Q6.62 -14.98 2.09 -25.63L2.09 -25.63L7.20 -27.50L7.20 -27.50Q10.30 -19.87 13.90 -15.44L13.90 -15.44L13.90 -15.44Q17.50 -11.02 21.96 -11.02L21.96 -11.02L21.96 -11.02Q24.62 -11.02 26.39 -12.28L26.39 -12.28L26.39 -12.28Q28.15 -13.54 28.15 -16.34L28.15 -16.34L28.15 -16.34Q28.15 -19.01 26.68 -21.10L26.68 -21.10L26.68 -21.10Q25.20 -23.18 22.90 -24.98L22.90 -24.98L22.90 -24.98Q20.95 -24.62 18.72 -24.55L18.72 -24.55L18.36 -29.59L18.36 -29.59Q23.26 -29.74 25.31 -31.28L25.31 -31.28L25.31 -31.28Q27.36 -32.83 27.36 -35.57L27.36 -35.57L27.36 -35.57Q27.36 -38.16 25.67 -39.31L25.67 -39.31L25.67 -39.31Q23.98 -40.46 21.74 -40.46L21.74 -40.46L21.74 -40.46Q19.01 -40.46 16.88 -39.74L16.88 -39.74L16.88 -39.74Q14.76 -39.02 12.31 -37.80L12.31 -37.80L10.51 -42.77L10.51 -42.77Q12.38 -43.78 15.12 -44.64L15.12 -44.64L15.12 -44.64Q17.86 -45.50 21.46 -45.50L21.46 -45.50L21.46 -45.50Q27.07 -45.50 30.06 -42.70L30.06 -42.70L30.06 -42.70Q33.05 -39.89 33.05 -35.64L33.05 -35.64L33.05 -35.64Q33.05 -30.02 28.22 -27.00L28.22 -27.00L28.22 -27.00Q29.02 -26.28 29.66 -25.56L29.66 -25.56L29.66 -25.56Q32.40 -25.20 34.99 -25.20L34.99 -25.20L34.99 -25.20Q37.30 -25.20 39.10 -25.42L39.10 -25.42L39.10 -25.42Q40.90 -25.63 42.77 -26.14L42.77 -26.14L42.77 -39.67L37.51 -39.67L37.51 -44.78L56.09 -44.78L56.09 -39.67L48.60 -39.67L48.60 0.00L42.77 0.00L42.77 -20.88L42.77 -20.88Q41.04 -20.45 39.38 -20.27L39.38 -20.27L39.38 -20.27Q37.73 -20.09 35.86 -20.09L35.86 -20.09L35.86 -20.09Q34.63 -20.09 32.76 -20.30L32.76 -20.30L32.76 -20.30Q33.84 -18.14 33.84 -15.70ZM88.84 -15.70L88.84 -15.70L88.84 -15.70Q88.84 -10.66 85.56 -8.21L85.56 -8.21L85.56 -8.21Q82.29 -5.76 77.46 -5.76L77.46 -5.76L77.46 -5.76Q71.27 -5.76 66.45 -10.37L66.45 -10.37L66.45 -10.37Q61.62 -14.98 57.09 -25.63L57.09 -25.63L62.20 -27.50L62.20 -27.50Q65.30 -19.87 68.90 -15.44L68.90 -15.44L68.90 -15.44Q72.50 -11.02 76.96 -11.02L76.96 -11.02L76.96 -11.02Q79.62 -11.02 81.39 -12.28L81.39 -12.28L81.39 -12.28Q83.15 -13.54 83.15 -16.34L83.15 -16.34L83.15 -16.34Q83.15 -19.01 81.68 -21.10L81.68 -21.10L81.68 -21.10Q80.20 -23.18 77.90 -24.98L77.90 -24.98L77.90 -24.98Q75.95 -24.62 73.72 -24.55L73.72 -24.55L73.36 -29.59L73.36 -29.59Q78.26 -29.74 80.31 -31.28L80.31 -31.28L80.31 -31.28Q82.36 -32.83 82.36 -35.57L82.36 -35.57L82.36 -35.57Q82.36 -38.16 80.67 -39.31L80.67 -39.31L80.67 -39.31Q78.98 -40.46 76.74 -40.46L76.74 -40.46L76.74 -40.46Q74.01 -40.46 71.88 -39.74L71.88 -39.74L71.88 -39.74Q69.76 -39.02 67.31 -37.80L67.31 -37.80L65.51 -42.77L65.51 -42.77Q67.38 -43.78 70.12 -44.64L70.12 -44.64L70.12 -44.64Q72.86 -45.50 76.46 -45.50L76.46 -45.50L76.46 -45.50Q82.07 -45.50 85.06 -42.70L85.06 -42.70L85.06 -42.70Q88.05 -39.89 88.05 -35.64L88.05 -35.64L88.05 -35.64Q88.05 -30.02 83.22 -27.00L83.22 -27.00L83.22 -27.00Q84.02 -26.28 84.66 -25.56L84.66 -25.56L84.66 -25.56Q87.40 -25.20 89.99 -25.20L89.99 -25.20L89.99 -25.20Q92.30 -25.20 94.10 -25.42L94.10 -25.42L94.10 -25.42Q95.90 -25.63 97.77 -26.14L97.77 -26.14L97.77 -39.67L92.51 -39.67L92.51 -44.78L129.74 -44.78L129.74 -39.67L122.25 -39.67L122.25 0.00L116.42 0.00L116.42 -39.67L103.60 -39.67L103.60 0.00L97.77 0.00L97.77 -20.88L97.77 -20.88Q96.04 -20.45 94.38 -20.27L94.38 -20.27L94.38 -20.27Q92.73 -20.09 90.86 -20.09L90.86 -20.09L90.86 -20.09Q89.63 -20.09 87.76 -20.30L87.76 -20.30L87.76 -20.30Q88.84 -18.14 88.84 -15.70ZM148.51 -15.98L148.51 -15.98L148.51 -15.98Q146.42 -15.98 144.34 -15.48L144.34 -15.48L144.34 -15.48Q142.25 -14.98 140.59 -14.18L140.59 -14.18L140.59 -14.18Q137.21 -16.20 134.90 -18.94L134.90 -18.94L134.90 -18.94Q132.60 -21.67 132.60 -25.34L132.60 -25.34L132.60 -25.34Q132.60 -27.36 133.32 -28.80L133.32 -28.80L133.32 -28.80Q134.04 -30.24 135.26 -31.18L135.26 -31.18L135.26 -31.18Q136.92 -32.40 139.15 -32.94L139.15 -32.94L139.15 -32.94Q141.38 -33.48 144.91 -33.48L144.91 -33.48L151.61 -33.48L151.61 -39.67L129.00 -39.67L129.00 -44.78L165.36 -44.78L165.36 -39.67L157.44 -39.67L157.44 -28.37L144.19 -28.37L144.19 -28.37Q141.96 -28.37 141.02 -28.15L141.02 -28.15L141.02 -28.15Q140.09 -27.94 139.44 -27.43L139.44 -27.43L139.44 -27.43Q138.36 -26.57 138.36 -24.98L138.36 -24.98L138.36 -24.98Q138.36 -23.26 139.37 -22.07L139.37 -22.07L139.37 -22.07Q140.38 -20.88 141.53 -19.94L141.53 -19.94L141.53 -19.94Q144.84 -21.17 148.80 -21.17L148.80 -21.17L148.80 -21.17Q154.13 -21.17 157.66 -18.43L157.66 -18.43L157.66 -18.43Q161.18 -15.70 161.18 -11.09L161.18 -11.09L161.18 -11.09Q161.18 -6.41 158.20 -3.71L158.20 -3.71L158.20 -3.71Q155.21 -1.01 149.81 -0.29L149.81 -0.29L149.81 -0.29Q151.90 0.58 154.16 1.37L154.16 1.37L154.16 1.37Q156.43 2.16 158.88 2.88L158.88 2.88L156.50 7.92L156.50 7.92Q152.40 6.05 148.66 4.00L148.66 4.00L148.66 4.00Q144.91 1.94 141.67 -0.07L141.67 -0.07L141.67 -0.07Q137.42 -0.29 134.94 -1.33L134.94 -1.33L134.94 -1.33Q132.46 -2.38 132.46 -4.68L132.46 -4.68L132.46 -4.68Q132.46 -6.26 133.43 -7.31L133.43 -7.31L133.43 -7.31Q134.40 -8.35 136.27 -8.35L136.27 -8.35L136.27 -8.35Q137.71 -8.35 139.26 -7.60L139.26 -7.60L139.26 -7.60Q140.81 -6.84 142.97 -5.04L142.97 -5.04L142.97 -5.04Q143.98 -4.90 144.77 -4.90L144.77 -4.90L144.77 -4.90Q149.81 -4.90 152.58 -6.37L152.58 -6.37L152.58 -6.37Q155.35 -7.85 155.35 -11.02L155.35 -11.02L155.35 -11.02Q155.35 -13.39 153.59 -14.69L153.59 -14.69L153.59 -14.69Q151.82 -15.98 148.51 -15.98ZM183.51 -15.98L183.51 -15.98L183.51 -15.98Q181.42 -15.98 179.34 -15.48L179.34 -15.48L179.34 -15.48Q177.25 -14.98 175.59 -14.18L175.59 -14.18L175.59 -14.18Q172.21 -16.20 169.90 -18.94L169.90 -18.94L169.90 -18.94Q167.60 -21.67 167.60 -25.34L167.60 -25.34L167.60 -25.34Q167.60 -27.36 168.32 -28.80L168.32 -28.80L168.32 -28.80Q169.04 -30.24 170.26 -31.18L170.26 -31.18L170.26 -31.18Q171.92 -32.40 174.15 -32.94L174.15 -32.94L174.15 -32.94Q176.38 -33.48 179.91 -33.48L179.91 -33.48L186.61 -33.48L186.61 -39.67L164.00 -39.67L164.00 -44.78L200.36 -44.78L200.36 -39.67L192.44 -39.67L192.44 -28.37L179.19 -28.37L179.19 -28.37Q176.96 -28.37 176.02 -28.15L176.02 -28.15L176.02 -28.15Q175.09 -27.94 174.44 -27.43L174.44 -27.43L174.44 -27.43Q173.36 -26.57 173.36 -24.98L173.36 -24.98L173.36 -24.98Q173.36 -23.26 174.37 -22.07L174.37 -22.07L174.37 -22.07Q175.38 -20.88 176.53 -19.94L176.53 -19.94L176.53 -19.94Q179.84 -21.17 183.80 -21.17L183.80 -21.17L183.80 -21.17Q189.13 -21.17 192.66 -18.43L192.66 -18.43L192.66 -18.43Q196.18 -15.70 196.18 -11.09L196.18 -11.09L196.18 -11.09Q196.18 -6.41 193.20 -3.71L193.20 -3.71L193.20 -3.71Q190.21 -1.01 184.81 -0.29L184.81 -0.29L184.81 -0.29Q186.90 0.58 189.16 1.37L189.16 1.37L189.16 1.37Q191.43 2.16 193.88 2.88L193.88 2.88L191.50 7.92L191.50 7.92Q187.40 6.05 183.66 4.00L183.66 4.00L183.66 4.00Q179.91 1.94 176.67 -0.07L176.67 -0.07L176.67 -0.07Q172.42 -0.29 169.94 -1.33L169.94 -1.33L169.94 -1.33Q167.46 -2.38 167.46 -4.68L167.46 -4.68L167.46 -4.68Q167.46 -6.26 168.43 -7.31L168.43 -7.31L168.43 -7.31Q169.40 -8.35 171.27 -8.35L171.27 -8.35L171.27 -8.35Q172.71 -8.35 174.26 -7.60L174.26 -7.60L174.26 -7.60Q175.81 -6.84 177.97 -5.04L177.97 -5.04L177.97 -5.04Q178.98 -4.90 179.77 -4.90L179.77 -4.90L179.77 -4.90Q184.81 -4.90 187.58 -6.37L187.58 -6.37L187.58 -6.37Q190.35 -7.85 190.35 -11.02L190.35 -11.02L190.35 -11.02Q190.35 -13.39 188.59 -14.69L188.59 -14.69L188.59 -14.69Q186.82 -15.98 183.51 -15.98ZM191.00 -44.28L185.10 -44.28L185.10 -44.28Q183.58 -46.80 182.54 -49.54L182.54 -49.54L182.54 -49.54Q181.50 -52.27 181.50 -54.86L181.50 -54.86L181.50 -54.86Q181.50 -59.69 184.70 -62.10L184.70 -62.10L184.70 -62.10Q187.90 -64.51 192.66 -64.51L192.66 -64.51L192.66 -64.51Q194.96 -64.51 196.90 -64.01L196.90 -64.01L196.90 -64.01Q198.85 -63.50 200.29 -62.78L200.29 -62.78L198.70 -58.03L198.70 -58.03Q197.48 -58.68 196.11 -59.11L196.11 -59.11L196.11 -59.11Q194.74 -59.54 193.16 -59.54L193.16 -59.54L193.16 -59.54Q190.28 -59.54 188.77 -57.92L188.77 -57.92L188.77 -57.92Q187.26 -56.30 187.26 -53.78L187.26 -53.78L187.26 -53.78Q187.26 -51.41 188.23 -49.14L188.23 -49.14L188.23 -49.14Q189.20 -46.87 191.00 -44.28L191.00 -44.28ZM199.00 -39.67L199.00 -44.78L239.54 -44.78L239.54 -39.67L231.62 -39.67L231.62 -39.67Q233.92 -36.86 233.92 -33.41L233.92 -33.41L233.92 -33.41Q233.92 -26.93 228.23 -23.62L228.23 -23.62L228.23 -23.62Q230.82 -21.31 232.88 -18.25L232.88 -18.25L232.88 -18.25Q234.93 -15.19 234.93 -10.94L234.93 -10.94L234.93 -10.94Q234.93 -7.34 233.31 -4.90L233.31 -4.90L233.31 -4.90Q231.69 -2.45 228.88 -1.22L228.88 -1.22L228.88 -1.22Q226.07 0.00 222.62 0.00L222.62 0.00L222.62 0.00Q218.51 0.00 214.80 -2.20L214.80 -2.20L214.80 -2.20Q211.10 -4.39 207.68 -9.32L207.68 -9.32L207.68 -9.32Q204.26 -14.26 201.09 -22.54L201.09 -22.54L206.20 -24.34L206.20 -24.34Q208.22 -18.72 210.63 -14.44L210.63 -14.44L210.63 -14.44Q213.04 -10.15 215.88 -7.74L215.88 -7.74L215.88 -7.74Q218.73 -5.33 222.04 -5.33L222.04 -5.33L222.04 -5.33Q224.99 -5.33 226.90 -6.66L226.90 -6.66L226.90 -6.66Q228.81 -7.99 228.81 -11.52L228.81 -11.52L228.81 -11.52Q228.81 -14.47 227.19 -16.96L227.19 -16.96L227.19 -16.96Q225.57 -19.44 222.69 -21.67L222.69 -21.67L222.69 -21.67Q220.53 -21.24 218.01 -21.17L218.01 -21.17L217.65 -26.21L217.65 -26.21Q222.90 -26.35 225.50 -28.08L225.50 -28.08L225.50 -28.08Q228.09 -29.81 228.09 -33.34L228.09 -33.34L228.09 -33.34Q228.09 -35.50 227.01 -37.12L227.01 -37.12L227.01 -37.12Q225.93 -38.74 224.27 -39.67L224.27 -39.67L199.00 -39.67ZM238.00 -39.67L238.00 -44.78L294.16 -44.78L294.16 -39.67L270.62 -39.67L270.62 -39.67Q272.92 -36.86 272.92 -33.41L272.92 -33.41L272.92 -33.41Q272.92 -26.93 267.23 -23.62L267.23 -23.62L267.23 -23.62Q268.02 -22.97 268.74 -22.25L268.74 -22.25L268.74 -22.25Q269.46 -21.53 270.11 -20.74L270.11 -20.74L270.11 -20.74Q272.34 -22.32 274.58 -23.15L274.58 -23.15L274.58 -23.15Q276.81 -23.98 279.26 -23.98L279.26 -23.98L279.26 -23.98Q283.94 -23.98 286.92 -21.13L286.92 -21.13L286.92 -21.13Q289.91 -18.29 289.91 -13.32L289.91 -13.32L289.91 -13.32Q289.91 -10.01 288.80 -6.66L288.80 -6.66L288.80 -6.66Q287.68 -3.31 285.23 0.00L285.23 0.00L280.05 -2.95L280.05 -2.95Q281.85 -5.04 283.00 -7.56L283.00 -7.56L283.00 -7.56Q284.15 -10.08 284.15 -13.03L284.15 -13.03L284.15 -13.03Q284.15 -16.13 282.68 -17.57L282.68 -17.57L282.68 -17.57Q281.20 -19.01 278.68 -19.01L278.68 -19.01L278.68 -19.01Q275.87 -19.01 272.85 -16.34L272.85 -16.34L272.85 -16.34Q273.35 -15.19 273.64 -13.82L273.64 -13.82L273.64 -13.82Q273.93 -12.46 273.93 -10.94L273.93 -10.94L273.93 -10.94Q273.93 -7.34 272.31 -4.90L272.31 -4.90L272.31 -4.90Q270.69 -2.45 267.88 -1.22L267.88 -1.22L267.88 -1.22Q265.07 0.00 261.62 0.00L261.62 0.00L261.62 0.00Q257.51 0.00 253.80 -2.20L253.80 -2.20L253.80 -2.20Q250.10 -4.39 246.68 -9.32L246.68 -9.32L246.68 -9.32Q243.26 -14.26 240.09 -22.54L240.09 -22.54L245.20 -24.34L245.20 -24.34Q247.22 -18.72 249.63 -14.44L249.63 -14.44L249.63 -14.44Q252.04 -10.15 254.88 -7.74L254.88 -7.74L254.88 -7.74Q257.73 -5.33 261.04 -5.33L261.04 -5.33L261.04 -5.33Q263.99 -5.33 265.90 -6.66L265.90 -6.66L265.90 -6.66Q267.81 -7.99 267.81 -11.52L267.81 -11.52L267.81 -11.52Q267.81 -14.47 266.19 -16.96L266.19 -16.96L266.19 -16.96Q264.57 -19.44 261.69 -21.67L261.69 -21.67L261.69 -21.67Q259.53 -21.24 257.01 -21.17L257.01 -21.17L256.65 -26.21L256.65 -26.21Q261.90 -26.35 264.50 -28.08L264.50 -28.08L264.50 -28.08Q267.09 -29.81 267.09 -33.34L267.09 -33.34L267.09 -33.34Q267.09 -35.50 266.01 -37.12L266.01 -37.12L266.01 -37.12Q264.93 -38.74 263.27 -39.67L263.27 -39.67L238.00 -39.67ZM320.50 -16.85L302.14 -4.68L298.76 -9.50L316.47 -20.23L316.47 -20.23Q313.45 -24.12 311.25 -25.74L311.25 -25.74L311.25 -25.74Q309.06 -27.36 306.03 -27.36L306.03 -27.36L306.03 -27.36Q303.94 -27.36 301.93 -26.78L301.93 -26.78L301.93 -26.78Q299.91 -26.21 296.96 -24.70L296.96 -24.70L294.94 -30.02L294.94 -30.02Q297.39 -31.18 300.06 -32.00L300.06 -32.00L300.06 -32.00Q302.72 -32.83 305.89 -32.83L305.89 -32.83L305.89 -32.83Q308.77 -32.83 311.07 -31.93L311.07 -31.93L311.07 -31.93Q313.38 -31.03 315.61 -28.98L315.61 -28.98L315.61 -28.98Q317.84 -26.93 320.50 -23.47L320.50 -23.47L320.50 -39.67L293.00 -39.67L293.00 -44.78L355.42 -44.78L355.42 -39.67L326.26 -39.67L326.26 -23.69L326.26 -23.69Q328.71 -23.83 331.12 -24.16L331.12 -24.16L331.12 -24.16Q333.54 -24.48 335.05 -24.91L335.05 -24.91L335.05 -24.91Q334.33 -26.35 334.33 -27.86L334.33 -27.86L334.33 -27.86Q334.33 -30.17 335.84 -31.28L335.84 -31.28L335.84 -31.28Q337.35 -32.40 339.15 -32.40L339.15 -32.40L339.15 -32.40Q341.89 -32.40 343.51 -30.82L343.51 -30.82L343.51 -30.82Q345.13 -29.23 345.13 -26.86L345.13 -26.86L345.13 -26.86Q345.13 -24.84 344.12 -23.62L344.12 -23.62L344.12 -23.62Q343.11 -22.39 341.67 -21.82L341.67 -21.82L341.67 -21.82Q342.68 -20.09 343.65 -18.54L343.65 -18.54L343.65 -18.54Q344.62 -16.99 345.56 -15.62L345.56 -15.62L344.77 -13.25L344.77 -13.25Q340.95 -12.67 339.33 -11.20L339.33 -11.20L339.33 -11.20Q337.71 -9.72 337.71 -7.34L337.71 -7.34L337.71 -7.34Q337.71 -4.90 339.48 -3.78L339.48 -3.78L339.48 -3.78Q341.24 -2.66 343.47 -2.66L343.47 -2.66L343.47 -2.66Q345.70 -2.66 347.43 -3.20L347.43 -3.20L347.43 -3.20Q349.16 -3.74 351.61 -5.04L351.61 -5.04L353.48 0.00L353.48 0.00Q351.61 0.94 349.23 1.69L349.23 1.69L349.23 1.69Q346.86 2.45 343.90 2.45L343.90 2.45L343.90 2.45Q338.43 2.45 335.41 -0.40L335.41 -0.40L335.41 -0.40Q332.38 -3.24 332.38 -7.70L332.38 -7.70L332.38 -7.70Q332.38 -10.58 334.08 -13.07L334.08 -13.07L334.08 -13.07Q335.77 -15.55 339.08 -16.85L339.08 -16.85L339.08 -16.85Q338.50 -17.93 337.96 -18.90L337.96 -18.90L337.96 -18.90Q337.42 -19.87 337.14 -20.59L337.14 -20.59L337.14 -20.59Q335.98 -20.16 334.08 -19.76L334.08 -19.76L334.08 -19.76Q332.17 -19.37 330.08 -19.08L330.08 -19.08L330.08 -19.08Q327.99 -18.79 326.26 -18.72L326.26 -18.72L326.26 0.00L320.50 0.00L320.50 -16.85ZM384.38 -2.16L384.38 -2.16L384.38 -2.16Q384.38 -5.62 386.58 -8.24L386.58 -8.24L386.58 -8.24Q388.78 -10.87 393.60 -12.24L393.60 -12.24L393.60 -12.24Q394.39 -13.75 394.90 -15.48L394.90 -15.48L394.90 -15.48Q395.40 -17.21 395.40 -19.30L395.40 -19.30L395.40 -19.30Q395.40 -22.54 393.82 -24.08L393.82 -24.08L393.82 -24.08Q392.23 -25.63 389.71 -25.63L389.71 -25.63L389.71 -25.63Q387.91 -25.63 386.08 -24.77L386.08 -24.77L386.08 -24.77Q384.24 -23.90 382.58 -21.60L382.58 -21.60L382.58 -21.60Q380.93 -19.30 379.63 -14.98L379.63 -14.98L374.09 -16.70L374.09 -16.70Q374.95 -20.02 376.39 -22.54L376.39 -22.54L376.39 -22.54Q374.74 -23.83 372.97 -24.62L372.97 -24.62L372.97 -24.62Q371.21 -25.42 369.05 -25.42L369.05 -25.42L369.05 -25.42Q366.10 -25.42 364.58 -23.76L364.58 -23.76L364.58 -23.76Q363.07 -22.10 363.07 -19.51L363.07 -19.51L363.07 -19.51Q363.07 -16.78 364.62 -14.29L364.62 -14.29L364.62 -14.29Q366.17 -11.81 369.08 -9.07L369.08 -9.07L369.08 -9.07Q372.00 -6.34 376.25 -2.88L376.25 -2.88L372.36 0.86L372.36 0.86Q368.11 -2.74 364.69 -6.01L364.69 -6.01L364.69 -6.01Q361.27 -9.29 359.26 -12.64L359.26 -12.64L359.26 -12.64Q357.24 -15.98 357.24 -19.80L357.24 -19.80L357.24 -19.80Q357.24 -23.62 359.00 -26.03L359.00 -26.03L359.00 -26.03Q360.77 -28.44 363.40 -29.56L363.40 -29.56L363.40 -29.56Q366.02 -30.67 368.69 -30.67L368.69 -30.67L368.69 -30.67Q371.86 -30.67 374.48 -29.63L374.48 -29.63L374.48 -29.63Q377.11 -28.58 379.49 -26.57L379.49 -26.57L379.49 -26.57Q382.94 -29.81 387.84 -30.53L387.84 -30.53L387.84 -39.67L354.00 -39.67L354.00 -44.78L405.41 -44.78L405.41 -39.67L393.60 -39.67L393.60 -30.17L393.60 -30.17Q396.48 -29.30 398.86 -26.64L398.86 -26.64L398.86 -26.64Q401.23 -23.98 401.23 -19.01L401.23 -19.01L401.23 -19.01Q401.23 -16.06 400.37 -13.28L400.37 -13.28L400.37 -13.28Q399.50 -10.51 398.28 -8.21L398.28 -8.21L398.28 -8.21Q393.89 -7.49 391.80 -5.90L391.80 -5.90L391.80 -5.90Q389.71 -4.32 389.71 -1.73L389.71 -1.73L389.71 -1.73Q389.71 0.72 391.51 1.84L391.51 1.84L391.51 1.84Q393.31 2.95 395.54 2.95L395.54 2.95L395.54 2.95Q397.78 2.95 399.50 2.38L399.50 2.38L399.50 2.38Q401.23 1.80 403.68 0.58L403.68 0.58L405.48 5.54L405.48 5.54Q403.68 6.48 401.23 7.24L401.23 7.24L401.23 7.24Q398.78 7.99 395.90 7.99L395.90 7.99L395.90 7.99Q390.50 7.99 387.44 5.18L387.44 5.18L387.44 5.18Q384.38 2.38 384.38 -2.16Z"/></svg>