<svg xmlns="http://www.w3.org/2000/svg" viewBox="0 -56.08 530.80 56.08" height="100%"><path fill="currentColor" d="M32.63 -37.30L22.53 -37.30L22.53 -36.28L22.53 -36.28Q22.53 -33.27 22.02 -29.98L22.02 -29.98L22.02 -29.98Q21.52 -26.69 20.88 -23.54L20.88 -23.54L20.88 -23.54Q20.25 -20.39 19.74 -17.56L19.74 -17.56L19.74 -17.56Q19.23 -14.73 19.23 -12.66L19.23 -12.66L19.23 -12.66Q19.23 -4.89 23.34 -4.89L23.34 -4.89L23.34 -4.89Q25.06 -4.89 26.89 -5.93L26.89 -5.93L26.89 -5.93Q28.72 -6.97 30.64 -8.91L30.64 -8.91L30.64 -8.91Q32.56 -10.86 34.98 -14.23L34.98 -14.23L34.98 -14.23Q37.41 -17.61 42.78 -26.52L42.78 -26.52L46.09 -31.95L46.09 -31.95Q50.94 -40.02 54.34 -42.83L54.34 -42.83L54.34 -42.83Q57.73 -45.64 62.19 -45.64L62.19 -45.64L62.19 -45.64Q65.95 -45.64 68.63 -43.72L68.63 -43.72L68.63 -43.72Q71.30 -41.80 72.70 -38.39L72.70 -38.39L68.17 -36.42L68.17 -36.42Q66.48 -40.75 62.05 -40.75L62.05 -40.75L62.05 -40.75Q59.52 -40.75 57.43 -39.01L57.43 -39.01L57.43 -39.01Q55.34 -37.27 52.84 -33.19L52.84 -33.19L44.52 -19.27L44.52 -19.27Q38.42 -8.94 33.31 -4.47L33.31 -4.47L33.31 -4.47Q28.20 0.00 22.89 0.00L22.89 0.00L22.89 0.00Q18.73 0.00 16.20 -3.32L16.20 -3.32L16.20 -3.32Q13.67 -6.64 13.67 -12.09L13.67 -12.09L13.67 -12.09Q13.67 -16.63 15.27 -23.56L15.27 -23.56L16.00 -27.00L6.05 -27.00L6.05 -31.89L16.77 -31.89L16.77 -31.89Q17.05 -34.03 17.05 -37.30L17.05 -37.30L6.05 -37.30L6.05 -42.19L16.56 -42.19L16.56 -42.19Q15.61 -45.81 13.23 -47.98L13.23 -47.98L13.23 -47.98Q10.86 -50.14 6.47 -51.27L6.47 -51.27L7.63 -56.08L7.63 -56.08Q12.66 -54.39 15.27 -52.63L15.27 -52.63L15.27 -52.63Q17.89 -50.88 19.56 -48.34L19.56 -48.34L19.56 -48.34Q21.23 -45.81 22.05 -42.19L22.05 -42.19L32.63 -42.19L32.63 -37.30ZM85.97 -5.63L85.97 -5.63L85.97 -5.63Q79.58 -5.63 75.53 -8.19L75.53 -8.19L78.09 -12.38L78.09 -12.38Q80.98 -10.52 85.97 -10.52L85.97 -10.52L85.97 -10.52Q91.11 -10.52 94.89 -14.54L94.89 -14.54L94.89 -14.54Q98.67 -18.56 100.50 -26.05L100.50 -26.05L103.83 -26.05L103.83 -26.05Q105.28 -19.83 108.13 -16.14L108.13 -16.14L108.13 -16.14Q109.78 -17.33 111.85 -20.52L111.85 -20.52L111.85 -20.52Q113.92 -23.70 114.84 -26.05L114.84 -26.05L118.14 -26.05L118.14 -26.05Q119.44 -18.81 122.78 -14.66L122.78 -14.66L122.78 -14.66Q126.13 -10.52 130.91 -10.52L130.91 -10.52L130.91 -10.52Q132.84 -10.52 134.27 -10.94L134.27 -10.94L134.27 -10.94Q135.69 -11.36 137.86 -12.59L137.86 -12.59L140.19 -8.30L140.19 -8.30Q137.06 -6.64 135.18 -6.13L135.18 -6.13L135.18 -6.13Q133.30 -5.63 130.97 -5.63L130.97 -5.63L130.97 -5.63Q126.09 -5.63 122.33 -8.35L122.33 -8.35L122.33 -8.35Q118.56 -11.08 115.55 -17.30L115.55 -17.30L115.55 -17.30Q111.19 -11.53 107.20 -9.08L107.20 -9.08L107.20 -9.08Q103.94 -12.88 102.22 -16.48L102.22 -16.48L102.22 -16.48Q99.38 -11.25 95.16 -8.44L95.16 -8.44L95.16 -8.44Q90.94 -5.63 85.97 -5.63ZM93.39 -30.59L93.39 -30.59L93.39 -30.59Q88.55 -30.59 84.41 -32.09L84.41 -32.09L84.41 -32.09Q80.28 -33.58 75.33 -37.23L75.33 -37.23L78.03 -41.28L78.03 -41.28Q82.53 -38.05 85.85 -36.78L85.85 -36.78L85.85 -36.78Q89.17 -35.52 93.53 -35.52L93.53 -35.52L93.53 -35.52Q100.22 -35.52 109.70 -38.67L109.70 -38.67L109.70 -38.67Q118.98 -41.70 125.20 -41.70L125.20 -41.70L125.20 -41.70Q130.06 -41.70 134.21 -40.20L134.21 -40.20L134.21 -40.20Q138.36 -38.70 143.42 -35.05L143.42 -35.05L140.39 -31.19L140.39 -31.19Q135.86 -34.53 132.27 -35.67L132.27 -35.67L132.27 -35.67Q128.69 -36.81 124.27 -36.81L124.27 -36.81L124.27 -36.81Q120.33 -36.81 114.20 -34.91L114.20 -34.91L114.20 -34.91Q105.31 -32.14 101.11 -31.37L101.11 -31.37L101.11 -31.37Q96.91 -30.59 93.39 -30.59ZM155.81 -38.47L153.77 -43.00L153.77 -43.00Q156.83 -44.41 159.54 -45.02L159.54 -45.02L159.54 -45.02Q162.25 -45.64 166.33 -45.64L166.33 -45.64L166.33 -45.64Q172.66 -45.64 176.17 -42.86L176.17 -42.86L176.17 -42.86Q179.69 -40.08 179.69 -35.19L179.69 -35.19L179.69 -35.19Q179.69 -28.48 173.36 -25.63L173.36 -25.63L173.36 -25.63Q176.80 -24.69 178.92 -21.70L178.92 -21.70L178.92 -21.70Q181.05 -18.70 181.05 -14.63L181.05 -14.63L181.05 -14.63Q181.05 -7.84 176.22 -3.92L176.22 -3.92L176.22 -3.92Q171.39 0.00 163.52 0.00L163.52 0.00L163.52 0.00Q159.64 0.00 156.35 -0.53L156.35 -0.53L156.35 -0.53Q153.06 -1.06 149.45 -2.39L149.45 -2.39L151.28 -7.06L151.28 -7.06Q153.34 -6.13 156.76 -5.51L156.76 -5.51L156.76 -5.51Q160.17 -4.89 163.44 -4.89L163.44 -4.89L163.44 -4.89Q167.13 -4.89 169.85 -6.16L169.85 -6.16L169.85 -6.16Q172.58 -7.42 174.09 -9.66L174.09 -9.66L174.09 -9.66Q175.61 -11.89 175.61 -14.56L175.61 -14.56L175.61 -14.56Q175.61 -18.28 173.04 -20.34L173.04 -20.34L173.04 -20.34Q170.47 -22.39 165.23 -22.39L165.23 -22.39L160.28 -22.39L160.28 -27.28L163.58 -27.28L163.58 -27.28Q168.33 -27.28 171.24 -29.39L171.24 -29.39L171.24 -29.39Q174.16 -31.50 174.16 -34.91L174.16 -34.91L174.16 -34.91Q174.16 -37.69 171.96 -39.22L171.96 -39.22L171.96 -39.22Q169.77 -40.75 166.00 -40.75L166.00 -40.75L166.00 -40.75Q163.47 -40.75 160.68 -40.12L160.68 -40.12L160.68 -40.12Q157.89 -39.48 155.81 -38.47L155.81 -38.47ZM238.52 -17.94L238.52 -17.94L238.52 -17.94Q242.23 -17.94 245.37 -17.11L245.37 -17.11L245.37 -17.11Q248.50 -16.28 252.19 -14.34L252.19 -14.34L249.94 -9.95L249.94 -9.95Q246.45 -11.75 244.05 -12.40L244.05 -12.40L244.05 -12.40Q241.64 -13.05 238.80 -13.05L238.80 -13.05L238.80 -13.05Q237.00 -13.05 234.57 -12.43L234.57 -12.43L234.57 -12.43Q232.14 -11.81 230.88 -11.22L230.88 -11.22L211.94 -3.31L211.94 -3.31Q207.64 -1.52 203.22 -1.52L203.22 -1.52L203.22 -1.52Q199.34 -1.52 196.04 -2.84L196.04 -2.84L196.04 -2.84Q192.73 -4.16 188.66 -7.63L188.66 -7.63L191.86 -11.47L191.86 -11.47Q194.59 -8.83 197.29 -7.62L197.29 -7.62L197.29 -7.62Q199.98 -6.41 203.36 -6.41L203.36 -6.41L203.36 -6.41Q206.80 -6.41 210.00 -7.77L210.00 -7.77L218.05 -11.14L218.05 -31.47L211.94 -28.94L211.94 -28.94Q207.64 -27.14 203.22 -27.14L203.22 -27.14L203.22 -27.14Q199.34 -27.14 196.04 -28.46L196.04 -28.46L196.04 -28.46Q192.73 -29.78 188.66 -33.27L188.66 -33.27L191.86 -37.09L191.86 -37.09Q194.59 -34.45 197.29 -33.24L197.29 -33.24L197.29 -33.24Q199.98 -32.03 203.36 -32.03L203.36 -32.03L203.36 -32.03Q206.80 -32.03 210.00 -33.41L210.00 -33.41L228.91 -41.34L228.91 -41.34Q231.06 -42.27 233.71 -42.91L233.71 -42.91L233.71 -42.91Q236.36 -43.56 238.52 -43.56L238.52 -43.56L238.52 -43.56Q242.23 -43.56 245.37 -42.73L245.37 -42.73L245.37 -42.73Q248.50 -41.91 252.19 -39.97L252.19 -39.97L249.94 -35.58L249.94 -35.58Q246.45 -37.38 244.05 -38.02L244.05 -38.02L244.05 -38.02Q241.64 -38.67 238.80 -38.67L238.80 -38.67L238.80 -38.67Q235.48 -38.67 230.88 -36.88L230.88 -36.88L223.61 -33.78L223.61 -13.47L228.91 -15.69L228.91 -15.69Q234.33 -17.94 238.52 -17.94ZM265.81 -38.47L263.77 -43.00L263.77 -43.00Q266.83 -44.41 269.54 -45.02L269.54 -45.02L269.54 -45.02Q272.25 -45.64 276.33 -45.64L276.33 -45.64L276.33 -45.64Q283.92 -45.64 287.39 -41.63L287.39 -41.63L287.39 -41.63Q290.67 -43.56 294.61 -43.56L294.61 -43.56L294.61 -43.56Q300.33 -43.56 302.90 -39.26L302.90 -39.26L302.90 -39.26Q305.47 -34.95 305.47 -25.28L305.47 -25.28L305.47 -14.91L305.47 -14.91Q305.47 -10.13 306.26 -8.31L306.26 -8.31L306.26 -8.31Q307.05 -6.50 308.91 -5.70L308.91 -5.70L308.91 -5.70Q310.78 -4.89 314.39 -4.89L314.39 -4.89L314.39 0.00L313.66 0.00L313.66 0.00Q308.59 0.00 305.61 -1.52L305.61 -1.52L305.61 -1.52Q302.63 -3.03 301.27 -6.02L301.27 -6.02L301.27 -6.02Q299.91 -9.00 299.91 -14.91L299.91 -14.91L299.91 -25.28L299.91 -25.28Q299.91 -32.38 298.57 -35.52L298.57 -35.52L298.57 -35.52Q297.23 -38.67 293.94 -38.67L293.94 -38.67L293.94 -38.67Q291.86 -38.67 289.47 -37.44L289.47 -37.44L289.47 -37.44Q289.69 -36.31 289.69 -35.19L289.69 -35.19L289.69 -35.19Q289.69 -28.48 283.36 -25.63L283.36 -25.63L283.36 -25.63Q286.80 -24.69 288.92 -21.70L288.92 -21.70L288.92 -21.70Q291.05 -18.70 291.05 -14.63L291.05 -14.63L291.05 -14.63Q291.05 -7.84 286.22 -3.92L286.22 -3.92L286.22 -3.92Q281.39 0.00 273.52 0.00L273.52 0.00L273.52 0.00Q269.64 0.00 266.35 -0.53L266.35 -0.53L266.35 -0.53Q263.06 -1.06 259.45 -2.39L259.45 -2.39L261.28 -7.06L261.28 -7.06Q263.34 -6.13 266.76 -5.51L266.76 -5.51L266.76 -5.51Q270.17 -4.89 273.44 -4.89L273.44 -4.89L273.44 -4.89Q277.13 -4.89 279.85 -6.16L279.85 -6.16L279.85 -6.16Q282.58 -7.42 284.09 -9.66L284.09 -9.66L284.09 -9.66Q285.61 -11.89 285.61 -14.56L285.61 -14.56L285.61 -14.56Q285.61 -18.28 283.04 -20.34L283.04 -20.34L283.04 -20.34Q280.47 -22.39 275.23 -22.39L275.23 -22.39L270.28 -22.39L270.28 -27.28L273.58 -27.28L273.58 -27.28Q278.33 -27.28 281.24 -29.39L281.24 -29.39L281.24 -29.39Q284.16 -31.50 284.16 -34.91L284.16 -34.91L284.16 -34.91Q284.16 -37.69 281.96 -39.22L281.96 -39.22L281.96 -39.22Q279.77 -40.75 276.00 -40.75L276.00 -40.75L276.00 -40.75Q273.47 -40.75 270.68 -40.12L270.68 -40.12L270.68 -40.12Q267.89 -39.48 265.81 -38.47L265.81 -38.47ZM353.72 -23.42L353.72 -23.42L353.72 -23.42Q356.64 -23.42 358.61 -24.31L358.61 -24.31L358.61 -24.31Q360.58 -25.20 362.94 -27.42L362.94 -27.42L362.94 -27.42Q366.00 -30.17 368.30 -31.23L368.30 -31.23L368.30 -31.23Q370.59 -32.28 373.38 -32.28L373.38 -32.28L373.38 -32.28Q378.61 -32.28 381.76 -28.99L381.76 -28.99L381.76 -28.99Q384.91 -25.70 384.91 -20.39L384.91 -20.39L384.91 -20.39Q384.91 -14.14 380.84 -9.78L380.84 -9.78L380.84 -9.78Q376.78 -5.42 369.66 -4.11L369.66 -4.11L368.42 -8.72L368.42 -8.72Q373.80 -9.98 376.75 -13.02L376.75 -13.02L376.75 -13.02Q379.70 -16.06 379.70 -20.47L379.70 -20.47L379.70 -20.47Q379.70 -23.52 377.91 -25.44L377.91 -25.44L377.91 -25.44Q376.13 -27.36 373.38 -27.36L373.38 -27.36L373.38 -27.36Q371.34 -27.36 369.84 -26.56L369.84 -26.56L369.84 -26.56Q368.34 -25.77 366.48 -23.84L366.48 -23.84L366.48 -23.84Q363.67 -21.03 360.59 -19.77L360.59 -19.77L360.59 -19.77Q357.52 -18.50 353.72 -18.50L353.72 -18.50L353.72 -18.50Q353.38 -14.34 351.48 -11.16L351.48 -11.16L351.48 -11.16Q349.58 -7.98 346.55 -6.30L346.55 -6.30L346.55 -6.30Q343.53 -4.61 339.91 -4.61L339.91 -4.61L339.91 -4.61Q336.64 -4.61 333.61 -5.38L333.61 -5.38L333.61 -5.38Q330.59 -6.13 328.91 -6.13L328.91 -6.13L328.91 -6.13Q327.47 -6.13 326.81 -5.26L326.81 -5.26L326.81 -5.26Q326.16 -4.39 326.16 -3.17L326.16 -3.17L326.16 -3.17Q326.16 -1.66 326.80 0.00L326.80 0.00L321.70 0.00L321.70 0.00Q320.95 -1.86 320.95 -4.05L320.95 -4.05L320.95 -4.05Q320.95 -7.11 323.05 -9.05L323.05 -9.05L323.05 -9.05Q325.14 -11.00 328.66 -11.00L328.66 -11.00L328.66 -11.00Q331.27 -11.00 334.42 -10.27L334.42 -10.27L334.42 -10.27Q337.55 -9.50 339.56 -9.50L339.56 -9.50L339.56 -9.50Q348.17 -9.50 348.17 -20.75L348.17 -20.75L348.17 -20.75Q348.17 -26.27 346.30 -29.08L346.30 -29.08L346.30 -29.08Q344.44 -31.89 340.33 -31.89L340.33 -31.89L340.33 -31.89Q337.09 -31.89 333.94 -30.27L333.94 -30.27L333.94 -30.27Q330.73 -28.66 327.61 -28.66L327.61 -28.66L327.61 -28.66Q323.88 -28.66 321.80 -30.64L321.80 -30.64L321.80 -30.64Q319.73 -32.63 319.73 -36.08L319.73 -36.08L319.73 -36.08Q319.73 -38.61 321.37 -40.82L321.37 -40.82L321.37 -40.82Q323.00 -43.03 327.61 -46.16L327.61 -46.16L330.34 -42.05L330.34 -42.05Q326.80 -39.77 325.87 -38.66L325.87 -38.66L325.87 -38.66Q324.94 -37.55 324.94 -36.22L324.94 -36.22L324.94 -36.22Q324.94 -33.55 328.23 -33.55L328.23 -33.55L328.23 -33.55Q329.61 -33.55 332.34 -34.91L332.34 -34.91L332.34 -34.91Q335.97 -36.81 339.91 -36.81L339.91 -36.81L339.91 -36.81Q345.92 -36.81 349.51 -33.35L349.51 -33.35L349.51 -33.35Q353.09 -29.89 353.72 -23.42ZM404.92 0.00L399.23 0.00L399.23 0.00Q400.50 -10.83 406.44 -20.95L406.44 -20.95L406.44 -20.95Q403.59 -19.66 401.09 -19.66L401.09 -19.66L401.09 -19.66Q397.80 -19.66 395.84 -21.54L395.84 -21.54L395.84 -21.54Q393.89 -23.42 393.89 -26.52L393.89 -26.52L393.89 -26.52Q393.89 -29.81 396.20 -32.42L396.20 -32.42L399.94 -29.22L399.94 -29.22Q398.81 -27.88 398.81 -26.72L398.81 -26.72L398.81 -26.72Q398.81 -24.55 401.45 -24.55L401.45 -24.55L401.45 -24.55Q406.52 -24.55 415.80 -32.98L415.80 -32.98L415.80 -32.98Q429.36 -45.42 445.00 -45.42L445.00 -45.42L445.00 -45.42Q451.75 -45.42 456.89 -43.06L456.89 -43.06L454.81 -38.61L454.81 -38.61Q450.48 -40.53 445.00 -40.53L445.00 -40.53L445.00 -40.53Q438.47 -40.53 431.51 -37.44L431.51 -37.44L431.51 -37.44Q424.55 -34.34 418.99 -28.93L418.99 -28.93L418.99 -28.93Q413.44 -23.52 409.81 -16.16L409.81 -16.16L409.81 -16.16Q406.19 -8.80 404.92 0.00L404.92 0.00ZM479.95 -10.66L479.95 -10.66L479.95 -10.66Q483.92 -10.66 487.84 -11.38L487.84 -11.38L487.84 -11.38Q491.77 -12.09 496.94 -13.67L496.94 -13.67L496.94 -13.67Q503.44 -15.58 506.59 -16.14L506.59 -16.14L506.59 -16.14Q509.73 -16.70 512.58 -16.70L512.58 -16.70L512.58 -16.70Q517.44 -16.70 521.69 -15.17L521.69 -15.17L521.69 -15.17Q525.94 -13.64 530.80 -10.09L530.80 -10.09L527.77 -6.19L527.77 -6.19Q523.30 -9.50 519.80 -10.66L519.80 -10.66L519.80 -10.66Q516.31 -11.81 511.63 -11.81L511.63 -11.81L511.63 -11.81Q507.69 -11.81 501.75 -9.98L501.75 -9.98L501.75 -9.98Q498.31 -8.94 493.58 -7.70L493.58 -7.70L493.58 -7.70Q488.84 -6.47 485.73 -6.12L485.73 -6.12L485.73 -6.12Q482.63 -5.77 479.89 -5.77L479.89 -5.77L479.89 -5.77Q473.42 -5.77 469.60 -9.16L469.60 -9.16L469.60 -9.16Q465.78 -12.55 465.78 -18.08L465.78 -18.08L465.78 -18.08Q465.78 -22.47 467.61 -25.98L467.61 -25.98L467.61 -25.98Q469.44 -29.50 472.11 -31.95L472.11 -31.95L472.11 -31.95Q467.38 -33.72 462.66 -37.23L462.66 -37.23L465.41 -41.28L465.41 -41.28Q469.91 -38.05 473.23 -36.78L473.23 -36.78L473.23 -36.78Q476.55 -35.52 480.91 -35.52L480.91 -35.52L480.91 -35.52Q487.58 -35.52 497.08 -38.67L497.08 -38.67L497.08 -38.67Q506.36 -41.70 512.58 -41.70L512.58 -41.70L512.58 -41.70Q517.44 -41.70 521.66 -40.19L521.66 -40.19L521.66 -40.19Q525.88 -38.67 530.80 -35.05L530.80 -35.05L527.77 -31.19L527.77 -31.19Q523.23 -34.53 519.65 -35.67L519.65 -35.67L519.65 -35.67Q516.06 -36.81 511.63 -36.81L511.63 -36.81L511.63 -36.81Q507.69 -36.81 501.58 -34.91L501.58 -34.91L501.58 -34.91Q492.69 -32.14 488.48 -31.37L488.48 -31.37L488.48 -31.37Q484.28 -30.59 480.73 -30.59L480.73 -30.59L480.73 -30.59Q479.19 -30.59 477.70 -30.73L477.70 -30.73L477.70 -30.73Q474.92 -28.77 473.12 -25.58L473.12 -25.58L473.12 -25.58Q471.31 -22.39 471.31 -18.22L471.31 -18.22L471.31 -18.22Q471.31 -14.77 473.47 -12.71L473.47 -12.71L473.47 -12.71Q475.63 -10.66 479.95 -10.66Z"/></svg>