<svg xmlns="http://www.w3.org/2000/svg" viewBox="0 -62.86 303.55 62.86" height="100%"><path fill="currentColor" d="M11.52 0.36L11.52 0.36L11.52 0.36Q10.08 0.36 8.39 -0.18L8.39 -0.18L8.39 -0.18Q6.70 -0.72 5.47 -2.16L5.47 -2.16L5.47 -2.16Q4.25 -3.60 4.25 -6.34L4.25 -6.34L4.25 -6.34Q4.25 -8.57 5.51 -10.80L5.51 -10.80L5.51 -10.80Q6.77 -13.03 9.22 -14.90L9.22 -14.90L9.22 -14.90Q11.66 -16.78 15.12 -18.47L15.12 -18.47L15.12 -18.47Q18.58 -20.16 22.39 -21.46L22.39 -21.46L22.39 -21.46Q26.21 -22.75 29.77 -23.51L29.77 -23.51L29.77 -23.51Q33.34 -24.26 36.07 -24.26L36.07 -24.26L36.07 -24.26Q40.75 -24.26 44.14 -22.10L44.14 -22.10L44.14 -22.10Q47.52 -19.94 49.36 -16.16L49.36 -16.16L49.36 -16.16Q51.19 -12.38 51.19 -7.49L51.19 -7.49L51.19 -7.49Q51.19 -3.31 47.81 -1.73L47.81 -1.73L47.81 -1.73Q44.42 -0.14 38.59 0.00L38.59 0.00L38.59 0.00Q36.94 0.00 34.27 0.04L34.27 0.04L34.27 0.04Q31.61 0.07 28.40 0.14L28.40 0.14L28.40 0.14Q25.20 0.22 22.00 0.25L22.00 0.25L22.00 0.25Q18.79 0.29 16.02 0.32L16.02 0.32L16.02 0.32Q13.25 0.36 11.52 0.36ZM12.60 -5.11L12.60 -5.11L12.60 -5.11Q13.32 -5.11 15.52 -5.15L15.52 -5.15L15.52 -5.15Q17.71 -5.18 20.81 -5.22L20.81 -5.22L20.81 -5.22Q23.90 -5.26 27.40 -5.29L27.40 -5.29L27.40 -5.29Q30.89 -5.33 34.20 -5.36L34.20 -5.36L34.20 -5.36Q37.51 -5.40 40.10 -5.47L40.10 -5.47L40.10 -5.47Q41.04 -5.47 42.34 -5.65L42.34 -5.65L42.34 -5.65Q43.63 -5.83 44.60 -6.52L44.60 -6.52L44.60 -6.52Q45.58 -7.20 45.58 -8.71L45.58 -8.71L45.58 -8.71Q45.58 -9.58 45.40 -10.37L45.40 -10.37L45.40 -10.37Q45.22 -11.16 45.00 -11.88L45.00 -11.88L45.00 -11.88Q43.78 -15.70 41.22 -17.35L41.22 -17.35L41.22 -17.35Q38.66 -19.01 35.28 -19.01L35.28 -19.01L35.28 -19.01Q33.41 -19.01 30.24 -18.22L30.24 -18.22L30.24 -18.22Q27.07 -17.42 23.47 -16.16L23.47 -16.16L23.47 -16.16Q19.87 -14.90 16.74 -13.43L16.74 -13.43L16.74 -13.43Q13.61 -11.95 11.81 -10.58L11.81 -10.58L11.81 -10.58Q10.87 -9.86 10.22 -9.11L10.22 -9.11L10.22 -9.11Q9.58 -8.35 9.58 -7.42L9.58 -7.42L9.58 -7.42Q9.58 -5.11 12.60 -5.11ZM67.59 11.45L62.34 11.45L62.34 -49.97L67.59 -49.97L67.59 -8.78L67.59 -8.78Q67.59 -7.20 69.03 -6.52L69.03 -6.52L69.03 -6.52Q70.47 -5.83 72.34 -5.65L72.34 -5.65L72.34 -5.65Q74.22 -5.47 75.51 -5.47L75.51 -5.47L75.51 0.00L75.51 0.00Q72.56 0.00 70.65 -0.72L70.65 -0.72L70.65 -0.72Q68.74 -1.44 67.59 -2.66L67.59 -2.66L67.59 11.45ZM96.59 0.00L76.00 0.00L76.00 0.00Q74.85 0.00 74.02 -0.72L74.02 -0.72L74.02 -0.72Q73.19 -1.44 73.19 -2.74L73.19 -2.74L73.19 -2.74Q73.19 -4.03 74.02 -4.75L74.02 -4.75L74.02 -4.75Q74.85 -5.47 76.00 -5.47L76.00 -5.47L83.78 -5.47L83.78 -22.39L89.03 -22.39L89.03 -5.47L96.59 -5.47L96.59 0.00ZM99.09 0.00L97.00 0.00L97.00 0.00Q95.85 0.00 94.98 -0.72L94.98 -0.72L94.98 -0.72Q94.12 -1.44 94.12 -2.74L94.12 -2.74L94.12 -2.74Q94.12 -4.03 94.98 -4.75L94.98 -4.75L94.98 -4.75Q95.85 -5.47 97.00 -5.47L97.00 -5.47L99.81 -5.47L99.81 -5.47Q103.48 -5.47 105.32 -6.55L105.32 -6.55L105.32 -6.55Q107.15 -7.63 107.80 -9.47L107.80 -9.47L107.80 -9.47Q108.45 -11.30 108.45 -13.54L108.45 -13.54L113.34 -14.11L113.34 -14.11Q113.42 -13.75 113.42 -13.32L113.42 -13.32L113.42 -13.32Q113.42 -12.89 113.42 -12.53L113.42 -12.53L113.42 -12.53Q113.42 -11.02 113.20 -9.72L113.20 -9.72L113.20 -9.72Q113.56 -7.49 115.07 -6.48L115.07 -6.48L115.07 -6.48Q116.58 -5.47 118.24 -5.47L118.24 -5.47L118.24 -5.47Q121.91 -5.47 123.28 -7.88L123.28 -7.88L123.28 -7.88Q124.65 -10.30 124.72 -13.90L124.72 -13.90L129.62 -14.47L129.62 -14.47Q129.69 -14.11 129.69 -13.50L129.69 -13.50L129.69 -13.50Q129.69 -12.89 129.69 -12.53L129.69 -12.53L129.69 -12.53Q129.69 -10.87 129.40 -9.65L129.40 -9.65L129.40 -9.65Q129.90 -7.63 132.17 -6.55L132.17 -6.55L132.17 -6.55Q134.44 -5.47 137.68 -5.47L137.68 -5.47L138.98 -5.47L138.98 0.00L137.54 0.00L137.54 0.00Q133.14 0.00 130.62 -1.30L130.62 -1.30L130.62 -1.30Q128.10 -2.59 126.95 -4.46L126.95 -4.46L126.95 -4.46Q125.58 -2.45 123.50 -1.22L123.50 -1.22L123.50 -1.22Q121.41 0.00 118.53 0.00L118.53 0.00L118.53 0.00Q115.43 0.00 113.52 -1.22L113.52 -1.22L113.52 -1.22Q111.62 -2.45 110.46 -4.25L110.46 -4.25L110.46 -4.25Q108.95 -2.30 106.14 -1.15L106.14 -1.15L106.14 -1.15Q103.34 0.00 99.09 0.00L99.09 0.00ZM178.96 0.00L139.00 0.00L139.00 0.00Q137.85 0.00 136.98 -0.72L136.98 -0.72L136.98 -0.72Q136.12 -1.44 136.12 -2.74L136.12 -2.74L136.12 -2.74Q136.12 -4.03 136.98 -4.75L136.98 -4.75L136.98 -4.75Q137.85 -5.47 139.00 -5.47L139.00 -5.47L166.14 -5.47L166.14 -17.06L145.62 -17.06L145.62 -35.50L150.88 -35.50L150.88 -22.39L166.14 -22.39L166.14 -35.50L171.47 -35.50L171.47 -5.47L178.96 -5.47L178.96 0.00ZM214.42 0.00L179.00 0.00L179.00 0.00Q177.85 0.00 176.98 -0.72L176.98 -0.72L176.98 -0.72Q176.12 -1.44 176.12 -2.74L176.12 -2.74L176.12 -2.74Q176.12 -4.03 176.98 -4.75L176.98 -4.75L176.98 -4.75Q177.85 -5.47 179.00 -5.47L179.00 -5.47L202.98 -5.47L202.98 -5.47Q200.38 -8.64 197.50 -12.35L197.50 -12.35L197.50 -12.35Q194.62 -16.06 192.10 -20.16L192.10 -20.16L192.10 -20.16Q189.58 -24.26 188.00 -28.62L188.00 -28.62L188.00 -28.62Q186.42 -32.98 186.42 -37.44L186.42 -37.44L186.42 -37.44Q186.42 -39.74 187.10 -42.16L187.10 -42.16L187.10 -42.16Q187.78 -44.57 189.15 -46.69L189.15 -46.69L189.15 -46.69Q190.52 -48.82 192.68 -50.11L192.68 -50.11L192.68 -50.11Q194.84 -51.41 197.86 -51.41L197.86 -51.41L197.86 -51.41Q201.32 -51.41 203.70 -49.75L203.70 -49.75L203.70 -49.75Q206.07 -48.10 207.33 -45.43L207.33 -45.43L207.33 -45.43Q208.59 -42.77 208.59 -39.89L208.59 -39.89L208.59 -39.89Q208.59 -35.57 205.60 -32.90L205.60 -32.90L205.60 -32.90Q202.62 -30.24 196.35 -30.24L196.35 -30.24L196.35 -30.24Q195.63 -30.24 194.66 -30.31L194.66 -30.31L194.66 -30.31Q193.69 -30.38 192.90 -30.46L192.90 -30.46L192.90 -30.46Q193.83 -27.58 195.92 -24.12L195.92 -24.12L195.92 -24.12Q198.01 -20.66 200.56 -17.17L200.56 -17.17L200.56 -17.17Q203.12 -13.68 205.68 -10.62L205.68 -10.62L205.68 -10.62Q208.23 -7.56 210.18 -5.47L210.18 -5.47L214.42 -5.47L214.42 0.00ZM195.85 -35.06L195.85 -35.06L195.85 -35.06Q200.10 -35.06 201.75 -36.58L201.75 -36.58L201.75 -36.58Q203.41 -38.09 203.41 -40.10L203.41 -40.10L203.41 -40.10Q203.41 -42.62 201.97 -44.46L201.97 -44.46L201.97 -44.46Q200.53 -46.30 197.86 -46.30L197.86 -46.30L197.86 -46.30Q194.98 -46.30 193.36 -43.74L193.36 -43.74L193.36 -43.74Q191.74 -41.18 191.74 -37.80L191.74 -37.80L191.74 -37.80Q191.74 -36.36 191.96 -35.50L191.96 -35.50L191.96 -35.50Q192.82 -35.21 194.12 -35.14L194.12 -35.14L194.12 -35.14Q195.42 -35.06 195.85 -35.06ZM266.34 0.00L214.00 0.00L214.00 0.00Q212.85 0.00 211.98 -0.72L211.98 -0.72L211.98 -0.72Q211.12 -1.44 211.12 -2.74L211.12 -2.74L211.12 -2.74Q211.12 -4.03 211.98 -4.75L211.98 -4.75L211.98 -4.75Q212.85 -5.47 214.00 -5.47L214.00 -5.47L238.70 -5.47L238.70 -17.06L219.83 -17.06L219.83 -21.53L219.83 -21.53Q220.70 -22.32 222.17 -23.94L222.17 -23.94L222.17 -23.94Q223.65 -25.56 224.80 -26.93L224.80 -26.93L232.43 -35.86L236.39 -33.26L231.93 -28.01L231.93 -28.01Q231.14 -27.07 229.59 -25.34L229.59 -25.34L229.59 -25.34Q228.04 -23.62 226.46 -22.39L226.46 -22.39L245.10 -22.39L245.10 -22.39Q249.86 -22.39 252.52 -22.90L252.52 -22.90L252.52 -22.90Q255.18 -23.40 256.26 -24.80L256.26 -24.80L256.26 -24.80Q257.34 -26.21 257.34 -28.87L257.34 -28.87L257.34 -28.87Q257.34 -29.81 257.27 -31.25L257.27 -31.25L257.27 -31.25Q257.20 -32.69 256.91 -34.63L256.91 -34.63L261.88 -36.00L261.88 -36.00Q262.17 -34.85 262.35 -32.83L262.35 -32.83L262.35 -32.83Q262.53 -30.82 262.53 -29.45L262.53 -29.45L262.53 -29.45Q262.53 -23.26 259.00 -20.16L259.00 -20.16L259.00 -20.16Q255.47 -17.06 246.76 -17.06L246.76 -17.06L244.02 -17.06L244.02 -5.47L266.34 -5.47L266.34 0.00ZM289.30 3.31L289.30 3.31L289.30 3.31Q282.17 3.31 278.53 0.00L278.53 0.00L278.53 0.00Q274.90 -3.31 274.90 -8.50L274.90 -8.50L274.90 -8.50Q274.90 -12.53 276.77 -15.95L276.77 -15.95L276.77 -15.95Q278.64 -19.37 282.02 -21.49L282.02 -21.49L282.02 -21.49Q285.41 -23.62 289.87 -23.62L289.87 -23.62L289.87 -23.62Q294.19 -23.62 297.25 -21.64L297.25 -21.64L297.25 -21.64Q300.31 -19.66 301.93 -16.45L301.93 -16.45L301.93 -16.45Q303.55 -13.25 303.55 -9.58L303.55 -9.58L303.55 -9.58Q303.55 -5.76 301.72 -2.84L301.72 -2.84L301.72 -2.84Q299.88 0.07 296.68 1.69L296.68 1.69L296.68 1.69Q293.47 3.31 289.30 3.31ZM289.30 -2.16L289.30 -2.16L289.30 -2.16Q292.97 -2.16 295.70 -3.85L295.70 -3.85L295.70 -3.85Q298.44 -5.54 298.44 -9.58L298.44 -9.58L298.44 -9.58Q298.44 -13.54 296.03 -15.95L296.03 -15.95L296.03 -15.95Q293.62 -18.36 289.87 -18.36L289.87 -18.36L289.87 -18.36Q287.21 -18.36 284.98 -17.10L284.98 -17.10L284.98 -17.10Q282.74 -15.84 281.41 -13.75L281.41 -13.75L281.41 -13.75Q280.08 -11.66 280.08 -9.22L280.08 -9.22L280.08 -9.22Q280.08 -5.47 282.60 -3.82L282.60 -3.82L282.60 -3.82Q285.12 -2.16 289.30 -2.16Z"/></svg>