<svg xmlns="http://www.w3.org/2000/svg" viewBox="0 -62.92 387.73 62.92" height="100%"><path fill="currentColor" d="M38.70 -1.44L41.56 -5.56L41.56 -5.56Q44.09 -4.16 46.83 -4.16L46.83 -4.16L46.83 -4.16Q51.61 -4.16 54.42 -8.38L54.42 -8.38L54.42 -8.38Q57.23 -12.59 57.23 -19.80L57.23 -19.80L57.23 -19.80Q57.23 -26.72 54.51 -30.59L54.51 -30.59L54.51 -30.59Q51.78 -34.45 46.86 -34.45L46.86 -34.45L46.86 -34.45Q42.97 -34.45 40.55 -31.47L40.55 -31.47L40.55 -31.47Q38.14 -28.48 37.80 -23.45L37.80 -23.45L37.80 -23.45Q38.19 -21.27 38.19 -18.92L38.19 -18.92L38.19 -18.92Q38.19 -12.55 35.25 -7.58L35.25 -7.58L35.25 -7.58Q32.31 -2.61 26.83 0.34L26.83 0.34L24.78 -4.36L24.78 -4.36Q28.09 -5.77 30.01 -9.55L30.01 -9.55L30.01 -9.55Q31.92 -13.33 31.92 -19.69L31.92 -19.69L31.92 -19.69Q31.92 -34.45 20.67 -34.45L20.67 -34.45L20.67 -34.45Q9.42 -34.45 9.42 -19.69L9.42 -19.69L9.42 -19.69Q9.42 -13.33 11.34 -9.55L11.34 -9.55L11.34 -9.55Q13.25 -5.77 16.56 -4.36L16.56 -4.36L14.52 0.34L14.52 0.34Q9.00 -2.61 6.09 -7.63L6.09 -7.63L6.09 -7.63Q3.17 -12.66 3.17 -18.92L3.17 -18.92L3.17 -18.92Q3.17 -24.83 5.38 -29.52L5.38 -29.52L5.38 -29.52Q7.59 -34.20 11.62 -36.76L11.62 -36.76L11.62 -36.76Q15.64 -39.31 20.67 -39.31L20.67 -39.31L20.67 -39.31Q29.19 -39.31 34.42 -32.00L34.42 -32.00L34.42 -32.00Q35.44 -34.03 37.55 -35.77L37.55 -35.77L37.55 -35.77Q39.66 -37.52 42.16 -38.41L42.16 -38.41L42.16 -38.41Q44.66 -39.31 47.11 -39.31L47.11 -39.31L47.11 -39.31Q51.92 -39.31 55.67 -37.01L55.67 -37.01L55.67 -37.01Q59.42 -34.70 61.46 -30.38L61.46 -30.38L61.46 -30.38Q63.50 -26.05 63.50 -20.22L63.50 -20.22L63.50 -20.22Q63.50 -13.75 61.46 -9.00L61.46 -9.00L61.46 -9.00Q59.42 -4.25 55.73 -1.77L55.73 -1.77L55.73 -1.77Q52.03 0.70 47.11 0.70L47.11 0.70L47.11 0.70Q42.44 0.70 38.70 -1.44L38.70 -1.44ZM101.77 0.70L96.36 1.75L96.36 1.75Q96.11 -1.55 95.38 -4.05L95.38 -4.05L95.38 -4.05Q90.52 0.70 84.09 0.70L84.09 0.70L84.09 0.70Q80.11 0.70 77.23 -0.44L77.23 -0.44L77.23 -0.44Q74.34 -1.58 72.77 -3.67L72.77 -3.67L72.77 -3.67Q71.19 -5.77 71.19 -8.27L71.19 -8.27L71.19 -8.27Q71.19 -11.11 72.68 -13.47L72.68 -13.47L72.68 -13.47Q74.17 -15.83 76.90 -17.16L76.90 -17.16L76.90 -17.16Q79.63 -18.50 83.17 -18.50L83.17 -18.50L83.17 -18.50Q90.20 -18.50 94.78 -14.56L94.78 -14.56L95.06 -14.31L95.06 -14.31Q95.63 -16.98 95.63 -20.42L95.63 -20.42L95.63 -20.42Q95.63 -27.17 92.63 -30.81L92.63 -30.81L92.63 -30.81Q89.64 -34.45 83.70 -34.45L83.70 -34.45L83.70 -34.45Q80.95 -34.45 78.48 -33.12L78.48 -33.12L78.48 -33.12Q76.00 -31.78 74.56 -29.50L74.56 -29.50L70.17 -32.03L70.17 -32.03Q72.28 -35.38 76.08 -37.34L76.08 -37.34L76.08 -37.34Q79.88 -39.31 84.33 -39.31L84.33 -39.31L84.33 -39.31Q92.39 -39.31 97.13 -34.25L97.13 -34.25L97.13 -34.25Q101.88 -29.19 101.88 -20.78L101.88 -20.78L101.88 -20.78Q101.88 -14.48 99.03 -9.00L99.03 -9.00L99.03 -9.00Q101.06 -4.92 101.77 0.70L101.77 0.70ZM84.05 -13.64L84.05 -13.64L84.05 -13.64Q80.53 -13.64 78.81 -12.29L78.81 -12.29L78.81 -12.29Q77.09 -10.94 77.09 -8.75L77.09 -8.75L77.09 -8.75Q77.09 -6.64 78.87 -5.40L78.87 -5.40L78.87 -5.40Q80.64 -4.16 84.41 -4.16L84.41 -4.16L84.41 -4.16Q87.28 -4.16 89.52 -5.44L89.52 -5.44L89.52 -5.44Q91.75 -6.72 93.05 -8.97L93.05 -8.97L93.05 -8.97Q91.44 -11.33 89.13 -12.48L89.13 -12.48L89.13 -12.48Q86.83 -13.64 84.05 -13.64ZM139.77 0.70L134.36 1.75L134.36 1.75Q134.11 -1.55 133.38 -4.05L133.38 -4.05L133.38 -4.05Q128.52 0.70 122.09 0.70L122.09 0.70L122.09 0.70Q118.11 0.70 115.23 -0.44L115.23 -0.44L115.23 -0.44Q112.34 -1.58 110.77 -3.67L110.77 -3.67L110.77 -3.67Q109.19 -5.77 109.19 -8.27L109.19 -8.27L109.19 -8.27Q109.19 -11.11 110.68 -13.47L110.68 -13.47L110.68 -13.47Q112.17 -15.83 114.90 -17.16L114.90 -17.16L114.90 -17.16Q117.63 -18.50 121.17 -18.50L121.17 -18.50L121.17 -18.50Q128.20 -18.50 132.78 -14.56L132.78 -14.56L133.06 -14.31L133.06 -14.31Q133.63 -16.98 133.63 -20.42L133.63 -20.42L133.63 -20.42Q133.63 -27.17 130.63 -30.81L130.63 -30.81L130.63 -30.81Q127.64 -34.45 121.70 -34.45L121.70 -34.45L121.70 -34.45Q119.06 -34.45 117.02 -33.13L117.02 -33.13L117.02 -33.13Q114.98 -31.81 114.39 -29.61L114.39 -29.61L108.17 -30.17L108.17 -30.17Q108.17 -61.17 125.56 -61.17L125.56 -61.17L125.56 -61.17Q133.58 -61.17 138.47 -54.98L138.47 -54.98L133.80 -51.36L133.80 -51.36Q132.56 -53.61 129.98 -54.97L129.98 -54.97L129.98 -54.97Q127.39 -56.33 124.66 -56.33L124.66 -56.33L124.66 -56.33Q121.98 -56.33 120.17 -55.43L120.17 -55.43L120.17 -55.43Q118.36 -54.53 117.09 -52.59L117.09 -52.59L117.09 -52.59Q115.83 -50.66 115.18 -47.42L115.18 -47.42L115.18 -47.42Q114.53 -44.19 114.39 -36.88L114.39 -36.88L114.39 -36.88Q118.05 -39.31 123.00 -39.31L123.00 -39.31L123.00 -39.31Q127.92 -39.31 131.77 -37.02L131.77 -37.02L131.77 -37.02Q135.63 -34.73 137.75 -30.48L137.75 -30.48L137.75 -30.48Q139.88 -26.23 139.88 -20.78L139.88 -20.78L139.88 -20.78Q139.88 -14.48 137.03 -9.00L137.03 -9.00L137.03 -9.00Q139.06 -4.92 139.77 0.70L139.77 0.70ZM122.05 -13.64L122.05 -13.64L122.05 -13.64Q118.53 -13.64 116.81 -12.29L116.81 -12.29L116.81 -12.29Q115.09 -10.94 115.09 -8.75L115.09 -8.75L115.09 -8.75Q115.09 -6.64 116.87 -5.40L116.87 -5.40L116.87 -5.40Q118.64 -4.16 122.41 -4.16L122.41 -4.16L122.41 -4.16Q125.28 -4.16 127.52 -5.44L127.52 -5.44L127.52 -5.44Q129.75 -6.72 131.05 -8.97L131.05 -8.97L131.05 -8.97Q129.44 -11.33 127.13 -12.48L127.13 -12.48L127.13 -12.48Q124.83 -13.64 122.05 -13.64ZM159.56 -4.36L157.52 0.34L157.52 0.34Q152.00 -2.61 149.09 -7.63L149.09 -7.63L149.09 -7.63Q146.17 -12.66 146.17 -18.92L146.17 -18.92L146.17 -18.92Q146.17 -24.69 148.51 -29.38L148.51 -29.38L148.51 -29.38Q150.84 -34.06 155.02 -36.69L155.02 -36.69L155.02 -36.69Q159.20 -39.31 164.38 -39.31L164.38 -39.31L164.38 -39.31Q169.44 -39.31 173.64 -36.64L173.64 -36.64L173.64 -36.64Q177.84 -33.97 180.22 -29.26L180.22 -29.26L180.22 -29.26Q182.59 -24.55 182.59 -18.92L182.59 -18.92L182.59 -18.92Q182.59 -12.55 179.66 -7.58L179.66 -7.58L179.66 -7.58Q176.72 -2.61 171.23 0.34L171.23 0.34L169.19 -4.36L169.19 -4.36Q172.50 -5.77 174.41 -9.55L174.41 -9.55L174.41 -9.55Q176.33 -13.33 176.33 -19.69L176.33 -19.69L176.33 -19.69Q176.33 -26.80 173.25 -30.63L173.25 -30.63L173.25 -30.63Q170.17 -34.45 164.38 -34.45L164.38 -34.45L164.38 -34.45Q158.55 -34.45 155.48 -30.60L155.48 -30.60L155.48 -30.60Q152.42 -26.75 152.42 -19.69L152.42 -19.69L152.42 -19.69Q152.42 -13.33 154.34 -9.55L154.34 -9.55L154.34 -9.55Q156.25 -5.77 159.56 -4.36L159.56 -4.36ZM202.84 -4.53L200.88 0.34L200.88 0.34Q194.94 -2.50 192.05 -8.32L192.05 -8.32L192.05 -8.32Q189.17 -14.14 189.17 -23.63L189.17 -23.63L189.17 -29.81L189.17 -29.81Q189.17 -39.27 191.63 -46.39L191.63 -46.39L191.63 -46.39Q194.09 -53.52 198.68 -57.34L198.68 -57.34L198.68 -57.34Q203.27 -61.17 209.38 -61.17L209.38 -61.17L209.38 -61.17Q217.39 -61.17 222.28 -54.98L222.28 -54.98L217.61 -51.36L217.61 -51.36Q216.38 -53.61 213.79 -54.97L213.79 -54.97L213.79 -54.97Q211.20 -56.33 208.47 -56.33L208.47 -56.33L208.47 -56.33Q202.45 -56.33 199.41 -51.55L199.41 -51.55L199.41 -51.55Q196.38 -46.77 195.70 -35.23L195.70 -35.23L195.70 -35.23Q200.52 -39.31 206.67 -39.31L206.67 -39.31L206.67 -39.31Q211.98 -39.31 216.16 -36.85L216.16 -36.85L216.16 -36.85Q220.34 -34.39 222.62 -29.85L222.62 -29.85L222.62 -29.85Q224.89 -25.31 224.89 -19.27L224.89 -19.27L224.89 -19.27Q224.89 -12.80 221.88 -7.63L221.88 -7.63L221.88 -7.63Q218.88 -2.47 213.53 0.34L213.53 0.34L211.48 -4.53L211.48 -4.53Q214.80 -5.94 216.71 -9.65L216.71 -9.65L216.71 -9.65Q218.63 -13.36 218.63 -19.69L218.63 -19.69L218.63 -19.69Q218.63 -26.80 215.55 -30.63L215.55 -30.63L215.55 -30.63Q212.47 -34.45 206.67 -34.45L206.67 -34.45L206.67 -34.45Q203.58 -34.45 200.95 -33.23L200.95 -33.23L200.95 -33.23Q198.31 -32.00 196.87 -29.89L196.87 -29.89L196.87 -29.89Q195.42 -27.78 195.42 -25.34L195.42 -25.34L195.42 -22.50L195.42 -22.50Q195.42 -16.95 196.16 -13.77L196.16 -13.77L196.16 -13.77Q196.91 -10.58 198.52 -8.30L198.52 -8.30L198.52 -8.30Q200.14 -6.02 202.84 -4.53L202.84 -4.53ZM276.83 -30.97L272.27 -33.78L272.27 -33.78Q274.38 -36.88 277.38 -38.09L277.38 -38.09L277.38 -38.09Q280.39 -39.31 284.00 -39.31L284.00 -39.31L284.00 -39.31Q288.44 -39.31 292.09 -36.94L292.09 -36.94L292.09 -36.94Q295.75 -34.56 297.82 -30.22L297.82 -30.22L297.82 -30.22Q299.89 -25.88 299.89 -19.80L299.89 -19.80L299.89 -19.80Q299.89 -13.53 297.73 -8.88L297.73 -8.88L297.73 -8.88Q295.58 -4.22 291.60 -1.76L291.60 -1.76L291.60 -1.76Q287.63 0.70 282.56 0.70L282.56 0.70L282.56 0.70Q273.73 0.70 268.53 -4.75L268.53 -4.75L268.53 -4.75Q267.23 -2.39 264.88 -0.84L264.88 -0.84L264.88 -0.84Q262.53 0.70 260.00 0.70L260.00 0.70L260.00 0.70Q254.27 0.70 252.19 -4.08L252.19 -4.08L252.19 -4.08Q251.03 -1.63 249.20 -0.46L249.20 -0.46L249.20 -0.46Q247.38 0.70 244.42 0.70L244.42 0.70L244.42 0.70Q239.39 0.70 236.14 -2.53L236.14 -2.53L236.14 -2.53Q232.89 -5.77 232.89 -10.83L232.89 -10.83L232.89 -10.83Q232.89 -13.08 234.09 -15.12L234.09 -15.12L234.09 -15.12Q235.28 -17.16 237.98 -19.66L237.98 -19.66L237.98 -19.66Q240.59 -22.11 241.82 -24.34L241.82 -24.34L241.82 -24.34Q243.05 -26.58 243.05 -29.08L243.05 -29.08L243.05 -29.08Q243.05 -34.73 238.20 -34.73L238.20 -34.73L238.20 -34.73Q236.89 -34.73 236.14 -34.16L236.14 -34.16L236.14 -34.16Q235.39 -33.58 235.39 -32.59L235.39 -32.59L235.39 -32.59Q235.39 -31.86 235.93 -31.16L235.93 -31.16L235.93 -31.16Q236.47 -30.45 237.25 -30.45L237.25 -30.45L237.42 -30.45L237.67 -30.48L237.31 -25.95L236.80 -25.88L236.30 -25.88L236.30 -25.88Q233.80 -25.88 231.95 -27.76L231.95 -27.76L231.95 -27.76Q230.11 -29.64 230.11 -32.20L230.11 -32.20L230.11 -32.20Q230.11 -35.27 232.43 -37.29L232.43 -37.29L232.43 -37.29Q234.75 -39.31 238.23 -39.31L238.23 -39.31L238.23 -39.31Q241.58 -39.31 244.00 -38.05L244.00 -38.05L244.00 -38.05Q246.42 -36.78 247.73 -34.53L247.73 -34.53L247.73 -34.53Q249.03 -32.28 249.03 -29.56L249.03 -29.56L249.03 -29.56Q249.03 -26.97 247.77 -24.54L247.77 -24.54L247.77 -24.54Q246.50 -22.11 244.11 -19.69L244.11 -19.69L244.11 -19.69Q241.47 -17.05 240.30 -15.10L240.30 -15.10L240.30 -15.10Q239.14 -13.16 239.14 -11.19L239.14 -11.19L239.14 -11.19Q239.14 -8.86 239.94 -7.33L239.94 -7.33L239.94 -7.33Q240.73 -5.80 242.00 -4.98L242.00 -4.98L242.00 -4.98Q243.27 -4.16 244.56 -4.16L244.56 -4.16L244.56 -4.16Q248.98 -4.16 249.91 -13.72L249.91 -13.72L254.52 -13.72L254.52 -13.72Q254.97 -8.86 256.25 -6.51L256.25 -6.51L256.25 -6.51Q257.53 -4.16 259.86 -4.16L259.86 -4.16L259.86 -4.16Q262.56 -4.16 264.13 -8.04L264.13 -8.04L264.13 -8.04Q265.69 -11.92 265.69 -18.81L265.69 -18.81L265.69 -18.81Q265.69 -24.47 263.86 -28.39L263.86 -28.39L263.86 -28.39Q262.03 -32.31 258.03 -34.95L258.03 -34.95L260.88 -39.31L260.88 -39.31Q266.33 -36.42 269.14 -31.20L269.14 -31.20L269.14 -31.20Q271.95 -25.98 271.95 -18.81L271.95 -18.81L271.95 -18.81Q271.95 -14.09 270.97 -10.55L270.97 -10.55L270.97 -10.55Q272.33 -7.95 275.76 -6.05L275.76 -6.05L275.76 -6.05Q279.19 -4.16 282.53 -4.16L282.53 -4.16L282.53 -4.16Q287.84 -4.16 290.74 -8.35L290.74 -8.35L290.74 -8.35Q293.64 -12.55 293.64 -19.86L293.64 -19.86L293.64 -19.86Q293.64 -26.75 290.83 -30.60L290.83 -30.60L290.83 -30.60Q288.02 -34.45 283.20 -34.45L283.20 -34.45L283.20 -34.45Q281.19 -34.45 279.52 -33.51L279.52 -33.51L279.52 -33.51Q277.86 -32.56 276.83 -30.97L276.83 -30.97ZM327.83 -6.05L329.97 -1.72L329.97 -1.72Q328.42 -0.67 325.08 0.02L325.08 0.02L325.08 0.02Q321.73 0.70 319.03 0.70L319.03 0.70L319.03 0.70Q313.20 0.70 309.69 -2.39L309.69 -2.39L309.69 -2.39Q306.17 -5.48 306.17 -10.80L306.17 -10.80L306.17 -10.80Q306.17 -13.39 308.03 -15.77L308.03 -15.77L308.03 -15.77Q309.89 -18.14 313.34 -19.66L313.34 -19.66L313.34 -19.66Q310.11 -20.81 308.14 -23.10L308.14 -23.10L308.14 -23.10Q306.17 -25.39 306.17 -28.09L306.17 -28.09L306.17 -28.09Q306.17 -33.05 311.07 -36.18L311.07 -36.18L311.07 -36.18Q315.97 -39.31 323.39 -39.31L323.39 -39.31L323.39 -39.31Q330.00 -39.31 334.98 -36.62L334.98 -36.62L334.98 -36.62Q339.95 -33.92 342.61 -28.97L342.61 -28.97L342.61 -28.97Q345.27 -24.02 345.27 -17.55L345.27 -17.55L345.27 -17.55Q345.27 -12.63 344.33 -7.52L344.33 -7.52L344.33 -7.52Q343.39 -2.42 341.89 0.70L341.89 0.70L337.00 -1.52L337.00 -1.52Q338.13 -5.73 338.56 -9.05L338.56 -9.05L338.56 -9.05Q339.00 -12.38 339.00 -17.41L339.00 -17.41L339.00 -17.41Q339.00 -25.42 334.94 -29.94L334.94 -29.94L334.94 -29.94Q330.88 -34.45 323.56 -34.45L323.56 -34.45L323.56 -34.45Q320.05 -34.45 317.54 -33.59L317.54 -33.59L317.54 -33.59Q315.03 -32.73 313.73 -31.24L313.73 -31.24L313.73 -31.24Q312.42 -29.75 312.42 -27.98L312.42 -27.98L312.42 -27.98Q312.42 -25.31 315.04 -23.55L315.04 -23.55L315.04 -23.55Q317.66 -21.80 322.34 -21.34L322.34 -21.34L322.34 -17.94L322.34 -17.94Q317.63 -17.47 315.02 -15.61L315.02 -15.61L315.02 -15.61Q312.42 -13.75 312.42 -10.77L312.42 -10.77L312.42 -10.77Q312.42 -7.56 314.41 -5.86L314.41 -5.86L314.41 -5.86Q316.39 -4.16 319.67 -4.16L319.67 -4.16L319.67 -4.16Q321.56 -4.16 324.04 -4.66L324.04 -4.66L324.04 -4.66Q326.52 -5.17 327.83 -6.05L327.83 -6.05ZM387.73 -19.69L387.73 -19.69L387.73 -19.69Q387.73 -13.89 385.39 -9.23L385.39 -9.23L385.39 -9.23Q383.05 -4.58 378.71 -1.94L378.71 -1.94L378.71 -1.94Q374.38 0.70 368.56 0.70L368.56 0.70L368.56 0.70Q360.27 0.70 355.72 -2.30L355.72 -2.30L355.72 -2.30Q351.17 -5.31 351.17 -10.80L351.17 -10.80L351.17 -10.80Q351.17 -13.39 353.03 -15.77L353.03 -15.77L353.03 -15.77Q354.89 -18.14 358.34 -19.66L358.34 -19.66L358.34 -19.66Q355.11 -20.81 353.14 -23.10L353.14 -23.10L353.14 -23.10Q351.17 -25.39 351.17 -28.09L351.17 -28.09L351.17 -28.09Q351.17 -33.16 355.79 -36.23L355.79 -36.23L355.79 -36.23Q360.41 -39.31 367.69 -39.31L367.69 -39.31L367.69 -39.31Q373.91 -39.31 378.45 -36.87L378.45 -36.87L378.45 -36.87Q382.98 -34.42 385.36 -29.94L385.36 -29.94L385.36 -29.94Q387.73 -25.45 387.73 -19.69ZM367.34 -21.34L367.34 -17.94L367.34 -17.94Q362.63 -17.47 360.02 -15.61L360.02 -15.61L360.02 -15.61Q357.42 -13.75 357.42 -10.77L357.42 -10.77L357.42 -10.77Q357.42 -7.34 360.15 -5.75L360.15 -5.75L360.15 -5.75Q362.88 -4.16 368.22 -4.16L368.22 -4.16L368.22 -4.16Q372.30 -4.16 375.27 -6.00L375.27 -6.00L375.27 -6.00Q378.23 -7.84 379.85 -11.46L379.85 -11.46L379.85 -11.46Q381.47 -15.08 381.47 -19.69L381.47 -19.69L381.47 -19.69Q381.47 -26.69 377.88 -30.57L377.88 -30.57L377.88 -30.57Q374.30 -34.45 367.86 -34.45L367.86 -34.45L367.86 -34.45Q363.05 -34.45 360.23 -32.77L360.23 -32.77L360.23 -32.77Q357.42 -31.08 357.42 -27.98L357.42 -27.98L357.42 -27.98Q357.42 -25.31 360.04 -23.55L360.04 -23.55L360.04 -23.55Q362.66 -21.80 367.34 -21.34L367.34 -21.34Z"/></svg>