<svg xmlns="http://www.w3.org/2000/svg" viewBox="0 -40.9 326.91 40.90" height="100%"><path fill="currentColor" d="M11.88 0.00L5.47 0.00L5.47 -13.68L5.47 -13.68Q5.47 -18.22 7.49 -20.27L7.49 -20.27L7.49 -20.27Q9.50 -22.32 12.60 -23.11L12.60 -23.11L12.67 -23.33L4.75 -26.35L4.75 -28.73L4.75 -28.73Q4.75 -31.68 6.70 -34.31L6.70 -34.31L6.70 -34.31Q8.64 -36.94 12.24 -38.56L12.24 -38.56L12.24 -38.56Q15.84 -40.18 20.95 -40.18L20.95 -40.18L20.95 -40.18Q25.34 -40.18 29.09 -38.77L29.09 -38.77L29.09 -38.77Q32.83 -37.37 35.10 -34.38L35.10 -34.38L35.10 -34.38Q37.37 -31.39 37.37 -26.57L37.37 -26.57L37.37 0.00L30.96 0.00L30.96 -25.92L30.96 -25.92Q30.96 -30.74 28.01 -32.80L28.01 -32.80L28.01 -32.80Q25.06 -34.85 20.88 -34.85L20.88 -34.85L20.88 -34.85Q16.42 -34.85 13.86 -33.01L13.86 -33.01L13.86 -33.01Q11.30 -31.18 11.30 -28.37L11.30 -28.37L19.08 -24.48L18.50 -21.02L18.50 -21.02Q15.84 -21.02 13.86 -19.26L13.86 -19.26L13.86 -19.26Q11.88 -17.50 11.88 -13.68L11.88 -13.68L11.88 0.00ZM62.73 0.72L62.73 0.72L62.73 0.72Q55.96 0.72 52.25 -2.56L52.25 -2.56L52.25 -2.56Q48.54 -5.83 48.54 -12.38L48.54 -12.38L48.54 -16.78L48.54 -16.78Q48.54 -20.30 49.55 -22.43L49.55 -22.43L49.55 -22.43Q50.56 -24.55 51.71 -26.06L51.71 -26.06L51.71 -26.06Q52.94 -27.65 53.84 -28.91L53.84 -28.91L53.84 -28.91Q54.74 -30.17 54.74 -31.90L54.74 -31.90L54.74 -31.90Q54.74 -33.41 53.98 -34.06L53.98 -34.06L53.98 -34.06Q53.22 -34.70 52.07 -34.70L52.07 -34.70L52.07 -34.70Q51.21 -34.70 50.24 -34.42L50.24 -34.42L50.24 -34.42Q49.26 -34.13 48.33 -33.70L48.33 -33.70L46.89 -38.30L46.89 -38.30Q48.18 -39.17 50.09 -39.53L50.09 -39.53L50.09 -39.53Q52.00 -39.89 53.44 -39.89L53.44 -39.89L53.44 -39.89Q57.40 -39.89 59.09 -37.84L59.09 -37.84L59.09 -37.84Q60.78 -35.78 60.78 -32.62L60.78 -32.62L60.78 -32.62Q60.78 -29.95 59.88 -28.22L59.88 -28.22L59.88 -28.22Q58.98 -26.50 57.76 -24.84L57.76 -24.84L57.76 -24.84Q56.54 -23.04 55.74 -21.38L55.74 -21.38L55.74 -21.38Q54.95 -19.73 54.95 -17.06L54.95 -17.06L54.95 -12.82L54.95 -12.82Q54.95 -9.50 56.03 -7.70L56.03 -7.70L56.03 -7.70Q57.11 -5.90 58.91 -5.22L58.91 -5.22L58.91 -5.22Q60.71 -4.54 62.73 -4.54L62.73 -4.54L62.73 -4.54Q70.14 -4.54 70.14 -11.45L70.14 -11.45L70.14 -39.46L76.55 -39.46L76.55 -11.09L76.55 -11.09Q76.55 -5.54 73.02 -2.41L73.02 -2.41L73.02 -2.41Q69.50 0.72 62.73 0.72ZM101.58 0.72L101.58 0.72L101.58 0.72Q94.82 0.72 91.22 -2.59L91.22 -2.59L91.22 -2.59Q87.62 -5.90 87.62 -12.46L87.62 -12.46L87.62 -16.99L87.62 -16.99Q87.62 -19.80 88.34 -21.74L88.34 -21.74L88.34 -21.74Q89.06 -23.69 90.21 -25.16L90.21 -25.16L90.21 -25.16Q91.36 -26.64 92.58 -28.01L92.58 -28.01L92.58 -28.01Q93.74 -29.23 94.56 -30.28L94.56 -30.28L94.56 -30.28Q95.39 -31.32 95.46 -32.40L95.46 -32.40L95.25 -32.54L95.25 -32.54Q94.46 -31.97 93.41 -31.57L93.41 -31.57L93.41 -31.57Q92.37 -31.18 91.07 -31.18L91.07 -31.18L91.07 -31.18Q88.48 -31.18 86.82 -32.94L86.82 -32.94L86.82 -32.94Q85.17 -34.70 85.17 -37.94L85.17 -37.94L85.17 -39.46L90.78 -39.46L90.78 -39.46Q90.78 -35.35 93.09 -35.35L93.09 -35.35L93.09 -35.35Q93.81 -35.35 94.71 -35.64L94.71 -35.64L94.71 -35.64Q95.61 -35.93 96.33 -36.50L96.33 -36.50L97.70 -39.46L101.22 -39.46L101.22 -36.22L101.22 -36.22Q101.22 -34.13 101.08 -32.54L101.08 -32.54L101.08 -32.54Q100.94 -30.96 100.29 -29.48L100.29 -29.48L100.29 -29.48Q99.64 -28.01 98.13 -26.06L98.13 -26.06L98.13 -26.06Q96.98 -24.62 96.08 -23.51L96.08 -23.51L96.08 -23.51Q95.18 -22.39 94.60 -20.88L94.60 -20.88L94.60 -20.88Q94.02 -19.37 94.02 -16.85L94.02 -16.85L94.02 -12.82L94.02 -12.82Q94.02 -9.43 95.10 -7.63L95.10 -7.63L95.10 -7.63Q96.18 -5.83 97.91 -5.18L97.91 -5.18L97.91 -5.18Q99.64 -4.54 101.58 -4.54L101.58 -4.54L101.58 -4.54Q105.33 -4.54 107.34 -6.23L107.34 -6.23L107.34 -6.23Q109.36 -7.92 109.36 -11.45L109.36 -11.45L109.36 -39.46L115.70 -39.46L115.70 -11.09L115.70 -11.09Q115.70 -5.54 112.06 -2.41L112.06 -2.41L112.06 -2.41Q108.42 0.72 101.58 0.72ZM134.24 0.00L127.83 0.00L127.83 -25.20L127.83 -25.20Q127.83 -32.40 131.68 -36.29L131.68 -36.29L131.68 -36.29Q135.54 -40.18 144.10 -40.18L144.10 -40.18L144.10 -40.18Q152.67 -40.18 156.52 -36.29L156.52 -36.29L156.52 -36.29Q160.38 -32.40 160.38 -25.20L160.38 -25.20L160.38 0.00L153.97 0.00L153.97 -25.20L153.97 -25.20Q153.97 -34.85 144.03 -34.85L144.03 -34.85L144.03 -34.85Q134.24 -34.85 134.24 -25.20L134.24 -25.20L134.24 -17.21L134.46 -17.14L134.46 -17.14Q136.04 -19.94 138.34 -20.84L138.34 -20.84L138.34 -20.84Q140.65 -21.74 144.82 -21.74L144.82 -21.74L147.20 -21.74L147.20 -16.49L144.82 -16.49L144.82 -16.49Q140.43 -16.49 138.16 -15.26L138.16 -15.26L138.16 -15.26Q135.90 -14.04 135.07 -12.06L135.07 -12.06L135.07 -12.06Q134.24 -10.08 134.24 -7.63L134.24 -7.63L134.24 0.00ZM178.24 0.00L171.83 0.00L171.83 -30.17L171.83 -30.17Q171.83 -35.28 174.39 -37.73L174.39 -37.73L174.39 -37.73Q176.94 -40.18 181.34 -40.18L181.34 -40.18L181.34 -40.18Q183.86 -40.18 185.69 -39.31L185.69 -39.31L185.69 -39.31Q187.53 -38.45 188.18 -36.43L188.18 -36.43L188.46 -36.43L188.46 -36.43Q189.18 -38.45 190.98 -39.31L190.98 -39.31L190.98 -39.31Q192.78 -40.18 195.30 -40.18L195.30 -40.18L195.30 -40.18Q199.77 -40.18 202.32 -37.73L202.32 -37.73L202.32 -37.73Q204.88 -35.28 204.88 -30.17L204.88 -30.17L204.88 0.00L198.47 0.00L198.47 -30.02L198.47 -30.02Q198.47 -32.76 197.28 -33.80L197.28 -33.80L197.28 -33.80Q196.10 -34.85 194.30 -34.85L194.30 -34.85L194.30 -34.85Q190.70 -34.85 190.26 -30.53L190.26 -30.53L186.23 -30.53L186.23 -30.53Q185.80 -34.85 182.06 -34.85L182.06 -34.85L182.06 -34.85Q180.40 -34.85 179.25 -33.80L179.25 -33.80L179.25 -33.80Q178.10 -32.76 178.10 -30.02L178.10 -30.02L178.10 -17.21L178.31 -17.14L178.31 -17.14Q179.97 -19.94 182.34 -20.84L182.34 -20.84L182.34 -20.84Q184.72 -21.74 188.90 -21.74L188.90 -21.74L191.27 -21.74L191.27 -16.49L188.90 -16.49L188.90 -16.49Q184.43 -16.49 182.16 -15.26L182.16 -15.26L182.16 -15.26Q179.90 -14.04 179.07 -12.06L179.07 -12.06L179.07 -12.06Q178.24 -10.08 178.24 -7.63L178.24 -7.63L178.24 0.00ZM234.98 0.72L234.98 0.72L234.98 0.72Q230.08 0.72 226.77 -1.12L226.77 -1.12L226.77 -1.12Q223.46 -2.95 222.23 -6.26L222.23 -6.26L221.94 -6.26L221.58 0.00L216.33 0.00L216.33 -16.70L216.33 -16.70Q216.33 -20.88 217.80 -23.33L217.80 -23.33L217.80 -23.33Q219.28 -25.78 221.37 -28.01L221.37 -28.01L221.37 -28.01Q222.95 -29.66 223.67 -30.53L223.67 -30.53L223.67 -30.53Q224.39 -31.39 224.46 -32.40L224.46 -32.40L224.25 -32.54L224.25 -32.54Q223.46 -31.97 222.41 -31.57L222.41 -31.57L222.41 -31.57Q221.37 -31.18 220.07 -31.18L220.07 -31.18L220.07 -31.18Q217.48 -31.18 215.82 -32.94L215.82 -32.94L215.82 -32.94Q214.17 -34.70 214.17 -37.94L214.17 -37.94L214.17 -39.46L219.78 -39.46L219.78 -39.46Q219.78 -35.35 222.09 -35.35L222.09 -35.35L222.09 -35.35Q222.81 -35.35 223.71 -35.64L223.71 -35.64L223.71 -35.64Q224.61 -35.93 225.33 -36.50L225.33 -36.50L226.70 -39.46L230.30 -39.46L230.30 -36.22L230.30 -36.22Q230.30 -34.13 230.08 -32.62L230.08 -32.62L230.08 -32.62Q229.86 -31.10 229.14 -29.59L229.14 -29.59L229.14 -29.59Q228.42 -28.08 226.84 -26.06L226.84 -26.06L226.84 -26.06Q225.69 -24.55 224.75 -23.36L224.75 -23.36L224.75 -23.36Q223.82 -22.18 223.24 -20.66L223.24 -20.66L223.24 -20.66Q222.66 -19.15 222.66 -16.63L222.66 -16.63L222.66 -15.98L222.66 -15.98Q222.66 -10.73 225.51 -7.70L225.51 -7.70L225.51 -7.70Q228.35 -4.68 233.39 -4.68L233.39 -4.68L233.39 -4.68Q241.82 -4.68 241.82 -13.46L241.82 -13.46L241.82 -39.46L248.22 -39.46L248.22 -13.03L248.22 -13.03Q248.22 -5.90 244.66 -2.59L244.66 -2.59L244.66 -2.59Q241.10 0.72 234.98 0.72ZM269.91 0.00L266.31 0.00L254.00 -39.46L260.48 -39.46L271.14 -5.54L272.00 -5.54L272.00 -5.54Q273.73 -5.54 275.38 -6.37L275.38 -6.37L275.38 -6.37Q277.04 -7.20 278.19 -8.50L278.19 -8.50L278.19 -8.50Q280.35 -10.87 281.36 -14.51L281.36 -14.51L281.36 -14.51Q282.37 -18.14 282.37 -21.67L282.37 -21.67L282.37 -21.67Q282.37 -27.65 279.67 -31.07L279.67 -31.07L279.67 -31.07Q276.97 -34.49 272.22 -34.49L272.22 -34.49L272.22 -34.49Q270.27 -34.49 268.90 -33.98L268.90 -33.98L267.32 -39.10L267.32 -39.10Q268.83 -39.53 270.16 -39.67L270.16 -39.67L270.16 -39.67Q271.50 -39.82 272.58 -39.82L272.58 -39.82L272.58 -39.82Q279.63 -39.82 283.88 -35.71L283.88 -35.71L283.88 -35.71Q286.40 -33.26 287.59 -29.59L287.59 -29.59L287.59 -29.59Q288.78 -25.92 288.78 -21.46L288.78 -21.46L288.78 -21.46Q288.78 -15.84 287.05 -11.48L287.05 -11.48L287.05 -11.48Q285.32 -7.13 282.73 -4.54L282.73 -4.54L282.73 -4.54Q280.64 -2.45 277.62 -1.22L277.62 -1.22L277.62 -1.22Q274.59 0.00 269.91 0.00L269.91 0.00ZM309.63 0.00L303.58 0.00L303.58 -17.57L298.11 -17.57L298.11 -22.61L309.70 -22.61L309.70 -5.18L310.64 -5.18L310.64 -5.18Q315.46 -5.18 317.91 -8.53L317.91 -8.53L317.91 -8.53Q320.36 -11.88 320.36 -19.87L320.36 -19.87L320.36 -19.87Q320.36 -27.86 317.62 -31.36L317.62 -31.36L317.62 -31.36Q314.89 -34.85 308.26 -34.85L308.26 -34.85L308.26 -34.85Q304.88 -34.85 301.75 -33.95L301.75 -33.95L301.75 -33.95Q298.62 -33.05 295.74 -31.18L295.74 -31.18L295.74 -37.15L295.74 -37.15Q297.90 -38.45 301.42 -39.31L301.42 -39.31L301.42 -39.31Q304.95 -40.18 309.06 -40.18L309.06 -40.18L309.06 -40.18Q315.61 -40.18 319.53 -37.76L319.53 -37.76L319.53 -37.76Q323.46 -35.35 325.18 -30.82L325.18 -30.82L325.18 -30.82Q326.91 -26.28 326.91 -19.80L326.91 -19.80L326.91 -19.80Q326.91 -13.54 325.22 -9.11L325.22 -9.11L325.22 -9.11Q323.53 -4.68 319.75 -2.34L319.75 -2.34L319.75 -2.34Q315.97 0.00 309.63 0.00L309.63 0.00Z"/></svg>