<svg xmlns="http://www.w3.org/2000/svg" viewBox="0 -68 506.64 68.00" height="100%"><path fill="currentColor" d="M31.30 -10.16L31.30 -10.16L31.30 -10.16Q35.19 -7.01 37.70 -5.86L37.70 -5.86L37.70 -5.86Q40.22 -4.70 43.00 -4.70L43.00 -4.70L43.00 -4.70Q47.56 -4.70 50.12 -7.90L50.12 -7.90L50.12 -7.90Q52.67 -11.09 52.67 -16.89L52.67 -16.89L52.67 -16.89Q52.67 -24.64 47.89 -30.61L47.89 -30.61L47.89 -30.61Q43.11 -36.58 33.89 -40.16L33.89 -40.16L36.98 -45.73L36.98 -45.73Q47.47 -41.23 53.02 -33.82L53.02 -33.82L53.02 -33.82Q58.58 -26.42 58.58 -16.97L58.58 -16.97L58.58 -16.97Q58.58 -8.62 54.43 -3.81L54.43 -3.81L54.43 -3.81Q50.28 1.00 42.83 1.00L42.83 1.00L42.83 1.00Q39.41 1.00 35.89 -0.51L35.89 -0.51L35.89 -0.51Q32.38 -2.02 28.13 -5.55L28.13 -5.55L28.13 -5.55Q25.39 -2.17 21.78 -0.58L21.78 -0.58L21.78 -0.58Q18.17 1.00 13.72 1.00L13.72 1.00L13.72 1.00Q8.16 1.00 4.99 -1.78L4.99 -1.78L4.99 -1.78Q1.83 -4.56 1.83 -9.55L1.83 -9.55L1.83 -9.55Q1.83 -13.62 4.80 -16.31L4.80 -16.31L4.80 -16.31Q7.77 -19.00 13.02 -19.00L13.02 -19.00L13.02 -19.00Q16.53 -19.00 19.80 -17.76L19.80 -17.76L19.80 -17.76Q23.06 -16.53 26.69 -13.79L26.69 -13.79L26.69 -13.79Q27.25 -15.37 27.55 -17.44L27.55 -17.44L27.55 -17.44Q27.84 -19.50 27.84 -21.76L27.84 -21.76L27.84 -21.76Q27.84 -28.24 25.17 -31.99L25.17 -31.99L25.17 -31.99Q22.50 -35.75 17.94 -35.75L17.94 -35.75L17.94 -35.75Q14.84 -35.75 13.16 -34.32L13.16 -34.32L13.16 -34.32Q11.47 -32.89 11.47 -30.28L11.47 -30.28L11.47 -30.28Q11.47 -28.96 11.84 -28.11L11.84 -28.11L11.84 -28.11Q12.66 -30.89 15.61 -30.89L15.61 -30.89L15.61 -30.89Q17.30 -30.89 18.37 -29.73L18.37 -29.73L18.37 -29.73Q19.44 -28.58 19.44 -26.64L19.44 -26.64L19.44 -26.64Q19.44 -24.45 17.98 -23.23L17.98 -23.23L17.98 -23.23Q16.53 -22.00 14.06 -22.00L14.06 -22.00L14.06 -22.00Q10.66 -22.00 8.46 -24.26L8.46 -24.26L8.46 -24.26Q6.27 -26.51 6.27 -30.32L6.27 -30.32L6.27 -30.32Q6.27 -35.14 9.52 -38.07L9.52 -38.07L9.52 -38.07Q12.77 -41.00 17.86 -41.00L17.86 -41.00L17.86 -41.00Q25.28 -41.00 29.52 -35.84L29.52 -35.84L29.52 -35.84Q33.75 -30.69 33.75 -22.10L33.75 -22.10L33.75 -22.10Q33.75 -18.61 33.13 -15.60L33.13 -15.60L33.13 -15.60Q32.52 -12.58 31.30 -10.16ZM24.05 -9.03L24.05 -9.03L24.05 -9.03Q20.78 -11.76 18.21 -12.85L18.21 -12.85L18.21 -12.85Q15.64 -13.94 13.05 -13.94L13.05 -13.94L13.05 -13.94Q10.44 -13.94 9.00 -12.69L9.00 -12.69L9.00 -12.69Q7.56 -11.44 7.56 -9.41L7.56 -9.41L7.56 -9.41Q7.56 -7.09 9.14 -5.76L9.14 -5.76L9.14 -5.76Q10.72 -4.42 13.75 -4.42L13.75 -4.42L13.75 -4.42Q17.05 -4.42 19.62 -5.47L19.62 -5.47L19.62 -5.47Q22.19 -6.52 24.05 -9.03ZM64.38 -40.00L88.81 -40.00L88.81 -40.00Q92.53 -40.00 94.43 -40.37L94.43 -40.37L94.43 -40.37Q96.33 -40.74 97.27 -41.81L97.27 -41.81L97.27 -41.81Q98.20 -42.89 98.20 -44.69L98.20 -44.69L98.20 -44.69Q98.20 -49.15 93.52 -53.57L93.52 -53.57L98.20 -56.71L98.20 -56.71Q101.19 -53.43 102.61 -50.50L102.61 -50.50L102.61 -50.50Q104.03 -47.57 104.03 -44.12L104.03 -44.12L104.03 -44.12Q104.03 -40.51 101.68 -37.90L101.68 -37.90L101.68 -37.90Q99.33 -35.30 94.75 -34.69L94.75 -34.69L94.75 -34.69Q99.25 -31.25 101.64 -25.56L101.64 -25.56L101.64 -25.56Q104.03 -19.87 104.03 -9.29L104.03 -9.29L104.03 0.00L97.53 0.00L97.53 -7.83L97.53 -7.83Q97.53 -14.68 96.86 -19.12L96.86 -19.12L96.86 -19.12Q96.19 -23.56 94.36 -27.27L94.36 -27.27L94.36 -27.27Q92.53 -30.97 90.13 -32.69L90.13 -32.69L90.13 -32.69Q87.72 -34.41 84.45 -34.41L84.45 -34.41L84.45 -34.41Q81.98 -34.41 80.07 -33.52L80.07 -33.52L80.07 -33.52Q78.16 -32.63 76.59 -30.86L76.59 -30.86L76.59 -30.86Q75.03 -29.08 73.64 -25.67L73.64 -25.67L73.64 -25.67Q72.25 -22.25 71.69 -18.01L71.69 -18.01L71.69 -18.01Q71.13 -13.78 71.13 -7.83L71.13 -7.83L71.13 0.00L64.63 0.00L64.63 -9.04L64.63 -9.04Q64.63 -19.16 66.96 -25.23L66.96 -25.23L66.96 -25.23Q69.30 -31.29 73.80 -34.41L73.80 -34.41L64.38 -34.41L64.38 -40.00ZM80.23 -58.00L80.23 -58.00ZM150.02 -34.41L110.22 -34.41L110.22 -40.00L148.72 -40.00L148.72 -40.00Q152.44 -40.00 154.34 -40.37L154.34 -40.37L154.34 -40.37Q156.23 -40.74 157.16 -41.81L157.16 -41.81L157.16 -41.81Q158.09 -42.89 158.09 -44.69L158.09 -44.69L158.09 -44.69Q158.09 -49.15 153.42 -53.57L153.42 -53.57L158.09 -56.71L158.09 -56.71Q161.05 -53.46 162.49 -50.53L162.49 -50.53L162.49 -50.53Q163.94 -47.61 163.94 -44.16L163.94 -44.16L163.94 -44.16Q163.94 -41.57 162.66 -39.35L162.66 -39.35L162.66 -39.35Q161.38 -37.13 158.56 -35.77L158.56 -35.77L158.56 -35.77Q155.75 -34.41 150.02 -34.41L150.02 -34.41ZM136.91 -30.00L136.91 -30.00L136.91 -30.00Q138.66 -30.00 139.89 -28.77L139.89 -28.77L139.89 -28.77Q141.13 -27.55 141.13 -25.75L141.13 -25.75L141.13 -25.75Q141.13 -24.00 139.88 -22.77L139.88 -22.77L139.88 -22.77Q138.63 -21.53 136.91 -21.53L136.91 -21.53L136.91 -21.53Q135.17 -21.53 133.96 -22.78L133.96 -22.78L133.96 -22.78Q132.75 -24.03 132.75 -25.75L132.75 -25.75L132.75 -25.75Q132.75 -27.47 133.93 -28.73L133.93 -28.73L133.93 -28.73Q135.11 -30.00 136.91 -30.00ZM140.88 10.00L134.19 10.00L134.75 -0.95L140.31 -0.95L140.88 10.00ZM162.11 -12.32L162.11 -12.32L162.11 -12.32Q162.11 -6.31 158.48 -2.65L158.48 -2.65L158.48 -2.65Q154.86 1.00 149.56 1.00L149.56 1.00L149.56 1.00Q145.38 1.00 142.66 -0.35L142.66 -0.35L142.66 -0.35Q139.95 -1.69 137.53 -5.52L137.53 -5.52L137.53 -5.52Q135.42 -2.26 132.48 -0.63L132.48 -0.63L132.48 -0.63Q129.55 1.00 124.25 1.00L124.25 1.00L124.25 1.00Q118.06 1.00 114.14 -2.53L114.14 -2.53L114.14 -2.53Q110.22 -6.05 110.22 -11.73L110.22 -11.73L110.22 -11.73Q110.22 -16.69 113.24 -19.84L113.24 -19.84L113.24 -19.84Q116.27 -23.00 121.16 -23.00L121.16 -23.00L121.16 -23.00Q124.98 -23.00 127.30 -21.19L127.30 -21.19L127.30 -21.19Q129.63 -19.37 129.63 -16.33L129.63 -16.33L129.63 -16.33Q129.63 -13.68 128.67 -12.11L128.67 -12.11L123.75 -12.56L123.75 -12.56Q124.20 -13.78 124.20 -14.86L124.20 -14.86L124.20 -14.86Q124.20 -16.38 123.33 -17.16L123.33 -17.16L123.33 -17.16Q122.45 -17.94 120.94 -17.94L120.94 -17.94L120.94 -17.94Q118.52 -17.94 117.11 -16.33L117.11 -16.33L117.11 -16.33Q115.70 -14.72 115.70 -12.01L115.70 -12.01L115.70 -12.01Q115.70 -8.62 118.08 -6.66L118.08 -6.66L118.08 -6.66Q120.45 -4.70 124.88 -4.70L124.88 -4.70L124.88 -4.70Q133.95 -4.70 134.75 -14.00L134.75 -14.00L140.28 -14.00L140.28 -14.00Q140.59 -9.55 142.91 -7.13L142.91 -7.13L142.91 -7.13Q145.23 -4.70 149.03 -4.70L149.03 -4.70L149.03 -4.70Q152.44 -4.70 154.35 -6.80L154.35 -6.80L154.35 -6.80Q156.27 -8.89 156.27 -11.97L156.27 -11.97L156.27 -11.97Q156.27 -15.41 154.88 -18.37L154.88 -18.37L154.88 -18.37Q153.50 -21.33 150.58 -24.29L150.58 -24.29L155.61 -27.67L155.61 -27.67Q158.77 -23.18 161.00 -21.62L161.00 -21.62L161.00 -21.62Q163.23 -20.06 166.25 -20.06L166.25 -20.06L166.25 -20.06Q169.00 -20.06 170.48 -21.55L170.48 -21.55L170.48 -21.55Q171.95 -23.04 171.95 -25.62L171.95 -25.62L171.95 -25.62Q171.95 -31.88 165.52 -36.38L165.52 -36.38L169.39 -40.88L169.39 -40.88Q173.47 -37.77 175.61 -33.88L175.61 -33.88L175.61 -33.88Q177.75 -30.00 177.75 -25.69L177.75 -25.69L177.75 -25.69Q177.75 -20.65 174.77 -17.82L174.77 -17.82L174.77 -17.82Q171.78 -15.00 166.81 -15.00L166.81 -15.00L166.81 -15.00Q163.52 -15.00 161.27 -16.33L161.27 -16.33L161.27 -16.33Q162.11 -14.44 162.11 -12.32ZM136.06 -58.00L136.06 -58.00ZM229.72 -24.57L224.23 -26.20L224.23 -26.20Q224.89 -27.84 224.89 -29.88L224.89 -29.88L224.89 -29.88Q224.89 -32.71 223.13 -34.18L223.13 -34.18L223.13 -34.18Q221.38 -35.66 218.00 -35.66L218.00 -35.66L218.00 -35.66Q214.63 -35.66 211.29 -33.78L211.29 -33.78L211.29 -33.78Q207.95 -31.90 205.03 -28.30L205.03 -28.30L205.03 -28.30Q204.47 -25.88 202.54 -23.61L202.54 -23.61L202.54 -23.61Q200.61 -21.33 196.20 -18.49L196.20 -18.49L196.20 -18.49Q193.22 -16.52 191.99 -15.38L191.99 -15.38L191.99 -15.38Q190.77 -14.25 190.15 -13.01L190.15 -13.01L190.15 -13.01Q189.53 -11.77 189.53 -10.13L189.53 -10.13L189.53 -10.13Q189.53 -7.51 191.25 -6.10L191.25 -6.10L191.25 -6.10Q192.97 -4.70 196.11 -4.70L196.11 -4.70L196.11 -4.70Q205.00 -4.70 205.81 -14.00L205.81 -14.00L211.33 -14.00L211.33 -14.00Q211.61 -9.55 214.05 -7.13L214.05 -7.13L214.05 -7.13Q216.50 -4.70 220.44 -4.70L220.44 -4.70L220.44 -4.70Q223.98 -4.70 225.88 -6.38L225.88 -6.38L225.88 -6.38Q227.78 -8.06 227.78 -11.10L227.78 -11.10L227.78 -11.10Q227.78 -15.16 224.72 -18.60L224.72 -18.60L229.81 -21.99L229.81 -21.99Q233.69 -17.00 233.69 -10.92L233.69 -10.92L233.69 -10.92Q233.69 -5.28 230.26 -2.14L230.26 -2.14L230.26 -2.14Q226.83 1.00 220.44 1.00L220.44 1.00L220.44 1.00Q216.31 1.00 213.54 -0.56L213.54 -0.56L213.54 -0.56Q210.77 -2.12 208.55 -5.52L208.55 -5.52L208.55 -5.52Q206.47 -2.15 203.55 -0.58L203.55 -0.58L203.55 -0.58Q200.64 1.00 195.75 1.00L195.75 1.00L195.75 1.00Q190.20 1.00 186.90 -2.12L186.90 -2.12L186.90 -2.12Q183.59 -5.24 183.59 -9.80L183.59 -9.80L183.59 -9.80Q183.59 -12.58 184.58 -14.72L184.58 -14.72L184.58 -14.72Q185.56 -16.86 187.44 -18.71L187.44 -18.71L187.44 -18.71Q189.31 -20.56 193.53 -23.32L193.53 -23.32L193.53 -23.32Q197.44 -25.85 198.53 -27.42L198.53 -27.42L198.53 -27.42Q199.63 -28.98 199.63 -30.73L199.63 -30.73L199.63 -30.73Q199.63 -35.72 193.78 -35.72L193.78 -35.72L193.78 -35.72Q190.91 -35.72 189.36 -34.43L189.36 -34.43L189.36 -34.43Q187.81 -33.13 187.81 -30.69L187.81 -30.69L187.81 -30.69Q187.81 -28.42 189.25 -26.38L189.25 -26.38L184.16 -24.10L184.16 -24.10Q181.97 -27.63 181.97 -31.30L181.97 -31.30L181.97 -31.30Q181.97 -35.50 185.15 -38.25L185.15 -38.25L185.15 -38.25Q188.33 -41.00 193.81 -41.00L193.81 -41.00L193.81 -41.00Q197.94 -41.00 200.59 -39.54L200.59 -39.54L200.59 -39.54Q203.23 -38.08 204.47 -35.22L204.47 -35.22L204.47 -35.22Q208.02 -38.26 211.34 -39.63L211.34 -39.63L211.34 -39.63Q214.67 -41.00 218.42 -41.00L218.42 -41.00L218.42 -41.00Q224.13 -41.00 227.41 -38.08L227.41 -38.08L227.41 -38.08Q230.70 -35.16 230.70 -30.35L230.70 -30.35L230.70 -30.35Q230.70 -26.82 229.72 -24.57L229.72 -24.57ZM212.52 -28.00L212.52 -28.00L212.52 -28.00Q214.28 -28.00 215.51 -26.77L215.51 -26.77L215.51 -26.77Q216.73 -25.53 216.73 -23.75L216.73 -23.75L216.73 -23.75Q216.73 -21.98 215.49 -20.76L215.49 -20.76L215.49 -20.76Q214.25 -19.53 212.52 -19.53L212.52 -19.53L212.52 -19.53Q210.80 -19.53 209.59 -20.77L209.59 -20.77L209.59 -20.77Q208.38 -22.02 208.38 -23.75L208.38 -23.75L208.38 -23.75Q208.38 -25.47 209.55 -26.73L209.55 -26.73L209.55 -26.73Q210.73 -28.00 212.52 -28.00ZM205.00 -40.00L205.00 -40.00ZM199.16 -18.04L199.16 -18.04ZM277.38 -34.41L267.67 -34.41L267.67 -40.00L276.08 -40.00L276.08 -40.00Q279.81 -40.00 281.71 -40.37L281.71 -40.37L281.71 -40.37Q283.61 -40.74 284.54 -41.81L284.54 -41.81L284.54 -41.81Q285.47 -42.89 285.47 -44.69L285.47 -44.69L285.47 -44.69Q285.47 -49.15 280.80 -53.57L280.80 -53.57L285.47 -56.71L285.47 -56.71Q288.42 -53.46 289.86 -50.54L289.86 -50.54L289.86 -50.54Q291.30 -47.61 291.30 -44.17L291.30 -44.17L291.30 -44.17Q291.30 -40.72 289.19 -38.20L289.19 -38.20L289.19 -38.20Q287.08 -35.69 282.91 -34.83L282.91 -34.83L282.91 -34.83Q283.61 -33.87 283.98 -32.70L283.98 -32.70L283.98 -32.70Q284.34 -31.53 284.34 -30.56L284.34 -30.56L284.34 -30.56Q284.34 -28.61 283.36 -27.00L283.36 -27.00L290.98 -27.00L290.98 -21.98L288.00 -21.98L288.00 -21.98Q286.14 -21.98 284.23 -22.08L284.23 -22.08L284.23 -22.08Q287.08 -19.72 288.38 -17.07L288.38 -17.07L288.38 -17.07Q289.69 -14.41 289.69 -11.16L289.69 -11.16L289.69 -11.16Q289.69 -5.39 286.26 -2.20L286.26 -2.20L286.26 -2.20Q282.83 1.00 276.44 1.00L276.44 1.00L276.44 1.00Q272.31 1.00 269.54 -0.56L269.54 -0.56L269.54 -0.56Q266.77 -2.12 264.55 -5.52L264.55 -5.52L264.55 -5.52Q262.47 -2.15 259.55 -0.58L259.55 -0.58L259.55 -0.58Q256.64 1.00 251.75 1.00L251.75 1.00L251.75 1.00Q246.20 1.00 242.90 -2.12L242.90 -2.12L242.90 -2.12Q239.59 -5.24 239.59 -9.80L239.59 -9.80L239.59 -9.80Q239.59 -12.58 240.58 -14.72L240.58 -14.72L240.58 -14.72Q241.56 -16.86 243.44 -18.71L243.44 -18.71L243.44 -18.71Q245.31 -20.56 249.53 -23.32L249.53 -23.32L249.53 -23.32Q253.44 -25.85 254.53 -27.42L254.53 -27.42L254.53 -27.42Q255.63 -28.98 255.63 -30.73L255.63 -30.73L255.63 -30.73Q255.63 -35.72 249.78 -35.72L249.78 -35.72L249.78 -35.72Q246.91 -35.72 245.36 -34.43L245.36 -34.43L245.36 -34.43Q243.81 -33.13 243.81 -30.69L243.81 -30.69L243.81 -30.69Q243.81 -28.42 245.25 -26.38L245.25 -26.38L240.16 -24.10L240.16 -24.10Q237.97 -27.63 237.97 -31.30L237.97 -31.30L237.97 -31.30Q237.97 -35.50 241.15 -38.25L241.15 -38.25L241.15 -38.25Q244.33 -41.00 249.81 -41.00L249.81 -41.00L249.81 -41.00Q255.52 -41.00 258.48 -38.19L258.48 -38.19L258.48 -38.19Q261.45 -35.38 261.45 -30.76L261.45 -30.76L261.45 -30.76Q261.45 -27.45 259.57 -24.75L259.57 -24.75L259.57 -24.75Q257.69 -22.05 252.20 -18.49L252.20 -18.49L252.20 -18.49Q249.22 -16.52 247.99 -15.38L247.99 -15.38L247.99 -15.38Q246.77 -14.25 246.15 -13.01L246.15 -13.01L246.15 -13.01Q245.53 -11.77 245.53 -10.13L245.53 -10.13L245.53 -10.13Q245.53 -7.51 247.25 -6.10L247.25 -6.10L247.25 -6.10Q248.97 -4.70 252.11 -4.70L252.11 -4.70L252.11 -4.70Q261.00 -4.70 261.81 -14.00L261.81 -14.00L267.33 -14.00L267.33 -14.00Q267.61 -9.58 270.07 -7.14L270.07 -7.14L270.07 -7.14Q272.53 -4.70 276.44 -4.70L276.44 -4.70L276.44 -4.70Q279.98 -4.70 281.88 -6.51L281.88 -6.51L281.88 -6.51Q283.78 -8.31 283.78 -11.57L283.78 -11.57L283.78 -11.57Q283.78 -14.82 281.94 -17.53L281.94 -17.53L281.94 -17.53Q280.09 -20.24 276.78 -21.98L276.78 -21.98L267.67 -21.98L267.67 -27.00L276.78 -27.00L276.78 -27.00Q278.64 -28.43 278.64 -30.63L278.64 -30.63L278.64 -30.63Q278.64 -32.71 277.38 -34.41L277.38 -34.41ZM266.17 -58.00L266.17 -58.00ZM253.86 -18.04L253.86 -18.04ZM302.08 -22.21L302.08 -22.21L302.08 -22.21Q301.89 -20.31 301.89 -18.13L301.89 -18.13L301.89 -18.13Q301.89 -11.64 304.34 -8.17L304.34 -8.17L304.34 -8.17Q306.78 -4.70 311.11 -4.70L311.11 -4.70L311.11 -4.70Q315.39 -4.70 318.13 -7.14L318.13 -7.14L318.13 -7.14Q320.88 -9.58 321.48 -14.00L321.48 -14.00L327.00 -14.00L327.00 -14.00Q327.28 -9.58 329.74 -7.14L329.74 -7.14L329.74 -7.14Q332.20 -4.70 336.11 -4.70L336.11 -4.70L336.11 -4.70Q340.08 -4.70 342.45 -7.56L342.45 -7.56L342.45 -7.56Q344.83 -10.41 344.83 -15.15L344.83 -15.15L344.83 -15.15Q344.83 -21.85 341.08 -26.99L341.08 -26.99L341.08 -26.99Q337.33 -32.12 330.66 -34.41L330.66 -34.41L326.78 -34.41L326.78 -40.00L334.88 -40.00L334.88 -40.00Q338.59 -40.00 340.49 -40.37L340.49 -40.37L340.49 -40.37Q342.39 -40.74 343.33 -41.81L343.33 -41.81L343.33 -41.81Q344.27 -42.89 344.27 -44.69L344.27 -44.69L344.27 -44.69Q344.27 -49.15 339.58 -53.57L339.58 -53.57L344.27 -56.71L344.27 -56.71Q347.22 -53.46 348.66 -50.54L348.66 -50.54L348.66 -50.54Q350.09 -47.61 350.09 -44.17L350.09 -44.17L350.09 -44.17Q350.09 -40.44 347.65 -37.86L347.65 -37.86L347.65 -37.86Q345.20 -35.27 340.53 -34.66L340.53 -34.66L340.53 -34.66Q345.63 -31.16 348.18 -26.38L348.18 -26.38L348.18 -26.38Q350.73 -21.60 350.73 -15.54L350.73 -15.54L350.73 -15.54Q350.73 -7.97 346.74 -3.48L346.74 -3.48L346.74 -3.48Q342.75 1.00 335.83 1.00L335.83 1.00L335.83 1.00Q331.89 1.00 329.15 -0.60L329.15 -0.60L329.15 -0.60Q326.41 -2.20 324.22 -5.52L324.22 -5.52L324.22 -5.52Q321.94 -2.15 319.02 -0.58L319.02 -0.58L319.02 -0.58Q316.09 1.00 311.17 1.00L311.17 1.00L311.17 1.00Q304.22 1.00 300.10 -4.12L300.10 -4.12L300.10 -4.12Q295.98 -9.23 295.98 -18.47L295.98 -18.47L295.98 -18.47Q295.98 -25.46 298.12 -30.61L298.12 -30.61L298.12 -30.61Q300.25 -35.76 303.88 -38.38L303.88 -38.38L303.88 -38.38Q307.52 -41.00 311.95 -41.00L311.95 -41.00L311.95 -41.00Q316.66 -41.00 319.40 -38.34L319.40 -38.34L319.40 -38.34Q322.14 -35.68 322.14 -31.11L322.14 -31.11L322.14 -31.11Q322.14 -26.04 318.80 -23.02L318.80 -23.02L318.80 -23.02Q315.47 -20.00 309.70 -20.00L309.70 -20.00L309.70 -20.00Q305.48 -20.00 302.08 -22.21ZM303.06 -27.37L303.06 -27.37L303.06 -27.37Q305.77 -25.06 309.25 -25.06L309.25 -25.06L309.25 -25.06Q312.80 -25.06 314.66 -26.58L314.66 -26.58L314.66 -26.58Q316.52 -28.10 316.52 -30.86L316.52 -30.86L316.52 -30.86Q316.52 -33.24 315.23 -34.59L315.23 -34.59L315.23 -34.59Q313.95 -35.94 311.81 -35.94L311.81 -35.94L311.81 -35.94Q309.00 -35.94 306.64 -33.79L306.64 -33.79L306.64 -33.79Q304.28 -31.64 303.06 -27.37ZM327.59 10.00L320.92 10.00L321.48 -0.95L327.03 -0.95L327.59 10.00ZM321.13 -58.00L321.13 -58.00ZM398.72 -19.09L403.81 -22.42L403.81 -22.42Q407.69 -17.33 407.69 -11.14L407.69 -11.14L407.69 -11.14Q407.69 -5.39 404.26 -2.20L404.26 -2.20L404.26 -2.20Q400.83 1.00 394.44 1.00L394.44 1.00L394.44 1.00Q390.31 1.00 387.54 -0.56L387.54 -0.56L387.54 -0.56Q384.77 -2.12 382.55 -5.52L382.55 -5.52L382.55 -5.52Q380.47 -2.15 377.55 -0.58L377.55 -0.58L377.55 -0.58Q374.64 1.00 369.75 1.00L369.75 1.00L369.75 1.00Q364.20 1.00 360.90 -2.12L360.90 -2.12L360.90 -2.12Q357.59 -5.24 357.59 -9.80L357.59 -9.80L357.59 -9.80Q357.59 -12.58 358.58 -14.72L358.58 -14.72L358.58 -14.72Q359.56 -16.86 361.44 -18.71L361.44 -18.71L361.44 -18.71Q363.31 -20.56 367.53 -23.32L367.53 -23.32L367.53 -23.32Q371.44 -25.85 372.53 -27.42L372.53 -27.42L372.53 -27.42Q373.63 -28.98 373.63 -30.73L373.63 -30.73L373.63 -30.73Q373.63 -35.72 367.78 -35.72L367.78 -35.72L367.78 -35.72Q364.91 -35.72 363.36 -34.43L363.36 -34.43L363.36 -34.43Q361.81 -33.13 361.81 -30.69L361.81 -30.69L361.81 -30.69Q361.81 -28.42 363.25 -26.38L363.25 -26.38L358.16 -24.10L358.16 -24.10Q355.97 -27.63 355.97 -31.30L355.97 -31.30L355.97 -31.30Q355.97 -35.50 359.15 -38.25L359.15 -38.25L359.15 -38.25Q362.33 -41.00 367.81 -41.00L367.81 -41.00L367.81 -41.00Q372.11 -41.00 374.84 -39.40L374.84 -39.40L374.84 -39.40Q377.56 -37.81 378.69 -34.86L378.69 -34.86L378.69 -34.86Q384.23 -28.34 390.81 -28.34L390.81 -28.34L390.81 -28.34Q394.11 -28.34 395.89 -29.76L395.89 -29.76L395.89 -29.76Q397.67 -31.19 397.67 -33.92L397.67 -33.92L397.67 -33.92Q397.67 -35.23 397.32 -36.72L397.32 -36.72L397.32 -36.72Q396.97 -38.21 396.36 -39.31L396.36 -39.31L401.92 -41.00L401.92 -41.00Q402.63 -39.78 403.10 -37.83L403.10 -37.83L403.10 -37.83Q403.58 -35.88 403.58 -34.18L403.58 -34.18L403.58 -34.18Q403.58 -28.89 400.38 -25.95L400.38 -25.95L400.38 -25.95Q397.17 -23.00 391.30 -23.00L391.30 -23.00L391.30 -23.00Q383.84 -23.00 378.78 -27.74L378.78 -27.74L378.78 -27.74Q378.16 -25.38 376.34 -23.34L376.34 -23.34L376.34 -23.34Q374.53 -21.30 370.20 -18.49L370.20 -18.49L370.20 -18.49Q367.22 -16.52 365.99 -15.38L365.99 -15.38L365.99 -15.38Q364.77 -14.25 364.15 -13.01L364.15 -13.01L364.15 -13.01Q363.53 -11.77 363.53 -10.13L363.53 -10.13L363.53 -10.13Q363.53 -7.51 365.25 -6.10L365.25 -6.10L365.25 -6.10Q366.97 -4.70 370.11 -4.70L370.11 -4.70L370.11 -4.70Q379.00 -4.70 379.81 -14.00L379.81 -14.00L385.33 -14.00L385.33 -14.00Q385.61 -9.55 388.05 -7.13L388.05 -7.13L388.05 -7.13Q390.50 -4.70 394.44 -4.70L394.44 -4.70L394.44 -4.70Q397.98 -4.70 399.88 -6.44L399.88 -6.44L399.88 -6.44Q401.78 -8.18 401.78 -11.33L401.78 -11.33L401.78 -11.33Q401.78 -15.53 398.72 -19.09L398.72 -19.09ZM373.16 -18.04L373.16 -18.04ZM384.69 -40.00L384.69 -40.00ZM433.59 -34.41L433.59 -34.41L433.59 -34.41Q426.98 -34.41 422.94 -30.34L422.94 -30.34L422.94 -30.34Q418.89 -26.27 418.89 -19.60L418.89 -19.60L418.89 -19.60Q418.89 -12.72 422.81 -8.80L422.81 -8.80L422.81 -8.80Q426.73 -4.88 433.52 -4.88L433.52 -4.88L433.52 -4.88Q440.31 -4.88 444.16 -8.93L444.16 -8.93L444.16 -8.93Q448.00 -12.98 448.00 -19.60L448.00 -19.60L448.00 -19.60Q448.00 -26.31 443.96 -30.36L443.96 -30.36L443.96 -30.36Q439.92 -34.41 433.59 -34.41ZM433.48 1.00L433.48 1.00L433.48 1.00Q427.47 1.00 422.78 -1.33L422.78 -1.33L422.78 -1.33Q418.09 -3.66 415.54 -8.08L415.54 -8.08L415.54 -8.08Q412.98 -12.49 412.98 -18.36L412.98 -18.36L412.98 -18.36Q412.98 -29.06 420.69 -34.41L420.69 -34.41L412.98 -34.41L412.98 -40.00L438.69 -40.00L438.69 -40.00Q442.42 -40.00 444.32 -40.37L444.32 -40.37L444.32 -40.37Q446.22 -40.74 447.15 -41.81L447.15 -41.81L447.15 -41.81Q448.08 -42.89 448.08 -44.69L448.08 -44.69L448.08 -44.69Q448.08 -49.15 443.41 -53.57L443.41 -53.57L448.08 -56.74L448.08 -56.74Q451.03 -53.49 452.47 -50.55L452.47 -50.55L452.47 -50.55Q453.91 -47.61 453.91 -44.17L453.91 -44.17L453.91 -44.17Q453.91 -40.72 451.82 -38.22L451.82 -38.22L451.82 -38.22Q449.73 -35.72 445.86 -34.89L445.86 -34.89L445.86 -34.89Q450.05 -31.98 451.98 -27.96L451.98 -27.96L451.98 -27.96Q453.91 -23.93 453.91 -18.35L453.91 -18.35L453.91 -18.35Q453.91 -14.72 452.89 -11.52L452.89 -11.52L452.89 -11.52Q455.73 -8.08 458.74 -6.39L458.74 -6.39L458.74 -6.39Q461.75 -4.70 465.48 -4.70L465.48 -4.70L465.48 -4.70Q469.73 -4.70 472.14 -7.52L472.14 -7.52L472.14 -7.52Q474.55 -10.33 474.55 -15.15L474.55 -15.15L474.55 -15.15Q474.55 -22.11 471.02 -27.17L471.02 -27.17L471.02 -27.17Q467.48 -32.24 460.42 -35.41L460.42 -35.41L463.52 -41.00L463.52 -41.00Q471.77 -36.83 476.11 -30.26L476.11 -30.26L476.11 -30.26Q480.45 -23.69 480.45 -15.48L480.45 -15.48L480.45 -15.48Q480.45 -12.86 479.97 -10.50L479.97 -10.50L479.97 -10.50Q482.64 -7.58 485.45 -6.14L485.45 -6.14L485.45 -6.14Q488.27 -4.70 491.67 -4.70L491.67 -4.70L491.67 -4.70Q495.92 -4.70 498.33 -7.52L498.33 -7.52L498.33 -7.52Q500.73 -10.33 500.73 -15.15L500.73 -15.15L500.73 -15.15Q500.73 -22.11 497.20 -27.17L497.20 -27.17L497.20 -27.17Q493.67 -32.24 486.61 -35.41L486.61 -35.41L489.70 -41.00L489.70 -41.00Q497.97 -36.83 502.30 -30.26L502.30 -30.26L502.30 -30.26Q506.64 -23.69 506.64 -15.48L506.64 -15.48L506.64 -15.48Q506.64 -7.84 502.62 -3.42L502.62 -3.42L502.62 -3.42Q498.59 1.00 491.42 1.00L491.42 1.00L491.42 1.00Q483.91 1.00 477.75 -5.05L477.75 -5.05L477.75 -5.05Q473.70 1.00 465.23 1.00L465.23 1.00L465.23 1.00Q461.16 1.00 457.52 -0.74L457.52 -0.74L457.52 -0.74Q453.88 -2.48 450.25 -6.39L450.25 -6.39L450.25 -6.39Q447.48 -2.78 443.17 -0.89L443.17 -0.89L443.17 -0.89Q438.86 1.00 433.48 1.00ZM481.61 10.00L474.94 10.00L475.50 -0.94L481.05 -0.94L481.61 10.00ZM429.55 -58.00L429.55 -58.00Z"/></svg>