<svg xmlns="http://www.w3.org/2000/svg" viewBox="0 -64.66 443.54 64.66" height="100%"><path fill="currentColor" d="M35.78 0.00L10.30 0.00L18.07 -33.70L3.82 -33.70L4.97 -38.59L24.91 -38.59L17.06 -4.90L31.90 -4.90L52.42 -51.41L58.54 -51.41L35.78 0.00ZM95.78 0.00L70.30 0.00L78.14 -33.70L63.74 -33.70L64.97 -38.59L84.91 -38.59L77.14 -4.90L91.97 -4.90L112.42 -51.41L118.54 -51.41L95.78 0.00ZM92.76 13.25L67.20 13.25L68.35 8.35L93.91 8.35L92.76 13.25ZM152.76 0.00L146.93 0.00L152.47 -16.85L134.90 -16.85L139.58 -33.70L123.82 -33.70L124.97 -38.59L146.71 -38.59L142.03 -21.74L160.03 -21.74L152.76 0.00ZM202.15 -33.70L176.74 -33.70L177.89 -38.59L203.30 -38.59L202.15 -33.70ZM194.45 0.00L168.96 0.00L170.11 -4.90L195.60 -4.90L194.45 0.00ZM237.94 0.00L232.32 0.00L236.50 -18.29L216.70 -18.29L221.88 -40.90L227.64 -40.90L223.54 -23.18L243.34 -23.18L237.94 0.00ZM282.45 0.00L256.96 0.00L258.11 -4.90L277.70 -4.90L284.82 -36.00L265.24 -36.00L266.39 -40.90L291.88 -40.90L287.70 -22.90L307.29 -22.90L306.21 -18.00L286.55 -18.00L282.45 0.00ZM334.18 0.00L314.60 0.00L323.53 -38.59L329.22 -38.59L321.37 -4.90L330.30 -4.90L338.29 -23.18L356.72 -23.18L353.62 -4.90L362.48 -4.90L377.10 -38.59L383.22 -38.59L366.37 0.00L347.29 0.00L350.38 -18.29L342.18 -18.29L334.18 0.00ZM420.78 0.00L395.30 0.00L401.06 -25.20L385.22 -25.20L386.44 -30.10L402.28 -30.10L407.18 -51.41L412.86 -51.41L402.06 -4.90L416.97 -4.90L437.42 -51.41L443.54 -51.41L420.78 0.00Z"/></svg>