<svg xmlns="http://www.w3.org/2000/svg" viewBox="0 -53.3 347.16 53.30" height="100%"><path fill="currentColor" d="M32.45 -13.72L13.50 -13.72L13.50 -5.77L32.45 -5.77L32.45 0.00L7.03 0.00L7.03 -51.41L13.50 -51.41L13.50 -19.48L32.45 -19.48L32.45 -13.72ZM40.22 0.00L54.17 -21.06L40.86 -41.20L48.06 -41.20L58.02 -25.39L67.86 -41.20L74.98 -41.20L61.67 -21.06L75.73 0.00L68.52 0.00L58.02 -16.73L47.36 0.00L40.22 0.00ZM124.27 -7.88L127.89 -3.88L127.89 -3.88Q123.77 0.84 119.06 0.84L119.06 0.84L119.06 0.84Q116.11 0.84 113.84 -0.53L113.84 -0.53L113.84 -0.53Q111.58 -1.91 109.50 -5.09L109.50 -5.09L102.02 -16.73L91.36 0.00L84.22 0.00L98.17 -21.06L84.86 -41.20L92.06 -41.20L102.02 -25.39L111.86 -41.20L118.98 -41.20L105.67 -21.06L112.80 -10.13L112.80 -10.13Q114.81 -7.06 116.25 -5.96L116.25 -5.96L116.25 -5.96Q117.69 -4.86 119.20 -4.86L119.20 -4.86L119.20 -4.86Q120.86 -4.86 122.05 -5.79L122.05 -5.79L122.05 -5.79Q123.25 -6.72 124.27 -7.88L124.27 -7.88ZM159.52 -10.30L164.69 -7.45L164.69 -7.45Q161.80 -2.78 158.91 -0.87L158.91 -0.87L158.91 -0.87Q156.03 1.05 152.09 1.05L152.09 1.05L152.09 1.05Q149.05 1.05 147.08 -0.16L147.08 -0.16L147.08 -0.16Q145.11 -1.38 144.05 -3.33L144.05 -3.33L144.05 -3.33Q143.00 -5.28 143.00 -7.48L143.00 -7.48L143.00 -7.48Q143.00 -9.84 144.49 -12.45L144.49 -12.45L144.49 -12.45Q145.98 -15.05 150.45 -20.33L150.45 -20.33L150.45 -20.33Q154.11 -24.64 156.01 -28.88L156.01 -28.88L156.01 -28.88Q157.91 -33.13 157.91 -37.48L157.91 -37.48L157.91 -37.48Q157.91 -41.42 155.77 -43.81L155.77 -43.81L155.77 -43.81Q153.64 -46.20 149.98 -46.20L149.98 -46.20L149.98 -46.20Q145.67 -46.20 143.38 -44.09L143.38 -44.09L143.38 -44.09Q141.09 -41.98 141.09 -37.91L141.09 -37.91L141.09 -37.91Q141.09 -35.72 141.63 -33.72L141.63 -33.72L135.27 -32.88L135.27 -32.88Q134.63 -35.09 134.63 -37.69L134.63 -37.69L134.63 -37.69Q134.63 -44.30 138.91 -48.27L138.91 -48.27L138.91 -48.27Q143.20 -52.25 150.09 -52.25L150.09 -52.25L150.09 -52.25Q156.84 -52.25 160.80 -48.40L160.80 -48.40L160.80 -48.40Q164.75 -44.55 164.75 -38.00L164.75 -38.00L164.75 -38.00Q164.75 -28.77 157.13 -19.52L157.13 -19.52L157.13 -19.52Q155.13 -17.09 153.42 -15.00L153.42 -15.00L153.42 -15.00Q151.72 -12.91 150.59 -11.08L150.59 -11.08L150.59 -11.08Q149.47 -9.25 149.47 -7.59L149.47 -7.59L149.47 -7.59Q149.47 -6.13 150.13 -5.38L150.13 -5.38L150.13 -5.38Q150.80 -4.64 152.34 -4.64L152.34 -4.64L152.34 -4.64Q155.66 -4.64 158.25 -8.55L158.25 -8.55L159.52 -10.30ZM200.52 -10.30L205.69 -7.45L205.69 -7.45Q202.80 -2.78 199.91 -0.87L199.91 -0.87L199.91 -0.87Q197.03 1.05 193.09 1.05L193.09 1.05L193.09 1.05Q190.05 1.05 188.08 -0.16L188.08 -0.16L188.08 -0.16Q186.11 -1.38 185.05 -3.33L185.05 -3.33L185.05 -3.33Q184.00 -5.28 184.00 -7.48L184.00 -7.48L184.00 -7.48Q184.00 -9.84 185.49 -12.45L185.49 -12.45L185.49 -12.45Q186.98 -15.05 191.45 -20.33L191.45 -20.33L191.45 -20.33Q195.11 -24.64 197.01 -28.88L197.01 -28.88L197.01 -28.88Q198.91 -33.13 198.91 -37.48L198.91 -37.48L198.91 -37.48Q198.91 -41.42 196.77 -43.81L196.77 -43.81L196.77 -43.81Q194.64 -46.20 190.98 -46.20L190.98 -46.20L190.98 -46.20Q186.67 -46.20 184.38 -44.09L184.38 -44.09L184.38 -44.09Q182.09 -41.98 182.09 -37.91L182.09 -37.91L182.09 -37.91Q182.09 -35.72 182.63 -33.72L182.63 -33.72L176.27 -32.88L176.27 -32.88Q175.63 -35.09 175.63 -37.69L175.63 -37.69L175.63 -37.69Q175.63 -44.30 179.91 -48.27L179.91 -48.27L179.91 -48.27Q184.20 -52.25 191.09 -52.25L191.09 -52.25L191.09 -52.25Q197.84 -52.25 201.80 -48.40L201.80 -48.40L201.80 -48.40Q205.75 -44.55 205.75 -38.00L205.75 -38.00L205.75 -38.00Q205.75 -32.28 202.84 -26.58L202.84 -26.58L211.28 -20.81L207.94 -16.11L199.92 -21.91L199.92 -21.91Q198.30 -19.63 196.61 -17.66L196.61 -17.66L196.61 -17.66Q194.92 -15.69 193.55 -13.93L193.55 -13.93L193.55 -13.93Q192.19 -12.17 191.33 -10.60L191.33 -10.60L191.33 -10.60Q190.47 -9.03 190.47 -7.59L190.47 -7.59L190.47 -7.59Q190.47 -6.13 191.13 -5.38L191.13 -5.38L191.13 -5.38Q191.80 -4.64 193.34 -4.64L193.34 -4.64L193.34 -4.64Q196.66 -4.64 199.25 -8.55L199.25 -8.55L200.52 -10.30ZM216.52 0.00L233.47 -51.75L239.97 -51.75L256.91 0.00L216.52 0.00ZM236.70 -43.48L225.38 -5.77L247.95 -5.77L236.70 -43.48ZM267.48 -45.64L267.48 -51.41L286.97 -51.41L303.91 0.00L263.52 0.00L278.56 -45.64L267.48 -45.64ZM283.70 -43.14L272.38 -5.77L294.95 -5.77L283.70 -43.14ZM310.52 -51.41L328.20 -51.41L328.20 -5.77L347.16 -5.77L347.16 0.00L321.73 0.00L321.73 -45.64L310.52 -45.64L310.52 -51.41Z"/></svg>