<svg xmlns="http://www.w3.org/2000/svg" viewBox="0 -70.2 449.77 70.20" height="100%"><path fill="currentColor" d="M27.07 -6.55L27.07 -6.55L27.07 -6.55Q22.18 -6.55 17.71 -8.86L17.71 -8.86L17.71 -8.86Q13.25 -11.16 9.32 -16.67L9.32 -16.67L9.32 -16.67Q5.40 -22.18 2.09 -31.82L2.09 -31.82L7.34 -33.55L7.34 -33.55Q11.16 -22.25 15.80 -17.14L15.80 -17.14L15.80 -17.14Q20.45 -12.02 27.22 -12.02L27.22 -12.02L27.22 -12.02Q33.12 -12.02 35.64 -14.80L35.64 -14.80L35.64 -14.80Q38.16 -17.57 38.16 -21.60L38.16 -21.60L38.16 -21.60Q38.16 -25.78 35.89 -28.37L35.89 -28.37L35.89 -28.37Q33.62 -30.96 30.24 -30.96L30.24 -30.96L30.24 -30.96Q25.42 -30.96 25.42 -26.78L25.42 -26.78L25.42 -26.78Q25.42 -26.21 25.56 -25.38L25.56 -25.38L25.56 -25.38Q25.70 -24.55 25.99 -23.83L25.99 -23.83L20.52 -22.75L20.52 -22.75Q20.02 -24.26 19.76 -25.52L19.76 -25.52L19.76 -25.52Q19.51 -26.78 19.51 -27.94L19.51 -27.94L19.51 -27.94Q19.51 -30.46 20.88 -32.22L20.88 -32.22L20.88 -32.22Q22.25 -33.98 24.41 -34.92L24.41 -34.92L24.41 -34.92Q23.76 -36.50 22.43 -37.73L22.43 -37.73L22.43 -37.73Q21.10 -38.95 18.86 -39.67L18.86 -39.67L-0.72 -39.67L-0.72 -44.78L65.02 -44.78L65.02 -39.67L57.46 -39.67L57.46 0.00L51.91 0.00L51.91 0.00Q49.90 -4.03 47.02 -7.09L47.02 -7.09L47.02 -7.09Q44.14 -10.15 40.90 -12.46L40.90 -12.46L40.90 -12.46Q38.88 -9.79 35.42 -8.17L35.42 -8.17L35.42 -8.17Q31.97 -6.55 27.07 -6.55ZM43.63 -21.17L43.63 -21.17L43.63 -21.17Q43.63 -19.01 43.06 -16.99L43.06 -16.99L43.06 -16.99Q45.65 -15.34 48.20 -12.85L48.20 -12.85L48.20 -12.85Q50.76 -10.37 52.13 -7.85L52.13 -7.85L52.13 -7.85Q51.98 -9.43 51.95 -10.84L51.95 -10.84L51.95 -10.84Q51.91 -12.24 51.91 -13.97L51.91 -13.97L51.91 -39.67L27.43 -39.67L27.43 -39.67Q29.23 -38.16 29.95 -36.00L29.95 -36.00L29.95 -36.00Q34.13 -35.93 37.19 -34.02L37.19 -34.02L37.19 -34.02Q40.25 -32.11 41.94 -28.80L41.94 -28.80L41.94 -28.80Q43.63 -25.49 43.63 -21.17ZM91.07 -6.55L91.07 -6.55L91.07 -6.55Q86.18 -6.55 81.71 -8.86L81.71 -8.86L81.71 -8.86Q77.25 -11.16 73.32 -16.67L73.32 -16.67L73.32 -16.67Q69.40 -22.18 66.09 -31.82L66.09 -31.82L71.34 -33.55L71.34 -33.55Q75.16 -22.25 79.80 -17.14L79.80 -17.14L79.80 -17.14Q84.45 -12.02 91.22 -12.02L91.22 -12.02L91.22 -12.02Q97.12 -12.02 99.64 -14.76L99.64 -14.76L99.64 -14.76Q102.16 -17.50 102.16 -21.60L102.16 -21.60L102.16 -21.60Q102.16 -25.78 99.89 -28.37L99.89 -28.37L99.89 -28.37Q97.62 -30.96 94.24 -30.96L94.24 -30.96L94.24 -30.96Q89.42 -30.96 89.42 -26.78L89.42 -26.78L89.42 -26.78Q89.42 -26.21 89.56 -25.38L89.56 -25.38L89.56 -25.38Q89.70 -24.55 89.99 -23.83L89.99 -23.83L84.52 -22.75L84.52 -22.75Q84.02 -24.26 83.76 -25.52L83.76 -25.52L83.76 -25.52Q83.51 -26.78 83.51 -27.94L83.51 -27.94L83.51 -27.94Q83.51 -30.46 84.88 -32.22L84.88 -32.22L84.88 -32.22Q86.25 -33.98 88.41 -34.92L88.41 -34.92L88.41 -34.92Q87.76 -36.50 86.43 -37.73L86.43 -37.73L86.43 -37.73Q85.10 -38.95 82.86 -39.67L82.86 -39.67L63.28 -39.67L63.28 -44.78L128.66 -44.78L128.66 -44.78L128.66 -44.78Q130.60 -44.78 132.36 -43.63L132.36 -43.63L132.36 -43.63Q134.13 -42.48 135.28 -40.25L135.28 -40.25L135.28 -40.25Q135.14 -40.61 135.06 -41.90L135.06 -41.90L135.06 -41.90Q134.99 -43.20 134.99 -44.14L134.99 -44.14L134.99 -49.54L138.81 -49.54L140.46 -44.78L148.10 -44.78L148.10 -39.67L140.54 -39.67L140.54 0.00L134.99 0.00L134.99 -34.49L134.99 -34.49Q133.77 -37.30 132.22 -38.48L132.22 -38.48L132.22 -38.48Q130.67 -39.67 128.58 -39.67L128.58 -39.67L121.46 -39.67L121.46 0.00L115.91 0.00L115.91 0.00Q113.90 -4.03 111.02 -7.09L111.02 -7.09L111.02 -7.09Q108.14 -10.15 104.90 -12.46L104.90 -12.46L104.90 -12.46Q102.88 -9.79 99.42 -8.17L99.42 -8.17L99.42 -8.17Q95.97 -6.55 91.07 -6.55ZM107.63 -21.17L107.63 -21.17L107.63 -21.17Q107.63 -19.01 107.06 -16.99L107.06 -16.99L107.06 -16.99Q109.65 -15.34 112.20 -12.85L112.20 -12.85L112.20 -12.85Q114.76 -10.37 116.13 -7.85L116.13 -7.85L116.13 -7.85Q115.98 -9.43 115.95 -10.84L115.95 -10.84L115.95 -10.84Q115.91 -12.24 115.91 -13.97L115.91 -13.97L115.91 -39.67L91.43 -39.67L91.43 -39.67Q93.23 -38.16 93.95 -36.00L93.95 -36.00L93.95 -36.00Q98.13 -35.93 101.19 -34.02L101.19 -34.02L101.19 -34.02Q104.25 -32.11 105.94 -28.80L105.94 -28.80L105.94 -28.80Q107.63 -25.49 107.63 -21.17ZM146.28 -44.78L172.78 -44.78L172.78 -44.78Q172.63 -47.74 171.34 -49.03L171.34 -49.03L171.34 -49.03Q170.04 -50.33 167.02 -50.33L167.02 -50.33L161.83 -50.33L161.83 -50.33Q157.08 -50.33 154.52 -50.98L154.52 -50.98L154.52 -50.98Q151.97 -51.62 150.17 -52.99L150.17 -52.99L150.17 -52.99Q146.28 -55.87 146.28 -61.85L146.28 -61.85L146.28 -61.85Q146.28 -62.78 146.39 -63.72L146.39 -63.72L146.39 -63.72Q146.50 -64.66 146.64 -65.66L146.64 -65.66L151.97 -65.30L151.97 -65.30Q151.82 -64.44 151.75 -63.76L151.75 -63.76L151.75 -63.76Q151.68 -63.07 151.68 -62.57L151.68 -62.57L151.68 -62.57Q151.68 -60.98 152.00 -59.76L152.00 -59.76L152.00 -59.76Q152.33 -58.54 153.05 -57.74L153.05 -57.74L153.05 -57.74Q154.06 -56.59 155.93 -56.05L155.93 -56.05L155.93 -56.05Q157.80 -55.51 161.40 -55.51L161.40 -55.51L165.50 -55.51L165.50 -55.51Q169.32 -55.51 171.55 -54.94L171.55 -54.94L171.55 -54.94Q173.78 -54.36 175.37 -52.85L175.37 -52.85L175.37 -52.85Q177.74 -50.54 177.96 -44.78L177.96 -44.78L185.88 -44.78L185.88 -39.67L162.19 -39.67L162.19 -39.67Q164.06 -38.16 164.78 -36.00L164.78 -36.00L164.78 -36.00Q170.33 -35.93 173.75 -33.98L173.75 -33.98L173.75 -33.98Q177.17 -32.04 178.79 -29.20L178.79 -29.20L178.79 -29.20Q180.41 -26.35 180.41 -23.40L180.41 -23.40L180.41 -23.40Q180.41 -18.00 176.88 -14.62L176.88 -14.62L176.88 -14.62Q173.35 -11.23 166.51 -10.37L166.51 -10.37L166.51 -10.37Q171.05 -8.78 176.12 -5.87L176.12 -5.87L176.12 -5.87Q181.20 -2.95 185.88 0.72L185.88 0.72L182.57 4.54L182.57 4.54Q178.10 1.22 174.40 -1.19L174.40 -1.19L174.40 -1.19Q170.69 -3.60 167.09 -5.40L167.09 -5.40L167.09 -5.40Q163.49 -7.20 159.46 -8.57L159.46 -8.57L159.46 -8.57Q155.42 -9.94 150.31 -11.09L150.31 -11.09L151.39 -16.06L151.39 -16.06Q153.91 -15.26 156.25 -14.98L156.25 -14.98L156.25 -14.98Q158.59 -14.69 161.90 -14.69L161.90 -14.69L161.90 -14.69Q167.02 -14.69 169.79 -15.91L169.79 -15.91L169.79 -15.91Q172.56 -17.14 173.64 -19.08L173.64 -19.08L173.64 -19.08Q174.72 -21.02 174.72 -23.04L174.72 -23.04L174.72 -23.04Q174.72 -26.86 171.91 -28.91L171.91 -28.91L171.91 -28.91Q169.10 -30.96 164.78 -30.96L164.78 -30.96L164.78 -30.96Q160.82 -30.96 159.24 -29.81L159.24 -29.81L159.24 -29.81Q157.66 -28.66 157.66 -26.64L157.66 -26.64L157.66 -26.64Q157.66 -26.06 157.80 -25.45L157.80 -25.45L157.80 -25.45Q157.94 -24.84 158.09 -24.34L158.09 -24.34L152.83 -23.26L152.83 -23.26Q152.04 -25.49 152.04 -27.65L152.04 -27.65L152.04 -27.65Q152.04 -30.60 153.91 -32.54L153.91 -32.54L153.91 -32.54Q155.78 -34.49 159.02 -35.35L159.02 -35.35L159.02 -35.35Q158.38 -36.79 157.04 -37.91L157.04 -37.91L157.04 -37.91Q155.71 -39.02 153.62 -39.67L153.62 -39.67L146.28 -39.67L146.28 -44.78ZM200.26 -6.55L200.26 -6.55L200.26 -6.55Q195.15 -6.55 190.90 -13.32L190.90 -13.32L195.08 -15.98L195.08 -15.98Q196.52 -13.68 197.53 -12.85L197.53 -12.85L197.53 -12.85Q198.54 -12.02 199.98 -12.02L199.98 -12.02L199.98 -12.02Q201.13 -12.02 202.35 -12.85L202.35 -12.85L202.35 -12.85Q203.58 -13.68 205.38 -16.06L205.38 -16.06L205.38 -16.06Q207.90 -19.44 207.90 -22.32L207.90 -22.32L207.90 -22.32Q207.90 -24.48 206.96 -26.50L206.96 -26.50L206.96 -26.50Q206.02 -28.51 204.19 -29.77L204.19 -29.77L204.19 -29.77Q202.35 -31.03 199.69 -31.03L199.69 -31.03L199.69 -31.03Q197.38 -31.03 196.30 -30.02L196.30 -30.02L196.30 -30.02Q195.22 -29.02 195.22 -27.43L195.22 -27.43L195.22 -27.43Q195.22 -26.57 195.44 -25.81L195.44 -25.81L195.44 -25.81Q195.66 -25.06 195.94 -24.26L195.94 -24.26L190.76 -23.04L190.76 -23.04Q190.04 -24.55 189.79 -25.92L189.79 -25.92L189.79 -25.92Q189.54 -27.29 189.54 -28.30L189.54 -28.30L189.54 -28.30Q189.54 -31.18 191.12 -32.87L191.12 -32.87L191.12 -32.87Q192.70 -34.56 195.08 -35.35L195.08 -35.35L195.08 -35.35Q194.43 -36.79 193.10 -37.91L193.10 -37.91L193.10 -37.91Q191.77 -39.02 189.68 -39.67L189.68 -39.67L184.28 -39.67L184.28 -44.78L219.42 -44.78L219.42 -44.78Q219.27 -47.74 217.98 -49.03L217.98 -49.03L217.98 -49.03Q216.68 -50.33 213.66 -50.33L213.66 -50.33L203.86 -50.33L203.86 -50.33Q199.11 -50.33 196.56 -50.98L196.56 -50.98L196.56 -50.98Q194.00 -51.62 192.20 -52.99L192.20 -52.99L192.20 -52.99Q188.31 -55.87 188.31 -61.85L188.31 -61.85L188.31 -61.85Q188.31 -62.78 188.42 -63.72L188.42 -63.72L188.42 -63.72Q188.53 -64.66 188.67 -65.66L188.67 -65.66L194.00 -65.30L194.00 -65.30Q193.86 -64.44 193.78 -63.76L193.78 -63.76L193.78 -63.76Q193.71 -63.07 193.71 -62.57L193.71 -62.57L193.71 -62.57Q193.71 -60.98 194.04 -59.76L194.04 -59.76L194.04 -59.76Q194.36 -58.54 195.08 -57.74L195.08 -57.74L195.08 -57.74Q196.09 -56.59 197.96 -56.05L197.96 -56.05L197.96 -56.05Q199.83 -55.51 203.43 -55.51L203.43 -55.51L212.07 -55.51L212.07 -55.51Q215.89 -55.51 218.19 -54.94L218.19 -54.94L218.19 -54.94Q220.50 -54.36 222.01 -52.85L222.01 -52.85L222.01 -52.85Q224.38 -50.54 224.60 -44.78L224.60 -44.78L235.33 -44.78L235.33 -39.67L198.25 -39.67L198.25 -39.67Q200.12 -38.09 200.84 -35.93L200.84 -35.93L200.84 -35.93Q205.88 -35.57 208.90 -32.62L208.90 -32.62L208.90 -32.62Q211.93 -29.66 212.58 -24.98L212.58 -24.98L212.58 -24.98Q214.59 -27.50 217.54 -29.88L217.54 -29.88L217.54 -29.88Q220.50 -32.26 224.89 -34.34L224.89 -34.34L230.00 -29.74L230.00 -29.74Q227.98 -25.99 227.12 -22.54L227.12 -22.54L227.12 -22.54Q226.26 -19.08 226.26 -14.47L226.26 -14.47L226.26 -14.47Q226.26 -11.02 226.87 -7.85L226.87 -7.85L226.87 -7.85Q227.48 -4.68 228.78 -0.72L228.78 -0.72L223.38 0.50L223.38 0.50Q222.15 -3.53 221.40 -7.45L221.40 -7.45L221.40 -7.45Q220.64 -11.38 220.64 -15.62L220.64 -15.62L220.64 -15.62Q220.64 -19.08 221.22 -22.14L221.22 -22.14L221.22 -22.14Q221.79 -25.20 223.16 -27.86L223.16 -27.86L223.16 -27.86Q221.36 -26.78 219.60 -25.31L219.60 -25.31L219.60 -25.31Q217.83 -23.83 215.74 -21.46L215.74 -21.46L215.74 -21.46Q213.66 -19.08 211.06 -15.34L211.06 -15.34L211.06 -15.34Q208.90 -12.10 207.28 -10.19L207.28 -10.19L207.28 -10.19Q205.66 -8.28 204.04 -7.42L204.04 -7.42L204.04 -7.42Q202.42 -6.55 200.26 -6.55ZM234.28 -44.78L271.58 -44.78L271.58 -44.78Q271.43 -47.74 270.14 -49.03L270.14 -49.03L270.14 -49.03Q268.84 -50.33 265.82 -50.33L265.82 -50.33L255.74 -50.33L255.74 -50.33Q251.06 -50.33 248.50 -50.98L248.50 -50.98L248.50 -50.98Q245.94 -51.62 244.14 -52.99L244.14 -52.99L244.14 -52.99Q240.26 -55.87 240.26 -61.85L240.26 -61.85L240.26 -61.85Q240.26 -62.78 240.36 -63.72L240.36 -63.72L240.36 -63.72Q240.47 -64.66 240.62 -65.66L240.62 -65.66L245.94 -65.30L245.94 -65.30Q245.80 -64.44 245.73 -63.76L245.73 -63.76L245.73 -63.76Q245.66 -63.07 245.66 -62.57L245.66 -62.57L245.66 -62.57Q245.66 -60.98 245.94 -59.76L245.94 -59.76L245.94 -59.76Q246.23 -58.54 247.02 -57.74L247.02 -57.74L247.02 -57.74Q248.03 -56.59 249.90 -56.05L249.90 -56.05L249.90 -56.05Q251.78 -55.51 255.38 -55.51L255.38 -55.51L264.30 -55.51L264.30 -55.51Q268.12 -55.51 270.35 -54.94L270.35 -54.94L270.35 -54.94Q272.58 -54.36 274.17 -52.85L274.17 -52.85L274.17 -52.85Q276.54 -50.54 276.76 -44.78L276.76 -44.78L286.98 -44.78L286.98 -39.67L260.63 -39.67L260.63 -26.78L260.63 -26.78Q260.63 -22.75 263.30 -22.75L263.30 -22.75L263.30 -22.75Q265.38 -22.75 267.69 -24.73L267.69 -24.73L267.69 -24.73Q269.99 -26.71 273.09 -31.18L273.09 -31.18L277.41 -31.82L277.41 -31.82Q279.71 -28.44 280.97 -24.84L280.97 -24.84L280.97 -24.84Q282.23 -21.24 282.23 -17.64L282.23 -17.64L282.23 -17.64Q282.23 -13.10 280.25 -9.50L280.25 -9.50L280.25 -9.50Q278.27 -5.90 274.42 -3.82L274.42 -3.82L274.42 -3.82Q270.57 -1.73 265.02 -1.73L265.02 -1.73L265.02 -1.73Q258.69 -1.73 253.50 -4.75L253.50 -4.75L253.50 -4.75Q248.32 -7.78 244.25 -14.76L244.25 -14.76L244.25 -14.76Q240.18 -21.74 237.09 -33.48L237.09 -33.48L242.56 -34.92L242.56 -34.92Q245.15 -24.91 248.28 -18.83L248.28 -18.83L248.28 -18.83Q251.42 -12.74 255.45 -9.97L255.45 -9.97L255.45 -9.97Q259.48 -7.20 264.74 -7.20L264.74 -7.20L264.74 -7.20Q270.42 -7.20 273.59 -10.08L273.59 -10.08L273.59 -10.08Q276.76 -12.96 276.76 -17.50L276.76 -17.50L276.76 -17.50Q276.76 -19.94 276.26 -21.85L276.26 -21.85L276.26 -21.85Q275.75 -23.76 274.82 -25.13L274.82 -25.13L274.82 -25.13Q272.01 -21.24 269.09 -19.33L269.09 -19.33L269.09 -19.33Q266.18 -17.42 263.37 -17.42L263.37 -17.42L263.37 -17.42Q259.91 -17.42 257.82 -19.30L257.82 -19.30L257.82 -19.30Q256.67 -20.30 255.88 -22.14L255.88 -22.14L255.88 -22.14Q255.09 -23.98 255.09 -28.30L255.09 -28.30L255.09 -39.67L234.28 -39.67L234.28 -44.78ZM285.28 -44.78L332.73 -44.78L332.73 -44.78Q332.66 -47.74 331.32 -49.03L331.32 -49.03L331.32 -49.03Q329.99 -50.33 326.97 -50.33L326.97 -50.33L313.65 -50.33L313.65 -50.33Q308.90 -50.33 306.34 -50.98L306.34 -50.98L306.34 -50.98Q303.78 -51.62 301.98 -52.99L301.98 -52.99L301.98 -52.99Q298.10 -55.87 298.10 -61.85L298.10 -61.85L298.10 -61.85Q298.10 -62.78 298.20 -63.72L298.20 -63.72L298.20 -63.72Q298.31 -64.66 298.46 -65.66L298.46 -65.66L303.78 -65.30L303.78 -65.30Q303.64 -64.51 303.57 -63.83L303.57 -63.83L303.57 -63.83Q303.50 -63.14 303.50 -62.57L303.50 -62.57L303.50 -62.57Q303.50 -60.98 303.82 -59.76L303.82 -59.76L303.82 -59.76Q304.14 -58.54 304.86 -57.74L304.86 -57.74L304.86 -57.74Q305.87 -56.59 307.74 -56.05L307.74 -56.05L307.74 -56.05Q309.62 -55.51 313.22 -55.51L313.22 -55.51L325.46 -55.51L325.46 -55.51Q329.27 -55.51 331.50 -54.94L331.50 -54.94L331.50 -54.94Q333.74 -54.36 335.32 -52.85L335.32 -52.85L335.32 -52.85Q337.70 -50.54 337.91 -44.78L337.91 -44.78L348.14 -44.78L348.14 -39.67L321.71 -39.67L321.71 -26.78L321.71 -26.78Q321.71 -22.75 324.38 -22.75L324.38 -22.75L324.38 -22.75Q326.46 -22.75 328.77 -24.73L328.77 -24.73L328.77 -24.73Q331.07 -26.71 334.17 -31.18L334.17 -31.18L338.49 -31.82L338.49 -31.82Q340.79 -28.44 342.05 -24.84L342.05 -24.84L342.05 -24.84Q343.31 -21.24 343.31 -17.64L343.31 -17.64L343.31 -17.64Q343.31 -13.25 341.44 -9.65L341.44 -9.65L341.44 -9.65Q339.57 -6.05 335.61 -3.89L335.61 -3.89L335.61 -3.89Q331.65 -1.73 325.46 -1.73L325.46 -1.73L325.46 -1.73Q317.54 -1.73 310.70 -4.39L310.70 -4.39L310.70 -4.39Q303.86 -7.06 298.17 -13.54L298.17 -13.54L298.17 -13.54Q292.48 -20.02 288.09 -31.32L288.09 -31.32L293.49 -32.98L293.49 -32.98Q295.36 -27.72 297.77 -23.11L297.77 -23.11L297.77 -23.11Q300.18 -18.50 303.75 -14.62L303.75 -14.62L303.75 -14.62Q307.31 -10.73 312.57 -7.63L312.57 -7.63L312.78 -7.85L312.78 -7.85Q309.76 -10.51 307.42 -14.40L307.42 -14.40L307.42 -14.40Q305.08 -18.29 303.32 -22.75L303.32 -22.75L303.32 -22.75Q301.55 -27.22 300.33 -31.68L300.33 -31.68L305.73 -33.19L305.73 -33.19Q308.18 -24.12 310.84 -18.40L310.84 -18.40L310.84 -18.40Q313.50 -12.67 317.14 -9.94L317.14 -9.94L317.14 -9.94Q320.78 -7.20 325.96 -7.20L325.96 -7.20L325.96 -7.20Q330.06 -7.20 332.69 -8.64L332.69 -8.64L332.69 -8.64Q335.32 -10.08 336.58 -12.42L336.58 -12.42L336.58 -12.42Q337.84 -14.76 337.84 -17.57L337.84 -17.57L337.84 -17.57Q337.84 -20.09 337.26 -22.00L337.26 -22.00L337.26 -22.00Q336.69 -23.90 335.90 -25.13L335.90 -25.13L335.90 -25.13Q333.59 -21.96 330.64 -19.69L330.64 -19.69L330.64 -19.69Q327.69 -17.42 324.45 -17.42L324.45 -17.42L324.45 -17.42Q320.99 -17.42 318.90 -19.30L318.90 -19.30L318.90 -19.30Q317.75 -20.30 316.96 -22.14L316.96 -22.14L316.96 -22.14Q316.17 -23.98 316.17 -28.30L316.17 -28.30L316.17 -39.67L285.28 -39.67L285.28 -44.78ZM360.18 -30.96L360.18 -30.96L360.18 -30.96Q355.78 -30.96 353.16 -33.19L353.16 -33.19L353.16 -33.19Q350.53 -35.42 350.53 -39.46L350.53 -39.46L350.53 -39.46Q350.53 -41.11 351.00 -42.62L351.00 -42.62L351.00 -42.62Q351.46 -44.14 352.11 -45.22L352.11 -45.22L357.58 -43.70L357.58 -43.70Q357.08 -42.91 356.72 -41.90L356.72 -41.90L356.72 -41.90Q356.36 -40.90 356.36 -39.74L356.36 -39.74L356.36 -39.74Q356.36 -37.87 357.40 -36.97L357.40 -36.97L357.40 -36.97Q358.45 -36.07 360.10 -36.07L360.10 -36.07L360.10 -36.07Q361.54 -36.07 363.13 -36.65L363.13 -36.65L363.13 -36.65Q364.71 -37.22 366.37 -38.95L366.37 -38.95L366.37 -38.95Q368.02 -40.68 369.75 -44.06L369.75 -44.06L373.93 -45.00L373.93 -45.00Q375.94 -43.06 378.03 -40.14L378.03 -40.14L378.03 -40.14Q380.12 -37.22 381.34 -34.42L381.34 -34.42L381.34 -49.54L385.16 -49.54L386.89 -44.78L386.89 -22.54L386.89 -22.54Q389.55 -20.95 392.29 -18.18L392.29 -18.18L392.29 -18.18Q395.02 -15.41 396.54 -12.82L396.54 -12.82L396.54 -12.82Q396.46 -14.04 396.39 -15.37L396.39 -15.37L396.39 -15.37Q396.32 -16.70 396.32 -18.50L396.32 -18.50L396.32 -49.54L400.14 -49.54L401.86 -44.78L401.86 -5.26L396.32 -5.26L396.32 -5.26Q394.59 -8.78 392.14 -11.63L392.14 -11.63L392.14 -11.63Q389.70 -14.47 386.89 -16.63L386.89 -16.63L386.89 0.00L381.34 0.00L381.34 0.00Q379.33 -3.82 375.84 -7.20L375.84 -7.20L375.84 -7.20Q372.34 -10.58 367.81 -12.96L367.81 -12.96L367.81 -12.96Q363.27 -15.34 358.16 -16.13L358.16 -16.13L355.35 -22.75L355.35 -22.75Q360.46 -25.70 365.94 -28.30L365.94 -28.30L365.94 -28.30Q371.41 -30.89 376.95 -32.90L376.95 -32.90L376.95 -32.90Q376.23 -34.34 375.15 -35.93L375.15 -35.93L375.15 -35.93Q374.07 -37.51 372.78 -38.88L372.78 -38.88L372.78 -38.88Q370.47 -35.42 367.34 -33.19L367.34 -33.19L367.34 -33.19Q364.21 -30.96 360.18 -30.96ZM381.34 -13.46L381.34 -28.94L381.34 -28.94Q376.66 -27.43 371.59 -25.20L371.59 -25.20L371.59 -25.20Q366.51 -22.97 362.05 -20.45L362.05 -20.45L362.05 -20.45Q365.36 -19.73 369.14 -17.93L369.14 -17.93L369.14 -17.93Q372.92 -16.13 376.23 -13.54L376.23 -13.54L376.23 -13.54Q379.54 -10.94 381.56 -7.78L381.56 -7.78L381.56 -7.78Q381.49 -9.00 381.42 -10.33L381.42 -10.33L381.42 -10.33Q381.34 -11.66 381.34 -13.46L381.34 -13.46ZM421.69 -22.68L421.69 -22.68L421.69 -22.68Q425.14 -22.68 427.81 -21.42L427.81 -21.42L427.81 -21.42Q430.47 -20.16 432.02 -18.00L432.02 -18.00L432.02 -18.00Q433.57 -15.84 433.57 -13.03L433.57 -13.03L433.57 -13.03Q433.57 -10.58 432.81 -8.75L432.81 -8.75L432.81 -8.75Q432.06 -6.91 430.54 -5.33L430.54 -5.33L430.54 -5.33Q436.81 -6.12 440.34 -8.78L440.34 -8.78L440.34 -8.78Q443.86 -11.45 443.86 -15.91L443.86 -15.91L443.86 -15.91Q443.86 -18.50 442.60 -20.48L442.60 -20.48L442.60 -20.48Q441.34 -22.46 438.03 -24.34L438.03 -24.34L438.03 -24.34Q434.72 -26.21 428.46 -28.37L428.46 -28.37L428.46 -28.37Q421.83 -30.67 418.16 -32.54L418.16 -32.54L418.16 -32.54Q414.49 -34.42 413.01 -36.50L413.01 -36.50L413.01 -36.50Q411.54 -38.59 411.54 -41.47L411.54 -41.47L411.54 -41.47Q411.54 -43.92 413.05 -46.22L413.05 -46.22L413.05 -46.22Q414.56 -48.53 417.15 -50.83L417.15 -50.83L421.04 -47.88L421.04 -47.88Q419.10 -46.08 418.23 -44.78L418.23 -44.78L418.23 -44.78Q417.37 -43.49 417.37 -42.34L417.37 -42.34L417.37 -42.34Q417.37 -41.26 417.80 -40.32L417.80 -40.32L417.80 -40.32Q418.23 -39.38 419.64 -38.38L419.64 -38.38L419.64 -38.38Q421.04 -37.37 423.88 -36.18L423.88 -36.18L423.88 -36.18Q426.73 -34.99 431.55 -33.41L431.55 -33.41L431.55 -33.41Q439.11 -30.96 443.04 -28.30L443.04 -28.30L443.04 -28.30Q446.96 -25.63 448.36 -22.61L448.36 -22.61L448.36 -22.61Q449.77 -19.58 449.77 -15.98L449.77 -15.98L449.77 -15.98Q449.77 -11.52 447.68 -8.50L447.68 -8.50L447.68 -8.50Q445.59 -5.47 442.03 -3.60L442.03 -3.60L442.03 -3.60Q438.46 -1.73 433.82 -0.86L433.82 -0.86L433.82 -0.86Q429.18 0.00 424.14 0.00L424.14 0.00L422.77 0.00L421.11 -4.90L421.11 -4.90Q424.42 -6.05 426.22 -7.78L426.22 -7.78L426.22 -7.78Q428.02 -9.50 428.02 -12.17L428.02 -12.17L428.02 -12.17Q428.02 -14.62 426.51 -16.13L426.51 -16.13L426.51 -16.13Q425.00 -17.64 421.90 -17.64L421.90 -17.64L421.90 -17.64Q419.24 -17.64 418.05 -16.63L418.05 -16.63L418.05 -16.63Q416.86 -15.62 416.86 -14.11L416.86 -14.11L416.86 -14.11Q416.86 -13.39 417.08 -12.53L417.08 -12.53L417.08 -12.53Q417.30 -11.66 417.66 -10.94L417.66 -10.94L412.26 -9.72L412.26 -9.72Q411.03 -12.38 411.03 -14.90L411.03 -14.90L411.03 -14.90Q411.03 -18.36 413.73 -20.52L413.73 -20.52L413.73 -20.52Q416.43 -22.68 421.69 -22.68Z"/></svg>