<svg xmlns="http://www.w3.org/2000/svg" viewBox="0 -77.8 349.41 77.80" height="100%"><path fill="currentColor" d="M13.44 -35.16L13.44 -35.16L13.44 -35.16Q13.44 -31.44 16.45 -27.64L16.45 -27.64L16.45 -27.64Q20.67 -31.25 20.67 -35.69L20.67 -35.69L20.67 -35.69Q20.67 -37.48 19.80 -38.77L19.80 -38.77L19.80 -38.77Q18.92 -40.05 17.23 -40.05L17.23 -40.05L17.23 -40.05Q15.47 -40.05 14.45 -38.66L14.45 -38.66L14.45 -38.66Q13.44 -37.27 13.44 -35.16ZM32.77 -14.73L14.17 -2.81L11.08 -7.39L24.22 -15.16L24.22 -15.16Q19.86 -18.45 16.91 -21.03L16.91 -21.03L16.91 -21.03Q13.25 -18.64 5.38 -15.02L5.38 -15.02L2.81 -20.11L2.81 -20.11Q9.25 -22.81 12.83 -25.00L12.83 -25.00L12.83 -25.00Q7.63 -30.73 7.63 -36.25L7.63 -36.25L7.63 -36.25Q7.63 -40.16 10.11 -42.65L10.11 -42.65L10.11 -42.65Q12.59 -45.14 16.53 -45.14L16.53 -45.14L16.53 -45.14Q19.48 -45.14 21.73 -43.75L21.73 -43.75L21.73 -43.75Q23.98 -42.36 25.23 -39.99L25.23 -39.99L25.23 -39.99Q26.47 -37.63 26.47 -34.98L26.47 -34.98L26.47 -34.98Q26.47 -28.77 20.39 -23.59L20.39 -23.59L20.39 -23.59Q23.17 -21.13 28.06 -17.44L28.06 -17.44L32.77 -20.25L32.77 -44.80L38.56 -44.80L38.56 0.00L32.77 0.00L32.77 -10.66L32.77 -10.66Q32.77 -14.14 32.94 -14.73L32.94 -14.73L32.77 -14.73ZM77.77 0.00L77.77 -10.66L77.77 -10.66Q77.77 -14.14 77.94 -14.73L77.94 -14.73L77.77 -14.73L59.17 -2.81L56.08 -7.39L69.22 -15.16L69.22 -15.16Q64.86 -18.45 61.91 -21.03L61.91 -21.03L61.91 -21.03Q58.25 -18.64 50.38 -15.02L50.38 -15.02L47.81 -20.11L47.81 -20.11Q54.25 -22.81 57.83 -25.00L57.83 -25.00L57.83 -25.00Q52.63 -30.73 52.63 -36.25L52.63 -36.25L52.63 -36.25Q52.63 -40.16 55.11 -42.65L55.11 -42.65L55.11 -42.65Q57.59 -45.14 61.53 -45.14L61.53 -45.14L61.53 -45.14Q64.48 -45.14 66.73 -43.75L66.73 -43.75L66.73 -43.75Q68.98 -42.36 70.23 -39.99L70.23 -39.99L70.23 -39.99Q71.47 -37.63 71.47 -34.98L71.47 -34.98L71.47 -34.98Q71.47 -28.77 65.39 -23.59L65.39 -23.59L65.39 -23.59Q68.17 -21.13 73.06 -17.44L73.06 -17.44L77.77 -20.25L77.77 -44.80L83.56 -44.80L83.56 0.00L77.77 0.00ZM95.52 0.00L95.52 -44.80L101.33 -44.80L101.33 0.00L95.52 0.00ZM58.44 -35.16L58.44 -35.16L58.44 -35.16Q58.44 -31.44 61.45 -27.64L61.45 -27.64L61.45 -27.64Q65.67 -31.25 65.67 -35.69L65.67 -35.69L65.67 -35.69Q65.67 -37.48 64.80 -38.77L64.80 -38.77L64.80 -38.77Q63.92 -40.05 62.23 -40.05L62.23 -40.05L62.23 -40.05Q60.47 -40.05 59.45 -38.66L59.45 -38.66L59.45 -38.66Q58.44 -37.27 58.44 -35.16ZM139.17 10.61L134.53 12.55L134.53 12.55Q131.47 4.81 128.91 -0.08L128.91 -0.08L128.91 -0.08Q126.80 0.34 124.55 0.34L124.55 0.34L124.55 0.34Q118.98 0.34 115.10 -2.30L115.10 -2.30L115.10 -2.30Q111.22 -4.95 111.22 -9.00L111.22 -9.00L111.22 -9.00Q111.22 -11.95 113.30 -13.87L113.30 -13.87L113.30 -13.87Q115.38 -15.78 118.42 -15.78L118.42 -15.78L118.42 -15.78Q125.25 -15.78 131.13 -6.47L131.13 -6.47L131.13 -6.47Q134.45 -8.58 134.45 -12.52L134.45 -12.52L134.45 -12.52Q134.45 -16.77 128.41 -19.97L128.41 -19.97L124.89 -21.88L124.89 -21.88Q120.89 -23.98 119.09 -25.63L119.09 -25.63L119.09 -25.63Q117.30 -27.28 116.30 -29.32L116.30 -29.32L116.30 -29.32Q115.30 -31.36 115.30 -34.00L115.30 -34.00L115.30 -34.00Q115.30 -39.34 119.77 -42.24L119.77 -42.24L119.77 -42.24Q124.23 -45.14 132.17 -45.14L132.17 -45.14L132.56 -40.05L132.56 -40.05Q127.14 -40.05 124.12 -38.32L124.12 -38.32L124.12 -38.32Q121.09 -36.59 121.09 -33.47L121.09 -33.47L121.09 -33.47Q121.09 -31.86 121.92 -30.59L121.92 -30.59L121.92 -30.59Q122.75 -29.33 124.09 -28.25L124.09 -28.25L124.09 -28.25Q125.42 -27.17 127.15 -26.21L127.15 -26.21L127.15 -26.21Q128.88 -25.25 130.68 -24.24L130.68 -24.24L130.68 -24.24Q132.48 -23.23 134.21 -22.09L134.21 -22.09L134.21 -22.09Q135.94 -20.95 137.27 -19.53L137.27 -19.53L137.27 -19.53Q138.61 -18.11 139.44 -16.30L139.44 -16.30L139.44 -16.30Q140.27 -14.48 140.27 -12.17L140.27 -12.17L140.27 -12.17Q140.27 -8.66 138.47 -6.03L138.47 -6.03L138.47 -6.03Q136.67 -3.41 133.75 -1.83L133.75 -1.83L133.75 -1.83Q135.86 2.25 139.17 10.61L139.17 10.61ZM124.19 -4.75L124.19 -4.75L126.13 -4.86L126.13 -4.86Q122.41 -10.34 119.17 -10.34L119.17 -10.34L119.17 -10.34Q118.11 -10.34 117.56 -9.73L117.56 -9.73L117.56 -9.73Q117.02 -9.11 117.02 -8.30L117.02 -8.30L117.02 -8.30Q117.02 -6.72 119.01 -5.73L119.01 -5.73L119.01 -5.73Q121.00 -4.75 124.19 -4.75ZM152.30 -34.00L152.30 -34.00L152.30 -34.00Q152.30 -38.05 154.88 -40.72L154.88 -40.72L154.88 -40.72Q157.47 -43.39 162.39 -44.47L162.39 -44.47L162.39 -44.47Q158.73 -46.86 156.73 -49.77L156.73 -49.77L156.73 -49.77Q154.72 -52.67 154.72 -55.58L154.72 -55.58L154.72 -55.58Q154.72 -59.20 157.36 -61.42L157.36 -61.42L157.36 -61.42Q160.00 -63.64 163.97 -63.64L163.97 -63.64L163.97 -63.64Q166.58 -63.64 169.23 -62.60L169.23 -62.60L169.23 -62.60Q171.88 -61.56 174.13 -59.56L174.13 -59.56L171.70 -56.33L171.70 -56.33Q167.94 -58.53 165.03 -58.53L165.03 -58.53L165.03 -58.53Q162.92 -58.53 161.73 -57.45L161.73 -57.45L161.73 -57.45Q160.53 -56.36 160.53 -54.56L160.53 -54.56L160.53 -54.56Q160.53 -49.30 169.06 -45.03L169.06 -45.03L169.56 -40.05L169.56 -40.05Q164.14 -40.05 161.12 -38.32L161.12 -38.32L161.12 -38.32Q158.09 -36.59 158.09 -33.47L158.09 -33.47L158.09 -33.47Q158.09 -31.86 158.92 -30.59L158.92 -30.59L158.92 -30.59Q159.75 -29.33 161.09 -28.25L161.09 -28.25L161.09 -28.25Q162.42 -27.17 164.15 -26.21L164.15 -26.21L164.15 -26.21Q165.88 -25.25 167.68 -24.24L167.68 -24.24L167.68 -24.24Q169.48 -23.23 171.21 -22.09L171.21 -22.09L171.21 -22.09Q172.94 -20.95 174.27 -19.53L174.27 -19.53L174.27 -19.53Q175.61 -18.11 176.44 -16.30L176.44 -16.30L176.44 -16.30Q177.27 -14.48 177.27 -12.17L177.27 -12.17L177.27 -12.17Q177.27 -8.66 175.47 -6.03L175.47 -6.03L175.47 -6.03Q173.67 -3.41 170.75 -1.83L170.75 -1.83L170.75 -1.83Q172.86 2.25 176.17 10.61L176.17 10.61L171.53 12.55L171.53 12.55Q168.47 4.81 165.91 -0.08L165.91 -0.08L165.91 -0.08Q163.80 0.34 161.55 0.34L161.55 0.34L161.55 0.34Q155.98 0.34 152.10 -2.30L152.10 -2.30L152.10 -2.30Q148.22 -4.95 148.22 -9.00L148.22 -9.00L148.22 -9.00Q148.22 -11.95 150.30 -13.87L150.30 -13.87L150.30 -13.87Q152.38 -15.78 155.42 -15.78L155.42 -15.78L155.42 -15.78Q162.25 -15.78 168.13 -6.47L168.13 -6.47L168.13 -6.47Q171.45 -8.58 171.45 -12.52L171.45 -12.52L171.45 -12.52Q171.45 -16.77 165.41 -19.97L165.41 -19.97L161.89 -21.88L161.89 -21.88Q157.89 -23.98 156.09 -25.63L156.09 -25.63L156.09 -25.63Q154.30 -27.28 153.30 -29.32L153.30 -29.32L153.30 -29.32Q152.30 -31.36 152.30 -34.00ZM161.19 -4.75L161.19 -4.75L163.13 -4.86L163.13 -4.86Q159.41 -10.34 156.17 -10.34L156.17 -10.34L156.17 -10.34Q155.11 -10.34 154.56 -9.73L154.56 -9.73L154.56 -9.73Q154.02 -9.11 154.02 -8.30L154.02 -8.30L154.02 -8.30Q154.02 -6.72 156.01 -5.73L156.01 -5.73L156.01 -5.73Q158.00 -4.75 161.19 -4.75ZM193.66 -19.97L192.11 -24.72L192.11 -24.72Q198.94 -26.02 201.48 -27.18L201.48 -27.18L201.48 -27.18Q204.03 -28.34 205.31 -30.08L205.31 -30.08L205.31 -30.08Q206.59 -31.81 206.59 -34.59L206.59 -34.59L206.59 -34.59Q206.59 -37.20 204.89 -38.78L204.89 -38.78L204.89 -38.78Q203.19 -40.36 200.38 -40.36L200.38 -40.36L200.38 -40.36Q198.41 -40.36 196.63 -39.70L196.63 -39.70L196.63 -39.70Q194.86 -39.03 191.63 -36.84L191.63 -36.84L188.98 -41.06L188.98 -41.06Q194.67 -45.14 199.95 -45.14L199.95 -45.14L199.95 -45.14Q205.50 -45.14 208.95 -41.91L208.95 -41.91L208.95 -41.91Q212.39 -38.67 212.39 -33.72L212.39 -33.72L212.39 -33.72Q212.39 -27.84 207.09 -24.44L207.09 -24.44L207.09 -24.44Q210.95 -21.55 212.64 -18.51L212.64 -18.51L212.64 -18.51Q214.33 -15.47 214.33 -11.78L214.33 -11.78L214.33 -11.78Q214.33 -6.50 210.59 -3.08L210.59 -3.08L210.59 -3.08Q206.84 0.34 201.14 0.34L201.14 0.34L201.14 0.34Q196.13 0.34 191.71 -2.75L191.71 -2.75L191.71 -2.75Q187.30 -5.84 183.47 -12.38L183.47 -12.38L187.08 -14.73L187.08 -14.73Q190.08 -10.41 191.91 -8.63L191.91 -8.63L191.91 -8.63Q193.73 -6.86 195.82 -5.80L195.82 -5.80L195.82 -5.80Q197.91 -4.75 200.44 -4.75L200.44 -4.75L200.44 -4.75Q203.89 -4.75 206.20 -6.91L206.20 -6.91L206.20 -6.91Q208.50 -9.08 208.50 -12.48L208.50 -12.48L208.50 -12.48Q208.50 -15.33 207.25 -17.73L207.25 -17.73L207.25 -17.73Q206.00 -20.14 202.91 -22.36L202.91 -22.36L202.91 -22.36Q199.03 -20.95 193.66 -19.97L193.66 -19.97ZM229.66 -19.97L228.11 -24.72L228.11 -24.72Q234.94 -26.02 237.48 -27.18L237.48 -27.18L237.48 -27.18Q240.03 -28.34 241.31 -30.08L241.31 -30.08L241.31 -30.08Q242.59 -31.81 242.59 -34.59L242.59 -34.59L242.59 -34.59Q242.59 -37.20 240.89 -38.78L240.89 -38.78L240.89 -38.78Q239.19 -40.36 236.38 -40.36L236.38 -40.36L236.38 -40.36Q234.41 -40.36 232.63 -39.70L232.63 -39.70L232.63 -39.70Q230.86 -39.03 227.63 -36.84L227.63 -36.84L224.98 -41.06L224.98 -41.06Q230.67 -45.14 235.95 -45.14L235.95 -45.14L235.95 -45.14Q241.50 -45.14 244.95 -41.91L244.95 -41.91L244.95 -41.91Q248.39 -38.67 248.39 -33.72L248.39 -33.72L248.39 -33.72Q248.39 -30.94 247.23 -28.77L247.23 -28.77L247.23 -28.77Q250.02 -29.70 252.66 -29.70L252.66 -29.70L252.66 -29.70Q258.70 -29.70 262.23 -26.17L262.23 -26.17L262.23 -26.17Q265.77 -22.64 265.77 -16.95L265.77 -16.95L265.77 -16.95Q265.77 -12.63 264.43 -8.51L264.43 -8.51L264.43 -8.51Q263.09 -4.39 260.98 -0.17L260.98 -0.17L255.25 -1.97L255.25 -1.97Q259.97 -11.05 259.97 -17.23L259.97 -17.23L259.97 -17.23Q259.97 -20.84 258.14 -22.73L258.14 -22.73L258.14 -22.73Q256.31 -24.61 253.00 -24.61L253.00 -24.61L253.00 -24.61Q249.14 -24.61 244.53 -23.31L244.53 -23.31L244.53 -23.31Q247.34 -20.95 248.84 -18.20L248.84 -18.20L248.84 -18.20Q250.33 -15.44 250.33 -11.78L250.33 -11.78L250.33 -11.78Q250.33 -6.50 246.59 -3.08L246.59 -3.08L246.59 -3.08Q242.84 0.34 237.14 0.34L237.14 0.34L237.14 0.34Q232.13 0.34 227.71 -2.75L227.71 -2.75L227.71 -2.75Q223.30 -5.84 219.47 -12.38L219.47 -12.38L223.08 -14.73L223.08 -14.73Q226.08 -10.41 227.91 -8.63L227.91 -8.63L227.91 -8.63Q229.73 -6.86 231.82 -5.80L231.82 -5.80L231.82 -5.80Q233.91 -4.75 236.44 -4.75L236.44 -4.75L236.44 -4.75Q239.89 -4.75 242.20 -6.91L242.20 -6.91L242.20 -6.91Q244.50 -9.08 244.50 -12.48L244.50 -12.48L244.50 -12.48Q244.50 -15.33 243.25 -17.73L243.25 -17.73L243.25 -17.73Q242.00 -20.14 238.91 -22.36L238.91 -22.36L238.91 -22.36Q235.03 -20.95 229.66 -19.97L229.66 -19.97ZM303.98 -44.80L303.98 -24.27L303.98 -24.27Q303.98 -19.27 301.13 -16.38L301.13 -16.38L301.13 -16.38Q298.28 -13.50 293.50 -13.50L293.50 -13.50L293.50 -13.50Q289.67 -13.50 286.45 -15.02L286.45 -15.02L286.45 -15.02Q283.23 -16.53 280.08 -19.27L280.08 -19.27L280.08 -19.27Q280.25 -15.58 281.52 -12.59L281.52 -12.59L281.52 -12.59Q282.78 -9.59 285.23 -7.09L285.23 -7.09L285.23 -7.09Q287.67 -4.58 291.91 -2.02L291.91 -2.02L291.91 -2.02Q296.14 0.53 308.55 6.16L308.55 6.16L306.30 10.66L306.30 10.66Q295.09 5.69 290.96 3.41L290.96 3.41L290.96 3.41Q286.83 1.13 283.75 -1.30L283.75 -1.30L283.75 -1.30Q280.67 -3.73 278.60 -6.62L278.60 -6.62L278.60 -6.62Q276.53 -9.50 275.41 -13.03L275.41 -13.03L275.41 -13.03Q274.28 -16.56 274.28 -21.13L274.28 -21.13L274.28 -44.80L280.08 -44.80L280.08 -25.31L280.08 -25.31Q286.80 -18.59 292.59 -18.59L292.59 -18.59L292.59 -18.59Q298.19 -18.59 298.19 -25.20L298.19 -25.20L298.19 -44.80L303.98 -44.80ZM344.84 -44.80L344.84 -24.27L344.84 -24.27Q344.84 -19.27 341.99 -16.38L341.99 -16.38L341.99 -16.38Q339.14 -13.50 334.36 -13.50L334.36 -13.50L334.36 -13.50Q330.53 -13.50 327.31 -15.02L327.31 -15.02L327.31 -15.02Q324.09 -16.53 320.94 -19.27L320.94 -19.27L320.94 -19.27Q321.11 -15.58 322.38 -12.59L322.38 -12.59L322.38 -12.59Q323.64 -9.59 326.09 -7.09L326.09 -7.09L326.09 -7.09Q328.53 -4.58 332.77 -2.02L332.77 -2.02L332.77 -2.02Q337.00 0.53 349.41 6.16L349.41 6.16L347.16 10.66L347.16 10.66Q335.95 5.69 331.82 3.41L331.82 3.41L331.82 3.41Q327.69 1.13 324.61 -1.30L324.61 -1.30L324.61 -1.30Q321.53 -3.73 319.46 -6.62L319.46 -6.62L319.46 -6.62Q317.39 -9.50 316.27 -13.03L316.27 -13.03L316.27 -13.03Q315.14 -16.56 315.14 -21.13L315.14 -21.13L315.14 -44.80L320.94 -44.80L320.94 -25.31L320.94 -25.31Q327.66 -18.59 333.45 -18.59L333.45 -18.59L333.45 -18.59Q339.05 -18.59 339.05 -25.20L339.05 -25.20L339.05 -44.80L344.84 -44.80ZM312.11 -60.05L314.61 -65.25L344.77 -52.34L342.91 -48.52L312.11 -60.05Z"/></svg>