<svg xmlns="http://www.w3.org/2000/svg" viewBox="0 -40.03 483.74 40.03" height="100%"><path fill="currentColor" d="M16.92 -3.89L13.25 0.72L13.25 0.72Q10.66 -1.01 8.53 -3.96L8.53 -3.96L8.53 -3.96Q6.41 -6.91 5.18 -10.66L5.18 -10.66L5.18 -10.66Q3.96 -14.40 3.96 -18.58L3.96 -18.58L3.96 -18.58Q3.96 -24.77 6.59 -29.41L6.59 -29.41L6.59 -29.41Q9.22 -34.06 13.75 -36.68L13.75 -36.68L13.75 -36.68Q18.29 -39.31 23.90 -39.31L23.90 -39.31L23.90 -39.31Q29.38 -39.31 33.55 -36.97L33.55 -36.97L33.55 -36.97Q37.73 -34.63 40.32 -30.67L40.32 -30.67L40.32 -30.67Q43.13 -34.92 47.41 -37.12L47.41 -37.12L47.41 -37.12Q51.70 -39.31 57.02 -39.31L57.02 -39.31L57.02 -39.31Q63.22 -39.31 67.68 -36.65L67.68 -36.65L67.68 -36.65Q72.14 -33.98 74.56 -29.45L74.56 -29.45L74.56 -29.45Q76.97 -24.91 76.97 -19.30L76.97 -19.30L76.97 -19.30Q76.97 -13.25 74.56 -8.75L74.56 -8.75L74.56 -8.75Q72.14 -4.25 67.97 -1.80L67.97 -1.80L67.97 -1.80Q63.79 0.65 58.39 0.65L58.39 0.65L58.39 0.65Q55.08 0.65 52.67 0.22L52.67 0.22L52.67 0.22Q50.26 -0.22 48.24 -1.22L48.24 -1.22L50.54 -5.98L50.54 -5.98Q53.28 -4.61 57.31 -4.61L57.31 -4.61L57.31 -4.61Q63.22 -4.61 66.82 -8.57L66.82 -8.57L66.82 -8.57Q70.42 -12.53 70.42 -19.15L70.42 -19.15L70.42 -19.15Q70.42 -25.78 66.96 -29.84L66.96 -29.84L66.96 -29.84Q63.50 -33.91 57.10 -33.91L57.10 -33.91L57.10 -33.91Q52.42 -33.91 49.10 -31.39L49.10 -31.39L49.10 -31.39Q45.79 -28.87 42.98 -24.41L42.98 -24.41L42.98 -24.41Q43.70 -21.60 43.70 -18.58L43.70 -18.58L43.70 -18.58Q43.70 -11.81 41.08 -6.95L41.08 -6.95L41.08 -6.95Q38.45 -2.09 34.42 0.72L34.42 0.72L30.74 -3.89L30.74 -3.89Q33.84 -6.41 35.50 -10.01L35.50 -10.01L35.50 -10.01Q37.15 -13.61 37.15 -18.43L37.15 -18.43L37.15 -18.43Q37.15 -25.56 33.52 -29.74L33.52 -29.74L33.52 -29.74Q29.88 -33.91 23.90 -33.91L23.90 -33.91L23.90 -33.91Q17.86 -33.91 14.18 -29.77L14.18 -29.77L14.18 -29.77Q10.51 -25.63 10.51 -18.43L10.51 -18.43L10.51 -18.43Q10.51 -13.61 12.17 -10.01L12.17 -10.01L12.17 -10.01Q13.82 -6.41 16.92 -3.89L16.92 -3.89ZM104.40 0.72L104.40 0.72L104.40 0.72Q99.58 0.72 95.54 -0.97L95.54 -0.97L95.54 -0.97Q91.51 -2.66 88.70 -5.76L88.70 -5.76L88.70 -5.76Q85.90 -8.86 84.74 -13.10L84.74 -13.10L84.74 -13.10Q89.71 -16.42 94.14 -17.89L94.14 -17.89L94.14 -17.89Q98.57 -19.37 103.25 -19.37L103.25 -19.37L103.25 -19.37Q107.93 -19.37 111.78 -18.04L111.78 -18.04L111.78 -18.04Q115.63 -16.70 118.51 -14.47L118.51 -14.47L118.51 -14.47Q119.16 -16.85 119.16 -19.44L119.16 -19.44L119.16 -19.44Q119.16 -23.83 117.32 -27.11L117.32 -27.11L117.32 -27.11Q115.49 -30.38 112.21 -32.18L112.21 -32.18L112.21 -32.18Q108.94 -33.98 104.54 -33.98L104.54 -33.98L104.54 -33.98Q99.79 -33.98 96.08 -31.72L96.08 -31.72L96.08 -31.72Q92.38 -29.45 90.36 -24.98L90.36 -24.98L85.32 -27.58L85.32 -27.58Q87.34 -32.83 92.45 -36.07L92.45 -36.07L92.45 -36.07Q97.56 -39.31 104.40 -39.31L104.40 -39.31L104.40 -39.31Q110.95 -39.31 115.70 -36.65L115.70 -36.65L115.70 -36.65Q120.46 -33.98 123.08 -29.48L123.08 -29.48L123.08 -29.48Q125.71 -24.98 125.71 -19.37L125.71 -19.37L125.71 -19.37Q125.71 -13.75 123.12 -9.18L123.12 -9.18L123.12 -9.18Q120.53 -4.61 115.74 -1.94L115.74 -1.94L115.74 -1.94Q110.95 0.72 104.40 0.72ZM91.58 -11.09L91.58 -11.09L91.58 -11.09Q93.74 -7.85 97.09 -6.23L97.09 -6.23L97.09 -6.23Q100.44 -4.61 104.62 -4.61L104.62 -4.61L104.62 -4.61Q108.79 -4.61 111.64 -6.05L111.64 -6.05L111.64 -6.05Q114.48 -7.49 116.21 -9.79L116.21 -9.79L116.21 -9.79Q113.83 -11.74 110.59 -12.92L110.59 -12.92L110.59 -12.92Q107.35 -14.11 103.03 -14.11L103.03 -14.11L103.03 -14.11Q99.79 -14.11 96.91 -13.21L96.91 -13.21L96.91 -13.21Q94.03 -12.31 91.58 -11.09ZM146.92 -3.89L143.25 0.72L143.25 0.72Q140.66 -1.01 138.53 -3.96L138.53 -3.96L138.53 -3.96Q136.41 -6.91 135.18 -10.66L135.18 -10.66L135.18 -10.66Q133.96 -14.40 133.96 -18.58L133.96 -18.58L133.96 -18.58Q133.96 -24.70 136.59 -29.38L136.59 -29.38L136.59 -29.38Q139.22 -34.06 143.79 -36.68L143.79 -36.68L143.79 -36.68Q148.36 -39.31 154.12 -39.31L154.12 -39.31L154.12 -39.31Q159.95 -39.31 164.49 -36.65L164.49 -36.65L164.49 -36.65Q169.02 -33.98 171.58 -29.30L171.58 -29.30L171.58 -29.30Q174.14 -24.62 174.14 -18.58L174.14 -18.58L174.14 -18.58Q174.14 -14.62 172.91 -10.87L172.91 -10.87L172.91 -10.87Q171.69 -7.13 169.60 -4.07L169.60 -4.07L169.60 -4.07Q167.51 -1.01 164.85 0.72L164.85 0.72L161.18 -3.89L161.18 -3.89Q164.27 -6.41 165.93 -10.01L165.93 -10.01L165.93 -10.01Q167.58 -13.61 167.58 -18.43L167.58 -18.43L167.58 -18.43Q167.58 -23.33 165.86 -26.78L165.86 -26.78L165.86 -26.78Q164.13 -30.24 161.10 -32.11L161.10 -32.11L161.10 -32.11Q158.08 -33.98 154.12 -33.98L154.12 -33.98L154.12 -33.98Q150.16 -33.98 147.06 -32.11L147.06 -32.11L147.06 -32.11Q143.97 -30.24 142.24 -26.75L142.24 -26.75L142.24 -26.75Q140.51 -23.26 140.51 -18.43L140.51 -18.43L140.51 -18.43Q140.51 -13.61 142.17 -10.01L142.17 -10.01L142.17 -10.01Q143.82 -6.41 146.92 -3.89L146.92 -3.89ZM201.33 0.72L201.33 0.72L201.33 0.72Q195.64 0.72 191.43 -1.19L191.43 -1.19L191.43 -1.19Q187.22 -3.10 184.88 -6.52L184.88 -6.52L184.88 -6.52Q182.54 -9.94 182.54 -14.40L182.54 -14.40L182.54 -14.40Q182.54 -18.14 184.16 -21.17L184.16 -21.17L184.16 -21.17Q185.78 -24.19 188.80 -26.50L188.80 -26.50L188.80 -26.50Q190.53 -27.79 191.46 -28.91L191.46 -28.91L191.46 -28.91Q192.40 -30.02 192.40 -31.46L192.40 -31.46L192.40 -31.46Q192.40 -32.47 191.68 -33.23L191.68 -33.23L191.68 -33.23Q190.96 -33.98 189.74 -33.98L189.74 -33.98L189.74 -33.98Q188.66 -33.98 187.65 -33.37L187.65 -33.37L187.65 -33.37Q186.64 -32.76 185.42 -31.32L185.42 -31.32L181.82 -34.99L181.82 -34.99Q183.98 -37.30 185.74 -38.30L185.74 -38.30L185.74 -38.30Q187.50 -39.31 190.24 -39.31L190.24 -39.31L190.24 -39.31Q192.90 -39.31 194.78 -38.16L194.78 -38.16L194.78 -38.16Q196.65 -37.01 197.62 -35.28L197.62 -35.28L197.62 -35.28Q198.59 -33.55 198.59 -31.82L198.59 -31.82L198.59 -31.82Q198.59 -30.24 198.27 -28.98L198.27 -28.98L198.27 -28.98Q197.94 -27.72 196.97 -26.42L196.97 -26.42L196.97 -26.42Q196.00 -25.13 193.98 -23.40L193.98 -23.40L193.98 -23.40Q191.03 -20.81 190.02 -18.76L190.02 -18.76L190.02 -18.76Q189.02 -16.70 189.02 -14.40L189.02 -14.40L189.02 -14.40Q189.02 -10.22 192.29 -7.42L192.29 -7.42L192.29 -7.42Q195.57 -4.61 201.83 -4.61L201.83 -4.61L201.83 -4.61Q205.65 -4.61 208.64 -6.48L208.64 -6.48L208.64 -6.48Q211.62 -8.35 213.35 -11.84L213.35 -11.84L213.35 -11.84Q215.08 -15.34 215.08 -20.16L215.08 -20.16L215.08 -20.16Q215.08 -25.06 213.42 -28.62L213.42 -28.62L213.42 -28.62Q211.77 -32.18 208.67 -34.70L208.67 -34.70L212.34 -39.31L212.34 -39.31Q216.74 -36.22 219.18 -30.96L219.18 -30.96L219.18 -30.96Q221.63 -25.70 221.63 -20.02L221.63 -20.02L221.63 -20.02Q221.63 -16.92 220.98 -14.11L220.98 -14.11L220.98 -14.11Q223.58 -9.58 227.32 -7.09L227.32 -7.09L227.32 -7.09Q231.06 -4.61 235.24 -4.61L235.24 -4.61L235.24 -4.61Q241.36 -4.61 244.92 -8.68L244.92 -8.68L244.92 -8.68Q248.49 -12.74 248.49 -19.44L248.49 -19.44L248.49 -19.44Q248.49 -26.14 244.89 -30.06L244.89 -30.06L244.89 -30.06Q241.29 -33.98 235.38 -33.98L235.38 -33.98L235.38 -33.98Q231.35 -33.98 228.54 -32.69L228.54 -32.69L226.24 -37.44L226.24 -37.44Q228.26 -38.45 230.67 -38.88L230.67 -38.88L230.67 -38.88Q233.08 -39.31 236.39 -39.31L236.39 -39.31L236.39 -39.31Q241.79 -39.31 246.00 -36.83L246.00 -36.83L246.00 -36.83Q250.22 -34.34 252.63 -29.84L252.63 -29.84L252.63 -29.84Q255.04 -25.34 255.04 -19.30L255.04 -19.30L255.04 -19.30Q255.04 -13.68 252.59 -9.14L252.59 -9.14L252.59 -9.14Q250.14 -4.61 245.68 -1.94L245.68 -1.94L245.68 -1.94Q241.22 0.72 235.10 0.72L235.10 0.72L235.10 0.72Q229.84 0.72 225.48 -1.44L225.48 -1.44L225.48 -1.44Q221.13 -3.60 218.32 -7.78L218.32 -7.78L218.32 -7.78Q215.73 -3.74 211.34 -1.51L211.34 -1.51L211.34 -1.51Q206.94 0.72 201.33 0.72ZM283.55 0.72L283.55 0.72L283.55 0.72Q277.07 0.72 272.46 -1.87L272.46 -1.87L272.46 -1.87Q267.86 -4.46 265.41 -9.00L265.41 -9.00L265.41 -9.00Q262.96 -13.54 262.96 -19.37L262.96 -19.37L262.96 -19.37Q262.96 -25.06 265.52 -29.56L265.52 -29.56L265.52 -29.56Q268.07 -34.06 272.68 -36.68L272.68 -36.68L272.68 -36.68Q277.29 -39.31 283.55 -39.31L283.55 -39.31L283.55 -39.31Q287.80 -39.31 291.51 -37.84L291.51 -37.84L291.51 -37.84Q295.22 -36.36 297.92 -33.73L297.92 -33.73L297.92 -33.73Q300.62 -31.10 301.84 -27.58L301.84 -27.58L296.80 -24.98L296.80 -24.98Q294.93 -29.45 291.40 -31.72L291.40 -31.72L291.40 -31.72Q287.87 -33.98 283.41 -33.98L283.41 -33.98L283.41 -33.98Q279.16 -33.98 276.03 -32.15L276.03 -32.15L276.03 -32.15Q272.90 -30.31 271.20 -27.04L271.20 -27.04L271.20 -27.04Q269.51 -23.76 269.51 -19.44L269.51 -19.44L269.51 -19.44Q269.51 -15.12 271.31 -11.77L271.31 -11.77L271.31 -11.77Q273.11 -8.42 276.24 -6.52L276.24 -6.52L276.24 -6.52Q279.38 -4.61 283.41 -4.61L283.41 -4.61L283.41 -4.61Q287.87 -4.61 291.40 -6.88L291.40 -6.88L291.40 -6.88Q294.93 -9.14 296.80 -13.61L296.80 -13.61L301.84 -11.02L301.84 -11.02Q300.62 -7.49 297.92 -4.86L297.92 -4.86L297.92 -4.86Q295.22 -2.23 291.51 -0.76L291.51 -0.76L291.51 -0.76Q287.80 0.72 283.55 0.72ZM330.05 0.72L330.05 0.72L330.05 0.72Q323.93 0.72 319.43 -1.91L319.43 -1.91L319.43 -1.91Q314.93 -4.54 312.44 -9.04L312.44 -9.04L312.44 -9.04Q309.96 -13.54 309.96 -19.30L309.96 -19.30L309.96 -19.30Q309.96 -24.98 312.44 -29.52L312.44 -29.52L312.44 -29.52Q314.93 -34.06 319.50 -36.68L319.50 -36.68L319.50 -36.68Q324.07 -39.31 330.26 -39.31L330.26 -39.31L330.26 -39.31Q336.38 -39.31 340.96 -36.72L340.96 -36.72L340.96 -36.72Q345.53 -34.13 348.05 -29.59L348.05 -29.59L348.05 -29.59Q350.57 -25.06 350.57 -19.30L350.57 -19.30L350.57 -19.30Q350.57 -13.39 347.94 -8.89L347.94 -8.89L347.94 -8.89Q345.31 -4.39 340.70 -1.84L340.70 -1.84L340.70 -1.84Q336.10 0.72 330.05 0.72ZM330.05 -4.54L330.05 -4.54L330.05 -4.54Q334.22 -4.54 337.39 -6.37L337.39 -6.37L337.39 -6.37Q340.56 -8.21 342.29 -11.52L342.29 -11.52L342.29 -11.52Q344.02 -14.83 344.02 -19.15L344.02 -19.15L344.02 -19.15Q344.02 -25.85 340.24 -29.92L340.24 -29.92L340.24 -29.92Q336.46 -33.98 330.12 -33.98L330.12 -33.98L330.12 -33.98Q327.17 -33.98 324.50 -32.90L324.50 -32.90L324.50 -32.90Q327.10 -30.31 328.75 -26.93L328.75 -26.93L328.75 -26.93Q330.41 -23.54 330.41 -19.08L330.41 -19.08L330.41 -19.08Q330.41 -14.83 328.86 -11.48L328.86 -11.48L328.86 -11.48Q327.31 -8.14 324.79 -5.54L324.79 -5.54L324.79 -5.54Q327.31 -4.54 330.05 -4.54ZM315.79 -19.15L315.79 -19.15L315.79 -19.15Q315.79 -15.84 316.98 -13.10L316.98 -13.10L316.98 -13.10Q318.17 -10.37 320.18 -8.42L320.18 -8.42L320.18 -8.42Q324.58 -12.67 324.58 -19.08L324.58 -19.08L324.58 -19.08Q324.58 -22.10 323.46 -24.84L323.46 -24.84L323.46 -24.84Q322.34 -27.58 320.04 -29.95L320.04 -29.95L320.04 -29.95Q318.02 -27.94 316.91 -25.16L316.91 -25.16L316.91 -25.16Q315.79 -22.39 315.79 -19.15ZM378.40 0.72L378.40 0.72L378.40 0.72Q373.58 0.72 369.54 -0.97L369.54 -0.97L369.54 -0.97Q365.51 -2.66 362.70 -5.76L362.70 -5.76L362.70 -5.76Q359.90 -8.86 358.74 -13.10L358.74 -13.10L358.74 -13.10Q363.71 -16.42 368.14 -17.89L368.14 -17.89L368.14 -17.89Q372.57 -19.37 377.25 -19.37L377.25 -19.37L377.25 -19.37Q381.93 -19.37 385.78 -18.04L385.78 -18.04L385.78 -18.04Q389.63 -16.70 392.51 -14.47L392.51 -14.47L392.51 -14.47Q393.16 -16.85 393.16 -19.44L393.16 -19.44L393.16 -19.44Q393.16 -23.83 391.32 -27.11L391.32 -27.11L391.32 -27.11Q389.49 -30.38 386.21 -32.18L386.21 -32.18L386.21 -32.18Q382.94 -33.98 378.54 -33.98L378.54 -33.98L378.54 -33.98Q373.79 -33.98 370.08 -31.72L370.08 -31.72L370.08 -31.72Q366.38 -29.45 364.36 -24.98L364.36 -24.98L359.32 -27.58L359.32 -27.58Q361.34 -32.83 366.45 -36.07L366.45 -36.07L366.45 -36.07Q371.56 -39.31 378.40 -39.31L378.40 -39.31L378.40 -39.31Q383.73 -39.31 387.90 -37.51L387.90 -37.51L387.90 -37.51Q392.08 -35.71 394.89 -32.62L394.89 -32.62L394.89 -32.62Q398.13 -35.93 402.09 -37.62L402.09 -37.62L402.09 -37.62Q406.05 -39.31 411.74 -39.31L411.74 -39.31L411.74 -39.31Q417.93 -39.31 422.50 -36.72L422.50 -36.72L422.50 -36.72Q427.07 -34.13 429.63 -29.63L429.63 -29.63L429.63 -29.63Q432.18 -25.13 432.18 -19.30L432.18 -19.30L432.18 -19.30Q432.18 -13.39 429.56 -8.89L429.56 -8.89L429.56 -8.89Q426.93 -4.39 422.28 -1.84L422.28 -1.84L422.28 -1.84Q417.64 0.72 411.52 0.72L411.52 0.72L411.52 0.72Q405.83 0.72 401.69 -1.15L401.69 -1.15L401.69 -1.15Q397.55 -3.02 394.96 -6.12L394.96 -6.12L394.96 -6.12Q392.22 -2.95 388.01 -1.12L388.01 -1.12L388.01 -1.12Q383.80 0.72 378.40 0.72ZM399.71 -19.37L399.71 -19.37L399.71 -19.37Q399.71 -14.90 398.06 -11.02L398.06 -11.02L398.06 -11.02Q400.07 -8.21 403.56 -6.41L403.56 -6.41L403.56 -6.41Q407.06 -4.61 411.45 -4.61L411.45 -4.61L411.45 -4.61Q418.00 -4.61 421.82 -8.60L421.82 -8.60L421.82 -8.60Q425.63 -12.60 425.63 -19.15L425.63 -19.15L425.63 -19.15Q425.63 -25.99 422.00 -29.99L422.00 -29.99L422.00 -29.99Q418.36 -33.98 411.88 -33.98L411.88 -33.98L411.88 -33.98Q407.63 -33.98 404.14 -32.65L404.14 -32.65L404.14 -32.65Q400.65 -31.32 397.98 -27.72L397.98 -27.72L397.98 -27.72Q399.71 -23.83 399.71 -19.37ZM365.58 -11.09L365.58 -11.09L365.58 -11.09Q367.74 -7.85 371.09 -6.23L371.09 -6.23L371.09 -6.23Q374.44 -4.61 378.62 -4.61L378.62 -4.61L378.62 -4.61Q382.79 -4.61 385.64 -6.05L385.64 -6.05L385.64 -6.05Q388.48 -7.49 390.21 -9.79L390.21 -9.79L390.21 -9.79Q387.83 -11.74 384.59 -12.92L384.59 -12.92L384.59 -12.92Q381.35 -14.11 377.03 -14.11L377.03 -14.11L377.03 -14.11Q373.79 -14.11 370.91 -13.21L370.91 -13.21L370.91 -13.21Q368.03 -12.31 365.58 -11.09ZM460.19 0.72L460.19 0.72L460.19 0.72Q453.28 0.72 448.82 -2.09L448.82 -2.09L448.82 -2.09Q444.35 -4.90 442.16 -9.50L442.16 -9.50L442.16 -9.50Q439.96 -14.11 439.96 -19.37L439.96 -19.37L439.96 -19.37Q439.96 -25.20 442.52 -29.70L442.52 -29.70L442.52 -29.70Q445.07 -34.20 449.61 -36.76L449.61 -36.76L449.61 -36.76Q454.14 -39.31 460.19 -39.31L460.19 -39.31L460.19 -39.31Q465.38 -39.31 469.55 -37.94L469.55 -37.94L469.55 -37.94Q473.73 -36.58 476.18 -33.77L476.18 -33.77L476.18 -33.77Q478.62 -30.96 478.62 -26.64L478.62 -26.64L478.62 -26.64Q478.62 -25.85 478.55 -24.66L478.55 -24.66L478.55 -24.66Q478.48 -23.47 478.41 -22.39L478.41 -22.39L478.41 -22.39Q478.34 -21.31 478.34 -20.95L478.34 -20.95L478.34 -20.95Q478.34 -18.65 479.56 -17.89L479.56 -17.89L479.56 -17.89Q480.78 -17.14 483.74 -17.14L483.74 -17.14L483.74 -11.88L482.44 -11.88L482.44 -11.88Q478.05 -11.88 475.74 -13.93L475.74 -13.93L475.74 -13.93Q473.44 -15.98 473.22 -19.44L473.22 -19.44L473.22 -19.44Q471.57 -18.65 469.12 -18.65L469.12 -18.65L469.12 -18.65Q465.23 -18.65 462.60 -21.10L462.60 -21.10L462.60 -21.10Q459.98 -23.54 459.98 -27.22L459.98 -27.22L459.98 -27.22Q459.98 -29.38 460.91 -31.03L460.91 -31.03L460.91 -31.03Q461.85 -32.69 463.29 -33.77L463.29 -33.77L463.29 -33.77Q461.63 -33.98 460.12 -33.98L460.12 -33.98L460.12 -33.98Q456.02 -33.98 452.96 -32.22L452.96 -32.22L452.96 -32.22Q449.90 -30.46 448.20 -27.29L448.20 -27.29L448.20 -27.29Q446.51 -24.12 446.51 -19.94L446.51 -19.94L446.51 -19.94Q446.51 -12.96 449.82 -8.78L449.82 -8.78L449.82 -8.78Q453.14 -4.61 460.55 -4.61L460.55 -4.61L460.55 -4.61Q468.18 -4.61 472.43 -8.57L472.43 -8.57L476.68 -4.25L476.68 -4.25Q474.16 -2.16 469.91 -0.72L469.91 -0.72L469.91 -0.72Q465.66 0.72 460.19 0.72ZM469.05 -23.33L469.05 -23.33L469.05 -23.33Q470.70 -23.33 471.89 -24.48L471.89 -24.48L471.89 -24.48Q473.08 -25.63 473.08 -27.29L473.08 -27.29L473.08 -27.29Q473.08 -28.94 471.89 -30.10L471.89 -30.10L471.89 -30.10Q470.70 -31.25 469.05 -31.25L469.05 -31.25L469.05 -31.25Q467.39 -31.25 466.24 -30.10L466.24 -30.10L466.24 -30.10Q465.09 -28.94 465.09 -27.29L465.09 -27.29L465.09 -27.29Q465.09 -25.63 466.24 -24.48L466.24 -24.48L466.24 -24.48Q467.39 -23.33 469.05 -23.33Z"/></svg>