<svg xmlns="http://www.w3.org/2000/svg" viewBox="0 -35.56 594.59 35.56" height="100%"><path fill="currentColor" d="M47.73 1.08L47.73 1.08L47.73 1.08Q46.38 1.08 45.58 -0.04L45.58 -0.04L45.58 -0.04Q44.78 -1.16 44.78 -2.45L44.78 -2.45L44.78 -2.45Q44.78 -4.39 47.02 -5.25L47.02 -5.25L47.02 -5.25Q48.67 -5.83 51.63 -6.48L51.63 -6.48L51.63 -6.48Q54.58 -7.13 58.07 -7.66L58.07 -7.66L58.07 -7.66Q61.56 -8.20 64.73 -8.56L64.73 -8.56L64.73 -8.56Q67.89 -8.92 69.91 -9.00L69.91 -9.00L69.91 -9.00Q69.19 -13.25 68.00 -16.74L68.00 -16.74L68.00 -16.74Q66.81 -20.23 64.73 -22.32L64.73 -22.32L64.73 -22.32Q62.64 -24.41 59.19 -24.41L59.19 -24.41L59.19 -24.41Q57.75 -24.41 56.02 -23.44L56.02 -23.44L56.02 -23.44Q54.28 -22.47 52.55 -21.06L52.55 -21.06L52.55 -21.06Q50.83 -19.66 49.32 -18.22L49.32 -18.22L49.32 -18.22Q47.81 -16.78 46.73 -15.84L46.73 -15.84L38.59 -8.64L38.59 -8.64Q35.14 -5.55 31.11 -3.49L31.11 -3.49L31.11 -3.49Q27.08 -1.44 22.47 -1.44L22.47 -1.44L22.47 -1.44Q18.22 -1.44 15.30 -3.02L15.30 -3.02L15.30 -3.02Q12.39 -4.61 9.87 -7.41L9.87 -7.41L9.87 -7.41Q7.34 -10.22 4.47 -13.97L4.47 -13.97L4.47 -13.97Q4.25 -14.25 4.07 -14.69L4.07 -14.69L4.07 -14.69Q3.89 -15.13 3.89 -15.84L3.89 -15.84L3.89 -15.84Q3.89 -17.14 5.12 -18.15L5.12 -18.15L5.12 -18.15Q6.34 -19.16 7.63 -19.16L7.63 -19.16L7.63 -19.16Q8.72 -19.16 9.64 -18.00L9.64 -18.00L9.64 -18.00Q11.95 -15.13 13.93 -12.78L13.93 -12.78L13.93 -12.78Q15.91 -10.44 17.92 -9.07L17.92 -9.07L17.92 -9.07Q19.94 -7.70 22.25 -7.70L22.25 -7.70L22.25 -7.70Q24.63 -7.70 27.00 -8.82L27.00 -8.82L27.00 -8.82Q29.38 -9.94 31.46 -11.52L31.46 -11.52L31.46 -11.52Q33.55 -13.11 35.14 -14.47L35.14 -14.47L43.84 -22.31L43.84 -22.31Q46.58 -24.77 48.92 -26.67L48.92 -26.67L48.92 -26.67Q51.27 -28.58 53.71 -29.66L53.71 -29.66L53.71 -29.66Q56.16 -30.75 59.19 -30.75L59.19 -30.75L59.19 -30.75Q64.38 -30.75 67.76 -28.48L67.76 -28.48L67.76 -28.48Q71.14 -26.20 73.09 -22.32L73.09 -22.32L73.09 -22.32Q75.03 -18.44 75.96 -13.50L75.96 -13.50L75.96 -13.50Q76.89 -8.56 77.25 -3.31L77.25 -3.31L77.25 -3.31Q73.22 -3.03 69.08 -2.63L69.08 -2.63L69.08 -2.63Q64.94 -2.23 60.70 -1.52L60.70 -1.52L60.70 -1.52Q58.75 -1.16 56.09 -0.54L56.09 -0.54L56.09 -0.54Q53.42 0.08 51.09 0.58L51.09 0.58L51.09 0.58Q48.75 1.08 47.73 1.08ZM103.47 -1.44L103.47 -1.44L103.47 -1.44Q99.22 -1.44 96.30 -3.02L96.30 -3.02L96.30 -3.02Q93.39 -4.61 90.87 -7.41L90.87 -7.41L90.87 -7.41Q88.34 -10.22 85.47 -13.97L85.47 -13.97L85.47 -13.97Q85.25 -14.25 85.07 -14.69L85.07 -14.69L85.07 -14.69Q84.89 -15.13 84.89 -15.84L84.89 -15.84L84.89 -15.84Q84.89 -17.14 86.12 -18.15L86.12 -18.15L86.12 -18.15Q87.34 -19.16 88.63 -19.16L88.63 -19.16L88.63 -19.16Q89.72 -19.16 90.64 -18.00L90.64 -18.00L90.64 -18.00Q92.95 -15.13 94.93 -12.78L94.93 -12.78L94.93 -12.78Q96.91 -10.44 98.92 -9.07L98.92 -9.07L98.92 -9.07Q100.94 -7.70 103.25 -7.70L103.25 -7.70L103.25 -7.70Q105.63 -7.70 108.00 -8.82L108.00 -8.82L108.00 -8.82Q110.38 -9.94 112.46 -11.52L112.46 -11.52L112.46 -11.52Q114.55 -13.11 116.14 -14.47L116.14 -14.47L124.84 -22.31L124.84 -22.31Q127.58 -24.77 129.92 -26.67L129.92 -26.67L129.92 -26.67Q132.27 -28.58 134.71 -29.66L134.71 -29.66L134.71 -29.66Q137.16 -30.75 140.19 -30.75L140.19 -30.75L140.19 -30.75Q145.38 -30.75 148.76 -28.45L148.76 -28.45L148.76 -28.45Q152.14 -26.14 154.09 -22.18L154.09 -22.18L154.09 -22.18Q156.03 -18.22 157.03 -13.31L157.03 -13.31L157.03 -12.89L157.03 -12.89Q157.03 -12.03 156.31 -10.98L156.31 -10.98L156.31 -10.98Q155.59 -9.94 153.86 -9.94L153.86 -9.94L153.86 -9.94Q151.84 -9.94 151.16 -10.62L151.16 -10.62L151.16 -10.62Q150.48 -11.30 150.19 -12.45L150.19 -12.45L150.19 -12.45Q149.41 -15.84 148.22 -18.54L148.22 -18.54L148.22 -18.54Q147.03 -21.23 145.09 -22.82L145.09 -22.82L145.09 -22.82Q143.14 -24.41 140.19 -24.41L140.19 -24.41L140.19 -24.41Q138.75 -24.41 137.02 -23.44L137.02 -23.44L137.02 -23.44Q135.28 -22.47 133.55 -21.06L133.55 -21.06L133.55 -21.06Q131.83 -19.66 130.32 -18.22L130.32 -18.22L130.32 -18.22Q128.81 -16.78 127.73 -15.84L127.73 -15.84L119.59 -8.64L119.59 -8.64Q116.14 -5.55 112.11 -3.49L112.11 -3.49L112.11 -3.49Q108.08 -1.44 103.47 -1.44ZM139.61 0.36L139.61 0.36L139.61 0.36Q138.23 0.36 137.45 -0.61L137.45 -0.61L137.45 -0.61Q136.66 -1.58 136.66 -2.73L136.66 -2.73L136.66 -2.73Q136.66 -4.69 139.17 -5.61L139.17 -5.61L139.17 -5.61Q139.89 -5.91 142.52 -6.13L142.52 -6.13L142.52 -6.13Q145.16 -6.34 148.11 -6.34L148.11 -6.34L148.11 -6.34Q149.83 -6.34 151.66 -6.23L151.66 -6.23L151.66 -6.23Q153.50 -6.13 154.98 -5.95L154.98 -5.95L154.98 -5.95Q156.45 -5.77 157.03 -5.61L157.03 -5.61L157.03 -5.61Q159.48 -4.75 159.48 -2.73L159.48 -2.73L159.48 -2.73Q159.48 -1.58 158.69 -0.61L158.69 -0.61L158.69 -0.61Q157.89 0.36 156.53 0.36L156.53 0.36L156.53 0.36Q155.88 0.36 154.37 0.25L154.37 0.25L154.37 0.25Q152.86 0.14 151.16 0.07L151.16 0.07L151.16 0.07Q149.47 0.00 148.11 0.00L148.11 0.00L148.11 0.00Q145.66 0.00 143.13 0.18L143.13 0.18L143.13 0.18Q140.61 0.36 139.61 0.36ZM182.44 1.08L182.44 1.08L182.44 1.08Q181.08 1.08 179.81 0.03L179.81 0.03L179.81 0.03Q178.55 -1.02 178.55 -2.16L178.55 -2.16L178.55 -2.16Q178.55 -2.88 179.63 -4.68L179.63 -4.68L179.63 -4.68Q180.72 -6.48 182.48 -8.89L182.48 -8.89L182.48 -8.89Q184.23 -11.30 186.36 -13.89L186.36 -13.89L186.36 -13.89Q188.48 -16.48 190.65 -18.90L190.65 -18.90L190.65 -18.90Q192.81 -21.31 194.68 -23.11L194.68 -23.11L194.68 -23.11Q196.55 -24.91 197.78 -25.70L197.78 -25.70L197.78 -25.70Q195.11 -27.08 192.80 -27.62L192.80 -27.62L192.80 -27.62Q190.50 -28.16 187.05 -28.16L187.05 -28.16L187.05 -28.16Q183.95 -28.16 181.54 -27.76L181.54 -27.76L181.54 -27.76Q179.13 -27.36 176.61 -26.35L176.61 -26.35L176.61 -26.35Q174.09 -25.34 170.48 -23.47L170.48 -23.47L170.48 -23.47Q170.20 -23.33 169.95 -23.26L169.95 -23.26L169.95 -23.26Q169.70 -23.19 169.48 -23.19L169.48 -23.19L169.48 -23.19Q168.33 -23.19 167.61 -24.23L167.61 -24.23L167.61 -24.23Q166.89 -25.27 166.89 -26.20L166.89 -26.20L166.89 -26.20Q166.89 -26.78 167.10 -27.43L167.10 -27.43L167.10 -27.43Q167.31 -28.08 168.11 -28.58L168.11 -28.58L168.11 -28.58Q173.52 -32.33 178.52 -33.41L178.52 -33.41L178.52 -33.41Q183.52 -34.48 187.05 -34.48L187.05 -34.48L187.05 -34.48Q190.22 -34.48 194.57 -33.52L194.57 -33.52L194.57 -33.52Q198.92 -32.55 203.39 -29.81L203.39 -29.81L203.39 -29.81Q206.70 -31.83 210.80 -33.16L210.80 -33.16L210.80 -33.16Q214.91 -34.48 219.95 -34.48L219.95 -34.48L219.95 -34.48Q223.63 -34.48 226.65 -33.48L226.65 -33.48L226.65 -33.48Q229.67 -32.47 231.47 -30.42L231.47 -30.42L231.47 -30.42Q233.27 -28.38 233.27 -25.20L233.27 -25.20L233.27 -25.20Q233.27 -21.39 231.58 -18.08L231.58 -18.08L231.58 -18.08Q229.89 -14.77 227.37 -11.77L227.37 -11.77L227.37 -11.77Q224.84 -8.78 222.15 -5.91L222.15 -5.91L222.15 -5.91Q219.45 -3.03 217.50 0.00L217.50 0.00L217.50 0.00Q217.14 0.58 216.49 0.83L216.49 0.83L216.49 0.83Q215.84 1.08 215.27 1.08L215.27 1.08L215.27 1.08Q213.91 1.08 212.79 0.11L212.79 0.11L212.79 0.11Q211.67 -0.86 211.67 -2.02L211.67 -2.02L211.67 -2.02Q211.67 -3.23 213.15 -5.11L213.15 -5.11L213.15 -5.11Q214.63 -6.98 216.86 -9.25L216.86 -9.25L216.86 -9.25Q219.09 -11.52 221.29 -14.04L221.29 -14.04L221.29 -14.04Q223.48 -16.56 224.96 -19.12L224.96 -19.12L224.96 -19.12Q226.44 -21.67 226.44 -24.13L226.44 -24.13L226.44 -24.13Q226.44 -25.70 224.74 -26.93L224.74 -26.93L224.74 -26.93Q223.05 -28.16 218.94 -28.16L218.94 -28.16L218.94 -28.16Q214.34 -28.16 210.30 -26.46L210.30 -26.46L210.30 -26.46Q206.27 -24.77 202.74 -21.99L202.74 -21.99L202.74 -21.99Q199.22 -19.22 196.30 -15.95L196.30 -15.95L196.30 -15.95Q193.39 -12.67 191.09 -9.51L191.09 -9.51L191.09 -9.51Q188.78 -6.34 187.09 -3.82L187.09 -3.82L187.09 -3.82Q185.39 -1.30 184.39 0.00L184.39 0.00L184.39 0.00Q184.03 0.44 183.59 0.76L183.59 0.76L183.59 0.76Q183.16 1.08 182.44 1.08ZM244.63 -18.44L244.63 -18.44L244.63 -18.44Q243.33 -18.44 242.61 -19.45L242.61 -19.45L242.61 -19.45Q241.89 -20.45 241.89 -21.67L241.89 -21.67L241.89 -21.67Q241.89 -22.31 242.18 -23.00L242.18 -23.00L242.18 -23.00Q242.47 -23.69 243.19 -24.05L243.19 -24.05L243.19 -24.05Q247.28 -25.98 251.89 -27.28L251.89 -27.28L251.89 -27.28Q256.50 -28.58 261.04 -29.34L261.04 -29.34L261.04 -29.34Q265.58 -30.09 269.47 -30.42L269.47 -30.42L269.47 -30.42Q273.36 -30.75 275.94 -30.75L275.94 -30.75L275.94 -30.75Q279.11 -30.75 283.54 -30.53L283.54 -30.53L283.54 -30.53Q287.97 -30.31 292.76 -29.77L292.76 -29.77L292.76 -29.77Q297.55 -29.23 301.87 -28.19L301.87 -28.19L301.87 -28.19Q306.19 -27.14 309.06 -25.48L309.06 -25.48L309.06 -25.48Q309.56 -25.20 309.85 -24.48L309.85 -24.48L309.85 -24.48Q310.14 -23.77 310.14 -23.05L310.14 -23.05L310.14 -23.05Q310.14 -21.89 309.38 -20.77L309.38 -20.77L309.38 -20.77Q308.63 -19.66 307.27 -19.66L307.27 -19.66L307.27 -19.66Q306.91 -19.66 306.04 -20.02L306.04 -20.02L306.04 -20.02Q305.17 -20.38 304.75 -20.52L304.75 -20.52L304.75 -20.52Q298.77 -22.69 291.17 -23.55L291.17 -23.55L291.17 -23.55Q283.58 -24.41 275.94 -24.41L275.94 -24.41L275.94 -24.41Q272.56 -24.41 268.24 -24.09L268.24 -24.09L268.24 -24.09Q263.92 -23.77 258.45 -22.61L258.45 -22.61L258.45 -22.61Q252.97 -21.45 246.28 -18.86L246.28 -18.86L246.28 -18.86Q245.78 -18.72 245.38 -18.58L245.38 -18.58L245.38 -18.58Q244.98 -18.44 244.63 -18.44ZM260.39 0.36L260.39 0.36L260.39 0.36Q259.03 0.36 258.23 -0.61L258.23 -0.61L258.23 -0.61Q257.44 -1.58 257.44 -2.73L257.44 -2.73L257.44 -2.73Q257.44 -4.31 258.80 -5.07L258.80 -5.07L258.80 -5.07Q260.17 -5.83 262.37 -6.09L262.37 -6.09L262.37 -6.09Q264.56 -6.34 267.16 -6.34L267.16 -6.34L267.16 -6.34Q269.69 -6.34 271.91 -6.09L271.91 -6.09L271.91 -6.09Q274.14 -5.83 275.48 -5.07L275.48 -5.07L275.48 -5.07Q276.81 -4.31 276.81 -2.73L276.81 -2.73L276.81 -2.73Q276.81 -1.58 275.98 -0.61L275.98 -0.61L275.98 -0.61Q275.16 0.36 273.86 0.36L273.86 0.36L273.86 0.36Q272.78 0.36 270.98 0.18L270.98 0.18L270.98 0.18Q269.17 0.00 267.16 0.00L267.16 0.00L267.16 0.00Q264.72 0.00 263.09 0.18L263.09 0.18L263.09 0.18Q261.47 0.36 260.39 0.36ZM292.72 0.36L292.72 0.36L292.72 0.36Q291.36 0.36 290.56 -0.61L290.56 -0.61L290.56 -0.61Q289.77 -1.58 289.77 -2.73L289.77 -2.73L289.77 -2.73Q289.77 -4.31 291.10 -5.07L291.10 -5.07L291.10 -5.07Q292.44 -5.83 294.66 -6.09L294.66 -6.09L294.66 -6.09Q296.89 -6.34 299.48 -6.34L299.48 -6.34L299.48 -6.34Q302.16 -6.34 304.35 -6.09L304.35 -6.09L304.35 -6.09Q306.55 -5.83 307.84 -5.07L307.84 -5.07L307.84 -5.07Q309.14 -4.31 309.14 -2.73L309.14 -2.73L309.14 -2.73Q309.14 -1.58 308.34 -0.61L308.34 -0.61L308.34 -0.61Q307.55 0.36 306.19 0.36L306.19 0.36L306.19 0.36Q305.11 0.36 303.30 0.18L303.30 0.18L303.30 0.18Q301.50 0.00 299.48 0.00L299.48 0.00L299.48 0.00Q297.05 0.00 295.42 0.18L295.42 0.18L295.42 0.18Q293.80 0.36 292.72 0.36ZM365.19 1.08L365.19 1.08L365.19 1.08Q363.83 1.08 362.74 -0.04L362.74 -0.04L362.74 -0.04Q361.66 -1.16 361.66 -2.30L361.66 -2.30L361.66 -2.30Q361.66 -3.03 362.20 -3.96L362.20 -3.96L362.20 -3.96Q362.75 -4.89 363.17 -5.61L363.17 -5.61L363.17 -5.61Q363.69 -6.48 365.23 -8.71L365.23 -8.71L365.23 -8.71Q366.78 -10.94 368.98 -13.82L368.98 -13.82L368.98 -13.82Q371.17 -16.70 373.62 -19.55L373.62 -19.55L373.62 -19.55Q376.06 -22.39 378.44 -24.55L378.44 -24.55L378.44 -24.55Q371.89 -26.92 365.38 -27.54L365.38 -27.54L365.38 -27.54Q358.86 -28.16 351.94 -28.16L351.94 -28.16L351.94 -28.16Q347.91 -28.16 343.63 -27.83L343.63 -27.83L343.63 -27.83Q339.34 -27.50 334.16 -26.31L334.16 -26.31L334.16 -26.31Q328.97 -25.13 322.28 -22.53L322.28 -22.53L322.28 -22.53Q321.78 -22.39 321.38 -22.25L321.38 -22.25L321.38 -22.25Q320.98 -22.11 320.63 -22.11L320.63 -22.11L320.63 -22.11Q319.33 -22.11 318.61 -23.15L318.61 -23.15L318.61 -23.15Q317.89 -24.19 317.89 -25.34L317.89 -25.34L317.89 -25.34Q317.89 -25.98 318.14 -26.71L318.14 -26.71L318.14 -26.71Q318.39 -27.44 319.19 -27.80L319.19 -27.80L319.19 -27.80Q323.80 -30.09 328.66 -31.43L328.66 -31.43L328.66 -31.43Q333.52 -32.77 338.02 -33.41L338.02 -33.41L338.02 -33.41Q342.52 -34.06 346.15 -34.27L346.15 -34.27L346.15 -34.27Q349.78 -34.48 351.94 -34.48L351.94 -34.48L351.94 -34.48Q355.11 -34.48 359.07 -34.34L359.07 -34.34L359.07 -34.34Q363.03 -34.20 367.28 -33.70L367.28 -33.70L367.28 -33.70Q371.53 -33.19 375.59 -32.11L375.59 -32.11L375.59 -32.11Q379.66 -31.03 382.97 -29.16L382.97 -29.16L382.97 -29.16Q383.55 -28.80 384.55 -27.86L384.55 -27.86L384.55 -27.86Q385.56 -26.92 385.56 -25.70L385.56 -25.70L385.56 -25.70Q385.56 -24.41 385.02 -23.33L385.02 -23.33L385.02 -23.33Q384.48 -22.25 382.77 -20.38L382.77 -20.38L382.77 -20.38Q379.23 -16.56 376.21 -12.74L376.21 -12.74L376.21 -12.74Q373.19 -8.92 371.10 -5.90L371.10 -5.90L371.10 -5.90Q369.02 -2.88 368.08 -1.38L368.08 -1.38L368.08 -1.38Q367.78 -0.86 366.92 0.11L366.92 0.11L366.92 0.11Q366.06 1.08 365.19 1.08ZM336.17 1.08L336.17 1.08L336.17 1.08Q335.03 1.08 333.73 0.22L333.73 0.22L333.73 0.22Q332.44 -0.64 332.44 -2.02L332.44 -2.02L332.44 -2.02Q332.44 -2.59 332.65 -2.99L332.65 -2.99L332.65 -2.99Q332.86 -3.39 333.08 -3.81L333.08 -3.81L333.08 -3.81Q333.58 -4.83 334.98 -6.80L334.98 -6.80L334.98 -6.80Q336.39 -8.78 338.27 -11.20L338.27 -11.20L338.27 -11.20Q340.14 -13.61 342.19 -15.98L342.19 -15.98L342.19 -15.98Q344.23 -18.36 346.05 -20.16L346.05 -20.16L346.05 -20.16Q347.63 -21.75 348.84 -21.75L348.84 -21.75L348.84 -21.75Q350.08 -21.75 351.12 -20.88L351.12 -20.88L351.12 -20.88Q352.16 -20.02 352.16 -18.72L352.16 -18.72L352.16 -18.72Q352.16 -18.22 352.02 -17.71L352.02 -17.71L352.02 -17.71Q351.88 -17.20 351.44 -16.78L351.44 -16.78L351.44 -16.78Q349.56 -14.91 347.26 -12.09L347.26 -12.09L347.26 -12.09Q344.95 -9.28 342.62 -6.23L342.62 -6.23L342.62 -6.23Q340.28 -3.17 338.48 -0.36L338.48 -0.36L338.48 -0.36Q338.05 0.28 337.58 0.68L337.58 0.68L337.58 0.68Q337.11 1.08 336.17 1.08ZM407.86 0.72L407.86 0.72L407.86 0.72Q405.91 0.72 403.68 -0.11L403.68 -0.11L403.68 -0.11Q401.45 -0.94 399.44 -2.70L399.44 -2.70L399.44 -2.70Q397.42 -4.47 396.16 -7.27L396.16 -7.27L396.16 -7.27Q394.89 -10.08 394.89 -13.97L394.89 -13.97L394.89 -13.97Q394.89 -19.88 396.63 -22.97L396.63 -22.97L396.63 -22.97Q398.36 -26.06 401.45 -28.08L401.45 -28.08L401.45 -28.08Q405.55 -30.75 410.34 -32.12L410.34 -32.12L410.34 -32.12Q415.13 -33.48 419.84 -33.98L419.84 -33.98L419.84 -33.98Q424.56 -34.48 428.59 -34.48L428.59 -34.48L428.59 -34.48Q432.48 -34.48 437.20 -33.95L437.20 -33.95L437.20 -33.95Q441.91 -33.41 446.66 -32.04L446.66 -32.04L446.66 -32.04Q451.42 -30.67 455.59 -28.08L455.59 -28.08L455.59 -28.08Q458.55 -26.28 459.91 -23.87L459.91 -23.87L459.91 -23.87Q461.28 -21.45 461.68 -19.08L461.68 -19.08L461.68 -19.08Q462.08 -16.70 462.08 -14.83L462.08 -14.83L462.08 -14.83Q462.08 -9.50 460.09 -6.05L460.09 -6.05L460.09 -6.05Q458.11 -2.59 455.09 -0.94L455.09 -0.94L455.09 -0.94Q452.06 0.72 448.83 0.72L448.83 0.72L448.83 0.72Q445.02 0.72 442.16 -0.65L442.16 -0.65L442.16 -0.65Q439.31 -2.02 437.66 -3.03L437.66 -3.03L428.52 -8.78L417.58 -2.02L417.58 -2.02Q415.13 -0.50 412.68 0.11L412.68 0.11L412.68 0.11Q410.23 0.72 407.86 0.72ZM408.50 -5.61L408.50 -5.61L408.50 -5.61Q410.09 -5.61 411.67 -6.37L411.67 -6.37L411.67 -6.37Q413.25 -7.13 413.55 -7.27L413.55 -7.27L423.48 -13.61L423.48 -13.61Q424.42 -14.25 425.86 -14.69L425.86 -14.69L425.86 -14.69Q427.30 -15.13 428.52 -15.13L428.52 -15.13L428.52 -15.13Q429.45 -15.13 430.82 -14.77L430.82 -14.77L430.82 -14.77Q432.19 -14.41 433.34 -13.69L433.34 -13.69L441.27 -8.56L441.27 -8.56Q444.44 -6.48 446.16 -6.05L446.16 -6.05L446.16 -6.05Q447.89 -5.61 448.53 -5.61L448.53 -5.61L448.53 -5.61Q451.84 -5.61 453.75 -8.17L453.75 -8.17L453.75 -8.17Q455.66 -10.73 455.66 -15.05L455.66 -15.05L455.66 -15.05Q455.66 -17.28 454.58 -19.52L454.58 -19.52L454.58 -19.52Q453.50 -21.75 451.20 -23.05L451.20 -23.05L451.20 -23.05Q447.75 -25.06 443.82 -26.14L443.82 -26.14L443.82 -26.14Q439.89 -27.22 435.97 -27.69L435.97 -27.69L435.97 -27.69Q432.05 -28.16 428.52 -28.16L428.52 -28.16L428.52 -28.16Q423.34 -28.16 417.37 -27.15L417.37 -27.15L417.37 -27.15Q411.39 -26.14 406.13 -23.11L406.13 -23.11L406.13 -23.11Q403.61 -21.67 402.49 -19.62L402.49 -19.62L402.49 -19.62Q401.38 -17.56 401.38 -15.05L401.38 -15.05L401.38 -15.05Q401.38 -13.03 401.95 -10.84L401.95 -10.84L401.95 -10.84Q402.53 -8.64 404.08 -7.13L404.08 -7.13L404.08 -7.13Q405.63 -5.61 408.50 -5.61ZM502.64 0.72L502.64 0.72L502.64 0.72Q496.16 0.72 490.54 -0.33L490.54 -0.33L490.54 -0.33Q484.92 -1.38 480.75 -3.49L480.75 -3.49L480.75 -3.49Q476.58 -5.61 474.23 -8.92L474.23 -8.92L474.23 -8.92Q471.89 -12.23 471.89 -16.84L471.89 -16.84L471.89 -16.84Q471.89 -21.59 474.48 -24.95L474.48 -24.95L474.48 -24.95Q477.08 -28.30 481.44 -30.38L481.44 -30.38L481.44 -30.38Q485.80 -32.47 491.30 -33.48L491.30 -33.48L491.30 -33.48Q496.81 -34.48 502.64 -34.48L502.64 -34.48L502.64 -34.48Q508.69 -34.48 514.20 -33.48L514.20 -33.48L514.20 -33.48Q519.70 -32.47 524.06 -30.38L524.06 -30.38L524.06 -30.38Q528.42 -28.30 530.91 -24.95L530.91 -24.95L530.91 -24.95Q533.39 -21.59 533.39 -16.84L533.39 -16.84L533.39 -16.84Q533.39 -12.17 530.94 -8.82L530.94 -8.82L530.94 -8.82Q528.48 -5.47 524.20 -3.38L524.20 -3.38L524.20 -3.38Q519.92 -1.30 514.38 -0.29L514.38 -0.29L514.38 -0.29Q508.83 0.72 502.64 0.72ZM502.64 -5.61L502.64 -5.61L502.64 -5.61Q507.17 -5.61 511.46 -6.23L511.46 -6.23L511.46 -6.23Q515.75 -6.84 519.16 -8.17L519.16 -8.17L519.16 -8.17Q522.58 -9.50 524.56 -11.63L524.56 -11.63L524.56 -11.63Q526.55 -13.75 526.55 -16.84L526.55 -16.84L526.55 -16.84Q526.55 -20.02 524.46 -22.18L524.46 -22.18L524.46 -22.18Q522.38 -24.34 518.91 -25.67L518.91 -25.67L518.91 -25.67Q515.45 -27.00 511.20 -27.58L511.20 -27.58L511.20 -27.58Q506.95 -28.16 502.64 -28.16L502.64 -28.16L502.64 -28.16Q498.31 -28.16 494.07 -27.58L494.07 -27.58L494.07 -27.58Q489.83 -27.00 486.37 -25.70L486.37 -25.70L486.37 -25.70Q482.91 -24.41 480.82 -22.25L480.82 -22.25L480.82 -22.25Q478.73 -20.09 478.73 -16.84L478.73 -16.84L478.73 -16.84Q478.73 -13.69 480.79 -11.52L480.79 -11.52L480.79 -11.52Q482.84 -9.36 486.30 -8.06L486.30 -8.06L486.30 -8.06Q489.75 -6.77 494.00 -6.19L494.00 -6.19L494.00 -6.19Q498.25 -5.61 502.64 -5.61ZM544.84 -22.53L544.84 -22.53L544.84 -22.53Q543.47 -22.53 542.68 -23.51L542.68 -23.51L542.68 -23.51Q541.89 -24.48 541.89 -25.70L541.89 -25.70L541.89 -25.70Q541.89 -26.72 542.50 -27.55L542.50 -27.55L542.50 -27.55Q543.11 -28.38 544.34 -28.66L544.34 -28.66L544.34 -28.66Q545.92 -29.02 552.04 -29.88L552.04 -29.88L552.04 -29.88Q558.16 -30.75 568.23 -30.75L568.23 -30.75L568.23 -30.75Q575.30 -30.75 579.98 -30.53L579.98 -30.53L579.98 -30.53Q584.66 -30.31 587.54 -30.06L587.54 -30.06L587.54 -30.06Q590.42 -29.81 592.08 -29.52L592.08 -29.52L592.08 -29.52Q593.44 -29.30 594.02 -28.44L594.02 -28.44L594.02 -28.44Q594.59 -27.58 594.59 -26.56L594.59 -26.56L594.59 -26.56Q594.59 -25.34 593.80 -24.38L593.80 -24.38L593.80 -24.38Q593.02 -23.41 591.64 -23.41L591.64 -23.41L591.64 -23.41Q590.98 -23.41 588.65 -23.66L588.65 -23.66L588.65 -23.66Q586.31 -23.91 581.45 -24.16L581.45 -24.16L581.45 -24.16Q576.59 -24.41 568.23 -24.41L568.23 -24.41L568.23 -24.41Q561.05 -24.41 556.18 -23.94L556.18 -23.94L556.18 -23.94Q551.31 -23.47 548.55 -23.00L548.55 -23.00L548.55 -23.00Q545.78 -22.53 544.84 -22.53Z"/></svg>