<svg xmlns="http://www.w3.org/2000/svg" style="isolation:isolate" viewBox="400.75 417.729 514.5 151.541" width="686" height="202.055"><path d="M474.226 422.5c40.578 0 73.468 32.857 73.468 73.401 0 40.528-32.905 73.37-73.468 73.37-40.58 0-73.464-32.848-73.464-73.37 0-40.526 32.896-73.401 73.464-73.401Z" fill-rule="evenodd" fill="#E7DB18"/><path d="M546.413 509.524c-8.112 5.957-16.437 12.584-23.695 19.385-16.48 15.466-25.961 27.57-36.504 39.372 30.42-4.98 54.527-28.614 60.199-58.757Z" fill-rule="evenodd" fill="#88A03E"/><linearGradient id="a" x1=".007" y1=".743" x2=".846" y2="-.192" gradientTransform="matrix(69.006 0 0 97.735 400.823 426.922)" gradientUnits="userSpaceOnUse"><stop offset="0%" style="stop-color:#cfdc5e"/><stop offset="100%" style="stop-color:#bfca65"/></linearGradient><path d="m448.915 445.358-48.092 53.807a72.964 72.964 0 0 0 5.782 25.493c21.073-32.583 42.145-65.162 63.224-97.736a12562.695 12562.695 0 0 1-20.914 18.427" fill-rule="evenodd" fill="url(#a)"/><path d="M401.25 487.391c-.317 2.79-.5 5.619-.5 8.497 0 1.097.03 2.187.082 3.277l48.092-53.807c-15.888 14.01-31.777 28.026-47.671 42.03" fill-rule="evenodd" fill="#88A03E"/><linearGradient id="b" x1=".007" y1=".743" x2=".994" y2="-.025" gradientTransform="matrix(64.102 0 0 63.35 401.384 423.036)" gradientUnits="userSpaceOnUse"><stop offset="0%" style="stop-color:#cfdc5e"/><stop offset="100%" style="stop-color:#bfca65"/></linearGradient><path d="M401.384 486.386c21.378-21.119 42.725-42.234 64.102-63.35-33.332 3.95-59.802 30.167-64.102 63.35Z" fill-rule="evenodd" fill="url(#b)"/><linearGradient id="c" x1=".374" y1=".342" x2="1.172" y2=".322" gradientTransform="matrix(105.155 0 0 146.576 401.219 422.512)" gradientUnits="userSpaceOnUse"><stop offset="0%" style="stop-color:#d91963"/><stop offset="100%" style="stop-color:#981245"/></linearGradient><path d="M465.34 423.036c-21.378 21.119-42.664 42.231-64.029 63.35-.043.335-.052.67-.092 1.005 15.889-14.01 31.798-28.02 47.687-42.03 6.968-6.152 13.955-12.305 20.92-18.427a461975.257 461975.257 0 0 0-63.218 97.736l.015.018a68.848 68.848 0 0 0 1.934 4.124c.143.286.289.567.436.847a67.801 67.801 0 0 0 2.104 3.789l.116.213a77.667 77.667 0 0 0 2.543 3.919l.436.61a79.822 79.822 0 0 0 2.44 3.258c.143.174.274.348.415.518a73.594 73.594 0 0 0 3.08 3.579l.076.076a68.734 68.734 0 0 0 3.181 3.228l.5.473a74.055 74.055 0 0 0 7.288 6.03l.366.259a68.589 68.589 0 0 0 3.904 2.604l.039.03a73.124 73.124 0 0 0 8.753 4.645l.198.091a72.809 72.809 0 0 0 9.399 3.411l.134.046a74.052 74.052 0 0 0 15.278 2.65c.202-42.186 14.748-94.87 37.132-139.196-9.71-4.724-20.759-7.38-32.286-7.38-1.753 0-7.209.274-8.74.536" fill-rule="evenodd" fill="url(#c)"/><path d="m607.912 567.72-26.352-84.479h15.889l11.883 42.498a427.333 427.333 0 0 1 3.682 13.692 318.333 318.333 0 0 0 3.811 13.821h.517a323.077 323.077 0 0 0 3.811-13.821c1.076-4.306 2.26-8.87 3.552-13.692l11.755-42.498h15.372l-26.223 84.479h-17.697Zm183.963 1.549c-3.703 0-6.825-.559-9.365-1.679-2.54-1.119-4.607-2.69-6.2-4.714-1.593-2.024-2.756-4.435-3.487-7.234-.733-2.799-1.098-5.921-1.098-9.365V516.05h-9.043v-11.108l9.817-.646 1.809-17.31h12.401v17.31h16.146v11.754h-16.146v30.227c0 7.406 2.97 11.109 8.912 11.109 1.12 0 2.261-.129 3.423-.388a15.986 15.986 0 0 0 3.165-1.033l2.584 10.98c-1.722.603-3.682 1.141-5.878 1.615s-4.542.711-7.04.711v-.002Zm45.735 0c-3.962 0-7.751-.732-11.368-2.196-3.616-1.464-6.824-3.617-9.623-6.458-2.799-2.842-5.016-6.33-6.652-10.463-1.636-4.134-2.455-8.827-2.455-14.08s.818-9.946 2.455-14.079c1.636-4.134 3.853-7.622 6.652-10.463 2.798-2.842 6.007-5.017 9.623-6.524a29.27 29.27 0 0 1 11.368-2.26c3.961 0 7.771.753 11.432 2.26a28.238 28.238 0 0 1 9.623 6.524c2.757 2.841 4.973 6.329 6.652 10.463 1.68 4.133 2.52 8.826 2.52 14.079s-.84 9.947-2.52 14.08c-1.679 4.133-3.896 7.621-6.652 10.463a27.466 27.466 0 0 1-9.623 6.458 30.505 30.505 0 0 1-11.432 2.196Zm0-12.142c4.65 0 8.31-1.916 10.98-5.748 2.669-3.832 4.004-8.935 4.004-15.308 0-6.458-1.335-11.604-4.004-15.436-2.67-3.831-6.33-5.748-10.98-5.748-4.651 0-8.289 1.916-10.915 5.748-2.627 3.832-3.94 8.978-3.94 15.436 0 6.373 1.313 11.475 3.94 15.308 2.626 3.831 6.265 5.748 10.915 5.748Zm-159.938 12.142c-4.392 0-8.483-.753-12.272-2.26-3.789-1.507-7.104-3.681-9.947-6.523-2.842-2.842-5.059-6.308-6.652-10.398-1.593-4.091-2.389-8.763-2.389-14.016 0-5.167.817-9.817 2.454-13.951 1.636-4.133 3.811-7.621 6.523-10.463 2.713-2.841 5.835-5.037 9.365-6.588 3.531-1.55 7.148-2.324 10.851-2.324 4.305 0 8.095.732 11.367 2.196 3.272 1.463 6.007 3.53 8.203 6.199 2.196 2.67 3.853 5.856 4.973 9.559 1.12 3.703 1.679 7.75 1.679 12.142 0 1.464-.065 2.842-.194 4.134-.129 1.291-.28 2.325-.452 3.1h-40.302c.689 5.684 2.692 10.054 6.007 13.111 3.316 3.057 7.557 4.586 12.724 4.586 2.756 0 5.318-.409 7.686-1.227 2.368-.818 4.715-1.959 7.04-3.423l5.038 9.3c-3.014 1.981-6.373 3.618-10.076 4.909-3.703 1.292-7.578 1.938-11.625 1.938l-.001-.001ZM660.75 530h28.16c0-4.909-1.055-8.762-3.165-11.561-2.109-2.798-5.36-4.198-9.752-4.198-3.79 0-7.104 1.335-9.947 4.004-2.842 2.67-4.607 6.588-5.296 11.755Zm78.027 39.269c-4.305 0-8.331-.732-12.077-2.196-3.746-1.464-6.997-3.617-9.752-6.458-2.756-2.842-4.909-6.33-6.459-10.463-1.55-4.134-2.324-8.827-2.324-14.08s.861-9.946 2.583-14.079c1.722-4.134 4.048-7.622 6.975-10.463a30.368 30.368 0 0 1 10.14-6.524c3.832-1.507 7.858-2.26 12.078-2.26 4.134 0 7.686.689 10.657 2.066 2.97 1.378 5.619 3.057 7.943 5.038l-7.233 9.687c-1.723-1.463-3.423-2.605-5.103-3.423-1.679-.817-3.509-1.226-5.49-1.226-5.167 0-9.343 1.916-12.53 5.748-3.186 3.832-4.78 8.978-4.78 15.436 0 6.373 1.572 11.475 4.715 15.307 3.143 3.832 7.212 5.749 12.207 5.749 2.497 0 4.844-.539 7.04-1.615a31.68 31.68 0 0 0 6.007-3.811l6.071 9.817c-3.014 2.583-6.308 4.521-9.882 5.813-3.573 1.291-7.169 1.937-10.786 1.937Zm137.462-1.549v-63.424h12.272l1.033 11.238h.517c2.239-4.133 4.952-7.298 8.138-9.494 3.187-2.196 6.459-3.294 9.817-3.294 3.014 0 5.426.43 7.234 1.291l-2.583 12.918a27.206 27.206 0 0 0-3.1-.775c-.947-.172-2.11-.258-3.488-.258-2.498 0-5.124.969-7.88 2.906-2.755 1.938-5.124 5.318-7.104 10.14v38.752h-14.856ZM596.485 465.771c-2.734 0-5.249-.507-7.544-1.522-2.292-1.014-4.288-2.481-5.987-4.4-1.699-1.919-3.022-4.279-3.97-7.08-.949-2.801-1.422-5.965-1.422-9.495 0-3.485.484-6.616 1.455-9.394.97-2.78 2.316-5.139 4.035-7.08a17.598 17.598 0 0 1 6.087-4.467c2.339-1.036 4.896-1.554 7.676-1.554 2.646 0 4.972.54 6.98 1.62 2.006 1.081 3.651 2.328 4.93 3.74l-2.978 3.572a14.149 14.149 0 0 0-3.902-2.977c-1.457-.75-3.11-1.126-4.963-1.126-2.074 0-3.948.409-5.624 1.225-1.676.816-3.11 1.984-4.301 3.507-1.191 1.522-2.105 3.363-2.746 5.524-.639 2.162-.959 4.589-.959 7.278 0 2.734.32 5.195.959 7.378.64 2.183 1.533 4.047 2.68 5.591 1.147 1.543 2.547 2.735 4.201 3.572 1.655.839 3.518 1.257 5.592 1.257 2.117 0 3.969-.429 5.558-1.289 1.587-.861 3.088-2.064 4.498-3.606l3.044 3.439c-1.72 1.985-3.661 3.529-5.823 4.632-2.161 1.102-4.653 1.654-7.476 1.654v.001Zm32.806 0c-1.985 0-3.871-.375-5.657-1.125a13.944 13.944 0 0 1-4.731-3.275c-1.367-1.435-2.459-3.198-3.275-5.294-.817-2.096-1.223-4.465-1.223-7.113 0-2.69.406-5.084 1.223-7.178.816-2.096 1.908-3.87 3.275-5.327 1.368-1.455 2.944-2.558 4.731-3.307a14.468 14.468 0 0 1 5.657-1.125c1.984 0 3.87.375 5.656 1.125 1.788.749 3.364 1.852 4.732 3.307 1.366 1.457 2.459 3.232 3.274 5.327.817 2.094 1.224 4.488 1.224 7.178 0 2.647-.407 5.017-1.224 7.113-.815 2.096-1.908 3.859-3.274 5.294a13.938 13.938 0 0 1-4.732 3.275 14.463 14.463 0 0 1-5.656 1.125Zm0-4.5c1.368 0 2.624-.297 3.772-.892a8.677 8.677 0 0 0 2.944-2.515c.815-1.081 1.444-2.37 1.884-3.87.442-1.499.663-3.176.663-5.03 0-1.851-.221-3.539-.663-5.06-.441-1.522-1.069-2.835-1.884-3.937-.817-1.103-1.799-1.952-2.944-2.547-1.147-.596-2.404-.894-3.772-.894-1.368 0-2.625.299-3.772.894-1.147.595-2.129 1.444-2.944 2.547-.816 1.102-1.445 2.415-1.885 3.937-.442 1.521-.663 3.209-.663 5.06 0 1.854.221 3.531.663 5.03.441 1.499 1.069 2.789 1.885 3.87.816 1.081 1.797 1.92 2.944 2.515 1.147.596 2.404.892 3.772.892Zm22.815 3.706v-32.155h4.5l.463 5.823h.199c1.102-2.029 2.436-3.64 4.002-4.831 1.567-1.191 3.275-1.785 5.127-1.785 1.28 0 2.427.219 3.441.661l-1.058 4.763a12.424 12.424 0 0 0-1.457-.397c-.44-.087-.992-.132-1.654-.132-1.366 0-2.789.551-4.267 1.655-1.478 1.102-2.768 3.021-3.871 5.757v20.642h-5.426l.001-.001Zm34.792.794c-2.162 0-4.179-.386-6.053-1.159a14.336 14.336 0 0 1-4.896-3.308c-1.39-1.434-2.481-3.186-3.275-5.259-.794-2.074-1.191-4.433-1.191-7.081 0-2.646.406-5.017 1.223-7.112.816-2.096 1.897-3.87 3.243-5.327 1.346-1.455 2.878-2.568 4.598-3.342a12.967 12.967 0 0 1 5.359-1.157c2.029 0 3.848.352 5.458 1.059 1.61.705 2.956 1.72 4.036 3.043 1.081 1.322 1.908 2.911 2.481 4.764.574 1.852.86 3.925.86 6.219 0 .573-.011 1.136-.032 1.688a8.08 8.08 0 0 1-.167 1.423H676.84c.221 3.44 1.29 6.163 3.209 8.169 1.92 2.008 4.422 3.011 7.511 3.011 1.543 0 2.966-.231 4.267-.694a18.866 18.866 0 0 0 3.74-1.821l1.918 3.574a27.463 27.463 0 0 1-4.698 2.315c-1.72.662-3.684.992-5.889.992v.003Zm-10.124-19.452h17.203c0-3.264-.694-5.745-2.084-7.444-1.39-1.697-3.342-2.547-5.856-2.547a8.289 8.289 0 0 0-3.274.661 8.627 8.627 0 0 0-2.812 1.952c-.839.86-1.533 1.909-2.085 3.143-.551 1.236-.914 2.648-1.092 4.235Zm35.122 19.452c-2.073 0-3.551-.618-4.433-1.852-.882-1.236-1.323-3.044-1.323-5.425v-40.626h5.426v41.022c0 .883.153 1.501.463 1.852.308.354.661.529 1.058.529h.497c.153 0 .385-.044.693-.132l.728 4.102a4.708 4.708 0 0 1-1.256.398c-.485.088-1.102.132-1.852.132h-.001Zm17.413-43.683h-1.588v3.206h1.634c.903 0 1.547-.12 1.931-.365.38-.241.572-.635.572-1.188 0-.58-.2-1.002-.602-1.262-.4-.26-1.051-.391-1.947-.391Zm.286-1.016c1.311 0 2.281.211 2.918.628.636.418.956 1.058.956 1.92 0 .656-.195 1.201-.583 1.638-.392.437-.923.715-1.589.832l2.075 4.245h-1.735l-1.939-4.024h-1.975v4.024h-1.555v-9.263h3.428-.001Zm6.915 4.817c0-.975-.177-1.897-.526-2.766a6.99 6.99 0 0 0-1.521-2.307 7.145 7.145 0 0 0-2.33-1.559 7.156 7.156 0 0 0-2.766-.535c-.97 0-1.878.174-2.722.516a6.776 6.776 0 0 0-2.246 1.509 7.468 7.468 0 0 0-1.585 2.356 7.046 7.046 0 0 0-.01 5.428 7.375 7.375 0 0 0 1.554 2.322 6.965 6.965 0 0 0 4.987 2.093 7.196 7.196 0 0 0 5.097-2.094 6.815 6.815 0 0 0 1.535-2.266c.358-.85.535-1.749.535-2.698l-.002.001Zm-7.132-8.16c1.103 0 2.145.204 3.131.615.983.406 1.867 1 2.646 1.779a7.792 7.792 0 0 1 1.724 2.597c.403.983.602 2.018.602 3.113 0 1.11-.198 2.153-.602 3.124a7.52 7.52 0 0 1-1.747 2.567 8.633 8.633 0 0 1-2.683 1.792 7.82 7.82 0 0 1-3.072.625 7.858 7.858 0 0 1-3.071-.618 8.095 8.095 0 0 1-2.643-1.799 7.921 7.921 0 0 1-2.371-5.691c0-1.08.211-2.115.629-3.109a8.356 8.356 0 0 1 1.81-2.669 7.616 7.616 0 0 1 2.556-1.731 8.066 8.066 0 0 1 3.089-.595h.002Z" fill="#FFF"/></svg>