<?xml version="1.0" encoding="UTF-8" standalone="no"?><!-- Generator: Gravit.io --><svg xmlns="http://www.w3.org/2000/svg" xmlns:xlink="http://www.w3.org/1999/xlink" style="isolation:isolate" viewBox="607 338 91.614 112.388" width="91px" height="112px"><g><path d=" M 646.408 400.797 L 646.408 397.297 L 646.408 365.552 C 646.408 362.1 649.096 359.297 652.408 359.297 L 652.408 359.297 C 655.719 359.297 658.408 362.1 658.408 365.552 L 658.408 397.22 C 658.408 397.772 658.855 398.254 659.405 398.297 L 659.411 398.297 C 659.961 398.339 660.408 397.926 660.408 397.374 L 660.408 361.661 C 660.408 358.148 663.096 355.297 666.408 355.297 L 666.408 355.297 C 669.719 355.297 672.408 358.148 672.408 361.661 L 672.408 398.297 C 672.408 398.849 672.855 399.331 673.405 399.373 L 673.411 399.374 C 673.961 399.416 674.408 399.003 674.408 398.451 L 674.408 387.279 C 674.408 383.977 677.088 381.297 680.39 381.297 L 680.426 381.297 C 683.727 381.297 686.408 383.977 686.408 387.279 L 686.408 399.374 C 686.408 399.926 686.855 400.408 687.405 400.45 L 687.411 400.451 C 687.961 400.493 688.408 400.079 688.408 399.528 L 688.408 392.559 C 688.408 389.655 690.648 387.297 693.408 387.297 L 693.408 387.297 C 696.167 387.297 698.408 389.655 698.408 392.559 L 698.408 401.297 L 698.408 403.954 C 698.539 405.909 698.796 413.685 698.408 416.663 C 697.333 424.905 694.446 431.672 694.446 431.672 C 692.226 440.081 685.344 448.218 676.643 449.353 L 670.237 450.189 C 660.622 451.443 652.519 446.675 648.565 438.982 L 637.091 416.663 C 635.61 413.701 636.431 409.526 638.923 407.346 L 646.408 400.797 Z " fill="rgb(255,255,255)"/><rect x="639.837" y="331" width="4" height="36" transform="matrix(0.5,0.866,-0.866,0.5,623.161,-381.347)" fill="rgb(255,255,255)"/><path d=" M 660.89 338 L 651.033 352.928 L 643.033 339.072 L 660.89 338 Z " fill="rgb(255,255,255)"/><rect x="624.053" y="351.66" width="4" height="36" transform="matrix(-0.5,-0.866,0.866,-0.5,618.944,1096.668)" fill="rgb(255,255,255)"/><path d=" M 607 380.66 L 624.856 379.588 L 616.856 365.732 L 607 380.66 Z " fill="rgb(255,255,255)"/></g></svg>