<?xml version="1.0" encoding="UTF-8" standalone="no"?><!-- Generator: Gravit.io --><svg xmlns="http://www.w3.org/2000/svg" xmlns:xlink="http://www.w3.org/1999/xlink" style="isolation:isolate" viewBox="449 350 90.074 98.723" width="90px" height="98px"><g><path d=" M 480.254 360.255 L 480.254 360.255 C 482.705 358.807 486.02 360.107 487.652 363.157 L 495.734 378.264 C 497.366 381.313 496.099 384.87 492.908 386.202 L 492.544 386.354 C 489.352 387.686 485.667 386.182 484.32 382.997 L 478.253 368.649 C 476.906 365.464 477.802 361.702 480.254 360.255 Z " fill="rgb(255,255,255)"/><path d="M 470.803 393.658 L 470.803 393.658 C 473.816 392.285 477.431 393.734 478.87 396.893 L 486.409 413.44 C 487.848 416.599 486.57 420.278 483.557 421.652 L 483.557 421.652 C 480.544 423.025 476.929 421.576 475.49 418.417 L 467.951 401.87 C 466.512 398.711 467.79 395.032 470.803 393.658 Z" style="stroke:none;fill:#FFFFFF;stroke-miterlimit:10;"/><path d=" M 486.869 409.132 L 486.19 396.314 L 484.695 384.665 C 484.256 381.24 486.312 376.134 489.596 375.713 L 489.596 375.713 C 492.881 375.292 496.179 377.694 496.618 381.118 L 498.357 390.675 C 498.567 391.963 498.949 392.699 499.871 392.632 C 500.422 392.674 500.869 392.261 500.869 391.709 L 500.869 383.996 C 500.869 380.483 503.557 377.632 506.869 377.632 L 506.869 377.632 C 510.18 377.632 512.869 380.483 512.869 383.996 L 512.869 396.632 C 512.869 397.184 513.315 397.666 513.866 397.708 L 513.871 397.709 C 514.422 397.751 514.869 397.337 514.869 396.786 L 514.869 389.614 C 514.869 386.312 517.549 383.632 520.851 383.632 L 520.886 383.632 C 524.188 383.632 526.869 386.312 526.869 389.614 L 526.869 397.709 C 526.869 398.261 527.315 398.743 527.866 398.785 L 527.871 398.786 C 528.422 398.828 528.869 398.414 528.869 397.862 L 528.869 394.894 C 528.869 391.99 531.109 389.632 533.869 389.632 L 533.869 389.632 C 536.628 389.632 538.869 391.99 538.869 394.894 L 538.869 399.632 L 538.869 402.289 C 539 404.244 539.257 412.019 538.869 414.998 C 537.793 423.24 534.906 430.007 534.906 430.007 C 532.687 438.416 525.804 446.553 517.103 447.688 L 510.698 448.524 C 501.083 449.778 492.98 445.01 489.026 437.317 L 477.552 420.998 C 476.071 418.036 476.892 401.861 479.384 399.681 L 486.869 409.132 Z " fill="rgb(255,255,255)"/><rect x="453.977" y="386.788" width="4" height="14.2" transform="matrix(0.966,0.259,-0.259,0.966,117.483,-104.594)" fill="rgb(255,255,255)"/><path d=" M 460.869 375.632 L 464.455 393.157 L 449 389.016 L 460.869 375.632 Z " fill="rgb(255,255,255)"/><rect x="464.123" y="350.323" width="4" height="11.396" transform="matrix(-0.966,-0.259,0.259,-0.966,824.218,820.554)" fill="rgb(255,255,255)"/><path d=" M 460.869 375.632 L 472.737 362.247 L 457.282 358.106 L 460.869 375.632 Z " fill="rgb(255,255,255)"/></g></svg>