<?xml version="1.0" encoding="UTF-8" standalone="no"?><!-- Generator: Gravit.io --><svg xmlns="http://www.w3.org/2000/svg" xmlns:xlink="http://www.w3.org/1999/xlink" style="isolation:isolate" viewBox="795 342 72 108.291" width="72px" height="108px"><g><path d=" M 808 400.7 L 808 397.2 L 808 361.455 C 808 358.003 810.689 355.2 814 355.2 L 814 355.2 C 817.311 355.2 820 358.003 820 361.455 L 820 397.123 C 820 397.675 820.447 398.157 820.997 398.2 L 821.003 398.2 C 821.553 398.243 822 397.829 822 397.277 L 822 383.564 C 822 380.052 824.689 377.2 828 377.2 L 828 377.2 C 831.311 377.2 834 380.052 834 383.564 L 834 398.2 C 834 398.752 834.447 399.234 834.997 399.277 L 835.003 399.277 C 835.553 399.319 836 398.906 836 398.354 L 836 387.182 C 836 383.881 838.681 381.2 841.982 381.2 L 842.018 381.2 C 845.319 381.2 848 383.881 848 387.182 L 848 399.277 C 848 399.829 848.447 400.311 848.997 400.354 L 849.003 400.354 C 849.553 400.396 850 399.983 850 399.431 L 850 392.462 C 850 389.558 852.24 387.2 855 387.2 L 855 387.2 C 857.76 387.2 860 389.558 860 392.462 L 860 401.2 L 860 403.857 C 860.131 405.812 860.389 413.588 860 416.567 C 858.925 424.809 856.038 431.575 856.038 431.575 C 853.818 439.984 846.936 448.121 838.235 449.256 L 831.829 450.092 C 822.214 451.346 814.112 446.578 810.157 438.886 L 798.683 416.567 C 797.202 413.605 798.023 409.43 800.515 407.249 L 808 400.7 Z " fill="rgb(255,255,255)"/><path d=" M 837 361 C 837 352.721 843.721 346 852 346 C 860.279 346 867 352.721 867 361 C 867 369.279 860.279 376 852 376 C 843.721 376 837 369.279 837 361 Z  M 840.992 360.991 C 840.992 358.091 842.152 355.291 844.212 353.231 C 846.292 351.151 849.092 349.991 851.992 349.991 C 854.912 349.991 857.712 351.151 859.772 353.231 C 861.832 355.291 862.992 358.091 862.992 360.991 C 862.992 363.911 861.832 366.711 859.772 368.771 C 857.712 370.831 854.912 371.991 851.992 371.991 C 849.092 371.991 846.292 370.831 844.212 368.771 C 842.152 366.711 840.992 363.911 840.992 360.991 Z " fill-rule="evenodd" fill="rgb(255,255,255)"/><path d=" M 856.032 359.451 C 856.572 359.451 857.072 359.671 857.452 360.031 C 857.832 360.411 858.032 360.931 858.032 361.451 C 858.032 361.991 857.832 362.491 857.452 362.871 C 857.072 363.251 856.572 363.451 856.032 363.451 L 849.992 363.451 L 849.992 355.191 C 849.992 354.671 850.212 354.151 850.592 353.791 C 850.952 353.411 851.472 353.191 851.992 353.191 C 852.532 353.191 853.032 353.411 853.412 353.791 C 853.792 354.151 853.992 354.671 853.992 355.191 L 853.992 359.451 L 856.032 359.451 Z " fill="rgb(255,255,255)"/><path d=" M 824.978 361.424 C 824.989 361.281 824.992 361.136 824.992 360.991 C 824.992 358.091 823.832 355.291 821.772 353.231 C 819.712 351.151 816.912 349.991 813.992 349.991 C 811.092 349.991 808.292 351.151 806.212 353.231 C 804.152 355.291 802.992 358.091 802.992 360.991 L 802.992 360.991 L 802.992 360.991 C 802.992 361.156 802.996 361.32 803.008 361.483 C 802.996 361.651 802.992 361.819 802.992 361.988 L 802.992 371.186 C 800.515 368.51 799 364.93 799 361 L 799 361 L 799 361 C 799 352.721 805.721 346 814 346 C 822.279 346 829 352.721 829 361 C 829 364.939 827.479 368.525 824.992 371.203 L 824.992 361.988 C 824.993 361.799 824.99 361.611 824.978 361.424 Z  M 824.992 373.957 C 825.343 373.657 825.684 373.342 826.012 373.011 C 829.212 369.831 830.992 365.511 830.992 360.991 C 830.992 356.491 829.212 352.171 826.012 348.971 C 822.832 345.791 818.512 343.991 813.992 343.991 C 809.492 343.991 805.172 345.791 801.972 348.971 C 798.792 352.171 796.992 356.491 796.992 360.991 L 796.992 360.991 L 796.992 360.991 C 796.992 365.511 798.792 369.831 801.972 373.011 C 802.301 373.34 802.641 373.654 802.992 373.952 L 802.992 376.484 C 798.156 373.039 795 367.385 795 361 L 795 361 L 795 361 C 795 350.514 803.514 342 814 342 C 824.486 342 833 350.514 833 361 C 833 367.392 829.837 373.051 824.992 376.495 L 824.992 373.957 Z " fill-rule="evenodd" fill="rgb(255,255,255)"/></g></svg>