<?xml version="1.0" encoding="UTF-8" standalone="no"?><!-- Generator: Gravit.io --><svg xmlns="http://www.w3.org/2000/svg" xmlns:xlink="http://www.w3.org/1999/xlink" style="isolation:isolate" viewBox="477 668 12 10.974" width="12px" height="12px"><path d=" M 484.777 669.278 L 486.679 672.583 L 488.581 675.888 C 489.562 677.591 488.762 678.974 486.796 678.974 L 483 678.974 L 479.204 678.974 C 477.238 678.974 476.438 677.591 477.419 675.888 L 479.321 672.583 L 481.223 669.278 C 482.204 667.574 483.796 667.574 484.777 669.278 Z  M 482.437 670.552 L 483.563 670.552 C 483.652 670.552 483.725 670.625 483.725 670.714 L 483.725 674.677 C 483.725 674.766 483.652 674.839 483.563 674.839 L 482.437 674.839 C 482.348 674.839 482.275 674.766 482.275 674.677 L 482.275 670.714 C 482.275 670.625 482.348 670.552 482.437 670.552 L 482.437 670.552 Z  M 482.449 675.761 L 483.551 675.761 C 483.647 675.761 483.725 675.839 483.725 675.935 L 483.725 677.1 C 483.725 677.196 483.647 677.275 483.551 677.275 L 482.449 677.275 C 482.353 677.275 482.275 677.196 482.275 677.1 L 482.275 675.935 C 482.275 675.839 482.353 675.761 482.449 675.761 L 482.449 675.761 Z " fill-rule="evenodd" fill="rgb(255,214,7)"/></svg>