<svg xmlns="http://www.w3.org/2000/svg" viewBox="0 -51.41 337.36 51.41" height="100%"><path fill="currentColor" d="M6.78 0.00L6.78 -51.41L36.36 -51.41L36.36 0.00L6.78 0.00ZM10.44 -47.75L10.44 -3.66L32.70 -3.66L32.70 -47.75L10.44 -47.75ZM49.78 0.00L49.78 -51.41L79.36 -51.41L79.36 0.00L49.78 0.00ZM53.44 -47.75L53.44 -3.66L75.70 -3.66L75.70 -47.75L53.44 -47.75ZM92.78 0.00L92.78 -51.41L122.36 -51.41L122.36 0.00L92.78 0.00ZM96.44 -47.75L96.44 -3.66L118.70 -3.66L118.70 -47.75L96.44 -47.75ZM135.78 0.00L135.78 -51.41L165.36 -51.41L165.36 0.00L135.78 0.00ZM139.44 -47.75L139.44 -3.66L161.70 -3.66L161.70 -47.75L139.44 -47.75ZM178.78 0.00L178.78 -51.41L208.36 -51.41L208.36 0.00L178.78 0.00ZM182.44 -47.75L182.44 -3.66L204.70 -3.66L204.70 -47.75L182.44 -47.75ZM221.78 0.00L221.78 -51.41L251.36 -51.41L251.36 0.00L221.78 0.00ZM225.44 -47.75L225.44 -3.66L247.70 -3.66L247.70 -47.75L225.44 -47.75ZM264.78 0.00L264.78 -51.41L294.36 -51.41L294.36 0.00L264.78 0.00ZM268.44 -47.75L268.44 -3.66L290.70 -3.66L290.70 -47.75L268.44 -47.75ZM307.78 0.00L307.78 -51.41L337.36 -51.41L337.36 0.00L307.78 0.00ZM311.44 -47.75L311.44 -3.66L333.70 -3.66L333.70 -47.75L311.44 -47.75Z"/></svg>