<?xml version="1.0" standalone="no"?><!-- Generator: Gravit.io --><svg xmlns="http://www.w3.org/2000/svg" xmlns:xlink="http://www.w3.org/1999/xlink" style="isolation:isolate" viewBox="0 0 16 16" width="16" height="16"><defs><clipPath id="_clipPath_yx412wlPIKURBBdTosfhh7onIKkES96p"><rect width="16" height="16"/></clipPath></defs><g clip-path="url(#_clipPath_yx412wlPIKURBBdTosfhh7onIKkES96p)"><path d=" M 0.615 0 L 5.244 0 C 5.584 0 5.86 0.276 5.86 0.615 L 5.86 5.244 C 5.86 5.584 5.584 5.86 5.244 5.86 L 0.615 5.86 C 0.276 5.86 0 5.584 0 5.244 L 0 0.615 C 0 0.276 0.276 0 0.615 0 Z  M 10.756 0 L 15.385 0 C 15.724 0 16 0.276 16 0.615 L 16 5.244 C 16 5.584 15.724 5.86 15.385 5.86 L 10.756 5.86 C 10.416 5.86 10.14 5.584 10.14 5.244 L 10.14 0.615 C 10.14 0.276 10.416 0 10.756 0 Z  M 10.756 10.14 L 15.385 10.14 C 15.724 10.14 16 10.416 16 10.756 L 16 15.385 C 16 15.724 15.724 16 15.385 16 L 10.756 16 C 10.416 16 10.14 15.724 10.14 15.385 L 10.14 10.756 C 10.14 10.416 10.416 10.14 10.756 10.14 Z  M 0.615 10.14 L 5.244 10.14 C 5.584 10.14 5.86 10.416 5.86 10.756 L 5.86 15.385 C 5.86 15.724 5.584 16 5.244 16 L 0.615 16 C 0.276 16 0 15.724 0 15.385 L 0 10.756 C 0 10.416 0.276 10.14 0.615 10.14 Z " fill-rule="evenodd" fill="rgb(234,234,234)"/></g></svg>