<?xml version="1.0" standalone="no"?><!-- Generator: Gravit.io --><svg xmlns="http://www.w3.org/2000/svg" xmlns:xlink="http://www.w3.org/1999/xlink" style="isolation:isolate" viewBox="352 2070 16 16" width="16" height="16"><g><path d=" M 362 2079.001 L 362.999 2079.001 L 362.999 2080 L 362 2080 L 362 2079.001 Z  M 366.999 2078.999 L 368 2078.999 L 368 2084.999 L 368 2086 L 366.999 2086 L 362 2086 L 362 2084.999 L 366.999 2084.999 L 366.999 2080 L 366 2080 L 366 2078.999 L 366.999 2078.999 L 366.999 2078.999 Z  M 364 2078.999 L 364.999 2078.999 L 364.999 2080 L 364 2080 L 364 2078.999 Z  M 362 2082.999 L 366 2082.999 L 366 2084 L 362 2084 L 362 2082.999 L 362 2082.999 Z  M 362 2081.001 L 362.999 2081.001 L 362.999 2082 L 362 2082 L 362 2081.001 Z " fill-rule="evenodd" fill="rgb(235,235,235)"/><path d=" M 354 2075.001 L 356.999 2075.001 L 356.999 2075.001 L 360 2075.001 L 360 2071.001 L 352.999 2071.001 L 352.999 2080 L 356 2080 L 356 2079.001 L 354 2079.001 L 354 2078 L 356 2078 L 356 2076 L 354 2076 L 354 2075.001 Z  M 354 2072 L 358.999 2072 L 358.999 2073.001 L 354 2073.001 L 354 2072 Z  M 352 2070 L 360.999 2070 L 360.999 2076 L 356.999 2076 L 356.999 2081.001 L 352 2081.001 L 352 2070 Z " fill-rule="evenodd" fill="rgb(235,235,235)"/></g></svg>