<?xml version="1.0" standalone="no"?><!-- Generator: Gravit.io --><svg xmlns="http://www.w3.org/2000/svg" xmlns:xlink="http://www.w3.org/1999/xlink" style="isolation:isolate" viewBox="0 0 12.617 12.35" width="12.617" height="12.35"><defs><clipPath id="_clipPath_93FauQwFAgpG9pxE4ahWtiAtT7IYNyFR"><rect width="12.617" height="12.35"/></clipPath></defs><g clip-path="url(#_clipPath_93FauQwFAgpG9pxE4ahWtiAtT7IYNyFR)"><path d=" M 6.308 0.175 C 5.354 0.175 4.394 0.539 3.667 1.267 C 3.126 1.808 2.797 2.479 2.658 3.179 C 1.246 3.453 0.175 4.686 0.175 6.175 C 0.175 7.864 1.553 9.242 3.242 9.242 L 4.708 9.242 C 4.853 9.244 4.987 9.168 5.059 9.043 C 5.132 8.919 5.132 8.765 5.059 8.64 C 4.987 8.515 4.853 8.44 4.708 8.442 L 3.242 8.442 C 1.985 8.442 0.975 7.432 0.975 6.175 C 0.975 4.988 1.877 4.022 3.033 3.917 C 3.22 3.898 3.369 3.753 3.392 3.567 C 3.465 2.933 3.746 2.317 4.233 1.829 C 4.807 1.255 5.557 0.975 6.308 0.975 C 7.06 0.975 7.805 1.255 8.379 1.829 C 9.043 2.493 9.324 3.395 9.221 4.258 C 9.207 4.372 9.242 4.486 9.317 4.573 C 9.393 4.659 9.502 4.708 9.617 4.708 L 9.775 4.708 C 10.816 4.708 11.642 5.534 11.642 6.575 C 11.642 7.616 10.816 8.442 9.775 8.442 L 7.908 8.442 C 7.764 8.44 7.63 8.515 7.557 8.64 C 7.484 8.765 7.484 8.919 7.557 9.043 C 7.63 9.168 7.764 9.244 7.908 9.242 L 9.775 9.242 C 11.245 9.242 12.442 8.045 12.442 6.575 C 12.442 5.187 11.373 4.058 10.017 3.933 C 10.023 2.968 9.68 2.001 8.946 1.267 C 8.219 0.54 7.263 0.175 6.308 0.175 Z  M 6.308 6.575 C 6.087 6.575 5.908 6.754 5.908 6.975 L 5.908 10.871 L 5.112 10.146 C 4.957 10.005 4.687 10.016 4.546 10.171 C 4.404 10.325 4.401 10.58 4.571 10.738 L 6.038 12.071 C 6.104 12.132 6.175 12.175 6.308 12.175 C 6.442 12.175 6.5 12.143 6.579 12.071 L 8.046 10.738 C 8.2 10.595 8.228 10.325 8.071 10.171 C 7.921 10.024 7.659 10.005 7.504 10.146 L 6.708 10.871 L 6.708 6.975 C 6.708 6.754 6.529 6.575 6.308 6.575 L 6.308 6.575 Z " fill="rgb(255,255,255)" vector-effect="non-scaling-stroke" stroke-width="0.35" stroke="rgb(255,255,255)" stroke-linejoin="miter" stroke-linecap="butt" stroke-miterlimit="4"/></g></svg>