<?xml version="1.0" encoding="UTF-8" standalone="no"?><!-- Generator: Gravit.io --><svg xmlns="http://www.w3.org/2000/svg" xmlns:xlink="http://www.w3.org/1999/xlink" style="isolation:isolate" viewBox="369.5 530 60 60" width="60pt" height="60pt"><path d=" M 402.121 560 L 411.667 550.454 L 409.546 548.333 L 400 557.879 L 390.454 548.333 L 388.333 550.454 L 397.879 560 L 388.333 569.546 L 390.454 571.667 L 400 562.121 L 409.546 571.667 L 411.667 569.546 L 402.121 560 Z  M 372.5 560 C 372.5 552.83 375.35 545.96 380.42 540.92 C 385.46 535.85 392.33 533 399.5 533 C 406.67 533 413.54 535.85 418.58 540.92 C 423.65 545.96 426.5 552.83 426.5 560 C 426.5 567.17 423.65 574.04 418.58 579.08 C 413.54 584.15 406.67 587 399.5 587 C 392.33 587 385.46 584.15 380.42 579.08 C 375.35 574.04 372.5 567.17 372.5 560 L 372.5 560 Z  M 369.5 560 C 369.5 543.443 382.943 530 399.5 530 C 416.057 530 429.5 543.443 429.5 560 C 429.5 576.557 416.057 590 399.5 590 C 382.943 590 369.5 576.557 369.5 560 L 369.5 560 Z " fill-rule="evenodd" fill="rgb(255,54,54)"/></svg>