<?xml version="1.0" standalone="no"?><!-- Generator: Gravit.io --><svg xmlns="http://www.w3.org/2000/svg" xmlns:xlink="http://www.w3.org/1999/xlink" style="isolation:isolate" viewBox="34.231 127.501 19.11 15" width="19.11" height="15"><g><path d="M 35.42 128.603 L 52.152 128.603 C 52.808 128.603 53.341 129.136 53.341 129.792 L 53.341 141.253 C 53.341 141.909 52.808 142.441 52.152 142.441 L 35.42 142.441 C 34.764 142.441 34.231 141.909 34.231 141.253 L 34.231 129.792 C 34.231 129.136 34.764 128.603 35.42 128.603 Z" style="stroke:none;fill:#3A89BB;stroke-miterlimit:10;"/><rect x="36.214" y="129.917" width="16.377" height="3.11" transform="matrix(1,0,0,1,0,0)" fill="rgb(155,215,253)"/><path d=" M 45.38 130.907 L 52.83 130.907 C 53.112 130.907 53.341 131.136 53.341 131.418 L 53.341 141.99 C 53.341 142.272 53.112 142.501 52.83 142.501 L 34.742 142.501 C 34.46 142.501 34.231 142.272 34.231 141.99 L 34.231 132.042 L 34.231 132.042 L 34.231 131.418 L 34.231 128.67 C 34.231 128.025 34.755 127.501 35.401 127.501 L 42.666 127.501 C 42.827 127.501 43.034 127.608 43.127 127.739 L 45.38 130.907 Z " fill="rgb(91,179,232)"/></g></svg>