<?xml version="1.0" standalone="no"?><!-- Generator: Gravit.io --><svg xmlns="http://www.w3.org/2000/svg" xmlns:xlink="http://www.w3.org/1999/xlink" style="isolation:isolate" viewBox="25 8 130.594 24" width="130.594" height="24"><g><g><linearGradient id="_lgradient_0" x1="0.39138298442489683" y1="0.07658647108805174" x2="0.7640324759223271" y2="0.8901190364544047" gradientTransform="matrix(23.996,0,0,24,25.003,8)" gradientUnits="userSpaceOnUse"><stop offset="0%" stop-opacity="1" style="stop-color:rgb(213,24,119)"/><stop offset="100%" stop-opacity="1" style="stop-color:rgb(136,6,104)"/></linearGradient><path d=" M 33.489 12.484 C 33.489 12.484 33.489 12.484 33.489 12.484 L 31.305 10.825 C 30.694 10.361 29.894 10.384 29.519 10.877 C 29.145 11.37 29.337 12.147 29.947 12.611 L 32.035 14.196 C 32.274 14.378 32.333 14.704 32.166 14.923 C 31.999 15.143 31.67 15.173 31.431 14.992 L 30.87 14.566 C 30.87 14.566 30.87 14.566 30.87 14.566 L 30.619 14.375 C 30.008 13.911 29.208 13.935 28.833 14.428 C 28.459 14.92 28.651 15.697 29.261 16.161 L 30.223 16.892 C 30.532 17.126 30.592 17.566 30.358 17.875 C 30.123 18.183 29.683 18.243 29.375 18.009 L 27.537 16.614 C 27.537 16.613 27.537 16.613 27.536 16.613 L 26.98 16.191 C 26.369 15.727 25.569 15.75 25.195 16.243 C 24.82 16.736 25.012 17.513 25.623 17.977 L 28.278 19.993 C 28.278 19.993 28.278 19.993 28.278 19.993 L 29.702 21.075 C 30.15 21.415 30.249 22.041 29.921 22.472 C 29.594 22.903 28.965 22.976 28.517 22.636 L 27.197 21.633 C 26.586 21.17 25.786 21.193 25.412 21.686 C 25.037 22.179 25.23 22.956 25.841 23.42 L 27.69 24.825 C 28.118 25.179 28.457 25.506 28.828 25.92 C 29.159 26.289 29.433 26.637 29.693 27.022 C 29.782 27.174 29.878 27.323 29.981 27.468 C 29.992 27.489 30.006 27.509 30.023 27.527 C 30.628 28.404 31.382 29.2 32.276 29.879 C 36.856 33.358 43.399 32.464 46.878 27.883 C 50.357 23.303 49.463 16.759 44.882 13.281 C 43.537 12.259 42.022 11.614 40.465 11.332 C 39.84 11.174 39.221 11.011 38.582 10.746 C 37.983 10.497 37.602 10.37 36.933 9.929 L 34.784 8.297 C 34.173 7.832 33.322 7.923 32.884 8.499 C 32.447 9.074 32.588 9.918 33.199 10.382 L 34.978 11.734 C 34.978 11.734 34.978 11.734 34.979 11.734 L 35.038 11.779 C 35.037 11.779 35.036 11.78 35.035 11.78 C 35.314 12.039 35.357 12.474 35.122 12.783 C 34.872 13.112 34.401 13.177 34.072 12.927 L 33.489 12.484 Z  M 41.071 24.083 L 41.071 22.809 C 40.414 23.734 39.398 24.328 38.26 24.328 C 36.28 24.328 34.672 22.532 34.672 20.32 C 34.672 18.107 36.28 16.311 38.26 16.311 C 39.398 16.311 40.414 16.905 41.071 17.831 L 41.071 16.472 L 42.782 16.472 Q 42.812 24.287 42.793 24.403 C 42.54 25.94 41.575 27.17 40.115 27.795 C 38.396 28.532 36.52 28.184 35.179 26.88 L 35.987 25.519 C 36.788 26.51 38.076 26.853 39.264 26.391 C 40.271 25.999 40.933 25.154 41.071 24.083 Z  M 36.363 20.254 C 36.363 18.821 37.405 17.657 38.687 17.657 C 39.97 17.657 41.011 18.821 41.011 20.254 C 41.011 21.687 39.97 22.85 38.687 22.85 C 37.405 22.85 36.363 21.687 36.363 20.254 Z " fill-rule="evenodd" fill="url(#_lgradient_0)"/><path d="M 27.019 21.498 L 27.019 21.498 C 27.531 21.887 27.643 22.603 27.269 23.096 L 27.269 23.096 C 26.894 23.589 26.174 23.674 25.662 23.284 L 25.662 23.284 C 25.15 22.895 25.037 22.179 25.412 21.686 L 25.412 21.686 C 25.786 21.193 26.506 21.109 27.019 21.498 Z" style="stroke:none;fill:#D51877;stroke-miterlimit:10;"/><path d="M 26.958 16.174 L 26.958 16.174 C 27.556 16.628 27.738 17.398 27.364 17.891 L 27.364 17.891 C 26.99 18.384 26.2 18.415 25.601 17.96 L 25.601 17.96 C 25.002 17.505 24.82 16.736 25.195 16.243 L 25.195 16.243 C 25.569 15.75 26.359 15.719 26.958 16.174 Z" style="stroke:none;fill:#880668;stroke-miterlimit:10;"/><path d="M 28.184 12.526 L 28.184 12.526 C 28.699 12.917 28.813 13.635 28.438 14.128 L 28.438 14.128 C 28.064 14.621 27.342 14.703 26.827 14.312 L 26.827 14.312 C 26.313 13.921 26.199 13.204 26.573 12.711 L 26.573 12.711 C 26.948 12.218 27.669 12.135 28.184 12.526 Z" style="stroke:none;fill:#880668;stroke-miterlimit:10;"/><path d="M 31.225 10.764 L 31.92 11.292 C 32.487 11.723 32.644 12.473 32.269 12.966 L 32.269 12.966 C 31.895 13.459 31.13 13.509 30.563 13.078 L 29.869 12.551 C 29.301 12.12 29.145 11.37 29.519 10.877 L 29.519 10.877 C 29.894 10.384 30.658 10.334 31.225 10.764 Z" style="stroke:none;fill:#880668;stroke-miterlimit:10;"/></g><g><path d=" M 64.378 16.067 C 64.517 16.067 64.631 16.111 64.718 16.199 C 64.806 16.285 64.858 16.4 64.858 16.544 L 64.858 23.202 C 64.858 24.002 64.683 24.686 64.343 25.255 C 63.994 25.824 63.522 26.257 62.928 26.554 C 62.335 26.852 61.645 27 60.877 27 C 60.51 27 60.117 26.954 59.715 26.862 C 59.305 26.769 58.956 26.652 58.668 26.508 C 58.379 26.364 58.214 26.216 58.17 26.062 C 58.091 25.991 58.056 25.909 58.056 25.816 C 58.056 25.714 58.109 25.631 58.205 25.57 C 58.24 25.539 58.292 25.524 58.362 25.524 C 58.423 25.524 58.545 25.56 58.72 25.631 L 59.061 25.77 C 59.715 26.016 60.327 26.139 60.894 26.139 C 61.837 26.139 62.57 25.881 63.103 25.363 C 63.636 24.845 63.906 24.145 63.906 23.264 L 63.906 22.31 C 63.644 22.864 63.225 23.297 62.649 23.609 C 62.082 23.922 61.488 24.079 60.859 24.079 C 60.134 24.079 59.48 23.902 58.886 23.548 C 58.301 23.194 57.838 22.705 57.506 22.08 C 57.166 21.454 57 20.752 57 19.973 C 57 19.204 57.166 18.507 57.506 17.882 C 57.838 17.256 58.301 16.767 58.886 16.414 C 59.48 16.06 60.126 15.883 60.842 15.883 C 61.514 15.883 62.125 16.044 62.675 16.367 C 63.234 16.69 63.644 17.077 63.906 17.528 L 63.906 16.544 C 63.906 16.411 63.95 16.298 64.037 16.206 C 64.125 16.114 64.238 16.067 64.378 16.067 Z  M 60.938 23.218 C 61.523 23.218 62.047 23.081 62.501 22.81 C 62.963 22.538 63.321 22.154 63.583 21.657 C 63.836 21.159 63.967 20.598 63.967 19.973 C 63.967 19.348 63.836 18.789 63.583 18.297 C 63.321 17.805 62.963 17.423 62.501 17.151 C 62.047 16.88 61.523 16.744 60.938 16.744 C 60.37 16.744 59.855 16.885 59.401 17.167 C 58.938 17.449 58.58 17.836 58.318 18.328 C 58.056 18.82 57.934 19.368 57.934 19.973 C 57.934 20.588 58.056 21.142 58.318 21.634 C 58.58 22.126 58.938 22.513 59.401 22.795 C 59.855 23.076 60.37 23.218 60.938 23.218 Z  M 72.629 15.883 C 72.838 15.883 73.03 15.924 73.196 16.006 C 73.371 16.088 73.449 16.211 73.449 16.375 C 73.449 16.519 73.414 16.634 73.327 16.721 C 73.24 16.808 73.144 16.852 73.021 16.852 C 72.969 16.852 72.864 16.826 72.716 16.775 C 72.567 16.723 72.419 16.698 72.279 16.698 C 71.886 16.698 71.502 16.844 71.118 17.136 C 70.734 17.428 70.411 17.805 70.166 18.266 C 69.913 18.727 69.791 19.194 69.791 19.665 L 69.791 23.464 C 69.791 23.597 69.747 23.707 69.66 23.794 C 69.564 23.881 69.459 23.925 69.319 23.925 C 69.18 23.925 69.066 23.881 68.979 23.794 C 68.892 23.707 68.839 23.597 68.839 23.464 L 68.839 16.575 C 68.839 16.442 68.892 16.332 68.979 16.244 C 69.066 16.157 69.18 16.114 69.319 16.114 C 69.459 16.114 69.564 16.157 69.66 16.244 C 69.747 16.332 69.791 16.442 69.791 16.575 L 69.791 17.928 C 70.035 17.343 70.402 16.86 70.891 16.475 C 71.389 16.091 71.965 15.893 72.629 15.883 Z  M 83.001 16.067 C 83.141 16.067 83.254 16.114 83.341 16.206 C 83.429 16.298 83.481 16.411 83.481 16.544 L 83.481 23.464 C 83.481 23.597 83.429 23.707 83.341 23.794 C 83.254 23.881 83.141 23.925 83.001 23.925 C 82.861 23.925 82.748 23.881 82.66 23.794 C 82.573 23.707 82.529 23.597 82.529 23.464 L 82.529 22.433 C 82.259 22.894 81.866 23.284 81.342 23.602 C 80.809 23.92 80.233 24.079 79.613 24.079 C 78.906 24.079 78.269 23.899 77.701 23.541 C 77.134 23.181 76.697 22.69 76.374 22.065 C 76.051 21.439 75.885 20.737 75.885 19.958 C 75.885 19.179 76.051 18.479 76.383 17.859 C 76.706 17.238 77.151 16.754 77.719 16.405 C 78.286 16.057 78.906 15.883 79.596 15.883 C 80.233 15.883 80.809 16.032 81.342 16.329 C 81.866 16.627 82.259 17.016 82.529 17.498 L 82.529 16.544 C 82.529 16.411 82.573 16.298 82.66 16.206 C 82.748 16.114 82.861 16.067 83.001 16.067 Z  M 79.709 23.218 C 80.251 23.218 80.748 23.076 81.185 22.795 C 81.621 22.513 81.971 22.123 82.215 21.626 C 82.468 21.129 82.591 20.573 82.591 19.958 C 82.591 19.363 82.468 18.82 82.215 18.328 C 81.971 17.836 81.621 17.449 81.185 17.167 C 80.748 16.885 80.251 16.744 79.709 16.744 C 79.159 16.744 78.662 16.882 78.225 17.16 C 77.789 17.436 77.439 17.818 77.195 18.304 C 76.95 18.792 76.819 19.343 76.819 19.958 C 76.819 20.573 76.942 21.129 77.186 21.626 C 77.431 22.123 77.771 22.513 78.208 22.795 C 78.644 23.076 79.151 23.218 79.709 23.218 Z  M 93.565 15.914 C 93.67 15.914 93.766 15.949 93.862 16.021 C 93.958 16.093 94.011 16.185 94.011 16.298 C 94.011 16.39 93.985 16.477 93.941 16.56 L 90.841 23.632 C 90.798 23.714 90.737 23.784 90.658 23.84 C 90.579 23.897 90.492 23.925 90.414 23.925 C 90.309 23.935 90.213 23.914 90.125 23.864 C 90.038 23.812 89.977 23.735 89.933 23.632 L 86.816 16.56 C 86.816 16.539 86.808 16.508 86.79 16.467 C 86.773 16.427 86.764 16.385 86.764 16.344 C 86.764 16.221 86.808 16.116 86.895 16.029 C 86.982 15.942 87.096 15.899 87.262 15.899 C 87.358 15.899 87.445 15.927 87.524 15.983 C 87.602 16.039 87.663 16.114 87.698 16.206 L 90.396 22.433 L 93.103 16.206 C 93.146 16.114 93.207 16.039 93.286 15.983 C 93.365 15.927 93.461 15.904 93.565 15.914 Z  M 98.237 23.464 C 98.237 23.597 98.184 23.707 98.097 23.794 C 98.01 23.881 97.896 23.925 97.756 23.925 C 97.625 23.925 97.503 23.881 97.416 23.794 C 97.329 23.707 97.285 23.597 97.285 23.464 L 97.285 16.39 C 97.285 16.257 97.329 16.147 97.416 16.06 C 97.503 15.972 97.625 15.929 97.756 15.929 C 97.896 15.929 98.01 15.972 98.097 16.06 C 98.184 16.147 98.237 16.257 98.237 16.39 L 98.237 23.464 Z  M 97.756 14.899 C 97.547 14.899 97.381 14.85 97.267 14.753 C 97.154 14.655 97.093 14.515 97.093 14.33 L 97.093 14.177 C 97.093 13.992 97.154 13.85 97.276 13.754 C 97.398 13.656 97.564 13.607 97.774 13.607 C 98.193 13.607 98.411 13.797 98.411 14.177 L 98.411 14.33 C 98.411 14.515 98.35 14.655 98.245 14.753 C 98.132 14.85 97.966 14.899 97.756 14.899 Z  M 103.772 16.96 L 103.772 22.11 C 103.772 22.5 103.851 22.764 103.999 22.903 C 104.147 23.041 104.339 23.109 104.584 23.109 C 104.645 23.109 104.724 23.097 104.82 23.071 C 104.916 23.046 104.986 23.033 105.038 23.033 C 105.134 23.033 105.221 23.071 105.291 23.148 C 105.352 23.226 105.387 23.314 105.387 23.417 C 105.387 23.561 105.309 23.681 105.134 23.779 C 104.968 23.876 104.767 23.925 104.532 23.925 C 104.252 23.925 103.999 23.899 103.772 23.848 C 103.554 23.797 103.336 23.643 103.135 23.387 C 102.925 23.131 102.82 22.72 102.82 22.157 L 102.82 16.96 L 101.668 16.96 C 101.537 16.96 101.432 16.918 101.345 16.837 C 101.249 16.754 101.205 16.652 101.205 16.529 C 101.205 16.405 101.249 16.304 101.345 16.221 C 101.432 16.139 101.537 16.099 101.668 16.099 L 102.82 16.099 L 102.82 14.392 C 102.82 14.258 102.873 14.148 102.96 14.06 C 103.047 13.974 103.161 13.93 103.301 13.93 C 103.432 13.93 103.554 13.974 103.641 14.06 C 103.728 14.148 103.772 14.258 103.772 14.392 L 103.772 16.099 L 105.361 16.099 C 105.475 16.099 105.579 16.144 105.667 16.237 C 105.754 16.329 105.798 16.432 105.798 16.544 C 105.798 16.667 105.763 16.767 105.675 16.844 C 105.588 16.921 105.483 16.96 105.361 16.96 L 103.772 16.96 Z " fill-rule="evenodd" fill="rgb(104,32,102)"/><clipPath id="_clipPath_QfllTmxSDKAbw9r2UVHKNLfDMPeHsN63"><path d=" M 64.378 16.067 C 64.517 16.067 64.631 16.111 64.718 16.199 C 64.806 16.285 64.858 16.4 64.858 16.544 L 64.858 23.202 C 64.858 24.002 64.683 24.686 64.343 25.255 C 63.994 25.824 63.522 26.257 62.928 26.554 C 62.335 26.852 61.645 27 60.877 27 C 60.51 27 60.117 26.954 59.715 26.862 C 59.305 26.769 58.956 26.652 58.668 26.508 C 58.379 26.364 58.214 26.216 58.17 26.062 C 58.091 25.991 58.056 25.909 58.056 25.816 C 58.056 25.714 58.109 25.631 58.205 25.57 C 58.24 25.539 58.292 25.524 58.362 25.524 C 58.423 25.524 58.545 25.56 58.72 25.631 L 59.061 25.77 C 59.715 26.016 60.327 26.139 60.894 26.139 C 61.837 26.139 62.57 25.881 63.103 25.363 C 63.636 24.845 63.906 24.145 63.906 23.264 L 63.906 22.31 C 63.644 22.864 63.225 23.297 62.649 23.609 C 62.082 23.922 61.488 24.079 60.859 24.079 C 60.134 24.079 59.48 23.902 58.886 23.548 C 58.301 23.194 57.838 22.705 57.506 22.08 C 57.166 21.454 57 20.752 57 19.973 C 57 19.204 57.166 18.507 57.506 17.882 C 57.838 17.256 58.301 16.767 58.886 16.414 C 59.48 16.06 60.126 15.883 60.842 15.883 C 61.514 15.883 62.125 16.044 62.675 16.367 C 63.234 16.69 63.644 17.077 63.906 17.528 L 63.906 16.544 C 63.906 16.411 63.95 16.298 64.037 16.206 C 64.125 16.114 64.238 16.067 64.378 16.067 Z  M 60.938 23.218 C 61.523 23.218 62.047 23.081 62.501 22.81 C 62.963 22.538 63.321 22.154 63.583 21.657 C 63.836 21.159 63.967 20.598 63.967 19.973 C 63.967 19.348 63.836 18.789 63.583 18.297 C 63.321 17.805 62.963 17.423 62.501 17.151 C 62.047 16.88 61.523 16.744 60.938 16.744 C 60.37 16.744 59.855 16.885 59.401 17.167 C 58.938 17.449 58.58 17.836 58.318 18.328 C 58.056 18.82 57.934 19.368 57.934 19.973 C 57.934 20.588 58.056 21.142 58.318 21.634 C 58.58 22.126 58.938 22.513 59.401 22.795 C 59.855 23.076 60.37 23.218 60.938 23.218 Z  M 72.629 15.883 C 72.838 15.883 73.03 15.924 73.196 16.006 C 73.371 16.088 73.449 16.211 73.449 16.375 C 73.449 16.519 73.414 16.634 73.327 16.721 C 73.24 16.808 73.144 16.852 73.021 16.852 C 72.969 16.852 72.864 16.826 72.716 16.775 C 72.567 16.723 72.419 16.698 72.279 16.698 C 71.886 16.698 71.502 16.844 71.118 17.136 C 70.734 17.428 70.411 17.805 70.166 18.266 C 69.913 18.727 69.791 19.194 69.791 19.665 L 69.791 23.464 C 69.791 23.597 69.747 23.707 69.66 23.794 C 69.564 23.881 69.459 23.925 69.319 23.925 C 69.18 23.925 69.066 23.881 68.979 23.794 C 68.892 23.707 68.839 23.597 68.839 23.464 L 68.839 16.575 C 68.839 16.442 68.892 16.332 68.979 16.244 C 69.066 16.157 69.18 16.114 69.319 16.114 C 69.459 16.114 69.564 16.157 69.66 16.244 C 69.747 16.332 69.791 16.442 69.791 16.575 L 69.791 17.928 C 70.035 17.343 70.402 16.86 70.891 16.475 C 71.389 16.091 71.965 15.893 72.629 15.883 Z  M 83.001 16.067 C 83.141 16.067 83.254 16.114 83.341 16.206 C 83.429 16.298 83.481 16.411 83.481 16.544 L 83.481 23.464 C 83.481 23.597 83.429 23.707 83.341 23.794 C 83.254 23.881 83.141 23.925 83.001 23.925 C 82.861 23.925 82.748 23.881 82.66 23.794 C 82.573 23.707 82.529 23.597 82.529 23.464 L 82.529 22.433 C 82.259 22.894 81.866 23.284 81.342 23.602 C 80.809 23.92 80.233 24.079 79.613 24.079 C 78.906 24.079 78.269 23.899 77.701 23.541 C 77.134 23.181 76.697 22.69 76.374 22.065 C 76.051 21.439 75.885 20.737 75.885 19.958 C 75.885 19.179 76.051 18.479 76.383 17.859 C 76.706 17.238 77.151 16.754 77.719 16.405 C 78.286 16.057 78.906 15.883 79.596 15.883 C 80.233 15.883 80.809 16.032 81.342 16.329 C 81.866 16.627 82.259 17.016 82.529 17.498 L 82.529 16.544 C 82.529 16.411 82.573 16.298 82.66 16.206 C 82.748 16.114 82.861 16.067 83.001 16.067 Z  M 79.709 23.218 C 80.251 23.218 80.748 23.076 81.185 22.795 C 81.621 22.513 81.971 22.123 82.215 21.626 C 82.468 21.129 82.591 20.573 82.591 19.958 C 82.591 19.363 82.468 18.82 82.215 18.328 C 81.971 17.836 81.621 17.449 81.185 17.167 C 80.748 16.885 80.251 16.744 79.709 16.744 C 79.159 16.744 78.662 16.882 78.225 17.16 C 77.789 17.436 77.439 17.818 77.195 18.304 C 76.95 18.792 76.819 19.343 76.819 19.958 C 76.819 20.573 76.942 21.129 77.186 21.626 C 77.431 22.123 77.771 22.513 78.208 22.795 C 78.644 23.076 79.151 23.218 79.709 23.218 Z  M 93.565 15.914 C 93.67 15.914 93.766 15.949 93.862 16.021 C 93.958 16.093 94.011 16.185 94.011 16.298 C 94.011 16.39 93.985 16.477 93.941 16.56 L 90.841 23.632 C 90.798 23.714 90.737 23.784 90.658 23.84 C 90.579 23.897 90.492 23.925 90.414 23.925 C 90.309 23.935 90.213 23.914 90.125 23.864 C 90.038 23.812 89.977 23.735 89.933 23.632 L 86.816 16.56 C 86.816 16.539 86.808 16.508 86.79 16.467 C 86.773 16.427 86.764 16.385 86.764 16.344 C 86.764 16.221 86.808 16.116 86.895 16.029 C 86.982 15.942 87.096 15.899 87.262 15.899 C 87.358 15.899 87.445 15.927 87.524 15.983 C 87.602 16.039 87.663 16.114 87.698 16.206 L 90.396 22.433 L 93.103 16.206 C 93.146 16.114 93.207 16.039 93.286 15.983 C 93.365 15.927 93.461 15.904 93.565 15.914 Z  M 98.237 23.464 C 98.237 23.597 98.184 23.707 98.097 23.794 C 98.01 23.881 97.896 23.925 97.756 23.925 C 97.625 23.925 97.503 23.881 97.416 23.794 C 97.329 23.707 97.285 23.597 97.285 23.464 L 97.285 16.39 C 97.285 16.257 97.329 16.147 97.416 16.06 C 97.503 15.972 97.625 15.929 97.756 15.929 C 97.896 15.929 98.01 15.972 98.097 16.06 C 98.184 16.147 98.237 16.257 98.237 16.39 L 98.237 23.464 Z  M 97.756 14.899 C 97.547 14.899 97.381 14.85 97.267 14.753 C 97.154 14.655 97.093 14.515 97.093 14.33 L 97.093 14.177 C 97.093 13.992 97.154 13.85 97.276 13.754 C 97.398 13.656 97.564 13.607 97.774 13.607 C 98.193 13.607 98.411 13.797 98.411 14.177 L 98.411 14.33 C 98.411 14.515 98.35 14.655 98.245 14.753 C 98.132 14.85 97.966 14.899 97.756 14.899 Z  M 103.772 16.96 L 103.772 22.11 C 103.772 22.5 103.851 22.764 103.999 22.903 C 104.147 23.041 104.339 23.109 104.584 23.109 C 104.645 23.109 104.724 23.097 104.82 23.071 C 104.916 23.046 104.986 23.033 105.038 23.033 C 105.134 23.033 105.221 23.071 105.291 23.148 C 105.352 23.226 105.387 23.314 105.387 23.417 C 105.387 23.561 105.309 23.681 105.134 23.779 C 104.968 23.876 104.767 23.925 104.532 23.925 C 104.252 23.925 103.999 23.899 103.772 23.848 C 103.554 23.797 103.336 23.643 103.135 23.387 C 102.925 23.131 102.82 22.72 102.82 22.157 L 102.82 16.96 L 101.668 16.96 C 101.537 16.96 101.432 16.918 101.345 16.837 C 101.249 16.754 101.205 16.652 101.205 16.529 C 101.205 16.405 101.249 16.304 101.345 16.221 C 101.432 16.139 101.537 16.099 101.668 16.099 L 102.82 16.099 L 102.82 14.392 C 102.82 14.258 102.873 14.148 102.96 14.06 C 103.047 13.974 103.161 13.93 103.301 13.93 C 103.432 13.93 103.554 13.974 103.641 14.06 C 103.728 14.148 103.772 14.258 103.772 14.392 L 103.772 16.099 L 105.361 16.099 C 105.475 16.099 105.579 16.144 105.667 16.237 C 105.754 16.329 105.798 16.432 105.798 16.544 C 105.798 16.667 105.763 16.767 105.675 16.844 C 105.588 16.921 105.483 16.96 105.361 16.96 L 103.772 16.96 Z " fill-rule="evenodd" fill="rgb(104,32,102)"/></clipPath><g clip-path="url(#_clipPath_QfllTmxSDKAbw9r2UVHKNLfDMPeHsN63)"><g><polygon points="1122.859,48.539,1122.859,56.87,1118.231,52.704" fill="rgb(255,255,255)"/><g transform="matrix(0.926,0,0,0.926,1127.488,46.249)"><text transform="matrix(1,0,0,1,0,10.688)" style="font-family:'Open Sans';font-weight:600;font-size:10px;font-style:normal;fill:#ffffff;stroke:none;">BACK</text></g></g></g><path d=" M 119.07 21.846 C 118.886 21.846 118.716 21.954 118.593 22.123 C 118.116 22.8 117.27 23.139 116.501 23.139 C 115.101 23.139 113.532 22.108 113.532 19.985 C 113.532 17.846 115.101 16.815 116.501 16.815 C 117.27 16.815 118.116 17.154 118.593 17.831 C 118.716 18 118.886 18.108 119.07 18.108 C 119.316 18.108 119.532 17.939 119.532 17.677 C 119.532 17.492 119.409 17.369 119.301 17.231 C 118.624 16.339 117.593 15.892 116.455 15.892 C 114.655 15.892 112.485 17.246 112.485 19.985 C 112.485 22.708 114.655 24.062 116.455 24.062 C 117.593 24.062 118.624 23.616 119.301 22.723 C 119.409 22.585 119.532 22.462 119.532 22.277 C 119.532 22.016 119.316 21.846 119.07 21.846 Z  M 123.655 23.523 L 123.655 13.523 C 123.655 13.246 123.424 13 123.132 13 C 122.839 13 122.609 13.246 122.609 13.523 L 122.609 23.523 C 122.609 23.8 122.839 24.062 123.132 24.062 C 123.424 24.062 123.655 23.8 123.655 23.523 Z  M 130.701 15.892 C 128.932 15.892 126.732 17.246 126.732 19.985 C 126.732 22.739 128.932 24.092 130.701 24.092 C 132.486 24.092 134.686 22.739 134.686 19.985 C 134.686 17.246 132.486 15.892 130.701 15.892 Z  M 130.701 16.815 C 132.055 16.815 133.64 17.846 133.64 19.985 C 133.64 22.139 132.055 23.169 130.701 23.169 C 129.363 23.169 127.778 22.139 127.778 19.985 C 127.778 17.846 129.363 16.815 130.701 16.815 Z  M 140.794 24.108 C 142.671 24.108 143.64 22.662 143.732 22.154 L 143.732 23.539 C 143.732 23.831 143.963 24.077 144.255 24.077 C 144.547 24.077 144.778 23.831 144.778 23.539 L 144.778 16.492 C 144.778 16.215 144.547 15.954 144.255 15.954 C 143.963 15.954 143.732 16.215 143.732 16.492 L 143.732 20.816 C 143.563 21.831 142.671 23.169 141.04 23.169 C 139.901 23.169 138.809 22.523 138.809 20.739 L 138.809 16.492 C 138.809 16.215 138.578 15.954 138.286 15.954 C 137.994 15.954 137.763 16.215 137.763 16.492 L 137.763 20.739 C 137.763 23.277 139.363 24.108 140.794 24.108 Z  M 155.071 13 C 154.778 13 154.548 13.246 154.548 13.538 L 154.548 16.354 C 154.532 16.385 154.532 16.431 154.532 16.477 L 154.532 17.6 C 154.009 16.477 152.855 15.892 151.671 15.892 C 149.948 15.892 147.855 17.246 147.855 19.985 C 147.855 22.754 149.948 24.092 151.671 24.092 C 152.963 24.092 154.086 23.354 154.532 22.246 L 154.532 23.539 C 154.532 23.816 154.778 24.077 155.055 24.077 C 155.348 24.077 155.594 23.816 155.594 23.539 L 155.594 13.538 C 155.594 13.246 155.348 13 155.071 13 Z  M 151.778 23.169 C 150.471 23.169 148.901 22.154 148.901 19.985 C 148.901 17.831 150.471 16.815 151.778 16.815 C 153.086 16.815 154.594 17.769 154.594 19.985 C 154.594 22.154 153.086 23.169 151.778 23.169 Z " fill-rule="evenodd" fill="rgb(104,32,102)"/></g></g></svg>