<?xml version="1.0" encoding="UTF-8" standalone="no"?><!-- Generator: Gravit.io --><svg xmlns="http://www.w3.org/2000/svg" xmlns:xlink="http://www.w3.org/1999/xlink" style="isolation:isolate" viewBox="101 132.25 60 60" width="60pt" height="60pt"><path d=" M 130 146.25 L 133 146.25 L 133 172.25 L 130 172.25 L 130 146.25 L 130 146.25 Z  M 130 175.25 L 133 175.25 L 133 178.25 L 130 178.25 L 130 175.25 L 130 175.25 Z  M 104 162.25 C 104 155.08 106.85 148.21 111.92 143.17 C 116.96 138.1 123.83 135.25 131 135.25 C 138.17 135.25 145.04 138.1 150.08 143.17 C 155.15 148.21 158 155.08 158 162.25 C 158 169.42 155.15 176.29 150.08 181.33 C 145.04 186.4 138.17 189.25 131 189.25 C 123.83 189.25 116.96 186.4 111.92 181.33 C 106.85 176.29 104 169.42 104 162.25 L 104 162.25 Z  M 101 162.25 C 101 145.693 114.443 132.25 131 132.25 C 147.557 132.25 161 145.693 161 162.25 C 161 178.807 147.557 192.25 131 192.25 C 114.443 192.25 101 178.807 101 162.25 L 101 162.25 Z " fill-rule="evenodd" fill="rgb(166,166,166)"/></svg>