<svg xmlns="http://www.w3.org/2000/svg" style="isolation:isolate" viewBox="123 170 52.98 52.98" width="52.98" height="52.98">
  <linearGradient id="a" x1=".43133991" y1=".47541306" x2="1.19597366" y2="1.35833606" gradientTransform="translate(125 172) scale(48.981)" gradientUnits="userSpaceOnUse">
    <stop offset="1.73913043%" stop-color="#82c2f6"/>
    <stop offset="97.82608696%" stop-color="#2196f3"/>
  </linearGradient>
  <circle vector-effect="non-scaling-stroke" cx="149.49065491" cy="196.49065491" r="24.49065491" fill="url(#a)"/>
  <path d="M123 196.49c0-7.02 2.79-13.77 7.76-18.73 4.96-4.97 11.71-7.76 18.73-7.76s13.77 2.79 18.73 7.76c4.97 4.96 7.76 11.71 7.76 18.73s-2.79 13.77-7.76 18.73c-4.96 4.97-11.71 7.76-18.73 7.76s-13.77-2.79-18.73-7.76c-4.97-4.96-7.76-11.71-7.76-18.73zm4 0c0-5.96 2.37-11.69 6.59-15.9 4.21-4.22 9.94-6.59 15.9-6.59 5.96 0 11.69 2.37 15.9 6.59 4.22 4.21 6.59 9.94 6.59 15.9 0 5.96-2.37 11.69-6.59 15.9-4.21 4.22-9.94 6.59-15.9 6.59-5.96 0-11.69-2.37-15.9-6.59-4.22-4.21-6.59-9.94-6.59-15.9z" fill-rule="evenodd" fill="#2196F3"/>
  <path d="M152.491 207.037v-15.056h-8v1.944c.743-.032 1.409.026 2 .176v12.936h-2v1.944h10v-1.944h-2zm-6.138-21.056c0-1.731 1.406-3.137 3.138-3.137 1.731 0 3.137 1.406 3.137 3.137 0 1.732-1.406 3.138-3.137 3.138-1.732 0-3.138-1.406-3.138-3.138z" fill-rule="evenodd" fill="#FFF"/>
</svg>
