<?xml version="1.0" standalone="no"?><!-- Generator: Gravit.io --><svg xmlns="http://www.w3.org/2000/svg" xmlns:xlink="http://www.w3.org/1999/xlink" style="isolation:isolate" viewBox="0 0 18 16" width="18" height="16"><defs><clipPath id="_clipPath_VHfE7RYtqDfYsWtHVv26FKOGK0Uqm5J3"><rect width="18" height="16"/></clipPath></defs><g clip-path="url(#_clipPath_VHfE7RYtqDfYsWtHVv26FKOGK0Uqm5J3)"><g><path d=" M 0.328 12.818 L 17.672 12.818 C 17.853 12.818 18 12.975 18 13.168 L 18 15.65 C 18 15.843 17.853 16 17.672 16 L 0.328 16 C 0.147 16 0 15.843 0 15.65 L 0 13.168 C 0 12.975 0.147 12.818 0.328 12.818 Z  M 0.328 6.409 L 17.672 6.409 C 17.853 6.409 18 6.566 18 6.759 L 18 9.241 C 18 9.434 17.853 9.591 17.672 9.591 L 0.328 9.591 C 0.147 9.591 0 9.434 0 9.241 L 0 6.759 C 0 6.566 0.147 6.409 0.328 6.409 Z  M 0.328 0 L 17.672 0 C 17.853 0 18 0.157 18 0.35 L 18 2.832 C 18 3.025 17.853 3.182 17.672 3.182 L 0.328 3.182 C 0.147 3.182 0 3.025 0 2.832 L 0 0.35 C 0 0.157 0.147 0 0.328 0 Z " fill-rule="evenodd" fill="rgb(216,216,216)"/></g></g></svg>