<?xml version="1.0" standalone="no"?><!-- Generator: Gravit.io --><svg xmlns="http://www.w3.org/2000/svg" xmlns:xlink="http://www.w3.org/1999/xlink" style="isolation:isolate" viewBox="0 0 13.087 13.028" width="13.087" height="13.028"><defs><clipPath id="_clipPath_3oTiTgWuh0fiRJuejQfAFaePAFhDZaX5"><rect width="13.087" height="13.028"/></clipPath></defs><g clip-path="url(#_clipPath_3oTiTgWuh0fiRJuejQfAFaePAFhDZaX5)"><path d=" M 9.375 8.852 L 8.959 8.436 C 9.739 7.535 10.211 6.359 10.209 5.074 C 10.192 2.259 7.899 -0.011 5.084 0 C 2.269 0.011 -0.005 2.299 0 5.114 C 0.006 7.929 2.289 10.209 5.104 10.209 C 6.409 10.203 7.599 9.71 8.5 8.903 L 8.912 9.314 C 8.761 9.652 8.823 10.063 9.101 10.34 L 11.519 12.759 C 11.877 13.117 12.46 13.117 12.818 12.759 L 12.818 12.759 C 13.177 12.4 13.177 11.818 12.818 11.459 L 10.4 9.041 C 10.123 8.764 9.713 8.701 9.375 8.852 Z  M 8.188 5.074 L 8.192 5.074 C 8.198 3.362 6.817 1.968 5.104 1.959 C 3.403 1.958 2.022 3.333 2.016 5.034 C 2.009 6.735 3.381 8.12 5.082 8.131 C 6.783 8.143 8.172 6.775 8.188 5.074 L 8.188 5.074 Z " fill-rule="evenodd" fill="rgb(79,79,79)"/></g></svg>