<?xml version="1.0" standalone="no"?><!-- Generator: Gravit.io --><svg xmlns="http://www.w3.org/2000/svg" xmlns:xlink="http://www.w3.org/1999/xlink" style="isolation:isolate" viewBox="1178.147 544 18 18" width="18" height="18"><g><rect x="1178.147" y="544" width="18" height="18" transform="matrix(1,0,0,1,0,0)" fill="none"/><path d=" M 1183.931 557.741 L 1185.509 559.327 C 1185.697 559.52 1185.755 559.809 1185.654 560.063 C 1185.552 560.314 1185.306 560.478 1185.031 560.48 C 1183.598 560.48 1181.543 560.482 1180.443 560.482 C 1180.226 560.482 1180.023 560.4 1179.878 560.251 C 1179.734 560.102 1179.647 559.901 1179.647 559.691 C 1179.647 558.565 1179.647 556.477 1179.647 555.033 C 1179.647 554.771 1179.806 554.535 1180.052 554.435 C 1180.298 554.335 1180.573 554.39 1180.761 554.575 L 1182.383 556.207 L 1186.102 552.488 L 1187.637 554.024 L 1183.931 557.741 Z  M 1191.897 549.795 L 1187.642 554.016 L 1186.111 552.485 L 1190.362 548.259 L 1189.725 547.625 C 1189.725 547.625 1189.262 547.165 1188.784 546.674 C 1188.582 546.482 1188.524 546.191 1188.64 545.939 C 1188.741 545.687 1188.987 545.522 1189.262 545.522 C 1190.695 545.52 1192.736 545.519 1193.851 545.518 C 1194.068 545.518 1194.256 545.602 1194.415 545.749 C 1194.56 545.898 1194.647 546.099 1194.647 546.309 C 1194.647 547.435 1194.632 549.523 1194.632 550.967 C 1194.632 551.229 1194.488 551.467 1194.241 551.567 C 1193.995 551.666 1193.72 551.611 1193.532 551.426 L 1191.897 549.795 Z " fill-rule="evenodd" fill="rgb(67,67,67)"/></g></svg>