<?xml version="1.0" standalone="no"?><!-- Generator: Gravit.io --><svg xmlns="http://www.w3.org/2000/svg" xmlns:xlink="http://www.w3.org/1999/xlink" style="isolation:isolate" viewBox="1178.147 506 18 18" width="18" height="18"><g><rect x="1178.147" y="506" width="18" height="18" transform="matrix(1,0,0,1,0,0)" fill="none"/><path d=" M 1182.582 517.929 L 1180.93 516.268 C 1180.733 516.066 1180.672 515.763 1180.778 515.498 C 1180.885 515.234 1181.142 515.063 1181.43 515.061 C 1182.931 515.061 1185.083 515.058 1186.235 515.058 C 1186.462 515.058 1186.674 515.145 1186.826 515.301 C 1186.977 515.457 1187.068 515.667 1187.068 515.887 C 1187.068 517.066 1187.068 519.252 1187.068 520.765 C 1187.068 521.039 1186.902 521.286 1186.644 521.391 C 1186.386 521.495 1186.098 521.438 1185.901 521.244 L 1184.204 519.535 L 1180.905 522.832 L 1179.299 521.224 L 1182.582 517.929 L 1182.582 517.929 Z  M 1179.294 521.232 L 1180.897 522.835 L 1179.294 521.232 L 1179.294 521.232 Z  M 1191.711 512.071 L 1193.363 513.732 C 1193.561 513.934 1193.621 514.237 1193.515 514.502 C 1193.409 514.766 1193.151 514.937 1192.863 514.939 C 1191.363 514.939 1189.211 514.942 1188.059 514.942 C 1187.831 514.942 1187.619 514.855 1187.468 514.699 C 1187.316 514.543 1187.225 514.333 1187.225 514.113 C 1187.225 512.934 1187.225 510.748 1187.225 509.235 C 1187.225 508.961 1187.392 508.714 1187.65 508.609 C 1187.907 508.505 1188.195 508.562 1188.392 508.756 L 1190.09 510.465 L 1193.388 507.168 L 1194.995 508.776 L 1191.711 512.071 L 1191.711 512.071 Z  M 1195 508.768 L 1193.397 507.165 L 1195 508.768 L 1195 508.768 Z " fill-rule="evenodd" fill="rgb(67,67,67)"/></g></svg>