<?xml version="1.0" standalone="no"?><!-- Generator: Gravit.io --><svg xmlns="http://www.w3.org/2000/svg" xmlns:xlink="http://www.w3.org/1999/xlink" style="isolation:isolate" viewBox="43.528 73.544 16.845 11.77" width="16.845" height="11.77"><path d=" M 52.553 80.343 C 52.553 78.429 54.108 76.874 56.022 76.874 C 57.937 76.874 59.491 78.429 59.491 80.343 C 59.491 82.258 57.937 83.812 56.022 83.812 C 54.108 83.812 52.553 82.258 52.553 80.343 L 52.553 80.343 Z  M 58.438 76.725 L 58.438 76.518 C 58.438 75.953 57.98 75.495 57.416 75.495 L 52.797 75.495 L 51.214 73.73 C 51.122 73.627 50.936 73.544 50.798 73.544 L 44.527 73.544 C 43.976 73.544 43.528 73.991 43.528 74.543 L 43.528 76.447 C 43.528 76.459 43.528 76.471 43.529 76.482 C 43.528 76.494 43.528 76.506 43.528 76.518 L 43.528 84.291 C 43.528 84.856 43.986 85.314 44.551 85.314 L 57.416 85.314 C 57.98 85.314 58.438 84.856 58.438 84.291 L 58.438 83.961 C 59.605 83.18 60.373 81.851 60.373 80.343 C 60.373 78.836 59.605 77.506 58.438 76.725 L 58.438 76.725 Z  M 56.51 79.856 L 56.51 78.653 C 56.51 78.392 56.282 78.165 56.022 78.165 C 55.762 78.165 55.535 78.392 55.535 78.653 L 55.535 79.856 L 54.331 79.856 C 54.071 79.856 53.844 80.083 53.844 80.343 C 53.844 80.603 54.071 80.831 54.331 80.831 L 55.535 80.831 L 55.535 82.034 C 55.535 82.294 55.762 82.522 56.022 82.522 C 56.282 82.522 56.51 82.294 56.51 82.034 L 56.51 80.831 L 57.713 80.831 C 57.973 80.831 58.201 80.603 58.201 80.343 C 58.201 80.083 57.973 79.856 57.713 79.856 L 56.51 79.856 Z " fill-rule="evenodd" fill="rgb(234,234,234)"/></svg>