<?xml version="1.0" standalone="no"?><!-- Generator: Gravit.io --><svg xmlns="http://www.w3.org/2000/svg" xmlns:xlink="http://www.w3.org/1999/xlink" style="isolation:isolate" viewBox="0 0 16.641 16.641" width="16.641" height="16.641"><defs><clipPath id="_clipPath_12PUDtTZaB5crmJcmVLP6m0z1TiyHSiB"><rect width="16.641" height="16.641"/></clipPath></defs><g clip-path="url(#_clipPath_12PUDtTZaB5crmJcmVLP6m0z1TiyHSiB)"><path d=" M 9.141 7.5 L 9.141 4.141 L 7.5 4.141 L 7.5 7.5 L 4.141 7.5 L 4.141 9.141 L 7.5 9.141 L 7.5 12.5 L 9.141 12.5 L 9.141 9.141 L 12.5 9.141 L 12.5 7.5 L 9.141 7.5 Z  M 14.199 2.441 L 14.199 2.441 L 14.199 2.441 Q 11.758 0 8.32 0 L 8.32 0 L 8.32 0 Q 4.883 0 2.441 2.441 L 2.441 2.441 L 2.441 2.441 Q 0 4.883 0 8.32 L 0 8.32 L 0 8.32 Q 0 11.758 2.441 14.199 L 2.441 14.199 L 2.441 14.199 Q 4.883 16.641 8.32 16.641 L 8.32 16.641 L 8.32 16.641 Q 11.758 16.641 14.199 14.199 L 14.199 14.199 L 14.199 14.199 Q 16.641 11.758 16.641 8.32 L 16.641 8.32 L 16.641 8.32 Q 16.641 4.883 14.199 2.441 Z  M 13.027 13.027 L 13.027 13.027 L 13.027 13.027 Q 11.055 15 8.32 15 L 8.32 15 L 8.32 15 Q 5.586 15 3.613 13.027 L 3.613 13.027 L 3.613 13.027 Q 1.641 11.055 1.641 8.32 L 1.641 8.32 L 1.641 8.32 Q 1.641 5.586 3.613 3.613 L 3.613 3.613 L 3.613 3.613 Q 5.586 1.641 8.32 1.641 L 8.32 1.641 L 8.32 1.641 Q 11.055 1.641 13.027 3.613 L 13.027 3.613 L 13.027 3.613 Q 15 5.586 15 8.32 L 15 8.32 L 15 8.32 Q 15 11.055 13.027 13.027 Z " fill="rgb(79,79,79)"/></g></svg>