<?xml version="1.0" encoding="UTF-8" standalone="no"?><!-- Generator: Gravit.io --><svg xmlns="http://www.w3.org/2000/svg" xmlns:xlink="http://www.w3.org/1999/xlink" style="isolation:isolate" viewBox="626.5 470.415 73.89 65.1" width="73.89pt" height="65.1pt"><path d=" M 682.19 530.655 L 682.19 490.975 L 684.075 498.52 L 684.075 498.52 L 697.615 494.748 L 692.82 480.365 C 692.65 479.885 692.43 479.425 692.14 478.995 C 691.83 478.515 691.47 478.065 691.07 477.655 C 690.67 477.245 690.24 476.865 689.77 476.535 C 689.36 476.235 688.91 475.995 688.43 475.805 L 680.473 472.822 L 680.473 472.822 L 680.473 472.822 L 680.47 472.975 C 680.45 473.535 680.35 474.085 680.18 474.615 C 679.96 475.275 679.69 475.915 679.35 476.535 C 678.51 478.085 677.42 479.495 676.13 480.715 C 674.58 482.195 672.78 483.395 670.82 484.245 C 668.49 485.235 665.98 485.745 663.45 485.735 C 660.91 485.745 658.41 485.245 656.08 484.255 C 654.11 483.415 652.31 482.225 650.76 480.745 C 649.47 479.535 648.38 478.125 647.54 476.575 C 647.2 475.955 646.93 475.305 646.71 474.635 C 646.54 474.105 646.44 473.545 646.42 472.975 L 646.417 472.822 L 638.46 475.805 C 637.98 475.995 637.53 476.235 637.12 476.535 C 636.65 476.865 636.22 477.245 635.82 477.655 C 635.42 478.065 635.06 478.515 634.75 478.995 C 634.47 479.425 634.24 479.885 634.07 480.365 L 629.301 494.672 L 642.835 498.442 L 642.835 498.442 L 644.7 490.975 L 644.7 530.655 L 682.19 530.655 L 682.19 530.655 Z  M 682.19 531.755 L 682.19 534.415 L 667.68 534.415 L 659.21 534.415 L 644.7 534.415 L 644.7 531.755 L 682.19 531.755 L 682.19 531.755 Z  M 684.342 499.589 L 685.02 502.305 L 698.97 498.815 L 697.962 495.792 L 684.342 499.589 L 684.342 499.589 L 684.342 499.589 Z  M 642.568 499.511 L 641.87 502.305 L 627.92 498.815 L 628.952 495.718 L 642.568 499.511 L 642.568 499.511 L 642.568 499.511 L 642.568 499.511 Z  M 677.594 471.743 L 679.38 472.412 L 679.38 472.412 L 679.37 472.955 C 679.35 473.395 679.28 473.845 679.13 474.265 C 678.94 474.865 678.69 475.455 678.39 476.005 C 677.59 477.465 676.58 478.775 675.37 479.915 C 673.92 481.315 672.23 482.435 670.38 483.235 C 668.19 484.175 665.83 484.645 663.45 484.635 C 661.06 484.645 658.7 484.175 656.51 483.245 C 654.66 482.455 652.97 481.335 651.52 479.955 C 650.31 478.815 649.29 477.495 648.5 476.045 C 648.2 475.485 647.95 474.905 647.76 474.295 C 647.61 473.865 647.54 473.405 647.52 472.955 L 647.51 472.412 L 649.296 471.743 C 649.322 471.927 649.36 472.109 649.41 472.285 C 649.54 472.785 649.71 473.275 649.91 473.755 C 650.47 475.045 651.23 476.235 652.18 477.265 C 653.4 478.605 654.89 479.685 656.55 480.415 C 657.55 480.855 658.59 481.185 659.66 481.405 C 660.91 481.645 662.17 481.775 663.45 481.765 C 664.72 481.775 665.98 481.645 667.23 481.405 C 668.3 481.185 669.34 480.855 670.34 480.415 C 672 479.685 673.49 478.605 674.71 477.265 C 675.66 476.235 676.42 475.045 676.98 473.755 C 677.18 473.275 677.35 472.785 677.48 472.285 C 677.53 472.109 677.568 471.927 677.594 471.743 L 677.594 471.743 L 677.594 471.743 L 677.594 471.743 L 677.594 471.743 Z  M 676.417 472.014 C 676.068 472.226 675.709 472.409 675.34 472.555 C 674.34 472.955 673.3 473.245 672.25 473.445 C 670.91 473.715 669.56 473.905 668.2 474.025 C 666.62 474.165 665.03 474.235 663.45 474.235 C 661.86 474.235 660.27 474.165 658.7 474.025 C 657.34 473.905 655.98 473.715 654.64 473.445 C 653.59 473.245 652.55 472.955 651.56 472.555 C 651.182 472.409 650.822 472.226 650.473 472.014 C 650.592 472.461 650.741 472.898 650.92 473.315 C 651.43 474.495 652.13 475.585 652.99 476.525 C 654.11 477.755 655.47 478.735 656.99 479.405 C 657.92 479.815 658.89 480.125 659.88 480.325 C 661.05 480.555 662.25 480.675 663.45 480.665 C 664.64 480.675 665.84 480.555 667.01 480.325 C 668.01 480.125 668.97 479.815 669.9 479.405 C 671.42 478.735 672.78 477.755 673.9 476.525 C 674.76 475.585 675.46 474.495 675.97 473.315 C 676.149 472.898 676.298 472.461 676.417 472.014 L 676.417 472.014 L 676.417 472.014 L 676.417 472.014 L 676.417 472.014 Z  M 663.45 473.135 C 665 473.135 666.55 473.075 668.1 472.935 C 669.42 472.815 670.74 472.625 672.04 472.365 C 673.03 472.185 673.99 471.905 674.93 471.535 C 675.26 471.405 675.57 471.245 675.87 471.055 C 676.07 470.945 676.25 470.785 676.41 470.615 C 676.51 470.485 676.66 470.415 676.82 470.415 L 677.19 470.415 L 688.82 474.775 C 688.82 474.775 688.82 474.775 688.83 474.785 C 689.39 474.995 689.92 475.285 690.41 475.645 C 690.93 476.015 691.42 476.435 691.86 476.895 C 692.31 477.355 692.71 477.855 693.06 478.395 C 693.39 478.895 693.66 479.435 693.86 480.005 C 693.86 480.005 693.86 480.015 693.86 480.015 L 700.39 499.595 L 684.22 503.635 L 683.29 499.905 L 683.29 535.515 L 667.68 535.515 L 659.21 535.515 L 643.6 535.515 L 643.6 499.905 L 642.67 503.635 L 626.5 499.595 L 633.03 480.015 C 633.03 480.015 633.03 480.005 633.03 480.005 C 633.23 479.435 633.5 478.895 633.83 478.395 C 634.18 477.855 634.58 477.355 635.03 476.895 C 635.47 476.435 635.96 476.015 636.48 475.645 C 636.97 475.285 637.5 474.995 638.07 474.785 C 638.07 474.775 638.07 474.775 638.07 474.775 L 649.7 470.415 L 650.07 470.415 C 650.23 470.415 650.38 470.485 650.48 470.615 C 650.64 470.785 650.82 470.945 651.02 471.055 C 651.32 471.245 651.63 471.405 651.96 471.535 C 652.9 471.905 653.87 472.185 654.85 472.365 C 656.16 472.625 657.47 472.815 658.79 472.935 C 660.34 473.075 661.89 473.135 663.45 473.135 L 663.45 473.135 L 663.45 473.135 L 663.45 473.135 L 663.45 473.135 L 663.45 473.135 L 663.45 473.135 Z  M 669.924 516.281 L 663.445 512.875 L 656.966 516.281 L 658.204 509.067 L 652.962 503.958 L 660.206 502.905 L 663.445 496.342 L 666.684 502.905 L 673.928 503.958 L 668.686 509.067 L 669.924 516.281 Z " fill-rule="evenodd" fill="rgb(178,178,178)"/></svg>