<?xml version="1.0" encoding="UTF-8" standalone="no"?><!-- Generator: Gravit.io --><svg xmlns="http://www.w3.org/2000/svg" xmlns:xlink="http://www.w3.org/1999/xlink" style="isolation:isolate" viewBox="628.805 472.313 69.89 61.773" width="69.89pt" height="61.773pt"><path d=" M 677.81 472.313 L 679.676 473.013 L 679.675 473.067 L 679.675 473.067 L 679.675 473.067 L 679.675 473.067 C 679.655 473.517 679.585 473.957 679.435 474.387 C 679.245 474.987 678.995 475.567 678.695 476.127 C 677.895 477.577 676.885 478.897 675.675 480.037 C 674.225 481.427 672.535 482.557 670.685 483.357 C 668.495 484.287 666.135 484.767 663.755 484.757 C 661.365 484.767 659.005 484.297 656.815 483.367 C 654.965 482.577 653.275 481.457 651.825 480.067 C 650.615 478.937 649.595 477.617 648.805 476.167 C 648.505 475.607 648.255 475.017 648.065 474.417 C 647.915 473.977 647.845 473.527 647.825 473.067 L 647.824 473.013 L 649.69 472.313 C 649.698 472.344 649.706 472.376 649.715 472.407 C 649.845 472.907 650.015 473.397 650.215 473.877 C 650.775 475.167 651.535 476.347 652.485 477.387 C 653.705 478.727 655.195 479.797 656.855 480.537 C 657.855 480.977 658.895 481.307 659.965 481.517 C 661.215 481.767 662.475 481.887 663.755 481.887 C 665.025 481.887 666.285 481.767 667.535 481.517 C 668.605 481.307 669.645 480.977 670.645 480.537 C 672.305 479.797 673.795 478.727 675.015 477.387 C 675.965 476.347 676.725 475.167 677.285 473.877 C 677.485 473.397 677.655 472.907 677.785 472.407 C 677.794 472.376 677.802 472.344 677.81 472.313 L 677.81 472.313 Z  M 680.755 473.417 L 688.575 476.347 C 689.015 476.517 689.435 476.747 689.815 477.017 C 690.265 477.337 690.675 477.697 691.055 478.087 C 691.435 478.477 691.775 478.907 692.075 479.367 C 692.335 479.757 692.545 480.177 692.695 480.627 L 697.486 494.99 L 684.814 498.511 L 682.045 487.437 L 682.045 530.777 L 645.455 530.777 L 645.455 487.437 L 642.706 498.433 L 630.04 494.914 L 634.805 480.627 C 634.955 480.177 635.165 479.757 635.425 479.367 C 635.725 478.907 636.065 478.477 636.445 478.087 C 636.825 477.697 637.235 477.337 637.685 477.017 C 638.065 476.747 638.485 476.517 638.925 476.347 L 646.745 473.417 C 646.786 473.869 646.877 474.32 647.015 474.757 C 647.235 475.427 647.505 476.077 647.845 476.687 C 648.685 478.247 649.775 479.657 651.065 480.867 C 652.615 482.347 654.415 483.537 656.385 484.377 C 658.715 485.367 661.215 485.867 663.755 485.857 C 666.285 485.867 668.795 485.357 671.125 484.367 C 673.085 483.517 674.885 482.317 676.435 480.837 C 677.725 479.617 678.815 478.207 679.655 476.647 C 679.995 476.037 680.265 475.397 680.485 474.727 C 680.623 474.306 680.714 473.866 680.755 473.417 L 680.755 473.417 Z  M 697.834 496.034 L 698.695 498.617 L 685.655 501.877 L 685.081 499.58 L 697.834 496.034 L 697.834 496.034 Z  M 682.045 531.877 L 682.045 534.087 L 667.985 534.087 L 659.515 534.087 L 645.455 534.087 L 645.455 531.877 L 682.045 531.877 L 682.045 531.877 Z  M 642.439 499.503 L 641.845 501.877 L 628.805 498.617 L 629.691 495.961 L 642.439 499.503 L 642.439 499.503 Z  M 650.96 472.762 C 651.2 472.885 651.444 472.999 651.695 473.097 C 652.715 473.497 653.785 473.807 654.865 474.007 C 656.215 474.277 657.585 474.477 658.965 474.597 C 660.555 474.737 662.155 474.807 663.755 474.807 C 665.345 474.807 666.945 474.737 668.545 474.597 C 669.915 474.477 671.285 474.277 672.635 474.007 C 673.725 473.807 674.785 473.497 675.805 473.097 C 676.055 472.999 676.301 472.887 676.539 472.765 C 676.455 472.991 676.369 473.217 676.275 473.437 C 675.765 474.617 675.065 475.697 674.205 476.647 C 673.085 477.877 671.725 478.857 670.205 479.527 C 669.275 479.937 668.315 480.237 667.315 480.437 C 666.145 480.677 664.945 480.787 663.755 480.787 C 662.555 480.787 661.355 480.677 660.185 480.437 C 659.195 480.237 658.225 479.937 657.295 479.527 C 655.775 478.857 654.415 477.877 653.295 476.647 C 652.435 475.697 651.735 474.617 651.225 473.437 C 651.13 473.216 651.044 472.989 650.96 472.762 L 650.96 472.762 Z  M 670.229 516.396 L 663.75 512.99 L 657.271 516.396 L 658.509 509.182 L 653.267 504.073 L 660.511 503.021 L 663.75 496.457 L 666.989 503.021 L 674.233 504.073 L 668.991 509.182 L 670.229 516.396 Z " fill-rule="evenodd" fill="rgb(114,114,114)"/></svg>