<svg xmlns="http://www.w3.org/2000/svg" viewBox="0 -66.38 285.34 66.38" height="100%"><path fill="currentColor" d="M21.38 -6.91C17.14 -3.96 10.30 -1.08 4.03 0.72C5.26 1.58 7.20 3.46 7.99 4.32C13.97 2.16 21.31 -1.37 26.06 -4.97ZM45.43 -4.46C51.48 -2.30 59.18 1.30 63.00 3.89L67.03 0.79C62.93 -1.80 55.15 -5.26 49.25 -7.27ZM46.30 -50.33L58.10 -50.33C56.81 -46.44 54.79 -43.27 52.20 -40.46C49.68 -43.27 47.66 -46.51 46.22 -50.11ZM24.41 -33.19L25.99 -35.06C24.55 -36.14 21.89 -37.80 19.73 -39.02L29.95 -39.02C29.74 -36.50 29.45 -34.70 29.16 -33.19ZM18.50 -39.02L17.14 -37.58C19.30 -36.22 22.03 -34.42 23.76 -33.19L12.31 -33.19C12.53 -34.99 12.82 -36.94 13.03 -39.02ZM19.58 -47.23L18.22 -45.86C20.45 -44.64 23.26 -43.06 24.77 -41.83L13.32 -41.83C13.54 -43.63 13.75 -45.50 13.90 -47.23ZM25.13 -41.83L26.78 -43.92C25.42 -44.86 23.11 -46.15 20.95 -47.23L30.67 -47.23C30.53 -45.22 30.38 -43.42 30.24 -41.83ZM68.04 -50.33L68.04 -54.36L48.24 -54.36C48.89 -56.02 49.46 -57.67 49.97 -59.40L45.36 -60.26C43.63 -54.22 40.54 -48.67 36.36 -45.14C37.44 -44.35 39.17 -42.62 39.89 -41.76C41.18 -42.98 42.41 -44.42 43.56 -45.94C45.07 -42.84 46.87 -39.96 49.03 -37.44C45.58 -34.70 41.47 -32.54 36.79 -30.89L36.79 -33.19L33.34 -33.19C33.55 -34.70 33.84 -36.50 34.06 -38.81L38.74 -38.81L38.74 -42.05L34.34 -42.05C34.49 -43.92 34.63 -46.08 34.78 -48.53C34.85 -49.10 34.92 -50.33 34.92 -50.33L10.80 -50.33C11.59 -51.26 12.38 -52.27 13.03 -53.28L37.22 -53.28L37.22 -56.74L15.26 -56.74C15.77 -57.67 16.20 -58.54 16.63 -59.47L12.24 -60.48C10.22 -55.94 6.77 -51.62 2.74 -48.74C3.89 -48.17 5.76 -46.87 6.62 -46.15C7.85 -47.16 9.00 -48.31 10.15 -49.61C9.94 -47.23 9.65 -44.64 9.36 -42.05L3.60 -42.05L3.60 -38.81L9.00 -38.81C8.57 -35.50 8.14 -32.33 7.70 -29.95L28.30 -29.95C28.15 -29.74 28.08 -29.52 27.94 -29.38C27.36 -28.80 26.86 -28.73 26.06 -28.73C25.27 -28.73 23.54 -28.80 21.53 -28.94C21.96 -28.15 22.32 -26.86 22.39 -25.99C24.41 -25.85 26.42 -25.85 27.58 -25.85C28.22 -25.85 28.66 -25.99 29.16 -26.14C24.55 -23.98 20.09 -22.54 18.29 -22.03C16.13 -21.38 14.33 -20.95 12.74 -20.88C13.18 -19.66 13.82 -17.57 13.97 -16.63C15.12 -16.99 16.99 -17.28 29.30 -17.71C23.98 -15.62 19.51 -14.18 17.50 -13.54C13.46 -12.24 10.30 -11.52 8.06 -11.30C8.50 -10.08 9.07 -7.92 9.29 -6.98C11.02 -7.63 13.68 -7.92 33.84 -9.22L33.84 0.29C33.84 1.08 33.55 1.30 32.47 1.37C31.46 1.51 27.94 1.51 23.76 1.30C24.55 2.59 25.34 4.32 25.63 5.76C30.74 5.76 34.06 5.69 36.29 4.97C38.45 4.25 39.02 3.02 39.02 0.36L39.02 -9.58L56.74 -10.73C58.82 -8.93 60.77 -7.34 62.06 -6.05L65.74 -8.50C62.42 -11.59 56.02 -16.42 51.12 -19.66L47.66 -17.57C49.18 -16.49 50.90 -15.26 52.49 -13.97L25.06 -12.38C33.77 -15.19 42.48 -18.50 50.83 -22.68L47.88 -25.99C44.93 -24.41 41.76 -22.97 38.59 -21.53L25.92 -21.17C30.10 -22.46 34.27 -24.12 38.30 -25.99L35.06 -28.94C33.48 -28.08 31.82 -27.29 30.10 -26.50C30.53 -26.71 30.89 -27.00 31.25 -27.43C31.75 -27.94 32.18 -28.66 32.54 -29.95L36.79 -29.95L36.79 -30.82C37.80 -29.95 39.17 -28.22 39.74 -27.29C44.35 -29.09 48.53 -31.39 52.06 -34.27C55.94 -30.67 60.55 -27.94 65.95 -26.14C66.67 -27.43 67.97 -29.16 69.05 -30.17C63.72 -31.61 59.11 -34.06 55.30 -37.37C58.68 -40.90 61.27 -45.22 63.00 -50.33ZM134.06 -45.72L128.23 -45.72L128.23 -50.83L134.06 -50.83ZM134.06 -36.79L128.23 -36.79L128.23 -42.12L134.06 -42.12ZM110.09 -42.12L115.63 -42.12L115.63 -36.79L110.09 -36.79ZM110.09 -50.83L115.63 -50.83L115.63 -45.72L110.09 -45.72ZM124.63 -42.12L124.63 -36.79L119.23 -36.79L119.23 -42.12ZM119.23 -45.72L119.23 -50.83L124.63 -50.83L124.63 -45.72ZM138.38 -54.65L128.81 -54.65L128.81 -60.12L124.42 -60.12L124.42 -54.65L119.23 -54.65L119.23 -60.12L114.84 -60.12L114.84 -54.65L105.91 -54.65L105.91 -32.98L138.38 -32.98ZM140.18 -29.23L104.33 -29.23L104.33 -25.20L140.18 -25.20ZM112.61 -18.07L131.69 -18.07L131.69 -12.02L112.61 -12.02ZM136.66 -8.42L136.66 -21.74L107.86 -21.74L107.86 -8.42ZM99.00 -29.16L80.14 -29.16L80.14 -33.91L99.00 -33.91ZM83.38 -53.57L95.69 -53.57L95.69 -48.96L87.84 -48.96L87.84 -37.80L83.38 -37.80ZM91.01 -37.80L91.01 -45.58L95.69 -45.58L95.69 -37.80ZM100.15 -57.67L78.98 -57.67L78.98 -37.80L76.03 -37.80L76.03 -27.50L79.56 -27.50L79.56 -15.70C79.56 -10.01 79.13 -2.59 75.38 2.88C76.46 3.38 78.34 4.90 79.13 5.76C83.38 -0.36 84.10 -9.14 84.10 -15.70L84.10 -25.34L95.40 -25.34L95.40 -13.18C91.01 -10.87 86.83 -8.71 83.74 -7.42L85.75 -3.60C88.78 -5.33 92.02 -7.34 95.40 -9.43L95.40 0.00C95.40 0.72 95.18 1.01 94.39 1.01C93.67 1.01 91.15 1.01 88.34 0.94C88.92 2.16 89.64 3.89 89.86 5.04C93.89 5.04 96.34 4.97 97.92 4.32C99.50 3.53 99.94 2.38 99.94 0.07L99.94 -27.50L103.25 -27.50L103.25 -37.80L100.15 -37.80ZM94.82 -16.78C93.17 -18.43 89.86 -20.81 86.98 -22.61L84.53 -20.16C87.19 -18.36 90.43 -15.55 92.16 -13.82ZM129.96 -0.07C131.04 -2.09 132.34 -4.61 133.56 -6.84L128.66 -8.28C127.94 -5.98 126.65 -2.59 125.57 -0.07L118.66 -0.07C117.94 -2.38 116.64 -5.62 115.56 -8.06L111.38 -6.84C112.32 -4.82 113.26 -2.23 113.90 -0.07L103.61 -0.07L103.61 4.10L140.83 4.10L140.83 -0.07ZM182.59 -23.11L182.59 -42.19L203.26 -42.19L203.26 -23.11ZM156.46 -23.11L156.46 -42.19L177.05 -42.19L177.05 -23.11ZM182.59 -47.45L182.59 -60.26L177.05 -60.26L177.05 -47.45L151.20 -47.45L151.20 -13.39L156.46 -13.39L156.46 -17.86L177.05 -17.86L177.05 5.47L182.59 5.47L182.59 -17.86L203.26 -17.86L203.26 -13.75L208.73 -13.75L208.73 -47.45ZM257.62 -49.61C256.61 -52.63 254.16 -57.24 252.00 -60.62L246.46 -59.04C248.62 -55.51 250.92 -50.69 251.78 -47.74ZM267.05 -42.34C263.45 -32.62 258.62 -24.70 252.22 -18.22C245.45 -24.98 240.26 -33.19 236.52 -42.34ZM284.40 -42.34L284.40 -47.59L219.89 -47.59L219.89 -42.34L230.98 -42.34C235.15 -31.46 240.84 -22.10 248.26 -14.47C240.41 -7.85 230.76 -2.95 218.88 0.43C219.96 1.66 221.54 4.10 222.19 5.40C234.14 1.58 244.08 -3.60 252.14 -10.66C260.14 -3.46 269.93 1.80 281.66 5.11C282.53 3.60 284.04 1.37 285.34 0.14C273.89 -2.66 264.17 -7.78 256.25 -14.47C263.45 -21.89 268.99 -30.96 273.10 -42.34Z"/></svg>