<?xml version="1.0" encoding="UTF-8" standalone="no"?><!-- Generator: Gravit.io --><svg xmlns="http://www.w3.org/2000/svg" xmlns:xlink="http://www.w3.org/1999/xlink" style="isolation:isolate" viewBox="2617 938 24 24" width="24" height="24"><g id="add-swatches"><g opacity="0"><rect x="2617" y="938" width="24" height="24" transform="matrix(1,0,0,1,0,0)" id="Icon Background" fill="rgb(37,86,132)"/></g><path d=" M 2632 957.461 C 2632 954.978 2634.016 952.961 2636.5 952.961 C 2638.984 952.961 2641 954.978 2641 957.461 C 2641 959.945 2638.984 961.961 2636.5 961.961 C 2634.016 961.961 2632 959.945 2632 957.461 Z  M 2637 956.961 L 2637 954.961 L 2636 954.961 L 2636 956.961 L 2634 956.961 L 2634 957.961 L 2636 957.961 L 2636 959.961 L 2637 959.961 L 2637 957.961 L 2639 957.961 L 2639 956.961 L 2637 956.961 Z " fill-rule="evenodd" id="Fill-A" fill="rgb(77,77,77)"/><path d=" M 2630.279 954.255 C 2629.893 954.064 2629.458 953.961 2629 953.961 L 2629 953.961 L 2629 953.961 L 2629 953.961 L 2629 953.961 L 2629 953.961 C 2627.344 953.961 2626 955.306 2626 956.961 L 2626 956.961 C 2626 958.617 2627.344 959.961 2629 959.961 L 2629 959.961 C 2629.321 959.961 2629.629 959.911 2629.92 959.82 C 2629.645 959.087 2629.5 958.291 2629.5 957.461 C 2629.5 956.306 2629.781 955.215 2630.279 954.255 Z  M 2638.858 950.881 C 2638.95 950.591 2639 950.282 2639 949.961 L 2639 949.961 C 2639 948.306 2637.656 946.961 2636 946.961 L 2636 946.961 L 2636 946.961 L 2636 946.961 L 2636 946.961 C 2634.344 946.961 2633 948.306 2633 949.961 L 2633 949.961 C 2633 950.42 2633.103 950.855 2633.293 951.24 C 2634.254 950.742 2635.344 950.461 2636.5 950.461 C 2637.329 950.461 2638.125 950.606 2638.858 950.881 Z  M 2622 953.961 L 2622 953.961 C 2623.656 953.961 2625 955.306 2625 956.961 L 2625 956.961 C 2625 958.617 2623.656 959.961 2622 959.961 L 2622 959.961 C 2620.344 959.961 2619 958.617 2619 956.961 L 2619 956.961 C 2619 955.306 2620.344 953.961 2622 953.961 L 2622 953.961 L 2622 953.961 L 2622 953.961 L 2622 953.961 Z  M 2622 946.961 L 2622 946.961 C 2623.656 946.961 2625 948.306 2625 949.961 L 2625 949.961 C 2625 951.617 2623.656 952.961 2622 952.961 L 2622 952.961 C 2620.344 952.961 2619 951.617 2619 949.961 L 2619 949.961 C 2619 948.306 2620.344 946.961 2622 946.961 L 2622 946.961 L 2622 946.961 L 2622 946.961 L 2622 946.961 Z  M 2629 946.961 L 2629 946.961 C 2630.656 946.961 2632 948.306 2632 949.961 L 2632 949.961 C 2632 951.617 2630.656 952.961 2629 952.961 L 2629 952.961 C 2627.344 952.961 2626 951.617 2626 949.961 L 2626 949.961 C 2626 948.306 2627.344 946.961 2629 946.961 L 2629 946.961 L 2629 946.961 L 2629 946.961 L 2629 946.961 Z  M 2622 939.961 L 2622 939.961 C 2623.656 939.961 2625 941.306 2625 942.961 L 2625 942.961 C 2625 944.617 2623.656 945.961 2622 945.961 L 2622 945.961 C 2620.344 945.961 2619 944.617 2619 942.961 L 2619 942.961 C 2619 941.306 2620.344 939.961 2622 939.961 L 2622 939.961 L 2622 939.961 L 2622 939.961 Z  M 2629 939.961 L 2629 939.961 C 2630.656 939.961 2632 941.306 2632 942.961 L 2632 942.961 C 2632 944.617 2630.656 945.961 2629 945.961 L 2629 945.961 C 2627.344 945.961 2626 944.617 2626 942.961 L 2626 942.961 C 2626 941.306 2627.344 939.961 2629 939.961 L 2629 939.961 L 2629 939.961 L 2629 939.961 Z  M 2636 939.961 L 2636 939.961 C 2637.656 939.961 2639 941.306 2639 942.961 L 2639 942.961 C 2639 944.617 2637.656 945.961 2636 945.961 L 2636 945.961 C 2634.344 945.961 2633 944.617 2633 942.961 L 2633 942.961 C 2633 941.306 2634.344 939.961 2636 939.961 L 2636 939.961 L 2636 939.961 Z " fill-rule="evenodd" id="Fill-B" fill="rgb(117,117,117)"/></g></svg>