<?xml version="1.0" encoding="UTF-8" standalone="no"?><!-- Generator: Gravit.io --><svg xmlns="http://www.w3.org/2000/svg" xmlns:xlink="http://www.w3.org/1999/xlink" style="isolation:isolate" viewBox="1978 2715 24 24" width="24" height="24"><g id="align-panel"><g opacity="0"><rect x="1978" y="2715" width="24" height="24" transform="matrix(1,0,0,1,0,0)" id="Icon Background" fill="rgb(37,86,132)"/></g><path d=" M 1992 2728 L 1980 2728 L 1980 2727 L 1992 2727 L 1992 2723 C 1992 2722.448 1992.448 2722 1993 2722 L 1996 2722 C 1996.552 2722 1997 2722.448 1997 2723 L 1997 2727 L 2000 2727 L 2000 2728 L 1997 2728 L 1997 2732 C 1997 2732.552 1996.552 2733 1996 2733 L 1993 2733 C 1992.448 2733 1992 2732.552 1992 2732 L 1992 2728 Z " id="Fill-A" fill="rgb(77,77,77)"/><path d=" M 1983 2720 L 1983 2735 C 1983 2735.552 1983.448 2736 1984 2736 L 1988 2736 C 1988.552 2736 1989 2735.552 1989 2735 L 1989 2720 C 1989 2719.448 1988.552 2719 1988 2719 L 1984 2719 C 1983.448 2719 1983 2719.448 1983 2720 Z " id="Fill-B" fill="rgb(117,117,117)"/></g></svg>