<?xml version="1.0" encoding="UTF-8" standalone="no"?><!-- Generator: Gravit.io --><svg xmlns="http://www.w3.org/2000/svg" xmlns:xlink="http://www.w3.org/1999/xlink" style="isolation:isolate" viewBox="1150 331 24 24" width="24" height="24"><g id="align-center"><g opacity="0"><rect x="1150" y="331" width="24" height="24" transform="matrix(1,0,0,1,0,0)" id="Icon Background" fill="rgb(37,86,132)"/></g><path d=" M 1163 354 L 1163 353 L 1163 353 L 1164 353 L 1164 354 L 1163 354 L 1163 354 Z  M 1163 352 L 1163 351 L 1163 351 L 1164 351 L 1164 352 L 1163 352 L 1163 352 L 1163 352 Z  M 1163 342 L 1163 341 L 1163 341 L 1164 341 L 1164 342 L 1163 342 L 1163 342 L 1163 342 L 1163 342 L 1163 342 L 1163 342 L 1163 342 L 1163 342 Z  M 1163 348 L 1163 347 L 1163 347 L 1164 347 L 1164 348 L 1163 348 L 1163 348 L 1163 348 L 1163 348 L 1163 348 Z  M 1163 344 L 1163 343 L 1163 343 L 1164 343 L 1164 344 L 1163 344 L 1163 344 L 1163 344 L 1163 344 L 1163 344 L 1163 344 L 1163 344 Z  M 1163 340 L 1163 339 L 1163 339 L 1164 339 L 1164 340 L 1163 340 L 1163 340 L 1163 340 L 1163 340 L 1163 340 L 1163 340 L 1163 340 L 1163 340 L 1163 340 Z  M 1163 338 L 1163 337 L 1163 337 L 1164 337 L 1164 338 L 1163 338 L 1163 338 L 1163 338 L 1163 338 L 1163 338 L 1163 338 L 1163 338 L 1163 338 L 1163 338 L 1163 338 Z  M 1163 336 L 1163 335 L 1163 335 L 1164 335 L 1164 336 L 1163 336 L 1163 336 L 1163 336 L 1163 336 L 1163 336 L 1163 336 L 1163 336 L 1163 336 L 1163 336 L 1163 336 L 1163 336 Z  M 1163 334 L 1163 333 L 1163 333 L 1164 333 L 1164 334 L 1163 334 L 1163 334 L 1163 334 L 1163 334 L 1163 334 L 1163 334 L 1163 334 L 1163 334 L 1163 334 L 1163 334 L 1163 334 L 1163 334 Z  M 1163 332 L 1163 331 L 1164 331 L 1164 332 L 1163 332 L 1163 332 L 1163 332 L 1163 332 L 1163 332 L 1163 332 L 1163 332 L 1163 332 L 1163 332 L 1163 332 L 1163 332 L 1163 332 L 1163 332 Z  M 1157 347 L 1170 347 L 1170 349 L 1157 349 L 1157 347 L 1157 347 Z  M 1155 345 L 1172 345 L 1172 351 L 1155 351 L 1155 345 L 1155 345 Z " fill-rule="evenodd" id="Fill-B" fill="rgb(117,117,117)"/><path d=" M 1158 337 L 1169 337 L 1169 342 L 1158 342 L 1158 337 Z " id="Fill-A" fill="rgb(77,77,77)"/></g></svg>