<?xml version="1.0" encoding="UTF-8" standalone="no"?><!-- Generator: Gravit.io --><svg xmlns="http://www.w3.org/2000/svg" xmlns:xlink="http://www.w3.org/1999/xlink" style="isolation:isolate" viewBox="1978 397 24 24" width="24" height="24"><g id="arrow-up"><g opacity="0"><rect x="1978" y="397" width="24" height="24" transform="matrix(1,0,0,1,0,0)" id="Icon Background" fill="rgb(37,86,132)"/></g><path d=" M 1982.702 408.702 L 1982.702 408.702 C 1982.314 408.314 1982.317 407.683 1982.707 407.293 L 1990 400 L 1997.293 407.293 C 1997.683 407.683 1997.686 408.314 1997.298 408.702 L 1997.298 408.702 C 1996.911 409.089 1996.278 409.088 1995.886 408.699 L 1990.982 403.836 L 1990.982 417 C 1990.982 417.552 1990.542 418 1990 418 L 1990 418 C 1989.458 418 1989.018 417.552 1989.018 417 L 1989.018 403.836 L 1984.114 408.699 C 1983.722 409.088 1983.089 409.089 1982.702 408.702 Z " id="Fill-B" fill="rgb(117,117,117)"/></g></svg>