<?xml version="1.0" encoding="UTF-8" standalone="no"?><!-- Generator: Gravit.io --><svg xmlns="http://www.w3.org/2000/svg" xmlns:xlink="http://www.w3.org/1999/xlink" style="isolation:isolate" viewBox="1978 331 24 24" width="24" height="24"><g id="arrow-right"><g opacity="0"><rect x="1978" y="331" width="24" height="24" transform="matrix(1,0,0,1,0,0)" id="Icon Background" fill="rgb(37,86,132)"/></g><path d=" M 1989.702 335.702 L 1989.702 335.702 C 1989.314 335.314 1988.683 335.317 1988.293 335.707 L 1981 343 L 1988.293 350.293 C 1988.683 350.683 1989.314 350.686 1989.702 350.298 L 1989.702 350.298 C 1990.089 349.911 1990.088 349.278 1989.699 348.886 L 1984.836 343.982 L 1998 343.982 C 1998.552 343.982 1999 343.542 1999 343 L 1999 343 C 1999 342.458 1998.552 342.018 1998 342.018 L 1984.836 342.018 L 1989.699 337.114 C 1990.088 336.722 1990.089 336.089 1989.702 335.702 Z " id="Fill-B" fill="rgb(117,117,117)"/></g></svg>