<?xml version="1.0" encoding="UTF-8" standalone="no"?><!-- Generator: Gravit.io --><svg xmlns="http://www.w3.org/2000/svg" xmlns:xlink="http://www.w3.org/1999/xlink" style="isolation:isolate" viewBox="1150 2651 24 24" width="24" height="24"><g id="artboard-small"><g opacity="0"><rect x="1150" y="2651" width="24" height="24" transform="matrix(1,0,0,1,0,0)" id="Icon Background" fill="rgb(37,86,132)"/></g><path d=" M 1158 2659 L 1166 2659 L 1166 2667 L 1158 2667 L 1158 2659 L 1158 2659 L 1158 2659 L 1158 2659 L 1158 2659 L 1158 2659 L 1158 2659 L 1158 2659 L 1158 2659 Z  M 1157 2655 L 1158 2655 L 1158 2656 L 1157 2656 L 1157 2655 L 1157 2655 L 1157 2655 L 1157 2655 L 1157 2655 L 1157 2655 L 1157 2655 L 1157 2655 Z  M 1170 2658 L 1170 2659 L 1169 2659 L 1169 2658 L 1170 2658 L 1170 2658 L 1170 2658 L 1170 2658 L 1170 2658 L 1170 2658 L 1170 2658 Z  M 1166 2655 L 1167 2655 L 1167 2656 L 1166 2656 L 1166 2655 L 1166 2655 L 1166 2655 L 1166 2655 L 1166 2655 L 1166 2655 Z  M 1170 2667 L 1170 2668 L 1169 2668 L 1169 2667 L 1170 2667 L 1170 2667 L 1170 2667 L 1170 2667 L 1170 2667 Z  M 1157 2670 L 1158 2670 L 1158 2671 L 1157 2671 L 1157 2670 L 1157 2670 L 1157 2670 L 1157 2670 Z  M 1155 2658 L 1155 2659 L 1154 2659 L 1154 2658 L 1155 2658 L 1155 2658 L 1155 2658 Z  M 1166 2670 L 1167 2670 L 1167 2671 L 1166 2671 L 1166 2670 L 1166 2670 Z  M 1156 2657 L 1168 2657 L 1168 2669 L 1156 2669 L 1156 2657 L 1156 2657 L 1156 2657 L 1156 2657 L 1156 2657 L 1156 2657 L 1156 2657 L 1156 2657 L 1156 2657 Z  M 1155 2667 L 1155 2668 L 1154 2668 L 1154 2667 L 1155 2667 Z " fill-rule="evenodd" id="Fill-B" fill="rgb(117,117,117)"/></g></svg>