<?xml version="1.0" encoding="UTF-8" standalone="no"?><!-- Generator: Gravit.io --><svg xmlns="http://www.w3.org/2000/svg" xmlns:xlink="http://www.w3.org/1999/xlink" style="isolation:isolate" viewBox="1150 2187 24 24" width="24" height="24"><g id="attach-to-path"><g opacity="0"><rect x="1150" y="2187" width="24" height="24" transform="matrix(1,0,0,1,0,0)" id="Icon Background" fill="rgb(37,86,132)"/></g><path d=" M 1155.828 2204.634 L 1155.121 2203.927 L 1153 2206.049 L 1153 2206.049 L 1153 2206.049 L 1155.121 2208.17 L 1157.243 2206.049 L 1156.536 2205.341 C 1158.035 2203.842 1160.071 2202.994 1162.192 2202.994 C 1164.314 2202.994 1166.35 2203.842 1167.849 2205.341 L 1167.142 2206.049 L 1167.142 2206.049 L 1167.142 2206.049 L 1169.263 2208.17 L 1171.385 2206.049 L 1169.263 2203.927 L 1168.556 2204.634 L 1168.556 2204.634 C 1165.044 2201.122 1159.341 2201.122 1155.828 2204.634 L 1155.828 2204.634 Z  M 1154.414 2206.049 L 1155.121 2205.341 L 1155.828 2206.049 L 1155.121 2206.756 L 1154.414 2206.049 L 1154.414 2206.049 L 1154.414 2206.049 Z  M 1168.556 2206.049 L 1169.263 2205.341 L 1169.971 2206.049 L 1169.263 2206.756 L 1168.556 2206.049 L 1168.556 2206.049 L 1168.556 2206.049 Z " fill-rule="evenodd" id="Fill-B" fill="rgb(117,117,117)"/><path d=" M 1166.301 2191 L 1166.301 2191 Q 1166.212 2192.411 1166.212 2193.517 L 1166.212 2193.517 L 1166.212 2193.517 Q 1166.212 2194.102 1166.25 2194.432 L 1166.25 2194.432 L 1165.958 2194.432 L 1165.958 2194.432 Q 1165.538 2192.767 1164.877 2192.03 L 1164.877 2192.03 L 1164.877 2192.03 Q 1164.216 2191.292 1163.453 2191.292 L 1163.453 2191.292 L 1163.441 2191.292 L 1163.441 2198.564 L 1163.441 2198.564 Q 1163.441 2199.097 1163.549 2199.339 L 1163.549 2199.339 L 1163.549 2199.339 Q 1163.657 2199.581 1163.943 2199.663 L 1163.943 2199.663 L 1163.943 2199.663 Q 1164.229 2199.746 1164.852 2199.746 L 1164.852 2199.746 L 1164.852 2200 L 1164.852 2200 Q 1163.059 2199.962 1162.068 2199.962 L 1162.068 2199.962 L 1162.068 2199.962 Q 1161.165 2199.962 1159.449 2200 L 1159.449 2200 L 1159.449 2199.746 L 1159.449 2199.746 Q 1160.072 2199.746 1160.358 2199.663 L 1160.358 2199.663 L 1160.358 2199.663 Q 1160.644 2199.581 1160.752 2199.339 L 1160.752 2199.339 L 1160.752 2199.339 Q 1160.86 2199.097 1160.86 2198.564 L 1160.86 2198.564 L 1160.86 2191.292 L 1160.847 2191.292 L 1160.847 2191.292 Q 1160.072 2191.292 1159.417 2192.023 L 1159.417 2192.023 L 1159.417 2192.023 Q 1158.763 2192.754 1158.343 2194.432 L 1158.343 2194.432 L 1158.051 2194.432 L 1158.051 2194.432 Q 1158.089 2194.102 1158.089 2193.517 L 1158.089 2193.517 L 1158.089 2193.517 Q 1158.089 2192.411 1158 2191 L 1158 2191 L 1158 2191 Q 1159.208 2191.038 1162.157 2191.038 L 1162.157 2191.038 L 1162.157 2191.038 Q 1165.093 2191.038 1166.301 2191 L 1166.301 2191 Z " id="Fill-A" fill="rgb(77,77,77)"/></g></svg>