<?xml version="1.0" encoding="UTF-8" standalone="no"?><!-- Generator: Gravit.io --><svg xmlns="http://www.w3.org/2000/svg" xmlns:xlink="http://www.w3.org/1999/xlink" style="isolation:isolate" viewBox="445 931 24 24" width="24" height="24"><g id="bezigon"><g opacity="0"><rect x="445" y="931" width="24" height="24" transform="matrix(1,0,0,1,0,0)" id="Icon Background" fill="rgb(37,86,132)"/></g><path d=" M 460.838 947 L 458 947 L 458 947 L 458 946 C 458 945.73 457.89 945.48 457.71 945.29 C 457.52 945.11 457.27 945 457 945 C 456.73 945 456.48 945.11 456.29 945.29 C 456.11 945.48 456 945.73 456 946 L 456 946 L 456 947 L 453.162 947 L 453.162 947 L 455.386 941.661 C 455.89 941.883 456.44 942 457 942 C 457.56 942 458.11 941.883 458.614 941.661 L 460.838 947 Z  M 462.995 947 L 464.5 947 C 464.63 947 464.76 947.05 464.85 947.15 C 464.95 947.24 465 947.37 465 947.5 C 465 947.63 464.95 947.76 464.85 947.85 C 464.76 947.95 464.63 948 464.5 948 L 463.412 948 L 464.508 950.631 C 464.43 950.675 464.358 950.728 464.292 950.79 C 464.112 950.98 464.003 951.23 464.003 951.5 L 464.003 953.003 C 463.872 953.003 463.741 952.975 463.62 952.92 C 463.37 952.82 463.18 952.63 463.08 952.38 L 461.255 948 L 458 948 L 458 949 C 458 949.27 457.89 949.52 457.71 949.71 C 457.52 949.89 457.27 950 457 950 C 456.73 950 456.48 949.89 456.29 949.71 C 456.11 949.52 456 949.27 456 949 L 456 948 L 452.745 948 L 450.92 952.38 C 450.82 952.63 450.63 952.82 450.38 952.92 C 450.259 952.975 450.128 953.003 449.997 953.003 L 449.997 951.5 C 449.997 951.23 449.888 950.98 449.708 950.79 C 449.642 950.728 449.57 950.675 449.492 950.631 L 450.588 948 L 449.5 948 C 449.37 948 449.24 947.95 449.15 947.85 C 449.05 947.76 449 947.63 449 947.5 C 449 947.37 449.05 947.24 449.15 947.15 C 449.24 947.05 449.37 947 449.5 947 L 451.005 947 L 453.77 940.363 C 453.272 939.682 453 938.854 453 938 L 453 938 C 453 936.94 453.42 935.92 454.17 935.17 C 454.679 934.66 455.313 934.303 456 934.127 L 456 934.127 L 456 934.127 L 456 934.127 L 456 933 C 456 932.73 456.11 932.48 456.29 932.29 C 456.48 932.11 456.73 932 457 932 C 457.27 932 457.52 932.11 457.71 932.29 C 457.89 932.48 458 932.73 458 933 L 458 934.127 C 458.687 934.303 459.321 934.66 459.83 935.17 C 460.58 935.92 461 936.94 461 938 C 461 938.854 460.728 939.682 460.23 940.363 L 462.995 947 Z  M 455 938 C 455 937.47 455.21 936.96 455.59 936.59 C 455.96 936.21 456.47 936 457 936 C 457.53 936 458.04 936.21 458.41 936.59 C 458.79 936.96 459 937.47 459 938 C 459 938.53 458.79 939.04 458.41 939.41 C 458.04 939.79 457.53 940 457 940 C 456.47 940 455.96 939.79 455.59 939.41 C 455.21 939.04 455 938.53 455 938 L 455 938 L 455 938 L 455 938 L 455 938 L 455 938 Z " fill-rule="evenodd" id="Fill-B" fill="rgb(117,117,117)"/></g></svg>