<?xml version="1.0" encoding="UTF-8" standalone="no"?><!-- Generator: Gravit.io --><svg xmlns="http://www.w3.org/2000/svg" xmlns:xlink="http://www.w3.org/1999/xlink" style="isolation:isolate" viewBox="1150 1123 24 24" width="24" height="24"><g id="bold-text"><g opacity="0"><rect x="1150" y="1123" width="24" height="24" transform="matrix(1,0,0,1,0,0)" id="Icon Background" fill="rgb(37,86,132)"/></g><path d=" M 1162.952 1135.088 L 1162.952 1135.088 Q 1165.304 1135.208 1166.828 1135.832 L 1166.828 1135.832 L 1166.828 1135.832 Q 1168.352 1136.456 1169.048 1137.38 L 1169.048 1137.38 L 1169.048 1137.38 Q 1169.744 1138.304 1169.744 1139.336 L 1169.744 1139.336 L 1169.744 1139.336 Q 1169.744 1141.688 1167.872 1142.84 L 1167.872 1142.84 L 1167.872 1142.84 Q 1166 1143.992 1162.544 1143.992 L 1162.544 1143.992 L 1162.544 1143.992 Q 1161.848 1143.992 1161.368 1143.968 L 1161.368 1143.968 L 1161.368 1143.968 Q 1159.736 1143.92 1158.176 1143.92 L 1158.176 1143.92 L 1158.176 1143.92 Q 1155.368 1143.92 1154 1143.992 L 1154 1143.992 L 1154 1143.512 L 1154 1143.512 Q 1154.768 1143.464 1155.116 1143.32 L 1155.116 1143.32 L 1155.116 1143.32 Q 1155.464 1143.176 1155.584 1142.768 L 1155.584 1142.768 L 1155.584 1142.768 Q 1155.704 1142.36 1155.704 1141.448 L 1155.704 1141.448 L 1155.704 1129.544 L 1155.704 1129.544 Q 1155.704 1128.632 1155.572 1128.224 L 1155.572 1128.224 L 1155.572 1128.224 Q 1155.44 1127.816 1155.104 1127.672 L 1155.104 1127.672 L 1155.104 1127.672 Q 1154.768 1127.528 1154 1127.48 L 1154 1127.48 L 1154 1127 L 1154 1127 Q 1155.368 1127.072 1158.128 1127.072 L 1158.128 1127.072 L 1160.888 1127.048 L 1160.888 1127.048 Q 1161.368 1127.024 1161.992 1127.024 L 1161.992 1127.024 L 1161.992 1127.024 Q 1165.16 1127.024 1166.828 1128.044 L 1166.828 1128.044 L 1166.828 1128.044 Q 1168.496 1129.064 1168.496 1130.792 L 1168.496 1130.792 L 1168.496 1130.792 Q 1168.496 1131.68 1167.872 1132.58 L 1167.872 1132.58 L 1167.872 1132.58 Q 1167.248 1133.48 1166 1134.152 L 1166 1134.152 L 1166 1134.152 Q 1164.752 1134.824 1162.952 1135.04 L 1162.952 1135.04 L 1162.952 1135.088 Z  M 1161.872 1127.48 L 1161.872 1127.48 Q 1161.32 1127.48 1161.044 1127.648 L 1161.044 1127.648 L 1161.044 1127.648 Q 1160.768 1127.816 1160.672 1128.248 L 1160.672 1128.248 L 1160.672 1128.248 Q 1160.576 1128.68 1160.576 1129.544 L 1160.576 1129.544 L 1160.576 1134.968 L 1161.224 1134.968 L 1161.224 1134.968 Q 1162.52 1134.968 1163.036 1133.9 L 1163.036 1133.9 L 1163.036 1133.9 Q 1163.552 1132.832 1163.552 1131.056 L 1163.552 1131.056 L 1163.552 1131.056 Q 1163.552 1129.232 1163.156 1128.356 L 1163.156 1128.356 L 1163.156 1128.356 Q 1162.76 1127.48 1161.872 1127.48 L 1161.872 1127.48 Z  M 1162.136 1143.44 L 1162.136 1143.44 Q 1164.704 1143.44 1164.704 1139.24 L 1164.704 1139.24 L 1164.704 1139.24 Q 1164.704 1137.344 1163.792 1136.36 L 1163.792 1136.36 L 1163.792 1136.36 Q 1162.88 1135.376 1160.912 1135.376 L 1160.912 1135.376 L 1160.576 1135.376 L 1160.576 1141.448 L 1160.576 1141.448 Q 1160.576 1142.312 1160.696 1142.72 L 1160.696 1142.72 L 1160.696 1142.72 Q 1160.816 1143.128 1161.14 1143.284 L 1161.14 1143.284 L 1161.14 1143.284 Q 1161.464 1143.44 1162.136 1143.44 L 1162.136 1143.44 Z " id="Fill-B" fill="rgb(117,117,117)"/></g></svg>