<?xml version="1.0" encoding="UTF-8" standalone="no"?><!-- Generator: Gravit.io --><svg xmlns="http://www.w3.org/2000/svg" xmlns:xlink="http://www.w3.org/1999/xlink" style="isolation:isolate" viewBox="2411 796 24 24" width="24" height="24"><g id="break-curve"><g opacity="0"><rect x="2411" y="796" width="24" height="24" transform="matrix(1,0,0,1,0,0)" id="Icon Background" fill="rgb(37,86,132)"/></g><path d=" M 2420.51 812.491 C 2422.759 814.213 2425.531 815.16 2428.4 815.16 C 2430.25 815.16 2432.07 814.77 2433.76 814.01 C 2434 813.9 2434.19 813.7 2434.28 813.45 C 2434.38 813.2 2434.37 812.92 2434.26 812.68 C 2434.15 812.44 2433.95 812.25 2433.7 812.16 C 2433.45 812.07 2433.17 812.07 2432.93 812.18 C 2431.51 812.83 2429.96 813.16 2428.4 813.16 C 2426.063 813.16 2423.802 812.417 2421.937 811.064 L 2420.51 812.491 Z  M 2417.602 809.398 C 2416.177 807.276 2415.4 804.757 2415.4 802.16 C 2415.4 800.62 2415.67 799.1 2416.2 797.65 C 2416.29 797.4 2416.48 797.2 2416.72 797.09 C 2416.96 796.98 2417.24 796.97 2417.49 797.06 C 2417.74 797.15 2417.94 797.34 2418.05 797.58 C 2418.16 797.82 2418.17 798.1 2418.08 798.35 C 2417.63 799.57 2417.4 800.86 2417.4 802.16 C 2417.4 804.224 2417.979 806.228 2419.047 807.953 L 2417.602 809.398 Z " fill-rule="evenodd" id="Fill-B" fill="rgb(117,117,117)"/><path d=" M 2418.141 810.547 L 2422.047 806.641 L 2424 806.641 L 2424 807.282 L 2419.453 811.859 L 2418.141 810.547 Z  M 2417.164 812.5 L 2417.164 812.5 L 2417.164 812.5 Q 2417.164 812.836 2417.5 812.836 L 2417.5 812.836 L 2417.5 812.836 Q 2417.836 812.836 2417.836 812.5 L 2417.836 812.5 L 2417.836 812.5 Q 2417.836 812.164 2417.5 812.164 L 2417.5 812.164 L 2417.5 812.164 Q 2417.164 812.164 2417.164 812.5 Z  M 2412.678 817.337 L 2412.678 817.337 L 2412.678 817.337 Q 2413.075 817.718 2413.594 817.718 L 2413.594 817.718 L 2413.594 817.718 Q 2414.113 817.718 2414.509 817.337 L 2414.509 817.337 L 2414.509 817.337 Q 2414.906 816.955 2414.906 816.406 L 2414.906 816.406 L 2414.906 816.406 Q 2414.906 815.857 2414.509 815.475 L 2414.509 815.475 L 2414.509 815.475 Q 2414.113 815.094 2413.594 815.094 L 2413.594 815.094 L 2413.594 815.094 Q 2413.075 815.094 2412.678 815.475 L 2412.678 815.475 L 2412.678 815.475 Q 2412.282 815.857 2412.282 816.406 L 2412.282 816.406 L 2412.282 816.406 Q 2412.282 816.955 2412.678 817.337 Z  M 2412.678 809.525 L 2412.678 809.525 L 2412.678 809.525 Q 2413.075 809.906 2413.594 809.906 L 2413.594 809.906 L 2413.594 809.906 Q 2414.113 809.906 2414.509 809.525 L 2414.509 809.525 L 2414.509 809.525 Q 2414.906 809.143 2414.906 808.594 L 2414.906 808.594 L 2414.906 808.594 Q 2414.906 808.045 2414.509 807.663 L 2414.509 807.663 L 2414.509 807.663 Q 2414.113 807.282 2413.594 807.282 L 2413.594 807.282 L 2413.594 807.282 Q 2413.075 807.282 2412.678 807.663 L 2412.678 807.663 L 2412.678 807.663 Q 2412.282 808.045 2412.282 808.594 L 2412.282 808.594 L 2412.282 808.594 Q 2412.282 809.143 2412.678 809.525 Z  M 2415.974 809.662 L 2415.974 809.662 L 2424 817.718 L 2424 818.359 L 2422.047 818.359 L 2417.5 813.812 L 2415.974 815.338 L 2415.974 815.338 Q 2416.188 815.796 2416.188 816.406 L 2416.188 816.406 L 2416.188 816.406 Q 2416.188 817.474 2415.425 818.237 L 2415.425 818.237 L 2415.425 818.237 Q 2414.662 819 2413.594 819 L 2413.594 819 L 2413.594 819 Q 2412.526 819 2411.763 818.237 L 2411.763 818.237 L 2411.763 818.237 Q 2411 817.474 2411 816.406 L 2411 816.406 L 2411 816.406 Q 2411 815.338 2411.763 814.575 L 2411.763 814.575 L 2411.763 814.575 Q 2412.526 813.812 2413.594 813.812 L 2413.594 813.812 L 2413.594 813.812 Q 2414.204 813.812 2414.662 814.026 L 2414.662 814.026 L 2416.188 812.5 L 2414.662 810.974 L 2414.662 810.974 Q 2414.204 811.188 2413.594 811.188 L 2413.594 811.188 L 2413.594 811.188 Q 2412.526 811.188 2411.763 810.425 L 2411.763 810.425 L 2411.763 810.425 Q 2411 809.662 2411 808.594 L 2411 808.594 L 2411 808.594 Q 2411 807.526 2411.763 806.763 L 2411.763 806.763 L 2411.763 806.763 Q 2412.526 806 2413.594 806 L 2413.594 806 L 2413.594 806 Q 2414.662 806 2415.425 806.763 L 2415.425 806.763 L 2415.425 806.763 Q 2416.188 807.526 2416.188 808.594 L 2416.188 808.594 L 2416.188 808.594 Q 2416.188 809.204 2415.974 809.662 Z " id="Fill-A" fill="rgb(77,77,77)"/></g></svg>