<?xml version="1.0" encoding="UTF-8" standalone="no"?><!-- Generator: Gravit.io --><svg xmlns="http://www.w3.org/2000/svg" xmlns:xlink="http://www.w3.org/1999/xlink" style="isolation:isolate" viewBox="1150 1989 24 24" width="24" height="24"><g id="capitalize-text"><g opacity="0"><rect x="1150" y="1989" width="24" height="24" transform="matrix(1,0,0,1,0,0)" id="Icon Background" fill="rgb(37,86,132)"/></g><path d=" M 1162.576 2004.984 L 1162.576 2004.984 Q 1162.784 2005.496 1163.032 2005.744 L 1163.032 2005.744 L 1163.032 2005.744 Q 1163.28 2005.992 1163.52 2006.008 L 1163.52 2006.008 L 1163.52 2006.328 L 1163.52 2006.328 Q 1162.368 2006.28 1160.608 2006.28 L 1160.608 2006.28 L 1160.608 2006.28 Q 1158.784 2006.28 1157.92 2006.328 L 1157.92 2006.328 L 1157.92 2006.008 L 1157.92 2006.008 Q 1158.528 2005.976 1158.784 2005.856 L 1158.784 2005.856 L 1158.784 2005.856 Q 1159.04 2005.736 1159.04 2005.432 L 1159.04 2005.432 L 1159.04 2005.432 Q 1159.04 2005.144 1158.848 2004.664 L 1158.848 2004.664 L 1157.904 2002.04 L 1154.672 2002.04 L 1154.4 2002.76 L 1154.4 2002.76 Q 1153.872 2004.12 1153.872 2004.84 L 1153.872 2004.84 L 1153.872 2004.84 Q 1153.872 2005.496 1154.24 2005.736 L 1154.24 2005.736 L 1154.24 2005.736 Q 1154.608 2005.976 1155.328 2006.008 L 1155.328 2006.008 L 1155.328 2006.328 L 1155.328 2006.328 Q 1154.128 2006.28 1153.232 2006.28 L 1153.232 2006.28 L 1153.232 2006.28 Q 1152.48 2006.28 1152 2006.328 L 1152 2006.328 L 1152 2006.008 L 1152 2006.008 Q 1152.4 2005.944 1152.752 2005.512 L 1152.752 2005.512 L 1152.752 2005.512 Q 1153.104 2005.08 1153.472 2004.136 L 1153.472 2004.136 L 1157.024 1995 L 1157.024 1995 Q 1157.536 1995.032 1157.872 1995.032 L 1157.872 1995.032 L 1157.872 1995.032 Q 1158.192 1995.032 1158.704 1995 L 1158.704 1995 L 1162.576 2004.984 Z  M 1154.8 2001.72 L 1157.792 2001.72 L 1156.336 1997.72 L 1154.8 2001.72 Z  M 1165.824 2006.44 L 1165.824 2006.44 Q 1164.8 2006.44 1164.28 2005.888 L 1164.28 2005.888 L 1164.28 2005.888 Q 1163.76 2005.336 1163.76 2004.504 L 1163.76 2004.504 L 1163.76 2004.504 Q 1163.76 2003.784 1164.136 2003.312 L 1164.136 2003.312 L 1164.136 2003.312 Q 1164.512 2002.84 1165.024 2002.584 L 1165.024 2002.584 L 1165.024 2002.584 Q 1165.536 2002.328 1166.352 2002.056 L 1166.352 2002.056 L 1166.352 2002.056 Q 1167.216 2001.768 1167.616 2001.528 L 1167.616 2001.528 L 1167.616 2001.528 Q 1168.016 2001.288 1168.016 2000.856 L 1168.016 2000.856 L 1168.016 1999.432 L 1168.016 1999.432 Q 1168.016 1998.92 1167.76 1998.52 L 1167.76 1998.52 L 1167.76 1998.52 Q 1167.504 1998.12 1166.88 1998.12 L 1166.88 1998.12 L 1166.88 1998.12 Q 1166.384 1998.12 1165.984 1998.392 L 1165.984 1998.392 L 1165.984 1998.392 Q 1166.528 1998.584 1166.792 1998.96 L 1166.792 1998.96 L 1166.792 1998.96 Q 1167.056 1999.336 1167.056 1999.8 L 1167.056 1999.8 L 1167.056 1999.8 Q 1167.056 2000.424 1166.616 2000.8 L 1166.616 2000.8 L 1166.616 2000.8 Q 1166.176 2001.176 1165.552 2001.176 L 1165.552 2001.176 L 1165.552 2001.176 Q 1164.928 2001.176 1164.568 2000.784 L 1164.568 2000.784 L 1164.568 2000.784 Q 1164.208 2000.392 1164.208 1999.784 L 1164.208 1999.784 L 1164.208 1999.784 Q 1164.208 1999.304 1164.448 1998.952 L 1164.448 1998.952 L 1164.448 1998.952 Q 1164.688 1998.6 1165.2 1998.312 L 1165.2 1998.312 L 1165.2 1998.312 Q 1166.096 1997.8 1167.76 1997.8 L 1167.76 1997.8 L 1167.76 1997.8 Q 1168.64 1997.8 1169.28 1997.968 L 1169.28 1997.968 L 1169.28 1997.968 Q 1169.92 1998.136 1170.368 1998.6 L 1170.368 1998.6 L 1170.368 1998.6 Q 1170.688 1998.936 1170.792 1999.44 L 1170.792 1999.44 L 1170.792 1999.44 Q 1170.896 1999.944 1170.896 2000.84 L 1170.896 2000.84 L 1170.896 2005.128 L 1170.896 2005.128 Q 1170.896 2005.528 1170.952 2005.672 L 1170.952 2005.672 L 1170.952 2005.672 Q 1171.008 2005.816 1171.152 2005.816 L 1171.152 2005.816 L 1171.152 2005.816 Q 1171.264 2005.816 1171.392 2005.744 L 1171.392 2005.744 L 1171.392 2005.744 Q 1171.52 2005.672 1171.632 2005.576 L 1171.632 2005.576 L 1171.792 2005.848 L 1171.792 2005.848 Q 1171.104 2006.44 1169.824 2006.44 L 1169.824 2006.44 L 1169.824 2006.44 Q 1168.864 2006.44 1168.48 2006.112 L 1168.48 2006.112 L 1168.48 2006.112 Q 1168.096 2005.784 1168.064 2005.224 L 1168.064 2005.224 L 1168.064 2005.224 Q 1167.312 2006.44 1165.824 2006.44 L 1165.824 2006.44 Z  M 1167.424 2005.16 L 1167.424 2005.16 Q 1167.76 2005.16 1168.016 2004.888 L 1168.016 2004.888 L 1168.016 2001.512 L 1168.016 2001.512 Q 1167.872 2001.752 1167.488 2002.136 L 1167.488 2002.136 L 1167.488 2002.136 Q 1167.056 2002.552 1166.832 2002.944 L 1166.832 2002.944 L 1166.832 2002.944 Q 1166.608 2003.336 1166.608 2004.008 L 1166.608 2004.008 L 1166.608 2004.008 Q 1166.608 2005.16 1167.424 2005.16 L 1167.424 2005.16 Z " id="Fill-B" fill="rgb(117,117,117)"/></g></svg>