<?xml version="1.0" encoding="UTF-8" standalone="no"?><!-- Generator: Gravit.io --><svg xmlns="http://www.w3.org/2000/svg" xmlns:xlink="http://www.w3.org/1999/xlink" style="isolation:isolate" viewBox="1545 661 24 24" width="24" height="24"><g id="clip-content-page"><g opacity="0"><rect x="1545" y="661" width="24" height="24" transform="matrix(1,0,0,1,0,0)" id="Icon Background" fill="rgb(37,86,132)"/></g><path d=" M 1560 668 L 1552.859 668 L 1552.859 668 C 1551.833 668 1551 669.018 1551 670.272 L 1551 676.728 C 1551 677.982 1551.833 679 1552.859 679 L 1560 679 L 1560 668 Z " id="Fill-A" fill="rgb(77,77,77)"/><path d=" M 1548 676 L 1548 675 L 1548 675 L 1549 675 L 1549 676 L 1548 676 L 1548 676 L 1548 676 L 1548 676 L 1548 676 L 1548 676 L 1548 676 L 1548 676 L 1548 676 L 1548 676 Z  M 1562 666 L 1562 666 L 1562 666 L 1562 666 L 1562 666 L 1562 666 L 1562 666 L 1562 666 L 1562 666 L 1562 666 L 1562 666 L 1562 666 L 1562 666 L 1562 666 L 1562 666 L 1562 666 L 1562 666 L 1563 666 L 1563 665 L 1562 665 L 1562 665 L 1562 665 L 1562 665 L 1562 666 L 1562 666 L 1562 666 L 1562 666 Z  M 1548 672 L 1548 671 L 1548 671 L 1549 671 L 1549 672 L 1548 672 L 1548 672 L 1548 672 L 1548 672 L 1548 672 L 1548 672 L 1548 672 L 1548 672 L 1548 672 L 1548 672 L 1548 672 L 1548 672 Z  M 1562 682 L 1562 682 L 1562 682 L 1562 682 L 1562 682 L 1562 682 L 1562 682 L 1562 682 L 1563 682 L 1563 681 L 1562 681 L 1562 681 L 1562 681 L 1562 681 L 1562 682 L 1562 682 L 1562 682 L 1562 682 L 1562 682 Z  M 1564 666 L 1564 665 L 1564 665 L 1565 665 L 1565 666 L 1564 666 L 1564 666 L 1564 666 L 1564 666 L 1564 666 L 1564 666 L 1564 666 L 1564 666 L 1564 666 L 1564 666 L 1564 666 L 1564 666 L 1564 666 L 1564 666 L 1564 666 L 1564 666 Z  M 1564 682 L 1564 681 L 1564 681 L 1565 681 L 1565 682 L 1564 682 L 1564 682 L 1564 682 L 1564 682 L 1564 682 L 1564 682 L 1564 682 L 1564 682 L 1564 682 L 1564 682 L 1564 682 L 1564 682 L 1564 682 L 1564 682 L 1564 682 L 1564 682 L 1564 682 Z  M 1562 672 L 1562 671 L 1562 671 L 1563 671 L 1563 672 L 1562 672 L 1562 672 L 1562 672 L 1562 672 L 1562 672 L 1562 672 L 1562 672 L 1562 672 L 1562 672 L 1562 672 L 1562 672 L 1562 672 L 1562 672 L 1562 672 L 1562 672 Z  M 1562 680 L 1562 679 L 1562 679 L 1563 679 L 1563 680 L 1562 680 L 1562 680 L 1562 680 L 1562 680 L 1562 680 L 1562 680 L 1562 680 L 1562 680 L 1562 680 L 1562 680 L 1562 680 Z  M 1562 678 L 1562 677 L 1562 677 L 1563 677 L 1563 678 L 1562 678 L 1562 678 L 1562 678 L 1562 678 L 1562 678 L 1562 678 L 1562 678 L 1562 678 L 1562 678 L 1562 678 L 1562 678 L 1562 678 Z  M 1562 676 L 1562 675 L 1562 675 L 1563 675 L 1563 676 L 1562 676 L 1562 676 L 1562 676 L 1562 676 L 1562 676 L 1562 676 L 1562 676 L 1562 676 L 1562 676 L 1562 676 L 1562 676 L 1562 676 L 1562 676 Z  M 1562 668 L 1562 667 L 1562 667 L 1563 667 L 1563 668 L 1562 668 L 1562 668 L 1562 668 L 1562 668 L 1562 668 L 1562 668 L 1562 668 L 1562 668 L 1562 668 L 1562 668 L 1562 668 L 1562 668 L 1562 668 L 1562 668 L 1562 668 L 1562 668 L 1562 668 Z  M 1562 664 L 1562 663 L 1562 663 L 1563 663 L 1563 664 L 1562 664 L 1562 664 L 1562 664 L 1562 664 L 1562 664 L 1562 664 L 1562 664 L 1562 664 L 1562 664 L 1562 664 L 1562 664 L 1562 664 L 1562 664 L 1562 664 L 1562 664 L 1562 664 L 1562 664 L 1562 664 L 1562 664 Z  M 1562 684 L 1562 683 L 1562 683 L 1563 683 L 1563 684 L 1562 684 L 1562 684 L 1562 684 L 1562 684 L 1562 684 L 1562 684 L 1562 684 L 1562 684 L 1562 684 L 1562 684 L 1562 684 L 1562 684 L 1562 684 L 1562 684 L 1562 684 L 1562 684 L 1562 684 L 1562 684 Z  M 1562 670 L 1562 669 L 1562 669 L 1563 669 L 1563 670 L 1562 670 L 1562 670 L 1562 670 L 1562 670 L 1562 670 L 1562 670 L 1562 670 L 1562 670 L 1562 670 L 1562 670 L 1562 670 L 1562 670 L 1562 670 L 1562 670 L 1562 670 L 1562 670 Z  M 1562 674 L 1562 673 L 1562 673 L 1563 673 L 1563 674 L 1562 674 L 1562 674 L 1562 674 L 1562 674 L 1562 674 L 1562 674 L 1562 674 L 1562 674 L 1562 674 L 1562 674 L 1562 674 L 1562 674 L 1562 674 L 1562 674 Z  M 1548 674 L 1548 673 L 1548 673 L 1549 673 L 1549 674 L 1548 674 L 1548 674 L 1548 674 L 1548 674 L 1548 674 L 1548 674 L 1548 674 L 1548 674 L 1548 674 L 1548 674 L 1548 674 Z  M 1548 682 L 1548 682 L 1548 682 L 1548 682 L 1548 682 L 1549 682 L 1549 681 L 1548 681 L 1548 681 L 1548 681 L 1548 681 L 1548 682 L 1548 682 L 1548 682 L 1548 682 L 1548 682 Z  M 1548 680 L 1548 679 L 1548 679 L 1549 679 L 1549 680 L 1548 680 L 1548 680 L 1548 680 L 1548 680 L 1548 680 L 1548 680 L 1548 680 L 1548 680 Z  M 1548 678 L 1548 677 L 1548 677 L 1549 677 L 1549 678 L 1548 678 L 1548 678 L 1548 678 L 1548 678 L 1548 678 L 1548 678 L 1548 678 L 1548 678 L 1548 678 Z  M 1548 666 L 1548 666 L 1548 666 L 1548 666 L 1548 666 L 1548 666 L 1548 666 L 1548 666 L 1548 666 L 1548 666 L 1548 666 L 1548 666 L 1548 666 L 1548 666 L 1549 666 L 1549 665 L 1548 665 L 1548 665 L 1548 665 L 1548 665 L 1548 666 L 1548 666 L 1548 666 L 1548 666 Z  M 1548 670 L 1548 669 L 1548 669 L 1549 669 L 1549 670 L 1548 670 L 1548 670 L 1548 670 L 1548 670 L 1548 670 L 1548 670 L 1548 670 L 1548 670 L 1548 670 L 1548 670 L 1548 670 L 1548 670 L 1548 670 Z  M 1548 668 L 1548 667 L 1548 667 L 1549 667 L 1549 668 L 1548 668 L 1548 668 L 1548 668 L 1548 668 L 1548 668 L 1548 668 L 1548 668 L 1548 668 L 1548 668 L 1548 668 L 1548 668 L 1548 668 L 1548 668 L 1548 668 Z  M 1548 664 L 1548 663 L 1548 663 L 1549 663 L 1549 664 L 1548 664 L 1548 664 L 1548 664 L 1548 664 L 1548 664 L 1548 664 L 1548 664 L 1548 664 L 1548 664 L 1548 664 L 1548 664 L 1548 664 L 1548 664 L 1548 664 L 1548 664 L 1548 664 Z  M 1548 684 L 1548 683 L 1548 683 L 1549 683 L 1549 684 L 1548 684 L 1548 684 L 1548 684 L 1548 684 L 1548 684 L 1548 684 L 1548 684 L 1548 684 L 1548 684 L 1548 684 L 1548 684 L 1548 684 L 1548 684 L 1548 684 Z  M 1559 682 L 1558 682 L 1558 682 L 1558 681 L 1559 681 L 1559 682 L 1559 682 L 1559 682 L 1559 682 L 1559 682 L 1559 682 L 1559 682 L 1559 682 L 1559 682 Z  M 1557 682 L 1556 682 L 1556 682 L 1556 681 L 1557 681 L 1557 682 L 1557 682 L 1557 682 L 1557 682 L 1557 682 L 1557 682 L 1557 682 L 1557 682 L 1557 682 L 1557 682 Z  M 1561 682 L 1560 682 L 1560 682 L 1560 681 L 1561 681 L 1561 682 L 1561 682 L 1561 682 L 1561 682 L 1561 682 L 1561 682 L 1561 682 L 1561 682 Z  M 1555 682 L 1554 682 L 1554 682 L 1554 681 L 1555 681 L 1555 682 L 1555 682 L 1555 682 L 1555 682 L 1555 682 L 1555 682 L 1555 682 L 1555 682 L 1555 682 L 1555 682 L 1555 682 Z  M 1553 682 L 1552 682 L 1552 682 L 1552 681 L 1553 681 L 1553 682 L 1553 682 L 1553 682 L 1553 682 L 1553 682 L 1553 682 L 1553 682 L 1553 682 L 1553 682 L 1553 682 L 1553 682 L 1553 682 Z  M 1551 682 L 1550 682 L 1550 682 L 1550 681 L 1551 681 L 1551 682 L 1551 682 L 1551 682 L 1551 682 L 1551 682 L 1551 682 L 1551 682 L 1551 682 L 1551 682 L 1551 682 L 1551 682 L 1551 682 L 1551 682 Z  M 1547 682 L 1546 682 L 1546 681 L 1547 681 L 1547 682 L 1547 682 L 1547 682 L 1547 682 L 1547 682 L 1547 682 L 1547 682 L 1547 682 L 1547 682 L 1547 682 L 1547 682 L 1547 682 L 1547 682 L 1547 682 L 1547 682 Z  M 1559 666 L 1558 666 L 1558 666 L 1558 665 L 1559 665 L 1559 666 L 1559 666 L 1559 666 L 1559 666 L 1559 666 L 1559 666 L 1559 666 L 1559 666 Z  M 1557 666 L 1556 666 L 1556 666 L 1556 665 L 1557 665 L 1557 666 L 1557 666 L 1557 666 L 1557 666 L 1557 666 L 1557 666 L 1557 666 L 1557 666 L 1557 666 Z  M 1561 666 L 1560 666 L 1560 666 L 1560 665 L 1561 665 L 1561 666 L 1561 666 L 1561 666 L 1561 666 L 1561 666 L 1561 666 L 1561 666 Z  M 1555 666 L 1554 666 L 1554 666 L 1554 665 L 1555 665 L 1555 666 L 1555 666 L 1555 666 L 1555 666 L 1555 666 L 1555 666 L 1555 666 L 1555 666 L 1555 666 L 1555 666 Z  M 1553 666 L 1552 666 L 1552 666 L 1552 665 L 1553 665 L 1553 666 L 1553 666 L 1553 666 L 1553 666 L 1553 666 L 1553 666 L 1553 666 L 1553 666 L 1553 666 L 1553 666 L 1553 666 Z  M 1551 666 L 1550 666 L 1550 666 L 1550 665 L 1551 665 L 1551 666 L 1551 666 L 1551 666 L 1551 666 L 1551 666 L 1551 666 L 1551 666 L 1551 666 L 1551 666 L 1551 666 L 1551 666 L 1551 666 Z  M 1547 666 L 1546 666 L 1546 665 L 1547 665 L 1547 666 L 1547 666 L 1547 666 L 1547 666 L 1547 666 L 1547 666 L 1547 666 L 1547 666 L 1547 666 L 1547 666 L 1547 666 L 1547 666 L 1547 666 L 1547 666 Z  M 1565 668 L 1565.141 668 C 1566.167 668 1567 669.018 1567 670.272 L 1567 676.728 C 1567 677.982 1566.167 679 1565.141 679 L 1565 679 L 1565 668 Z " fill-rule="evenodd" id="Fill-B" fill="rgb(117,117,117)"/></g></svg>