<?xml version="1.0" encoding="UTF-8" standalone="no"?><!-- Generator: Gravit.io --><svg xmlns="http://www.w3.org/2000/svg" xmlns:xlink="http://www.w3.org/1999/xlink" style="isolation:isolate" viewBox="1335 611 24 24" width="24pt" height="24pt"><g><path d=" M 1354.714 629.857 L 1347 629.857 L 1340.143 629.857 C 1340.143 629.857 1340.143 629.857 1340.143 629.857 C 1337.304 629.857 1335 627.553 1335 624.714 C 1335 621.876 1337.304 619.572 1340.143 619.572 C 1340.439 619.572 1340.73 619.598 1341.009 619.66 C 1342.185 617.563 1344.428 616.143 1347 616.143 C 1350.241 616.143 1352.96 618.397 1353.655 621.428 C 1353.993 621.332 1354.347 621.286 1354.714 621.286 C 1357.08 621.286 1359 623.206 1359 625.571 C 1359 627.937 1357.08 629.857 1354.714 629.857 L 1354.714 629.857 Z " fill="rgb(77,77,77)"/></g></svg>