<?xml version="1.0" encoding="UTF-8" standalone="no"?><!-- Generator: Gravit.io --><svg xmlns="http://www.w3.org/2000/svg" xmlns:xlink="http://www.w3.org/1999/xlink" style="isolation:isolate" viewBox="1978 2583 24 24" width="24" height="24"><g id="comments-panel"><g opacity="0"><rect x="1978" y="2583" width="24" height="24" transform="matrix(1,0,0,1,0,0)" id="Icon Background" fill="rgb(37,86,132)"/></g><path d=" M 1986.222 2601 L 1985 2601 L 1985 2601 L 1982 2604 L 1982 2601 L 1979.494 2601 C 1978.669 2601 1978 2600.331 1978 2599.506 L 1978 2587.494 C 1978 2586.669 1978.669 2586 1979.494 2586 L 1994.506 2586 C 1995.331 2586 1996 2586.669 1996 2587.494 L 1996 2591.222 L 1994 2593.222 L 1994 2588 L 1980 2588 L 1980 2588 L 1980 2599 L 1984 2599 L 1984 2599.17 L 1984.17 2599 L 1988.222 2599 L 1986.222 2601 Z " id="Fill-B" fill="rgb(117,117,117)"/><path d=" M 1998.839 2597.071 L 2000.789 2595.121 C 2001.569 2594.34 2001.569 2593.073 2000.789 2592.293 L 2000.081 2591.585 C 1999.301 2590.805 1998.034 2590.805 1997.253 2591.585 L 1995.303 2593.535 L 1998.839 2597.071 L 1998.839 2597.071 L 1998.839 2597.071 L 1998.839 2597.071 Z  M 1994.975 2595.914 L 1995.045 2595.984 C 1995.221 2596.16 1995.221 2596.446 1995.045 2596.622 L 1988.793 2602.873 C 1988.618 2603.049 1988.332 2603.049 1988.156 2602.873 L 1988.086 2602.803 C 1987.911 2602.628 1987.911 2602.342 1988.086 2602.166 L 1994.338 2595.914 C 1994.514 2595.739 1994.8 2595.739 1994.975 2595.914 L 1994.975 2595.914 L 1994.975 2595.914 Z  M 1996.39 2597.329 L 1996.46 2597.399 C 1996.635 2597.574 1996.635 2597.86 1996.46 2598.036 L 1990.208 2604.288 C 1990.032 2604.463 1989.746 2604.463 1989.571 2604.288 L 1989.501 2604.218 C 1989.325 2604.042 1989.325 2603.756 1989.501 2603.581 L 1995.753 2597.329 C 1995.928 2597.153 1996.214 2597.153 1996.39 2597.329 L 1996.39 2597.329 Z  M 1998.132 2597.778 L 1990.182 2605.728 L 1986 2606.374 L 1986.646 2602.192 L 1994.596 2594.242 L 1998.132 2597.778 L 1998.132 2597.778 L 1998.132 2597.778 L 1998.132 2597.778 Z  M 1987.218 2603.156 L 1987.218 2604.656 C 1987.218 2604.932 1987.442 2605.156 1987.718 2605.156 L 1989.218 2605.156 L 1987.218 2603.156 Z " fill-rule="evenodd" id="Fill-A" fill="rgb(77,77,77)"/></g></svg>