<?xml version="1.0" encoding="UTF-8" standalone="no"?><!-- Generator: Gravit.io --><svg xmlns="http://www.w3.org/2000/svg" xmlns:xlink="http://www.w3.org/1999/xlink" style="isolation:isolate" viewBox="1978 991 24 24" width="24" height="24"><g id="corners-round"><g opacity="0"><rect x="1978" y="991" width="24" height="24" transform="matrix(1,0,0,1,0,0)" id="Icon Background" fill="rgb(37,86,132)"/></g><path d=" M 1980 994 L 1987 994 C 1993.623 994 1999 999.377 1999 1006 L 1999 1013 L 1980 1013 L 1980 994 Z " id="Fill-B" fill="rgb(117,117,117)"/><path d=" M 1998 1013 L 2000 1013 L 2000 1006 C 2000 1002.55 1998.63 999.24 1996.19 996.81 C 1993.76 994.37 1990.45 993 1987 993 L 1980 993 L 1980 993 L 1980 995 L 1982 995 L 1982 995 L 1982 995 L 1982.625 995 L 1987 995 C 1989.92 995 1992.72 996.16 1994.78 998.22 C 1996.84 1000.28 1998 1003.08 1998 1006 L 1998 1009 L 1998 1011 L 1998 1013 Z " id="Fill-A" fill="rgb(77,77,77)"/></g></svg>