<?xml version="1.0" encoding="UTF-8" standalone="no"?><!-- Generator: Gravit.io --><svg xmlns="http://www.w3.org/2000/svg" xmlns:xlink="http://www.w3.org/1999/xlink" style="isolation:isolate" viewBox="1978 1057 24 24" width="24" height="24"><g id="corners-round2"><g opacity="0"><rect x="1978" y="1057" width="24" height="24" transform="matrix(1,0,0,1,0,0)" id="Icon Background" fill="rgb(37,86,132)"/></g><path d=" M 1980 1060 L 1987 1060 C 1987 1066.623 1992.377 1072 1999 1072 L 1999 1079 L 1980 1079 L 1980 1060 Z " id="Fill-B" fill="rgb(117,117,117)"/><path d=" M 1998 1079 L 2000 1079 L 2000 1072 C 2000 1071.73 1999.89 1071.48 1999.71 1071.29 C 1999.52 1071.11 1999.27 1071 1999 1071 C 1996.08 1071 1993.28 1069.84 1991.22 1067.78 C 1989.16 1065.72 1988 1062.92 1988 1060 C 1988 1059.73 1987.89 1059.48 1987.71 1059.29 C 1987.52 1059.11 1987.27 1059 1987 1059 L 1980 1059 L 1980 1059 L 1980 1061 L 1982 1061 L 1982 1061 L 1982 1061 L 1982.625 1061 L 1986.04 1061 C 1986.28 1064.09 1987.61 1067 1989.81 1069.19 C 1992 1071.39 1994.91 1072.72 1998 1072.96 L 1998 1075 L 1998 1077 L 1998 1079 Z " id="Fill-A" fill="rgb(77,77,77)"/></g></svg>