<?xml version="1.0" encoding="UTF-8" standalone="no"?><!-- Generator: Gravit.io --><svg xmlns="http://www.w3.org/2000/svg" xmlns:xlink="http://www.w3.org/1999/xlink" style="isolation:isolate" viewBox="1978 1255 24 24" width="24" height="24"><g id="corners-fancy"><g opacity="0"><rect x="1978" y="1255" width="24" height="24" transform="matrix(1,0,0,1,0,0)" id="Icon Background" fill="rgb(37,86,132)"/></g><path d=" M 1980 1258 L 1987 1258 L 1987 1266 L 1995 1266 L 1995 1262 L 1991 1262 L 1991 1270 L 1999 1270 L 1999 1277 L 1980 1277 L 1980 1258 Z " id="Fill-B" fill="rgb(117,117,117)"/><path d=" M 1990 1265 L 1990 1261 L 1996 1261 L 1996 1267 L 1996 1267 L 1992 1267 L 1992 1267 L 1992 1269 L 2000 1269 L 2000 1277 L 1998 1277 L 1998 1271 L 1990 1271 L 1990 1267 L 1990 1267 L 1986 1267 L 1986 1259 L 1980 1259 L 1980 1257 L 1988 1257 L 1988 1265 L 1990 1265 Z  M 1992 1265 L 1994 1265 L 1994 1263 L 1992 1263 L 1992 1265 L 1992 1265 L 1992 1265 Z " fill-rule="evenodd" id="Fill-A" fill="rgb(77,77,77)"/></g></svg>