<?xml version="1.0" encoding="UTF-8" standalone="no"?><!-- Generator: Gravit.io --><svg xmlns="http://www.w3.org/2000/svg" xmlns:xlink="http://www.w3.org/1999/xlink" style="isolation:isolate" viewBox="778 1791 24 24" width="24" height="24"><g id="create-symbol"><g opacity="0"><rect x="778" y="1791" width="24" height="24" transform="matrix(1,0,0,1,0,0)" id="Icon Background" fill="rgb(37,86,132)"/></g><path d=" M 782.279 1805.853 L 782.279 1805.853 C 782.188 1805.358 782.14 1804.851 782.14 1804.35 C 782.14 1802.2 783.01 1800.13 784.56 1798.63 C 784.75 1798.44 784.85 1798.19 784.86 1797.93 C 784.86 1797.66 784.76 1797.4 784.57 1797.22 C 784.39 1797.03 784.13 1796.92 783.87 1796.91 C 783.6 1796.91 783.35 1797.01 783.16 1797.2 C 781.23 1799.08 780.14 1801.66 780.14 1804.35 C 780.14 1805.139 780.232 1805.918 780.419 1806.679 C 779.673 1807.398 779.321 1808.485 779.59 1809.562 C 779.99 1811.168 781.619 1812.147 783.226 1811.747 C 784.832 1811.346 785.811 1809.717 785.41 1808.111 C 785.052 1806.673 783.709 1805.738 782.279 1805.853 L 782.279 1805.853 Z  M 792.991 1794.778 C 796.357 1795.779 798.958 1798.481 799.83 1801.89 C 799.9 1802.15 799.86 1802.42 799.72 1802.65 C 799.59 1802.88 799.37 1803.04 799.11 1803.11 C 798.85 1803.17 798.58 1803.13 798.35 1803 C 798.12 1802.86 797.96 1802.64 797.89 1802.38 C 797.227 1799.774 795.297 1797.68 792.775 1796.802 C 792.159 1798.098 790.678 1798.793 789.254 1798.384 C 787.663 1797.928 786.741 1796.265 787.197 1794.674 C 787.654 1793.082 789.317 1792.16 790.908 1792.617 C 791.976 1792.923 792.742 1793.772 792.991 1794.778 L 792.991 1794.778 L 792.991 1794.778 Z  M 790.12 1812.36 C 790.39 1812.36 790.64 1812.47 790.83 1812.65 C 791.02 1812.84 791.12 1813.1 791.12 1813.36 C 791.12 1813.63 791.02 1813.88 790.83 1814.07 C 790.64 1814.25 790.39 1814.36 790.12 1814.36 C 789.21 1814.36 788.31 1814.23 787.44 1813.99 C 787.18 1813.92 786.96 1813.75 786.83 1813.52 C 786.7 1813.28 786.67 1813.01 786.74 1812.76 C 786.81 1812.5 786.98 1812.28 787.22 1812.15 C 787.45 1812.02 787.72 1811.99 787.98 1812.06 C 788.68 1812.26 789.4 1812.36 790.12 1812.36 Z " fill-rule="evenodd" id="Fill-B" fill="rgb(117,117,117)"/><path d=" M 792 1809.5 C 792 1807.016 794.016 1805 796.5 1805 C 798.984 1805 801 1807.016 801 1809.5 C 801 1811.984 798.984 1814 796.5 1814 C 794.016 1814 792 1811.984 792 1809.5 Z  M 797 1809 L 797 1807 L 796 1807 L 796 1809 L 794 1809 L 794 1810 L 796 1810 L 796 1812 L 797 1812 L 797 1810 L 799 1810 L 799 1809 L 797 1809 Z " fill-rule="evenodd" id="Fill-A" fill="rgb(77,77,77)"/></g></svg>