<?xml version="1.0" encoding="UTF-8" standalone="no"?><!-- Generator: Gravit.io --><svg xmlns="http://www.w3.org/2000/svg" xmlns:xlink="http://www.w3.org/1999/xlink" style="isolation:isolate" viewBox="2441 926 24 24" width="24" height="24"><g id="cut"><g opacity="0"><rect x="2441" y="926" width="24" height="24" transform="matrix(1,0,0,1,0,0)" id="Icon Background" fill="rgb(37,86,132)"/></g><path d=" M 2453.986 934.995 L 2459.995 928.986 L 2463 928.986 L 2463 929.972 L 2456.005 937.014 L 2453.986 934.995 L 2453.986 934.995 Z  M 2445.582 945.441 L 2445.582 945.441 L 2445.582 945.441 Q 2446.192 946.028 2446.991 946.028 L 2446.991 946.028 L 2446.991 946.028 Q 2447.789 946.028 2448.399 945.441 L 2448.399 945.441 L 2448.399 945.441 Q 2449.009 944.854 2449.009 944.009 L 2449.009 944.009 L 2449.009 944.009 Q 2449.009 943.164 2448.399 942.577 L 2448.399 942.577 L 2448.399 942.577 Q 2447.789 941.991 2446.991 941.991 L 2446.991 941.991 L 2446.991 941.991 Q 2446.192 941.991 2445.582 942.577 L 2445.582 942.577 L 2445.582 942.577 Q 2444.972 943.164 2444.972 944.009 L 2444.972 944.009 L 2444.972 944.009 Q 2444.972 944.854 2445.582 945.441 L 2445.582 945.441 Z  M 2445.582 933.423 L 2445.582 933.423 L 2445.582 933.423 Q 2446.192 934.009 2446.991 934.009 L 2446.991 934.009 L 2446.991 934.009 Q 2447.789 934.009 2448.399 933.423 L 2448.399 933.423 L 2448.399 933.423 Q 2449.009 932.836 2449.009 931.991 L 2449.009 931.991 L 2449.009 931.991 Q 2449.009 931.146 2448.399 930.559 L 2448.399 930.559 L 2448.399 930.559 Q 2447.789 929.972 2446.991 929.972 L 2446.991 929.972 L 2446.991 929.972 Q 2446.192 929.972 2445.582 930.559 L 2445.582 930.559 L 2445.582 930.559 Q 2444.972 931.146 2444.972 931.991 L 2444.972 931.991 L 2444.972 931.991 Q 2444.972 932.836 2445.582 933.423 L 2445.582 933.423 Z  M 2450.653 933.634 L 2450.653 933.634 L 2463 946.028 L 2463 947.014 L 2459.995 947.014 L 2453 940.019 L 2450.653 942.366 L 2450.653 942.366 Q 2450.981 943.07 2450.981 944.009 L 2450.981 944.009 L 2450.981 944.009 Q 2450.981 945.653 2449.808 946.826 L 2449.808 946.826 L 2449.808 946.826 Q 2448.634 948 2446.991 948 L 2446.991 948 L 2446.991 948 Q 2445.347 948 2444.174 946.826 L 2444.174 946.826 L 2444.174 946.826 Q 2443 945.653 2443 944.009 L 2443 944.009 L 2443 944.009 Q 2443 942.366 2444.174 941.193 L 2444.174 941.193 L 2444.174 941.193 Q 2445.347 940.019 2446.991 940.019 L 2446.991 940.019 L 2446.991 940.019 Q 2447.93 940.019 2448.634 940.347 L 2448.634 940.347 L 2450.981 938 L 2448.634 935.653 L 2448.634 935.653 Q 2447.93 935.981 2446.991 935.981 L 2446.991 935.981 L 2446.991 935.981 Q 2445.347 935.981 2444.174 934.807 L 2444.174 934.807 L 2444.174 934.807 Q 2443 933.634 2443 931.991 L 2443 931.991 L 2443 931.991 Q 2443 930.347 2444.174 929.174 L 2444.174 929.174 L 2444.174 929.174 Q 2445.347 928 2446.991 928 L 2446.991 928 L 2446.991 928 Q 2448.634 928 2449.808 929.174 L 2449.808 929.174 L 2449.808 929.174 Q 2450.981 930.347 2450.981 931.991 L 2450.981 931.991 L 2450.981 931.991 Q 2450.981 932.93 2450.653 933.634 L 2450.653 933.634 Z  M 2451.783 938.215 C 2451.783 937.663 2452.231 937.215 2452.783 937.215 C 2453.335 937.215 2453.783 937.663 2453.783 938.215 C 2453.783 938.767 2453.335 939.215 2452.783 939.215 C 2452.231 939.215 2451.783 938.767 2451.783 938.215 Z " fill-rule="evenodd" id="Fill-B" fill="rgb(117,117,117)"/></g></svg>