<?xml version="1.0" encoding="UTF-8" standalone="no"?><!-- Generator: Gravit.io --><svg xmlns="http://www.w3.org/2000/svg" xmlns:xlink="http://www.w3.org/1999/xlink" style="isolation:isolate" viewBox="1150 2253 24 24" width="24" height="24"><g id="detach-from-path"><g opacity="0"><rect x="1150" y="2253" width="24" height="24" transform="matrix(1,0,0,1,0,0)" id="Icon Background" fill="rgb(37,86,132)"/></g><path d=" M 1167.355 2271.065 L 1170 2273.71 L 1170.71 2273 L 1168.065 2270.355 L 1170.71 2267.71 L 1170 2267 L 1167.355 2269.645 L 1164.71 2267 L 1164 2267.71 L 1166.645 2270.355 L 1164 2273 L 1164.71 2273.71 L 1167.355 2271.065 Z " id="Fill-A" fill="rgb(77,77,77)"/><path d=" M 1154.414 2273.049 L 1155.121 2272.341 L 1155.828 2273.049 L 1155.121 2273.756 L 1154.414 2273.049 L 1154.414 2273.049 L 1154.414 2273.049 L 1154.414 2273.049 L 1154.414 2273.049 Z  M 1160.957 2270.109 C 1159.29 2270.353 1157.739 2271.138 1156.536 2272.341 L 1156.535 2272.341 L 1157.243 2273.049 L 1155.121 2275.17 L 1153 2273.049 L 1153 2273.049 L 1153 2273.049 L 1155.121 2270.927 L 1155.828 2271.634 L 1155.828 2271.634 C 1157.303 2270.159 1159.165 2269.304 1161.089 2269.074 C 1161.003 2269.405 1160.964 2269.753 1160.957 2270.109 L 1160.957 2270.109 Z  M 1163.441 2265.216 L 1163.441 2258.292 L 1163.453 2258.292 L 1163.453 2258.292 Q 1164.216 2258.292 1164.877 2259.03 L 1164.877 2259.03 L 1164.877 2259.03 Q 1165.538 2259.767 1165.958 2261.432 L 1165.958 2261.432 L 1166.25 2261.432 L 1166.25 2261.432 Q 1166.212 2261.102 1166.212 2260.517 L 1166.212 2260.517 L 1166.212 2260.517 Q 1166.212 2259.411 1166.301 2258 L 1166.301 2258 L 1166.301 2258 Q 1165.093 2258.038 1162.157 2258.038 L 1162.157 2258.038 L 1162.157 2258.038 Q 1159.208 2258.038 1158 2258 L 1158 2258 L 1158 2258 Q 1158.089 2259.411 1158.089 2260.517 L 1158.089 2260.517 L 1158.089 2260.517 Q 1158.089 2261.102 1158.051 2261.432 L 1158.051 2261.432 L 1158.343 2261.432 L 1158.343 2261.432 Q 1158.763 2259.754 1159.417 2259.023 L 1159.417 2259.023 L 1159.417 2259.023 Q 1160.072 2258.292 1160.847 2258.292 L 1160.847 2258.292 L 1160.86 2258.292 L 1160.86 2265.563 L 1160.86 2265.563 Q 1160.86 2266.097 1160.752 2266.339 L 1160.752 2266.339 L 1160.752 2266.339 Q 1160.644 2266.581 1160.358 2266.663 L 1160.358 2266.663 L 1160.358 2266.663 Q 1160.072 2266.746 1159.449 2266.746 L 1159.449 2266.746 L 1159.449 2267 L 1159.449 2267 Q 1160.998 2266.966 1161.885 2266.962 C 1162.293 2266.29 1162.822 2265.698 1163.441 2265.216 Z " fill-rule="evenodd" id="Fill-B" fill="rgb(117,117,117)"/></g></svg>