<?xml version="1.0" encoding="UTF-8" standalone="no"?><!-- Generator: Gravit.io --><svg xmlns="http://www.w3.org/2000/svg" xmlns:xlink="http://www.w3.org/1999/xlink" style="isolation:isolate" viewBox="1978 598 24 24" width="24" height="24"><g id="duplicate"><g opacity="0"><rect x="1978" y="598" width="24" height="24" transform="matrix(1,0,0,1,0,0)" id="Icon Background" fill="rgb(37,86,132)"/></g><path d=" M 1993 607 L 1993 601 C 1993 600.2 1992.68 599.44 1992.12 598.88 C 1991.56 598.32 1990.8 598 1990 598 L 1982 598 L 1982 598 C 1981.2 598 1980.44 598.32 1979.88 598.88 C 1979.32 599.44 1979 600.2 1979 601 L 1979 609 C 1979 609.8 1979.32 610.56 1979.88 611.12 C 1980.44 611.68 1981.2 612 1982 612 L 1986 612 L 1986 610 L 1982 610 C 1981.73 610 1981.48 609.89 1981.29 609.71 C 1981.11 609.52 1981 609.27 1981 609 L 1981 601 C 1981 600.73 1981.11 600.48 1981.29 600.29 C 1981.48 600.11 1981.73 600 1982 600 L 1982 600 L 1990 600 C 1990.27 600 1990.52 600.11 1990.71 600.29 C 1990.89 600.48 1991 600.73 1991 601 L 1991 607 L 1993 607 Z " id="Fill-B" fill="rgb(117,117,117)"/><path d=" M 1990 610 L 1998 610 C 1998.27 610 1998.52 610.11 1998.71 610.29 C 1998.89 610.48 1999 610.73 1999 611 L 1999 619 C 1999 619.27 1998.89 619.52 1998.71 619.71 C 1998.52 619.89 1998.27 620 1998 620 L 1990 620 C 1989.73 620 1989.48 619.89 1989.29 619.71 C 1989.11 619.52 1989 619.27 1989 619 L 1989 611 C 1989 610.73 1989.11 610.48 1989.29 610.29 C 1989.48 610.11 1989.73 610 1990 610 L 1990 610 Z  M 1990 608 L 1998 608 C 1998.8 608 1999.56 608.32 2000.12 608.88 C 2000.68 609.44 2001 610.2 2001 611 L 2001 619 C 2001 619.8 2000.68 620.56 2000.12 621.12 C 1999.56 621.68 1998.8 622 1998 622 L 1990 622 C 1989.2 622 1988.44 621.68 1987.88 621.12 C 1987.32 620.56 1987 619.8 1987 619 L 1987 611 C 1987 610.2 1987.32 609.44 1987.88 608.88 C 1988.44 608.32 1989.2 608 1990 608 L 1990 608 Z  M 1997.434 604 C 1997.273 602.973 1996.825 602.006 1996.14 601.22 C 1995.808 600.834 1995.423 600.505 1995 600.242 L 1995 601.476 C 1995.138 601.597 1995.269 601.729 1995.39 601.87 C 1995.917 602.478 1996.273 603.214 1996.421 604 L 1994 604 L 1997 607 L 2000 604 L 1997.434 604 Z " fill-rule="evenodd" id="Fill-A" fill="rgb(77,77,77)"/></g></svg>