<?xml version="1.0" encoding="UTF-8" standalone="no"?><!-- Generator: Gravit.io --><svg xmlns="http://www.w3.org/2000/svg" xmlns:xlink="http://www.w3.org/1999/xlink" style="isolation:isolate" viewBox="1978 2913 24 24" width="24" height="24"><g id="effects-panel"><g opacity="0"><rect x="1978" y="2913" width="24" height="24" transform="matrix(1,0,0,1,0,0)" id="Icon Background" fill="rgb(37,86,132)"/></g><path d=" M 1984.728 2934.732 L 1983.446 2931.523 L 1980 2931.776 L 1982.138 2929.062 L 1980.196 2926.203 L 1983.615 2926.698 L 1985.12 2923.587 L 1986.402 2926.795 L 1989.848 2926.543 L 1987.71 2929.257 L 1989.652 2932.115 L 1986.232 2931.621 L 1984.728 2934.732 Z  M 1991.422 2922 L 1990.589 2919.371 L 1988 2918.422 L 1990.629 2917.589 L 1991.578 2915 L 1992.411 2917.629 L 1995 2918.578 L 1992.371 2919.411 L 1991.422 2922 Z " fill-rule="evenodd" id="Fill-A" fill="rgb(77,77,77)"/><path d=" M 1982.444 2922.002 L 1981.849 2920.124 L 1980 2919.447 L 1981.878 2918.852 L 1982.556 2917.002 L 1983.151 2918.88 L 1985 2919.558 L 1983.122 2920.153 L 1982.444 2922.002 Z  M 1997.422 2930.002 L 1996.589 2927.373 L 1994 2926.424 L 1996.629 2925.591 L 1997.578 2923.002 L 1998.411 2925.631 L 2001 2926.58 L 1998.371 2927.413 L 1997.422 2930.002 Z " fill-rule="evenodd" id="Fill-B" fill="rgb(117,117,117)"/></g></svg>