<?xml version="1.0" encoding="UTF-8" standalone="no"?><!-- Generator: Gravit.io --><svg xmlns="http://www.w3.org/2000/svg" xmlns:xlink="http://www.w3.org/1999/xlink" style="isolation:isolate" viewBox="1978 793 24 24" width="24" height="24"><g id="ellipse-open"><g opacity="0"><rect x="1978" y="793" width="24" height="24" transform="matrix(1,0,0,1,0,0)" id="Icon Background" fill="rgb(37,86,132)"/></g><path d=" M 1992.21 798.36 L 1992.84 796.46 C 1994.64 797.06 1996.2 798.2 1997.3 799.74 C 1998.41 801.27 1999 803.11 1999 805 C 1999 807.39 1998.05 809.68 1996.36 811.36 C 1994.68 813.05 1992.39 814 1990 814 C 1987.61 814 1985.32 813.05 1983.64 811.36 C 1981.95 809.68 1981 807.39 1981 805 L 1983 805 C 1983 806.86 1983.74 808.64 1985.05 809.95 C 1986.36 811.26 1988.14 812 1990 812 C 1991.86 812 1993.64 811.26 1994.95 809.95 C 1996.26 808.64 1997 806.86 1997 805 C 1997 803.53 1996.54 802.1 1995.68 800.91 C 1994.82 799.71 1993.61 798.82 1992.21 798.36 Z " id="Fill-B" fill="rgb(117,117,117)"/></g></svg>