<?xml version="1.0" encoding="UTF-8" standalone="no"?><!-- Generator: Gravit.io --><svg xmlns="http://www.w3.org/2000/svg" xmlns:xlink="http://www.w3.org/1999/xlink" style="isolation:isolate" viewBox="1978 2187 24 24" width="24" height="24"><g id="ends-butt"><g opacity="0"><rect x="1978" y="2187" width="24" height="24" transform="matrix(1,0,0,1,0,0)" id="Icon Background" fill="rgb(37,86,132)"/></g><path d=" M 1989 2209 L 1981 2209 L 1981 2199 L 1987.036 2199 C 1987.012 2199.163 1987 2199.33 1987 2199.5 L 1987 2199.5 C 1987 2200.895 1987.818 2202.101 1989 2202.663 L 1989 2209 Z  M 1992 2209 L 2000 2209 L 2000 2199 L 1993.964 2199 C 1993.988 2199.163 1994 2199.33 1994 2199.5 L 1994 2199.5 C 1994 2200.895 1993.182 2202.101 1992 2202.663 L 1992 2209 Z " fill-rule="evenodd" id="Fill-B" fill="rgb(117,117,117)"/><path d=" M 1991 2202.987 L 1991 2209 L 1990 2209 L 1990 2202.987 C 1990.08 2202.992 1990.16 2202.995 1990.242 2202.995 L 1990.758 2202.995 C 1990.84 2202.995 1990.92 2202.992 1991 2202.987 Z  M 1990.5 2197 L 1990.5 2197 C 1991.88 2197 1993 2198.12 1993 2199.5 L 1993 2199.5 C 1993 2200.88 1991.88 2202 1990.5 2202 L 1990.5 2202 C 1989.12 2202 1988 2200.88 1988 2199.5 L 1988 2199.5 C 1988 2198.12 1989.12 2197 1990.5 2197 Z " fill-rule="evenodd" id="Compound Path" fill="rgb(77,77,77)"/></g></svg>