<?xml version="1.0" encoding="UTF-8" standalone="no"?><!-- Generator: Gravit.io --><svg xmlns="http://www.w3.org/2000/svg" xmlns:xlink="http://www.w3.org/1999/xlink" style="isolation:isolate" viewBox="2411 529 24.07 24" width="24.07pt" height="24"><g id="expand-shrink"><g opacity="0"><rect x="2411" y="529" width="24" height="24" transform="matrix(1,0,0,1,0,0)" id="Icon Background" fill="rgb(37,86,132)"/></g><path d=" M 2421.9 529.43 C 2422.22 529.16 2422.62 529.01 2423.03 529 C 2423.45 529.01 2423.85 529.16 2424.16 529.43 C 2424.44 529.68 2424.67 529.98 2424.82 530.31 L 2427.2 535.12 C 2427.33 535.39 2427.58 535.57 2427.88 535.62 L 2433.18 536.39 C 2433.63 536.44 2434.06 536.6 2434.42 536.88 C 2434.82 537.19 2435.06 537.68 2435.07 538.2 C 2435.06 538.51 2434.98 538.82 2434.83 539.09 C 2434.69 539.35 2434.51 539.58 2434.29 539.79 L 2430.46 543.52 C 2430.38 543.61 2430.31 543.71 2430.27 543.83 C 2430.22 543.95 2430.19 544.09 2430.18 544.23 L 2430.2 544.38 L 2431.1 549.63 C 2431.13 549.8 2431.14 549.96 2431.14 550.13 C 2431.17 550.61 2431.02 551.07 2430.72 551.45 C 2430.39 551.85 2429.89 552.07 2429.37 552.05 C 2428.96 552.04 2428.56 551.92 2428.2 551.72 L 2423.47 549.23 C 2423.33 549.17 2423.18 549.14 2423.03 549.15 C 2422.88 549.14 2422.74 549.17 2422.6 549.23 L 2417.87 551.72 C 2417.51 551.92 2417.11 552.04 2416.7 552.05 C 2416.18 552.07 2415.68 551.85 2415.35 551.45 C 2415.05 551.07 2414.9 550.61 2414.92 550.13 C 2414.93 549.96 2414.94 549.8 2414.97 549.63 L 2415.87 544.38 L 2415.88 544.23 C 2415.88 544.09 2415.85 543.95 2415.79 543.83 C 2415.76 543.71 2415.69 543.61 2415.61 543.52 L 2411.77 539.79 C 2411.56 539.58 2411.38 539.35 2411.24 539.09 C 2411.09 538.82 2411.01 538.51 2411 538.2 C 2411.01 537.68 2411.25 537.19 2411.65 536.88 C 2412.01 536.6 2412.44 536.44 2412.89 536.39 L 2418.18 535.62 C 2418.32 535.59 2418.46 535.53 2418.58 535.43 C 2418.7 535.35 2418.81 535.24 2418.88 535.11 L 2421.25 530.31 C 2421.4 529.98 2421.63 529.68 2421.9 529.43 Z  M 2413.18 538.37 L 2418.48 537.6 C 2418.49 537.59 2418.5 537.59 2418.51 537.59 C 2418.96 537.51 2419.39 537.33 2419.75 537.05 C 2420.13 536.79 2420.44 536.44 2420.65 536.03 C 2420.66 536.02 2420.66 536.02 2420.67 536.01 L 2423.03 531.21 L 2425.4 536.01 C 2425.83 536.86 2426.64 537.46 2427.59 537.6 L 2432.89 538.37 L 2429.05 542.1 C 2429.05 542.11 2429.04 542.11 2429.04 542.12 C 2428.76 542.4 2428.54 542.74 2428.41 543.11 C 2428.26 543.47 2428.19 543.86 2428.18 544.25 C 2428.18 544.28 2428.18 544.31 2428.19 544.34 L 2428.21 544.63 L 2429.12 549.95 L 2424.39 547.46 C 2424.38 547.45 2424.37 547.45 2424.36 547.44 C 2423.95 547.24 2423.49 547.14 2423.03 547.15 C 2422.58 547.14 2422.12 547.24 2421.71 547.44 C 2421.7 547.45 2421.69 547.45 2421.68 547.46 L 2416.95 549.95 L 2417.86 544.63 L 2417.88 544.34 C 2417.88 544.31 2417.89 544.28 2417.89 544.25 C 2417.88 543.86 2417.81 543.47 2417.66 543.11 C 2417.53 542.74 2417.31 542.4 2417.03 542.12 C 2417.03 542.11 2417.02 542.11 2417.02 542.1 L 2413.18 538.37 Z " fill-rule="evenodd" id="Fill-B" fill="rgb(117,117,117)"/><path d=" M 2426.205 546 L 2424.102 544.894 C 2423.513 544.585 2422.556 544.585 2421.967 544.894 L 2419.864 546 L 2420.266 543.658 C 2420.378 543.002 2420.083 542.092 2419.606 541.628 L 2417.905 539.969 L 2420.256 539.628 C 2420.915 539.532 2421.688 538.97 2421.983 538.373 L 2423.035 536.242 L 2424.086 538.373 C 2424.381 538.97 2425.154 539.532 2425.813 539.628 L 2428.165 539.969 L 2426.463 541.628 C 2425.986 542.092 2425.691 543.002 2425.803 543.658 L 2426.205 546 Z " id="Fill-A" fill="rgb(77,77,77)"/></g></svg>