<?xml version="1.0" encoding="UTF-8" standalone="no"?><!-- Generator: Gravit.io --><svg xmlns="http://www.w3.org/2000/svg" xmlns:xlink="http://www.w3.org/1999/xlink" style="isolation:isolate" viewBox="2562 938 24 24" width="24" height="24"><g id="export-swatches"><g opacity="0"><rect x="2562" y="938" width="24" height="24" transform="matrix(1,0,0,1,0,0)" id="Icon Background" fill="rgb(37,86,132)"/></g><path d=" M 2573.5 946.636 L 2570.5 946.636 L 2574.5 941.636 L 2578.5 946.636 L 2575.5 946.636 L 2575.5 952.636 L 2573.5 952.636 L 2573.5 946.636 Z " id="Fill-A" fill="rgb(77,77,77)"/><path d=" M 2567.5 954.636 L 2567.5 954.636 C 2569.156 954.636 2570.5 955.981 2570.5 957.636 L 2570.5 957.636 C 2570.5 959.292 2569.156 960.636 2567.5 960.636 L 2567.5 960.636 C 2565.844 960.636 2564.5 959.292 2564.5 957.636 L 2564.5 957.636 C 2564.5 955.981 2565.844 954.636 2567.5 954.636 L 2567.5 954.636 Z  M 2574.5 954.636 L 2574.5 954.636 C 2576.156 954.636 2577.5 955.981 2577.5 957.636 L 2577.5 957.636 C 2577.5 959.292 2576.156 960.636 2574.5 960.636 L 2574.5 960.636 C 2572.844 960.636 2571.5 959.292 2571.5 957.636 L 2571.5 957.636 C 2571.5 955.981 2572.844 954.636 2574.5 954.636 L 2574.5 954.636 Z  M 2581.5 954.636 L 2581.5 954.636 C 2583.156 954.636 2584.5 955.981 2584.5 957.636 L 2584.5 957.636 C 2584.5 959.292 2583.156 960.636 2581.5 960.636 L 2581.5 960.636 C 2579.844 960.636 2578.5 959.292 2578.5 957.636 L 2578.5 957.636 C 2578.5 955.981 2579.844 954.636 2581.5 954.636 Z " fill-rule="evenodd" id="Fill-B" fill="rgb(117,117,117)"/></g></svg>