<?xml version="1.0" encoding="UTF-8" standalone="no"?><!-- Generator: Gravit.io --><svg xmlns="http://www.w3.org/2000/svg" xmlns:xlink="http://www.w3.org/1999/xlink" style="isolation:isolate" viewBox="1978 3107 24 24" width="24" height="24"><g id="export-selection"><g opacity="0"><rect x="1978" y="3107" width="24" height="24" transform="matrix(1,0,0,1,0,0)" id="Icon Background" fill="rgb(37,86,132)"/></g><path d=" M 1997 3113 L 1999 3113 L 1999 3115 L 1997 3115 L 1997 3113 L 1997 3113 L 1997 3113 L 1997 3113 L 1997 3113 L 1997 3113 L 1997 3113 Z  M 1981 3113 L 1983 3113 L 1983 3115 L 1981 3115 L 1981 3113 L 1981 3113 L 1981 3113 L 1981 3113 L 1981 3113 L 1981 3113 L 1981 3113 L 1981 3113 Z  M 1989 3109 L 1991 3109 L 1991 3111 L 1989 3111 L 1989 3109 L 1989 3109 L 1989 3109 L 1989 3109 L 1989 3109 L 1989 3109 L 1989 3109 L 1989 3109 L 1989 3109 L 1989 3109 L 1989 3109 Z  M 1993 3109 L 1995 3109 L 1995 3111 L 1993 3111 L 1993 3109 L 1993 3109 L 1993 3109 L 1993 3109 L 1993 3109 L 1993 3109 L 1993 3109 L 1993 3109 L 1993 3109 L 1993 3109 Z  M 1997 3109 L 1999 3109 L 1999 3111 L 1997 3111 L 1997 3109 L 1997 3109 L 1997 3109 L 1997 3109 L 1997 3109 L 1997 3109 L 1997 3109 L 1997 3109 L 1997 3109 Z  M 1985 3109 L 1987 3109 L 1987 3111 L 1985 3111 L 1985 3109 L 1985 3109 L 1985 3109 L 1985 3109 L 1985 3109 L 1985 3109 L 1985 3109 L 1985 3109 L 1985 3109 L 1985 3109 L 1985 3109 L 1985 3109 Z  M 1981 3109 L 1983 3109 L 1983 3111 L 1981 3111 L 1981 3109 L 1981 3109 L 1981 3109 L 1981 3109 L 1981 3109 L 1981 3109 L 1981 3109 L 1981 3109 L 1981 3109 L 1981 3109 L 1981 3109 L 1981 3109 Z  M 1981 3117 L 1983 3117 L 1983 3119 L 1981 3119 L 1981 3117 L 1981 3117 L 1981 3117 L 1981 3117 L 1981 3117 L 1981 3117 Z  M 1997 3117 L 1999 3117 L 1999 3119 L 1997 3119 L 1997 3117 L 1997 3117 L 1997 3117 L 1997 3117 L 1997 3117 Z  M 1981 3121 L 1983 3121 L 1983 3123 L 1981 3123 L 1981 3121 L 1981 3121 L 1981 3121 L 1981 3121 Z  M 1981 3125 L 1983 3125 L 1983 3127 L 1981 3127 L 1981 3125 L 1981 3125 L 1981 3125 Z  M 1985 3125 L 1987 3125 L 1987 3127 L 1985 3127 L 1985 3125 L 1985 3125 Z  M 1989 3125 L 1991 3125 L 1991 3127 L 1989 3127 L 1989 3125 Z " fill-rule="evenodd" id="Fill-B" fill="rgb(117,117,117)"/><path d=" M 1996.937 3125.926 L 2000 3125.681 L 1993.033 3119 L 1993 3128.652 L 1995.304 3126.619 L 1996.723 3129.963 L 1998.357 3129.27 L 1996.937 3125.926 Z " id="Fill-A" fill="rgb(77,77,77)"/></g></svg>