<?xml version="1.0" encoding="UTF-8" standalone="no"?><!-- Generator: Gravit.io --><svg xmlns="http://www.w3.org/2000/svg" xmlns:xlink="http://www.w3.org/1999/xlink" style="isolation:isolate" viewBox="1978 3041 24 24" width="24" height="24"><g id="export-canvas"><g opacity="0"><rect x="1978" y="3041" width="24" height="24" transform="matrix(1,0,0,1,0,0)" id="Icon Background" fill="rgb(37,86,132)"/></g><path d=" M 1984.367 3060 L 1980.706 3060 L 1979 3060 C 1978.448 3060 1978 3059.552 1978 3059 L 1978 3059 C 1978 3058.448 1978.448 3058 1979 3058 L 1979 3058 L 1979 3045.706 C 1979 3044.764 1979.764 3044 1980.706 3044 L 1980.706 3044 L 1989 3044 L 1989 3044 L 1989 3043 C 1989 3042.448 1989.448 3042 1990 3042 L 1990 3042 L 1990 3042 C 1990.552 3042 1991 3042.448 1991 3043 L 1991 3044 L 1991 3044 L 1999.294 3044 C 2000.236 3044 2001 3044.764 2001 3045.706 L 2001 3058 C 2001.552 3058 2002 3058.448 2002 3059 L 2002 3059 C 2002 3059.552 2001.552 3060 2001 3060 L 1999.294 3060 L 1999.294 3060 L 1995.633 3060 L 1995.633 3060 L 1996.613 3063.656 C 1996.756 3064.189 1996.439 3064.738 1995.906 3064.881 L 1995.906 3064.881 C 1995.373 3065.024 1994.824 3064.707 1994.681 3064.174 L 1993.563 3060 L 1991 3060 L 1991 3064 C 1991 3064.552 1990.552 3065 1990 3065 L 1990 3065 C 1989.448 3065 1989 3064.552 1989 3064 L 1989 3060 L 1989 3060 L 1986.437 3060 L 1985.319 3064.174 C 1985.176 3064.707 1984.627 3065.024 1984.094 3064.881 L 1984.094 3064.881 C 1983.561 3064.738 1983.244 3064.189 1983.387 3063.656 L 1984.367 3060 Z  M 1981 3058 L 1981 3046 L 1990 3046 L 1990 3046 L 1990 3046 L 1990 3046 L 1990 3046 L 1999 3046 L 1999 3058 L 1981 3058 L 1981 3058 L 1981 3058 Z " fill-rule="evenodd" id="Fill-B" fill="rgb(117,117,117)"/></g></svg>