<?xml version="1.0" encoding="UTF-8" standalone="no"?><!-- Generator: Gravit.io --><svg xmlns="http://www.w3.org/2000/svg" xmlns:xlink="http://www.w3.org/1999/xlink" style="isolation:isolate" viewBox="778 1989 24 24" width="24" height="24"><g id="export"><g opacity="0"><rect x="778" y="1989" width="24" height="24" transform="matrix(1,0,0,1,0,0)" id="Icon Background" fill="rgb(37,86,132)"/></g><path d=" M 791.054 2005 L 791.054 2007.012 C 791.054 2007.564 790.606 2008.012 790.054 2008.012 L 783.946 2008.012 L 783.946 2008.012 C 783.394 2008.012 782.948 2007.564 782.95 2007.012 L 782.996 1995 C 782.998 1994.448 783.448 1993.999 784 1993.998 L 790.054 1993.989 C 790.606 1993.988 791.054 1994.436 791.054 1994.988 L 791.054 1997 L 793 1997 L 793 1995 C 793 1993.344 791.656 1992 790 1992 L 784.019 1992 C 782.363 1992 781.018 1993.344 781.016 1995 L 781.003 2007 C 781.001 2008.656 782.344 2010 784 2010 L 784 2010 L 790 2010 C 791.656 2010 793 2008.656 793 2007 L 793 2005 L 791.054 2005 Z " id="Fill-B" fill="rgb(117,117,117)"/><path d=" M 796 2000 L 788 2000 L 788 2002 L 796 2002 L 796 2005 L 800 2001 L 800 2001 L 796 1997 L 796 2000 Z " id="Fill-A" fill="rgb(77,77,77)"/></g></svg>