<?xml version="1.0" encoding="UTF-8" standalone="no"?><!-- Generator: Gravit.io --><svg xmlns="http://www.w3.org/2000/svg" xmlns:xlink="http://www.w3.org/1999/xlink" style="isolation:isolate" viewBox="778 865 24 24" width="24" height="24"><g id="flip-ver"><g opacity="0"><rect x="778" y="865" width="24" height="24" transform="matrix(1,0,0,1,0,0)" id="Icon Background" fill="rgb(37,86,132)"/></g><path d=" M 781.006 874 L 800 865 L 800 874 L 781.006 874 Z  M 789.9 872 L 798 868.16 L 798 872 L 789.9 872 Z " fill-rule="evenodd" id="Fill-A" fill="rgb(77,77,77)"/><path d=" M 781.006 879 L 800 888 L 800 879 L 781.006 879 Z  M 794 877 L 793 877 L 793 877 L 793 876 L 794 876 L 794 877 L 794 877 L 794 877 L 794 877 L 794 877 L 794 877 Z  M 802 877 L 801 877 L 801 877 L 801 876 L 802 876 L 802 877 L 802 877 Z  M 800 877 L 799 877 L 799 877 L 799 876 L 800 876 L 800 877 L 800 877 L 800 877 Z  M 790 877 L 789 877 L 789 877 L 789 876 L 790 876 L 790 877 L 790 877 L 790 877 L 790 877 L 790 877 L 790 877 L 790 877 L 790 877 Z  M 798 877 L 797 877 L 797 877 L 797 876 L 798 876 L 798 877 L 798 877 L 798 877 L 798 877 Z  M 796 877 L 795 877 L 795 877 L 795 876 L 796 876 L 796 877 L 796 877 L 796 877 L 796 877 L 796 877 Z  M 792 877 L 791 877 L 791 877 L 791 876 L 792 876 L 792 877 L 792 877 L 792 877 L 792 877 L 792 877 L 792 877 L 792 877 Z  M 788 877 L 787 877 L 787 877 L 787 876 L 788 876 L 788 877 L 788 877 L 788 877 L 788 877 L 788 877 L 788 877 L 788 877 L 788 877 L 788 877 Z  M 786 877 L 785 877 L 785 877 L 785 876 L 786 876 L 786 877 L 786 877 L 786 877 L 786 877 L 786 877 L 786 877 L 786 877 L 786 877 L 786 877 L 786 877 Z  M 784 877 L 783 877 L 783 877 L 783 876 L 784 876 L 784 877 L 784 877 L 784 877 L 784 877 L 784 877 L 784 877 L 784 877 L 784 877 L 784 877 L 784 877 L 784 877 Z  M 782 877 L 781 877 L 781 877 L 781 876 L 782 876 L 782 877 L 782 877 L 782 877 L 782 877 L 782 877 L 782 877 L 782 877 L 782 877 L 782 877 L 782 877 L 782 877 L 782 877 Z  M 780 877 L 779 877 L 779 876 L 780 876 L 780 877 L 780 877 L 780 877 L 780 877 L 780 877 L 780 877 L 780 877 L 780 877 L 780 877 L 780 877 L 780 877 L 780 877 L 780 877 Z " fill-rule="evenodd" id="Fill-B" fill="rgb(117,117,117)"/></g></svg>