<?xml version="1.0" encoding="UTF-8" standalone="no"?><!-- Generator: Gravit.io --><svg xmlns="http://www.w3.org/2000/svg" xmlns:xlink="http://www.w3.org/1999/xlink" style="isolation:isolate" viewBox="778 799 24 24" width="24" height="24"><g id="flip-hor"><g opacity="0"><rect x="778" y="799" width="24" height="24" transform="matrix(1,0,0,1,0,0)" id="Icon Background" fill="rgb(37,86,132)"/></g><path d=" M 792 802.006 L 801 821 L 792 821 L 792 802.006 Z  M 794 810.9 L 797.84 819 L 794 819 L 794 810.9 Z " fill-rule="evenodd" id="Fill-A" fill="rgb(77,77,77)"/><path d=" M 787 802.006 L 778 821 L 787 821 L 787 802.006 Z  M 789 815 L 789 814 L 789 814 L 790 814 L 790 815 L 789 815 L 789 815 L 789 815 L 789 815 L 789 815 L 789 815 Z  M 789 823 L 789 822 L 789 822 L 790 822 L 790 823 L 789 823 L 789 823 Z  M 789 821 L 789 820 L 789 820 L 790 820 L 790 821 L 789 821 L 789 821 L 789 821 Z  M 789 811 L 789 810 L 789 810 L 790 810 L 790 811 L 789 811 L 789 811 L 789 811 L 789 811 L 789 811 L 789 811 L 789 811 L 789 811 Z  M 789 819 L 789 818 L 789 818 L 790 818 L 790 819 L 789 819 L 789 819 L 789 819 L 789 819 Z  M 789 817 L 789 816 L 789 816 L 790 816 L 790 817 L 789 817 L 789 817 L 789 817 L 789 817 L 789 817 Z  M 789 813 L 789 812 L 789 812 L 790 812 L 790 813 L 789 813 L 789 813 L 789 813 L 789 813 L 789 813 L 789 813 L 789 813 Z  M 789 809 L 789 808 L 789 808 L 790 808 L 790 809 L 789 809 L 789 809 L 789 809 L 789 809 L 789 809 L 789 809 L 789 809 L 789 809 L 789 809 Z  M 789 807 L 789 806 L 789 806 L 790 806 L 790 807 L 789 807 L 789 807 L 789 807 L 789 807 L 789 807 L 789 807 L 789 807 L 789 807 L 789 807 L 789 807 Z  M 789 805 L 789 804 L 789 804 L 790 804 L 790 805 L 789 805 L 789 805 L 789 805 L 789 805 L 789 805 L 789 805 L 789 805 L 789 805 L 789 805 L 789 805 L 789 805 Z  M 789 803 L 789 802 L 789 802 L 790 802 L 790 803 L 789 803 L 789 803 L 789 803 L 789 803 L 789 803 L 789 803 L 789 803 L 789 803 L 789 803 L 789 803 L 789 803 L 789 803 Z  M 789 801 L 789 800 L 790 800 L 790 801 L 789 801 L 789 801 L 789 801 L 789 801 L 789 801 L 789 801 L 789 801 L 789 801 L 789 801 L 789 801 L 789 801 L 789 801 L 789 801 Z " fill-rule="evenodd" id="Fill-B" fill="rgb(117,117,117)"/></g></svg>