<?xml version="1.0" encoding="UTF-8" standalone="no"?><!-- Generator: Gravit.io --><svg xmlns="http://www.w3.org/2000/svg" xmlns:xlink="http://www.w3.org/1999/xlink" style="isolation:isolate" viewBox="1150 2517 24 24" width="24" height="24"><g id="folder-close-small"><g opacity="0"><rect x="1150" y="2517" width="24" height="24" transform="matrix(1,0,0,1,0,0)" id="Icon Background" fill="rgb(37,86,132)"/></g><path d=" M 1165 2525 L 1169 2525 C 1169.552 2525 1170 2525.448 1170 2526 L 1170 2534 C 1170 2534.552 1169.552 2535 1169 2535 L 1155 2535 C 1154.448 2535 1154 2534.552 1154 2534 L 1154 2525 L 1162.399 2525 L 1165 2525 Z  M 1160.799 2524 L 1160.112 2522.857 C 1159.828 2522.384 1159.149 2522 1158.598 2522 L 1155 2522 C 1154.448 2522 1154 2522.448 1154 2523 L 1154 2524 L 1160.799 2524 Z " fill-rule="evenodd" id="Fill-B" fill="rgb(117,117,117)"/></g></svg>