<?xml version="1.0" encoding="UTF-8" standalone="no"?><!-- Generator: Gravit.io --><svg xmlns="http://www.w3.org/2000/svg" xmlns:xlink="http://www.w3.org/1999/xlink" style="isolation:isolate" viewBox="445 1127 24 24" width="24" height="24"><g id="freehand-shaping"><g opacity="0"><rect x="445" y="1127" width="24" height="24" transform="matrix(1,0,0,1,0,0)" id="Icon Background" fill="rgb(37,86,132)"/></g><path d=" M 467.669 1145.182 L 467.669 1145.182 C 467.394 1145.158 467.191 1144.915 467.215 1144.64 L 467.215 1144.64 C 467.239 1144.365 467.482 1144.161 467.756 1144.186 L 467.756 1144.186 C 468.031 1144.21 468.235 1144.452 468.211 1144.727 L 468.211 1144.727 C 468.187 1145.002 467.944 1145.206 467.669 1145.182 L 467.669 1145.182 L 467.669 1145.182 Z  M 468.184 1142.18 L 468.184 1142.18 C 468.456 1142.132 468.715 1142.314 468.763 1142.585 L 468.763 1142.585 C 468.811 1142.857 468.629 1143.117 468.357 1143.165 L 468.357 1143.165 C 468.086 1143.213 467.826 1143.031 467.778 1142.759 L 467.778 1142.759 C 467.73 1142.487 467.912 1142.228 468.184 1142.18 L 468.184 1142.18 L 468.184 1142.18 L 468.184 1142.18 L 468.184 1142.18 L 468.184 1142.18 L 468.184 1142.18 L 468.184 1142.18 Z  M 467.445 1138.181 L 467.445 1138.181 C 467.656 1138.004 467.972 1138.031 468.149 1138.243 L 468.149 1138.243 C 468.327 1138.454 468.299 1138.77 468.088 1138.947 L 468.088 1138.947 C 467.876 1139.125 467.561 1139.097 467.383 1138.885 L 467.383 1138.885 C 467.206 1138.674 467.233 1138.359 467.445 1138.181 L 467.445 1138.181 L 467.445 1138.181 L 467.445 1138.181 L 467.445 1138.181 L 467.445 1138.181 L 467.445 1138.181 Z  M 466.329 1136.461 L 466.329 1136.461 C 466.487 1136.234 466.799 1136.18 467.025 1136.338 L 467.025 1136.338 C 467.251 1136.496 467.306 1136.808 467.148 1137.034 L 467.148 1137.034 C 466.99 1137.26 466.678 1137.315 466.452 1137.157 L 466.452 1137.157 C 466.226 1136.999 466.171 1136.687 466.329 1136.461 L 466.329 1136.461 L 466.329 1136.461 L 466.329 1136.461 L 466.329 1136.461 L 466.329 1136.461 Z  M 464.806 1135.088 L 464.806 1135.088 C 464.9 1134.828 465.187 1134.694 465.446 1134.789 L 465.446 1134.789 C 465.706 1134.883 465.84 1135.17 465.745 1135.43 L 465.745 1135.43 C 465.651 1135.689 465.364 1135.823 465.104 1135.728 L 465.104 1135.728 C 464.845 1135.634 464.711 1135.347 464.806 1135.088 L 464.806 1135.088 L 464.806 1135.088 L 464.806 1135.088 L 464.806 1135.088 Z  M 466.482 1146.952 L 466.482 1146.952 C 466.223 1146.858 466.089 1146.57 466.184 1146.311 L 466.184 1146.311 C 466.278 1146.052 466.565 1145.918 466.824 1146.012 L 466.824 1146.012 C 467.084 1146.107 467.218 1146.394 467.123 1146.653 L 467.123 1146.653 C 467.029 1146.912 466.742 1147.046 466.482 1146.952 L 466.482 1146.952 L 466.482 1146.952 L 466.482 1146.952 Z  M 468.078 1140.132 L 468.078 1140.132 C 468.328 1140.015 468.625 1140.124 468.742 1140.374 L 468.742 1140.374 C 468.859 1140.624 468.75 1140.922 468.5 1141.038 L 468.5 1141.038 C 468.25 1141.155 467.952 1141.046 467.836 1140.796 L 467.836 1140.796 C 467.719 1140.546 467.827 1140.248 468.078 1140.132 L 468.078 1140.132 L 468.078 1140.132 L 468.078 1140.132 L 468.078 1140.132 L 468.078 1140.132 L 468.078 1140.132 L 468.078 1140.132 Z  M 449.011 1137.667 L 449.011 1137.667 C 449.068 1137.397 449.334 1137.224 449.604 1137.282 L 449.604 1137.282 C 449.874 1137.339 450.047 1137.605 449.989 1137.875 L 449.989 1137.875 C 449.932 1138.145 449.666 1138.317 449.396 1138.26 L 449.396 1138.26 C 449.126 1138.202 448.954 1137.937 449.011 1137.667 L 449.011 1137.667 L 449.011 1137.667 L 449.011 1137.667 L 449.011 1137.667 L 449.011 1137.667 L 449.011 1137.667 Z  M 450.929 1138.596 L 450.929 1138.596 C 450.915 1138.32 451.127 1138.085 451.402 1138.07 L 451.402 1138.07 C 451.678 1138.056 451.913 1138.268 451.928 1138.543 L 451.928 1138.543 C 451.942 1138.819 451.73 1139.054 451.455 1139.069 L 451.455 1139.069 C 451.179 1139.083 450.944 1138.871 450.929 1138.596 L 450.929 1138.596 L 450.929 1138.596 L 450.929 1138.596 L 450.929 1138.596 L 450.929 1138.596 L 450.929 1138.596 Z  M 453.022 1138.996 L 453.022 1138.996 C 452.937 1138.734 453.081 1138.452 453.344 1138.366 L 453.344 1138.366 C 453.606 1138.281 453.888 1138.425 453.974 1138.688 L 453.974 1138.688 C 454.059 1138.95 453.915 1139.232 453.653 1139.318 L 453.653 1139.318 C 453.39 1139.403 453.108 1139.259 453.022 1138.996 L 453.022 1138.996 L 453.022 1138.996 L 453.022 1138.996 L 453.022 1138.996 L 453.022 1138.996 Z  M 455.148 1138.842 L 455.148 1138.842 C 454.998 1138.61 455.064 1138.301 455.295 1138.15 L 455.295 1138.15 C 455.527 1138 455.837 1138.066 455.987 1138.297 L 455.987 1138.297 C 456.137 1138.529 456.071 1138.839 455.84 1138.989 L 455.84 1138.989 C 455.608 1139.139 455.298 1139.073 455.148 1138.842 L 455.148 1138.842 L 455.148 1138.842 L 455.148 1138.842 L 455.148 1138.842 Z  M 457.161 1138.142 L 457.161 1138.142 C 456.956 1137.958 456.94 1137.641 457.124 1137.436 L 457.124 1137.436 C 457.309 1137.231 457.625 1137.214 457.831 1137.399 L 457.831 1137.399 C 458.036 1137.584 458.052 1137.9 457.868 1138.105 L 457.868 1138.105 C 457.683 1138.31 457.366 1138.327 457.161 1138.142 L 457.161 1138.142 L 457.161 1138.142 L 457.161 1138.142 Z  M 458.925 1136.946 L 458.925 1136.946 C 458.679 1136.82 458.581 1136.519 458.706 1136.273 L 458.706 1136.273 C 458.832 1136.027 459.133 1135.929 459.379 1136.055 L 459.379 1136.055 C 459.625 1136.18 459.723 1136.481 459.597 1136.727 L 459.597 1136.727 C 459.472 1136.973 459.171 1137.071 458.925 1136.946 L 458.925 1136.946 L 458.925 1136.946 Z  M 458.11 1131.97 L 460 1131.97 L 460 1139.05 C 460 1139.35 460.13 1139.63 460.37 1139.82 C 460.6 1140.01 460.9 1140.09 461.2 1140.03 C 461.3 1140.01 461.4 1140 461.5 1140 C 461.9 1140 462.28 1140.16 462.56 1140.44 C 462.84 1140.72 463 1141.1 463 1141.5 C 463 1141.9 462.84 1142.28 462.56 1142.56 C 462.28 1142.84 461.9 1143 461.5 1143 L 461.5 1143 L 461.5 1143 L 461.5 1143 C 461.4 1143 461.3 1142.99 461.2 1142.97 C 460.9 1142.91 460.6 1142.99 460.37 1143.18 C 460.13 1143.37 460 1143.65 460 1143.95 L 460 1145 L 459.34 1145 C 459.17 1144.71 459 1144.42 458.81 1144.13 C 458.55 1143.72 458.23 1143.33 457.88 1142.99 C 457.52 1142.65 457.09 1142.38 456.63 1142.2 C 456.13 1142.02 455.61 1141.93 455.09 1141.94 L 455.01 1141.94 C 454.5 1141.94 453.98 1142.03 453.49 1142.21 C 453.03 1142.39 452.6 1142.65 452.24 1142.99 C 451.88 1143.33 451.57 1143.72 451.31 1144.14 C 451.13 1144.42 450.97 1144.71 450.81 1145 L 448 1145 L 448 1131.97 L 448.65 1131.97 C 448.84 1132.38 449.04 1132.79 449.26 1133.19 C 449.53 1133.7 449.87 1134.18 450.25 1134.61 C 450.63 1135.03 451.08 1135.36 451.59 1135.58 C 452.12 1135.8 452.68 1135.91 453.25 1135.9 C 453.51 1135.9 453.76 1135.88 454.02 1135.85 C 454.56 1135.79 455.08 1135.63 455.56 1135.38 C 456 1135.14 456.39 1134.81 456.71 1134.42 C 457.02 1134.05 457.28 1133.64 457.51 1133.2 C 457.72 1132.8 457.92 1132.38 458.11 1131.97 L 458.11 1131.97 Z  M 462 1138.04 C 462.83 1138.16 463.59 1138.57 464.15 1139.21 C 464.7 1139.84 465 1140.66 465 1141.5 C 465 1142.34 464.7 1143.16 464.15 1143.79 C 463.59 1144.43 462.83 1144.84 462 1144.96 L 462 1147 L 458.75 1147 C 458.38 1147 458.04 1146.79 457.86 1146.47 C 457.64 1146.04 457.4 1145.62 457.13 1145.22 C 456.95 1144.93 456.74 1144.67 456.5 1144.44 C 456.33 1144.28 456.13 1144.16 455.92 1144.07 C 455.66 1143.98 455.39 1143.94 455.12 1143.94 C 455.12 1143.94 455.11 1143.94 455.11 1143.94 L 455.03 1143.94 C 455.03 1143.94 455.02 1143.94 455.02 1143.94 C 454.74 1143.94 454.46 1143.99 454.19 1144.08 C 453.98 1144.17 453.78 1144.29 453.61 1144.45 C 453.38 1144.67 453.18 1144.92 453.01 1145.2 C 452.76 1145.6 452.53 1146.01 452.32 1146.43 C 452.16 1146.78 451.81 1147 451.42 1147 L 446 1147 L 446 1129.97 L 449.3 1129.97 C 449.7 1129.97 450.06 1130.21 450.22 1130.58 C 450.46 1131.15 450.73 1131.7 451.02 1132.24 C 451.22 1132.61 451.46 1132.96 451.74 1133.27 C 451.92 1133.47 452.14 1133.63 452.39 1133.75 C 452.65 1133.85 452.94 1133.91 453.23 1133.9 C 453.41 1133.9 453.6 1133.89 453.78 1133.86 C 454.07 1133.83 454.35 1133.75 454.62 1133.62 C 454.83 1133.5 455.01 1133.34 455.16 1133.16 C 455.38 1132.89 455.57 1132.6 455.73 1132.29 C 455.95 1131.85 456.17 1131.41 456.37 1130.97 C 456.37 1130.96 456.37 1130.96 456.37 1130.95 L 456.83 1129.97 L 462 1129.97 L 462 1138.04 L 462 1138.04 Z " fill-rule="evenodd" id="Fill-B" fill="rgb(117,117,117)"/></g></svg>