<?xml version="1.0" encoding="UTF-8" standalone="no"?><!-- Generator: Gravit.io --><svg xmlns="http://www.w3.org/2000/svg" xmlns:xlink="http://www.w3.org/1999/xlink" style="isolation:isolate" viewBox="1545 1989 24 24" width="24" height="24"><g id="fullscreen"><g opacity="0"><rect x="1545" y="1989" width="24" height="24" transform="matrix(1,0,0,1,0,0)" id="Icon Background" fill="rgb(37,86,132)"/></g><path d=" M 1548 2002 L 1548 1997 C 1548 1995.67 1548.53 1994.4 1549.46 1993.46 C 1550.4 1992.53 1551.67 1992 1553 1992 L 1553 1992 L 1558 1992 L 1558 1994 L 1553 1994 L 1553 1994 C 1552.2 1994 1551.44 1994.32 1550.88 1994.88 C 1550.32 1995.44 1550 1996.2 1550 1997 L 1550 2002 L 1548 2002 Z  M 1556 2010 L 1561 2010 C 1562.33 2010 1563.6 2009.47 1564.54 2008.54 C 1565.47 2007.6 1566 2006.33 1566 2005 L 1566 2000 L 1566 2000 L 1564 2000 L 1564 2005 C 1564 2005.8 1563.68 2006.56 1563.12 2007.12 C 1562.56 2007.68 1561.8 2008 1561 2008 L 1556 2008 L 1556 2010 L 1556 2010 Z " fill-rule="evenodd" id="Fill-B" fill="rgb(117,117,117)"/><path d=" M 1566 1993.309 L 1549.309 2010 L 1553 2010 L 1553 2012 L 1553 2012 L 1546 2012 L 1546 2005 L 1548 2005 L 1548 2008.48 L 1564.48 1992 L 1561 1992 L 1561 1990 L 1568 1990 L 1568 1997 L 1568 1997 L 1568 1997 L 1566 1997 L 1566 1993.309 Z " id="Fill-A" fill="rgb(77,77,77)"/></g></svg>