<?xml version="1.0" encoding="UTF-8" standalone="no"?><!-- Generator: Gravit.io --><svg xmlns="http://www.w3.org/2000/svg" xmlns:xlink="http://www.w3.org/1999/xlink" style="isolation:isolate" viewBox="2731 106 36 30.002" width="36pt" height="30.002pt"><g id="Gravit Hamburger"><path d=" M 2758.859 122.002 C 2758.952 121.349 2759 120.683 2759 120.005 C 2759 112.268 2752.734 106 2745.001 106 C 2737.271 106 2731.002 112.271 2731.002 120.005 C 2731.002 127.735 2737.268 134.003 2745.001 134.003 C 2745.68 134.003 2746.347 133.955 2747 133.862 L 2747 122.002 L 2758.859 122.002 Z " fill-rule="evenodd" id="Compound Shape" fill="rgb(255,241,1)"/><path d=" M 2740.178 110.361 C 2737.123 113.783 2734.068 117.205 2731.014 120.627 C 2731.09 122.347 2731.474 123.986 2732.116 125.49 C 2736.131 119.274 2740.147 113.058 2744.163 106.843 C 2742.835 108.016 2741.506 109.19 2740.178 110.358" fill-rule="evenodd" id="Path" fill="rgb(207,220,94)"/><path d=" M 2731.096 118.38 C 2731.035 118.913 2731 119.453 2731 120.002 C 2731 120.211 2731.006 120.419 2731.016 120.627 C 2734.069 117.205 2737.125 113.783 2740.18 110.361 C 2737.152 113.034 2734.124 115.708 2731.096 118.38 Z " fill-rule="evenodd" id="Path" fill="rgb(136,160,62)"/><path d=" M 2731.121 118.189 C 2735.194 114.159 2739.262 110.131 2743.336 106.102 C 2736.985 106.855 2731.94 111.858 2731.121 118.189 Z " fill-rule="evenodd" id="Path" fill="rgb(207,220,94)"/><path d=" M 2743.308 106.102 C 2739.234 110.131 2735.179 114.159 2731.107 118.189 C 2731.099 118.253 2731.097 118.316 2731.089 118.38 C 2734.117 115.708 2737.149 113.034 2740.176 110.361 C 2741.504 109.187 2742.835 108.013 2744.163 106.845 C 2740.148 113.06 2736.132 119.276 2732.117 125.493 C 2732.117 125.494 2732.119 125.496 2732.119 125.497 C 2732.233 125.764 2732.358 126.025 2732.488 126.283 C 2732.515 126.338 2732.543 126.392 2732.571 126.445 C 2732.698 126.69 2732.83 126.932 2732.972 127.168 C 2732.98 127.181 2732.987 127.195 2732.994 127.209 C 2733.148 127.463 2733.31 127.712 2733.479 127.957 C 2733.506 127.995 2733.535 128.034 2733.562 128.072 C 2733.711 128.284 2733.867 128.492 2734.028 128.695 C 2734.054 128.728 2734.08 128.761 2734.106 128.794 C 2734.295 129.027 2734.49 129.256 2734.693 129.477 C 2734.698 129.482 2734.702 129.487 2734.707 129.492 C 2734.902 129.704 2735.106 129.908 2735.313 130.107 C 2735.344 130.137 2735.376 130.168 2735.408 130.198 C 2735.846 130.61 2736.309 130.994 2736.797 131.347 C 2736.82 131.364 2736.844 131.38 2736.867 131.397 C 2737.11 131.57 2737.357 131.737 2737.611 131.895 C 2737.614 131.897 2737.616 131.899 2737.618 131.9 C 2738.151 132.231 2738.708 132.527 2739.285 132.785 C 2739.298 132.791 2739.311 132.797 2739.324 132.802 C 2739.901 133.059 2740.498 133.277 2741.115 133.454 C 2741.123 133.457 2741.132 133.459 2741.14 133.462 C 2742.074 133.729 2743.047 133.902 2744.052 133.969 C 2744.09 125.92 2746.862 115.868 2751.127 107.41 C 2749.277 106.508 2747.172 106.002 2744.975 106.002 C 2744.641 106.002 2743.601 106.053 2743.31 106.104" fill-rule="evenodd" id="Path" fill="rgb(217,25,99)"/><rect x="2751" y="130.002" width="16" height="2" transform="matrix(1,0,0,1,0,0)" id="Rectangle" fill="rgb(77,77,77)"/><rect x="2751" y="126.002" width="16" height="2" transform="matrix(1,0,0,1,0,0)" id="Rectangle" fill="rgb(77,77,77)"/><rect x="2751" y="134.002" width="16" height="2" transform="matrix(1,0,0,1,0,0)" id="Rectangle" fill="rgb(77,77,77)"/></g></svg>