<?xml version="1.0" encoding="UTF-8" standalone="no"?><!-- Generator: Gravit.io --><svg xmlns="http://www.w3.org/2000/svg" xmlns:xlink="http://www.w3.org/1999/xlink" style="isolation:isolate" viewBox="1978 733 24 24" width="24" height="24"><g id="group-as-mask"><g opacity="0"><rect x="1978" y="733" width="24" height="24" transform="matrix(1,0,0,1,0,0)" id="Icon Background" fill="rgb(37,86,132)"/></g><path d=" M 1994.606 754.26 L 1996.013 755 L 1995.691 753.124 C 1995.303 753.427 1994.974 753.848 1994.606 754.26 Z  M 1987.319 752.738 L 1983.016 755 L 1984.257 747.764 L 1979 742.639 L 1986.265 741.584 L 1989.515 735 L 1992.764 741.584 L 2000.029 742.639 L 1995.109 747.436 C 1994.041 747.083 1992.938 746.6 1991.783 746.6 C 1989.963 746.6 1985.959 748.238 1985.959 748.655 C 1985.959 748.881 1986.278 750.916 1987.319 752.738 Z " fill-rule="evenodd" id="Fill-B" fill="rgb(117,117,117)"/><path d=" M 1990.147 750.604 C 1990.645 750.236 1991.435 750.218 1991.791 750.218 C 1992.147 750.218 1992.942 750.803 1993.332 751.307 C 1992.696 751.767 1990.919 752.331 1990.147 750.604 L 1990.147 750.604 Z  M 1994.827 752.085 C 1994.808 752.086 1994.789 752.087 1994.77 752.087 C 1993.531 752.087 1993.447 753.884 1991.688 753.884 C 1988.85 753.884 1988.196 749.923 1988.196 749.673 C 1988.196 749.422 1990.597 748.44 1991.688 748.44 C 1992.78 748.44 1993.794 749.159 1994.77 749.159 C 1994.789 749.159 1994.808 749.16 1994.827 749.163 C 1994.846 749.16 1994.865 749.159 1994.884 749.159 C 1995.86 749.159 1996.875 748.44 1997.966 748.44 C 1999.058 748.44 2001.459 749.422 2001.459 749.673 C 2001.459 749.923 2000.804 753.884 1997.966 753.884 C 1996.207 753.884 1996.124 752.087 1994.884 752.087 C 1994.865 752.087 1994.846 752.086 1994.827 752.085 L 1994.827 752.085 Z  M 1999.507 750.604 C 1999.009 750.236 1998.22 750.218 1997.863 750.218 C 1997.507 750.218 1996.713 750.803 1996.323 751.307 C 1996.958 751.767 1998.735 752.331 1999.507 750.604 Z " fill-rule="evenodd" id="Fill-A" fill="rgb(77,77,77)"/></g></svg>