<?xml version="1.0" encoding="UTF-8" standalone="no"?><!-- Generator: Gravit.io --><svg xmlns="http://www.w3.org/2000/svg" xmlns:xlink="http://www.w3.org/1999/xlink" style="isolation:isolate" viewBox="1150 3819 24 24" width="24" height="24"><g id="hide-small"><g opacity="0"><rect x="1150" y="3819" width="24" height="24" transform="matrix(1,0,0,1,0,0)" id="Icon Background" fill="rgb(37,86,132)"/></g><path d=" M 1154.237 3829.979 Q 1154.071 3829.745 1153.907 3829.5 Q 1154.075 3829.239 1154.246 3828.991 Q 1157.807 3834 1162.407 3834 Q 1167.007 3834 1170.568 3828.991 Q 1170.739 3829.239 1170.907 3829.5 Q 1170.56 3830.02 1170.202 3830.49 L 1173.284 3833.242 L 1173.096 3833.51 L 1169.371 3831.501 Q 1168.795 3832.147 1168.194 3832.674 L 1170.273 3836.38 L 1170.008 3836.573 L 1167.156 3833.483 Q 1166.428 3833.981 1165.667 3834.315 L 1166.407 3838.37 L 1166.094 3838.467 L 1164.452 3834.739 Q 1163.601 3834.962 1162.709 3834.995 L 1162.103 3838.997 L 1161.776 3838.987 L 1161.435 3834.943 Q 1160.564 3834.839 1159.732 3834.546 L 1157.829 3838.193 L 1157.524 3838.077 L 1158.544 3834.022 Q 1157.829 3833.639 1157.144 3833.107 L 1154.048 3836.045 L 1153.797 3835.835 L 1156.143 3832.233 Q 1155.576 3831.682 1155.032 3831.021 L 1151.17 3832.785 L 1151 3832.505 L 1154.237 3829.979 Z " id="Fill-B" fill="rgb(117,117,117)"/></g></svg>