<?xml version="1.0" encoding="UTF-8" standalone="no"?><!-- Generator: Gravit.io --><svg xmlns="http://www.w3.org/2000/svg" xmlns:xlink="http://www.w3.org/1999/xlink" style="isolation:isolate" viewBox="1505 1087 24 24" width="24" height="24"><g id="hide-big"><g opacity="0"><rect x="1505" y="1087" width="24" height="24" transform="matrix(1,0,0,1,0,0)" id="Icon Background" fill="rgb(37,86,132)"/></g><path d=" M 1522.224 1106.376 L 1521.384 1106.861 L 1520.444 1105.234 L 1520.444 1105.234 Q 1518.785 1105.84 1517 1105.84 Q 1511.005 1105.84 1506.429 1099 L 1506.429 1099 Q 1509.444 1094.315 1513.288 1092.839 L 1512.884 1092.139 L 1513.724 1091.654 L 1522.224 1106.376 Z  M 1522.229 1104.385 Q 1525.106 1102.685 1527.571 1099 Q 1523.17 1092.16 1517 1092.16 Q 1516.108 1092.16 1515.253 1092.303 L 1516.616 1094.664 C 1516.743 1094.653 1516.871 1094.647 1517 1094.647 C 1519.402 1094.647 1521.353 1096.598 1521.353 1099 C 1521.353 1099.93 1521.061 1100.792 1520.563 1101.5 L 1520.563 1101.5 L 1522.229 1104.385 Z  M 1519.059 1102.835 L 1517.882 1100.795 C 1517.616 1100.926 1517.316 1101 1517 1101 C 1515.896 1101 1515 1100.104 1515 1099 C 1515 1098.308 1515.352 1097.698 1515.886 1097.339 L 1514.709 1095.299 C 1513.472 1096.067 1512.647 1097.438 1512.647 1099 L 1512.647 1099 C 1512.647 1101.402 1514.598 1103.353 1517 1103.353 C 1517.745 1103.353 1518.446 1103.165 1519.059 1102.835 L 1519.059 1102.835 Z " fill-rule="evenodd" id="Compound Path" fill="rgb(117,117,117)"/></g></svg>