<?xml version="1.0" encoding="UTF-8" standalone="no"?><!-- Generator: Gravit.io --><svg xmlns="http://www.w3.org/2000/svg" xmlns:xlink="http://www.w3.org/1999/xlink" style="isolation:isolate" viewBox="1978 1453 24 24" width="24" height="24"><g id="joints-asymethric"><g opacity="0"><rect x="1978" y="1453" width="24" height="24" transform="matrix(1,0,0,1,0,0)" id="Icon Background" fill="rgb(37,86,132)"/></g><path d=" M 1988 1459 L 1988 1459 C 1989.656 1459 1991 1460.344 1991 1462 L 1991 1462 C 1991 1463.656 1989.656 1465 1988 1465 L 1988 1465 C 1986.344 1465 1985 1463.656 1985 1462 L 1985 1462 C 1985 1460.344 1986.344 1459 1988 1459 Z " id="Fill-A" fill="rgb(77,77,77)"/><path d=" M 1984 1461.969 C 1984 1461.969 1984.001 1461.969 1984.001 1461.969 L 1984.001 1461.969 L 1984.001 1461.969 L 1984.001 1461.969 L 1984.001 1461.969 L 1984.001 1461.969 L 1984.001 1461.969 C 1984 1461.979 1984 1461.99 1984 1462 C 1984 1462 1984 1462 1984 1462 L 1984 1462 C 1984 1462.728 1984.195 1463.41 1984.537 1463.997 C 1984.042 1464.387 1983.617 1464.869 1983.3 1465.42 C 1982.81 1466.31 1982.47 1467.28 1982.3 1468.28 C 1982.09 1469.5 1981.99 1470.74 1982 1471.99 L 1980 1472.01 C 1979.98 1470.65 1980.1 1469.28 1980.33 1467.94 C 1980.54 1466.71 1980.95 1465.53 1981.56 1464.44 C 1982.131 1463.431 1982.956 1462.594 1983.949 1462 L 1983 1462 L 1983 1461 L 1984 1461 L 1984 1461.969 Z  M 1992 1461.616 C 1991.996 1461.615 1991.991 1461.613 1991.987 1461.612 L 1991.987 1461.612 L 1991.987 1461.612 C 1991.994 1461.741 1992 1461.87 1992 1462 C 1992 1462 1992 1462 1992 1462 L 1992 1462 C 1992 1462.573 1991.879 1463.118 1991.651 1463.605 C 1991.779 1463.642 1991.905 1463.685 1992.03 1463.73 C 1993.44 1464.21 1994.78 1464.89 1996 1465.75 C 1997.15 1466.53 1998.14 1467.53 1998.92 1468.67 C 1999.6 1469.66 1999.98 1470.82 2000 1472.02 L 2002 1471.98 C 2001.97 1470.39 2001.47 1468.85 2000.57 1467.54 C 1999.65 1466.2 1998.49 1465.03 1997.14 1464.11 C 1995.86 1463.213 1994.466 1462.482 1993 1461.949 L 1993 1461 L 1992 1461 L 1992 1461.616 L 1992 1461.616 L 1992 1461.616 L 1992 1461.616 L 1992 1461.616 Z  M 1999 1461 L 2000 1461 L 2000 1462 L 1999 1462 L 1999 1461 L 1999 1461 L 1999 1461 L 1999 1461 L 1999 1461 L 1999 1461 L 1999 1461 Z  M 1994 1461 L 1995 1461 L 1995 1462 L 1994 1462 L 1994 1461 L 1994 1461 L 1994 1461 L 1994 1461 Z  M 1996 1461 L 1997 1461 L 1997 1462 L 1996 1462 L 1996 1461 L 1996 1461 L 1996 1461 Z  M 1981 1461 L 1980 1461 L 1980 1462 L 1981 1462 L 1981 1461 L 1981 1461 L 1981 1461 Z  M 1998 1460 L 2001 1460 L 2001 1463 L 1998 1463 L 1998 1460 L 1998 1460 L 1998 1460 L 1998 1460 L 1998 1460 L 1998 1460 L 1998 1460 Z  M 1982 1460 L 1979 1460 L 1979 1463 L 1982 1463 L 1982 1460 L 1982 1460 L 1982 1460 Z " fill-rule="evenodd" id="Fill-B" fill="rgb(117,117,117)"/></g></svg>