<?xml version="1.0" encoding="UTF-8" standalone="no"?><!-- Generator: Gravit.io --><svg xmlns="http://www.w3.org/2000/svg" xmlns:xlink="http://www.w3.org/1999/xlink" style="isolation:isolate" viewBox="1978 1791 24 24" width="24" height="24"><g id="joint-bevel"><g opacity="0"><rect x="1978" y="1791" width="24" height="24" transform="matrix(1,0,0,1,0,0)" id="Icon Background" fill="rgb(37,86,132)"/></g><path d=" M 1988 1812 L 1980 1812 L 1980 1803 L 1990 1793 L 1999 1793 L 1999 1801 L 1992.661 1801 C 1992.49 1800.642 1992.258 1800.313 1991.97 1800.03 C 1991.32 1799.37 1990.43 1799 1989.5 1799 C 1988.57 1799 1987.68 1799.37 1987.03 1800.03 C 1986.37 1800.68 1986 1801.57 1986 1802.5 C 1986 1803.43 1986.37 1804.32 1987.03 1804.97 C 1987.313 1805.258 1987.642 1805.49 1988 1805.661 L 1988 1812 Z  M 1991 1812 L 1999 1812 L 1999 1804 L 1992.661 1804 C 1992.49 1804.358 1992.258 1804.687 1991.97 1804.97 C 1991.687 1805.258 1991.358 1805.49 1991 1805.661 L 1991 1812 Z " fill-rule="evenodd" id="Fill-B" fill="rgb(117,117,117)"/><path d=" M 1989.5 1800 L 1989.5 1800 C 1988.12 1800 1987 1801.12 1987 1802.5 L 1987 1802.5 C 1987 1803.88 1988.12 1805 1989.5 1805 L 1989.5 1805 C 1990.88 1805 1992 1803.88 1992 1802.5 L 1992 1802.5 C 1992 1801.12 1990.88 1800 1989.5 1800 Z  M 1992.964 1802 L 1999 1802 L 1999 1803 L 1992.964 1803 C 1992.988 1802.837 1993 1802.67 1993 1802.5 L 1993 1802.5 C 1993 1802.33 1992.988 1802.163 1992.964 1802 L 1992.964 1802 Z  M 1990 1805.964 L 1990 1812 L 1989 1812 L 1989 1805.964 C 1989.163 1805.988 1989.33 1806 1989.5 1806 L 1989.5 1806 C 1989.67 1806 1989.837 1805.988 1990 1805.964 L 1990 1805.964 Z " fill-rule="evenodd" id="Fill-A" fill="rgb(77,77,77)"/></g></svg>