<?xml version="1.0" encoding="UTF-8" standalone="no"?><!-- Generator: Gravit.io --><svg xmlns="http://www.w3.org/2000/svg" xmlns:xlink="http://www.w3.org/1999/xlink" style="isolation:isolate" viewBox="1978 1923 24 24" width="24" height="24"><g id="joint-round"><g opacity="0"><rect x="1978" y="1923" width="24" height="24" transform="matrix(1,0,0,1,0,0)" id="Icon Background" fill="rgb(37,86,132)"/></g><path d=" M 1988 1944 L 1980 1944 L 1980 1935 C 1980 1929.481 1984.481 1925 1990 1925 L 1999 1925 L 1999 1933 L 1992.661 1933 C 1992.49 1932.642 1992.258 1932.313 1991.97 1932.03 C 1991.32 1931.37 1990.43 1931 1989.5 1931 C 1988.57 1931 1987.68 1931.37 1987.03 1932.03 C 1986.37 1932.68 1986 1933.57 1986 1934.5 C 1986 1935.43 1986.37 1936.32 1987.03 1936.97 C 1987.313 1937.258 1987.642 1937.49 1988 1937.661 L 1988 1944 Z  M 1991 1944 L 1999 1944 L 1999 1936 L 1992.661 1936 C 1992.49 1936.358 1992.258 1936.687 1991.97 1936.97 C 1991.687 1937.258 1991.358 1937.49 1991 1937.661 L 1991 1944 Z " fill-rule="evenodd" id="Fill-B" fill="rgb(117,117,117)"/><path d=" M 1989.5 1932 L 1989.5 1932 C 1988.12 1932 1987 1933.12 1987 1934.5 L 1987 1934.5 C 1987 1935.88 1988.12 1937 1989.5 1937 L 1989.5 1937 C 1990.88 1937 1992 1935.88 1992 1934.5 L 1992 1934.5 C 1992 1933.12 1990.88 1932 1989.5 1932 Z  M 1992.964 1934 L 1999 1934 L 1999 1935 L 1992.964 1935 C 1992.988 1934.837 1993 1934.67 1993 1934.5 L 1993 1934.5 C 1993 1934.33 1992.988 1934.163 1992.964 1934 L 1992.964 1934 Z  M 1990 1937.964 L 1990 1944 L 1989 1944 L 1989 1937.964 C 1989.163 1937.988 1989.33 1938 1989.5 1938 L 1989.5 1938 C 1989.67 1938 1989.837 1937.988 1990 1937.964 L 1990 1937.964 Z " fill-rule="evenodd" id="Fill-A" fill="rgb(77,77,77)"/></g></svg>