<?xml version="1.0" encoding="UTF-8" standalone="no"?><!-- Generator: Gravit.io --><svg xmlns="http://www.w3.org/2000/svg" xmlns:xlink="http://www.w3.org/1999/xlink" style="isolation:isolate" viewBox="2411 727 24 24" width="24" height="24"><g id="join-paths"><g opacity="0"><rect x="2411" y="727" width="24" height="24" transform="matrix(1,0,0,1,0,0)" id="Icon Background" fill="rgb(37,86,132)"/></g><path d=" M 2427 735 L 2432 735 C 2432.8 735 2433.56 735.32 2434.12 735.88 C 2434.68 736.44 2435 737.2 2435 738 L 2435 747 C 2435 747.8 2434.68 748.56 2434.12 749.12 C 2433.56 749.68 2432.8 750 2432 750 L 2423 750 C 2422.2 750 2421.44 749.68 2420.88 749.12 C 2420.32 748.56 2420 747.8 2420 747 L 2420 742 L 2412 742 L 2412 727 L 2427 727 L 2427 735 Z  M 2432 748 L 2423 748 C 2422.73 748 2422.48 747.89 2422.29 747.71 C 2422.11 747.52 2422 747.27 2422 747 L 2422 740 L 2414 740 L 2414 729 L 2425 729 L 2425 737 L 2432 737 C 2432.27 737 2432.52 737.11 2432.71 737.29 C 2432.89 737.48 2433 737.73 2433 738 L 2433 747 C 2433 747.27 2432.89 747.52 2432.71 747.71 C 2432.52 747.89 2432.27 748 2432 748 Z " fill-rule="evenodd" id="Fill-A" fill="rgb(77,77,77)"/><path d=" M 2425 740 L 2429.243 740 L 2425 744.243 L 2425 740 Z  M 2422.243 737.243 L 2422.243 733 L 2418 737.243 L 2422.243 737.243 Z " fill-rule="evenodd" id="Fill-B" fill="rgb(117,117,117)"/></g></svg>