<?xml version="1.0" encoding="UTF-8" standalone="no"?><!-- Generator: Gravit.io --><svg xmlns="http://www.w3.org/2000/svg" xmlns:xlink="http://www.w3.org/1999/xlink" style="isolation:isolate" viewBox="1978 1857 24 24" width="24" height="24"><g id="joint-miter"><g opacity="0"><rect x="1978" y="1857" width="24" height="24" transform="matrix(1,0,0,1,0,0)" id="Icon Background" fill="rgb(37,86,132)"/></g><path d=" M 1988 1878 L 1980 1878 L 1980 1859 L 1999 1859 L 1999 1867 L 1992.661 1867 C 1992.49 1866.642 1992.258 1866.313 1991.97 1866.03 C 1991.32 1865.37 1990.43 1865 1989.5 1865 C 1988.57 1865 1987.68 1865.37 1987.03 1866.03 C 1986.37 1866.68 1986 1867.57 1986 1868.5 C 1986 1869.43 1986.37 1870.32 1987.03 1870.97 C 1987.313 1871.258 1987.642 1871.49 1988 1871.661 L 1988 1878 Z  M 1991 1878 L 1999 1878 L 1999 1870 L 1992.661 1870 C 1992.49 1870.358 1992.258 1870.687 1991.97 1870.97 C 1991.687 1871.258 1991.358 1871.49 1991 1871.661 L 1991 1878 Z " fill-rule="evenodd" id="Fill-B" fill="rgb(117,117,117)"/><path d=" M 1989.5 1866 L 1989.5 1866 C 1988.12 1866 1987 1867.12 1987 1868.5 L 1987 1868.5 C 1987 1869.88 1988.12 1871 1989.5 1871 L 1989.5 1871 C 1990.88 1871 1992 1869.88 1992 1868.5 L 1992 1868.5 C 1992 1867.12 1990.88 1866 1989.5 1866 Z  M 1992.964 1868 L 1999 1868 L 1999 1869 L 1992.964 1869 C 1992.988 1868.837 1993 1868.67 1993 1868.5 L 1993 1868.5 C 1993 1868.33 1992.988 1868.163 1992.964 1868 L 1992.964 1868 Z  M 1990 1871.964 L 1990 1878 L 1989 1878 L 1989 1871.964 C 1989.163 1871.988 1989.33 1872 1989.5 1872 L 1989.5 1872 C 1989.67 1872 1989.837 1871.988 1990 1871.964 L 1990 1871.964 Z " fill-rule="evenodd" id="Fill-A" fill="rgb(77,77,77)"/></g></svg>