<?xml version="1.0" encoding="UTF-8" standalone="no"?><!-- Generator: Gravit.io --><svg xmlns="http://www.w3.org/2000/svg" xmlns:xlink="http://www.w3.org/1999/xlink" style="isolation:isolate" viewBox="1545 2651 24 24" width="24" height="24"><g id="kebab"><g opacity="0"><rect x="1545" y="2651" width="24" height="24" transform="matrix(1,0,0,1,0,0)" id="Icon Background" fill="rgb(37,86,132)"/></g><path d=" M 1555 2657.5 C 1555 2656.672 1555.672 2656 1556.5 2656 C 1557.328 2656 1558 2656.672 1558 2657.5 C 1558 2658.328 1557.328 2659 1556.5 2659 C 1555.672 2659 1555 2658.328 1555 2657.5 L 1555 2657.5 Z  M 1555 2663.5 C 1555 2662.672 1555.672 2662 1556.5 2662 C 1557.328 2662 1558 2662.672 1558 2663.5 C 1558 2664.328 1557.328 2665 1556.5 2665 C 1555.672 2665 1555 2664.328 1555 2663.5 L 1555 2663.5 Z  M 1555 2669.5 C 1555 2668.672 1555.672 2668 1556.5 2668 C 1557.328 2668 1558 2668.672 1558 2669.5 C 1558 2670.328 1557.328 2671 1556.5 2671 C 1555.672 2671 1555 2670.328 1555 2669.5 Z " fill-rule="evenodd" id="Fill-B" fill="rgb(117,117,117)"/></g></svg>