<?xml version="1.0" encoding="UTF-8" standalone="no"?><!-- Generator: Gravit.io --><svg xmlns="http://www.w3.org/2000/svg" xmlns:xlink="http://www.w3.org/1999/xlink" style="isolation:isolate" viewBox="445 263 24 24" width="24" height="24"><g id="lasso"><g opacity="0"><rect x="445" y="263" width="24" height="24" transform="matrix(1,0,0,1,0,0)" id="Icon Background" fill="rgb(37,86,132)"/></g><path d=" M 459.048 273 L 467 281 L 463 281 L 459 284 L 459.048 273 Z " id="Fill-A" fill="rgb(77,77,77)"/><path d=" M 453 279.828 C 452.582 279.679 452.198 279.438 451.88 279.12 C 451.66 278.9 451.477 278.649 451.335 278.378 C 451.053 278.297 450.778 278.192 450.51 278.07 C 449.55 277.63 448.75 276.91 448.21 276 L 448.21 276 C 447.77 275.23 447.54 274.35 447.54 273.46 C 447.55 272.73 447.68 272.01 447.93 271.32 C 448.19 270.6 448.54 269.91 448.98 269.28 C 449.97 267.88 451.26 266.71 452.75 265.87 C 453.63 265.36 454.58 264.96 455.56 264.68 C 456.46 264.42 457.39 264.29 458.33 264.28 C 459.42 264.26 460.5 264.48 461.49 264.93 C 462.45 265.37 463.25 266.09 463.79 267 C 464.23 267.77 464.46 268.65 464.46 269.54 C 464.45 270.27 464.32 270.99 464.07 271.68 C 463.81 272.4 463.46 273.09 463.02 273.72 C 462.841 273.973 462.653 274.218 462.455 274.455 L 462.455 274.455 L 461.032 273.032 C 461.153 272.882 461.269 272.728 461.38 272.57 C 461.72 272.09 461.99 271.56 462.19 271 C 462.36 270.53 462.45 270.03 462.46 269.53 C 462.46 268.99 462.32 268.47 462.06 268 C 461.73 267.45 461.25 267.02 460.66 266.75 C 459.94 266.43 459.15 266.27 458.36 266.28 C 457.59 266.28 456.84 266.39 456.1 266.6 C 455.28 266.84 454.49 267.17 453.75 267.6 C 452.51 268.3 451.44 269.27 450.62 270.43 C 450.28 270.91 450.01 271.44 449.81 272 C 449.64 272.47 449.55 272.97 449.54 273.47 C 449.54 274.01 449.68 274.53 449.94 275 L 449.94 275 C 450.228 275.481 450.631 275.87 451.123 276.138 C 451.269 275.666 451.527 275.233 451.88 274.88 C 452.44 274.32 453.2 274 454 274 L 454 274 C 454.8 274 455.56 274.32 456.12 274.88 C 456.455 275.215 456.704 275.621 456.85 276.066 C 457.245 275.92 457.629 275.742 458 275.54 L 458 277.761 L 458 277.761 C 457.585 277.942 457.159 278.1 456.726 278.232 L 456.726 278.232 C 456.585 278.562 456.378 278.862 456.12 279.12 C 455.802 279.438 455.418 279.679 455 279.828 L 455 282 C 455 282.53 455.21 283.04 455.59 283.41 C 455.96 283.79 456.47 284 457 284 C 458.25 284 458.219 286 457 286 C 455.94 286 454.92 285.58 454.17 284.83 C 453.42 284.08 453 283.06 453 282 L 453 279.828 Z  M 454 276 C 454.27 276 454.52 276.11 454.71 276.29 C 454.89 276.48 455 276.73 455 277 C 455 277.27 454.89 277.52 454.71 277.71 C 454.52 277.89 454.27 278 454 278 L 454 278 C 453.73 278 453.48 277.89 453.29 277.71 C 453.11 277.52 453 277.27 453 277 C 453 276.73 453.11 276.48 453.29 276.29 C 453.48 276.11 453.73 276 454 276 L 454 276 L 454 276 Z " fill-rule="evenodd" id="Fill-B" fill="rgb(117,117,117)"/></g></svg>