<?xml version="1.0" encoding="UTF-8" standalone="no"?><!-- Generator: Gravit.io --><svg xmlns="http://www.w3.org/2000/svg" xmlns:xlink="http://www.w3.org/1999/xlink" style="isolation:isolate" viewBox="445 329 24 24" width="24" height="24"><g id="layer"><g opacity="0"><rect x="445" y="329" width="24" height="24" transform="matrix(1,0,0,1,0,0)" id="Icon Background" fill="rgb(37,86,132)"/></g><path d=" M 446 336.5 L 456 342 L 466 336.5 L 456 331 L 446 336.5 Z  M 462 342 L 469 348 L 465 348 L 462 351 L 462 342 Z " fill-rule="evenodd" id="Fill-A" fill="rgb(77,77,77)"/><path d=" M 460 341.637 L 456 343.86 L 447.49 339.13 C 447.25 339 446.98 338.97 446.73 339.04 C 446.47 339.11 446.25 339.28 446.13 339.51 C 446 339.75 445.97 340.02 446.04 340.27 C 446.11 340.53 446.28 340.75 446.51 340.87 L 456 346.14 L 460 343.919 L 460 341.637 L 460 341.637 Z  M 462.822 340.068 L 464.51 339.13 C 464.75 339 465.02 338.97 465.27 339.04 C 465.53 339.11 465.75 339.28 465.87 339.51 C 466 339.75 466.03 340.02 465.96 340.27 C 465.89 340.53 465.72 340.75 465.49 340.87 L 464.438 341.454 L 462.822 340.068 L 462.822 340.068 Z  M 460 345.637 L 456 347.86 L 447.49 343.13 C 447.25 343 446.98 342.97 446.73 343.04 C 446.47 343.11 446.25 343.28 446.13 343.51 C 446 343.75 445.97 344.02 446.04 344.27 C 446.11 344.53 446.28 344.75 446.51 344.87 L 456 350.14 L 460 347.919 L 460 345.637 Z " fill-rule="evenodd" id="Fill-B" fill="rgb(117,117,117)"/></g></svg>