<?xml version="1.0" encoding="UTF-8" standalone="no"?><!-- Generator: Gravit.io --><svg xmlns="http://www.w3.org/2000/svg" xmlns:xlink="http://www.w3.org/1999/xlink" style="isolation:isolate" viewBox="1978 2517 24 24" width="24" height="24"><g id="libraries-panel"><g opacity="0"><rect x="1978" y="2517" width="24" height="24" transform="matrix(1,0,0,1,0,0)" id="Icon Background" fill="rgb(37,86,132)"/></g><path d=" M 1980 2521 L 1982 2521 L 1982 2523 L 1980 2523 L 1980 2521 L 1980 2521 L 1980 2521 Z  M 1989.634 2522.438 L 1991.366 2521.438 L 1992.366 2523.17 L 1990.634 2524.17 L 1989.634 2522.438 L 1989.634 2522.438 L 1989.634 2522.438 Z  M 1979 2520 L 1983 2520 L 1983 2536 L 1979 2536 L 1979 2520 L 1979 2520 L 1979 2520 Z  M 1988.268 2522.072 L 1991.732 2520.072 L 1999.732 2533.928 L 1996.268 2535.928 L 1988.268 2522.072 L 1988.268 2522.072 L 1988.268 2522.072 Z  M 1985 2521 L 1987 2521 L 1987 2527 L 1985 2527 L 1985 2521 L 1985 2521 Z  M 1984 2520 L 1988 2520 L 1988 2536 L 1984 2536 L 1984 2520 L 1984 2520 Z " fill-rule="evenodd" id="Fill-B" fill="rgb(117,117,117)"/><path d=" M 1979 2537 L 2001 2537 L 2001 2538 L 1979 2538 L 1979 2537 Z " id="Fill-A" fill="rgb(77,77,77)"/></g></svg>