<?xml version="1.0" encoding="UTF-8" standalone="no"?><!-- Generator: Gravit.io --><svg xmlns="http://www.w3.org/2000/svg" xmlns:xlink="http://www.w3.org/1999/xlink" style="isolation:isolate" viewBox="1545 859 24 24" width="24" height="24"><g id="lock"><g opacity="0"><rect x="1545" y="859" width="24" height="24" transform="matrix(1,0,0,1,0,0)" id="Icon Background" fill="rgb(37,86,132)"/></g><path d=" M 1551 870 L 1550.508 870 C 1549.676 870 1549 870.676 1549 871.508 L 1549 878.492 C 1549 879.324 1549.676 880 1550.508 880 L 1562.492 880 C 1563.324 880 1564 879.324 1564 878.492 L 1564 871.508 C 1564 870.676 1563.324 870 1562.492 870 L 1562 870 L 1562 868 C 1562 865.24 1559.76 863 1557 863 L 1556 863 L 1556 863 C 1553.24 863 1551 865.24 1551 868 L 1551 870 Z  M 1553 870 L 1560 870 L 1560 868 C 1560 867.2 1559.68 866.44 1559.12 865.88 C 1558.56 865.32 1557.8 865 1557 865 L 1556 865 L 1556 865 C 1555.2 865 1554.44 865.32 1553.88 865.88 C 1553.32 866.44 1553 867.2 1553 868 L 1553 870 Z " fill-rule="evenodd" id="Fill-B" fill="rgb(117,117,117)"/></g></svg>