<?xml version="1.0" encoding="UTF-8" standalone="no"?><!-- Generator: Gravit.io --><svg xmlns="http://www.w3.org/2000/svg" xmlns:xlink="http://www.w3.org/1999/xlink" style="isolation:isolate" viewBox="1150 2055 24 24" width="24" height="24"><g id="lowercase-text"><g opacity="0"><rect x="1150" y="2055" width="24" height="24" transform="matrix(1,0,0,1,0,0)" id="Icon Background" fill="rgb(37,86,132)"/></g><path d=" M 1156.064 2071.64 L 1156.064 2071.64 Q 1155.04 2071.64 1154.52 2071.088 L 1154.52 2071.088 L 1154.52 2071.088 Q 1154 2070.536 1154 2069.704 L 1154 2069.704 L 1154 2069.704 Q 1154 2068.984 1154.376 2068.512 L 1154.376 2068.512 L 1154.376 2068.512 Q 1154.752 2068.04 1155.264 2067.784 L 1155.264 2067.784 L 1155.264 2067.784 Q 1155.776 2067.528 1156.592 2067.256 L 1156.592 2067.256 L 1156.592 2067.256 Q 1157.456 2066.968 1157.856 2066.728 L 1157.856 2066.728 L 1157.856 2066.728 Q 1158.256 2066.488 1158.256 2066.056 L 1158.256 2066.056 L 1158.256 2064.632 L 1158.256 2064.632 Q 1158.256 2064.12 1158 2063.72 L 1158 2063.72 L 1158 2063.72 Q 1157.744 2063.32 1157.12 2063.32 L 1157.12 2063.32 L 1157.12 2063.32 Q 1156.624 2063.32 1156.224 2063.592 L 1156.224 2063.592 L 1156.224 2063.592 Q 1156.768 2063.784 1157.032 2064.16 L 1157.032 2064.16 L 1157.032 2064.16 Q 1157.296 2064.536 1157.296 2065 L 1157.296 2065 L 1157.296 2065 Q 1157.296 2065.624 1156.856 2066 L 1156.856 2066 L 1156.856 2066 Q 1156.416 2066.376 1155.792 2066.376 L 1155.792 2066.376 L 1155.792 2066.376 Q 1155.168 2066.376 1154.808 2065.984 L 1154.808 2065.984 L 1154.808 2065.984 Q 1154.448 2065.592 1154.448 2064.984 L 1154.448 2064.984 L 1154.448 2064.984 Q 1154.448 2064.504 1154.688 2064.152 L 1154.688 2064.152 L 1154.688 2064.152 Q 1154.928 2063.8 1155.44 2063.512 L 1155.44 2063.512 L 1155.44 2063.512 Q 1156.336 2063 1158 2063 L 1158 2063 L 1158 2063 Q 1158.88 2063 1159.52 2063.168 L 1159.52 2063.168 L 1159.52 2063.168 Q 1160.16 2063.336 1160.608 2063.8 L 1160.608 2063.8 L 1160.608 2063.8 Q 1160.928 2064.136 1161.032 2064.64 L 1161.032 2064.64 L 1161.032 2064.64 Q 1161.136 2065.144 1161.136 2066.04 L 1161.136 2066.04 L 1161.136 2070.328 L 1161.136 2070.328 Q 1161.136 2070.728 1161.192 2070.872 L 1161.192 2070.872 L 1161.192 2070.872 Q 1161.248 2071.016 1161.392 2071.016 L 1161.392 2071.016 L 1161.392 2071.016 Q 1161.504 2071.016 1161.632 2070.944 L 1161.632 2070.944 L 1161.632 2070.944 Q 1161.76 2070.872 1161.872 2070.776 L 1161.872 2070.776 L 1162.032 2071.048 L 1162.032 2071.048 Q 1161.344 2071.64 1160.064 2071.64 L 1160.064 2071.64 L 1160.064 2071.64 Q 1159.104 2071.64 1158.72 2071.312 L 1158.72 2071.312 L 1158.72 2071.312 Q 1158.336 2070.984 1158.304 2070.424 L 1158.304 2070.424 L 1158.304 2070.424 Q 1157.552 2071.64 1156.064 2071.64 L 1156.064 2071.64 Z  M 1157.664 2070.36 L 1157.664 2070.36 Q 1158 2070.36 1158.256 2070.088 L 1158.256 2070.088 L 1158.256 2066.712 L 1158.256 2066.712 Q 1158.112 2066.952 1157.728 2067.336 L 1157.728 2067.336 L 1157.728 2067.336 Q 1157.296 2067.752 1157.072 2068.144 L 1157.072 2068.144 L 1157.072 2068.144 Q 1156.848 2068.536 1156.848 2069.208 L 1156.848 2069.208 L 1156.848 2069.208 Q 1156.848 2070.36 1157.664 2070.36 L 1157.664 2070.36 Z  M 1164.56 2071.64 L 1164.56 2071.64 Q 1163.536 2071.64 1163.016 2071.088 L 1163.016 2071.088 L 1163.016 2071.088 Q 1162.496 2070.536 1162.496 2069.704 L 1162.496 2069.704 L 1162.496 2069.704 Q 1162.496 2068.984 1162.872 2068.512 L 1162.872 2068.512 L 1162.872 2068.512 Q 1163.248 2068.04 1163.76 2067.784 L 1163.76 2067.784 L 1163.76 2067.784 Q 1164.272 2067.528 1165.088 2067.256 L 1165.088 2067.256 L 1165.088 2067.256 Q 1165.952 2066.968 1166.352 2066.728 L 1166.352 2066.728 L 1166.352 2066.728 Q 1166.752 2066.488 1166.752 2066.056 L 1166.752 2066.056 L 1166.752 2064.632 L 1166.752 2064.632 Q 1166.752 2064.12 1166.496 2063.72 L 1166.496 2063.72 L 1166.496 2063.72 Q 1166.24 2063.32 1165.616 2063.32 L 1165.616 2063.32 L 1165.616 2063.32 Q 1165.12 2063.32 1164.72 2063.592 L 1164.72 2063.592 L 1164.72 2063.592 Q 1165.264 2063.784 1165.528 2064.16 L 1165.528 2064.16 L 1165.528 2064.16 Q 1165.792 2064.536 1165.792 2065 L 1165.792 2065 L 1165.792 2065 Q 1165.792 2065.624 1165.352 2066 L 1165.352 2066 L 1165.352 2066 Q 1164.912 2066.376 1164.288 2066.376 L 1164.288 2066.376 L 1164.288 2066.376 Q 1163.664 2066.376 1163.304 2065.984 L 1163.304 2065.984 L 1163.304 2065.984 Q 1162.944 2065.592 1162.944 2064.984 L 1162.944 2064.984 L 1162.944 2064.984 Q 1162.944 2064.504 1163.184 2064.152 L 1163.184 2064.152 L 1163.184 2064.152 Q 1163.424 2063.8 1163.936 2063.512 L 1163.936 2063.512 L 1163.936 2063.512 Q 1164.832 2063 1166.496 2063 L 1166.496 2063 L 1166.496 2063 Q 1167.376 2063 1168.016 2063.168 L 1168.016 2063.168 L 1168.016 2063.168 Q 1168.656 2063.336 1169.104 2063.8 L 1169.104 2063.8 L 1169.104 2063.8 Q 1169.424 2064.136 1169.528 2064.64 L 1169.528 2064.64 L 1169.528 2064.64 Q 1169.632 2065.144 1169.632 2066.04 L 1169.632 2066.04 L 1169.632 2070.328 L 1169.632 2070.328 Q 1169.632 2070.728 1169.688 2070.872 L 1169.688 2070.872 L 1169.688 2070.872 Q 1169.744 2071.016 1169.888 2071.016 L 1169.888 2071.016 L 1169.888 2071.016 Q 1170 2071.016 1170.128 2070.944 L 1170.128 2070.944 L 1170.128 2070.944 Q 1170.256 2070.872 1170.368 2070.776 L 1170.368 2070.776 L 1170.528 2071.048 L 1170.528 2071.048 Q 1169.84 2071.64 1168.56 2071.64 L 1168.56 2071.64 L 1168.56 2071.64 Q 1167.6 2071.64 1167.216 2071.312 L 1167.216 2071.312 L 1167.216 2071.312 Q 1166.832 2070.984 1166.8 2070.424 L 1166.8 2070.424 L 1166.8 2070.424 Q 1166.048 2071.64 1164.56 2071.64 L 1164.56 2071.64 Z  M 1166.16 2070.36 L 1166.16 2070.36 Q 1166.496 2070.36 1166.752 2070.088 L 1166.752 2070.088 L 1166.752 2066.712 L 1166.752 2066.712 Q 1166.608 2066.952 1166.224 2067.336 L 1166.224 2067.336 L 1166.224 2067.336 Q 1165.792 2067.752 1165.568 2068.144 L 1165.568 2068.144 L 1165.568 2068.144 Q 1165.344 2068.536 1165.344 2069.208 L 1165.344 2069.208 L 1165.344 2069.208 Q 1165.344 2070.36 1166.16 2070.36 L 1166.16 2070.36 Z " id="Fill-B" fill="rgb(117,117,117)"/></g></svg>