<?xml version="1.0" encoding="UTF-8" standalone="no"?><!-- Generator: Gravit.io --><svg xmlns="http://www.w3.org/2000/svg" xmlns:xlink="http://www.w3.org/1999/xlink" style="isolation:isolate" viewBox="778 667 24 24" width="24" height="24"><g id="pan"><g opacity="0"><rect x="778" y="667" width="24" height="24" transform="matrix(1,0,0,1,0,0)" id="Icon Background" fill="rgb(37,86,132)"/></g><path d=" M 785 680 L 785 670.5 C 785 669.672 785.672 669 786.5 669 L 786.5 669 C 787.328 669 788 669.672 788 670.5 L 788 676.5 C 788 676.776 788.224 677 788.5 677 L 788.5 677 C 788.776 677 789 676.776 789 676.5 L 789 668.5 C 789 667.672 789.672 667 790.5 667 L 790.5 667 C 791.328 667 792 667.672 792 668.5 L 792 676.5 C 792 676.776 792.224 677 792.5 677 L 792.5 677 C 792.776 677 793 676.776 793 676.5 L 793 669.5 C 793 668.672 793.672 668 794.5 668 L 794.5 668 C 795.328 668 796 668.672 796 669.5 L 796 677.5 C 796 677.776 796.224 678 796.5 678 L 796.5 678 C 796.776 678 797 677.776 797 677.5 L 797 672.5 C 797 671.672 797.672 671 798.5 671 L 798.5 671 C 799.328 671 800 671.672 800 672.5 L 800 681 Q 800 684.336 796.049 690 L 786 690 L 782.308 684.832 C 781.586 683.821 780.834 682.005 780.63 680.78 L 780.164 677.986 C 780.074 677.442 780.448 677 781 677 Q 782.613 677 784.138 680.195 C 784.614 681.191 785 681.104 785 680 Z " id="Fill-B" fill="rgb(117,117,117)"/></g></svg>