<?xml version="1.0" encoding="UTF-8" standalone="no"?><!-- Generator: Gravit.io --><svg xmlns="http://www.w3.org/2000/svg" xmlns:xlink="http://www.w3.org/1999/xlink" style="isolation:isolate" viewBox="1545 2385 24 24" width="24" height="24"><g id="paste-inside"><g opacity="0"><rect x="1545" y="2385" width="24" height="24" transform="matrix(1,0,0,1,0,0)" id="Icon Background" fill="rgb(37,86,132)"/></g><path d=" M 1553.482 2388.5 C 1553.482 2387.944 1553.934 2387.492 1554.49 2387.492 C 1555.046 2387.492 1555.498 2387.944 1555.498 2388.5 C 1555.498 2389.056 1555.046 2389.508 1554.49 2389.508 C 1553.934 2389.508 1553.482 2389.056 1553.482 2388.5 L 1553.482 2388.5 L 1553.482 2388.5 Z  M 1555.15 2403 L 1550.05 2403 C 1549.77 2403 1549.5 2402.89 1549.31 2402.69 C 1549.11 2402.49 1549 2402.22 1549 2401.95 L 1549 2391.05 C 1549 2390.78 1549.11 2390.51 1549.31 2390.31 C 1549.5 2390.11 1549.77 2390 1550.05 2390 L 1550.05 2390 L 1550.99 2390 L 1550.99 2390 L 1550.99 2390 L 1550.99 2390 L 1550.99 2393 L 1557.99 2393 L 1557.99 2390 L 1558.94 2390 C 1559.22 2390 1559.49 2390.11 1559.69 2390.31 C 1559.89 2390.51 1560 2390.78 1560 2391.05 L 1560 2394.427 C 1560.632 2394.204 1561.303 2394.063 1562 2394.016 L 1562 2391.05 C 1562 2390.24 1561.68 2389.47 1561.1 2388.89 C 1560.53 2388.32 1559.75 2388 1558.94 2388 L 1556.94 2388 C 1556.708 2386.859 1555.699 2386 1554.49 2386 C 1553.281 2386 1552.272 2386.859 1552.04 2388 L 1552.04 2388 L 1552.04 2388 L 1550.05 2388 L 1550.05 2388 L 1550.05 2388 C 1549.24 2388 1548.47 2388.32 1547.89 2388.89 C 1547.32 2389.47 1547 2390.24 1547 2391.05 L 1547 2401.95 C 1547 2402.76 1547.32 2403.53 1547.89 2404.11 C 1548.47 2404.68 1549.24 2405 1550.05 2405 L 1555.866 2405 C 1555.538 2404.38 1555.294 2403.708 1555.15 2403 L 1555.15 2403 Z  M 1558 2401.5 C 1558 2400.31 1558.47 2399.16 1559.32 2398.32 C 1560.16 2397.47 1561.31 2397 1562.5 2397 C 1563.69 2397 1564.84 2397.47 1565.68 2398.32 C 1566.53 2399.16 1567 2400.31 1567 2401.5 C 1567 2402.69 1566.53 2403.84 1565.68 2404.68 C 1564.84 2405.53 1563.69 2406 1562.5 2406 C 1561.31 2406 1560.16 2405.53 1559.32 2404.68 C 1558.47 2403.84 1558 2402.69 1558 2401.5 L 1558 2401.5 Z  M 1557 2401.5 C 1557 2398.464 1559.464 2396 1562.5 2396 C 1565.536 2396 1568 2398.464 1568 2401.5 C 1568 2404.536 1565.536 2407 1562.5 2407 C 1559.464 2407 1557 2404.536 1557 2401.5 L 1557 2401.5 Z " fill-rule="evenodd" id="Fill-B" fill="rgb(117,117,117)"/><path d=" M 1563.109 2396.028 C 1562.908 2396.011 1562.705 2396 1562.5 2396 C 1559.464 2396 1557 2398.464 1557 2401.5 C 1557 2402.598 1557.323 2403.622 1557.891 2404.472 C 1558.092 2404.489 1558.295 2404.5 1558.5 2404.5 C 1561.536 2404.5 1564 2402.036 1564 2399 C 1564 2397.902 1563.677 2396.878 1563.109 2396.028 Z " id="Fill-A" fill="rgb(77,77,77)"/></g></svg>