<?xml version="1.0" encoding="UTF-8" standalone="no"?><!-- Generator: Gravit.io --><svg xmlns="http://www.w3.org/2000/svg" xmlns:xlink="http://www.w3.org/1999/xlink" style="isolation:isolate" viewBox="1545 2451 24 24" width="24" height="24"><g id="paste-style"><g opacity="0"><rect x="1545" y="2451" width="24" height="24" transform="matrix(1,0,0,1,0,0)" id="Icon Background" fill="rgb(37,86,132)"/></g><path d=" M 1561.271 2463.415 L 1565.867 2468.011 L 1562.685 2471.193 C 1562.219 2471.66 1561.582 2471.928 1560.917 2471.928 C 1560.253 2471.928 1559.616 2471.66 1559.15 2471.193 L 1557.735 2469.779 C 1557.269 2469.312 1557 2468.676 1557 2468.011 C 1557 2467.346 1557.269 2466.71 1557.735 2466.243 L 1560.211 2463.768 L 1560.211 2463.768 L 1559.15 2462.707 L 1559.857 2462 L 1561.272 2463.414 L 1561.271 2463.415 Z  M 1560.917 2464.476 L 1564.453 2468.011 L 1558.004 2468.011 C 1558.004 2467.586 1558.132 2467.331 1558.443 2466.95 L 1560.917 2464.476 L 1560.917 2464.476 Z " fill-rule="evenodd" id="Fill-A" fill="rgb(77,77,77)"/><path d=" M 1553.482 2454.5 C 1553.482 2453.944 1553.934 2453.492 1554.49 2453.492 C 1555.046 2453.492 1555.498 2453.944 1555.498 2454.5 C 1555.498 2455.056 1555.046 2455.508 1554.49 2455.508 C 1553.934 2455.508 1553.482 2455.056 1553.482 2454.5 L 1553.482 2454.5 L 1553.482 2454.5 Z  M 1555.15 2469 L 1550.05 2469 C 1549.77 2469 1549.5 2468.89 1549.31 2468.69 C 1549.11 2468.49 1549 2468.22 1549 2467.95 L 1549 2457.05 C 1549 2456.78 1549.11 2456.51 1549.31 2456.31 C 1549.5 2456.11 1549.77 2456 1550.05 2456 L 1550.05 2456 L 1550.99 2456 L 1550.99 2456 L 1550.99 2456 L 1550.99 2456 L 1550.99 2459 L 1557.99 2459 L 1557.99 2456 L 1558.94 2456 C 1559.22 2456 1559.49 2456.11 1559.69 2456.31 C 1559.89 2456.51 1560 2456.78 1560 2457.05 L 1560 2460.427 C 1560.632 2460.204 1561.303 2460.063 1562 2460.016 L 1562 2457.05 C 1562 2456.24 1561.68 2455.47 1561.1 2454.89 C 1560.53 2454.32 1559.75 2454 1558.94 2454 L 1556.94 2454 C 1556.708 2452.859 1555.699 2452 1554.49 2452 C 1553.281 2452 1552.272 2452.859 1552.04 2454 L 1552.04 2454 L 1552.04 2454 L 1550.05 2454 L 1550.05 2454 L 1550.05 2454 C 1549.24 2454 1548.47 2454.32 1547.89 2454.89 C 1547.32 2455.47 1547 2456.24 1547 2457.05 L 1547 2467.95 C 1547 2468.76 1547.32 2469.53 1547.89 2470.11 C 1548.47 2470.68 1549.24 2471 1550.05 2471 L 1555.866 2471 C 1555.538 2470.38 1555.294 2469.708 1555.15 2469 L 1555.15 2469 Z  M 1565.965 2469 L 1566.702 2470.474 C 1567.031 2471.132 1566.999 2471.965 1566.631 2472.333 L 1566.631 2472.333 C 1566.263 2472.701 1565.666 2472.701 1565.298 2472.333 L 1565.298 2472.333 C 1564.93 2471.965 1564.898 2471.132 1565.228 2470.474 L 1565.965 2469 Z " fill-rule="evenodd" id="Fill-B" fill="rgb(117,117,117)"/></g></svg>