<?xml version="1.0" encoding="UTF-8" standalone="no"?><!-- Generator: Gravit.io --><svg xmlns="http://www.w3.org/2000/svg" xmlns:xlink="http://www.w3.org/1999/xlink" style="isolation:isolate" viewBox="1545 2319 24 24" width="24" height="24"><g id="paste-in-place"><g opacity="0"><rect x="1545" y="2319" width="24" height="24" transform="matrix(1,0,0,1,0,0)" id="Icon Background" fill="rgb(37,86,132)"/></g><path d=" M 1562 2330.022 C 1559.363 2330.26 1557.26 2332.363 1557.022 2335 L 1556 2335 L 1556 2336 L 1557.022 2336 C 1557.26 2338.637 1559.363 2340.74 1562 2340.978 L 1562 2342 L 1563 2342 L 1563 2340.978 C 1565.637 2340.74 1567.74 2338.637 1567.978 2336 L 1569 2336 L 1569 2335 L 1567.978 2335 C 1567.74 2332.363 1565.637 2330.26 1563 2330.022 L 1563 2329 L 1562 2329 L 1562 2330.022 Z  M 1558 2335.5 C 1558 2333.016 1560.016 2331 1562.5 2331 C 1564.984 2331 1567 2333.016 1567 2335.5 C 1567 2337.984 1564.984 2340 1562.5 2340 C 1560.016 2340 1558 2337.984 1558 2335.5 Z " fill-rule="evenodd" id="Fill-A" fill="rgb(77,77,77)"/><path d=" M 1553.482 2322.5 C 1553.482 2321.944 1553.934 2321.492 1554.49 2321.492 C 1555.046 2321.492 1555.498 2321.944 1555.498 2322.5 C 1555.498 2323.056 1555.046 2323.508 1554.49 2323.508 C 1553.934 2323.508 1553.482 2323.056 1553.482 2322.5 L 1553.482 2322.5 L 1553.482 2322.5 Z  M 1555.15 2337 L 1550.05 2337 C 1549.77 2337 1549.5 2336.89 1549.31 2336.69 C 1549.11 2336.49 1549 2336.22 1549 2335.95 L 1549 2325.05 C 1549 2324.78 1549.11 2324.51 1549.31 2324.31 C 1549.5 2324.11 1549.77 2324 1550.05 2324 L 1550.05 2324 L 1550.99 2324 L 1550.99 2324 L 1550.99 2324 L 1550.99 2324 L 1550.99 2327 L 1557.99 2327 L 1557.99 2324 L 1558.94 2324 C 1559.22 2324 1559.49 2324.11 1559.69 2324.31 C 1559.89 2324.51 1560 2324.78 1560 2325.05 L 1560 2328.427 C 1560.632 2328.204 1561.303 2328.063 1562 2328.016 L 1562 2325.05 C 1562 2324.24 1561.68 2323.47 1561.1 2322.89 C 1560.53 2322.32 1559.75 2322 1558.94 2322 L 1556.94 2322 C 1556.708 2320.859 1555.699 2320 1554.49 2320 C 1553.281 2320 1552.272 2320.859 1552.04 2322 L 1552.04 2322 L 1552.04 2322 L 1550.05 2322 L 1550.05 2322 L 1550.05 2322 C 1549.24 2322 1548.47 2322.32 1547.89 2322.89 C 1547.32 2323.47 1547 2324.24 1547 2325.05 L 1547 2335.95 C 1547 2336.76 1547.32 2337.53 1547.89 2338.11 C 1548.47 2338.68 1549.24 2339 1550.05 2339 L 1555.866 2339 C 1555.538 2338.38 1555.294 2337.708 1555.15 2337 L 1555.15 2337 Z  M 1560 2335.5 C 1560 2334.12 1561.12 2333 1562.5 2333 C 1563.88 2333 1565 2334.12 1565 2335.5 C 1565 2336.88 1563.88 2338 1562.5 2338 C 1561.12 2338 1560 2336.88 1560 2335.5 Z " fill-rule="evenodd" id="Fill-B" fill="rgb(117,117,117)"/></g></svg>