<?xml version="1.0" encoding="UTF-8" standalone="no"?><!-- Generator: Gravit.io --><svg xmlns="http://www.w3.org/2000/svg" xmlns:xlink="http://www.w3.org/1999/xlink" style="isolation:isolate" viewBox="1461 2320 24 24" width="24" height="24"><g id="paste-color"><g opacity="0"><rect x="1461" y="2320" width="24" height="24" transform="matrix(1,0,0,1,0,0)" id="Icon Background" fill="rgb(37,86,132)"/></g><path d=" M 1469.482 2323.5 C 1469.482 2322.944 1469.934 2322.492 1470.49 2322.492 C 1471.046 2322.492 1471.498 2322.944 1471.498 2323.5 C 1471.498 2324.056 1471.046 2324.508 1470.49 2324.508 C 1469.934 2324.508 1469.482 2324.056 1469.482 2323.5 L 1469.482 2323.5 L 1469.482 2323.5 Z  M 1472.15 2338 L 1466.05 2338 C 1465.77 2338 1465.5 2337.89 1465.31 2337.69 C 1465.11 2337.49 1465 2337.22 1465 2336.95 L 1465 2326.05 C 1465 2325.78 1465.11 2325.51 1465.31 2325.31 C 1465.5 2325.11 1465.77 2325 1466.05 2325 L 1466.05 2325 L 1466.99 2325 L 1466.99 2325 L 1466.99 2325 L 1466.99 2325 L 1466.99 2328 L 1473.99 2328 L 1473.99 2325 L 1474.94 2325 C 1475.22 2325 1475.49 2325.11 1475.69 2325.31 C 1475.89 2325.51 1476 2325.78 1476 2326.05 L 1476 2330.427 C 1476.632 2330.204 1477.303 2330.063 1478 2330.016 L 1478 2326.05 C 1478 2325.24 1477.68 2324.47 1477.1 2323.89 C 1476.53 2323.32 1475.75 2323 1474.94 2323 L 1472.94 2323 C 1472.708 2321.859 1471.699 2321 1470.49 2321 C 1469.281 2321 1468.272 2321.859 1468.04 2323 L 1468.04 2323 L 1468.04 2323 L 1466.05 2323 L 1466.05 2323 L 1466.05 2323 C 1465.24 2323 1464.47 2323.32 1463.89 2323.89 C 1463.32 2324.47 1463 2325.24 1463 2326.05 L 1463 2336.95 C 1463 2337.76 1463.32 2338.53 1463.89 2339.11 C 1464.47 2339.68 1465.24 2340 1466.05 2340 L 1472.866 2340 C 1472.538 2339.38 1472.294 2338.708 1472.15 2338 L 1472.15 2338 Z " fill-rule="evenodd" id="Fill-B" fill="rgb(117,117,117)"/><path d=" M 1479.077 2333.844 L 1480.662 2337.016 C 1481.37 2338.431 1481.302 2340.224 1480.51 2341.015 L 1480.51 2341.015 C 1479.718 2341.807 1478.433 2341.807 1477.641 2341.015 L 1477.641 2341.015 C 1476.85 2340.224 1476.781 2338.431 1477.491 2337.016 L 1479.077 2333.844 Z " fill-rule="evenodd" id="FIll-A" fill="rgb(77,77,77)"/></g></svg>