<?xml version="1.0" encoding="UTF-8" standalone="no"?><!-- Generator: Gravit.io --><svg xmlns="http://www.w3.org/2000/svg" xmlns:xlink="http://www.w3.org/1999/xlink" style="isolation:isolate" viewBox="1545 1585 24 24" width="24" height="24"><g id="paste"><g opacity="0"><rect x="1545" y="1585" width="24" height="24" transform="matrix(1,0,0,1,0,0)" id="Icon Background" fill="rgb(37,86,132)"/></g><path d=" M 1551.99 1590 L 1550.05 1590 L 1550.05 1590 C 1549.77 1590 1549.5 1590.11 1549.31 1590.31 C 1549.11 1590.51 1549 1590.78 1549 1591.05 L 1549 1604.95 C 1549 1605.22 1549.11 1605.49 1549.31 1605.69 C 1549.5 1605.89 1549.77 1606 1550.05 1606 L 1562.94 1606 C 1563.22 1606 1563.49 1605.89 1563.69 1605.69 C 1563.89 1605.49 1564 1605.22 1564 1604.95 L 1564 1591.05 C 1564 1590.78 1563.89 1590.51 1563.69 1590.31 C 1563.49 1590.11 1563.22 1590 1562.94 1590 L 1560.99 1590 L 1560.99 1594 L 1551.99 1594 L 1551.99 1590 L 1551.99 1590 L 1551.99 1590 Z  M 1554.04 1588 L 1550.05 1588 L 1550.05 1588 L 1550.05 1588 C 1549.24 1588 1548.47 1588.32 1547.89 1588.89 C 1547.32 1589.47 1547 1590.24 1547 1591.05 L 1547 1604.95 C 1547 1605.76 1547.32 1606.53 1547.89 1607.11 C 1548.47 1607.68 1549.24 1608 1550.05 1608 L 1562.94 1608 C 1563.75 1608 1564.53 1607.68 1565.1 1607.11 C 1565.68 1606.53 1566 1605.76 1566 1604.95 L 1566 1591.05 C 1566 1590.24 1565.68 1589.47 1565.1 1588.89 C 1564.53 1588.32 1563.75 1588 1562.94 1588 L 1558.94 1588 C 1558.708 1586.859 1557.699 1586 1556.49 1586 C 1555.281 1586 1554.272 1586.859 1554.04 1588 L 1554.04 1588 Z  M 1555.482 1588.5 C 1555.482 1587.944 1555.934 1587.492 1556.49 1587.492 C 1557.046 1587.492 1557.498 1587.944 1557.498 1588.5 C 1557.498 1589.056 1557.046 1589.508 1556.49 1589.508 C 1555.934 1589.508 1555.482 1589.056 1555.482 1588.5 Z " fill-rule="evenodd" id="Fill-B" fill="rgb(117,117,117)"/></g></svg>