<?xml version="1.0" encoding="UTF-8" standalone="no"?><!-- Generator: Gravit.io --><svg xmlns="http://www.w3.org/2000/svg" xmlns:xlink="http://www.w3.org/1999/xlink" style="isolation:isolate" viewBox="2.626 8 24 24" width="24pt" height="24pt"><g><rect x="2.626" y="8" width="24" height="24" transform="matrix(1,0,0,1,0,0)" fill="none"/><g><path d=" M 10.686 12.047 C 10.686 11.491 11.138 11.039 11.694 11.039 C 12.25 11.039 12.702 11.491 12.702 12.047 C 12.702 12.603 12.25 13.055 11.694 13.055 C 11.138 13.055 10.686 12.603 10.686 12.047 L 10.686 12.047 L 10.686 12.047 Z  M 12.354 26.547 L 7.254 26.547 C 6.974 26.547 6.704 26.437 6.514 26.237 C 6.314 26.037 6.204 25.767 6.204 25.497 L 6.204 14.597 C 6.204 14.327 6.314 14.057 6.514 13.857 C 6.704 13.657 6.974 13.547 7.254 13.547 L 7.254 13.547 L 8.194 13.547 L 8.194 13.547 L 8.194 13.547 L 8.194 13.547 L 8.194 16.547 L 15.194 16.547 L 15.194 13.547 L 16.144 13.547 C 16.424 13.547 16.694 13.657 16.894 13.857 C 17.094 14.057 17.204 14.327 17.204 14.597 L 17.204 17.974 C 17.836 17.751 18.507 17.61 19.204 17.563 L 19.204 14.597 C 19.204 13.787 18.884 13.017 18.304 12.437 C 17.734 11.867 16.954 11.547 16.144 11.547 L 14.144 11.547 C 13.912 10.406 12.903 9.547 11.694 9.547 C 10.485 9.547 9.476 10.406 9.244 11.547 L 9.244 11.547 L 9.244 11.547 L 7.254 11.547 L 7.254 11.547 L 7.254 11.547 C 6.444 11.547 5.674 11.867 5.094 12.437 C 4.524 13.017 4.204 13.787 4.204 14.597 L 4.204 25.497 C 4.204 26.307 4.524 27.077 5.094 27.657 C 5.674 28.227 6.444 28.547 7.254 28.547 L 13.07 28.547 C 12.742 27.927 12.498 27.255 12.354 26.547 L 12.354 26.547 Z " fill-rule="evenodd" fill="rgb(117,117,117)"/><path d=" M 22.798 27.453 L 22.798 22.203 L 22.048 22.203 L 22.048 27.453 L 19.798 27.453 L 22.423 30.453 L 22.423 30.453 L 25.048 27.453 L 22.798 27.453 Z  M 17.36 22.641 L 17.36 27.891 L 16.61 27.891 L 16.61 22.641 L 14.36 22.641 L 16.985 19.641 L 16.985 19.641 L 19.61 22.641 L 17.36 22.641 Z " fill-rule="evenodd" fill="rgb(77,77,77)"/></g></g></svg>