<?xml version="1.0" encoding="UTF-8" standalone="no"?><!-- Generator: Gravit.io --><svg xmlns="http://www.w3.org/2000/svg" xmlns:xlink="http://www.w3.org/1999/xlink" style="isolation:isolate" viewBox="1545 2517 24 24" width="24" height="24"><g id="paste-here"><g opacity="0"><rect x="1545" y="2517" width="24" height="24" transform="matrix(1,0,0,1,0,0)" id="Icon Background" fill="rgb(37,86,132)"/></g><path d=" M 1565 2536 L 1565 2529 L 1564 2529 L 1564 2536 L 1561 2536 L 1564.5 2540 L 1564.5 2540 L 1568 2536 L 1565 2536 Z " id="Fill-A" fill="rgb(77,77,77)"/><path d=" M 1557 2535 L 1551.05 2535 C 1550.77 2535 1550.5 2534.89 1550.31 2534.69 C 1550.11 2534.49 1550 2534.22 1550 2533.95 L 1550 2523.05 C 1550 2522.78 1550.11 2522.51 1550.31 2522.31 C 1550.5 2522.11 1550.77 2522 1551.05 2522 L 1551.05 2522 L 1551.99 2522 L 1551.99 2522 L 1551.99 2522 L 1551.99 2522 L 1551.99 2525 L 1558.99 2525 L 1558.99 2522 L 1559.94 2522 C 1560.22 2522 1560.49 2522.11 1560.69 2522.31 C 1560.89 2522.51 1561 2522.78 1561 2523.05 L 1561 2526 L 1563 2526 L 1563 2523.05 C 1563 2522.24 1562.68 2521.47 1562.1 2520.89 C 1561.53 2520.32 1560.75 2520 1559.94 2520 L 1557.94 2520 C 1557.708 2518.859 1556.699 2518 1555.49 2518 C 1554.281 2518 1553.272 2518.859 1553.04 2520 L 1553.04 2520 L 1553.04 2520 L 1551.05 2520 L 1551.05 2520 L 1551.05 2520 C 1550.24 2520 1549.47 2520.32 1548.89 2520.89 C 1548.32 2521.47 1548 2522.24 1548 2523.05 L 1548 2533.95 C 1548 2534.76 1548.32 2535.53 1548.89 2536.11 C 1549.47 2536.68 1550.24 2537 1551.05 2537 L 1559 2537 L 1557 2535 Z  M 1554.482 2520.5 C 1554.482 2519.944 1554.934 2519.492 1555.49 2519.492 C 1556.046 2519.492 1556.498 2519.944 1556.498 2520.5 C 1556.498 2521.056 1556.046 2521.508 1555.49 2521.508 C 1554.934 2521.508 1554.482 2521.056 1554.482 2520.5 L 1554.482 2520.5 Z " fill-rule="evenodd" id="Fill-B" fill="rgb(117,117,117)"/></g></svg>