<?xml version="1.0" encoding="UTF-8" standalone="no"?><!-- Generator: Gravit.io --><svg xmlns="http://www.w3.org/2000/svg" xmlns:xlink="http://www.w3.org/1999/xlink" style="isolation:isolate" viewBox="445 865 24 24" width="24" height="24"><g id="pen"><g opacity="0"><rect x="445" y="865" width="24" height="24" transform="matrix(1,0,0,1,0,0)" id="Icon Background" fill="rgb(37,86,132)"/></g><path d=" M 458 876.086 L 458 871.934 L 461.18 878.123 C 461.492 878.758 461.655 879.445 461.642 880.145 C 461.642 880.819 461.519 881.493 461.275 882.128 C 461.044 882.722 460.705 883.264 460.243 883.714 L 459.252 884.678 L 455.748 884.678 L 454.757 883.714 C 454.295 883.264 453.956 882.722 453.725 882.128 C 453.481 881.493 453.358 880.819 453.358 880.145 C 453.345 879.445 453.508 878.758 453.82 878.123 L 453.82 878.123 L 457 871.934 L 457 871.934 L 457 876.086 C 456.791 876.16 456.599 876.281 456.44 876.44 C 456.16 876.72 456 877.1 456 877.5 C 456 877.9 456.16 878.28 456.44 878.56 C 456.72 878.84 457.1 879 457.5 879 C 457.9 879 458.28 878.84 458.56 878.56 C 458.84 878.28 459 877.9 459 877.5 C 459 877.1 458.84 876.72 458.56 876.44 C 458.401 876.281 458.209 876.16 458 876.086 Z  M 452.598 877.529 L 457.5 868 L 462.402 877.529 C 462.402 877.542 462.402 877.542 462.402 877.542 C 462.809 878.361 463.013 879.247 462.999 880.159 C 462.999 880.978 462.836 881.81 462.551 882.577 C 462.253 883.344 461.804 884.057 461.221 884.639 C 461.221 884.639 461.207 884.639 461.207 884.639 L 459.822 886 L 455.178 886 L 453.793 884.639 C 453.793 884.639 453.779 884.639 453.779 884.639 C 453.196 884.057 452.747 883.344 452.449 882.577 C 452.164 881.81 452.001 880.978 452.001 880.159 C 451.987 879.247 452.191 878.361 452.598 877.542 C 452.598 877.542 452.598 877.542 452.598 877.529 L 452.598 877.529 L 452.598 877.529 Z " fill-rule="evenodd" id="Fill-A" fill="rgb(77,77,77)"/><path d=" M 465 868 L 466 868 L 466 869 L 465 869 L 465 868 L 465 868 L 465 868 L 465 868 L 465 868 L 465 868 L 465 868 Z  M 460 868 L 461 868 L 461 869 L 460 869 L 460 868 L 460 868 L 460 868 L 460 868 L 460 868 L 460 868 Z  M 462 868 L 463 868 L 463 869 L 462 869 L 462 868 L 462 868 L 462 868 L 462 868 L 462 868 Z  M 450 868 L 449 868 L 449 869 L 450 869 L 450 868 L 450 868 L 450 868 L 450 868 L 450 868 Z  M 455 868 L 454 868 L 454 869 L 455 869 L 455 868 L 455 868 L 455 868 Z  M 453 868 L 452 868 L 452 869 L 453 869 L 453 868 L 453 868 Z  M 464 867 L 467 867 L 467 870 L 464 870 L 464 867 L 464 867 L 464 867 L 464 867 L 464 867 L 464 867 L 464 867 Z  M 451 867 L 448 867 L 448 870 L 451 870 L 451 867 L 451 867 L 451 867 L 451 867 L 451 867 Z  M 453 886.006 L 462 886.006 C 462.552 886.006 463 886.454 463 887.006 L 463 887.006 C 463 887.558 462.552 888.006 462 888.006 L 453 888.006 C 452.448 888.006 452 887.558 452 887.006 L 452 887.006 C 452 886.454 452.448 886.006 453 886.006 Z " fill-rule="evenodd" id="Fill-B" fill="rgb(117,117,117)"/></g></svg>