<?xml version="1.0" encoding="UTF-8" standalone="no"?><!-- Generator: Gravit.io --><svg xmlns="http://www.w3.org/2000/svg" xmlns:xlink="http://www.w3.org/1999/xlink" style="isolation:isolate" viewBox="1545 793 24 24" width="24" height="24"><g id="pipette"><g opacity="0"><rect x="1545" y="793" width="24" height="24" transform="matrix(1,0,0,1,0,0)" id="Icon Background" fill="rgb(37,86,132)"/></g><path d=" M 1556.915 800.828 L 1555.854 799.767 C 1555.659 799.572 1555.659 799.255 1555.854 799.06 L 1555.854 799.06 C 1556.05 798.865 1556.366 798.865 1556.561 799.06 L 1556.915 799.414 C 1557.305 799.804 1557.939 799.804 1558.329 799.414 L 1562.158 795.585 C 1562.938 794.805 1564.206 794.805 1564.986 795.585 L 1566.4 797 C 1567.181 797.78 1567.181 799.048 1566.4 799.828 L 1562.572 803.656 C 1562.182 804.047 1562.182 804.68 1562.572 805.071 L 1562.925 805.424 C 1563.121 805.619 1563.121 805.936 1562.925 806.131 L 1562.925 806.131 C 1562.73 806.326 1562.413 806.326 1562.218 806.131 L 1561.158 805.071 L 1552.672 813.556 C 1551.882 812.782 1550.613 812.787 1549.829 813.571 C 1549.819 813.581 1548.394 815.006 1548.385 815.016 L 1547 813.632 C 1547.01 813.622 1548.435 812.197 1548.445 812.187 C 1549.234 811.398 1549.234 810.117 1548.445 809.329 C 1548.44 809.323 1548.435 809.318 1548.43 809.313 L 1556.915 800.828 Z  M 1551.022 808.135 L 1557.622 801.535 L 1560.451 804.364 L 1556.444 808.371 L 1551.022 808.135 Z " fill-rule="evenodd" id="Fill-B" fill="rgb(117,117,117)"/><path d=" M 1560.45 810 L 1561.558 812.216 C 1562.053 813.205 1562.005 814.457 1561.452 815.01 L 1561.452 815.01 C 1560.899 815.564 1560.001 815.564 1559.448 815.01 L 1559.448 815.01 C 1558.895 814.457 1558.847 813.205 1559.342 812.216 L 1560.45 810 Z " id="Fill-A" fill="rgb(77,77,77)"/></g></svg>