<?xml version="1.0" encoding="UTF-8" standalone="no"?><!-- Generator: Gravit.io --><svg xmlns="http://www.w3.org/2000/svg" xmlns:xlink="http://www.w3.org/1999/xlink" style="isolation:isolate" viewBox="445 1254 24 24" width="24" height="24"><g id="place-image"><g opacity="0"><rect x="445" y="1254" width="24" height="24" transform="matrix(1,0,0,1,0,0)" id="Icon Background" fill="rgb(37,86,132)"/></g><path d=" M 459.233 1267.598 L 458.02 1266.59 C 457.84 1266.45 457.62 1266.37 457.39 1266.38 C 457.21 1266.37 457.02 1266.42 456.87 1266.52 L 456.173 1266.987 L 458.216 1268.716 L 458.216 1268.716 C 457.987 1269.035 457.786 1269.375 457.617 1269.734 L 450.63 1263.91 C 450.59 1263.88 450.55 1263.87 450.5 1263.87 C 450.45 1263.87 450.41 1263.88 450.37 1263.91 L 447 1266.809 L 447 1266.809 L 447 1271 C 447 1271.552 447.448 1272 448 1272 L 457.019 1272 L 457.019 1272 C 457.006 1272.165 457 1272.332 457 1272.5 C 457 1272.668 457.006 1272.835 457.019 1273 L 448 1273 C 446.896 1273 446 1272.104 446 1271 L 446 1260 C 446 1258.896 446.896 1258 448 1258 L 448 1258 L 448 1258 L 462 1258 C 463.104 1258 464 1258.896 464 1260 L 464 1266.019 L 464 1266.019 C 463.835 1266.006 463.668 1266 463.5 1266 C 461.868 1266 460.375 1266.603 459.233 1267.598 Z  M 458 1262 C 458 1261.448 458.448 1261 459 1261 C 459.552 1261 460 1261.448 460 1262 C 460 1262.552 459.552 1263 459 1263 C 458.448 1263 458 1262.552 458 1262 L 458 1262 L 458 1262 Z  M 457 1262 C 457 1261.47 457.21 1260.96 457.59 1260.59 C 457.96 1260.21 458.47 1260 459 1260 C 459.53 1260 460.04 1260.21 460.41 1260.59 C 460.79 1260.96 461 1261.47 461 1262 C 461 1262.53 460.79 1263.04 460.41 1263.41 C 460.04 1263.79 459.53 1264 459 1264 C 458.47 1264 457.96 1263.79 457.59 1263.41 C 457.21 1263.04 457 1262.53 457 1262 L 457 1262 L 457 1262 Z " fill-rule="evenodd" id="Fill-B" fill="rgb(117,117,117)"/><path d=" M 459 1272.5 C 459 1270.016 461.016 1268 463.5 1268 C 465.984 1268 468 1270.016 468 1272.5 C 468 1274.984 465.984 1277 463.5 1277 C 461.016 1277 459 1274.984 459 1272.5 Z  M 464 1272 L 464 1270 L 463 1270 L 463 1272 L 461 1272 L 461 1273 L 463 1273 L 463 1275 L 464 1275 L 464 1273 L 466 1273 L 466 1272 L 464 1272 Z " fill-rule="evenodd" id="Fill-A" fill="rgb(77,77,77)"/></g></svg>