<?xml version="1.0" encoding="UTF-8" standalone="no"?><!-- Generator: Gravit.io --><svg xmlns="http://www.w3.org/2000/svg" xmlns:xlink="http://www.w3.org/1999/xlink" style="isolation:isolate" viewBox="1150 3378 24 24" width="24" height="24"><g id="polygon-small"><g opacity="0"><rect x="1150" y="3378" width="24" height="24" transform="matrix(1,0,0,1,0,0)" id="Icon Background" fill="rgb(37,86,132)"/></g><path d=" M 1166.08 3397.12 L 1162 3397.12 L 1157.92 3397.12 L 1155.88 3393.59 L 1153.85 3390.06 L 1155.88 3386.53 L 1157.92 3383 L 1162 3383 L 1166.08 3383 L 1168.12 3386.53 L 1170.15 3390.06 L 1168.12 3393.59 L 1166.08 3397.12 Z  M 1164.92 3395.12 L 1162 3395.12 L 1159.08 3395.12 L 1157.62 3392.59 L 1156.15 3390.06 L 1157.62 3387.53 L 1159.08 3385 L 1162 3385 L 1164.92 3385 L 1166.38 3387.53 L 1167.85 3390.06 L 1166.38 3392.59 L 1164.92 3395.12 Z " fill-rule="evenodd" id="Fill-B" fill="rgb(117,117,117)"/></g></svg>