<?xml version="1.0" encoding="UTF-8" standalone="no"?><!-- Generator: Gravit.io --><svg xmlns="http://www.w3.org/2000/svg" xmlns:xlink="http://www.w3.org/1999/xlink" style="isolation:isolate" viewBox="1978 2121 24 24" width="24" height="24"><g id="position-center"><g opacity="0"><rect x="1978" y="2121" width="24" height="24" transform="matrix(1,0,0,1,0,0)" id="Icon Background" fill="rgb(37,86,132)"/></g><path d=" M 1992 2143 L 2000 2143 L 2000 2124 L 1981 2124 L 1981 2132 L 1987.339 2132 C 1987.51 2131.642 1987.742 2131.313 1988.03 2131.03 C 1988.68 2130.37 1989.57 2130 1990.5 2130 C 1991.43 2130 1992.32 2130.37 1992.97 2131.03 C 1993.63 2131.68 1994 2132.57 1994 2133.5 C 1994 2134.43 1993.63 2135.32 1992.97 2135.97 C 1992.687 2136.258 1992.358 2136.49 1992 2136.661 L 1992 2143 Z  M 1989 2143 L 1981 2143 L 1981 2135 L 1987.339 2135 C 1987.51 2135.358 1987.742 2135.687 1988.03 2135.97 C 1988.313 2136.258 1988.642 2136.49 1989 2136.661 L 1989 2143 Z " fill-rule="evenodd" id="Fill-B" fill="rgb(117,117,117)"/><path d=" M 1990.5 2131 L 1990.5 2131 C 1991.88 2131 1993 2132.12 1993 2133.5 L 1993 2133.5 C 1993 2134.88 1991.88 2136 1990.5 2136 L 1990.5 2136 C 1989.12 2136 1988 2134.88 1988 2133.5 L 1988 2133.5 C 1988 2132.12 1989.12 2131 1990.5 2131 Z  M 1987.036 2133 L 1981 2133 L 1981 2134 L 1987.036 2134 C 1987.012 2133.837 1987 2133.67 1987 2133.5 L 1987 2133.5 C 1987 2133.33 1987.012 2133.163 1987.036 2133 L 1987.036 2133 Z  M 1990 2136.965 L 1990 2143 L 1991 2143 L 1991 2136.965 C 1990.837 2136.988 1990.67 2137 1990.5 2137 L 1990.5 2137 C 1990.33 2137 1990.163 2136.988 1990 2136.965 L 1990 2136.965 Z " fill-rule="evenodd" id="Fill-A" fill="rgb(77,77,77)"/></g></svg>