<?xml version="1.0" encoding="UTF-8" standalone="no"?><!-- Generator: Gravit.io --><svg xmlns="http://www.w3.org/2000/svg" xmlns:xlink="http://www.w3.org/1999/xlink" style="isolation:isolate" viewBox="1978 2055 24 24" width="24" height="24"><g id="position-outside"><g opacity="0"><rect x="1978" y="2055" width="24" height="24" transform="matrix(1,0,0,1,0,0)" id="Icon Background" fill="rgb(37,86,132)"/></g><path d=" M 1981 2066 L 1981 2058 L 2000 2058 L 2000 2077 L 1992 2077 L 1992 2070.661 C 1992.358 2070.49 1992.687 2070.258 1992.97 2069.97 C 1993.63 2069.32 1994 2068.43 1994 2067.5 C 1994 2066.57 1993.63 2065.68 1992.97 2065.03 C 1992.32 2064.37 1991.43 2064 1990.5 2064 C 1989.57 2064 1988.68 2064.37 1988.03 2065.03 C 1987.742 2065.313 1987.51 2065.642 1987.339 2066 L 1981 2066 Z " id="Fill-B" fill="rgb(117,117,117)"/><path d=" M 1990.5 2065 L 1990.5 2065 C 1991.88 2065 1993 2066.12 1993 2067.5 L 1993 2067.5 C 1993 2068.88 1991.88 2070 1990.5 2070 L 1990.5 2070 C 1989.12 2070 1988 2068.88 1988 2067.5 L 1988 2067.5 C 1988 2066.12 1989.12 2065 1990.5 2065 Z  M 1987.036 2067 L 1981 2067 L 1981 2068 L 1987.036 2068 C 1987.012 2067.837 1987 2067.67 1987 2067.5 L 1987 2067.5 C 1987 2067.33 1987.012 2067.163 1987.036 2067 L 1987.036 2067 Z  M 1990 2070.965 L 1990 2077 L 1991 2077 L 1991 2070.965 C 1990.837 2070.988 1990.67 2071 1990.5 2071 L 1990.5 2071 C 1990.33 2071 1990.163 2070.988 1990 2070.965 L 1990 2070.965 Z " fill-rule="evenodd" id="Fill-A" fill="rgb(77,77,77)"/></g></svg>