<?xml version="1.0" encoding="UTF-8" standalone="no"?><!-- Generator: Gravit.io --><svg xmlns="http://www.w3.org/2000/svg" xmlns:xlink="http://www.w3.org/1999/xlink" style="isolation:isolate" viewBox="2411 199 24 24" width="24" height="24"><g id="reset-instance"><g opacity="0"><rect x="2411" y="199" width="24" height="24" transform="matrix(1,0,0,1,0,0)" id="Icon Background" fill="rgb(37,86,132)"/></g><path d=" M 2414.153 212.485 L 2414.153 212.485 C 2414.087 212.111 2414.06 211.731 2414.06 211.35 C 2414.06 209.24 2414.9 207.22 2416.38 205.73 C 2416.56 205.54 2416.67 205.28 2416.67 205.02 C 2416.66 204.75 2416.56 204.5 2416.37 204.31 C 2416.18 204.12 2415.93 204.02 2415.66 204.02 C 2415.4 204.02 2415.14 204.13 2414.96 204.32 C 2413.1 206.19 2412.06 208.72 2412.06 211.35 C 2412.06 212.002 2412.127 212.659 2412.247 213.303 C 2412.051 213.456 2411.875 213.639 2411.72 213.84 C 2411.25 214.45 2411 215.2 2411 215.97 C 2411 216.27 2411.04 216.58 2411.12 216.87 C 2411.32 217.62 2411.76 218.28 2412.37 218.74 C 2412.98 219.21 2413.73 219.47 2414.5 219.47 C 2414.81 219.47 2415.11 219.43 2415.41 219.35 L 2415.41 219.35 C 2416.15 219.15 2416.81 218.71 2417.28 218.1 C 2417.75 217.49 2418 216.74 2418 215.97 C 2418 215.66 2417.96 215.36 2417.88 215.06 C 2417.68 214.32 2417.24 213.66 2416.63 213.19 C 2416.02 212.72 2415.27 212.47 2414.5 212.47 C 2414.383 212.47 2414.267 212.476 2414.153 212.485 Z  M 2420.4 202.11 C 2420.57 201.46 2421.17 201 2421.85 201 C 2421.98 201 2422.11 201.02 2422.24 201.05 C 2422.89 201.23 2423.35 201.82 2423.35 202.5 C 2423.35 202.63 2423.33 202.76 2423.3 202.89 C 2423.12 203.54 2422.52 204 2421.85 204 C 2421.72 204 2421.59 203.98 2421.46 203.95 C 2420.81 203.77 2420.35 203.18 2420.35 202.5 C 2420.35 202.37 2420.36 202.24 2420.4 202.11 L 2420.4 202.11 L 2420.4 202.11 L 2420.4 202.11 L 2420.4 202.11 Z  M 2422.05 219.36 L 2422.44 219.35 C 2422.71 219.34 2422.96 219.44 2423.16 219.62 C 2423.35 219.81 2423.46 220.06 2423.46 220.33 C 2423.47 220.59 2423.37 220.85 2423.19 221.04 C 2423 221.23 2422.75 221.34 2422.49 221.35 L 2422.09 221.36 C 2422.08 221.36 2422.07 221.36 2422.06 221.36 C 2421.21 221.36 2420.35 221.25 2419.53 221.03 C 2419.27 220.96 2419.05 220.8 2418.92 220.57 C 2418.78 220.34 2418.74 220.07 2418.81 219.81 C 2418.88 219.55 2419.04 219.33 2419.27 219.2 C 2419.5 219.07 2419.77 219.03 2420.03 219.1 C 2420.69 219.27 2421.37 219.36 2422.05 219.36 L 2422.05 219.36 L 2422.05 219.36 Z  M 2425.287 201.886 C 2428.409 202.958 2430.829 205.514 2431.71 208.72 C 2431.78 208.97 2431.74 209.25 2431.61 209.48 C 2431.48 209.71 2431.26 209.88 2431.01 209.95 C 2430.75 210.02 2430.48 209.98 2430.25 209.85 C 2430.02 209.72 2429.85 209.5 2429.78 209.25 C 2429.117 206.827 2427.351 204.873 2425.051 203.952 C 2424.801 204.466 2424.438 204.927 2423.98 205.28 C 2423.37 205.75 2422.62 206 2421.85 206 C 2421.54 206 2421.24 205.96 2420.94 205.88 C 2420.2 205.68 2419.54 205.24 2419.07 204.63 C 2418.6 204.02 2418.35 203.27 2418.35 202.5 C 2418.35 202.19 2418.39 201.89 2418.47 201.59 L 2418.47 201.59 C 2418.67 200.85 2419.11 200.19 2419.72 199.72 C 2420.33 199.25 2421.08 199 2421.85 199 C 2422.15 199 2422.46 199.04 2422.75 199.12 C 2423.5 199.32 2424.16 199.76 2424.62 200.37 C 2424.963 200.816 2425.195 201.336 2425.287 201.886 L 2425.287 201.886 L 2425.287 201.886 L 2425.287 201.886 Z  M 2414.89 217.42 C 2414.76 217.45 2414.63 217.47 2414.5 217.47 C 2413.82 217.47 2413.23 217.01 2413.05 216.36 C 2413.02 216.23 2413 216.1 2413 215.97 C 2413 215.29 2413.46 214.69 2414.11 214.52 C 2414.24 214.48 2414.37 214.47 2414.5 214.47 C 2415.18 214.47 2415.77 214.93 2415.95 215.58 C 2415.98 215.71 2416 215.84 2416 215.97 C 2416 216.64 2415.54 217.24 2414.89 217.42 L 2414.89 217.42 Z " fill-rule="evenodd" id="Fill-B" fill="rgb(117,117,117)"/><path d=" M 2431.933 217 L 2431.933 217 C 2431.825 217.744 2431.479 218.438 2430.939 218.97 C 2430.289 219.63 2429.399 220 2428.469 220 C 2428.195 220 2427.924 219.968 2427.662 219.906 L 2426.969 220.744 C 2427.438 220.91 2427.943 221 2428.469 221 C 2430.783 221 2432.692 219.249 2432.941 217 L 2434.969 217 L 2432.469 214 L 2429.969 217 L 2431.933 217 Z  M 2423.996 216 C 2424.245 213.751 2426.154 212 2428.469 212 C 2428.995 212 2429.5 212.09 2429.969 212.256 L 2429.969 212.256 L 2429.276 213.094 C 2429.014 213.032 2428.743 213 2428.469 213 C 2427.539 213 2426.649 213.37 2425.999 214.03 C 2425.458 214.562 2425.112 215.256 2425.005 216 L 2426.969 216 L 2424.469 219 L 2421.969 216 L 2423.996 216 L 2423.996 216 Z " fill-rule="evenodd" id="Fill-A" fill="rgb(77,77,77)"/></g></svg>