<?xml version="1.0" encoding="UTF-8" standalone="no"?><!-- Generator: Gravit.io --><svg xmlns="http://www.w3.org/2000/svg" xmlns:xlink="http://www.w3.org/1999/xlink" style="isolation:isolate" viewBox="2736.5 188.5 24 24" width="24" height="24"><g id="rotate-handle"><circle vector-effect="non-scaling-stroke" cx="2748.5" cy="200.49999999999991" r="11.5" id="Ellipse" fill="rgb(255,255,255)" stroke-width="1" stroke="rgb(74,134,232)" stroke-opacity="0.5" stroke-linejoin="miter" stroke-linecap="butt" stroke-miterlimit="3"/><path d=" M 2744.028 200 C 2744.277 197.751 2746.185 196 2748.5 196 C 2750.984 196 2753 198.016 2753 200.5 C 2753 202.984 2750.984 205 2748.5 205 C 2747.974 205 2747.469 204.91 2747 204.744 L 2747.693 203.906 C 2747.955 203.968 2748.226 204 2748.5 204 C 2749.43 204 2750.32 203.63 2750.97 202.97 C 2751.63 202.32 2752 201.43 2752 200.5 C 2752 199.57 2751.63 198.68 2750.97 198.03 C 2750.32 197.37 2749.43 197 2748.5 197 C 2747.57 197 2746.68 197.37 2746.03 198.03 C 2745.49 198.562 2745.144 199.256 2745.036 200 L 2747 200 L 2744.5 203 L 2742 200 L 2744.028 200 Z " id="Path" fill="rgb(74,134,232)"/></g></svg>