<?xml version="1.0" encoding="UTF-8" standalone="no"?><!-- Generator: Gravit.io --><svg xmlns="http://www.w3.org/2000/svg" xmlns:xlink="http://www.w3.org/1999/xlink" style="isolation:isolate" viewBox="928 131 24 24" width="24" height="24"><g id="save-cloud"><g opacity="0"><rect x="928" y="131" width="24" height="24" transform="matrix(1,0,0,1,0,0)" id="Icon Background" fill="rgb(37,86,132)"/></g><path d=" M 937 132 L 941 132 L 941 137 L 937 137 L 937 132 Z  M 947 146.39 L 947 136 L 943 132 L 942 132 L 942 138 L 933 138 L 932 137 L 932 132 L 929 132 L 929 150 L 932 150 L 932 144.571 C 932 143.152 933.152 142 934.571 142 L 941.429 142 C 942.848 142 944 143.152 944 144.571 L 944 146.095 C 944.327 146.032 944.662 146 945 146 C 945.696 146 946.374 146.137 947 146.39 Z " fill-rule="evenodd" id="Fill-B" fill="rgb(117,117,117)"/><path d=" M 949.5 155 L 945 155 L 941 155 C 941 155 941 155 941 155 C 939.344 155 938 153.656 938 152 C 938 150.344 939.344 149 941 149 C 941.173 149 941.343 149.015 941.505 149.051 C 942.191 147.828 943.5 147 945 147 C 946.891 147 948.477 148.315 948.882 150.083 C 949.079 150.027 949.286 150 949.5 150 C 950.88 150 952 151.12 952 152.5 C 952 153.88 950.88 155 949.5 155 L 949.5 155 Z  M 937.592 150 L 933 150 L 933 144.286 C 933 143.576 933.576 143 934.286 143 L 941.714 143 C 942.424 143 943 143.576 943 144.286 L 943 146.389 C 942.242 146.695 941.558 147.174 941.009 147.796 C 939.907 147.911 938.893 148.418 938.147 149.236 C 937.934 149.471 937.749 149.728 937.592 150 Z " fill-rule="evenodd" id="Fill-A" fill="rgb(77,77,77)"/></g></svg>