<?xml version="1.0" encoding="UTF-8" standalone="no"?><!-- Generator: Gravit.io --><svg xmlns="http://www.w3.org/2000/svg" xmlns:xlink="http://www.w3.org/1999/xlink" style="isolation:isolate" viewBox="778 1725 24 24" width="24" height="24"><g id="send-to-back"><g opacity="0"><rect x="778" y="1725" width="24" height="24" transform="matrix(1,0,0,1,0,0)" id="Icon Background" fill="rgb(37,86,132)"/></g><path d=" M 795 1735.7 L 789 1739 L 779 1733.5 L 789 1728 L 795 1731.3 L 795 1735.7 Z  M 792.471 1741.213 L 789 1743.14 L 779.51 1737.87 C 779.28 1737.75 779.11 1737.53 779.04 1737.27 C 778.97 1737.02 779 1736.75 779.13 1736.51 C 779.25 1736.28 779.47 1736.11 779.73 1736.04 C 779.98 1735.97 780.25 1736 780.49 1736.13 L 789 1740.86 L 792.288 1739.032 C 791.961 1739.589 792.003 1740.349 792.471 1741.213 L 792.471 1741.213 Z  M 793.94 1738.114 L 795 1737.525 L 795 1738.087 L 794.698 1738.079 C 794.426 1738.071 794.173 1738.083 793.94 1738.114 L 793.94 1738.114 Z " fill-rule="evenodd" id="Fill-B" fill="rgb(117,117,117)"/><path d=" M 797.008 1740 L 794.008 1740 L 797.508 1745 L 801.008 1740 L 798.008 1740 L 798.008 1731 L 797.008 1731 L 797.008 1740 Z  M 794.435 1744.122 L 789 1747.14 L 779.51 1741.87 C 779.28 1741.75 779.11 1741.53 779.04 1741.27 C 778.97 1741.02 779 1740.75 779.13 1740.51 C 779.25 1740.28 779.47 1740.11 779.73 1740.04 C 779.98 1739.97 780.25 1740 780.49 1740.13 L 789 1744.86 L 793.301 1742.469 L 794.435 1744.122 Z " fill-rule="evenodd" id="Fill-A" fill="rgb(77,77,77)"/></g></svg>