<?xml version="1.0" encoding="UTF-8" standalone="no"?><!-- Generator: Gravit.io --><svg xmlns="http://www.w3.org/2000/svg" xmlns:xlink="http://www.w3.org/1999/xlink" style="isolation:isolate" viewBox="1545 1057 24 24" width="24" height="24"><g id="show"><g opacity="0"><rect x="1545" y="1057" width="24" height="24" transform="matrix(1,0,0,1,0,0)" id="Icon Background" fill="rgb(37,86,132)"/></g><path d=" M 1554 1069.5 C 1554 1067.568 1555.568 1066 1557.5 1066 C 1559.432 1066 1561 1067.568 1561 1069.5 C 1561 1071.432 1559.432 1073 1557.5 1073 C 1555.568 1073 1554 1071.432 1554 1069.5 L 1554 1069.5 Z  M 1549 1069.5 Q 1552.539 1064 1557.5 1064 Q 1562.461 1064 1566 1069.5 Q 1562.32 1075 1557.5 1075 Q 1552.68 1075 1549 1069.5 L 1549 1069.5 Z  M 1556 1069.5 C 1556 1068.672 1556.672 1068 1557.5 1068 C 1558.328 1068 1559 1068.672 1559 1069.5 C 1559 1070.328 1558.328 1071 1557.5 1071 C 1556.672 1071 1556 1070.328 1556 1069.5 Z " fill-rule="evenodd" id="Fill-B" fill="rgb(117,117,117)"/></g></svg>