<?xml version="1.0" encoding="UTF-8" standalone="no"?><!-- Generator: Gravit.io --><svg xmlns="http://www.w3.org/2000/svg" xmlns:xlink="http://www.w3.org/1999/xlink" style="isolation:isolate" viewBox="2411 598 24 24" width="24" height="24"><g id="simplity"><g opacity="0"><rect x="2411" y="598" width="24" height="24" transform="matrix(1,0,0,1,0,0)" id="Icon Background" fill="rgb(37,86,132)"/></g><path d=" M 2423.39 606.65 C 2423.35 606.67 2423.31 606.7 2423.27 606.73 C 2423.05 606.9 2422.83 607.06 2422.59 607.2 C 2422.26 607.41 2421.88 607.52 2421.49 607.54 C 2420.93 607.53 2420.41 607.24 2420.1 606.77 C 2419.9 606.46 2419.76 606.13 2419.67 605.78 C 2419.59 605.47 2419.52 605.16 2419.47 604.84 C 2419.42 604.54 2419.35 604.25 2419.28 603.96 C 2419.22 603.75 2419.14 603.54 2419.03 603.35 C 2418.98 603.25 2418.9 603.17 2418.8 603.1 C 2418.66 603.03 2418.51 603 2418.35 603 C 2418.35 603 2418.35 603 2418.35 603 L 2418.24 603 C 2418.24 603 2418.23 603 2418.23 603 C 2417.99 603.01 2417.74 603.04 2417.51 603.12 C 2417.4 603.15 2417.31 603.21 2417.23 603.28 C 2417.13 603.38 2417.04 603.49 2416.98 603.61 C 2416.85 603.84 2416.74 604.07 2416.63 604.31 C 2416.27 605.15 2415.81 605.95 2415.28 606.7 C 2415.13 606.91 2414.9 607.06 2414.63 607.1 C 2414.37 607.15 2414.1 607.09 2413.89 606.93 C 2413.67 606.78 2413.53 606.54 2413.48 606.28 C 2413.44 606.02 2413.5 605.75 2413.65 605.54 C 2414.1 604.9 2414.49 604.23 2414.8 603.51 C 2414.93 603.22 2415.07 602.94 2415.22 602.66 C 2415.39 602.34 2415.61 602.06 2415.86 601.82 C 2416.16 601.54 2416.51 601.34 2416.9 601.21 C 2417.32 601.08 2417.76 601.01 2418.2 601 L 2418.3 601 C 2418.83 600.99 2419.35 601.12 2419.81 601.38 C 2420.21 601.62 2420.55 601.96 2420.78 602.37 C 2420.97 602.72 2421.12 603.09 2421.22 603.47 C 2421.3 603.81 2421.38 604.15 2421.44 604.49 C 2421.48 604.76 2421.54 605.03 2421.61 605.3 C 2421.62 605.34 2421.64 605.38 2421.65 605.43 C 2421.79 605.34 2421.92 605.25 2422.04 605.15 C 2422.21 605.03 2422.38 604.91 2422.55 604.8 C 2422.81 604.62 2423.11 604.52 2423.42 604.5 C 2423.77 604.48 2424.1 604.61 2424.35 604.85 C 2424.46 604.96 2424.58 605.05 2424.72 605.13 C 2424.85 604.93 2424.97 604.72 2425.07 604.5 C 2425.22 604.16 2425.4 603.85 2425.61 603.54 C 2425.92 603.07 2426.45 602.77 2427.02 602.74 C 2427.45 602.76 2427.87 602.91 2428.21 603.18 C 2428.77 603.6 2429.28 604.08 2429.75 604.59 C 2429.9 604.77 2430.06 604.93 2430.24 605.08 C 2430.29 605.1 2430.34 605.12 2430.39 605.12 C 2430.49 605.12 2430.59 605.1 2430.68 605.07 C 2430.89 605.01 2431.1 604.94 2431.3 604.84 C 2431.54 604.73 2431.82 604.72 2432.06 604.81 C 2432.31 604.91 2432.52 605.09 2432.63 605.33 C 2432.74 605.57 2432.75 605.85 2432.66 606.1 C 2432.57 606.35 2432.38 606.55 2432.14 606.66 C 2431.85 606.79 2431.55 606.9 2431.24 606.99 C 2430.97 607.07 2430.68 607.12 2430.4 607.12 C 2429.91 607.12 2429.44 606.97 2429.05 606.68 C 2428.76 606.45 2428.48 606.2 2428.24 605.91 C 2427.9 605.53 2427.53 605.19 2427.13 604.87 C 2427.04 605.01 2426.97 605.16 2426.9 605.31 C 2426.74 605.68 2426.54 606.03 2426.3 606.35 C 2425.96 606.85 2425.4 607.15 2424.8 607.18 C 2424.45 607.18 2424.1 607.08 2423.79 606.91 C 2423.65 606.83 2423.52 606.74 2423.39 606.65 Z " id="Fill-B" fill="rgb(117,117,117)"/><path d=" M 2422 610.968 L 2426 610.968 L 2424 612.968 L 2424 612.968 L 2422 610.968 Z  M 2415.18 618.18 C 2415.03 618.4 2414.79 618.54 2414.53 618.58 C 2414.27 618.62 2414 618.56 2413.79 618.4 C 2413.57 618.25 2413.43 618.01 2413.39 617.75 C 2413.35 617.49 2413.41 617.22 2413.57 617.01 C 2413.93 616.51 2414.33 616.03 2414.75 615.58 C 2415.09 615.21 2415.47 614.87 2415.87 614.57 C 2416.54 614.05 2417.35 613.75 2418.2 613.72 C 2418.64 613.72 2419.08 613.81 2419.5 613.98 C 2419.88 614.14 2420.24 614.34 2420.58 614.59 C 2421.23 615.09 2421.85 615.65 2422.41 616.25 C 2422.73 616.58 2423.09 616.86 2423.49 617.08 C 2423.67 617.19 2423.88 617.24 2424.09 617.25 C 2424.32 617.24 2424.55 617.17 2424.74 617.05 C 2425.07 616.84 2425.38 616.6 2425.67 616.34 C 2426.06 615.99 2426.48 615.68 2426.93 615.4 C 2427.47 615.06 2428.1 614.88 2428.74 614.86 C 2429.25 614.87 2429.76 614.98 2430.22 615.2 C 2430.77 615.46 2431.28 615.79 2431.73 616.19 C 2431.93 616.37 2432.05 616.62 2432.06 616.88 C 2432.08 617.15 2431.99 617.41 2431.81 617.6 C 2431.63 617.8 2431.38 617.92 2431.12 617.94 C 2430.86 617.95 2430.6 617.86 2430.4 617.69 C 2430.09 617.41 2429.75 617.19 2429.38 617.01 C 2429.18 616.92 2428.96 616.87 2428.75 616.86 C 2428.48 616.87 2428.21 616.95 2427.99 617.1 C 2427.64 617.31 2427.31 617.56 2427.01 617.83 C 2426.64 618.17 2426.24 618.47 2425.82 618.73 C 2425.3 619.06 2424.71 619.24 2424.1 619.25 C 2423.54 619.25 2423 619.1 2422.52 618.83 C 2421.94 618.51 2421.42 618.11 2420.96 617.63 C 2420.47 617.1 2419.94 616.62 2419.37 616.19 C 2419.18 616.04 2418.96 615.92 2418.74 615.83 C 2418.58 615.76 2418.4 615.73 2418.23 615.72 C 2417.81 615.75 2417.41 615.9 2417.09 616.16 C 2416.77 616.39 2416.48 616.65 2416.21 616.94 C 2415.84 617.33 2415.5 617.75 2415.18 618.18 Z " fill-rule="evenodd" id="Fill-A" fill="rgb(77,77,77)"/></g></svg>