<?xml version="1.0" encoding="UTF-8" standalone="no"?><!-- Generator: Gravit.io --><svg xmlns="http://www.w3.org/2000/svg" xmlns:xlink="http://www.w3.org/1999/xlink" style="isolation:isolate" viewBox="2411 664 24 24" width="24" height="24"><g id="split-path"><g opacity="0"><rect x="2411" y="664" width="24" height="24" transform="matrix(1,0,0,1,0,0)" id="Icon Background" fill="rgb(37,86,132)"/></g><path d=" M 2427 671 L 2427 664 L 2412 664 L 2412 664 L 2412 679 L 2419 679 L 2419 677 L 2414 677 L 2414 666 L 2414 666 L 2425 666 L 2425 671 L 2427 671 Z  M 2416 668 L 2420.243 668 L 2416 672.243 L 2416 668 Z " fill-rule="evenodd" id="Fill-B" fill="rgb(117,117,117)"/><path d=" M 2432 685 L 2423 685 C 2422.73 685 2422.48 684.89 2422.29 684.71 C 2422.11 684.52 2422 684.27 2422 684 L 2422 675 C 2422 674.73 2422.11 674.48 2422.29 674.29 C 2422.48 674.11 2422.73 674 2423 674 L 2432 674 C 2432.27 674 2432.52 674.11 2432.71 674.29 C 2432.89 674.48 2433 674.73 2433 675 L 2433 684 C 2433 684.27 2432.89 684.52 2432.71 684.71 C 2432.52 684.89 2432.27 685 2432 685 L 2432 685 Z  M 2423 672 L 2432 672 C 2432.8 672 2433.56 672.32 2434.12 672.88 C 2434.68 673.44 2435 674.2 2435 675 L 2435 684 C 2435 684.8 2434.68 685.56 2434.12 686.12 C 2433.56 686.68 2432.8 687 2432 687 L 2423 687 C 2422.2 687 2421.44 686.68 2420.88 686.12 C 2420.32 685.56 2420 684.8 2420 684 L 2420 675 C 2420 674.2 2420.32 673.44 2420.88 672.88 C 2421.44 672.32 2422.2 672 2423 672 L 2423 672 Z  M 2431.243 683.243 L 2431.243 679 L 2427 683.243 L 2431.243 683.243 Z " fill-rule="evenodd" id="Fill-A" fill="rgb(77,77,77)"/></g></svg>