<?xml version="1.0" encoding="UTF-8" standalone="no"?><!-- Generator: Gravit.io --><svg xmlns="http://www.w3.org/2000/svg" xmlns:xlink="http://www.w3.org/1999/xlink" style="isolation:isolate" viewBox="1150 1321 24 24" width="24" height="24"><g id="strikethrough-text"><g opacity="0"><rect x="1150" y="1321" width="24" height="24" transform="matrix(1,0,0,1,0,0)" id="Icon Background" fill="rgb(37,86,132)"/></g><path d=" M 1154 1332 L 1170 1332 L 1170 1333 L 1154 1333 L 1154 1332 Z " id="Fill-A" fill="rgb(77,77,77)"/><path d=" M 1164.073 1331 Q 1162.631 1329.991 1161.976 1329.46 L 1161.976 1329.46 L 1161.976 1329.46 Q 1161.28 1328.896 1160.92 1328.296 L 1160.92 1328.296 L 1160.92 1328.296 Q 1160.56 1327.696 1160.56 1326.88 L 1160.56 1326.88 L 1160.56 1326.88 Q 1160.56 1325.824 1161.232 1325.236 L 1161.232 1325.236 L 1161.232 1325.236 Q 1161.904 1324.648 1163.008 1324.648 L 1163.008 1324.648 L 1163.008 1324.648 Q 1164.208 1324.648 1165.12 1325.44 L 1165.12 1325.44 L 1165.12 1325.44 Q 1166.032 1326.232 1166.56 1327.48 L 1166.56 1327.48 L 1166.56 1327.48 Q 1167.088 1328.728 1167.184 1330.096 L 1167.184 1330.096 L 1167.736 1330.096 L 1167.736 1330.096 Q 1167.736 1325.968 1167.856 1324.24 L 1167.856 1324.24 L 1167.304 1324.24 L 1167.304 1324.24 Q 1167.232 1324.792 1167.112 1325.044 L 1167.112 1325.044 L 1167.112 1325.044 Q 1166.992 1325.296 1166.776 1325.296 L 1166.776 1325.296 L 1166.776 1325.296 Q 1166.632 1325.296 1166.428 1325.2 L 1166.428 1325.2 L 1166.428 1325.2 Q 1166.224 1325.104 1165.96 1324.96 L 1165.96 1324.96 L 1165.96 1324.96 Q 1165.144 1324.504 1164.292 1324.252 L 1164.292 1324.252 L 1164.292 1324.252 Q 1163.44 1324 1162.072 1324 L 1162.072 1324 L 1162.072 1324 Q 1160.464 1324 1159.108 1324.492 L 1159.108 1324.492 L 1159.108 1324.492 Q 1157.752 1324.984 1156.936 1326.004 L 1156.936 1326.004 L 1156.936 1326.004 Q 1156.12 1327.024 1156.12 1328.536 L 1156.12 1328.536 L 1156.12 1328.536 Q 1156.12 1329.784 1156.672 1330.732 L 1156.672 1330.732 L 1156.672 1330.732 Q 1156.751 1330.868 1156.837 1331 L 1164.073 1331 Z  M 1167.709 1334 Q 1167.972 1334.356 1168.18 1334.752 L 1168.18 1334.752 L 1168.18 1334.752 Q 1168.672 1335.688 1168.672 1336.912 L 1168.672 1336.912 L 1168.672 1336.912 Q 1168.672 1338.472 1167.796 1339.54 L 1167.796 1339.54 L 1167.796 1339.54 Q 1166.92 1340.608 1165.432 1341.136 L 1165.432 1341.136 L 1165.432 1341.136 Q 1163.944 1341.664 1162.144 1341.664 L 1162.144 1341.664 L 1162.144 1341.664 Q 1160.68 1341.664 1159.708 1341.424 L 1159.708 1341.424 L 1159.708 1341.424 Q 1158.736 1341.184 1157.896 1340.776 L 1157.896 1340.776 L 1157.896 1340.776 Q 1157.368 1340.44 1157.08 1340.44 L 1157.08 1340.44 L 1157.08 1340.44 Q 1156.864 1340.44 1156.744 1340.692 L 1156.744 1340.692 L 1156.744 1340.692 Q 1156.624 1340.944 1156.552 1341.496 L 1156.552 1341.496 L 1156 1341.496 L 1156 1341.496 Q 1156.096 1339.864 1156.096 1334.536 L 1156.096 1334.536 L 1156.648 1334.536 L 1156.648 1334.536 Q 1156.816 1337.392 1157.848 1339.168 L 1157.848 1339.168 L 1157.848 1339.168 Q 1158.88 1340.944 1161.016 1340.944 L 1161.016 1340.944 L 1161.016 1340.944 Q 1162.336 1340.944 1163.116 1340.32 L 1163.116 1340.32 L 1163.116 1340.32 Q 1163.896 1339.696 1163.896 1338.592 L 1163.896 1338.592 L 1163.896 1338.592 Q 1163.896 1337.224 1163.044 1336.252 L 1163.044 1336.252 L 1163.044 1336.252 Q 1162.192 1335.28 1160.392 1334.08 L 1160.392 1334.08 L 1160.392 1334.08 Q 1160.332 1334.04 1160.273 1334 L 1167.709 1334 Z " fill-rule="evenodd" id="Fill-B" fill="rgb(117,117,117)"/></g></svg>