<?xml version="1.0" encoding="UTF-8" standalone="no"?><!-- Generator: Gravit.io --><svg xmlns="http://www.w3.org/2000/svg" xmlns:xlink="http://www.w3.org/1999/xlink" style="isolation:isolate" viewBox="778 1255 24 24" width="24" height="24"><g id="subtract"><g opacity="0"><rect x="778" y="1255" width="24" height="24" transform="matrix(1,0,0,1,0,0)" id="Icon Background" fill="rgb(37,86,132)"/></g><path d=" M 792.5 1276 L 792.5 1276 C 792.776 1276 793 1276.224 793 1276.5 L 793 1276.5 C 793 1276.776 792.776 1277 792.5 1277 L 792.5 1277 C 792.224 1277 792 1276.776 792 1276.5 L 792 1276.5 C 792 1276.224 792.224 1276 792.5 1276 L 792.5 1276 L 792.5 1276 L 792.5 1276 L 792.5 1276 L 792.5 1276 L 792.5 1276 L 792.5 1276 L 792.5 1276 L 792.5 1276 L 792.5 1276 L 792.5 1276 L 792.5 1276 L 792.5 1276 L 792.5 1276 Z  M 788.5 1274 L 788.5 1274 C 788.776 1274 789 1274.224 789 1274.5 L 789 1274.5 C 789 1274.776 788.776 1275 788.5 1275 L 788.5 1275 C 788.224 1275 788 1274.776 788 1274.5 L 788 1274.5 C 788 1274.224 788.224 1274 788.5 1274 L 788.5 1274 L 788.5 1274 L 788.5 1274 L 788.5 1274 L 788.5 1274 L 788.5 1274 L 788.5 1274 L 788.5 1274 L 788.5 1274 L 788.5 1274 L 788.5 1274 L 788.5 1274 L 788.5 1274 L 788.5 1274 L 788.5 1274 L 788.5 1274 L 788.5 1274 L 788.5 1274 L 788.5 1274 Z  M 788.5 1276 L 788.5 1276 C 788.776 1276 789 1276.224 789 1276.5 L 789 1276.5 C 789 1276.776 788.776 1277 788.5 1277 L 788.5 1277 C 788.224 1277 788 1276.776 788 1276.5 L 788 1276.5 C 788 1276.224 788.224 1276 788.5 1276 L 788.5 1276 L 788.5 1276 L 788.5 1276 L 788.5 1276 L 788.5 1276 L 788.5 1276 L 788.5 1276 L 788.5 1276 L 788.5 1276 L 788.5 1276 L 788.5 1276 L 788.5 1276 L 788.5 1276 L 788.5 1276 L 788.5 1276 L 788.5 1276 L 788.5 1276 L 788.5 1276 Z  M 790.5 1276 L 790.5 1276 C 790.776 1276 791 1276.224 791 1276.5 L 791 1276.5 C 791 1276.776 790.776 1277 790.5 1277 L 790.5 1277 C 790.224 1277 790 1276.776 790 1276.5 L 790 1276.5 C 790 1276.224 790.224 1276 790.5 1276 L 790.5 1276 L 790.5 1276 L 790.5 1276 L 790.5 1276 L 790.5 1276 L 790.5 1276 L 790.5 1276 L 790.5 1276 L 790.5 1276 L 790.5 1276 L 790.5 1276 L 790.5 1276 L 790.5 1276 L 790.5 1276 L 790.5 1276 L 790.5 1276 Z  M 794.5 1276 L 794.5 1276 C 794.776 1276 795 1276.224 795 1276.5 L 795 1276.5 C 795 1276.776 794.776 1277 794.5 1277 L 794.5 1277 C 794.224 1277 794 1276.776 794 1276.5 L 794 1276.5 C 794 1276.224 794.224 1276 794.5 1276 L 794.5 1276 L 794.5 1276 L 794.5 1276 L 794.5 1276 L 794.5 1276 L 794.5 1276 L 794.5 1276 L 794.5 1276 L 794.5 1276 L 794.5 1276 L 794.5 1276 L 794.5 1276 Z  M 796.5 1276 L 796.5 1276 C 796.776 1276 797 1276.224 797 1276.5 L 797 1276.5 C 797 1276.776 796.776 1277 796.5 1277 L 796.5 1277 C 796.224 1277 796 1276.776 796 1276.5 L 796 1276.5 C 796 1276.224 796.224 1276 796.5 1276 L 796.5 1276 L 796.5 1276 L 796.5 1276 L 796.5 1276 L 796.5 1276 L 796.5 1276 L 796.5 1276 L 796.5 1276 L 796.5 1276 L 796.5 1276 Z  M 798.5 1264 L 798.5 1264 C 798.776 1264 799 1264.224 799 1264.5 L 799 1264.5 C 799 1264.776 798.776 1265 798.5 1265 L 798.5 1265 C 798.224 1265 798 1264.776 798 1264.5 L 798 1264.5 C 798 1264.224 798.224 1264 798.5 1264 L 798.5 1264 L 798.5 1264 L 798.5 1264 L 798.5 1264 L 798.5 1264 L 798.5 1264 L 798.5 1264 L 798.5 1264 L 798.5 1264 Z  M 798.5 1276 L 798.5 1276 C 798.776 1276 799 1276.224 799 1276.5 L 799 1276.5 C 799 1276.776 798.776 1277 798.5 1277 L 798.5 1277 C 798.224 1277 798 1276.776 798 1276.5 L 798 1276.5 C 798 1276.224 798.224 1276 798.5 1276 L 798.5 1276 L 798.5 1276 L 798.5 1276 L 798.5 1276 L 798.5 1276 L 798.5 1276 L 798.5 1276 L 798.5 1276 Z  M 800.5 1264 L 800.5 1264 C 800.776 1264 801 1264.224 801 1264.5 L 801 1264.5 C 801 1264.776 800.776 1265 800.5 1265 L 800.5 1265 C 800.224 1265 800 1264.776 800 1264.5 L 800 1264.5 C 800 1264.224 800.224 1264 800.5 1264 L 800.5 1264 L 800.5 1264 L 800.5 1264 L 800.5 1264 L 800.5 1264 L 800.5 1264 L 800.5 1264 Z  M 800.5 1266 L 800.5 1266 C 800.776 1266 801 1266.224 801 1266.5 L 801 1266.5 C 801 1266.776 800.776 1267 800.5 1267 L 800.5 1267 C 800.224 1267 800 1266.776 800 1266.5 L 800 1266.5 C 800 1266.224 800.224 1266 800.5 1266 L 800.5 1266 L 800.5 1266 L 800.5 1266 L 800.5 1266 L 800.5 1266 L 800.5 1266 Z  M 800.5 1268 L 800.5 1268 C 800.776 1268 801 1268.224 801 1268.5 L 801 1268.5 C 801 1268.776 800.776 1269 800.5 1269 L 800.5 1269 C 800.224 1269 800 1268.776 800 1268.5 L 800 1268.5 C 800 1268.224 800.224 1268 800.5 1268 L 800.5 1268 L 800.5 1268 L 800.5 1268 L 800.5 1268 L 800.5 1268 Z  M 800.5 1270 L 800.5 1270 C 800.776 1270 801 1270.224 801 1270.5 L 801 1270.5 C 801 1270.776 800.776 1271 800.5 1271 L 800.5 1271 C 800.224 1271 800 1270.776 800 1270.5 L 800 1270.5 C 800 1270.224 800.224 1270 800.5 1270 L 800.5 1270 L 800.5 1270 L 800.5 1270 L 800.5 1270 Z  M 800.5 1272 L 800.5 1272 C 800.776 1272 801 1272.224 801 1272.5 L 801 1272.5 C 801 1272.776 800.776 1273 800.5 1273 L 800.5 1273 C 800.224 1273 800 1272.776 800 1272.5 L 800 1272.5 C 800 1272.224 800.224 1272 800.5 1272 L 800.5 1272 L 800.5 1272 L 800.5 1272 Z  M 800.5 1274 L 800.5 1274 C 800.776 1274 801 1274.224 801 1274.5 L 801 1274.5 C 801 1274.776 800.776 1275 800.5 1275 L 800.5 1275 C 800.224 1275 800 1274.776 800 1274.5 L 800 1274.5 C 800 1274.224 800.224 1274 800.5 1274 L 800.5 1274 L 800.5 1274 Z  M 800.5 1276 L 800.5 1276 C 800.776 1276 801 1276.224 801 1276.5 L 801 1276.5 C 801 1276.776 800.776 1277 800.5 1277 L 800.5 1277 C 800.224 1277 800 1276.776 800 1276.5 L 800 1276.5 C 800 1276.224 800.224 1276 800.5 1276 L 800.5 1276 Z  M 796.986 1264 C 796.726 1259.541 793.023 1256 788.5 1256 L 788.5 1256 C 783.809 1256 780 1259.809 780 1264.5 L 780 1264.5 C 780 1269.023 783.541 1272.726 788 1272.985 L 788 1264 L 796.986 1264 L 796.986 1264 Z  M 796.953 1270 L 796.953 1271 L 791.953 1271 L 791.953 1270 L 796.953 1270 L 796.953 1270 Z " fill-rule="evenodd" id="Fill-B" fill="rgb(117,117,117)"/></g></svg>