<?xml version="1.0" encoding="UTF-8" standalone="no"?><!-- Generator: Gravit.io --><svg xmlns="http://www.w3.org/2000/svg" xmlns:xlink="http://www.w3.org/1999/xlink" style="isolation:isolate" viewBox="1150 1725 24 24" width="24" height="24"><g id="supscript-text"><g opacity="0"><rect x="1150" y="1725" width="24" height="24" transform="matrix(1,0,0,1,0,0)" id="Icon Background" fill="rgb(37,86,132)"/></g><path d=" M 1160.072 1728 L 1160.072 1728 Q 1161.44 1728 1162.292 1728.252 L 1162.292 1728.252 L 1162.292 1728.252 Q 1163.144 1728.504 1163.96 1728.96 L 1163.96 1728.96 L 1163.96 1728.96 Q 1164.224 1729.104 1164.428 1729.2 L 1164.428 1729.2 L 1164.428 1729.2 Q 1164.632 1729.296 1164.776 1729.296 L 1164.776 1729.296 L 1164.776 1729.296 Q 1164.992 1729.296 1165.112 1729.044 L 1165.112 1729.044 L 1165.112 1729.044 Q 1165.232 1728.792 1165.304 1728.24 L 1165.304 1728.24 L 1165.856 1728.24 L 1165.856 1728.24 Q 1165.736 1729.968 1165.736 1734.096 L 1165.736 1734.096 L 1165.184 1734.096 L 1165.184 1734.096 Q 1165.088 1732.728 1164.56 1731.48 L 1164.56 1731.48 L 1164.56 1731.48 Q 1164.032 1730.232 1163.12 1729.44 L 1163.12 1729.44 L 1163.12 1729.44 Q 1162.208 1728.648 1161.008 1728.648 L 1161.008 1728.648 L 1161.008 1728.648 Q 1159.904 1728.648 1159.232 1729.236 L 1159.232 1729.236 L 1159.232 1729.236 Q 1158.56 1729.824 1158.56 1730.88 L 1158.56 1730.88 L 1158.56 1730.88 Q 1158.56 1731.696 1158.92 1732.296 L 1158.92 1732.296 L 1158.92 1732.296 Q 1159.28 1732.896 1159.976 1733.46 L 1159.976 1733.46 L 1159.976 1733.46 Q 1160.672 1734.024 1162.256 1735.128 L 1162.256 1735.128 L 1162.256 1735.128 Q 1162.4 1735.2 1162.532 1735.296 L 1162.532 1735.296 L 1162.532 1735.296 Q 1162.664 1735.392 1162.784 1735.488 L 1162.784 1735.488 L 1162.784 1735.488 Q 1164.104 1736.4 1164.896 1737.108 L 1164.896 1737.108 L 1164.896 1737.108 Q 1165.688 1737.816 1166.18 1738.752 L 1166.18 1738.752 L 1166.18 1738.752 Q 1166.672 1739.688 1166.672 1740.912 L 1166.672 1740.912 L 1166.672 1740.912 Q 1166.672 1742.472 1165.796 1743.54 L 1165.796 1743.54 L 1165.796 1743.54 Q 1164.92 1744.608 1163.432 1745.136 L 1163.432 1745.136 L 1163.432 1745.136 Q 1161.944 1745.664 1160.144 1745.664 L 1160.144 1745.664 L 1160.144 1745.664 Q 1158.68 1745.664 1157.708 1745.424 L 1157.708 1745.424 L 1157.708 1745.424 Q 1156.736 1745.184 1155.896 1744.776 L 1155.896 1744.776 L 1155.896 1744.776 Q 1155.368 1744.44 1155.08 1744.44 L 1155.08 1744.44 L 1155.08 1744.44 Q 1154.864 1744.44 1154.744 1744.692 L 1154.744 1744.692 L 1154.744 1744.692 Q 1154.624 1744.944 1154.552 1745.496 L 1154.552 1745.496 L 1154 1745.496 L 1154 1745.496 Q 1154.096 1743.864 1154.096 1738.536 L 1154.096 1738.536 L 1154.648 1738.536 L 1154.648 1738.536 Q 1154.816 1741.392 1155.848 1743.168 L 1155.848 1743.168 L 1155.848 1743.168 Q 1156.88 1744.944 1159.016 1744.944 L 1159.016 1744.944 L 1159.016 1744.944 Q 1160.336 1744.944 1161.116 1744.32 L 1161.116 1744.32 L 1161.116 1744.32 Q 1161.896 1743.696 1161.896 1742.592 L 1161.896 1742.592 L 1161.896 1742.592 Q 1161.896 1741.224 1161.044 1740.252 L 1161.044 1740.252 L 1161.044 1740.252 Q 1160.192 1739.28 1158.392 1738.08 L 1158.392 1738.08 L 1158.392 1738.08 Q 1156.952 1737.12 1156.088 1736.4 L 1156.088 1736.4 L 1156.088 1736.4 Q 1155.224 1735.68 1154.672 1734.732 L 1154.672 1734.732 L 1154.672 1734.732 Q 1154.12 1733.784 1154.12 1732.536 L 1154.12 1732.536 L 1154.12 1732.536 Q 1154.12 1731.024 1154.936 1730.004 L 1154.936 1730.004 L 1154.936 1730.004 Q 1155.752 1728.984 1157.108 1728.492 L 1157.108 1728.492 L 1157.108 1728.492 Q 1158.464 1728 1160.072 1728 L 1160.072 1728 Z " id="Fill-B" fill="rgb(117,117,117)"/><path d=" M 1170.5 1727 L 1170.5 1727 C 1171.88 1727 1173 1728.12 1173 1729.5 L 1173 1729.5 C 1173 1730.88 1171.88 1732 1170.5 1732 L 1170.5 1732 C 1169.12 1732 1168 1730.88 1168 1729.5 L 1168 1729.5 C 1168 1728.12 1169.12 1727 1170.5 1727 Z " id="Fill-A" fill="rgb(77,77,77)"/></g></svg>