<?xml version="1.0" encoding="UTF-8" standalone="no"?><!-- Generator: Gravit.io --><svg xmlns="http://www.w3.org/2000/svg" xmlns:xlink="http://www.w3.org/1999/xlink" style="isolation:isolate" viewBox="1150 2718 24 24" width="24" height="24"><g id="symbol-master-small"><g opacity="0"><rect x="1150" y="2718" width="24" height="24" transform="matrix(1,0,0,1,0,0)" id="Icon Background" fill="rgb(37,86,132)"/></g><path d=" M 1165.998 2733.634 L 1165.998 2731.5 C 1165.998 2731.224 1166.222 2731 1166.498 2731 L 1166.498 2731 L 1166.498 2731 C 1166.774 2731 1166.998 2731.224 1166.998 2731.5 L 1166.998 2733.634 L 1166.998 2733.634 L 1168.846 2732.567 C 1169.085 2732.429 1169.391 2732.511 1169.529 2732.75 L 1169.529 2732.75 C 1169.667 2732.989 1169.585 2733.295 1169.346 2733.433 L 1167.498 2734.5 L 1169.346 2735.567 C 1169.585 2735.705 1169.667 2736.011 1169.529 2736.25 L 1169.529 2736.25 C 1169.391 2736.489 1169.085 2736.571 1168.846 2736.433 L 1166.998 2735.366 L 1166.998 2737.5 C 1166.998 2737.776 1166.774 2738 1166.498 2738 L 1166.498 2738 C 1166.222 2738 1165.998 2737.776 1165.998 2737.5 L 1165.998 2735.366 L 1164.15 2736.433 C 1163.911 2736.571 1163.605 2736.489 1163.467 2736.25 L 1163.467 2736.25 C 1163.329 2736.011 1163.411 2735.705 1163.65 2735.567 L 1165.498 2734.5 L 1163.65 2733.433 C 1163.411 2733.295 1163.329 2732.989 1163.467 2732.75 L 1163.467 2732.75 C 1163.605 2732.511 1163.911 2732.429 1164.15 2732.567 L 1165.998 2733.634 Z  M 1156.012 2731.726 L 1156.012 2731.726 C 1155.979 2731.461 1155.96 2731.192 1155.96 2730.92 C 1155.96 2729.19 1156.7 2727.53 1157.98 2726.36 C 1158.08 2726.27 1158.14 2726.14 1158.15 2726.01 C 1158.15 2725.88 1158.11 2725.75 1158.02 2725.65 C 1157.93 2725.55 1157.8 2725.49 1157.67 2725.49 C 1157.54 2725.48 1157.41 2725.53 1157.31 2725.62 C 1155.82 2726.98 1154.96 2728.9 1154.96 2730.92 C 1154.96 2731.323 1154.991 2731.72 1155.063 2732.11 C 1154.857 2732.223 1154.681 2732.384 1154.53 2732.57 C 1154.19 2732.99 1154 2733.51 1154 2734.05 C 1154 2734.22 1154.02 2734.38 1154.05 2734.55 C 1154.16 2735.07 1154.45 2735.55 1154.87 2735.89 C 1155.29 2736.23 1155.82 2736.41 1156.36 2736.41 C 1156.52 2736.41 1156.68 2736.39 1156.85 2736.36 C 1157.37 2736.25 1157.85 2735.96 1158.19 2735.54 C 1158.53 2735.12 1158.71 2734.6 1158.71 2734.06 C 1158.71 2733.89 1158.7 2733.73 1158.66 2733.57 C 1158.55 2733.04 1158.26 2732.56 1157.84 2732.22 C 1157.42 2731.88 1156.9 2731.7 1156.36 2731.7 C 1156.24 2731.7 1156.126 2731.71 1156.012 2731.726 L 1156.012 2731.726 L 1156.012 2731.726 L 1156.012 2731.726 Z  M 1164.514 2725.222 L 1164.514 2725.222 C 1166.371 2725.995 1167.745 2727.632 1168.18 2729.62 C 1168.21 2729.74 1168.29 2729.86 1168.4 2729.93 C 1168.51 2730 1168.65 2730.03 1168.78 2730 C 1168.91 2729.97 1169.02 2729.89 1169.09 2729.78 C 1169.16 2729.67 1169.19 2729.53 1169.16 2729.4 C 1168.634 2727.018 1166.945 2725.065 1164.672 2724.209 C 1164.614 2723.251 1163.972 2722.415 1163.06 2722.12 C 1162.82 2722.04 1162.57 2722 1162.33 2722 C 1161.31 2722 1160.4 2722.66 1160.09 2723.63 C 1160.01 2723.86 1159.97 2724.11 1159.97 2724.36 C 1159.97 2725.37 1160.63 2726.28 1161.6 2726.6 C 1161.83 2726.67 1162.08 2726.71 1162.33 2726.71 C 1163.289 2726.71 1164.158 2726.115 1164.514 2725.222 L 1164.514 2725.222 L 1164.514 2725.222 L 1164.514 2725.222 L 1164.514 2725.222 L 1164.514 2725.222 Z  M 1163.055 2738.044 C 1162.755 2738.091 1162.448 2738.11 1162.14 2738.11 C 1161.4 2738.11 1160.67 2738 1159.96 2737.77 C 1159.83 2737.73 1159.73 2737.65 1159.67 2737.53 C 1159.61 2737.41 1159.59 2737.27 1159.63 2737.15 C 1159.67 2737.02 1159.76 2736.91 1159.88 2736.85 C 1160 2736.79 1160.14 2736.78 1160.26 2736.82 C 1160.87 2737.01 1161.51 2737.11 1162.14 2737.11 C 1162.247 2737.11 1162.353 2737.107 1162.459 2737.1 C 1162.619 2737.44 1162.823 2737.754 1163.055 2738.044 L 1163.055 2738.044 L 1163.055 2738.044 L 1163.055 2738.044 L 1163.055 2738.044 L 1163.055 2738.044 L 1163.055 2738.044 Z " fill-rule="evenodd" id="Fill-B" fill="rgb(117,117,117)"/></g></svg>