<?xml version="1.0" encoding="UTF-8" standalone="no"?><!-- Generator: Gravit.io --><svg xmlns="http://www.w3.org/2000/svg" xmlns:xlink="http://www.w3.org/1999/xlink" style="isolation:isolate" viewBox="1150 3114 24 24" width="24" height="24"><g id="text-small"><g opacity="0"><rect x="1150" y="3114" width="24" height="24" transform="matrix(1,0,0,1,0,0)" id="Icon Background" fill="rgb(37,86,132)"/></g><path d=" M 1168.912 3119 L 1168.912 3119 Q 1168.774 3121.195 1168.774 3122.915 L 1168.774 3122.915 L 1168.774 3122.915 Q 1168.774 3123.825 1168.833 3124.339 L 1168.833 3124.339 L 1168.378 3124.339 L 1168.378 3124.339 Q 1167.726 3121.749 1166.698 3120.602 L 1166.698 3120.602 L 1166.698 3120.602 Q 1165.669 3119.455 1164.483 3119.455 L 1164.483 3119.455 L 1164.463 3119.455 L 1164.463 3130.766 L 1164.463 3130.766 Q 1164.463 3131.596 1164.631 3131.972 L 1164.631 3131.972 L 1164.631 3131.972 Q 1164.799 3132.347 1165.244 3132.476 L 1165.244 3132.476 L 1165.244 3132.476 Q 1165.689 3132.605 1166.658 3132.605 L 1166.658 3132.605 L 1166.658 3133 L 1166.658 3133 Q 1163.87 3132.941 1162.328 3132.941 L 1162.328 3132.941 L 1162.328 3132.941 Q 1160.924 3132.941 1158.254 3133 L 1158.254 3133 L 1158.254 3132.605 L 1158.254 3132.605 Q 1159.223 3132.605 1159.668 3132.476 L 1159.668 3132.476 L 1159.668 3132.476 Q 1160.113 3132.347 1160.281 3131.972 L 1160.281 3131.972 L 1160.281 3131.972 Q 1160.449 3131.596 1160.449 3130.766 L 1160.449 3130.766 L 1160.449 3119.455 L 1160.429 3119.455 L 1160.429 3119.455 Q 1159.223 3119.455 1158.205 3120.592 L 1158.205 3120.592 L 1158.205 3120.592 Q 1157.186 3121.729 1156.534 3124.339 L 1156.534 3124.339 L 1156.079 3124.339 L 1156.079 3124.339 Q 1156.138 3123.825 1156.138 3122.915 L 1156.138 3122.915 L 1156.138 3122.915 Q 1156.138 3121.195 1156 3119 L 1156 3119 L 1156 3119 Q 1157.879 3119.059 1162.466 3119.059 L 1162.466 3119.059 L 1162.466 3119.059 Q 1167.034 3119.059 1168.912 3119 L 1168.912 3119 Z " id="Fill-B" fill="rgb(117,117,117)"/></g></svg>