<?xml version="1.0" encoding="UTF-8" standalone="no"?><!-- Generator: Gravit.io --><svg xmlns="http://www.w3.org/2000/svg" xmlns:xlink="http://www.w3.org/1999/xlink" style="isolation:isolate" viewBox="1978 2780.98 24 24.02" width="24" height="24.02pt"><g id="transform-panel-old"><g opacity="0"><rect x="1978" y="2781" width="24" height="24" transform="matrix(1,0,0,1,0,0)" id="Icon Background" fill="rgb(37,86,132)"/></g><path d=" M 1992 2799.98 L 1997.75 2799.98 C 1998.61 2799.98 1999.44 2799.64 2000.05 2799.03 C 2000.66 2798.42 2001 2797.59 2001 2796.73 L 2001 2784.23 C 2001 2783.37 2000.66 2782.54 2000.05 2781.93 C 1999.44 2781.32 1998.61 2780.98 1997.75 2780.98 L 1985.25 2780.98 L 1985.25 2780.98 C 1984.39 2780.98 1983.56 2781.32 1982.95 2781.93 C 1982.34 2782.54 1982 2783.37 1982 2784.23 L 1982 2789.98 L 1984 2789.98 L 1984 2784.23 C 1984 2783.9 1984.13 2783.58 1984.37 2783.35 C 1984.6 2783.11 1984.92 2782.98 1985.25 2782.98 L 1985.25 2782.98 L 1997.75 2782.98 C 1998.08 2782.98 1998.4 2783.11 1998.63 2783.35 C 1998.87 2783.58 1999 2783.9 1999 2784.23 L 1999 2796.73 C 1999 2797.06 1998.87 2797.38 1998.63 2797.61 C 1998.4 2797.85 1998.08 2797.98 1997.75 2797.98 L 1992 2797.98 L 1992 2799.98 Z " id="Fill-AFill-AFill-AFill-Avvvvvvvvvvvvvvvvvvvvvvvvvvvvvvvvvvvvvvvvvv" fill="rgb(77,77,77)"/><path d=" M 1994 2789.4 L 1989.867 2793.533 C 1989.954 2793.778 1990 2794.037 1990 2794.3 L 1990 2801.66 C 1990 2802.27 1989.75 2802.86 1989.32 2803.3 C 1988.88 2803.73 1988.29 2803.98 1987.68 2803.98 L 1980.32 2803.98 C 1979.71 2803.98 1979.12 2803.73 1978.68 2803.3 C 1978.25 2802.86 1978 2802.27 1978 2801.66 L 1978 2794.3 C 1978 2793.69 1978.25 2793.1 1978.68 2792.66 C 1979.12 2792.23 1979.71 2791.98 1980.32 2791.98 L 1980.32 2791.98 L 1987.68 2791.98 C 1987.943 2791.98 1988.202 2792.026 1988.447 2792.114 L 1988.447 2792.114 L 1992.58 2787.98 L 1991 2787.98 C 1990.73 2787.98 1990.48 2787.87 1990.29 2787.69 C 1990.11 2787.5 1990 2787.25 1990 2786.98 C 1990 2786.71 1990.11 2786.46 1990.29 2786.27 C 1990.48 2786.09 1990.73 2785.98 1991 2785.98 L 1996 2785.98 L 1996 2790.98 C 1996 2791.25 1995.89 2791.5 1995.71 2791.69 C 1995.52 2791.87 1995.27 2791.98 1995 2791.98 C 1994.73 2791.98 1994.48 2791.87 1994.29 2791.69 C 1994.11 2791.5 1994 2791.25 1994 2790.98 L 1994 2789.4 Z  M 1980.32 2793.98 L 1987.68 2793.98 C 1987.76 2793.98 1987.84 2794.01 1987.9 2794.08 C 1987.97 2794.14 1988 2794.22 1988 2794.3 L 1988 2801.66 C 1988 2801.74 1987.97 2801.82 1987.9 2801.88 C 1987.84 2801.95 1987.76 2801.98 1987.68 2801.98 L 1980.32 2801.98 C 1980.24 2801.98 1980.16 2801.95 1980.1 2801.88 C 1980.03 2801.82 1980 2801.74 1980 2801.66 L 1980 2794.3 C 1980 2794.22 1980.03 2794.14 1980.1 2794.08 C 1980.16 2794.01 1980.24 2793.98 1980.32 2793.98 L 1980.32 2793.98 L 1980.32 2793.98 Z " fill-rule="evenodd" id="Fill-B" fill="rgb(117,117,117)"/></g></svg>