<?xml version="1.0" encoding="UTF-8" standalone="no"?><!-- Generator: Gravit.io --><svg xmlns="http://www.w3.org/2000/svg" xmlns:xlink="http://www.w3.org/1999/xlink" style="isolation:isolate" viewBox="1938 2781 24 24" width="24" height="24"><g id="transform-panel"><g opacity="0"><rect x="1938" y="2781" width="24" height="24" transform="matrix(1,0,0,1,0,0)" id="Icon Background" fill="rgb(37,86,132)"/></g><path d=" M 1953 2800.98 L 1957.75 2800.98 C 1958.61 2800.98 1959.44 2800.64 1960.05 2800.03 C 1960.66 2799.42 1961 2798.59 1961 2797.73 L 1961 2785.23 C 1961 2784.37 1960.66 2783.54 1960.05 2782.93 C 1959.44 2782.32 1958.61 2781.98 1957.75 2781.98 L 1945.25 2781.98 L 1945.25 2781.98 C 1944.39 2781.98 1943.56 2782.32 1942.95 2782.93 C 1942.34 2783.54 1942 2784.37 1942 2785.23 L 1942 2789.98 L 1944 2789.98 L 1944 2785.23 C 1944 2784.9 1944.13 2784.58 1944.37 2784.35 C 1944.6 2784.11 1944.92 2783.98 1945.25 2783.98 L 1945.25 2783.98 L 1957.75 2783.98 C 1958.08 2783.98 1958.4 2784.11 1958.63 2784.35 C 1958.87 2784.58 1959 2784.9 1959 2785.23 L 1959 2797.73 C 1959 2798.06 1958.87 2798.38 1958.63 2798.61 C 1958.4 2798.85 1958.08 2798.98 1957.75 2798.98 L 1953 2798.98 L 1953 2800.98 Z " id="Fill-A" fill="rgb(77,77,77)"/><path d=" M 1954 2790.4 L 1950.867 2793.533 C 1950.954 2793.778 1951 2794.037 1951 2794.3 L 1951 2801.66 C 1951 2802.27 1950.75 2802.86 1950.32 2803.3 C 1949.88 2803.73 1949.29 2803.98 1948.68 2803.98 L 1941.32 2803.98 C 1940.71 2803.98 1940.12 2803.73 1939.68 2803.3 C 1939.25 2802.86 1939 2802.27 1939 2801.66 L 1939 2794.3 C 1939 2793.69 1939.25 2793.1 1939.68 2792.66 C 1940.12 2792.23 1940.71 2791.98 1941.32 2791.98 L 1941.32 2791.98 L 1948.68 2791.98 C 1948.943 2791.98 1949.202 2792.026 1949.447 2792.114 L 1949.447 2792.114 L 1952.58 2788.98 L 1951 2788.98 C 1950.73 2788.98 1950.48 2788.87 1950.29 2788.69 C 1950.11 2788.5 1950 2788.25 1950 2787.98 C 1950 2787.71 1950.11 2787.46 1950.29 2787.27 C 1950.48 2787.09 1950.73 2786.98 1951 2786.98 L 1956 2786.98 L 1956 2791.98 C 1956 2792.25 1955.89 2792.5 1955.71 2792.69 C 1955.52 2792.87 1955.27 2792.98 1955 2792.98 C 1954.73 2792.98 1954.48 2792.87 1954.29 2792.69 C 1954.11 2792.5 1954 2792.25 1954 2791.98 L 1954 2790.4 Z  M 1941.32 2793.98 L 1948.68 2793.98 C 1948.76 2793.98 1948.84 2794.01 1948.9 2794.08 C 1948.97 2794.14 1949 2794.22 1949 2794.3 L 1949 2801.66 C 1949 2801.74 1948.97 2801.82 1948.9 2801.88 C 1948.84 2801.95 1948.76 2801.98 1948.68 2801.98 L 1941.32 2801.98 C 1941.24 2801.98 1941.16 2801.95 1941.1 2801.88 C 1941.03 2801.82 1941 2801.74 1941 2801.66 L 1941 2794.3 C 1941 2794.22 1941.03 2794.14 1941.1 2794.08 C 1941.16 2794.01 1941.24 2793.98 1941.32 2793.98 L 1941.32 2793.98 L 1941.32 2793.98 Z " fill-rule="evenodd" id="Fill-B" fill="rgb(117,117,117)"/></g></svg>