<?xml version="1.0" encoding="UTF-8" standalone="no"?><!-- Generator: Gravit.io --><svg xmlns="http://www.w3.org/2000/svg" xmlns:xlink="http://www.w3.org/1999/xlink" style="isolation:isolate" viewBox="778 1123 24 24" width="24" height="24"><g id="ungroup"><g opacity="0"><rect x="778" y="1123" width="24" height="24" transform="matrix(1,0,0,1,0,0)" id="Icon Background" fill="rgb(37,86,132)"/></g><path d=" M 786.5 1131 L 786.5 1131 C 786.776 1131 787 1131.224 787 1131.5 L 787 1131.5 C 787 1131.776 786.776 1132 786.5 1132 L 786.5 1132 C 786.224 1132 786 1131.776 786 1131.5 L 786 1131.5 C 786 1131.224 786.224 1131 786.5 1131 L 786.5 1131 L 786.5 1131 L 786.5 1131 L 786.5 1131 L 786.5 1131 L 786.5 1131 L 786.5 1131 Z  M 781.5 1138 L 781.5 1138 C 781.776 1138 782 1138.224 782 1138.5 L 782 1138.5 C 782 1138.776 781.776 1139 781.5 1139 L 781.5 1139 C 781.224 1139 781 1138.776 781 1138.5 L 781 1138.5 C 781 1138.224 781.224 1138 781.5 1138 L 781.5 1138 L 781.5 1138 L 781.5 1138 L 781.5 1138 Z  M 781.5 1126 L 781.5 1126 C 781.776 1126 782 1126.224 782 1126.5 L 782 1126.5 C 782 1126.776 781.776 1127 781.5 1127 L 781.5 1127 C 781.224 1127 781 1126.776 781 1126.5 L 781 1126.5 C 781 1126.224 781.224 1126 781.5 1126 L 781.5 1126 L 781.5 1126 L 781.5 1126 L 781.5 1126 L 781.5 1126 L 781.5 1126 Z  M 798.5 1143 L 798.5 1143 C 798.776 1143 799 1143.224 799 1143.5 L 799 1143.5 C 799 1143.776 798.776 1144 798.5 1144 L 798.5 1144 C 798.224 1144 798 1143.776 798 1143.5 L 798 1143.5 C 798 1143.224 798.224 1143 798.5 1143 L 798.5 1143 L 798.5 1143 L 798.5 1143 Z  M 798.5 1131 L 798.5 1131 C 798.776 1131 799 1131.224 799 1131.5 L 799 1131.5 C 799 1131.776 798.776 1132 798.5 1132 L 798.5 1132 C 798.224 1132 798 1131.776 798 1131.5 L 798 1131.5 C 798 1131.224 798.224 1131 798.5 1131 L 798.5 1131 L 798.5 1131 L 798.5 1131 L 798.5 1131 L 798.5 1131 Z  M 786.5 1143 L 786.5 1143 C 786.776 1143 787 1143.224 787 1143.5 L 787 1143.5 C 787 1143.776 786.776 1144 786.5 1144 L 786.5 1144 C 786.224 1144 786 1143.776 786 1143.5 L 786 1143.5 C 786 1143.224 786.224 1143 786.5 1143 L 786.5 1143 L 786.5 1143 Z  M 786.5 1142 L 786.5 1142 C 787.328 1142 788 1142.672 788 1143.5 L 788 1143.5 C 788 1144.328 787.328 1145 786.5 1145 L 786.5 1145 C 785.672 1145 785 1144.328 785 1143.5 L 785 1143.5 C 785 1142.672 785.672 1142 786.5 1142 L 786.5 1142 L 786.5 1142 Z  M 781.5 1137 L 781.5 1137 C 782.328 1137 783 1137.672 783 1138.5 L 783 1138.5 C 783 1139.328 782.328 1140 781.5 1140 L 781.5 1140 C 780.672 1140 780 1139.328 780 1138.5 L 780 1138.5 C 780 1137.672 780.672 1137 781.5 1137 L 781.5 1137 L 781.5 1137 L 781.5 1137 L 781.5 1137 Z  M 786.5 1130 L 786.5 1130 C 787.328 1130 788 1130.672 788 1131.5 L 788 1131.5 C 788 1132.328 787.328 1133 786.5 1133 L 786.5 1133 C 785.672 1133 785 1132.328 785 1131.5 L 785 1131.5 C 785 1130.672 785.672 1130 786.5 1130 L 786.5 1130 L 786.5 1130 L 786.5 1130 L 786.5 1130 L 786.5 1130 L 786.5 1130 L 786.5 1130 Z  M 781.5 1125 L 781.5 1125 C 782.328 1125 783 1125.672 783 1126.5 L 783 1126.5 C 783 1127.328 782.328 1128 781.5 1128 L 781.5 1128 C 780.672 1128 780 1127.328 780 1126.5 L 780 1126.5 C 780 1125.672 780.672 1125 781.5 1125 L 781.5 1125 L 781.5 1125 L 781.5 1125 L 781.5 1125 L 781.5 1125 L 781.5 1125 Z  M 798.5 1142 L 798.5 1142 C 799.328 1142 800 1142.672 800 1143.5 L 800 1143.5 C 800 1144.328 799.328 1145 798.5 1145 L 798.5 1145 C 797.672 1145 797 1144.328 797 1143.5 L 797 1143.5 C 797 1142.672 797.672 1142 798.5 1142 L 798.5 1142 L 798.5 1142 L 798.5 1142 Z  M 798.5 1130 L 798.5 1130 C 799.328 1130 800 1130.672 800 1131.5 L 800 1131.5 C 800 1132.328 799.328 1133 798.5 1133 L 798.5 1133 C 797.672 1133 797 1132.328 797 1131.5 L 797 1131.5 C 797 1130.672 797.672 1130 798.5 1130 L 798.5 1130 L 798.5 1130 L 798.5 1130 L 798.5 1130 L 798.5 1130 Z  M 792 1131.521 L 792 1129 C 792 1128.448 791.552 1128 791 1128 L 784 1128 C 783.448 1128 783 1128.448 783 1129 L 783 1136 C 783 1136.552 783.448 1137 784 1137 L 786.521 1137 C 786.761 1134.087 789.087 1131.761 792 1131.521 L 792 1131.521 L 792 1131.521 L 792 1131.521 L 792 1131.521 L 792 1131.521 L 792 1131.521 Z  M 793.5 1126 L 793.5 1126 C 793.776 1126 794 1126.224 794 1126.5 L 794 1126.5 C 794 1126.776 793.776 1127 793.5 1127 L 793.5 1127 C 793.224 1127 793 1126.776 793 1126.5 L 793 1126.5 C 793 1126.224 793.224 1126 793.5 1126 L 793.5 1126 Z  M 793.5 1125 L 793.5 1125 C 794.328 1125 795 1125.672 795 1126.5 L 795 1126.5 C 795 1127.328 794.328 1128 793.5 1128 L 793.5 1128 C 792.672 1128 792 1127.328 792 1126.5 L 792 1126.5 C 792 1125.672 792.672 1125 793.5 1125 L 793.5 1125 Z " fill-rule="evenodd" id="Fill-B" fill="rgb(117,117,117)"/><path d=" M 792.5 1133 L 792.5 1133 C 794.984 1133 797 1135.016 797 1137.5 L 797 1137.5 C 797 1139.984 794.984 1142 792.5 1142 L 792.5 1142 C 790.016 1142 788 1139.984 788 1137.5 L 788 1137.5 C 788 1135.016 790.016 1133 792.5 1133 Z " id="Fill-A" fill="rgb(77,77,77)"/></g></svg>