<?xml version="1.0" encoding="UTF-8" standalone="no"?><!-- Generator: Gravit.io --><svg xmlns="http://www.w3.org/2000/svg" xmlns:xlink="http://www.w3.org/1999/xlink" style="isolation:isolate" viewBox="778 1189 24 24" width="24" height="24"><g id="union"><g opacity="0"><rect x="778" y="1189" width="24" height="24" transform="matrix(1,0,0,1,0,0)" id="Icon Background" fill="rgb(37,86,132)"/></g><path d=" M 794.984 1198 C 794.726 1194.093 791.471 1191 787.5 1191 L 787.5 1191 C 783.361 1191 780 1194.361 780 1198.5 L 780 1198.5 C 780 1202.471 783.093 1205.726 787 1205.984 L 787 1211 L 800 1211 L 800 1198 L 794.984 1198 Z  M 788.5 1209 L 788.5 1209 C 788.776 1209 789 1209.224 789 1209.5 L 789 1209.5 C 789 1209.776 788.776 1210 788.5 1210 L 788.5 1210 C 788.224 1210 788 1209.776 788 1209.5 L 788 1209.5 C 788 1209.224 788.224 1209 788.5 1209 L 788.5 1209 L 788.5 1209 L 788.5 1209 L 788.5 1209 L 788.5 1209 L 788.5 1209 L 788.5 1209 L 788.5 1209 L 788.5 1209 L 788.5 1209 L 788.5 1209 L 788.5 1209 L 788.5 1209 L 788.5 1209 L 788.5 1209 L 788.5 1209 L 788.5 1209 L 788.5 1209 L 788.5 1209 L 788.5 1209 L 788.5 1209 L 788.5 1209 L 788.5 1209 L 788.5 1209 L 788.5 1209 L 788.5 1209 L 788.5 1209 L 788.5 1209 L 788.5 1209 L 788.5 1209 L 788.5 1209 L 788.5 1209 Z  M 794 1204 L 794 1202 L 793 1202 L 793 1202 L 793 1204 L 791 1204 L 791 1205 L 793 1205 L 793 1207 L 794 1207 L 794 1205 L 796 1205 L 796 1204 L 794 1204 L 794 1204 Z  M 794.5 1199 L 794.5 1199 C 794.776 1199 795 1199.224 795 1199.5 L 795 1199.5 C 795 1199.776 794.776 1200 794.5 1200 L 794.5 1200 C 794.224 1200 794 1199.776 794 1199.5 L 794 1199.5 C 794 1199.224 794.224 1199 794.5 1199 L 794.5 1199 L 794.5 1199 L 794.5 1199 L 794.5 1199 L 794.5 1199 L 794.5 1199 L 794.5 1199 L 794.5 1199 L 794.5 1199 L 794.5 1199 L 794.5 1199 L 794.5 1199 L 794.5 1199 L 794.5 1199 L 794.5 1199 L 794.5 1199 L 794.5 1199 L 794.5 1199 L 794.5 1199 L 794.5 1199 L 794.5 1199 L 794.5 1199 Z  M 788.5 1203 L 788.5 1203 C 788.776 1203 789 1203.224 789 1203.5 L 789 1203.5 C 789 1203.776 788.776 1204 788.5 1204 L 788.5 1204 C 788.224 1204 788 1203.776 788 1203.5 L 788 1203.5 C 788 1203.224 788.224 1203 788.5 1203 L 788.5 1203 L 788.5 1203 L 788.5 1203 L 788.5 1203 L 788.5 1203 L 788.5 1203 L 788.5 1203 L 788.5 1203 L 788.5 1203 L 788.5 1203 L 788.5 1203 L 788.5 1203 L 788.5 1203 L 788.5 1203 L 788.5 1203 L 788.5 1203 L 788.5 1203 L 788.5 1203 L 788.5 1203 L 788.5 1203 L 788.5 1203 L 788.5 1203 L 788.5 1203 L 788.5 1203 L 788.5 1203 L 788.5 1203 L 788.5 1203 L 788.5 1203 L 788.5 1203 L 788.5 1203 L 788.5 1203 L 788.5 1203 L 788.5 1203 L 788.5 1203 L 788.5 1203 L 788.5 1203 L 788.5 1203 L 788.5 1203 L 788.5 1203 L 788.5 1203 L 788.5 1203 Z  M 788.5 1205 L 788.5 1205 C 788.776 1205 789 1205.224 789 1205.5 L 789 1205.5 C 789 1205.776 788.776 1206 788.5 1206 L 788.5 1206 C 788.224 1206 788 1205.776 788 1205.5 L 788 1205.5 C 788 1205.224 788.224 1205 788.5 1205 L 788.5 1205 L 788.5 1205 L 788.5 1205 L 788.5 1205 L 788.5 1205 L 788.5 1205 L 788.5 1205 L 788.5 1205 L 788.5 1205 L 788.5 1205 L 788.5 1205 L 788.5 1205 L 788.5 1205 L 788.5 1205 L 788.5 1205 L 788.5 1205 L 788.5 1205 L 788.5 1205 L 788.5 1205 L 788.5 1205 L 788.5 1205 L 788.5 1205 L 788.5 1205 L 788.5 1205 L 788.5 1205 L 788.5 1205 L 788.5 1205 L 788.5 1205 L 788.5 1205 L 788.5 1205 L 788.5 1205 L 788.5 1205 L 788.5 1205 L 788.5 1205 L 788.5 1205 L 788.5 1205 L 788.5 1205 L 788.5 1205 L 788.5 1205 Z  M 788.5 1207 L 788.5 1207 C 788.776 1207 789 1207.224 789 1207.5 L 789 1207.5 C 789 1207.776 788.776 1208 788.5 1208 L 788.5 1208 C 788.224 1208 788 1207.776 788 1207.5 L 788 1207.5 C 788 1207.224 788.224 1207 788.5 1207 L 788.5 1207 L 788.5 1207 L 788.5 1207 L 788.5 1207 L 788.5 1207 L 788.5 1207 L 788.5 1207 L 788.5 1207 L 788.5 1207 L 788.5 1207 L 788.5 1207 L 788.5 1207 L 788.5 1207 L 788.5 1207 L 788.5 1207 L 788.5 1207 L 788.5 1207 L 788.5 1207 L 788.5 1207 L 788.5 1207 L 788.5 1207 L 788.5 1207 L 788.5 1207 L 788.5 1207 L 788.5 1207 L 788.5 1207 L 788.5 1207 L 788.5 1207 L 788.5 1207 L 788.5 1207 L 788.5 1207 L 788.5 1207 L 788.5 1207 L 788.5 1207 L 788.5 1207 L 788.5 1207 L 788.5 1207 Z  M 792.5 1199 L 792.5 1199 C 792.776 1199 793 1199.224 793 1199.5 L 793 1199.5 C 793 1199.776 792.776 1200 792.5 1200 L 792.5 1200 C 792.224 1200 792 1199.776 792 1199.5 L 792 1199.5 C 792 1199.224 792.224 1199 792.5 1199 L 792.5 1199 L 792.5 1199 L 792.5 1199 L 792.5 1199 L 792.5 1199 L 792.5 1199 L 792.5 1199 L 792.5 1199 L 792.5 1199 L 792.5 1199 L 792.5 1199 L 792.5 1199 L 792.5 1199 L 792.5 1199 L 792.5 1199 L 792.5 1199 L 792.5 1199 L 792.5 1199 L 792.5 1199 L 792.5 1199 L 792.5 1199 L 792.5 1199 L 792.5 1199 L 792.5 1199 L 792.5 1199 L 792.5 1199 L 792.5 1199 L 792.5 1199 L 792.5 1199 L 792.5 1199 L 792.5 1199 L 792.5 1199 L 792.5 1199 Z  M 788.5 1201 L 788.5 1201 C 788.776 1201 789 1201.224 789 1201.5 L 789 1201.5 C 789 1201.776 788.776 1202 788.5 1202 L 788.5 1202 C 788.224 1202 788 1201.776 788 1201.5 L 788 1201.5 C 788 1201.224 788.224 1201 788.5 1201 L 788.5 1201 L 788.5 1201 L 788.5 1201 L 788.5 1201 L 788.5 1201 L 788.5 1201 L 788.5 1201 L 788.5 1201 L 788.5 1201 L 788.5 1201 L 788.5 1201 L 788.5 1201 L 788.5 1201 L 788.5 1201 L 788.5 1201 L 788.5 1201 L 788.5 1201 L 788.5 1201 L 788.5 1201 L 788.5 1201 L 788.5 1201 L 788.5 1201 L 788.5 1201 L 788.5 1201 L 788.5 1201 L 788.5 1201 L 788.5 1201 L 788.5 1201 L 788.5 1201 L 788.5 1201 L 788.5 1201 L 788.5 1201 L 788.5 1201 L 788.5 1201 L 788.5 1201 L 788.5 1201 L 788.5 1201 L 788.5 1201 L 788.5 1201 Z  M 790.5 1209 L 790.5 1209 C 790.776 1209 791 1209.224 791 1209.5 L 791 1209.5 C 791 1209.776 790.776 1210 790.5 1210 L 790.5 1210 C 790.224 1210 790 1209.776 790 1209.5 L 790 1209.5 C 790 1209.224 790.224 1209 790.5 1209 L 790.5 1209 L 790.5 1209 L 790.5 1209 L 790.5 1209 L 790.5 1209 L 790.5 1209 L 790.5 1209 L 790.5 1209 L 790.5 1209 L 790.5 1209 L 790.5 1209 L 790.5 1209 L 790.5 1209 L 790.5 1209 L 790.5 1209 L 790.5 1209 L 790.5 1209 L 790.5 1209 L 790.5 1209 L 790.5 1209 L 790.5 1209 L 790.5 1209 L 790.5 1209 L 790.5 1209 L 790.5 1209 L 790.5 1209 L 790.5 1209 L 790.5 1209 L 790.5 1209 L 790.5 1209 L 790.5 1209 L 790.5 1209 L 790.5 1209 L 790.5 1209 Z  M 788.5 1199 L 788.5 1199 C 788.776 1199 789 1199.224 789 1199.5 L 789 1199.5 C 789 1199.776 788.776 1200 788.5 1200 L 788.5 1200 C 788.224 1200 788 1199.776 788 1199.5 L 788 1199.5 C 788 1199.224 788.224 1199 788.5 1199 L 788.5 1199 L 788.5 1199 L 788.5 1199 L 788.5 1199 L 788.5 1199 L 788.5 1199 L 788.5 1199 L 788.5 1199 L 788.5 1199 L 788.5 1199 L 788.5 1199 L 788.5 1199 L 788.5 1199 L 788.5 1199 L 788.5 1199 L 788.5 1199 L 788.5 1199 L 788.5 1199 L 788.5 1199 L 788.5 1199 L 788.5 1199 L 788.5 1199 L 788.5 1199 L 788.5 1199 L 788.5 1199 L 788.5 1199 L 788.5 1199 L 788.5 1199 L 788.5 1199 L 788.5 1199 L 788.5 1199 L 788.5 1199 L 788.5 1199 L 788.5 1199 L 788.5 1199 L 788.5 1199 L 788.5 1199 L 788.5 1199 Z  M 792.5 1209 L 792.5 1209 C 792.776 1209 793 1209.224 793 1209.5 L 793 1209.5 C 793 1209.776 792.776 1210 792.5 1210 L 792.5 1210 C 792.224 1210 792 1209.776 792 1209.5 L 792 1209.5 C 792 1209.224 792.224 1209 792.5 1209 L 792.5 1209 L 792.5 1209 L 792.5 1209 L 792.5 1209 L 792.5 1209 L 792.5 1209 L 792.5 1209 L 792.5 1209 L 792.5 1209 L 792.5 1209 L 792.5 1209 L 792.5 1209 L 792.5 1209 L 792.5 1209 L 792.5 1209 L 792.5 1209 L 792.5 1209 L 792.5 1209 L 792.5 1209 L 792.5 1209 L 792.5 1209 L 792.5 1209 L 792.5 1209 L 792.5 1209 Z  M 790.5 1199 L 790.5 1199 C 790.776 1199 791 1199.224 791 1199.5 L 791 1199.5 C 791 1199.776 790.776 1200 790.5 1200 L 790.5 1200 C 790.224 1200 790 1199.776 790 1199.5 L 790 1199.5 C 790 1199.224 790.224 1199 790.5 1199 L 790.5 1199 L 790.5 1199 L 790.5 1199 L 790.5 1199 L 790.5 1199 L 790.5 1199 L 790.5 1199 L 790.5 1199 L 790.5 1199 L 790.5 1199 L 790.5 1199 L 790.5 1199 L 790.5 1199 L 790.5 1199 L 790.5 1199 L 790.5 1199 L 790.5 1199 L 790.5 1199 L 790.5 1199 L 790.5 1199 L 790.5 1199 L 790.5 1199 L 790.5 1199 L 790.5 1199 L 790.5 1199 L 790.5 1199 L 790.5 1199 L 790.5 1199 Z  M 794.5 1209 L 794.5 1209 C 794.776 1209 795 1209.224 795 1209.5 L 795 1209.5 C 795 1209.776 794.776 1210 794.5 1210 L 794.5 1210 C 794.224 1210 794 1209.776 794 1209.5 L 794 1209.5 C 794 1209.224 794.224 1209 794.5 1209 L 794.5 1209 L 794.5 1209 L 794.5 1209 L 794.5 1209 L 794.5 1209 L 794.5 1209 L 794.5 1209 L 794.5 1209 L 794.5 1209 L 794.5 1209 L 794.5 1209 L 794.5 1209 L 794.5 1209 L 794.5 1209 L 794.5 1209 L 794.5 1209 L 794.5 1209 L 794.5 1209 L 794.5 1209 L 794.5 1209 Z  M 796.5 1199 L 796.5 1199 C 796.776 1199 797 1199.224 797 1199.5 L 797 1199.5 C 797 1199.776 796.776 1200 796.5 1200 L 796.5 1200 C 796.224 1200 796 1199.776 796 1199.5 L 796 1199.5 C 796 1199.224 796.224 1199 796.5 1199 L 796.5 1199 L 796.5 1199 L 796.5 1199 L 796.5 1199 L 796.5 1199 L 796.5 1199 L 796.5 1199 L 796.5 1199 L 796.5 1199 L 796.5 1199 L 796.5 1199 L 796.5 1199 L 796.5 1199 L 796.5 1199 L 796.5 1199 L 796.5 1199 L 796.5 1199 L 796.5 1199 Z  M 796.5 1209 L 796.5 1209 C 796.776 1209 797 1209.224 797 1209.5 L 797 1209.5 C 797 1209.776 796.776 1210 796.5 1210 L 796.5 1210 C 796.224 1210 796 1209.776 796 1209.5 L 796 1209.5 C 796 1209.224 796.224 1209 796.5 1209 L 796.5 1209 L 796.5 1209 L 796.5 1209 L 796.5 1209 L 796.5 1209 L 796.5 1209 L 796.5 1209 L 796.5 1209 L 796.5 1209 L 796.5 1209 L 796.5 1209 L 796.5 1209 L 796.5 1209 L 796.5 1209 L 796.5 1209 L 796.5 1209 Z  M 798.5 1199 L 798.5 1199 C 798.776 1199 799 1199.224 799 1199.5 L 799 1199.5 C 799 1199.776 798.776 1200 798.5 1200 L 798.5 1200 C 798.224 1200 798 1199.776 798 1199.5 L 798 1199.5 C 798 1199.224 798.224 1199 798.5 1199 L 798.5 1199 L 798.5 1199 L 798.5 1199 L 798.5 1199 L 798.5 1199 L 798.5 1199 L 798.5 1199 L 798.5 1199 L 798.5 1199 L 798.5 1199 L 798.5 1199 L 798.5 1199 L 798.5 1199 L 798.5 1199 Z  M 798.5 1201 L 798.5 1201 C 798.776 1201 799 1201.224 799 1201.5 L 799 1201.5 C 799 1201.776 798.776 1202 798.5 1202 L 798.5 1202 C 798.224 1202 798 1201.776 798 1201.5 L 798 1201.5 C 798 1201.224 798.224 1201 798.5 1201 L 798.5 1201 L 798.5 1201 L 798.5 1201 L 798.5 1201 L 798.5 1201 L 798.5 1201 L 798.5 1201 L 798.5 1201 L 798.5 1201 L 798.5 1201 L 798.5 1201 L 798.5 1201 Z  M 798.5 1203 L 798.5 1203 C 798.776 1203 799 1203.224 799 1203.5 L 799 1203.5 C 799 1203.776 798.776 1204 798.5 1204 L 798.5 1204 C 798.224 1204 798 1203.776 798 1203.5 L 798 1203.5 C 798 1203.224 798.224 1203 798.5 1203 L 798.5 1203 L 798.5 1203 L 798.5 1203 L 798.5 1203 L 798.5 1203 L 798.5 1203 L 798.5 1203 L 798.5 1203 L 798.5 1203 L 798.5 1203 Z  M 798.5 1205 L 798.5 1205 C 798.776 1205 799 1205.224 799 1205.5 L 799 1205.5 C 799 1205.776 798.776 1206 798.5 1206 L 798.5 1206 C 798.224 1206 798 1205.776 798 1205.5 L 798 1205.5 C 798 1205.224 798.224 1205 798.5 1205 L 798.5 1205 L 798.5 1205 L 798.5 1205 L 798.5 1205 L 798.5 1205 L 798.5 1205 L 798.5 1205 L 798.5 1205 Z  M 798.5 1207 L 798.5 1207 C 798.776 1207 799 1207.224 799 1207.5 L 799 1207.5 C 799 1207.776 798.776 1208 798.5 1208 L 798.5 1208 C 798.224 1208 798 1207.776 798 1207.5 L 798 1207.5 C 798 1207.224 798.224 1207 798.5 1207 L 798.5 1207 L 798.5 1207 L 798.5 1207 L 798.5 1207 L 798.5 1207 L 798.5 1207 Z  M 798.5 1209 L 798.5 1209 C 798.776 1209 799 1209.224 799 1209.5 L 799 1209.5 C 799 1209.776 798.776 1210 798.5 1210 L 798.5 1210 C 798.224 1210 798 1209.776 798 1209.5 L 798 1209.5 C 798 1209.224 798.224 1209 798.5 1209 L 798.5 1209 L 798.5 1209 L 798.5 1209 Z " fill-rule="evenodd" id="Fill-B" fill="rgb(117,117,117)"/></g></svg>