<?xml version="1.0" encoding="UTF-8" standalone="no"?><!-- Generator: Gravit.io --><svg xmlns="http://www.w3.org/2000/svg" xmlns:xlink="http://www.w3.org/1999/xlink" style="isolation:isolate" viewBox="1545 1725 24 24" width="24" height="24"><g id="unlock-ratio"><g opacity="0"><rect x="1545" y="1725" width="24" height="24" transform="matrix(1,0,0,1,0,0)" id="Icon Background" fill="rgb(37,86,132)"/></g><path d=" M 1554 1735 L 1552 1735 L 1552 1730.771 C 1552 1728.69 1553.69 1727 1555.771 1727 L 1558.229 1727 C 1560.31 1727 1562 1728.69 1562 1730.771 L 1562 1735 L 1560 1735 L 1560 1731 C 1560 1729.896 1559.104 1729 1558 1729 L 1556 1729 C 1554.896 1729 1554 1729.896 1554 1731 L 1554 1735 Z  M 1554 1739 L 1552 1739 L 1552 1743.229 C 1552 1745.31 1553.69 1747 1555.771 1747 L 1558.229 1747 C 1560.31 1747 1562 1745.31 1562 1743.229 L 1562 1739 L 1560 1739 L 1560 1743 C 1560 1744.104 1559.104 1745 1558 1745 L 1556 1745 C 1554.896 1745 1554 1744.104 1554 1743 L 1554 1739 Z " fill-rule="evenodd" id="Fill-B" fill="rgb(117,117,117)"/></g></svg>