<?xml version="1.0" encoding="UTF-8" standalone="no"?><!-- Generator: Gravit.io --><svg xmlns="http://www.w3.org/2000/svg" xmlns:xlink="http://www.w3.org/1999/xlink" style="isolation:isolate" viewBox="1545 925 24 24" width="24" height="24"><g id="unlock"><g opacity="0"><rect x="1545" y="925" width="24" height="24" transform="matrix(1,0,0,1,0,0)" id="Icon Background" fill="rgb(37,86,132)"/></g><path d=" M 1562 936 L 1562 933 C 1562 930.24 1559.946 928 1557.417 928 L 1555.583 928 L 1555.583 928 C 1553.054 928 1551 930.24 1551 933 L 1552.833 933 C 1552.833 932.2 1553.127 931.44 1553.64 930.88 C 1554.153 930.32 1554.85 930 1555.583 930 L 1555.583 930 L 1557.417 930 C 1558.15 930 1558.847 930.32 1559.36 930.88 C 1559.873 931.44 1560.167 932.2 1560.167 933 L 1560.167 936 L 1550.508 936 L 1550.508 936 C 1549.676 936 1549 936.676 1549 937.508 L 1549 944.492 C 1549 945.324 1549.676 946 1550.508 946 L 1562.492 946 C 1563.324 946 1564 945.324 1564 944.492 L 1564 937.508 C 1564 936.676 1563.324 936 1562.492 936 L 1562 936 Z  M 1562 944 L 1551 944 L 1551 938 L 1562 938 L 1562 944 L 1562 944 Z " fill-rule="evenodd" id="Fill-B" fill="rgb(117,117,117)"/></g></svg>