<?xml version="1.0" encoding="UTF-8" standalone="no"?><!-- Generator: Gravit.io --><svg xmlns="http://www.w3.org/2000/svg" xmlns:xlink="http://www.w3.org/1999/xlink" style="isolation:isolate" viewBox="1150 3699 24 24" width="24" height="24"><g id="unlock-small"><g opacity="0"><rect x="1150" y="3699" width="24" height="24" transform="matrix(1,0,0,1,0,0)" id="Icon Background" fill="rgb(37,86,132)"/></g><path d=" M 1162 3711 L 1155 3711 C 1154.448 3711 1154 3711.448 1154 3712 L 1154 3716 C 1154 3716.552 1154.448 3717 1155 3717 L 1164 3717 C 1164.552 3717 1165 3716.552 1165 3716 L 1165 3712 C 1165 3711.448 1164.552 3711 1164 3711 L 1164 3708.8 C 1164 3708.548 1164.11 3708.315 1164.29 3708.137 C 1164.48 3707.969 1164.73 3707.867 1165 3707.867 L 1166 3707.867 C 1166.27 3707.867 1166.52 3707.969 1166.71 3708.137 C 1166.89 3708.315 1167 3708.548 1167 3708.8 L 1167 3711 L 1167 3711 L 1169 3711 L 1169 3708.8 C 1169 3708.053 1168.68 3707.344 1168.12 3706.821 C 1167.56 3706.299 1166.8 3706 1166 3706 L 1165 3706 C 1164.2 3706 1163.44 3706.299 1162.88 3706.821 C 1162.32 3707.344 1162 3708.053 1162 3708.8 L 1162 3711 Z " id="Fill-B" fill="rgb(117,117,117)"/></g></svg>