<?xml version="1.0" encoding="UTF-8" standalone="no"?><!-- Generator: Gravit.io --><svg xmlns="http://www.w3.org/2000/svg" xmlns:xlink="http://www.w3.org/1999/xlink" style="isolation:isolate" viewBox="778 395 24 24" width="24" height="24"><g id="zoom-in"><g opacity="0"><rect x="778" y="395" width="24" height="24" transform="matrix(1,0,0,1,0,0)" id="Icon Background" fill="rgb(37,86,132)"/></g><path d=" M 789 406 L 789 404 L 788 404 L 788 404 L 788 406 L 786 406 L 786 407 L 788 407 L 788 409 L 789 409 L 789 407 L 791 407 L 791 406 L 789 406 Z  M 783.9 411.1 C 782.69 409.88 782 408.22 782 406.5 C 782 404.78 782.69 403.12 783.9 401.9 C 785.12 400.69 786.78 400 788.5 400 C 790.22 400 791.88 400.69 793.1 401.9 C 794.31 403.12 795 404.78 795 406.5 C 795 408.22 794.31 409.88 793.1 411.1 C 791.88 412.31 790.22 413 788.5 413 C 786.78 413 785.12 412.31 783.9 411.1 L 783.9 411.1 L 783.9 411.1 L 783.9 411.1 Z  M 795.451 411.345 C 796.458 409.943 797 408.246 797 406.5 C 797 404.25 796.1 402.08 794.51 400.49 C 792.92 398.9 790.75 398 788.5 398 C 786.25 398 784.08 398.9 782.49 400.49 C 780.9 402.08 780 404.25 780 406.5 C 780 408.75 780.9 410.92 782.49 412.51 L 782.49 412.51 C 784.08 414.1 786.25 415 788.5 415 C 790.246 415 791.943 414.458 793.345 413.451 C 793.378 413.493 793.412 413.533 793.45 413.571 L 796.278 416.399 C 796.668 416.79 797.302 416.79 797.692 416.399 L 798.4 415.692 C 798.79 415.302 798.79 414.668 798.4 414.278 L 795.571 411.45 C 795.533 411.412 795.493 411.378 795.451 411.345 L 795.451 411.345 L 795.451 411.345 Z " fill-rule="evenodd" id="Fill-B" fill="rgb(117,117,117)"/></g></svg>