<?xml version="1.0" encoding="UTF-8" standalone="no"?><!-- Generator: Gravit.io --><svg xmlns="http://www.w3.org/2000/svg" xmlns:xlink="http://www.w3.org/1999/xlink" style="isolation:isolate" viewBox="778 535 24 24" width="24" height="24"><g id="zoom-out"><g opacity="0"><rect x="778" y="535" width="24" height="24" transform="matrix(1,0,0,1,0,0)" id="Icon Background" fill="rgb(37,86,132)"/></g><path d=" M 783.9 551.1 C 782.69 549.88 782 548.22 782 546.5 C 782 544.78 782.69 543.12 783.9 541.9 C 785.12 540.69 786.78 540 788.5 540 C 790.22 540 791.88 540.69 793.1 541.9 C 794.31 543.12 795 544.78 795 546.5 C 795 548.22 794.31 549.88 793.1 551.1 C 791.88 552.31 790.22 553 788.5 553 C 786.78 553 785.12 552.31 783.9 551.1 L 783.9 551.1 L 783.9 551.1 Z  M 795.476 551.355 C 796.459 549.94 797 548.244 797 546.5 C 797 544.25 796.1 542.08 794.51 540.49 C 792.92 538.9 790.75 538 788.5 538 C 786.25 538 784.08 538.9 782.49 540.49 C 780.9 542.08 780 544.25 780 546.5 C 780 548.75 780.9 550.92 782.49 552.51 L 782.49 552.51 C 784.08 554.1 786.25 555 788.5 555 C 790.244 555 791.94 554.459 793.355 553.476 L 796.478 556.599 C 796.868 556.99 797.502 556.99 797.892 556.599 L 798.599 555.892 C 798.99 555.502 798.99 554.868 798.599 554.478 L 795.476 551.355 L 795.476 551.355 Z  M 791 546 L 791 547 L 786 547 L 786 546 L 791 546 Z " fill-rule="evenodd" id="Fill-B" fill="rgb(117,117,117)"/></g></svg>