<?xml version="1.0" encoding="UTF-8" standalone="no"?><!-- Generator: Gravit.io --><svg xmlns="http://www.w3.org/2000/svg" xmlns:xlink="http://www.w3.org/1999/xlink" style="isolation:isolate" viewBox="1065.5 2658.191 16 16" width="16pt" height="16pt"><path d=" M 1065.5 2666.191 C 1065.5 2661.775 1069.085 2658.191 1073.5 2658.191 C 1077.915 2658.191 1081.5 2661.775 1081.5 2666.191 C 1081.5 2670.606 1077.915 2674.191 1073.5 2674.191 C 1069.085 2674.191 1065.5 2670.606 1065.5 2666.191 Z  M 1073.548 2663.659 L 1073.548 2663.659 L 1073.548 2663.659 Q 1073.14 2663.659 1072.846 2663.389 L 1072.846 2663.389 L 1072.846 2663.389 Q 1072.552 2663.119 1072.552 2662.699 L 1072.552 2662.699 L 1072.552 2662.699 Q 1072.552 2662.279 1072.846 2662.015 L 1072.846 2662.015 L 1072.846 2662.015 Q 1073.14 2661.751 1073.548 2661.751 L 1073.548 2661.751 L 1073.548 2661.751 Q 1073.968 2661.751 1074.256 2662.015 L 1074.256 2662.015 L 1074.256 2662.015 Q 1074.544 2662.279 1074.544 2662.699 L 1074.544 2662.699 L 1074.544 2662.699 Q 1074.544 2663.119 1074.256 2663.389 L 1074.256 2663.389 L 1074.256 2663.389 Q 1073.968 2663.659 1073.548 2663.659 L 1073.548 2663.659 Z  M 1074.4 2669.959 L 1075.084 2670.103 L 1075.084 2670.631 L 1072.012 2670.631 L 1072.012 2670.103 L 1072.744 2669.959 L 1072.744 2669.959 Q 1072.756 2669.503 1072.756 2668.999 L 1072.756 2668.999 L 1072.756 2668.999 Q 1072.756 2668.495 1072.756 2668.111 L 1072.756 2668.111 L 1072.756 2667.511 L 1072.756 2667.511 Q 1072.756 2667.019 1072.744 2666.689 L 1072.744 2666.689 L 1072.744 2666.689 Q 1072.732 2666.359 1072.72 2665.999 L 1072.72 2665.999 L 1071.916 2665.891 L 1071.916 2665.435 L 1074.244 2664.655 L 1074.424 2664.775 L 1074.388 2666.491 L 1074.388 2668.111 L 1074.388 2668.111 Q 1074.388 2668.495 1074.388 2669.005 L 1074.388 2669.005 L 1074.388 2669.005 Q 1074.388 2669.515 1074.4 2669.959 L 1074.4 2669.959 L 1074.4 2669.959 Z " fill-rule="evenodd" fill="rgb(139,139,139)"/></svg>