<?xml version="1.0" standalone="no"?><!-- Generator: Gravit.io --><svg xmlns="http://www.w3.org/2000/svg" xmlns:xlink="http://www.w3.org/1999/xlink" style="isolation:isolate" viewBox="534.87 262.501 211.54 205.647" width="211.54" height="205.647"><g><ellipse vector-effect="non-scaling-stroke" cx="640.5" cy="427" rx="45.5" ry="34" fill="rgb(219,2,84)"/><g><path d=" M 593.842 462.097 C 558.931 444.991 534.87 409.099 534.87 367.631 C 534.87 309.608 581.977 262.501 640 262.501 C 698.023 262.501 745.13 309.608 745.13 367.631 C 745.13 410.134 719.852 446.781 683.522 463.343 C 669.222 467.745 606.753 467.289 593.842 462.097 Z " fill="rgb(149,12,64)"/><ellipse vector-effect="non-scaling-stroke" cx="640" cy="462.7421166099941" rx="62.62995111639589" ry="5.405223009035069" fill="rgb(149,12,64)"/><path d=" M 634.201 421.113 Q 622.468 427.449 627.631 429.796 C 632.793 432.143 643.588 432.378 640.772 436.132 C 637.956 439.887 629.039 446.223 633.028 447.162 C 637.017 448.1 655.556 448.57 652.506 450.447 C 649.455 452.325 645.935 456.314 663.066 452.559 C 680.197 448.804 698.032 437.306 696.624 404.686 Q 693.573 417.359 685.829 422.756 Q 687.825 425.528 689.556 428.028 C 683.306 436.105 682.011 433.178 671.671 437.836 C 670.563 438.335 668.511 440.789 665.693 441.104 C 664.756 440.838 667.045 439.792 666.87 436.786 C 666.453 435.476 665.684 435.382 664.544 436.483 C 661.025 438.52 655.776 438.721 653.21 437.775 Q 648.751 436.132 654.148 433.082 Q 661.892 427.919 656.964 425.572 Q 652.036 423.225 634.201 421.113 Z " fill="rgb(238,0,87)"/><clipPath id="_clipPath_RBuyvXpX3TsYiPeSBIz4ZSEX00Wx2foX"><path d=" M 634.201 421.113 Q 622.468 427.449 627.631 429.796 C 632.793 432.143 643.588 432.378 640.772 436.132 C 637.956 439.887 629.039 446.223 633.028 447.162 C 637.017 448.1 655.556 448.57 652.506 450.447 C 649.455 452.325 645.935 456.314 663.066 452.559 C 680.197 448.804 698.032 437.306 696.624 404.686 Q 693.573 417.359 685.829 422.756 Q 687.825 425.528 689.556 428.028 C 683.306 436.105 682.011 433.178 671.671 437.836 C 670.563 438.335 668.511 440.789 665.693 441.104 C 664.756 440.838 667.045 439.792 666.87 436.786 C 666.453 435.476 665.684 435.382 664.544 436.483 C 661.025 438.52 655.776 438.721 653.21 437.775 Q 648.751 436.132 654.148 433.082 Q 661.892 427.919 656.964 425.572 Q 652.036 423.225 634.201 421.113 Z " fill="rgb(238,0,87)"/></clipPath><g clip-path="url(#_clipPath_RBuyvXpX3TsYiPeSBIz4ZSEX00Wx2foX)"><path d=" M 686.484 429.131 Q 690.943 441.803 688.596 446.262 Q 686.25 450.72 662.249 456.068 Q 665.233 445.216 667.674 434.636 Q 670.081 424.207 686.484 429.131 Z " fill="rgb(191,0,70)"/><path d=" M 624.876 430.012 C 630.766 432.646 636.304 433.805 642.806 433.767 C 649.715 433.726 655.584 432.343 661.719 429.308 L 654.842 424.85 L 629.543 425.319 L 624.876 430.012 Z " fill="rgb(191,0,70)"/></g><path d=" M 693.879 362.353 C 698.175 363.292 702.056 363.081 706.225 361.684 C 713.112 359.376 718.063 354.594 720.609 347.792 L 730.205 373.815 C 724.708 377.614 719.074 379.481 712.396 379.716 C 705.226 379.969 699.042 378.255 693.025 374.348 L 693.879 362.353 Z " fill="rgb(238,0,87)"/><clipPath id="_clipPath_ZTSyvoTl5dolZEKBwPmwD9gJYrh7V1kP"><path d=" M 693.879 362.353 C 698.175 363.292 702.056 363.081 706.225 361.684 C 713.112 359.376 718.063 354.594 720.609 347.792 L 730.205 373.815 C 724.708 377.614 719.074 379.481 712.396 379.716 C 705.226 379.969 699.042 378.255 693.025 374.348 L 693.879 362.353 Z " fill="rgb(238,0,87)"/></clipPath><g clip-path="url(#_clipPath_ZTSyvoTl5dolZEKBwPmwD9gJYrh7V1kP)"><path d=" M 702.557 379.587 Q 702.794 372.222 699.286 361.954 L 692.286 362.843 L 697.795 380.896 L 702.557 379.587 Z " fill="rgb(191,0,70)"/><path d=" M 724.921 351.567 C 718.553 353.525 715.024 359.94 717.054 365.865 C 719.502 373.013 729.26 375.848 735.74 371.294 L 724.921 351.567 Z " fill="rgb(191,0,70)"/></g><path d=" M 720.114 351.206 L 721.086 348.206 C 722.184 346.767 723.524 346.694 724.662 346.334 C 731.955 344.021 740.091 357.366 739.584 364.618 C 739.354 367.915 738.999 368.507 736.916 370.757 C 735.336 372.464 731.926 370.087 729.541 370.859 L 720.114 351.206 Z " fill="rgb(238,0,87)"/><clipPath id="_clipPath_d9hsleVvSkVZw2AVpD8RedPRniGADNbR"><path d=" M 720.114 351.206 L 721.086 348.206 C 722.184 346.767 723.524 346.694 724.662 346.334 C 731.955 344.021 740.091 357.366 739.584 364.618 C 739.354 367.915 738.999 368.507 736.916 370.757 C 735.336 372.464 731.926 370.087 729.541 370.859 L 720.114 351.206 Z " fill="rgb(238,0,87)"/></clipPath><g clip-path="url(#_clipPath_d9hsleVvSkVZw2AVpD8RedPRniGADNbR)"><path d=" M 718.863 352.627 Q 720.46 351.741 721.442 351.57 Q 719.689 351.079 718.226 351.716 L 718.863 352.627 Z " fill="rgb(191,0,70)"/></g><path d=" M 592.056 361.21 C 592.701 359.454 592.557 357.696 591.634 356.069 C 590.707 354.434 589.263 353.405 587.415 353.062 C 582.832 352.542 578.807 353.159 574.59 355.027 C 570.127 357.004 566.808 359.785 564.438 363.302 C 564.24 363.596 564.047 364.119 564.005 364.47 C 563.641 367.564 563.963 370.817 565.123 374.389 C 566.118 377.45 567.448 379.893 569.482 382.388 C 567.266 382.699 565.466 383.62 563.917 385.235 C 562.296 386.926 561.437 388.876 561.283 391.213 C 562.48 394.706 564.393 397.379 567.314 399.638 C 569.562 401.376 571.811 402.419 574.59 403.012 C 579.275 401.678 582.986 399.573 586.534 396.236 C 589.532 393.417 591.59 390.501 592.984 387.319 C 593.126 386.996 593.173 386.454 593.09 386.11 C 592.255 382.668 590.848 379.356 588.608 375.823 C 586.544 372.568 584.374 370.072 581.437 367.576 C 582.302 366.805 583.066 366.189 584.003 365.508 C 586.605 363.615 589.036 362.319 592.056 361.21 Z " fill="rgb(238,0,87)"/><clipPath id="_clipPath_5ovINqyLxtY0hXIprCF05s8iy8Gad9t1"><path d=" M 592.056 361.21 C 592.701 359.454 592.557 357.696 591.634 356.069 C 590.707 354.434 589.263 353.405 587.415 353.062 C 582.832 352.542 578.807 353.159 574.59 355.027 C 570.127 357.004 566.808 359.785 564.438 363.302 C 564.24 363.596 564.047 364.119 564.005 364.47 C 563.641 367.564 563.963 370.817 565.123 374.389 C 566.118 377.45 567.448 379.893 569.482 382.388 C 567.266 382.699 565.466 383.62 563.917 385.235 C 562.296 386.926 561.437 388.876 561.283 391.213 C 562.48 394.706 564.393 397.379 567.314 399.638 C 569.562 401.376 571.811 402.419 574.59 403.012 C 579.275 401.678 582.986 399.573 586.534 396.236 C 589.532 393.417 591.59 390.501 592.984 387.319 C 593.126 386.996 593.173 386.454 593.09 386.11 C 592.255 382.668 590.848 379.356 588.608 375.823 C 586.544 372.568 584.374 370.072 581.437 367.576 C 582.302 366.805 583.066 366.189 584.003 365.508 C 586.605 363.615 589.036 362.319 592.056 361.21 Z " fill="rgb(238,0,87)"/></clipPath><g clip-path="url(#_clipPath_5ovINqyLxtY0hXIprCF05s8iy8Gad9t1)"><path d=" M 569.329 382.172 Q 572.135 387.475 576.806 391.155 Q 568.032 387.959 566.915 382.605 Q 565.525 375.944 569.329 382.172 Z " fill="rgb(191,0,70)"/><path d=" M 586.764 396.868 C 583.716 390.621 582.052 384.867 581.295 377.958 C 580.295 368.822 581.247 360.854 584.371 352.212 L 588.245 353.123 L 590.067 394.362 L 586.764 396.868 Z " fill="rgb(191,0,70)"/></g><g><path d=" M 610.065 332.351 C 606.528 332.373 603.508 331.56 600.461 329.763 C 595.938 327.096 593.034 323.178 591.797 318.074 C 588.552 325.188 588.412 332.477 591.381 339.711 C 592.653 342.81 594.199 345.251 596.458 347.726 C 600.759 348.086 604.597 346.482 607.362 343.168 C 609.958 340.056 610.892 336.319 610.065 332.351 Z " fill="rgb(238,0,87)"/><clipPath id="_clipPath_za8RXDT6TeM6pmUjsMDHlT2MDPP7OZav"><path d=" M 610.065 332.351 C 606.528 332.373 603.508 331.56 600.461 329.763 C 595.938 327.096 593.034 323.178 591.797 318.074 C 588.552 325.188 588.412 332.477 591.381 339.711 C 592.653 342.81 594.199 345.251 596.458 347.726 C 600.759 348.086 604.597 346.482 607.362 343.168 C 609.958 340.056 610.892 336.319 610.065 332.351 Z " fill="rgb(238,0,87)"/></clipPath><g clip-path="url(#_clipPath_za8RXDT6TeM6pmUjsMDHlT2MDPP7OZav)"><path d=" M 599.816 328.397 Q 590.733 335.313 589.563 338.414 L 592.112 342.063 L 601.348 329.929 L 599.816 328.397 Z " fill="rgb(191,0,70)"/></g><path d=" M 674.363 332.351 C 677.9 332.373 680.919 331.56 683.966 329.763 C 688.49 327.096 691.394 323.178 692.631 318.074 C 695.876 325.188 696.016 332.477 693.047 339.711 C 691.774 342.81 690.229 345.251 687.97 347.726 C 683.669 348.086 679.831 346.482 677.066 343.168 C 674.47 340.056 673.536 336.319 674.363 332.351 Z " fill="rgb(238,0,87)"/><clipPath id="_clipPath_6OZfJFeoJlfQVCYsekXgzknUNZiJiIVp"><path d=" M 674.363 332.351 C 677.9 332.373 680.919 331.56 683.966 329.763 C 688.49 327.096 691.394 323.178 692.631 318.074 C 695.876 325.188 696.016 332.477 693.047 339.711 C 691.774 342.81 690.229 345.251 687.97 347.726 C 683.669 348.086 679.831 346.482 677.066 343.168 C 674.47 340.056 673.536 336.319 674.363 332.351 Z " fill="rgb(238,0,87)"/></clipPath><g clip-path="url(#_clipPath_6OZfJFeoJlfQVCYsekXgzknUNZiJiIVp)"><path d=" M 684.545 328.748 Q 692.967 336.296 694.137 339.396 L 691.406 343.544 L 680.321 330.596 L 684.545 328.748 Z " fill="rgb(191,0,70)"/></g></g><g><path d=" M 615.205 414.436 C 614.331 421.045 614.092 426.708 614.405 433.367 C 614.909 444.08 616.65 453.104 617.557 455.715 C 618.998 459.865 617.298 463.006 613.763 462.725 C 613.763 462.725 608.33 462.446 601.906 462.297 C 597.939 462.206 594.581 462.187 590.613 462.233 C 584.771 456.556 585.344 446.782 591.809 441.826 C 593.807 440.295 595.862 439.452 598.359 439.141 C 598.572 434.189 599.291 430.015 600.749 425.278 C 602.36 420.045 604.357 415.803 607.363 411.227 L 615.205 414.436 Z " fill="rgb(238,0,87)"/><clipPath id="_clipPath_LxtsaHUonuyNuFTG0YaYobrYRhNhhLgs"><path d=" M 615.205 414.436 C 614.331 421.045 614.092 426.708 614.405 433.367 C 614.909 444.08 616.65 453.104 617.557 455.715 C 618.998 459.865 617.298 463.006 613.763 462.725 C 613.763 462.725 608.33 462.446 601.906 462.297 C 597.939 462.206 594.581 462.187 590.613 462.233 C 584.771 456.556 585.344 446.782 591.809 441.826 C 593.807 440.295 595.862 439.452 598.359 439.141 C 598.572 434.189 599.291 430.015 600.749 425.278 C 602.36 420.045 604.357 415.803 607.363 411.227 L 615.205 414.436 Z " fill="rgb(238,0,87)"/></clipPath><g clip-path="url(#_clipPath_LxtsaHUonuyNuFTG0YaYobrYRhNhhLgs)"><path d=" M 600.401 417.238 Q 608.33 425.874 616.809 427.13 L 614.765 418.292 L 604.269 411.435 L 600.401 417.238 Z " fill="rgb(191,0,70)"/><path d=" M 597.108 439.349 C 598.976 439.014 600.616 439.026 602.479 439.387 C 605.224 439.92 607.437 441.026 609.51 442.902 C 608.459 440.366 606.677 438.564 604.154 437.483 C 601.552 436.369 598.926 436.352 596.311 437.434 L 597.108 439.349 Z " fill="rgb(191,0,70)"/></g><path d=" M 669.222 414.436 C 670.097 421.045 670.336 426.708 670.023 433.367 C 669.519 444.08 667.778 453.104 666.871 455.715 C 665.43 459.865 667.13 463.006 670.665 462.725 C 670.665 462.725 676.097 462.446 682.522 462.297 C 686.489 462.206 689.847 462.187 693.814 462.233 C 699.657 456.556 699.084 446.782 692.618 441.826 C 690.621 440.295 688.566 439.452 686.068 439.141 C 685.856 434.189 685.137 430.015 683.678 425.278 C 682.068 420.045 680.071 415.803 677.065 411.227 L 669.222 414.436 Z " fill="rgb(238,0,87)"/><clipPath id="_clipPath_wWQ0dbkCSz152DFX309TadnztDtVDroa"><path d=" M 669.222 414.436 C 670.097 421.045 670.336 426.708 670.023 433.367 C 669.519 444.08 667.778 453.104 666.871 455.715 C 665.43 459.865 667.13 463.006 670.665 462.725 C 670.665 462.725 676.097 462.446 682.522 462.297 C 686.489 462.206 689.847 462.187 693.814 462.233 C 699.657 456.556 699.084 446.782 692.618 441.826 C 690.621 440.295 688.566 439.452 686.068 439.141 C 685.856 434.189 685.137 430.015 683.678 425.278 C 682.068 420.045 680.071 415.803 677.065 411.227 L 669.222 414.436 Z " fill="rgb(238,0,87)"/></clipPath><g clip-path="url(#_clipPath_wWQ0dbkCSz152DFX309TadnztDtVDroa)"><path d=" M 684.027 417.238 Q 676.098 425.874 667.619 427.13 L 669.662 418.292 L 680.159 411.435 L 684.027 417.238 Z " fill="rgb(191,0,70)"/><path d=" M 687.32 439.349 C 685.452 439.014 683.812 439.026 681.948 439.387 C 679.204 439.92 676.991 441.026 674.918 442.902 C 675.969 440.366 677.751 438.564 680.274 437.483 C 682.875 436.369 685.502 436.352 688.117 437.434 L 687.32 439.349 Z " fill="rgb(191,0,70)"/></g></g><circle vector-effect="non-scaling-stroke" cx="642.2138642940062" cy="371.47077842620615" r="58.14425098643221" fill="rgb(252,247,0)"/><clipPath id="_clipPath_1m7qdouzPPUHYcgFJu5Y1vR4SISoZUEs"><circle vector-effect="non-scaling-stroke" cx="642.2138642940062" cy="371.47077842620615" r="58.14425098643221" fill="rgb(252,247,0)"/></clipPath><g clip-path="url(#_clipPath_1m7qdouzPPUHYcgFJu5Y1vR4SISoZUEs)"><path d=" M 594.638 404.508 L 642.317 316.59 L 634.244 312.503 Q 600.765 309.779 587.939 344.743 Q 575.113 379.707 589.837 402.865 L 594.638 404.508 Z " fill="rgb(197,226,87)" vector-effect="non-scaling-stroke" stroke-width="0.651" stroke="rgb(0,0,0)" stroke-linejoin="miter" stroke-linecap="square" stroke-miterlimit="3"/><path d=" M 654.637 428.418 C 657.17 413.479 661.188 401.125 667.93 387.554 C 675.626 372.066 684.377 360.023 696.732 347.921 C 707.449 364.921 707.811 384.947 697.717 402.324 C 688.446 418.283 673.075 427.594 654.637 428.418 Z " fill="rgb(123,165,57)"/><path d=" M 633.467 430.634 C 629.817 410.207 630.422 392.181 635.436 372.046 C 640.992 349.734 650.228 331.873 665.223 314.442 C 640.734 317.363 620.925 329.449 607.127 349.89 C 595.878 366.555 591.461 384.301 593.587 404.294 C 597.792 413.604 604.057 420.344 613.035 425.218 C 619.624 428.795 625.971 430.477 633.467 430.634 Z " fill="rgb(238,0,87)"/><path d=" M 583.987 379.923 C 586.909 369.424 591.127 360.989 597.772 352.352 C 607.237 340.052 618.245 331.835 632.728 326.258 C 623.43 326.495 615.565 328.809 607.619 333.643 C 592.467 342.862 583.789 357.764 583.248 375.492 L 583.987 379.923 Z " fill="rgb(123,165,57)"/><path d=" M 661.284 315.427 C 658.193 313.691 655.372 312.578 651.929 311.734 C 647.191 310.573 642.98 310.348 638.144 310.996 C 620.752 316.296 607.394 325.702 596.541 340.29 C 588.705 350.825 584.131 361.344 581.771 374.261 C 586.056 359.556 593.789 348.194 605.896 338.813 C 618.146 329.321 631.267 324.657 646.76 324.289 L 661.284 315.427 Z " fill="rgb(238,0,87)"/><g opacity="0.19" style="mix-blend-mode:multiply;"><linearGradient id="_lgradient_0" x1="0.5330412041563661" y1="0.553179725650259" x2="0.4564676869212535" y2="0.9270386627393377" gradientTransform="matrix(116.289,0,0,116.289,584.069,313.326)" gradientUnits="userSpaceOnUse"><stop offset="2.608695652173913%" stop-opacity="0" style="stop-color:rgb(72,0,39)"/><stop offset="97.82608695652173%" stop-opacity="1" style="stop-color:rgb(72,0,39)"/></linearGradient><circle vector-effect="non-scaling-stroke" cx="642.2138642940062" cy="371.47077842620615" r="58.144470812500344" fill="url(#_lgradient_0)"/></g></g><g><path d=" M 622.433 307.489 C 624.592 304.745 628.467 304.143 631.357 306.102 C 632.799 307.079 633.703 308.398 634.095 310.095 C 634.14 311.289 635.126 312.227 636.321 312.214 C 637.482 312.201 638.427 311.301 638.496 310.142 C 638.743 307.724 638.022 305.561 636.372 303.776 C 632.152 299.208 624.636 302.201 622.433 307.489 Z " fill="rgb(23,23,23)"/><path d=" M 663.517 310.866 C 663.106 307.399 660.114 304.864 656.627 305.028 C 654.887 305.11 653.427 305.764 652.208 307.007 C 651.547 308.003 650.216 308.289 649.204 307.655 C 648.22 307.038 647.883 305.778 648.429 304.753 C 649.478 302.561 651.222 301.091 653.56 300.428 C 659.544 298.732 664.395 305.205 663.517 310.866 Z " fill="rgb(23,23,23)"/></g><path d=" M 626.807 350.288 C 627.068 350.412 627.337 350.515 627.61 350.607 C 627.987 350.757 628.37 350.891 628.76 351.009 C 631.493 351.922 634.385 352.483 637.49 352.725 C 638.441 352.799 639.379 352.84 640.298 352.829 C 641.217 352.84 642.155 352.799 643.107 352.725 C 646.212 352.483 649.104 351.922 651.836 351.009 C 652.227 350.891 652.61 350.757 652.987 350.607 C 653.26 350.515 653.529 350.412 653.79 350.288 C 655.912 349.418 657.986 348.316 660.032 346.982 C 666.375 342.173 672.151 339.839 679.665 340.078 C 708.406 340.993 679.813 406.19 640.298 405.877 C 600.784 406.19 572.191 340.993 600.931 340.078 C 608.446 339.839 614.222 342.173 620.565 346.982 C 622.611 348.316 624.685 349.418 626.807 350.288 Z " fill="rgb(23,23,23)"/><path d=" M 628.535 353.963 C 628.764 354.071 629 354.162 629.24 354.242 C 629.57 354.374 629.906 354.491 630.248 354.595 C 632.645 355.396 635.181 355.888 637.903 356.099 C 638.737 356.164 639.56 356.201 640.366 356.191 C 641.171 356.201 641.994 356.164 642.829 356.099 C 645.551 355.888 648.087 355.396 650.483 354.595 C 650.826 354.491 651.162 354.374 651.492 354.242 C 651.732 354.162 651.968 354.071 652.196 353.963 C 654.057 353.2 655.876 352.234 657.67 351.064 C 663.232 346.847 669.671 343.742 676.26 343.952 C 701.463 344.754 674.763 404.499 640.113 404.225 C 605.463 404.499 578.763 344.754 603.966 343.952 C 610.555 343.742 617.5 346.847 623.062 351.064 C 624.856 352.234 626.675 353.2 628.535 353.963 Z " fill="rgb(255,255,255)"/><path d=" M 594.219 361.512 C 596.902 357.312 599.792 354.166 603.707 351.184 C 606.87 348.776 609.834 347.132 613.521 345.741 C 611.857 351.43 610.702 356.324 609.646 362.168 C 608.06 370.945 607.307 378.493 607.128 387.421 C 610.678 379.029 614.288 372.197 619.199 364.579 C 621.956 360.302 624.461 356.803 627.61 352.829 C 628.267 362.187 629.222 370.077 630.818 379.312 C 632.334 388.087 633.973 395.447 636.322 404.022 C 640.183 395.254 642.859 387.548 645.277 378.241 C 647.432 369.943 648.756 362.778 649.713 354.242 C 652.226 362.814 653.906 370.21 655.346 379.044 C 656.541 386.377 657.235 392.64 657.675 400.063 C 664.308 388.769 666.954 377.225 665.932 364.043 C 665.455 357.889 664.308 352.731 662.139 346.982 C 668.231 350.603 672.696 354.986 676.518 361.096 C 679.18 365.352 680.859 369.356 682.044 374.279 C 683.969 366.36 683.523 359.056 680.649 351.452 C 679.394 348.13 677.959 345.464 675.891 342.612" fill="none" vector-effect="non-scaling-stroke" stroke-width="0.789" stroke="rgb(19,19,19)" stroke-linejoin="miter" stroke-linecap="square" stroke-miterlimit="3"/><path d=" M 613.914 326.077 C 616.028 317.531 623.504 312.026 630.6 313.793 C 637.695 315.56 641.74 323.933 639.626 332.479 C 637.513 341.026 630.036 346.531 622.941 344.764 C 615.845 342.997 611.8 334.624 613.914 326.077 Z " fill="rgb(230,230,230)"/><clipPath id="_clipPath_ZKAjucnNq27YUjDomoNTD8FGMfeGECcF"><path d=" M 613.914 326.077 C 616.028 317.531 623.504 312.026 630.6 313.793 C 637.695 315.56 641.74 323.933 639.626 332.479 C 637.513 341.026 630.036 346.531 622.941 344.764 C 615.845 342.997 611.8 334.624 613.914 326.077 Z " fill="rgb(230,230,230)"/></clipPath><g clip-path="url(#_clipPath_ZKAjucnNq27YUjDomoNTD8FGMfeGECcF)"><path d=" M 613.303 324.39 C 615.417 315.844 622.894 310.339 629.989 312.106 C 637.085 313.873 641.129 322.246 639.016 330.792 C 636.902 339.339 629.426 344.844 622.33 343.077 C 615.235 341.31 611.19 332.937 613.303 324.39 Z " fill="rgb(255,255,255)"/></g><path d=" M 642.998 331.256 C 642.348 322.476 647.742 314.919 655.035 314.391 C 662.328 313.863 668.777 320.563 669.426 329.343 C 670.076 338.123 664.682 345.68 657.389 346.208 C 650.096 346.736 643.648 340.037 642.998 331.256 Z " fill="rgb(230,230,230)"/><clipPath id="_clipPath_FVcFcld9jOpMqvsjlzFFs3wCTDEuSZOv"><path d=" M 642.998 331.256 C 642.348 322.476 647.742 314.919 655.035 314.391 C 662.328 313.863 668.777 320.563 669.426 329.343 C 670.076 338.123 664.682 345.68 657.389 346.208 C 650.096 346.736 643.648 340.037 642.998 331.256 Z " fill="rgb(230,230,230)"/></clipPath><g clip-path="url(#_clipPath_FVcFcld9jOpMqvsjlzFFs3wCTDEuSZOv)"><path d=" M 641.893 329.843 C 641.243 321.063 646.637 313.506 653.93 312.978 C 661.223 312.45 667.672 319.15 668.321 327.93 C 668.971 336.71 663.577 344.267 656.284 344.795 C 648.991 345.323 642.543 338.623 641.893 329.843 Z " fill="rgb(255,255,255)"/></g><g><path d=" M 631.886 342.218 C 631.881 339.728 635.624 337.699 640.238 337.69 C 644.852 337.68 648.603 339.693 648.607 342.183 C 648.612 344.672 644.87 346.701 640.256 346.711 C 635.641 346.721 631.891 344.707 631.886 342.218 Z " fill="rgb(23,23,23)"/><path d=" M 643.861 341.619 C 643.233 340.968 642.594 340.525 641.774 340.172 C 640.645 339.685 639.572 339.547 638.363 339.73 C 640.098 339.171 641.729 339.193 643.45 339.801 C 644.061 340.017 644.559 340.261 645.11 340.612 C 645.34 340.919 645.334 341.336 645.096 341.636 C 644.78 342.036 644.167 342.027 643.861 341.619 Z " fill="rgb(255,255,255)"/></g><g><g><path d=" M 628.825 334.076 C 628.926 331.646 630.617 329.741 632.598 329.824 C 634.579 329.906 636.105 331.946 636.004 334.376 C 635.903 336.805 634.212 338.711 632.23 338.628 C 630.249 338.545 628.723 336.506 628.825 334.076 Z " fill="rgb(19,19,19)"/><path d=" M 633.169 331.733 C 633.225 330.403 634.058 329.357 635.028 329.397 C 635.998 329.438 636.741 330.55 636.686 331.88 C 636.63 333.21 635.797 334.256 634.827 334.216 C 633.856 334.175 633.114 333.063 633.169 331.733 Z " fill="rgb(255,255,255)"/></g></g><g><path d=" M 655.816 335.266 C 656.083 332.849 657.899 331.063 659.87 331.28 C 661.841 331.497 663.225 333.636 662.959 336.053 C 662.693 338.47 660.876 340.256 658.905 340.039 C 656.934 339.822 655.55 337.684 655.816 335.266 Z " fill="rgb(19,19,19)"/><path d=" M 660.529 332.723 C 660.675 331.4 661.577 330.413 662.542 330.519 C 663.508 330.625 664.173 331.786 664.027 333.109 C 663.882 334.432 662.98 335.419 662.014 335.313 C 661.049 335.207 660.383 334.046 660.529 332.723 Z " fill="rgb(255,255,255)"/></g><path d=" M 722.681 359.542 C 721.24 356.263 720.348 354.247 717.477 347.711 C 715.511 343.225 714.693 341.364 714.45 340.818 C 710.897 340.804 707.693 338.709 706.263 335.446 C 704.889 332.327 705.384 328.756 707.544 326.128 C 707.546 326.123 707.55 326.125 707.552 326.12 C 707.563 326.107 707.578 326.097 707.593 326.086 C 707.602 326.079 707.617 326.068 707.632 326.057 C 707.637 326.059 707.639 326.054 707.639 326.054 C 707.652 326.048 707.664 326.047 707.675 326.046 C 707.694 326.042 707.712 326.038 707.73 326.034 C 707.747 326.035 707.763 326.036 707.779 326.036 C 707.794 326.042 707.81 326.043 707.825 326.048 C 707.846 326.051 707.859 326.062 707.871 326.072 C 707.886 326.078 707.895 326.081 707.908 326.092 C 707.913 326.094 707.913 326.094 707.916 326.1 C 707.928 326.111 707.934 326.124 707.947 326.135 C 707.958 326.15 707.968 326.165 707.974 326.179 C 707.979 326.18 707.979 326.18 707.982 326.187 L 710.083 330.97 C 710.34 331.555 710.805 332.004 711.4 332.235 C 711.99 332.465 712.639 332.456 713.219 332.198 L 715.617 331.145 C 716.82 330.616 717.368 329.209 716.84 328.007 L 714.736 323.217 C 714.736 323.217 714.737 323.212 714.733 323.21 C 714.729 323.192 714.729 323.176 714.724 323.162 C 714.72 323.144 714.716 323.126 714.717 323.109 C 714.718 323.104 714.714 323.103 714.716 323.098 C 714.714 323.087 714.723 323.078 714.724 323.062 C 714.73 323.047 714.733 323.026 714.738 323.012 C 714.746 322.993 714.756 322.98 714.766 322.967 C 714.777 322.955 714.782 322.94 714.798 322.93 C 714.808 322.917 714.824 322.906 714.839 322.896 C 714.85 322.894 714.861 322.882 714.868 322.879 C 714.874 322.876 714.874 322.876 714.879 322.878 C 714.894 322.867 714.911 322.868 714.929 322.864 C 714.947 322.86 714.965 322.856 714.982 322.857 C 714.982 322.857 714.987 322.859 714.989 322.854 C 718.388 323.048 721.353 325.1 722.722 328.217 C 723.702 330.447 723.72 332.916 722.871 335.096 C 722.477 336.107 721.893 337.048 721.133 337.883 L 725.905 348.735 C 725.93 348.786 725.954 348.837 725.977 348.889 L 727.941 353.366 L 730.079 358.229 C 730.103 358.283 730.126 358.337 730.147 358.392 L 737.452 375.033 C 738.58 375.038 739.669 375.245 740.679 375.639 C 742.86 376.488 744.665 378.172 745.645 380.402 C 747.014 383.519 746.519 387.091 744.363 389.725 C 744.358 389.724 744.356 389.728 744.356 389.728 C 744.346 389.741 744.33 389.751 744.315 389.762 C 744.3 389.773 744.289 389.786 744.271 389.79 C 744.269 389.795 744.269 389.795 744.263 389.798 C 744.256 389.8 744.239 389.8 744.231 389.807 C 744.213 389.811 744.195 389.816 744.178 389.815 C 744.16 389.819 744.145 389.813 744.129 389.812 C 744.113 389.812 744.096 389.811 744.077 389.803 C 744.063 389.798 744.045 389.785 744.031 389.78 C 744.018 389.769 744.006 389.77 743.998 389.762 C 743.994 389.76 743.995 389.755 743.991 389.753 C 743.978 389.743 743.968 389.727 743.957 389.712 C 743.95 389.699 743.938 389.688 743.927 389.673 C 743.929 389.668 743.924 389.666 743.924 389.666 L 741.82 384.876 C 741.292 383.674 739.885 383.126 738.683 383.654 L 736.284 384.707 C 735.702 384.96 735.256 385.432 735.026 386.022 C 734.795 386.616 734.81 387.263 735.067 387.847 L 737.168 392.631 C 737.171 392.637 737.171 392.637 737.169 392.642 C 737.175 392.655 737.179 392.674 737.183 392.692 C 737.182 392.708 737.188 392.722 737.187 392.738 C 737.19 392.745 737.19 392.745 737.188 392.749 C 737.187 392.766 737.184 392.775 737.178 392.79 C 737.177 392.806 737.176 392.823 737.164 392.84 C 737.158 392.855 737.148 392.867 737.142 392.882 C 737.131 392.894 737.121 392.907 737.111 392.92 C 737.095 392.931 737.08 392.941 737.065 392.952 C 737.056 392.959 737.047 392.967 737.034 392.973 C 737.034 392.973 737.029 392.971 737.028 392.976 C 737.009 392.98 736.991 392.984 736.979 392.985 C 736.961 392.989 736.943 392.993 736.927 392.992 C 736.922 392.99 736.92 392.995 736.915 392.993 C 733.519 392.806 730.554 390.755 729.187 387.632 C 727.751 384.372 728.376 380.595 730.769 377.969 C 730.613 377.609 724.675 364.084 722.681 359.542 Z " fill="rgb(183,181,181)"/><clipPath id="_clipPath_Yip2JapwcYuTtCySbNPLSNFhuBamEGok"><path d=" M 722.681 359.542 C 721.24 356.263 720.348 354.247 717.477 347.711 C 715.511 343.225 714.693 341.364 714.45 340.818 C 710.897 340.804 707.693 338.709 706.263 335.446 C 704.889 332.327 705.384 328.756 707.544 326.128 C 707.546 326.123 707.55 326.125 707.552 326.12 C 707.563 326.107 707.578 326.097 707.593 326.086 C 707.602 326.079 707.617 326.068 707.632 326.057 C 707.637 326.059 707.639 326.054 707.639 326.054 C 707.652 326.048 707.664 326.047 707.675 326.046 C 707.694 326.042 707.712 326.038 707.73 326.034 C 707.747 326.035 707.763 326.036 707.779 326.036 C 707.794 326.042 707.81 326.043 707.825 326.048 C 707.846 326.051 707.859 326.062 707.871 326.072 C 707.886 326.078 707.895 326.081 707.908 326.092 C 707.913 326.094 707.913 326.094 707.916 326.1 C 707.928 326.111 707.934 326.124 707.947 326.135 C 707.958 326.15 707.968 326.165 707.974 326.179 C 707.979 326.18 707.979 326.18 707.982 326.187 L 710.083 330.97 C 710.34 331.555 710.805 332.004 711.4 332.235 C 711.99 332.465 712.639 332.456 713.219 332.198 L 715.617 331.145 C 716.82 330.616 717.368 329.209 716.84 328.007 L 714.736 323.217 C 714.736 323.217 714.737 323.212 714.733 323.21 C 714.729 323.192 714.729 323.176 714.724 323.162 C 714.72 323.144 714.716 323.126 714.717 323.109 C 714.718 323.104 714.714 323.103 714.716 323.098 C 714.714 323.087 714.723 323.078 714.724 323.062 C 714.73 323.047 714.733 323.026 714.738 323.012 C 714.746 322.993 714.756 322.98 714.766 322.967 C 714.777 322.955 714.782 322.94 714.798 322.93 C 714.808 322.917 714.824 322.906 714.839 322.896 C 714.85 322.894 714.861 322.882 714.868 322.879 C 714.874 322.876 714.874 322.876 714.879 322.878 C 714.894 322.867 714.911 322.868 714.929 322.864 C 714.947 322.86 714.965 322.856 714.982 322.857 C 714.982 322.857 714.987 322.859 714.989 322.854 C 718.388 323.048 721.353 325.1 722.722 328.217 C 723.702 330.447 723.72 332.916 722.871 335.096 C 722.477 336.107 721.893 337.048 721.133 337.883 L 725.905 348.735 C 725.93 348.786 725.954 348.837 725.977 348.889 L 727.941 353.366 L 730.079 358.229 C 730.103 358.283 730.126 358.337 730.147 358.392 L 737.452 375.033 C 738.58 375.038 739.669 375.245 740.679 375.639 C 742.86 376.488 744.665 378.172 745.645 380.402 C 747.014 383.519 746.519 387.091 744.363 389.725 C 744.358 389.724 744.356 389.728 744.356 389.728 C 744.346 389.741 744.33 389.751 744.315 389.762 C 744.3 389.773 744.289 389.786 744.271 389.79 C 744.269 389.795 744.269 389.795 744.263 389.798 C 744.256 389.8 744.239 389.8 744.231 389.807 C 744.213 389.811 744.195 389.816 744.178 389.815 C 744.16 389.819 744.145 389.813 744.129 389.812 C 744.113 389.812 744.096 389.811 744.077 389.803 C 744.063 389.798 744.045 389.785 744.031 389.78 C 744.018 389.769 744.006 389.77 743.998 389.762 C 743.994 389.76 743.995 389.755 743.991 389.753 C 743.978 389.743 743.968 389.727 743.957 389.712 C 743.95 389.699 743.938 389.688 743.927 389.673 C 743.929 389.668 743.924 389.666 743.924 389.666 L 741.82 384.876 C 741.292 383.674 739.885 383.126 738.683 383.654 L 736.284 384.707 C 735.702 384.96 735.256 385.432 735.026 386.022 C 734.795 386.616 734.81 387.263 735.067 387.847 L 737.168 392.631 C 737.171 392.637 737.171 392.637 737.169 392.642 C 737.175 392.655 737.179 392.674 737.183 392.692 C 737.182 392.708 737.188 392.722 737.187 392.738 C 737.19 392.745 737.19 392.745 737.188 392.749 C 737.187 392.766 737.184 392.775 737.178 392.79 C 737.177 392.806 737.176 392.823 737.164 392.84 C 737.158 392.855 737.148 392.867 737.142 392.882 C 737.131 392.894 737.121 392.907 737.111 392.92 C 737.095 392.931 737.08 392.941 737.065 392.952 C 737.056 392.959 737.047 392.967 737.034 392.973 C 737.034 392.973 737.029 392.971 737.028 392.976 C 737.009 392.98 736.991 392.984 736.979 392.985 C 736.961 392.989 736.943 392.993 736.927 392.992 C 736.922 392.99 736.92 392.995 736.915 392.993 C 733.519 392.806 730.554 390.755 729.187 387.632 C 727.751 384.372 728.376 380.595 730.769 377.969 C 730.613 377.609 724.675 364.084 722.681 359.542 Z " fill="rgb(183,181,181)"/></clipPath><g clip-path="url(#_clipPath_Yip2JapwcYuTtCySbNPLSNFhuBamEGok)"><linearGradient id="_lgradient_1" x1="0.535770535976532" y1="0.4735994400837811" x2="1.0824869975502327" y2="0.46681024810863503" gradientTransform="matrix(16.458,-7.23,29.395,66.919,703.852,326.701)" gradientUnits="userSpaceOnUse"><stop offset="0%" stop-opacity="1" style="stop-color:rgb(202,202,202)"/><stop offset="98.69565217391305%" stop-opacity="1" style="stop-color:rgb(234,234,234)"/></linearGradient><path d=" M 723.506 358.163 C 722.064 354.884 721.173 352.868 718.302 346.332 C 716.336 341.846 715.518 339.985 715.275 339.439 C 711.722 339.425 708.518 337.33 707.088 334.067 C 705.714 330.948 706.209 327.377 708.369 324.749 C 708.371 324.744 708.375 324.746 708.377 324.741 C 708.388 324.728 708.403 324.718 708.418 324.707 C 708.427 324.7 708.442 324.689 708.457 324.678 C 708.462 324.68 708.464 324.675 708.464 324.675 C 708.477 324.669 708.489 324.668 708.5 324.667 C 708.519 324.663 708.537 324.659 708.555 324.655 C 708.572 324.656 708.588 324.657 708.604 324.657 C 708.619 324.663 708.635 324.664 708.65 324.669 C 708.671 324.672 708.684 324.683 708.696 324.693 C 708.711 324.699 708.72 324.702 708.733 324.713 C 708.738 324.715 708.738 324.715 708.741 324.721 C 708.753 324.732 708.759 324.745 708.772 324.756 C 708.783 324.771 708.793 324.786 708.799 324.8 C 708.804 324.801 708.804 324.801 708.807 324.808 L 710.908 329.591 C 711.165 330.176 711.63 330.625 712.225 330.856 C 712.815 331.086 713.464 331.077 714.044 330.819 L 716.442 329.766 C 717.645 329.237 718.193 327.83 717.665 326.628 L 715.561 321.838 C 715.561 321.838 715.562 321.833 715.558 321.831 C 715.554 321.813 715.554 321.797 715.549 321.783 C 715.545 321.765 715.541 321.747 715.542 321.73 C 715.543 321.725 715.539 321.724 715.54 321.719 C 715.539 321.708 715.548 321.7 715.549 321.683 C 715.555 321.668 715.558 321.647 715.563 321.633 C 715.571 321.614 715.581 321.601 715.591 321.588 C 715.602 321.576 715.607 321.561 715.623 321.551 C 715.633 321.538 715.649 321.528 715.664 321.517 C 715.675 321.516 715.686 321.503 715.693 321.5 C 715.699 321.497 715.699 321.497 715.704 321.499 C 715.719 321.488 715.736 321.489 715.754 321.485 C 715.772 321.481 715.79 321.477 715.807 321.478 C 715.807 321.478 715.812 321.48 715.813 321.475 C 719.213 321.669 722.178 323.721 723.547 326.838 C 724.527 329.068 724.545 331.537 723.695 333.717 C 723.302 334.728 722.718 335.67 721.958 336.504 L 726.73 347.357 C 726.755 347.407 726.779 347.458 726.802 347.51 L 728.766 351.987 L 730.904 356.85 C 730.928 356.904 730.95 356.958 730.971 357.013 L 738.277 373.654 C 739.405 373.659 740.494 373.866 741.504 374.26 C 743.685 375.109 745.49 376.793 746.47 379.023 C 747.839 382.141 747.344 385.712 745.187 388.346 C 745.183 388.345 745.181 388.349 745.181 388.349 C 745.17 388.362 745.155 388.372 745.14 388.383 C 745.125 388.394 745.114 388.407 745.096 388.411 C 745.094 388.416 745.094 388.416 745.087 388.419 C 745.081 388.421 745.064 388.421 745.056 388.429 C 745.037 388.432 745.019 388.437 745.003 388.436 C 744.984 388.44 744.97 388.434 744.954 388.433 C 744.938 388.433 744.921 388.432 744.902 388.424 C 744.888 388.419 744.87 388.406 744.855 388.401 C 744.843 388.39 744.831 388.391 744.823 388.383 C 744.819 388.381 744.82 388.376 744.816 388.374 C 744.803 388.364 744.793 388.348 744.782 388.333 C 744.775 388.32 744.763 388.309 744.752 388.294 C 744.754 388.289 744.749 388.287 744.749 388.287 L 742.645 383.497 C 742.117 382.295 740.71 381.747 739.507 382.275 L 737.109 383.328 C 736.527 383.581 736.081 384.053 735.851 384.643 C 735.62 385.237 735.635 385.884 735.892 386.468 L 737.993 391.252 C 737.996 391.258 737.996 391.258 737.994 391.263 C 738 391.277 738.004 391.295 738.008 391.313 C 738.007 391.329 738.013 391.343 738.012 391.359 C 738.015 391.366 738.015 391.366 738.013 391.371 C 738.012 391.387 738.008 391.396 738.003 391.411 C 738.002 391.427 738.001 391.444 737.989 391.461 C 737.983 391.476 737.973 391.488 737.967 391.503 C 737.956 391.515 737.946 391.528 737.935 391.541 C 737.92 391.552 737.905 391.562 737.89 391.573 C 737.881 391.58 737.872 391.588 737.859 391.594 C 737.859 391.594 737.854 391.592 737.852 391.597 C 737.834 391.601 737.816 391.605 737.804 391.606 C 737.786 391.61 737.768 391.614 737.751 391.613 C 737.747 391.611 737.745 391.616 737.74 391.614 C 734.344 391.427 731.379 389.376 730.012 386.253 C 728.576 382.993 729.201 379.216 731.594 376.59 C 731.438 376.23 725.5 362.705 723.506 358.163 Z " fill="url(#_lgradient_1)"/></g><path d=" M 726.541 349.243 C 719.829 351.167 716.107 358.464 718.49 365.027 C 721.166 372.399 730.531 375.311 736.916 370.757 L 726.541 349.243 Z " fill="rgb(238,0,87)"/><path d=" M 726.222 355.352 C 726.283 353.247 723.865 351.468 720.825 351.38 C 717.785 351.292 715.268 352.93 715.207 355.034 C 715.147 357.138 717.565 358.918 720.605 359.006 C 723.645 359.093 726.162 357.456 726.222 355.352 Z " fill="rgb(191,0,70)"/><path d=" M 725.756 354.582 C 725.817 352.478 723.399 350.698 720.359 350.611 C 717.319 350.523 714.802 352.16 714.741 354.265 C 714.681 356.369 717.099 358.149 720.139 358.236 C 723.179 358.324 725.696 356.687 725.756 354.582 Z " fill="rgb(238,0,87)"/></g></g></svg>