<?xml version="1.0" encoding="UTF-8" standalone="no"?><!-- Generator: Gravit.io --><svg xmlns="http://www.w3.org/2000/svg" xmlns:xlink="http://www.w3.org/1999/xlink" style="isolation:isolate" viewBox="0 0 42 31" width="42px" height="31px"><defs><clipPath id="_clipPath_yusDmvMaJ30SU4dhOW1i9tYa9q1aqLR9"><rect width="42" height="31"/></clipPath></defs><g clip-path="url(#_clipPath_yusDmvMaJ30SU4dhOW1i9tYa9q1aqLR9)"><path d=" M 3.5 0 L 3.5 0 C 5.432 0 7 1.569 7 3.5 L 7 3.5 C 7 5.432 5.432 7 3.5 7 L 3.5 7 C 1.568 7 0 5.432 0 3.5 L 0 3.5 C 0 1.569 1.568 0 3.5 0 Z " fill="rgb(117,117,117)"/><rect x="19" y="24" width="7" height="7" transform="matrix(1,0,0,1,0,0)" fill="rgb(117,117,117)"/><path d=" M 12.5 12 L 12.5 12 C 14.432 12 16 13.569 16 15.5 L 16 15.5 C 16 17.432 14.432 19 12.5 19 L 12.5 19 C 10.568 19 9 17.432 9 15.5 L 9 15.5 C 9 13.569 10.568 12 12.5 12 Z  M 12.5 14 C 12.9 14 13.28 14.16 13.56 14.44 C 13.84 14.72 14 15.1 14 15.5 C 14 15.9 13.84 16.28 13.56 16.56 C 13.28 16.84 12.9 17 12.5 17 C 12.1 17 11.72 16.84 11.44 16.56 C 11.16 16.28 11 15.9 11 15.5 C 11 15.1 11.16 14.72 11.44 14.44 C 11.72 14.16 12.1 14 12.5 14 Z " fill-rule="evenodd" fill="rgb(117,117,117)"/><rect x="11" y="2" width="31" height="3" transform="matrix(1,0,0,1,0,0)" fill="rgb(195,195,195)"/><rect x="20" y="14" width="22" height="3" transform="matrix(1,0,0,1,0,0)" fill="rgb(195,195,195)"/><rect x="30" y="26" width="12" height="3" transform="matrix(1,0,0,1,0,0)" fill="rgb(195,195,195)"/></g></svg>