<?xml version="1.0" standalone="no"?><!-- Generator: Gravit.io --><svg xmlns="http://www.w3.org/2000/svg" xmlns:xlink="http://www.w3.org/1999/xlink" style="isolation:isolate" viewBox="249.05 685.55 44.95 32.45" width="44.95" height="32.45"><g><rect x="260" y="697.55" width="7" height="7" transform="matrix(0.707,0.707,-0.707,0.707,572.895,19.01)" fill="rgb(117,117,117)"/><path d=" M 272.5 708.1 L 277.45 713.05 L 272.5 718 L 267.55 713.05 L 272.5 708.1 Z  M 272.5 710.93 L 274.62 713.05 L 272.5 715.17 L 270.38 713.05 L 272.5 710.93 Z " fill-rule="evenodd" fill="rgb(117,117,117)"/><path d=" M 257.45 685.55 L 258.95 687.05 L 253 693 L 249.05 689.05 L 250.55 687.55 L 253 690 L 257.45 685.55 Z " fill="rgb(117,117,117)"/><rect x="262" y="687.55" width="32" height="3" transform="matrix(1,0,0,1,0,0)" fill="rgb(195,195,195)"/><rect x="272" y="699.55" width="22" height="3" transform="matrix(1,0,0,1,0,0)" fill="rgb(195,195,195)"/><rect x="281" y="711.55" width="13" height="3" transform="matrix(1,0,0,1,0,0)" fill="rgb(195,195,195)"/></g></svg>