<?xml version="1.0" standalone="no"?><!-- Generator: Gravit.io --><svg xmlns="http://www.w3.org/2000/svg" xmlns:xlink="http://www.w3.org/1999/xlink" style="isolation:isolate" viewBox="319 928 42 31.748" width="42" height="31.748"><g><path d=" M 319 928 L 326 928 L 326 935 L 319 935 L 319 928 Z  M 321 930 L 324 930 L 324 933 L 321 933 L 321 930 Z " fill-rule="evenodd" fill="rgb(235,235,235)"/><polygon points="335,943.706,328,947.748,328,939.665" fill="rgb(235,235,235)"/><path d=" M 344 955.706 L 340.5 957.727 L 337 959.748 L 337 955.706 L 337 951.665 L 340.5 953.685 L 344 955.706 Z  M 340.8 955.71 L 339.7 956.34 L 338.6 956.98 L 338.6 955.71 L 338.6 954.44 L 339.7 955.07 L 340.8 955.71 Z " fill-rule="evenodd" fill="rgb(235,235,235)"/><rect x="329" y="930" width="32" height="3" transform="matrix(1,0,0,1,0,0)" fill="rgb(125,125,125)"/><rect x="339" y="942" width="22" height="3" transform="matrix(1,0,0,1,0,0)" fill="rgb(125,125,125)"/><rect x="348" y="954" width="13" height="3" transform="matrix(1,0,0,1,0,0)" fill="rgb(125,125,125)"/></g></svg>