<?xml version="1.0" standalone="no"?><!-- Generator: Gravit.io --><svg xmlns="http://www.w3.org/2000/svg" xmlns:xlink="http://www.w3.org/1999/xlink" style="isolation:isolate" viewBox="249.05 928 44.95 32.45" width="44.95" height="32.45"><g><rect x="260" y="940" width="7" height="7" transform="matrix(0.707,0.707,-0.707,0.707,744.333,90.022)" fill="rgb(235,235,235)"/><path d=" M 272.5 950.55 L 277.45 955.5 L 272.5 960.45 L 267.55 955.5 L 272.5 950.55 Z  M 272.5 953.38 L 274.62 955.5 L 272.5 957.62 L 270.38 955.5 L 272.5 953.38 Z " fill-rule="evenodd" fill="rgb(235,235,235)"/><path d=" M 257.45 928 L 258.95 929.5 L 253 935.45 L 249.05 931.5 L 250.55 930 L 253 932.45 L 257.45 928 Z " fill="rgb(235,235,235)"/><rect x="262" y="930" width="32" height="3" transform="matrix(1,0,0,1,0,0)" fill="rgb(125,125,125)"/><rect x="272" y="942" width="22" height="3" transform="matrix(1,0,0,1,0,0)" fill="rgb(125,125,125)"/><rect x="281" y="954" width="13" height="3" transform="matrix(1,0,0,1,0,0)" fill="rgb(125,125,125)"/></g></svg>