<?xml version="1.0" standalone="no"?><!-- Generator: Gravit.io --><svg xmlns="http://www.w3.org/2000/svg" xmlns:xlink="http://www.w3.org/1999/xlink" style="isolation:isolate" viewBox="319 685.55 42 31.748" width="42" height="31.748"><g><path d=" M 319 685.55 L 326 685.55 L 326 692.55 L 319 692.55 L 319 685.55 Z  M 321 687.55 L 324 687.55 L 324 690.55 L 321 690.55 L 321 687.55 Z " fill-rule="evenodd" fill="rgb(117,117,117)"/><polygon points="335,701.256,328,705.298,328,697.215" fill="rgb(117,117,117)"/><path d=" M 344 713.256 L 340.5 715.277 L 337 717.298 L 337 713.256 L 337 709.215 L 340.5 711.236 L 344 713.256 Z  M 340.8 713.26 L 339.7 713.89 L 338.6 714.53 L 338.6 713.26 L 338.6 711.99 L 339.7 712.62 L 340.8 713.26 Z " fill-rule="evenodd" fill="rgb(117,117,117)"/><rect x="329" y="687.55" width="32" height="3" transform="matrix(1,0,0,1,0,0)" fill="rgb(195,195,195)"/><rect x="339" y="699.55" width="22" height="3" transform="matrix(1,0,0,1,0,0)" fill="rgb(195,195,195)"/><rect x="348" y="711.55" width="13" height="3" transform="matrix(1,0,0,1,0,0)" fill="rgb(195,195,195)"/></g></svg>