<?xml version="1.0" encoding="UTF-8" standalone="no"?><!-- Generator: Gravit.io -->
<svg width="100%" height="100%" viewBox="0 0 36 36" version="1.1"
    xmlns="http://www.w3.org/2000/svg"
    xmlns:xlink="http://www.w3.org/1999/xlink" xml:space="preserve"
    xmlns:serif="http://www.serif.com/" style="fill-rule:evenodd;clip-rule:evenodd;stroke-linejoin:round;stroke-miterlimit:2;">
    <g>
        <g transform="matrix(1,0,0,1,-4,-4)">
            <g>
                <defs>
                    <filter id="LUgnqrnxcWSgz4SGfobwZetYVnvE0LU1" x="-200%" y="-200%" width="400%" height="400%" filterUnits="objectBoundingBox" color-interpolation-filters="sRGB">
                        <feGaussianBlur xmlns="http://www.w3.org/2000/svg" in="SourceGraphic" stdDeviation="1.7174436251356113"/>
                        <feOffset xmlns="http://www.w3.org/2000/svg" dx="0" dy="0" result="pf_100_offsetBlur"/>
                        <feFlood xmlns="http://www.w3.org/2000/svg" flood-color="#000000" flood-opacity="0.3"/>
                        <feComposite xmlns="http://www.w3.org/2000/svg" in2="pf_100_offsetBlur" operator="in" result="pf_100_dropShadow"/>
                        <feBlend xmlns="http://www.w3.org/2000/svg" in="SourceGraphic" in2="pf_100_dropShadow" mode="normal"/>
                    </filter>
                </defs>
                <g filter="url(#LUgnqrnxcWSgz4SGfobwZetYVnvE0LU1)">
                    <linearGradient id="_lgradient_0" x1="-3.7842328525275895e-19" y1="0.009629414463768606" x2="6.002514110361844e-17" y2="0.9960944822845723" gradientTransform="matrix(32,0,0,32,872,2)" gradientUnits="userSpaceOnUse">
                        <stop offset="0.6264916467785135%" stop-opacity="1" style="stop-color:rgb(106,178,251)"/>
                        <stop offset="100%" stop-opacity="1" style="stop-color:rgb(11,129,255)"/>
                    </linearGradient>
                    <path d="M38,14C38,9.59 34.418,6 29.998,6L14.003,6C9.592,6 6,9.59 6,14L6,30.001C6,34.42 9.592,38 14.003,38L29.998,38C34.418,38 38,34.42 38,30.001L38,14Z" fill-rule="evenodd" fill="url(#_lgradient_0)"/>
                </g>
            </g>
            <path d="M28.509,27.786L16.214,27.786C13.819,27.786 11.875,25.842 11.875,23.446C11.875,21.051 13.819,19.107 16.214,19.107C16.464,19.107 16.71,19.129 16.945,19.181C17.937,17.412 19.83,16.214 22,16.214C24.735,16.214 27.029,18.116 27.615,20.674C27.9,20.593 28.199,20.554 28.509,20.554C30.505,20.554 32.125,22.174 32.125,24.17C32.125,26.166 30.505,27.786 28.509,27.786Z" style="fill:white;fill-rule:nonzero;"/>
        </g>
    </g>
</svg>