<?xml version="1.0" encoding="UTF-8" standalone="no"?><!-- Generator: Gravit.io --><svg xmlns="http://www.w3.org/2000/svg" xmlns:xlink="http://www.w3.org/1999/xlink" style="isolation:isolate" viewBox="860 528 11 12" width="11pt" height="12pt"><g><g opacity="0.5"><circle vector-effect="non-scaling-stroke" cx="867.9999999999989" cy="531.4999999999995" r="1.5" fill="rgb(117,117,117)"/></g><g style="mix-blend-mode:normal;" opacity="0.5"><path d="M 868 534 L 869 534 C 870.104 534 871 534.896 871 536 L 871 539 L 866 539 L 866 536 C 866 534.896 866.896 534 868 534 Z" style="stroke:none;fill:#757575;stroke-miterlimit:10;"/></g><circle vector-effect="non-scaling-stroke" cx="864.4999999999973" cy="531.4999999999986" r="3" fill="transparent" stroke-width="1" stroke="rgb(255,255,255)" stroke-linejoin="miter" stroke-linecap="square" stroke-miterlimit="3"/><circle vector-effect="non-scaling-stroke" cx="864.4999999999973" cy="531.4999999999986" r="2.5" fill="rgb(117,117,117)"/><path d="M 863 535 L 866 535 C 867.104 535 868 535.896 868 537 L 868 539 L 861 539 L 861 537 C 861 535.896 861.896 535 863 535 Z" style="stroke:none;fill:#757575;stroke-miterlimit:10;"/><path d="M 863 535 L 866 535 C 867.104 535 868 535.896 868 537 L 868 539 L 861 539 L 861 537 C 861 535.896 861.896 535 863 535 Z" style="fill:none;stroke:#000000;stroke-width:2;stroke-linecap:square;stroke-miterlimit:2;"/><path d="M 863 535 L 866 535 C 867.104 535 868 535.896 868 537 L 868 539 L 861 539 L 861 537 C 861 535.896 861.896 535 863 535 Z" style="stroke:none;fill:#757575;stroke-miterlimit:10;"/><path d="M 863 535 L 866 535 C 867.104 535 868 535.896 868 537 L 868 539 L 861 539 L 861 537 C 861 535.896 861.896 535 863 535 Z" style="fill:none;stroke:#000000;stroke-width:2;stroke-linecap:square;stroke-miterlimit:2;"/></g></svg>