<?xml version="1.0" encoding="UTF-8" standalone="no"?><!-- Generator: Gravit.io --><svg xmlns="http://www.w3.org/2000/svg" xmlns:xlink="http://www.w3.org/1999/xlink" style="isolation:isolate" viewBox="0 0 20 26.28" width="20" height="26.28"><g><path d=" M 4.683 4.898 L 10 2.24 L 15.317 4.898 C 16.798 5.639 18 7.584 18 9.24 L 18 21.279 C 18 22.934 16.656 24.279 15 24.279 L 5 24.279 C 3.344 24.279 2 22.934 2 21.279 L 2 9.24 C 2 7.584 3.202 5.639 4.683 4.898 Z " fill="rgb(255,255,255)"/><g opacity="0.3"><path d=" M 4.683 4.898 L 10 2.24 L 15.317 4.898 C 16.798 5.639 18 7.584 18 9.24 L 18 21.279 C 18 22.934 16.656 24.279 15 24.279 L 5 24.279 C 3.344 24.279 2 22.934 2 21.279 L 2 9.24 C 2 7.584 3.202 5.639 4.683 4.898 Z  M 3.79 3.11 L 10 0 L 16.21 3.11 C 18.53 4.27 20 6.65 20 9.24 L 20 21.28 C 20 22.6 19.47 23.88 18.54 24.81 C 17.6 25.75 16.33 26.28 15 26.28 L 5 26.28 C 3.67 26.28 2.4 25.75 1.46 24.81 C 0.53 23.88 0 22.6 0 21.28 L 0 9.24 C 0 6.65 1.47 4.27 3.79 3.11 Z " fill-rule="evenodd" fill="rgb(0,0,0)"/></g><path d="M 5.953 10.28 L 14.047 10.28 C 14.573 10.28 15 10.707 15 11.233 L 15 11.327 C 15 11.853 14.573 12.28 14.047 12.28 L 5.953 12.28 C 5.427 12.28 5 11.853 5 11.327 L 5 11.233 C 5 10.707 5.427 10.28 5.953 10.28 Z" style="stroke:none;fill:#B2B2B2;stroke-miterlimit:10;"/><path d="M 5.953 14.28 L 14.047 14.28 C 14.573 14.28 15 14.707 15 15.233 L 15 15.327 C 15 15.853 14.573 16.28 14.047 16.28 L 5.953 16.28 C 5.427 16.28 5 15.853 5 15.327 L 5 15.233 C 5 14.707 5.427 14.28 5.953 14.28 Z" style="stroke:none;fill:#B2B2B2;stroke-miterlimit:10;"/><path d="M 5.953 18.28 L 14.047 18.28 C 14.573 18.28 15 18.707 15 19.233 L 15 19.327 C 15 19.853 14.573 20.28 14.047 20.28 L 5.953 20.28 C 5.427 20.28 5 19.853 5 19.327 L 5 19.233 C 5 18.707 5.427 18.28 5.953 18.28 Z" style="stroke:none;fill:#B2B2B2;stroke-miterlimit:10;"/></g></svg>