<?xml version="1.0" encoding="UTF-8" standalone="no"?><!-- Generator: Gravit.io --><svg xmlns="http://www.w3.org/2000/svg" xmlns:xlink="http://www.w3.org/1999/xlink" style="isolation:isolate" viewBox="196 13 16 16" width="16px" height="16px"><g><path d=" M 196 24 L 196 15 L 196 15 L 197 15 L 197 24 L 196 24 Z " fill="rgb(79,79,79)"/><path d=" M 208 19.022 L 208 15.969 L 205.031 13 L 198 13 L 198 13 L 198 26 L 202.207 26 C 202.116 25.678 202.053 25.343 202.022 25 L 199 25 L 199 14 L 199 14 L 204.609 14 L 204.609 16.391 L 207 16.391 L 207 19.022 C 207.165 19.008 207.331 19 207.5 19 C 207.669 19 207.835 19.008 208 19.022 Z " fill-rule="evenodd" fill="rgb(79,79,79)"/><path d=" M 208 24 L 208 22 L 207 22 L 207 22 L 207 24 L 205 24 L 205 25 L 207 25 L 207 27 L 208 27 L 208 25 L 210 25 L 210 24 L 208 24 Z  M 204 24.5 C 204 22.568 205.568 21 207.5 21 C 209.432 21 211 22.568 211 24.5 C 211 26.432 209.432 28 207.5 28 C 205.568 28 204 26.432 204 24.5 L 204 24.5 L 204 24.5 Z  M 203 24.5 C 203 22.016 205.016 20 207.5 20 C 209.984 20 212 22.016 212 24.5 C 212 26.984 209.984 29 207.5 29 C 205.016 29 203 26.984 203 24.5 L 203 24.5 L 203 24.5 Z " fill-rule="evenodd" fill="rgb(79,79,79)"/></g></svg>