<?xml version="1.0" standalone="no"?><!-- Generator: Gravit.io --><svg xmlns="http://www.w3.org/2000/svg" xmlns:xlink="http://www.w3.org/1999/xlink" style="isolation:isolate" viewBox="299.98 147.583 20 16" width="20" height="16"><g><g><path d=" M 319.257 154.583 L 319.836 154.583 L 319.836 155.583 L 319.257 155.583 L 300.702 155.583 L 300.123 155.583 L 300.123 154.583 L 300.702 154.583 L 319.257 154.583 Z " fill="rgb(235,235,235)"/><path d=" M 310.88 161.24 L 309.505 161.24 L 308.083 157.607 L 303.505 157.607 L 302.098 161.24 L 300.755 161.24 L 305.27 149.771 L 306.387 149.771 L 310.88 161.24 Z  M 303.973 156.411 L 307.669 156.411 L 306.341 152.872 L 306.341 152.872 Q 306.083 152.201 305.809 151.224 L 305.809 151.224 L 305.809 151.224 Q 305.637 151.974 305.317 152.872 L 305.317 152.872 L 303.973 156.411 Z  M 318.481 161.24 L 317.52 161.24 L 317.262 160.021 L 317.2 160.021 L 317.2 160.021 Q 316.559 160.826 315.923 161.111 L 315.923 161.111 L 315.923 161.111 Q 315.286 161.396 314.333 161.396 L 314.333 161.396 L 314.333 161.396 Q 313.059 161.396 312.337 160.74 L 312.337 160.74 L 312.337 160.74 Q 311.614 160.083 311.614 158.872 L 311.614 158.872 L 311.614 158.872 Q 311.614 156.279 315.762 156.154 L 315.762 156.154 L 317.216 156.107 L 317.216 155.576 L 317.216 155.576 Q 317.216 154.568 316.782 154.087 L 316.782 154.087 L 316.782 154.087 Q 316.348 153.607 315.395 153.607 L 315.395 153.607 L 315.395 153.607 Q 314.325 153.607 312.973 154.263 L 312.973 154.263 L 312.575 153.271 L 312.575 153.271 Q 313.208 152.927 313.962 152.732 L 313.962 152.732 L 313.962 152.732 Q 314.716 152.536 315.473 152.536 L 315.473 152.536 L 315.473 152.536 Q 317.005 152.536 317.743 153.216 L 317.743 153.216 L 317.743 153.216 Q 318.481 153.896 318.481 155.396 L 318.481 155.396 L 318.481 161.24 Z  M 314.591 160.326 L 314.591 160.326 L 314.591 160.326 Q 315.802 160.326 316.493 159.661 L 316.493 159.661 L 316.493 159.661 Q 317.184 158.997 317.184 157.802 L 317.184 157.802 L 317.184 157.029 L 315.887 157.083 L 315.887 157.083 Q 314.341 157.138 313.657 157.564 L 313.657 157.564 L 313.657 157.564 Q 312.973 157.99 312.973 158.888 L 312.973 158.888 L 312.973 158.888 Q 312.973 159.591 313.399 159.958 L 313.399 159.958 L 313.399 159.958 Q 313.825 160.326 314.591 160.326 Z " fill-rule="evenodd" fill="rgb(235,235,235)"/></g></g></svg>