<?xml version="1.0" encoding="UTF-8" standalone="no"?><!-- Generator: Gravit.io --><svg xmlns="http://www.w3.org/2000/svg" xmlns:xlink="http://www.w3.org/1999/xlink" style="isolation:isolate" viewBox="0 0 20 20" width="20pt" height="20pt"><defs><clipPath id="_clipPath_Yep6EnQMJrX3e4KqkP77n1lqT0MdZrbv"><rect width="20" height="20"/></clipPath></defs><g clip-path="url(#_clipPath_Yep6EnQMJrX3e4KqkP77n1lqT0MdZrbv)"><g><path d=" M 14.091 0 L 3.182 0 C 2.182 0 1.364 0.818 1.364 1.818 L 1.364 14.545 L 3.182 14.545 L 3.182 1.818 L 14.091 1.818 L 14.091 0 L 14.091 0 Z  M 16.818 18.182 L 6.818 18.182 L 6.818 5.455 L 16.818 5.455 L 16.818 18.182 L 16.818 18.182 Z  M 16.818 3.636 L 6.818 3.636 C 5.818 3.636 5 4.455 5 5.455 L 5 18.182 C 5 19.182 5.818 20 6.818 20 L 16.818 20 C 17.818 20 18.636 19.182 18.636 18.182 L 18.636 5.455 C 18.636 4.455 17.818 3.636 16.818 3.636 L 16.818 3.636 Z  M 12.652 12.652 L 12.652 14.925 C 12.096 14.925 11.54 14.925 10.985 14.925 L 10.985 12.652 L 8.711 12.652 L 8.711 10.985 L 10.985 10.985 L 10.985 8.712 L 12.652 8.712 L 12.652 10.985 L 14.925 10.985 L 14.925 12.652 L 12.652 12.652 Z " fill-rule="evenodd" fill="rgb(0,0,0)"/><rect x="0" y="0" width="20" height="20" transform="matrix(1,0,0,1,0,0)" fill="none"/></g></g></svg>