<?xml version="1.0" standalone="no"?><!-- Generator: Gravit.io --><svg xmlns="http://www.w3.org/2000/svg" xmlns:xlink="http://www.w3.org/1999/xlink" style="isolation:isolate" viewBox="114.504 147.583 16 16" width="16" height="16"><g><path d=" M 122.647 161.383 L 118.014 161.383 L 118.014 149.783 L 122.281 149.783 L 122.281 149.783 Q 123.483 149.783 124.327 150.006 L 124.327 150.006 L 124.327 150.006 Q 125.171 150.229 125.705 150.635 L 125.705 150.635 L 125.705 150.635 Q 126.238 151.041 126.481 151.622 L 126.481 151.622 L 126.481 151.622 Q 126.724 152.204 126.724 152.92 L 126.724 152.92 L 126.724 152.92 Q 126.724 153.31 126.612 153.673 L 126.612 153.673 L 126.612 153.673 Q 126.501 154.035 126.262 154.353 L 126.262 154.353 L 126.262 154.353 Q 126.023 154.672 125.649 154.93 L 125.649 154.93 L 125.649 154.93 Q 125.275 155.189 124.749 155.38 L 124.749 155.38 L 124.749 155.38 Q 125.896 155.659 126.445 156.284 L 126.445 156.284 L 126.445 156.284 Q 126.994 156.909 126.994 157.888 L 126.994 157.888 L 126.994 157.888 Q 126.994 158.629 126.708 159.266 L 126.708 159.266 L 126.708 159.266 Q 126.421 159.902 125.868 160.376 L 125.868 160.376 L 125.868 160.376 Q 125.315 160.85 124.503 161.117 L 124.503 161.117 L 124.503 161.117 Q 123.69 161.383 122.647 161.383 L 122.647 161.383 Z  M 122.584 156.463 L 120.705 156.463 L 120.705 159.353 L 122.6 159.353 L 122.6 159.353 Q 123.133 159.353 123.472 159.218 L 123.472 159.218 L 123.472 159.218 Q 123.81 159.082 124.001 158.867 L 124.001 158.867 L 124.001 158.867 Q 124.192 158.652 124.264 158.382 L 124.264 158.382 L 124.264 158.382 Q 124.335 158.111 124.335 157.832 L 124.335 157.832 L 124.335 157.832 Q 124.335 157.514 124.252 157.259 L 124.252 157.259 L 124.252 157.259 Q 124.168 157.004 123.965 156.829 L 123.965 156.829 L 123.965 156.829 Q 123.762 156.654 123.428 156.559 L 123.428 156.559 L 123.428 156.559 Q 123.093 156.463 122.584 156.463 L 122.584 156.463 Z  M 120.705 151.798 L 120.705 154.664 L 122.106 154.664 L 122.106 154.664 Q 122.552 154.664 122.91 154.6 L 122.91 154.6 L 122.91 154.6 Q 123.268 154.536 123.519 154.377 L 123.519 154.377 L 123.519 154.377 Q 123.77 154.218 123.901 153.939 L 123.901 153.939 L 123.901 153.939 Q 124.033 153.661 124.033 153.239 L 124.033 153.239 L 124.033 153.239 Q 124.033 152.825 123.929 152.55 L 123.929 152.55 L 123.929 152.55 Q 123.826 152.275 123.611 152.108 L 123.611 152.108 L 123.611 152.108 Q 123.396 151.941 123.065 151.869 L 123.065 151.869 L 123.065 151.869 Q 122.735 151.798 122.281 151.798 L 122.281 151.798 L 120.705 151.798 Z " fill-rule="evenodd" fill="rgb(215,215,215)"/></g></svg>