<?xml version="1.0" encoding="UTF-8" standalone="no"?><!-- Generator: Gravit.io --><svg xmlns="http://www.w3.org/2000/svg" xmlns:xlink="http://www.w3.org/1999/xlink" style="isolation:isolate" viewBox="1008 38 20.25 11.571" width="20.25px" height="11.571px"><path d=" M 1024.634 49.571 L 1018.125 49.571 L 1012.339 49.571 C 1012.339 49.571 1012.339 49.571 1012.339 49.571 C 1009.944 49.571 1008 47.627 1008 45.232 C 1008 42.837 1009.944 40.893 1012.339 40.893 C 1012.589 40.893 1012.835 40.915 1013.07 40.967 C 1014.062 39.198 1015.955 38 1018.125 38 C 1020.86 38 1023.154 39.902 1023.74 42.459 C 1024.025 42.378 1024.324 42.339 1024.634 42.339 C 1026.63 42.339 1028.25 43.959 1028.25 45.955 C 1028.25 47.951 1026.63 49.571 1024.634 49.571 L 1024.634 49.571 Z " fill="rgb(215,215,215)"/></svg>