<?xml version="1.0" encoding="UTF-8" standalone="no"?><!-- Generator: Gravit.io --><svg xmlns="http://www.w3.org/2000/svg" xmlns:xlink="http://www.w3.org/1999/xlink" style="isolation:isolate" viewBox="245 318 19 16.947" width="19pt" height="16.947pt"><path d=" M 259.436 332.085 L 258.477 331.125 L 258.477 331.125 C 258.335 331.202 258.173 331.246 258 331.246 C 257.448 331.246 257 330.798 257 330.246 L 257 330.246 C 257 330.074 257.044 329.911 257.121 329.769 L 256.161 328.81 C 255.852 329.206 255.667 329.705 255.667 330.246 L 255.667 330.246 L 255.667 330.246 C 255.667 331.534 256.712 332.579 258 332.579 C 258.541 332.579 259.04 332.395 259.436 332.085 L 259.436 332.085 L 259.436 332.085 Z  M 258.095 327.915 C 259.307 327.963 260.283 328.939 260.331 330.152 L 262.276 332.096 Q 263.116 331.313 264 330.246 Q 260.686 326.246 258 326.246 Q 257.349 326.246 256.661 326.481 L 258.095 327.915 L 258.095 327.915 L 258.095 327.915 L 258.095 327.915 Z  M 253.766 325 L 253.059 325.707 L 254.828 327.476 Q 253.476 328.464 252 330.246 L 252 330.246 L 252 330.246 Q 255.314 334.246 258 334.246 Q 259.276 334.246 260.694 333.343 L 262.299 334.947 L 263.006 334.24 L 253.766 325 L 253.766 325 L 253.766 325 Z  M 260 325.303 L 260 318 L 245 318 L 245 331 L 248 331 L 248 334 L 251.108 331.514 Q 250.777 331.156 250.441 330.768 L 249.001 331.92 L 249.001 330 L 246.001 330 L 246.001 319 L 259.001 319 L 259.001 325.014 Q 259.493 325.111 260 325.303 Z " fill-rule="evenodd" fill="rgb(215,215,215)"/></svg>