<?xml version="1.0" standalone="no"?><!-- Generator: Gravit.io --><svg xmlns="http://www.w3.org/2000/svg" xmlns:xlink="http://www.w3.org/1999/xlink" style="isolation:isolate" viewBox="605.145 88.96 14.18 9.318" width="14.18" height="9.318"><g><path d=" M 613.372 98.278 L 612.255 98.278 L 611.099 95.327 L 607.38 95.327 L 606.237 98.278 L 605.145 98.278 L 608.814 88.96 L 609.722 88.96 L 613.372 98.278 Z  M 607.761 94.356 L 610.763 94.356 L 609.684 91.48 L 609.684 91.48 Q 609.474 90.934 609.252 90.141 L 609.252 90.141 L 609.252 90.141 Q 609.113 90.75 608.852 91.48 L 608.852 91.48 L 607.761 94.356 Z " fill-rule="evenodd" fill="rgb(235,235,235)"/><path d=" M 619.325 98.278 L 618.486 98.278 L 617.618 96.061 L 614.824 96.061 L 613.965 98.278 L 613.145 98.278 L 615.901 91.278 L 616.583 91.278 L 619.325 98.278 Z  M 615.11 95.332 L 617.365 95.332 L 616.555 93.172 L 616.555 93.172 Q 616.397 92.761 616.23 92.165 L 616.23 92.165 L 616.23 92.165 Q 616.126 92.623 615.93 93.172 L 615.93 93.172 L 615.11 95.332 Z " fill-rule="evenodd" fill="rgb(235,235,235)"/></g></svg>