<?xml version="1.0" encoding="UTF-8" standalone="no"?><!-- Generator: Gravit.io --><svg xmlns="http://www.w3.org/2000/svg" xmlns:xlink="http://www.w3.org/1999/xlink" style="isolation:isolate" viewBox="0 0 12 12.002" width="12px" height="12px"><defs><clipPath id="_clipPath_Ccc2rIbXNM4FZd2hkqDzHvSWtYokDsvk"><rect width="12" height="12.002"/></clipPath></defs><g clip-path="url(#_clipPath_Ccc2rIbXNM4FZd2hkqDzHvSWtYokDsvk)"><path d=" M 11.202 12.002 C 11.641 12.002 12 11.649 12 11.216 L 12 3.196 C 12 2.763 11.641 2.409 11.202 2.409 L 3.41 2.409 L 6.537 12.002 L 11.202 12.002 Z " fill="rgb(217,217,217)"/><path d=" M 8.589 9.736 L 6.551 12.002 L 5.809 9.736 L 8.589 9.736 Z " fill="rgb(67,82,184)"/><path d=" M 11.243 5.732 L 11.243 5.264 L 8.982 5.264 L 8.982 4.506 L 8.249 4.506 L 8.249 5.264 L 6.806 5.264 L 6.806 5.732 L 9.677 5.732 C 9.523 6.274 9.184 6.784 8.854 7.181 C 8.267 6.488 8.265 6.261 8.265 6.261 L 7.655 6.261 C 7.655 6.261 7.68 6.599 8.503 7.564 C 8.236 7.836 8.032 7.999 8.032 7.999 L 8.22 8.584 C 8.22 8.584 8.503 8.341 8.857 7.965 C 9.212 8.35 9.67 8.813 10.263 9.365 L 10.647 8.98 C 10.013 8.404 9.547 7.947 9.206 7.58 C 9.664 7.038 10.129 6.356 10.228 5.731 L 11.243 5.731 L 11.243 5.732 Z " fill="rgb(97,125,139)"/><path d=" M 0.798 0 C 0.359 0 0 0.359 0 0.8 L 0 8.939 C 0 9.378 0.359 9.737 0.798 9.737 L 8.59 9.737 L 5.463 0 L 0.798 0 Z " fill="rgb(79,139,245)"/><path d=" M 5.074 4.536 L 4.866 4.536 L 4.183 4.536 L 3.368 4.536 L 3.368 5.243 L 4.35 5.243 C 4.258 5.693 3.875 5.95 3.368 5.95 C 2.769 5.95 2.286 5.467 2.286 4.868 C 2.286 4.269 2.769 3.786 3.368 3.786 C 3.626 3.786 3.858 3.877 4.042 4.028 L 4.575 3.495 C 4.25 3.213 3.834 3.037 3.368 3.037 C 2.352 3.037 1.537 3.852 1.537 4.868 C 1.537 5.884 2.353 6.7 3.368 6.7 C 4.284 6.7 5.116 6.034 5.116 4.869 C 5.116 4.761 5.099 4.644 5.074 4.536 Z " fill="rgb(255,255,255)"/><g opacity="0.2"><path d=" M 6.424 2.409 L 11.202 2.409 C 11.641 2.409 12 2.763 12 3.196 L 12 8.007 L 6.424 2.409 Z " fill="rgb(255,255,255)"/></g></g></svg>