<?xml version="1.0" standalone="no"?><!-- Generator: Gravit.io --><svg xmlns="http://www.w3.org/2000/svg" xmlns:xlink="http://www.w3.org/1999/xlink" style="isolation:isolate" viewBox="477.004 84.767 18 17.704" width="18" height="17.704"><path d=" M 485.23 98.663 L 484.113 98.663 L 482.958 95.711 L 479.238 95.711 L 478.095 98.663 L 477.004 98.663 L 480.672 89.344 L 481.58 89.344 L 485.23 98.663 L 485.23 98.663 Z  M 479.619 94.74 L 482.621 94.74 L 481.542 91.864 L 481.542 91.864 Q 481.333 91.318 481.11 90.525 L 481.11 90.525 L 481.11 90.525 Q 480.971 91.134 480.711 91.864 L 480.711 91.864 L 479.619 94.74 L 479.619 94.74 Z  M 491.406 98.663 L 490.626 98.663 L 490.416 97.672 L 490.365 97.672 L 490.365 97.672 Q 489.845 98.326 489.328 98.558 L 489.328 98.558 L 489.328 98.558 Q 488.81 98.789 488.036 98.789 L 488.036 98.789 L 488.036 98.789 Q 487.001 98.789 486.414 98.256 L 486.414 98.256 L 486.414 98.256 Q 485.827 97.723 485.827 96.739 L 485.827 96.739 L 485.827 96.739 Q 485.827 94.632 489.197 94.53 L 489.197 94.53 L 490.378 94.492 L 490.378 94.06 L 490.378 94.06 Q 490.378 93.242 490.026 92.851 L 490.026 92.851 L 490.026 92.851 Q 489.673 92.461 488.899 92.461 L 488.899 92.461 L 488.899 92.461 Q 488.029 92.461 486.931 92.994 L 486.931 92.994 L 486.608 92.188 L 486.608 92.188 Q 487.122 91.909 487.734 91.75 L 487.734 91.75 L 487.734 91.75 Q 488.347 91.591 488.963 91.591 L 488.963 91.591 L 488.963 91.591 Q 490.207 91.591 490.807 92.143 L 490.807 92.143 L 490.807 92.143 Q 491.406 92.696 491.406 93.914 L 491.406 93.914 L 491.406 98.663 L 491.406 98.663 Z  M 488.245 97.92 L 488.245 97.92 L 488.245 97.92 Q 489.229 97.92 489.791 97.38 L 489.791 97.38 L 489.791 97.38 Q 490.353 96.841 490.353 95.87 L 490.353 95.87 L 490.353 95.241 L 489.299 95.286 L 489.299 95.286 Q 488.042 95.33 487.487 95.676 L 487.487 95.676 L 487.487 95.676 Q 486.931 96.022 486.931 96.752 L 486.931 96.752 L 486.931 96.752 Q 486.931 97.323 487.277 97.621 L 487.277 97.621 L 487.277 97.621 Q 487.623 97.92 488.245 97.92 Z " fill-rule="evenodd" fill="rgb(235,235,235)"/></svg>