<?xml version="1.0" encoding="UTF-8" standalone="no"?><!-- Generator: Gravit.io --><svg xmlns="http://www.w3.org/2000/svg" xmlns:xlink="http://www.w3.org/1999/xlink" style="isolation:isolate" viewBox="203 398 65.047 64" width="65.047" height="64"><g><path d=" M 241.145 458 L 216 458 L 216 439.234 C 216 436.897 217.897 435 220.234 435 L 244.766 435 C 247.103 435 249 436.897 249 439.234 L 249 439.592 C 243.991 442.35 240.594 447.68 240.594 453.797 C 240.594 455.25 240.786 456.659 241.145 458 Z " fill="rgb(215,215,215)"/><path d=" M 263 438.825 L 263 411.333 L 249.667 398 L 246.333 398 L 246.333 418 L 216.333 418 L 213 414.667 L 213 398 L 203 398 L 203 458 L 213 458 L 213 458 L 213 439.905 C 213 435.174 216.841 431.333 221.571 431.333 L 244.429 431.333 C 248.534 431.333 251.969 434.226 252.779 438.091 C 254.065 437.768 255.411 437.594 256.797 437.594 C 258.994 437.594 261.089 438.032 263 438.825 Z  M 230 398 L 243 398 L 243 415 L 230 415 L 230 398 L 230 398 Z  M 268.047 453.797 L 263.969 449.719 L 259.844 453.797 L 262.937 453.797 L 262.937 453.797 Q 262.937 456.328 261.133 458.133 L 261.133 458.133 L 261.133 458.133 Q 259.328 459.938 256.797 459.938 L 256.797 459.938 L 256.797 459.938 Q 255.344 459.938 253.937 459.234 L 253.937 459.234 L 252.437 460.688 L 252.437 460.688 Q 254.406 462 256.797 462 L 256.797 462 L 256.797 462 Q 260.172 462 262.586 459.586 L 262.586 459.586 L 262.586 459.586 Q 265 457.172 265 453.797 L 265 453.797 L 268.047 453.797 Z  M 253.75 453.797 L 250.656 453.797 L 250.656 453.797 Q 250.656 451.266 252.461 449.461 L 252.461 449.461 L 252.461 449.461 Q 254.266 447.656 256.797 447.656 L 256.797 447.656 L 256.797 447.656 Q 258.25 447.656 259.656 448.359 L 259.656 448.359 L 261.156 446.906 L 261.156 446.906 Q 259.187 445.594 256.797 445.594 L 256.797 445.594 L 256.797 445.594 Q 253.422 445.594 251.008 448.008 L 251.008 448.008 L 251.008 448.008 Q 248.594 450.422 248.594 453.797 L 248.594 453.797 L 245.547 453.797 L 249.625 457.875 L 253.75 453.797 Z " fill-rule="evenodd" fill="rgb(166,166,166)"/></g></svg>