<?xml version="1.0" standalone="no"?><!-- Generator: Gravit.io --><svg xmlns="http://www.w3.org/2000/svg" xmlns:xlink="http://www.w3.org/1999/xlink" style="isolation:isolate" viewBox="413.388 84.767 19 17.704" width="19" height="17.704"><path d=" M 421.614 98.663 L 420.497 98.663 L 419.342 95.711 L 415.622 95.711 L 414.48 98.663 L 413.388 98.663 L 417.057 89.344 L 417.964 89.344 L 421.614 98.663 L 421.614 98.663 Z  M 416.003 94.74 L 419.005 94.74 L 417.926 91.864 L 417.926 91.864 Q 417.717 91.318 417.495 90.525 L 417.495 90.525 L 417.495 90.525 Q 417.355 91.134 417.095 91.864 L 417.095 91.864 L 416.003 94.74 L 416.003 94.74 Z  M 429.841 98.663 L 428.724 98.663 L 427.568 95.711 L 423.849 95.711 L 422.706 98.663 L 421.614 98.663 L 425.283 89.344 L 426.191 89.344 L 429.841 98.663 L 429.841 98.663 Z  M 424.23 94.74 L 427.232 94.74 L 426.153 91.864 L 426.153 91.864 Q 425.943 91.318 425.721 90.525 L 425.721 90.525 L 425.721 90.525 Q 425.582 91.134 425.321 91.864 L 425.321 91.864 L 424.23 94.74 L 424.23 94.74 Z " fill-rule="evenodd" fill="rgb(235,235,235)"/></svg>