<?xml version="1.0" encoding="UTF-8" standalone="no"?><!-- Generator: Gravit.io --><svg xmlns="http://www.w3.org/2000/svg" xmlns:xlink="http://www.w3.org/1999/xlink" style="isolation:isolate" viewBox="0 0 16 16" width="16pt" height="16pt"><defs><clipPath id="_clipPath_BFfzGCdefGxUjzJhD5KoKNSGcKdhQKdX"><rect width="16" height="16"/></clipPath></defs><g clip-path="url(#_clipPath_BFfzGCdefGxUjzJhD5KoKNSGcKdhQKdX)"><rect width="16" height="16" style="fill:rgb(46,46,46)" fill-opacity="0"/><path d=" M 2.207 4.501 L 4.35 2.35 C 4.45 2.26 4.5 2.13 4.5 2 C 4.5 1.87 4.45 1.74 4.35 1.65 C 4.26 1.55 4.13 1.5 4 1.5 C 3.87 1.5 3.74 1.55 3.65 1.65 L 0.29 5 L 3.65 8.35 C 3.74 8.45 3.87 8.5 4 8.5 C 4.13 8.5 4.26 8.45 4.35 8.35 C 4.45 8.26 4.5 8.13 4.5 8 C 4.5 7.87 4.45 7.74 4.35 7.65 L 4.35 7.65 L 2.21 5.501 L 6.84 5.51 C 7.51 5.52 8.14 5.78 8.61 6.25 C 9.08 6.72 9.34 7.36 9.34 8.02 L 9.34 10 C 9.34 10.13 9.4 10.26 9.49 10.35 C 9.58 10.45 9.71 10.5 9.84 10.5 C 9.98 10.5 10.1 10.45 10.2 10.35 C 10.29 10.26 10.34 10.13 10.34 10 L 10.34 8.02 C 10.34 7.09 9.98 6.2 9.32 5.54 C 8.66 4.89 7.77 4.52 6.84 4.51 L 2.207 4.501 Z  M 8.79 2.54 C 8.65 2.54 8.52 2.5 8.42 2.41 C 8.33 2.32 8.27 2.2 8.26 2.06 C 8.25 1.93 8.3 1.8 8.39 1.7 C 8.47 1.6 8.6 1.54 8.73 1.54 L 9.39 1.5 C 9.4 1.5 9.41 1.5 9.42 1.5 C 11.14 1.5 12.8 2.19 14.02 3.4 C 15.23 4.62 15.92 6.28 15.92 8 C 15.92 9.72 15.23 11.38 14.02 12.6 C 12.8 13.81 11.14 14.5 9.42 14.5 C 7.42 14.5 5.52 13.57 4.29 11.99 C 4.21 11.89 4.17 11.75 4.19 11.62 C 4.2 11.49 4.27 11.37 4.38 11.29 C 4.48 11.21 4.61 11.17 4.75 11.19 C 4.88 11.2 5 11.27 5.08 11.38 C 6.12 12.71 7.72 13.5 9.42 13.5 C 10.88 13.5 12.28 12.92 13.31 11.89 C 14.34 10.86 14.92 9.46 14.92 8 C 14.92 6.54 14.34 5.15 13.31 4.12 C 12.28 3.08 10.89 2.5 9.43 2.5 L 8.79 2.54 L 8.79 2.54 Z " fill-rule="evenodd" fill="rgb(139,139,139)"/></g></svg>