<?xml version="1.0" standalone="no"?><!-- Generator: Gravit.io --><svg xmlns="http://www.w3.org/2000/svg" xmlns:xlink="http://www.w3.org/1999/xlink" style="isolation:isolate" viewBox="605.676 37.283 13 13" width="13" height="13"><g><path d=" M 613.918 37.378 L 615.21 37.378 L 610.434 50.189 L 609.142 50.189 L 613.918 37.378 Z  M 616.508 43.444 L 616.508 43.444 Q 617.062 43.444 617.549 43.626 L 617.549 43.626 L 617.549 43.626 Q 618.036 43.807 618.342 44.213 L 618.342 44.213 L 618.342 44.213 Q 618.647 44.619 618.647 45.249 L 618.647 45.249 L 618.647 45.249 Q 618.647 45.593 618.475 45.952 L 618.475 45.952 L 618.475 45.952 Q 618.303 46.31 617.845 46.797 L 617.845 46.797 L 617.845 46.797 Q 617.386 47.284 616.546 47.972 L 616.546 47.972 L 616.546 47.972 Q 616.059 48.363 615.791 48.722 L 615.791 48.722 L 615.791 48.722 Q 615.524 49.08 615.476 49.3 L 615.476 49.3 L 617.348 49.347 L 617.348 49.347 Q 617.702 49.366 617.883 49.233 L 617.883 49.233 L 617.883 49.233 Q 618.065 49.099 618.065 48.726 L 618.065 48.726 L 618.676 48.726 L 618.6 50.283 L 614.416 50.283 L 614.416 50.283 Q 614.416 49.663 614.621 49.185 L 614.621 49.185 L 614.621 49.185 Q 614.826 48.707 615.123 48.368 L 615.123 48.368 L 615.123 48.368 Q 615.419 48.029 615.906 47.58 L 615.906 47.58 L 615.906 47.58 Q 616.584 46.95 616.885 46.42 L 616.885 46.42 L 616.885 46.42 Q 617.186 45.889 617.186 45.364 L 617.186 45.364 L 617.186 45.364 Q 617.186 44.839 616.98 44.481 L 616.98 44.481 L 616.98 44.481 Q 616.775 44.122 616.288 44.122 L 616.288 44.122 L 616.288 44.122 Q 616.04 44.122 615.825 44.237 L 615.825 44.237 L 615.825 44.237 Q 615.61 44.352 615.495 44.523 L 615.495 44.523 L 615.495 44.523 Q 615.591 44.619 615.638 44.758 L 615.638 44.758 L 615.638 44.758 Q 615.686 44.896 615.686 45.02 L 615.686 45.02 L 615.686 45.02 Q 615.686 45.23 615.524 45.431 L 615.524 45.431 L 615.524 45.431 Q 615.361 45.632 615.056 45.632 L 615.056 45.632 L 615.056 45.632 Q 614.769 45.632 614.597 45.431 L 614.597 45.431 L 614.597 45.431 Q 614.425 45.23 614.425 44.934 L 614.425 44.934 L 614.425 44.934 Q 614.425 44.629 614.678 44.28 L 614.678 44.28 L 614.678 44.28 Q 614.932 43.931 615.404 43.688 L 615.404 43.688 L 615.404 43.688 Q 615.877 43.444 616.508 43.444 L 616.508 43.444 Z  M 608.436 42.555 L 608.436 42.555 Q 608.436 43.166 608.407 43.415 L 608.407 43.415 L 608.407 43.415 Q 608.713 43.386 609.124 43.386 L 609.124 43.386 L 609.124 44.121 L 606.383 44.121 L 606.383 43.491 L 606.383 43.491 Q 606.64 43.482 606.774 43.429 L 606.774 43.429 L 606.774 43.429 Q 606.908 43.377 606.984 43.205 L 606.984 43.205 L 606.984 43.205 Q 607.061 43.033 607.061 42.66 L 607.061 42.66 L 607.061 38.831 L 606.02 39.451 L 605.676 38.878 L 607.863 37.283 L 608.436 37.283 L 608.436 42.555 Z " fill-rule="evenodd" fill="rgb(255,255,255)" vector-effect="non-scaling-stroke" stroke-width="0.179" stroke="rgb(255,255,255)" stroke-linejoin="miter" stroke-linecap="square" stroke-miterlimit="3"/></g></svg>