<?xml version="1.0" encoding="UTF-8" standalone="no"?><!-- Generator: Gravit.io --><svg xmlns="http://www.w3.org/2000/svg" xmlns:xlink="http://www.w3.org/1999/xlink" style="isolation:isolate" viewBox="0 0 16 16" width="16pt" height="16pt"><defs><clipPath id="_clipPath_xtckCKIlt14LcqOt8dBNde6jUsy7AElZ"><rect width="16" height="16"/></clipPath></defs><g clip-path="url(#_clipPath_xtckCKIlt14LcqOt8dBNde6jUsy7AElZ)"><rect width="16" height="16" style="fill:rgb(46,46,46)" fill-opacity="0"/><g><path d=" M 4.939 15.373 L 5.636 14.294 L 5.636 14.294 C 5.861 13.892 6.364 13.757 6.76 13.993 L 6.827 14.033 C 7.179 14.243 7.63 14.118 7.833 13.755 L 8.285 12.945 L 2.6 9.552 L 2.147 10.363 C 1.944 10.726 2.064 11.192 2.416 11.401 L 2.484 11.442 C 2.879 11.678 3.018 12.196 2.793 12.598 L 1 15.373 L 4.939 15.373 Z  M 9.358 1.04 L 12.028 2.64 L 8.238 10.81 L 4.408 8.52 L 9.358 1.04 L 9.358 1.04 Z  M 9.766 0.118 L 12.609 1.815 C 13.001 2.049 13.16 2.581 12.965 3.003 L 8.68 12.238 L 2.994 8.846 L 8.591 0.394 C 8.847 0.008 9.373 -0.116 9.766 0.118 L 9.766 0.118 Z " fill-rule="evenodd" fill="rgb(255,255,255)"/><path d=" M 14.047 14.5 C 14.177 14.5 14.307 14.55 14.397 14.64 C 14.497 14.74 14.547 14.87 14.547 15 C 14.547 15.13 14.497 15.26 14.397 15.35 C 14.307 15.45 14.177 15.5 14.047 15.5 L 8.677 15.5 C 8.547 15.5 8.417 15.45 8.327 15.35 C 8.237 15.26 8.177 15.13 8.177 15 C 8.177 14.87 8.237 14.74 8.327 14.64 C 8.417 14.55 8.547 14.5 8.677 14.5 L 14.047 14.5 Z " fill="rgb(255,255,255)"/></g></g></svg>