<?xml version="1.0" encoding="UTF-8" standalone="no"?><!-- Generator: Gravit.io --><svg xmlns="http://www.w3.org/2000/svg" xmlns:xlink="http://www.w3.org/1999/xlink" style="isolation:isolate" viewBox="774.199 461.5 15.896 18" width="15.896px" height="18px"><g><path d=" M 784.947 462.852 L 784.947 462.852 L 782.112 462.852 L 782.112 462.852 Q 781.914 462.258 781.386 461.879 L 781.386 461.879 L 781.386 461.879 Q 780.859 461.5 780.232 461.5 L 780.232 461.5 L 780.232 461.5 Q 779.606 461.5 779.078 461.879 L 779.078 461.879 L 779.078 461.879 Q 778.551 462.258 778.353 462.852 L 778.353 462.852 L 775.518 462.852 L 775.518 462.852 Q 774.957 462.852 774.578 463.231 L 774.578 463.231 L 774.578 463.231 Q 774.199 463.61 774.199 464.171 L 774.199 464.171 L 774.199 474.919 L 774.199 474.919 Q 774.199 475.48 774.578 475.875 L 774.578 475.875 L 774.578 475.875 Q 774.957 476.271 775.518 476.271 L 775.518 476.271 L 784.947 476.271 L 784.947 476.271 Q 785.508 476.271 785.887 475.875 L 785.887 475.875 L 785.887 475.875 Q 786.266 475.48 786.266 474.919 L 786.266 474.919 L 786.266 464.171 L 786.266 464.171 Q 786.266 463.61 785.887 463.231 L 785.887 463.231 L 785.887 463.231 Q 785.508 462.852 784.947 462.852 Z  M 779.771 463.05 L 779.771 463.05 L 779.771 463.05 Q 779.969 462.852 780.232 462.852 L 780.232 462.852 L 780.232 462.852 Q 780.496 462.852 780.694 463.05 L 780.694 463.05 L 780.694 463.05 Q 780.892 463.247 780.892 463.511 L 780.892 463.511 L 780.892 463.511 Q 780.892 463.775 780.694 463.973 L 780.694 463.973 L 780.694 463.973 Q 780.496 464.171 780.232 464.171 L 780.232 464.171 L 780.232 464.171 Q 779.969 464.171 779.771 463.973 L 779.771 463.973 L 779.771 463.973 Q 779.573 463.775 779.573 463.511 L 779.573 463.511 L 779.573 463.511 Q 779.573 463.247 779.771 463.05 Z  M 784.947 464.171 L 784.947 474.919 L 775.518 474.919 L 775.518 464.171 L 776.869 464.171 L 776.869 466.215 L 783.596 466.215 L 783.596 464.171 L 784.947 464.171 Z " fill="rgb(215,215,215)"/><path d=" M 779.325 474.115 C 779.325 471.143 781.738 468.731 784.71 468.731 C 787.682 468.731 790.095 471.143 790.095 474.115 C 790.095 477.087 787.682 479.5 784.71 479.5 C 781.738 479.5 779.325 477.087 779.325 474.115 Z " fill="rgb(46,46,46)"/><path d=" M 784.857 469.838 L 784.857 471.492 L 784.857 471.492 Q 786.222 471.492 787.184 472.454 L 787.184 472.454 L 787.184 472.454 Q 788.146 473.415 788.146 474.762 L 788.146 474.762 L 788.146 474.762 Q 788.146 476.127 787.174 477.089 L 787.174 477.089 L 787.174 477.089 Q 786.203 478.05 784.857 478.05 L 784.857 478.05 L 784.857 478.05 Q 783.511 478.05 782.539 477.089 L 782.539 477.089 L 782.539 477.089 Q 781.568 476.127 781.568 474.762 L 781.568 474.762 L 782.395 474.762 L 782.395 474.762 Q 782.395 475.781 783.116 476.502 L 783.116 476.502 L 783.116 476.502 Q 783.838 477.223 784.857 477.223 L 784.857 477.223 L 784.857 477.223 Q 785.876 477.223 786.597 476.502 L 786.597 476.502 L 786.597 476.502 Q 787.319 475.781 787.319 474.762 L 787.319 474.762 L 787.319 474.762 Q 787.319 473.742 786.597 473.021 L 786.597 473.021 L 786.597 473.021 Q 785.876 472.3 784.857 472.3 L 784.857 472.3 L 784.857 473.954 L 782.799 471.896 L 784.857 469.838 Z " fill="rgb(215,215,215)"/></g></svg>