<?xml version="1.0" encoding="UTF-8" standalone="no"?><!-- Generator: Gravit.io --><svg xmlns="http://www.w3.org/2000/svg" xmlns:xlink="http://www.w3.org/1999/xlink" style="isolation:isolate" viewBox="0 0 17 15" width="17pt" height="15pt"><defs><clipPath id="_clipPath_2hU7UU3Bo2k1Jr2Rd3uHHqv31merNyGr"><rect width="17" height="15"/></clipPath></defs><g clip-path="url(#_clipPath_2hU7UU3Bo2k1Jr2Rd3uHHqv31merNyGr)"><path d=" M 8 9.292 L 8 0.5 L 8 0 L 9 0 L 9 0.5 L 9 9.292 L 11.15 7.15 L 11.5 6.79 L 12.21 7.5 L 11.85 7.85 L 8.5 11.21 L 5.15 7.85 L 4.79 7.5 L 5.5 6.79 L 5.85 7.15 L 8 9.292 Z  M 13 5 L 13 3 L 17 3 L 17 15 L 0 15 L 0 3 L 4 3 L 4 5 L 2 5 L 2 13 L 15 13 L 15 5 L 13 5 Z " fill-rule="evenodd" fill="rgb(199,199,199)"/></g></svg>