<?xml version="1.0" encoding="UTF-8" standalone="no"?><!-- Generator: Gravit.io --><svg xmlns="http://www.w3.org/2000/svg" xmlns:xlink="http://www.w3.org/1999/xlink" style="isolation:isolate" viewBox="0 0 16 16" width="16pt" height="16pt"><defs><clipPath id="_clipPath_HxFyxfYFodNp2fUy8gNF1A8RikKseCbH"><rect width="16" height="16"/></clipPath></defs><g clip-path="url(#_clipPath_HxFyxfYFodNp2fUy8gNF1A8RikKseCbH)"><rect width="16" height="16" style="fill:rgb(46,46,46)" fill-opacity="0"/><path d=" M 3.552 14.903 L 3 10.337 L 8.188 13.337 L 3.968 15.143 C 3.765 15.229 3.578 15.122 3.552 14.903 L 3.552 14.903 Z  M 11.844 7.212 L 8.656 12.68 L 3.313 9.587 L 6.5 4.087 L 11.844 7.212 L 11.844 7.212 Z  M 12.375 6.305 L 7 3.212 L 7.188 2.868 L 7.188 2.868 Q 7.5 2.337 8.063 2.118 L 8.063 2.118 L 8.063 2.118 Q 8.625 1.899 9.188 2.087 L 9.188 2.087 L 12.219 3.837 L 12.219 3.837 Q 12.656 4.243 12.766 4.837 L 12.766 4.837 L 12.766 4.837 Q 12.875 5.43 12.563 5.962 L 12.563 5.962 L 12.375 6.305 Z " fill-rule="evenodd" fill="rgb(255,255,255)"/></g></svg>