<?xml version="1.0" encoding="UTF-8" standalone="no"?><!-- Generator: Gravit.io --><svg xmlns="http://www.w3.org/2000/svg" xmlns:xlink="http://www.w3.org/1999/xlink" style="isolation:isolate" viewBox="0 0 16 16" width="16pt" height="16pt"><defs><clipPath id="_clipPath_7c2SjIJwadbKTdMqB6lfmNd1J32xMMtz"><rect width="16" height="16"/></clipPath></defs><g clip-path="url(#_clipPath_7c2SjIJwadbKTdMqB6lfmNd1J32xMMtz)"><rect width="16" height="16" style="fill:rgb(46,46,46)" fill-opacity="0"/><path d=" M 14.001 7.759 L 14.001 1 L 1.001 1 L 1.001 12 L 4.001 12 L 4.001 13.92 L 6.401 12 L 6.401 12 L 7.028 12 C 7.009 11.836 7 11.669 7 11.5 C 7 9.016 9.016 7 11.5 7 C 12.425 7 13.285 7.28 14.001 7.759 L 14.001 7.759 Z  M 7.256 13 L 6.75 13 L 6.75 13 L 3 16 L 3 13 L 0 13 L 0 0 L 15 0 L 15 8.673 C 15.625 9.446 16 10.429 16 11.5 C 16 13.984 13.984 16 11.5 16 C 9.542 16 7.875 14.747 7.256 13 L 7.256 13 Z  M 12 11 L 12 8 L 11 8 L 11 11 L 8 11 L 8 12 L 11 12 L 11 15 L 12 15 L 12 12 L 15 12 L 15 11 L 12 11 Z " fill-rule="evenodd" fill="rgb(255,255,255)"/></g></svg>