<?xml version="1.0" standalone="no"?><!-- Generator: Gravit.io --><svg xmlns="http://www.w3.org/2000/svg" xmlns:xlink="http://www.w3.org/1999/xlink" style="isolation:isolate" viewBox="416.447 38.21 13 13" width="13" height="13"><g><path d=" M 424.98 48.05 C 424.98 46.817 425.981 45.816 427.214 45.816 C 428.446 45.816 429.447 46.817 429.447 48.05 C 429.447 49.283 428.446 50.283 427.214 50.283 C 425.981 50.283 424.98 49.283 424.98 48.05 Z  M 423.388 47.191 L 423.388 47.191 L 423.388 47.191 Q 423.388 48.637 422.343 49.46 L 422.343 49.46 L 422.343 49.46 Q 421.297 50.283 419.458 50.283 L 419.458 50.283 L 419.458 50.283 Q 417.619 50.283 416.447 49.712 L 416.447 49.712 L 416.447 48.036 L 416.447 48.036 Q 417.189 48.385 418.023 48.585 L 418.023 48.585 L 418.023 48.585 Q 418.857 48.785 419.577 48.785 L 419.577 48.785 L 419.577 48.785 Q 420.63 48.785 421.13 48.385 L 421.13 48.385 L 421.13 48.385 Q 421.631 47.985 421.631 47.31 L 421.631 47.31 L 421.631 47.31 Q 421.631 46.702 421.171 46.279 L 421.171 46.279 L 421.171 46.279 Q 420.711 45.856 419.272 45.278 L 419.272 45.278 L 419.272 45.278 Q 417.789 44.677 417.181 43.906 L 417.181 43.906 L 417.181 43.906 Q 416.573 43.135 416.573 42.052 L 416.573 42.052 L 416.573 42.052 Q 416.573 40.695 417.537 39.916 L 417.537 39.916 L 417.537 39.916 Q 418.501 39.137 420.125 39.137 L 420.125 39.137 L 420.125 39.137 Q 421.683 39.137 423.225 39.82 L 423.225 39.82 L 422.661 41.266 L 422.661 41.266 Q 421.215 40.658 420.081 40.658 L 420.081 40.658 L 420.081 40.658 Q 419.221 40.658 418.776 41.032 L 418.776 41.032 L 418.776 41.032 Q 418.331 41.407 418.331 42.022 L 418.331 42.022 L 418.331 42.022 Q 418.331 42.445 418.509 42.745 L 418.509 42.745 L 418.509 42.745 Q 418.687 43.046 419.094 43.313 L 419.094 43.313 L 419.094 43.313 Q 419.502 43.58 420.563 44.017 L 420.563 44.017 L 420.563 44.017 Q 421.757 44.514 422.313 44.944 L 422.313 44.944 L 422.313 44.944 Q 422.869 45.374 423.129 45.915 L 423.129 45.915 L 423.129 45.915 Q 423.388 46.457 423.388 47.191 Z " fill-rule="evenodd" fill="rgb(255,255,255)"/></g></svg>