<?xml version="1.0" standalone="no"?><!-- Generator: Gravit.io --><svg xmlns="http://www.w3.org/2000/svg" xmlns:xlink="http://www.w3.org/1999/xlink" style="isolation:isolate" viewBox="240.317 147.583 20 16" width="20" height="16"><g><g><path d=" M 259.595 161.724 L 260.174 161.724 L 260.174 162.724 L 259.595 162.724 L 241.04 162.724 L 240.461 162.724 L 240.461 161.724 L 241.04 161.724 L 259.595 161.724 Z " fill="rgb(235,235,235)"/><path d=" M 251.217 159.911 L 249.842 159.911 L 248.42 156.278 L 243.842 156.278 L 242.436 159.911 L 241.092 159.911 L 245.608 148.442 L 246.725 148.442 L 251.217 159.911 Z  M 244.311 155.083 L 248.006 155.083 L 246.678 151.544 L 246.678 151.544 Q 246.42 150.872 246.147 149.896 L 246.147 149.896 L 246.147 149.896 Q 245.975 150.646 245.655 151.544 L 245.655 151.544 L 244.311 155.083 Z  M 258.819 159.911 L 257.858 159.911 L 257.6 158.692 L 257.537 158.692 L 257.537 158.692 Q 256.897 159.497 256.26 159.782 L 256.26 159.782 L 256.26 159.782 Q 255.623 160.067 254.67 160.067 L 254.67 160.067 L 254.67 160.067 Q 253.397 160.067 252.674 159.411 L 252.674 159.411 L 252.674 159.411 Q 251.952 158.755 251.952 157.544 L 251.952 157.544 L 251.952 157.544 Q 251.952 154.95 256.1 154.825 L 256.1 154.825 L 257.553 154.778 L 257.553 154.247 L 257.553 154.247 Q 257.553 153.239 257.12 152.759 L 257.12 152.759 L 257.12 152.759 Q 256.686 152.278 255.733 152.278 L 255.733 152.278 L 255.733 152.278 Q 254.662 152.278 253.311 152.935 L 253.311 152.935 L 252.912 151.942 L 252.912 151.942 Q 253.545 151.599 254.299 151.403 L 254.299 151.403 L 254.299 151.403 Q 255.053 151.208 255.811 151.208 L 255.811 151.208 L 255.811 151.208 Q 257.342 151.208 258.08 151.888 L 258.08 151.888 L 258.08 151.888 Q 258.819 152.567 258.819 154.067 L 258.819 154.067 L 258.819 159.911 Z  M 254.928 158.997 L 254.928 158.997 L 254.928 158.997 Q 256.139 158.997 256.83 158.333 L 256.83 158.333 L 256.83 158.333 Q 257.522 157.669 257.522 156.474 L 257.522 156.474 L 257.522 155.7 L 256.225 155.755 L 256.225 155.755 Q 254.678 155.81 253.995 156.235 L 253.995 156.235 L 253.995 156.235 Q 253.311 156.661 253.311 157.56 L 253.311 157.56 L 253.311 157.56 Q 253.311 158.263 253.737 158.63 L 253.737 158.63 L 253.737 158.63 Q 254.162 158.997 254.928 158.997 Z " fill-rule="evenodd" fill="rgb(235,235,235)"/></g></g></svg>