<?xml version="1.0" encoding="UTF-8" standalone="no"?><!-- Generator: Gravit.io --><svg xmlns="http://www.w3.org/2000/svg" xmlns:xlink="http://www.w3.org/1999/xlink" style="isolation:isolate" viewBox="211 318 19 16.246" width="19pt" height="16.246pt"><path d=" M 223 330.246 C 223 329.694 223.448 329.246 224 329.246 C 224.552 329.246 225 329.694 225 330.246 C 225 330.798 224.552 331.246 224 331.246 C 223.448 331.246 223 330.798 223 330.246 L 223 330.246 L 223 330.246 L 223 330.246 L 223 330.246 L 223 330.246 L 223 330.246 L 223 330.246 L 223 330.246 L 223 330.246 L 223 330.246 L 223 330.246 Z  M 221.667 330.246 C 221.667 328.958 222.712 327.913 224 327.913 C 225.288 327.913 226.333 328.958 226.333 330.246 C 226.333 331.534 225.288 332.579 224 332.579 C 222.712 332.579 221.667 331.534 221.667 330.246 L 221.667 330.246 L 221.667 330.246 L 221.667 330.246 L 221.667 330.246 L 221.667 330.246 L 221.667 330.246 L 221.667 330.246 L 221.667 330.246 L 221.667 330.246 L 221.667 330.246 L 221.667 330.246 L 221.667 330.246 Z  M 218 330.246 Q 221.314 326.246 224 326.246 Q 226.686 326.246 230 330.246 Q 226.686 334.246 224 334.246 Q 221.314 334.246 218 330.246 L 218 330.246 L 218 330.246 L 218 330.246 L 218 330.246 L 218 330.246 L 218 330.246 L 218 330.246 L 218 330.246 L 218 330.246 L 218 330.246 L 218 330.246 L 218 330.246 Z  M 226 325.303 L 226 318 L 211 318 L 211 331 L 214 331 L 214 334 L 217.108 331.514 Q 216.777 331.156 216.441 330.768 L 215.001 331.92 L 215.001 330 L 212.001 330 L 212.001 319 L 225.001 319 L 225.001 325.014 Q 225.493 325.111 226 325.303 Z " fill-rule="evenodd" fill="#757575"/></svg>