<?xml version="1.0" standalone="no"?><!-- Generator: Gravit.io --><svg xmlns="http://www.w3.org/2000/svg" xmlns:xlink="http://www.w3.org/1999/xlink" style="isolation:isolate" viewBox="479.302 38.21 13 13" width="13" height="13"><g><path d=" M 487.835 41.371 C 487.835 40.138 488.835 39.137 490.068 39.137 C 491.301 39.137 492.302 40.138 492.302 41.371 C 492.302 42.604 491.301 43.604 490.068 43.604 C 488.835 43.604 487.835 42.604 487.835 41.371 Z  M 486.243 47.191 L 486.243 47.191 L 486.243 47.191 Q 486.243 48.637 485.197 49.46 L 485.197 49.46 L 485.197 49.46 Q 484.151 50.283 482.312 50.283 L 482.312 50.283 L 482.312 50.283 Q 480.473 50.283 479.302 49.712 L 479.302 49.712 L 479.302 48.036 L 479.302 48.036 Q 480.043 48.385 480.877 48.585 L 480.877 48.585 L 480.877 48.585 Q 481.712 48.785 482.431 48.785 L 482.431 48.785 L 482.431 48.785 Q 483.484 48.785 483.985 48.385 L 483.985 48.385 L 483.985 48.385 Q 484.485 47.985 484.485 47.31 L 484.485 47.31 L 484.485 47.31 Q 484.485 46.702 484.025 46.279 L 484.025 46.279 L 484.025 46.279 Q 483.566 45.856 482.127 45.278 L 482.127 45.278 L 482.127 45.278 Q 480.644 44.677 480.036 43.906 L 480.036 43.906 L 480.036 43.906 Q 479.428 43.135 479.428 42.052 L 479.428 42.052 L 479.428 42.052 Q 479.428 40.695 480.392 39.916 L 480.392 39.916 L 480.392 39.916 Q 481.356 39.137 482.98 39.137 L 482.98 39.137 L 482.98 39.137 Q 484.537 39.137 486.08 39.82 L 486.08 39.82 L 485.516 41.266 L 485.516 41.266 Q 484.07 40.658 482.935 40.658 L 482.935 40.658 L 482.935 40.658 Q 482.075 40.658 481.63 41.032 L 481.63 41.032 L 481.63 41.032 Q 481.185 41.407 481.185 42.022 L 481.185 42.022 L 481.185 42.022 Q 481.185 42.445 481.363 42.745 L 481.363 42.745 L 481.363 42.745 Q 481.541 43.046 481.949 43.313 L 481.949 43.313 L 481.949 43.313 Q 482.357 43.58 483.417 44.017 L 483.417 44.017 L 483.417 44.017 Q 484.611 44.514 485.167 44.944 L 485.167 44.944 L 485.167 44.944 Q 485.724 45.374 485.983 45.915 L 485.983 45.915 L 485.983 45.915 Q 486.243 46.457 486.243 47.191 Z " fill-rule="evenodd" fill="rgb(255,255,255)"/></g></svg>