<?xml version="1.0" standalone="no"?><!-- Generator: Gravit.io --><svg xmlns="http://www.w3.org/2000/svg" xmlns:xlink="http://www.w3.org/1999/xlink" style="isolation:isolate" viewBox="540.619 84.767 17 17.704" width="17" height="17.704"><path d=" M 546.796 98.663 L 546.015 98.663 L 545.805 97.672 L 545.755 97.672 L 545.755 97.672 Q 545.234 98.326 544.717 98.558 L 544.717 98.558 L 544.717 98.558 Q 544.199 98.789 543.425 98.789 L 543.425 98.789 L 543.425 98.789 Q 542.39 98.789 541.803 98.256 L 541.803 98.256 L 541.803 98.256 Q 541.216 97.723 541.216 96.739 L 541.216 96.739 L 541.216 96.739 Q 541.216 94.632 544.587 94.53 L 544.587 94.53 L 545.767 94.492 L 545.767 94.06 L 545.767 94.06 Q 545.767 93.242 545.415 92.851 L 545.415 92.851 L 545.415 92.851 Q 545.063 92.461 544.288 92.461 L 544.288 92.461 L 544.288 92.461 Q 543.419 92.461 542.321 92.994 L 542.321 92.994 L 541.997 92.188 L 541.997 92.188 Q 542.511 91.909 543.124 91.75 L 543.124 91.75 L 543.124 91.75 Q 543.736 91.591 544.352 91.591 L 544.352 91.591 L 544.352 91.591 Q 545.596 91.591 546.196 92.143 L 546.196 92.143 L 546.196 92.143 Q 546.796 92.696 546.796 93.914 L 546.796 93.914 L 546.796 98.663 L 546.796 98.663 Z  M 543.635 97.92 L 543.635 97.92 L 543.635 97.92 Q 544.618 97.92 545.18 97.38 L 545.18 97.38 L 545.18 97.38 Q 545.742 96.841 545.742 95.87 L 545.742 95.87 L 545.742 95.241 L 544.688 95.286 L 544.688 95.286 Q 543.431 95.33 542.876 95.676 L 542.876 95.676 L 542.876 95.676 Q 542.321 96.022 542.321 96.752 L 542.321 96.752 L 542.321 96.752 Q 542.321 97.323 542.667 97.621 L 542.667 97.621 L 542.667 97.621 Q 543.012 97.92 543.635 97.92 Z  M 554.026 98.663 L 553.245 98.663 L 553.035 97.672 L 552.985 97.672 L 552.985 97.672 Q 552.464 98.326 551.947 98.558 L 551.947 98.558 L 551.947 98.558 Q 551.429 98.789 550.655 98.789 L 550.655 98.789 L 550.655 98.789 Q 549.62 98.789 549.033 98.256 L 549.033 98.256 L 549.033 98.256 Q 548.446 97.723 548.446 96.739 L 548.446 96.739 L 548.446 96.739 Q 548.446 94.632 551.817 94.53 L 551.817 94.53 L 552.997 94.492 L 552.997 94.06 L 552.997 94.06 Q 552.997 93.242 552.645 92.851 L 552.645 92.851 L 552.645 92.851 Q 552.293 92.461 551.518 92.461 L 551.518 92.461 L 551.518 92.461 Q 550.649 92.461 549.551 92.994 L 549.551 92.994 L 549.227 92.188 L 549.227 92.188 Q 549.741 91.909 550.354 91.75 L 550.354 91.75 L 550.354 91.75 Q 550.966 91.591 551.582 91.591 L 551.582 91.591 L 551.582 91.591 Q 552.826 91.591 553.426 92.143 L 553.426 92.143 L 553.426 92.143 Q 554.026 92.696 554.026 93.914 L 554.026 93.914 L 554.026 98.663 L 554.026 98.663 Z  M 550.865 97.92 L 550.865 97.92 L 550.865 97.92 Q 551.848 97.92 552.41 97.38 L 552.41 97.38 L 552.41 97.38 Q 552.972 96.841 552.972 95.87 L 552.972 95.87 L 552.972 95.241 L 551.918 95.286 L 551.918 95.286 Q 550.661 95.33 550.106 95.676 L 550.106 95.676 L 550.106 95.676 Q 549.551 96.022 549.551 96.752 L 549.551 96.752 L 549.551 96.752 Q 549.551 97.323 549.896 97.621 L 549.896 97.621 L 549.896 97.621 Q 550.242 97.92 550.865 97.92 Z " fill-rule="evenodd" fill="rgb(235,235,235)"/></svg>