<?xml version="1.0" standalone="no"?><!-- Generator: Gravit.io --><svg xmlns="http://www.w3.org/2000/svg" xmlns:xlink="http://www.w3.org/1999/xlink" style="isolation:isolate" viewBox="544.494 37.283 13 13" width="13" height="13"><g><path d=" M 552.368 41.108 L 552.16 42.585 L 549.92 42.585 L 548.838 50.283 L 546.88 50.283 L 547.962 42.585 L 546.452 42.585 L 546.581 41.672 L 548.174 41.075 L 548.258 40.477 L 548.258 40.477 Q 548.487 38.851 549.36 38.067 L 549.36 38.067 L 549.36 38.067 Q 550.234 37.283 551.802 37.283 L 551.802 37.283 L 551.802 37.283 Q 552.83 37.283 553.778 37.624 L 553.778 37.624 L 553.056 39.1 L 553.056 39.1 Q 552.367 38.868 551.712 38.868 L 551.712 38.868 L 551.712 38.868 Q 551.048 38.868 550.688 39.279 L 550.688 39.279 L 550.688 39.279 Q 550.327 39.689 550.212 40.511 L 550.212 40.511 L 550.128 41.108 L 552.368 41.108 Z  M 555.155 41.108 L 553.865 50.283 L 551.915 50.283 L 553.205 41.108 L 555.155 41.108 Z  M 553.329 39.399 L 553.329 39.399 L 553.329 39.399 Q 553.402 38.877 553.728 38.595 L 553.728 38.595 L 553.728 38.595 Q 554.054 38.313 554.585 38.313 L 554.585 38.313 L 554.585 38.313 Q 555.099 38.313 555.346 38.595 L 555.346 38.595 L 555.346 38.595 Q 555.593 38.877 555.519 39.399 L 555.519 39.399 L 555.519 39.399 Q 555.449 39.897 555.123 40.183 L 555.123 40.183 L 555.123 40.183 Q 554.796 40.47 554.282 40.47 L 554.282 40.47 L 554.282 40.47 Q 553.751 40.47 553.505 40.183 L 553.505 40.183 L 553.505 40.183 Q 553.259 39.897 553.329 39.399 Z " fill-rule="evenodd" fill="rgb(255,255,255)"/></g></svg>