<?xml version="1.0" encoding="UTF-8" standalone="no"?><!-- Generator: Gravit.io --><svg xmlns="http://www.w3.org/2000/svg" xmlns:xlink="http://www.w3.org/1999/xlink" style="isolation:isolate" viewBox="0 0 16 16" width="16pt" height="16pt"><defs><clipPath id="_clipPath_OdnVzv3QBGbGDZJviKnLqTd77LfEG6En"><rect width="16" height="16"/></clipPath></defs><g clip-path="url(#_clipPath_OdnVzv3QBGbGDZJviKnLqTd77LfEG6En)"><rect width="16" height="16" style="fill:rgb(46,46,46)" fill-opacity="0"/><path d=" M 9.707 8.15 L 14.85 3 C 14.95 2.91 15 2.78 15 2.65 C 15 2.52 14.95 2.39 14.85 2.3 C 14.76 2.2 14.63 2.15 14.5 2.15 C 14.37 2.15 14.24 2.2 14.15 2.3 L 14.15 2.3 L 8.998 7.444 L 7.85 6.3 C 7.76 6.2 7.63 6.15 7.5 6.15 C 7.37 6.15 7.24 6.2 7.15 6.3 C 7.05 6.39 7 6.52 7 6.65 C 7 6.78 7.05 6.91 7.15 7 L 8.294 8.147 L 7.5 8.94 L 4.85 6.3 C 4.76 6.2 4.63 6.15 4.5 6.15 C 4.37 6.15 4.24 6.2 4.15 6.3 C 4.05 6.39 4 6.52 4 6.65 C 4 6.78 4.05 6.91 4.15 7 L 7.5 10.36 L 9.001 8.857 L 10.5 10.36 L 14.85 6 C 14.95 5.91 15 5.78 15 5.65 C 15 5.52 14.95 5.39 14.85 5.3 C 14.76 5.2 14.63 5.15 14.5 5.15 C 14.37 5.15 14.24 5.2 14.15 5.3 L 10.5 8.94 L 9.707 8.15 Z  M 13.643 9.62 C 13.324 10.545 12.798 11.396 12.1 12.1 C 10.88 13.32 9.22 14 7.5 14 C 5.78 14 4.12 13.32 2.9 12.1 C 1.69 10.88 1 9.22 1 7.5 C 1 5.78 1.69 4.12 2.9 2.9 C 4.12 1.69 5.78 1 7.5 1 C 8.95 1 10.36 1.49 11.5 2.38 C 11.6 2.46 11.67 2.58 11.69 2.71 C 11.7 2.84 11.67 2.97 11.58 3.08 C 11.5 3.18 11.38 3.25 11.25 3.27 C 11.12 3.28 10.99 3.25 10.88 3.17 C 9.92 2.41 8.73 2 7.5 2 C 6.04 2 4.64 2.58 3.61 3.61 C 2.58 4.64 2 6.04 2 7.5 C 2 8.96 2.58 10.36 3.61 11.39 C 4.64 12.42 6.04 13 7.5 13 C 8.96 13 10.35 12.42 11.38 11.39 C 11.997 10.785 12.452 10.046 12.72 9.24 C 12.904 8.688 13.877 8.943 13.643 9.62 L 13.643 9.62 Z " fill-rule="evenodd" fill="rgb(139,139,139)"/></g></svg>