<?xml version="1.0" encoding="UTF-8" standalone="no"?><!-- Generator: Gravit.io --><svg xmlns="http://www.w3.org/2000/svg" xmlns:xlink="http://www.w3.org/1999/xlink" style="isolation:isolate" viewBox="477.259 1851 16 16" width="16px" height="16px"><path d=" M 477.259 1859 C 477.259 1854.585 480.844 1851 485.259 1851 C 489.674 1851 493.259 1854.585 493.259 1859 C 493.259 1863.415 489.674 1867 485.259 1867 C 480.844 1867 477.259 1863.415 477.259 1859 Z  M 485.307 1856.468 L 485.307 1856.468 L 485.307 1856.468 Q 484.899 1856.468 484.605 1856.198 L 484.605 1856.198 L 484.605 1856.198 Q 484.311 1855.928 484.311 1855.508 L 484.311 1855.508 L 484.311 1855.508 Q 484.311 1855.088 484.605 1854.824 L 484.605 1854.824 L 484.605 1854.824 Q 484.899 1854.56 485.307 1854.56 L 485.307 1854.56 L 485.307 1854.56 Q 485.727 1854.56 486.015 1854.824 L 486.015 1854.824 L 486.015 1854.824 Q 486.303 1855.088 486.303 1855.508 L 486.303 1855.508 L 486.303 1855.508 Q 486.303 1855.928 486.015 1856.198 L 486.015 1856.198 L 486.015 1856.198 Q 485.727 1856.468 485.307 1856.468 L 485.307 1856.468 Z  M 486.159 1862.768 L 486.843 1862.912 L 486.843 1863.44 L 483.771 1863.44 L 483.771 1862.912 L 484.503 1862.768 L 484.503 1862.768 Q 484.515 1862.312 484.515 1861.808 L 484.515 1861.808 L 484.515 1861.808 Q 484.515 1861.304 484.515 1860.92 L 484.515 1860.92 L 484.515 1860.32 L 484.515 1860.32 Q 484.515 1859.828 484.503 1859.498 L 484.503 1859.498 L 484.503 1859.498 Q 484.491 1859.168 484.479 1858.808 L 484.479 1858.808 L 483.675 1858.7 L 483.675 1858.244 L 486.003 1857.464 L 486.183 1857.584 L 486.147 1859.3 L 486.147 1860.92 L 486.147 1860.92 Q 486.147 1861.304 486.147 1861.814 L 486.147 1861.814 L 486.147 1861.814 Q 486.147 1862.324 486.159 1862.768 L 486.159 1862.768 L 486.159 1862.768 Z " fill-rule="evenodd" fill="rgb(139,139,139)"/></svg>