<?xml version="1.0" standalone="no"?><!-- Generator: Gravit.io --><svg xmlns="http://www.w3.org/2000/svg" xmlns:xlink="http://www.w3.org/1999/xlink" style="isolation:isolate" viewBox="0 0 2.641 12" width="2.641" height="12"><defs><clipPath id="_clipPath_pmkhCsE4kyvVzUwF4oBAUDwiYbWn8pgk"><rect width="2.641" height="12"/></clipPath></defs><g clip-path="url(#_clipPath_pmkhCsE4kyvVzUwF4oBAUDwiYbWn8pgk)"><path d=" M 0 10.656 C 0 9.915 0.592 9.312 1.321 9.312 C 2.05 9.312 2.641 9.915 2.641 10.656 C 2.641 11.398 2.05 12 1.321 12 C 0.592 12 0 11.398 0 10.656 Z  M 0 6 C 0 5.258 0.592 4.656 1.321 4.656 C 2.05 4.656 2.641 5.258 2.641 6 C 2.641 6.742 2.05 7.344 1.321 7.344 C 0.592 7.344 0 6.742 0 6 Z  M 0 1.344 C 0 0.602 0.592 0 1.321 0 C 2.05 0 2.641 0.602 2.641 1.344 C 2.641 2.085 2.05 2.688 1.321 2.688 C 0.592 2.688 0 2.085 0 1.344 Z " fill-rule="evenodd" fill="rgb(77,77,77)"/></g></svg> 