<?xml version="1.0" encoding="UTF-8" standalone="no"?><!-- Generator: Gravit.io --><svg xmlns="http://www.w3.org/2000/svg" xmlns:xlink="http://www.w3.org/1999/xlink" style="isolation:isolate" viewBox="186 28 12 15" width="12" height="15"><path d=" M 191.521 31 L 191.511 31 L 191.511 31 L 191.521 31 C 191.521 31 191.521 31 191.521 31 C 191.121 31.01 190.741 31.2 190.491 31.52 C 190.161 31.94 189.991 32.46 190.001 33 C 190.001 33 190.001 33.01 190.001 33.01 L 190.001 33.51 C 190.001 33.64 189.951 33.77 189.851 33.86 C 189.761 33.96 189.631 34.01 189.501 34.01 C 189.371 34.01 189.241 33.96 189.151 33.86 C 189.051 33.77 189.001 33.64 189.001 33.51 L 189.001 33.02 C 188.981 32.25 189.231 31.51 189.711 30.91 C 190.141 30.35 190.791 30.02 191.501 30 C 191.501 30 191.511 30 191.511 30 L 191.511 30 L 192.011 30 C 192.141 30 192.271 30.05 192.361 30.15 C 192.461 30.24 192.511 30.37 192.511 30.5 C 192.511 30.63 192.461 30.76 192.361 30.85 C 192.271 30.95 192.141 31 192.011 31 L 191.521 31 L 191.521 31 L 191.521 31 Z  M 192.99 29.133 C 194.721 29.567 196 31.135 196 33 L 196 33 L 196 34 L 196 34 C 196 36.208 196.896 38 198 38 L 198 38 L 198 39 L 195.946 39.342 C 193.768 39.705 190.232 39.705 188.054 39.342 L 186 39 L 186 38 L 186 38 C 187.104 38 188 36.208 188 34 L 188 33 L 188 33 C 188 31.135 189.279 29.567 191.01 29.133 C 191.003 29.093 191 29.049 191 29 C 191 28.448 191.448 28 192 28 C 192.552 28 193 28.448 193 29 C 193 29.049 192.997 29.093 192.99 29.133 L 192.99 29.133 Z  M 190.008 40.876 C 190.001 40.917 190 40.958 190 41 C 190 42.104 190.896 43 192 43 C 193.104 43 194 42.104 194 41 C 194 40.958 193.999 40.917 193.992 40.876 C 192.722 41.03 191.278 41.03 190.008 40.876 Z " fill-rule="evenodd" fill="#4D4D4D"/></svg>