<?xml version="1.0" standalone="no"?><!-- Generator: Gravit.io --><svg xmlns="http://www.w3.org/2000/svg" xmlns:xlink="http://www.w3.org/1999/xlink" style="isolation:isolate" viewBox="318.66 778.13 42.34 31.36" width="42.34" height="31.36"><g><rect x="329" y="780.55" width="32" height="3" transform="matrix(1,0,0,1,0,0)" fill="rgb(195,195,195)"/><rect x="339" y="792.55" width="22" height="3" transform="matrix(1,0,0,1,0,0)" fill="rgb(195,195,195)"/><rect x="348" y="804.55" width="13" height="3" transform="matrix(1,0,0,1,0,0)" fill="rgb(195,195,195)"/><path d=" M 319.26 785.42 L 319.26 784.3 L 320.66 784.3 L 320.66 780.625 L 320.66 780.625 Q 320.66 780.355 320.675 780.06 L 320.675 780.06 L 319.85 780.745 L 319.85 780.745 Q 319.77 780.81 319.69 780.838 L 319.69 780.838 L 319.69 780.838 Q 319.61 780.865 319.535 780.865 L 319.535 780.865 L 319.535 780.865 Q 319.405 780.865 319.302 780.808 L 319.302 780.808 L 319.302 780.808 Q 319.2 780.75 319.15 780.685 L 319.15 780.685 L 318.66 780.035 L 320.93 778.13 L 322.21 778.13 L 322.21 784.3 L 323.41 784.3 L 323.41 785.42 L 319.26 785.42 Z  M 324.1 784.635 L 324.1 784.635 L 324.1 784.635 Q 324.1 784.455 324.167 784.3 L 324.167 784.3 L 324.167 784.3 Q 324.235 784.145 324.352 784.03 L 324.352 784.03 L 324.352 784.03 Q 324.47 783.915 324.63 783.848 L 324.63 783.848 L 324.63 783.848 Q 324.79 783.78 324.98 783.78 L 324.98 783.78 L 324.98 783.78 Q 325.165 783.78 325.325 783.848 L 325.325 783.848 L 325.325 783.848 Q 325.485 783.915 325.605 784.03 L 325.605 784.03 L 325.605 784.03 Q 325.725 784.145 325.792 784.3 L 325.792 784.3 L 325.792 784.3 Q 325.86 784.455 325.86 784.635 L 325.86 784.635 L 325.86 784.635 Q 325.86 784.815 325.792 784.973 L 325.792 784.973 L 325.792 784.973 Q 325.725 785.13 325.605 785.245 L 325.605 785.245 L 325.605 785.245 Q 325.485 785.36 325.325 785.425 L 325.325 785.425 L 325.325 785.425 Q 325.165 785.49 324.98 785.49 L 324.98 785.49 L 324.98 785.49 Q 324.79 785.49 324.63 785.425 L 324.63 785.425 L 324.63 785.425 Q 324.47 785.36 324.352 785.245 L 324.352 785.245 L 324.352 785.245 Q 324.235 785.13 324.167 784.973 L 324.167 784.973 L 324.167 784.973 Q 324.1 784.815 324.1 784.635 Z " fill-rule="evenodd" fill="rgb(117,117,117)"/><path d=" M 322.26 797.42 L 322.26 796.3 L 323.66 796.3 L 323.66 792.625 L 323.66 792.625 Q 323.66 792.355 323.675 792.06 L 323.675 792.06 L 322.85 792.745 L 322.85 792.745 Q 322.77 792.81 322.69 792.838 L 322.69 792.838 L 322.69 792.838 Q 322.61 792.865 322.535 792.865 L 322.535 792.865 L 322.535 792.865 Q 322.405 792.865 322.302 792.808 L 322.302 792.808 L 322.302 792.808 Q 322.2 792.75 322.15 792.685 L 322.15 792.685 L 321.66 792.035 L 323.93 790.13 L 325.21 790.13 L 325.21 796.3 L 326.41 796.3 L 326.41 797.42 L 322.26 797.42 Z  M 327.1 796.635 L 327.1 796.635 L 327.1 796.635 Q 327.1 796.455 327.167 796.3 L 327.167 796.3 L 327.167 796.3 Q 327.235 796.145 327.352 796.03 L 327.352 796.03 L 327.352 796.03 Q 327.47 795.915 327.63 795.848 L 327.63 795.848 L 327.63 795.848 Q 327.79 795.78 327.98 795.78 L 327.98 795.78 L 327.98 795.78 Q 328.165 795.78 328.325 795.848 L 328.325 795.848 L 328.325 795.848 Q 328.485 795.915 328.605 796.03 L 328.605 796.03 L 328.605 796.03 Q 328.725 796.145 328.792 796.3 L 328.792 796.3 L 328.792 796.3 Q 328.86 796.455 328.86 796.635 L 328.86 796.635 L 328.86 796.635 Q 328.86 796.815 328.792 796.973 L 328.792 796.973 L 328.792 796.973 Q 328.725 797.13 328.605 797.245 L 328.605 797.245 L 328.605 797.245 Q 328.485 797.36 328.325 797.425 L 328.325 797.425 L 328.325 797.425 Q 328.165 797.49 327.98 797.49 L 327.98 797.49 L 327.98 797.49 Q 327.79 797.49 327.63 797.425 L 327.63 797.425 L 327.63 797.425 Q 327.47 797.36 327.352 797.245 L 327.352 797.245 L 327.352 797.245 Q 327.235 797.13 327.167 796.973 L 327.167 796.973 L 327.167 796.973 Q 327.1 796.815 327.1 796.635 Z  M 330.42 797.42 L 330.42 796.3 L 331.82 796.3 L 331.82 792.625 L 331.82 792.625 Q 331.82 792.355 331.835 792.06 L 331.835 792.06 L 331.01 792.745 L 331.01 792.745 Q 330.93 792.81 330.85 792.838 L 330.85 792.838 L 330.85 792.838 Q 330.77 792.865 330.695 792.865 L 330.695 792.865 L 330.695 792.865 Q 330.565 792.865 330.463 792.808 L 330.463 792.808 L 330.463 792.808 Q 330.36 792.75 330.31 792.685 L 330.31 792.685 L 329.82 792.035 L 332.09 790.13 L 333.37 790.13 L 333.37 796.3 L 334.57 796.3 L 334.57 797.42 L 330.42 797.42 Z " fill-rule="evenodd" fill="rgb(117,117,117)"/><path d=" M 323.26 809.42 L 323.26 808.3 L 324.66 808.3 L 324.66 804.625 L 324.66 804.625 Q 324.66 804.355 324.675 804.06 L 324.675 804.06 L 323.85 804.745 L 323.85 804.745 Q 323.77 804.81 323.69 804.838 L 323.69 804.838 L 323.69 804.838 Q 323.61 804.865 323.535 804.865 L 323.535 804.865 L 323.535 804.865 Q 323.405 804.865 323.302 804.808 L 323.302 804.808 L 323.302 804.808 Q 323.2 804.75 323.15 804.685 L 323.15 804.685 L 322.66 804.035 L 324.93 802.13 L 326.21 802.13 L 326.21 808.3 L 327.41 808.3 L 327.41 809.42 L 323.26 809.42 Z  M 328.1 808.635 L 328.1 808.635 L 328.1 808.635 Q 328.1 808.455 328.167 808.3 L 328.167 808.3 L 328.167 808.3 Q 328.235 808.145 328.352 808.03 L 328.352 808.03 L 328.352 808.03 Q 328.47 807.915 328.63 807.848 L 328.63 807.848 L 328.63 807.848 Q 328.79 807.78 328.98 807.78 L 328.98 807.78 L 328.98 807.78 Q 329.165 807.78 329.325 807.848 L 329.325 807.848 L 329.325 807.848 Q 329.485 807.915 329.605 808.03 L 329.605 808.03 L 329.605 808.03 Q 329.725 808.145 329.792 808.3 L 329.792 808.3 L 329.792 808.3 Q 329.86 808.455 329.86 808.635 L 329.86 808.635 L 329.86 808.635 Q 329.86 808.815 329.792 808.973 L 329.792 808.973 L 329.792 808.973 Q 329.725 809.13 329.605 809.245 L 329.605 809.245 L 329.605 809.245 Q 329.485 809.36 329.325 809.425 L 329.325 809.425 L 329.325 809.425 Q 329.165 809.49 328.98 809.49 L 328.98 809.49 L 328.98 809.49 Q 328.79 809.49 328.63 809.425 L 328.63 809.425 L 328.63 809.425 Q 328.47 809.36 328.352 809.245 L 328.352 809.245 L 328.352 809.245 Q 328.235 809.13 328.167 808.973 L 328.167 808.973 L 328.167 808.973 Q 328.1 808.815 328.1 808.635 Z  M 333.17 802.055 L 333.17 802.055 L 333.17 802.055 Q 333.71 802.055 334.143 802.213 L 334.143 802.213 L 334.143 802.213 Q 334.575 802.37 334.88 802.65 L 334.88 802.65 L 334.88 802.65 Q 335.185 802.93 335.347 803.318 L 335.347 803.318 L 335.347 803.318 Q 335.51 803.705 335.51 804.17 L 335.51 804.17 L 335.51 804.17 Q 335.51 804.57 335.398 804.91 L 335.398 804.91 L 335.398 804.91 Q 335.285 805.25 335.09 805.558 L 335.09 805.558 L 335.09 805.558 Q 334.895 805.865 334.638 806.153 L 334.638 806.153 L 334.638 806.153 Q 334.38 806.44 334.09 806.735 L 334.09 806.735 L 332.665 808.195 L 332.665 808.195 Q 332.94 808.115 333.208 808.068 L 333.208 808.068 L 333.208 808.068 Q 333.475 808.02 333.71 808.02 L 333.71 808.02 L 335.07 808.02 L 335.07 808.02 Q 335.32 808.02 335.465 808.158 L 335.465 808.158 L 335.465 808.158 Q 335.61 808.295 335.61 808.52 L 335.61 808.52 L 335.61 809.42 L 330.49 809.42 L 330.49 808.92 L 330.49 808.92 Q 330.49 808.775 330.55 808.61 L 330.55 808.61 L 330.55 808.61 Q 330.61 808.445 330.76 808.31 L 330.76 808.31 L 332.86 806.195 L 332.86 806.195 Q 333.13 805.925 333.33 805.68 L 333.33 805.68 L 333.33 805.68 Q 333.53 805.435 333.66 805.198 L 333.66 805.198 L 333.66 805.198 Q 333.79 804.96 333.855 804.723 L 333.855 804.723 L 333.855 804.723 Q 333.92 804.485 333.92 804.22 L 333.92 804.22 L 333.92 804.22 Q 333.92 803.785 333.713 803.553 L 333.713 803.553 L 333.713 803.553 Q 333.505 803.32 333.08 803.32 L 333.08 803.32 L 333.08 803.32 Q 332.905 803.32 332.76 803.37 L 332.76 803.37 L 332.76 803.37 Q 332.615 803.42 332.5 803.505 L 332.5 803.505 L 332.5 803.505 Q 332.385 803.59 332.302 803.705 L 332.302 803.705 L 332.302 803.705 Q 332.22 803.82 332.17 803.955 L 332.17 803.955 L 332.17 803.955 Q 332.09 804.18 331.968 804.28 L 331.968 804.28 L 331.968 804.28 Q 331.845 804.38 331.635 804.38 L 331.635 804.38 L 331.635 804.38 Q 331.585 804.38 331.528 804.375 L 331.528 804.375 L 331.528 804.375 Q 331.47 804.37 331.41 804.36 L 331.41 804.36 L 330.59 804.215 L 330.59 804.215 Q 330.67 803.67 330.898 803.265 L 330.898 803.265 L 330.898 803.265 Q 331.125 802.86 331.463 802.59 L 331.463 802.59 L 331.463 802.59 Q 331.8 802.32 332.235 802.188 L 332.235 802.188 L 332.235 802.188 Q 332.67 802.055 333.17 802.055 Z  M 336.26 808.635 L 336.26 808.635 L 336.26 808.635 Q 336.26 808.455 336.328 808.3 L 336.328 808.3 L 336.328 808.3 Q 336.395 808.145 336.513 808.03 L 336.513 808.03 L 336.513 808.03 Q 336.63 807.915 336.79 807.848 L 336.79 807.848 L 336.79 807.848 Q 336.95 807.78 337.14 807.78 L 337.14 807.78 L 337.14 807.78 Q 337.325 807.78 337.485 807.848 L 337.485 807.848 L 337.485 807.848 Q 337.645 807.915 337.765 808.03 L 337.765 808.03 L 337.765 808.03 Q 337.885 808.145 337.953 808.3 L 337.953 808.3 L 337.953 808.3 Q 338.02 808.455 338.02 808.635 L 338.02 808.635 L 338.02 808.635 Q 338.02 808.815 337.953 808.973 L 337.953 808.973 L 337.953 808.973 Q 337.885 809.13 337.765 809.245 L 337.765 809.245 L 337.765 809.245 Q 337.645 809.36 337.485 809.425 L 337.485 809.425 L 337.485 809.425 Q 337.325 809.49 337.14 809.49 L 337.14 809.49 L 337.14 809.49 Q 336.95 809.49 336.79 809.425 L 336.79 809.425 L 336.79 809.425 Q 336.63 809.36 336.513 809.245 L 336.513 809.245 L 336.513 809.245 Q 336.395 809.13 336.328 808.973 L 336.328 808.973 L 336.328 808.973 Q 336.26 808.815 336.26 808.635 Z  M 339.58 809.42 L 339.58 808.3 L 340.98 808.3 L 340.98 804.625 L 340.98 804.625 Q 340.98 804.355 340.995 804.06 L 340.995 804.06 L 340.17 804.745 L 340.17 804.745 Q 340.09 804.81 340.01 804.838 L 340.01 804.838 L 340.01 804.838 Q 339.93 804.865 339.855 804.865 L 339.855 804.865 L 339.855 804.865 Q 339.725 804.865 339.622 804.808 L 339.622 804.808 L 339.622 804.808 Q 339.52 804.75 339.47 804.685 L 339.47 804.685 L 338.98 804.035 L 341.25 802.13 L 342.53 802.13 L 342.53 808.3 L 343.73 808.3 L 343.73 809.42 L 339.58 809.42 Z " fill-rule="evenodd" fill="rgb(117,117,117)"/></g></svg>