<?xml version="1.0" standalone="no"?><!-- Generator: Gravit.io --><svg xmlns="http://www.w3.org/2000/svg" xmlns:xlink="http://www.w3.org/1999/xlink" style="isolation:isolate" viewBox="185.16 778.13 41.84 31.36" width="41.84" height="31.36"><g><rect x="195" y="780.55" width="32" height="3" transform="matrix(1,0,0,1,0,0)" fill="rgb(195,195,195)"/><rect x="205" y="792.55" width="22" height="3" transform="matrix(1,0,0,1,0,0)" fill="rgb(195,195,195)"/><rect x="214" y="804.55" width="13" height="3" transform="matrix(1,0,0,1,0,0)" fill="rgb(195,195,195)"/><path d=" M 185.76 785.42 L 185.76 784.3 L 187.16 784.3 L 187.16 780.625 L 187.16 780.625 Q 187.16 780.355 187.175 780.06 L 187.175 780.06 L 186.35 780.745 L 186.35 780.745 Q 186.27 780.81 186.19 780.838 L 186.19 780.838 L 186.19 780.838 Q 186.11 780.865 186.035 780.865 L 186.035 780.865 L 186.035 780.865 Q 185.905 780.865 185.802 780.808 L 185.802 780.808 L 185.802 780.808 Q 185.7 780.75 185.65 780.685 L 185.65 780.685 L 185.16 780.035 L 187.43 778.13 L 188.71 778.13 L 188.71 784.3 L 189.91 784.3 L 189.91 785.42 L 185.76 785.42 Z  M 190.6 784.635 L 190.6 784.635 L 190.6 784.635 Q 190.6 784.455 190.668 784.3 L 190.668 784.3 L 190.668 784.3 Q 190.735 784.145 190.853 784.03 L 190.853 784.03 L 190.853 784.03 Q 190.97 783.915 191.13 783.848 L 191.13 783.848 L 191.13 783.848 Q 191.29 783.78 191.48 783.78 L 191.48 783.78 L 191.48 783.78 Q 191.665 783.78 191.825 783.848 L 191.825 783.848 L 191.825 783.848 Q 191.985 783.915 192.105 784.03 L 192.105 784.03 L 192.105 784.03 Q 192.225 784.145 192.293 784.3 L 192.293 784.3 L 192.293 784.3 Q 192.36 784.455 192.36 784.635 L 192.36 784.635 L 192.36 784.635 Q 192.36 784.815 192.293 784.973 L 192.293 784.973 L 192.293 784.973 Q 192.225 785.13 192.105 785.245 L 192.105 785.245 L 192.105 785.245 Q 191.985 785.36 191.825 785.425 L 191.825 785.425 L 191.825 785.425 Q 191.665 785.49 191.48 785.49 L 191.48 785.49 L 191.48 785.49 Q 191.29 785.49 191.13 785.425 L 191.13 785.425 L 191.13 785.425 Q 190.97 785.36 190.853 785.245 L 190.853 785.245 L 190.853 785.245 Q 190.735 785.13 190.668 784.973 L 190.668 784.973 L 190.668 784.973 Q 190.6 784.815 190.6 784.635 Z " fill-rule="evenodd" fill="rgb(117,117,117)"/><path d=" M 199.39 797.42 L 198.68 797.42 L 198.68 797.42 Q 198.46 797.42 198.348 797.36 L 198.348 797.36 L 198.348 797.36 Q 198.235 797.3 198.16 797.11 L 198.16 797.11 L 198.05 796.825 L 198.05 796.825 Q 197.855 796.99 197.675 797.115 L 197.675 797.115 L 197.675 797.115 Q 197.495 797.24 197.302 797.328 L 197.302 797.328 L 197.302 797.328 Q 197.11 797.415 196.892 797.458 L 196.892 797.458 L 196.892 797.458 Q 196.675 797.5 196.41 797.5 L 196.41 797.5 L 196.41 797.5 Q 196.055 797.5 195.765 797.407 L 195.765 797.407 L 195.765 797.407 Q 195.475 797.315 195.272 797.134 L 195.272 797.134 L 195.272 797.134 Q 195.07 796.953 194.96 796.685 L 194.96 796.685 L 194.96 796.685 Q 194.85 796.417 194.85 796.066 L 194.85 796.066 L 194.85 796.066 Q 194.85 795.79 194.99 795.499 L 194.99 795.499 L 194.99 795.499 Q 195.13 795.208 195.475 794.97 L 195.475 794.97 L 195.475 794.97 Q 195.82 794.731 196.405 794.571 L 196.405 794.571 L 196.405 794.571 Q 196.99 794.41 197.88 794.41 L 197.88 794.41 L 197.88 794.188 L 197.88 794.188 Q 197.88 793.729 197.693 793.525 L 197.693 793.525 L 197.693 793.525 Q 197.505 793.32 197.16 793.32 L 197.16 793.32 L 197.16 793.32 Q 196.885 793.32 196.71 793.38 L 196.71 793.38 L 196.71 793.38 Q 196.535 793.44 196.397 793.515 L 196.397 793.515 L 196.397 793.515 Q 196.26 793.59 196.13 793.65 L 196.13 793.65 L 196.13 793.65 Q 196 793.71 195.82 793.71 L 195.82 793.71 L 195.82 793.71 Q 195.66 793.71 195.547 793.633 L 195.547 793.633 L 195.547 793.633 Q 195.435 793.555 195.37 793.44 L 195.37 793.44 L 195.09 792.955 L 195.09 792.955 Q 195.56 792.54 196.133 792.338 L 196.133 792.338 L 196.133 792.338 Q 196.705 792.135 197.36 792.135 L 197.36 792.135 L 197.36 792.135 Q 197.83 792.135 198.207 792.288 L 198.207 792.288 L 198.207 792.288 Q 198.585 792.44 198.848 792.713 L 198.848 792.713 L 198.848 792.713 Q 199.11 792.985 199.25 793.36 L 199.25 793.36 L 199.25 793.36 Q 199.39 793.735 199.39 794.18 L 199.39 794.18 L 199.39 797.42 Z  M 196.9 796.475 L 196.9 796.475 L 196.9 796.475 Q 197.2 796.475 197.425 796.37 L 197.425 796.37 L 197.425 796.37 Q 197.65 796.265 197.88 796.03 L 197.88 796.03 L 197.88 795.32 L 197.88 795.32 Q 197.415 795.32 197.115 795.381 L 197.115 795.381 L 197.115 795.381 Q 196.815 795.441 196.64 795.532 L 196.64 795.532 L 196.64 795.532 Q 196.465 795.623 196.397 795.739 L 196.397 795.739 L 196.397 795.739 Q 196.33 795.855 196.33 795.991 L 196.33 795.991 L 196.33 795.991 Q 196.33 796.258 196.475 796.367 L 196.475 796.367 L 196.475 796.367 Q 196.62 796.475 196.9 796.475 Z  M 200.19 796.635 L 200.19 796.635 L 200.19 796.635 Q 200.19 796.455 200.258 796.3 L 200.258 796.3 L 200.258 796.3 Q 200.325 796.145 200.443 796.03 L 200.443 796.03 L 200.443 796.03 Q 200.56 795.915 200.72 795.848 L 200.72 795.848 L 200.72 795.848 Q 200.88 795.78 201.07 795.78 L 201.07 795.78 L 201.07 795.78 Q 201.255 795.78 201.415 795.848 L 201.415 795.848 L 201.415 795.848 Q 201.575 795.915 201.695 796.03 L 201.695 796.03 L 201.695 796.03 Q 201.815 796.145 201.883 796.3 L 201.883 796.3 L 201.883 796.3 Q 201.95 796.455 201.95 796.635 L 201.95 796.635 L 201.95 796.635 Q 201.95 796.815 201.883 796.973 L 201.883 796.973 L 201.883 796.973 Q 201.815 797.13 201.695 797.245 L 201.695 797.245 L 201.695 797.245 Q 201.575 797.36 201.415 797.425 L 201.415 797.425 L 201.415 797.425 Q 201.255 797.49 201.07 797.49 L 201.07 797.49 L 201.07 797.49 Q 200.88 797.49 200.72 797.425 L 200.72 797.425 L 200.72 797.425 Q 200.56 797.36 200.443 797.245 L 200.443 797.245 L 200.443 797.245 Q 200.325 797.13 200.258 796.973 L 200.258 796.973 L 200.258 796.973 Q 200.19 796.815 200.19 796.635 Z " fill-rule="evenodd" fill="rgb(117,117,117)"/><path d=" M 207.15 804.235 L 208.7 804.235 L 208.7 809.42 L 207.15 809.42 L 207.15 804.235 Z  M 208.88 802.815 L 208.88 802.815 L 208.88 802.815 Q 208.88 803 208.805 803.163 L 208.805 803.163 L 208.805 803.163 Q 208.73 803.325 208.6 803.448 L 208.6 803.448 L 208.6 803.448 Q 208.47 803.57 208.297 803.643 L 208.297 803.643 L 208.297 803.643 Q 208.125 803.715 207.93 803.715 L 207.93 803.715 L 207.93 803.715 Q 207.74 803.715 207.575 803.643 L 207.575 803.643 L 207.575 803.643 Q 207.41 803.57 207.283 803.448 L 207.283 803.448 L 207.283 803.448 Q 207.155 803.325 207.082 803.163 L 207.082 803.163 L 207.082 803.163 Q 207.01 803 207.01 802.815 L 207.01 802.815 L 207.01 802.815 Q 207.01 802.625 207.082 802.46 L 207.082 802.46 L 207.082 802.46 Q 207.155 802.295 207.283 802.17 L 207.283 802.17 L 207.283 802.17 Q 207.41 802.045 207.575 801.975 L 207.575 801.975 L 207.575 801.975 Q 207.74 801.905 207.93 801.905 L 207.93 801.905 L 207.93 801.905 Q 208.125 801.905 208.297 801.975 L 208.297 801.975 L 208.297 801.975 Q 208.47 802.045 208.6 802.17 L 208.6 802.17 L 208.6 802.17 Q 208.73 802.295 208.805 802.46 L 208.805 802.46 L 208.805 802.46 Q 208.88 802.625 208.88 802.815 Z  M 209.65 808.635 L 209.65 808.635 L 209.65 808.635 Q 209.65 808.455 209.717 808.3 L 209.717 808.3 L 209.717 808.3 Q 209.785 808.145 209.902 808.03 L 209.902 808.03 L 209.902 808.03 Q 210.02 807.915 210.18 807.848 L 210.18 807.848 L 210.18 807.848 Q 210.34 807.78 210.53 807.78 L 210.53 807.78 L 210.53 807.78 Q 210.715 807.78 210.875 807.848 L 210.875 807.848 L 210.875 807.848 Q 211.035 807.915 211.155 808.03 L 211.155 808.03 L 211.155 808.03 Q 211.275 808.145 211.342 808.3 L 211.342 808.3 L 211.342 808.3 Q 211.41 808.455 211.41 808.635 L 211.41 808.635 L 211.41 808.635 Q 211.41 808.815 211.342 808.973 L 211.342 808.973 L 211.342 808.973 Q 211.275 809.13 211.155 809.245 L 211.155 809.245 L 211.155 809.245 Q 211.035 809.36 210.875 809.425 L 210.875 809.425 L 210.875 809.425 Q 210.715 809.49 210.53 809.49 L 210.53 809.49 L 210.53 809.49 Q 210.34 809.49 210.18 809.425 L 210.18 809.425 L 210.18 809.425 Q 210.02 809.36 209.902 809.245 L 209.902 809.245 L 209.902 809.245 Q 209.785 809.13 209.717 808.973 L 209.717 808.973 L 209.717 808.973 Q 209.65 808.815 209.65 808.635 Z " fill-rule="evenodd" fill="rgb(117,117,117)"/></g></svg>