<?xml version="1.0" standalone="no"?><!-- Generator: Gravit.io --><svg xmlns="http://www.w3.org/2000/svg" xmlns:xlink="http://www.w3.org/1999/xlink" style="isolation:isolate" viewBox="318.66 1020.58 42.34 31.36" width="42.34" height="31.36"><g><rect x="329" y="1023" width="32" height="3" transform="matrix(1,0,0,1,0,0)" fill="rgb(125,125,125)"/><rect x="339" y="1035" width="22" height="3" transform="matrix(1,0,0,1,0,0)" fill="rgb(125,125,125)"/><rect x="348" y="1047" width="13" height="3" transform="matrix(1,0,0,1,0,0)" fill="rgb(125,125,125)"/><path d=" M 319.26 1027.87 L 319.26 1026.75 L 320.66 1026.75 L 320.66 1023.075 L 320.66 1023.075 Q 320.66 1022.805 320.675 1022.51 L 320.675 1022.51 L 319.85 1023.195 L 319.85 1023.195 Q 319.77 1023.26 319.69 1023.288 L 319.69 1023.288 L 319.69 1023.288 Q 319.61 1023.315 319.535 1023.315 L 319.535 1023.315 L 319.535 1023.315 Q 319.405 1023.315 319.302 1023.258 L 319.302 1023.258 L 319.302 1023.258 Q 319.2 1023.2 319.15 1023.135 L 319.15 1023.135 L 318.66 1022.485 L 320.93 1020.58 L 322.21 1020.58 L 322.21 1026.75 L 323.41 1026.75 L 323.41 1027.87 L 319.26 1027.87 Z  M 324.1 1027.085 L 324.1 1027.085 L 324.1 1027.085 Q 324.1 1026.905 324.167 1026.75 L 324.167 1026.75 L 324.167 1026.75 Q 324.235 1026.595 324.352 1026.48 L 324.352 1026.48 L 324.352 1026.48 Q 324.47 1026.365 324.63 1026.298 L 324.63 1026.298 L 324.63 1026.298 Q 324.79 1026.23 324.98 1026.23 L 324.98 1026.23 L 324.98 1026.23 Q 325.165 1026.23 325.325 1026.298 L 325.325 1026.298 L 325.325 1026.298 Q 325.485 1026.365 325.605 1026.48 L 325.605 1026.48 L 325.605 1026.48 Q 325.725 1026.595 325.792 1026.75 L 325.792 1026.75 L 325.792 1026.75 Q 325.86 1026.905 325.86 1027.085 L 325.86 1027.085 L 325.86 1027.085 Q 325.86 1027.265 325.792 1027.423 L 325.792 1027.423 L 325.792 1027.423 Q 325.725 1027.58 325.605 1027.695 L 325.605 1027.695 L 325.605 1027.695 Q 325.485 1027.81 325.325 1027.875 L 325.325 1027.875 L 325.325 1027.875 Q 325.165 1027.94 324.98 1027.94 L 324.98 1027.94 L 324.98 1027.94 Q 324.79 1027.94 324.63 1027.875 L 324.63 1027.875 L 324.63 1027.875 Q 324.47 1027.81 324.352 1027.695 L 324.352 1027.695 L 324.352 1027.695 Q 324.235 1027.58 324.167 1027.423 L 324.167 1027.423 L 324.167 1027.423 Q 324.1 1027.265 324.1 1027.085 Z " fill-rule="evenodd" fill="rgb(215,215,215)"/><path d=" M 322.26 1039.87 L 322.26 1038.75 L 323.66 1038.75 L 323.66 1035.075 L 323.66 1035.075 Q 323.66 1034.805 323.675 1034.51 L 323.675 1034.51 L 322.85 1035.195 L 322.85 1035.195 Q 322.77 1035.26 322.69 1035.288 L 322.69 1035.288 L 322.69 1035.288 Q 322.61 1035.315 322.535 1035.315 L 322.535 1035.315 L 322.535 1035.315 Q 322.405 1035.315 322.302 1035.258 L 322.302 1035.258 L 322.302 1035.258 Q 322.2 1035.2 322.15 1035.135 L 322.15 1035.135 L 321.66 1034.485 L 323.93 1032.58 L 325.21 1032.58 L 325.21 1038.75 L 326.41 1038.75 L 326.41 1039.87 L 322.26 1039.87 Z  M 327.1 1039.085 L 327.1 1039.085 L 327.1 1039.085 Q 327.1 1038.905 327.167 1038.75 L 327.167 1038.75 L 327.167 1038.75 Q 327.235 1038.595 327.352 1038.48 L 327.352 1038.48 L 327.352 1038.48 Q 327.47 1038.365 327.63 1038.298 L 327.63 1038.298 L 327.63 1038.298 Q 327.79 1038.23 327.98 1038.23 L 327.98 1038.23 L 327.98 1038.23 Q 328.165 1038.23 328.325 1038.298 L 328.325 1038.298 L 328.325 1038.298 Q 328.485 1038.365 328.605 1038.48 L 328.605 1038.48 L 328.605 1038.48 Q 328.725 1038.595 328.792 1038.75 L 328.792 1038.75 L 328.792 1038.75 Q 328.86 1038.905 328.86 1039.085 L 328.86 1039.085 L 328.86 1039.085 Q 328.86 1039.265 328.792 1039.423 L 328.792 1039.423 L 328.792 1039.423 Q 328.725 1039.58 328.605 1039.695 L 328.605 1039.695 L 328.605 1039.695 Q 328.485 1039.81 328.325 1039.875 L 328.325 1039.875 L 328.325 1039.875 Q 328.165 1039.94 327.98 1039.94 L 327.98 1039.94 L 327.98 1039.94 Q 327.79 1039.94 327.63 1039.875 L 327.63 1039.875 L 327.63 1039.875 Q 327.47 1039.81 327.352 1039.695 L 327.352 1039.695 L 327.352 1039.695 Q 327.235 1039.58 327.167 1039.423 L 327.167 1039.423 L 327.167 1039.423 Q 327.1 1039.265 327.1 1039.085 Z  M 330.42 1039.87 L 330.42 1038.75 L 331.82 1038.75 L 331.82 1035.075 L 331.82 1035.075 Q 331.82 1034.805 331.835 1034.51 L 331.835 1034.51 L 331.01 1035.195 L 331.01 1035.195 Q 330.93 1035.26 330.85 1035.288 L 330.85 1035.288 L 330.85 1035.288 Q 330.77 1035.315 330.695 1035.315 L 330.695 1035.315 L 330.695 1035.315 Q 330.565 1035.315 330.463 1035.258 L 330.463 1035.258 L 330.463 1035.258 Q 330.36 1035.2 330.31 1035.135 L 330.31 1035.135 L 329.82 1034.485 L 332.09 1032.58 L 333.37 1032.58 L 333.37 1038.75 L 334.57 1038.75 L 334.57 1039.87 L 330.42 1039.87 Z " fill-rule="evenodd" fill="rgb(215,215,215)"/><path d=" M 323.26 1051.87 L 323.26 1050.75 L 324.66 1050.75 L 324.66 1047.075 L 324.66 1047.075 Q 324.66 1046.805 324.675 1046.51 L 324.675 1046.51 L 323.85 1047.195 L 323.85 1047.195 Q 323.77 1047.26 323.69 1047.288 L 323.69 1047.288 L 323.69 1047.288 Q 323.61 1047.315 323.535 1047.315 L 323.535 1047.315 L 323.535 1047.315 Q 323.405 1047.315 323.302 1047.258 L 323.302 1047.258 L 323.302 1047.258 Q 323.2 1047.2 323.15 1047.135 L 323.15 1047.135 L 322.66 1046.485 L 324.93 1044.58 L 326.21 1044.58 L 326.21 1050.75 L 327.41 1050.75 L 327.41 1051.87 L 323.26 1051.87 Z  M 328.1 1051.085 L 328.1 1051.085 L 328.1 1051.085 Q 328.1 1050.905 328.167 1050.75 L 328.167 1050.75 L 328.167 1050.75 Q 328.235 1050.595 328.352 1050.48 L 328.352 1050.48 L 328.352 1050.48 Q 328.47 1050.365 328.63 1050.298 L 328.63 1050.298 L 328.63 1050.298 Q 328.79 1050.23 328.98 1050.23 L 328.98 1050.23 L 328.98 1050.23 Q 329.165 1050.23 329.325 1050.298 L 329.325 1050.298 L 329.325 1050.298 Q 329.485 1050.365 329.605 1050.48 L 329.605 1050.48 L 329.605 1050.48 Q 329.725 1050.595 329.792 1050.75 L 329.792 1050.75 L 329.792 1050.75 Q 329.86 1050.905 329.86 1051.085 L 329.86 1051.085 L 329.86 1051.085 Q 329.86 1051.265 329.792 1051.423 L 329.792 1051.423 L 329.792 1051.423 Q 329.725 1051.58 329.605 1051.695 L 329.605 1051.695 L 329.605 1051.695 Q 329.485 1051.81 329.325 1051.875 L 329.325 1051.875 L 329.325 1051.875 Q 329.165 1051.94 328.98 1051.94 L 328.98 1051.94 L 328.98 1051.94 Q 328.79 1051.94 328.63 1051.875 L 328.63 1051.875 L 328.63 1051.875 Q 328.47 1051.81 328.352 1051.695 L 328.352 1051.695 L 328.352 1051.695 Q 328.235 1051.58 328.167 1051.423 L 328.167 1051.423 L 328.167 1051.423 Q 328.1 1051.265 328.1 1051.085 Z  M 333.17 1044.505 L 333.17 1044.505 L 333.17 1044.505 Q 333.71 1044.505 334.143 1044.663 L 334.143 1044.663 L 334.143 1044.663 Q 334.575 1044.82 334.88 1045.1 L 334.88 1045.1 L 334.88 1045.1 Q 335.185 1045.38 335.347 1045.768 L 335.347 1045.768 L 335.347 1045.768 Q 335.51 1046.155 335.51 1046.62 L 335.51 1046.62 L 335.51 1046.62 Q 335.51 1047.02 335.398 1047.36 L 335.398 1047.36 L 335.398 1047.36 Q 335.285 1047.7 335.09 1048.008 L 335.09 1048.008 L 335.09 1048.008 Q 334.895 1048.315 334.638 1048.602 L 334.638 1048.602 L 334.638 1048.602 Q 334.38 1048.89 334.09 1049.185 L 334.09 1049.185 L 332.665 1050.645 L 332.665 1050.645 Q 332.94 1050.565 333.208 1050.518 L 333.208 1050.518 L 333.208 1050.518 Q 333.475 1050.47 333.71 1050.47 L 333.71 1050.47 L 335.07 1050.47 L 335.07 1050.47 Q 335.32 1050.47 335.465 1050.607 L 335.465 1050.607 L 335.465 1050.607 Q 335.61 1050.745 335.61 1050.97 L 335.61 1050.97 L 335.61 1051.87 L 330.49 1051.87 L 330.49 1051.37 L 330.49 1051.37 Q 330.49 1051.225 330.55 1051.06 L 330.55 1051.06 L 330.55 1051.06 Q 330.61 1050.895 330.76 1050.76 L 330.76 1050.76 L 332.86 1048.645 L 332.86 1048.645 Q 333.13 1048.375 333.33 1048.13 L 333.33 1048.13 L 333.33 1048.13 Q 333.53 1047.885 333.66 1047.648 L 333.66 1047.648 L 333.66 1047.648 Q 333.79 1047.41 333.855 1047.173 L 333.855 1047.173 L 333.855 1047.173 Q 333.92 1046.935 333.92 1046.67 L 333.92 1046.67 L 333.92 1046.67 Q 333.92 1046.235 333.713 1046.003 L 333.713 1046.003 L 333.713 1046.003 Q 333.505 1045.77 333.08 1045.77 L 333.08 1045.77 L 333.08 1045.77 Q 332.905 1045.77 332.76 1045.82 L 332.76 1045.82 L 332.76 1045.82 Q 332.615 1045.87 332.5 1045.955 L 332.5 1045.955 L 332.5 1045.955 Q 332.385 1046.04 332.302 1046.155 L 332.302 1046.155 L 332.302 1046.155 Q 332.22 1046.27 332.17 1046.405 L 332.17 1046.405 L 332.17 1046.405 Q 332.09 1046.63 331.968 1046.73 L 331.968 1046.73 L 331.968 1046.73 Q 331.845 1046.83 331.635 1046.83 L 331.635 1046.83 L 331.635 1046.83 Q 331.585 1046.83 331.528 1046.825 L 331.528 1046.825 L 331.528 1046.825 Q 331.47 1046.82 331.41 1046.81 L 331.41 1046.81 L 330.59 1046.665 L 330.59 1046.665 Q 330.67 1046.12 330.898 1045.715 L 330.898 1045.715 L 330.898 1045.715 Q 331.125 1045.31 331.463 1045.04 L 331.463 1045.04 L 331.463 1045.04 Q 331.8 1044.77 332.235 1044.637 L 332.235 1044.637 L 332.235 1044.637 Q 332.67 1044.505 333.17 1044.505 Z  M 336.26 1051.085 L 336.26 1051.085 L 336.26 1051.085 Q 336.26 1050.905 336.328 1050.75 L 336.328 1050.75 L 336.328 1050.75 Q 336.395 1050.595 336.513 1050.48 L 336.513 1050.48 L 336.513 1050.48 Q 336.63 1050.365 336.79 1050.298 L 336.79 1050.298 L 336.79 1050.298 Q 336.95 1050.23 337.14 1050.23 L 337.14 1050.23 L 337.14 1050.23 Q 337.325 1050.23 337.485 1050.298 L 337.485 1050.298 L 337.485 1050.298 Q 337.645 1050.365 337.765 1050.48 L 337.765 1050.48 L 337.765 1050.48 Q 337.885 1050.595 337.953 1050.75 L 337.953 1050.75 L 337.953 1050.75 Q 338.02 1050.905 338.02 1051.085 L 338.02 1051.085 L 338.02 1051.085 Q 338.02 1051.265 337.953 1051.423 L 337.953 1051.423 L 337.953 1051.423 Q 337.885 1051.58 337.765 1051.695 L 337.765 1051.695 L 337.765 1051.695 Q 337.645 1051.81 337.485 1051.875 L 337.485 1051.875 L 337.485 1051.875 Q 337.325 1051.94 337.14 1051.94 L 337.14 1051.94 L 337.14 1051.94 Q 336.95 1051.94 336.79 1051.875 L 336.79 1051.875 L 336.79 1051.875 Q 336.63 1051.81 336.513 1051.695 L 336.513 1051.695 L 336.513 1051.695 Q 336.395 1051.58 336.328 1051.423 L 336.328 1051.423 L 336.328 1051.423 Q 336.26 1051.265 336.26 1051.085 Z  M 339.58 1051.87 L 339.58 1050.75 L 340.98 1050.75 L 340.98 1047.075 L 340.98 1047.075 Q 340.98 1046.805 340.995 1046.51 L 340.995 1046.51 L 340.17 1047.195 L 340.17 1047.195 Q 340.09 1047.26 340.01 1047.288 L 340.01 1047.288 L 340.01 1047.288 Q 339.93 1047.315 339.855 1047.315 L 339.855 1047.315 L 339.855 1047.315 Q 339.725 1047.315 339.622 1047.258 L 339.622 1047.258 L 339.622 1047.258 Q 339.52 1047.2 339.47 1047.135 L 339.47 1047.135 L 338.98 1046.485 L 341.25 1044.58 L 342.53 1044.58 L 342.53 1050.75 L 343.73 1050.75 L 343.73 1051.87 L 339.58 1051.87 Z " fill-rule="evenodd" fill="rgb(215,215,215)"/></g></svg>