<?xml version="1.0" standalone="no"?><!-- Generator: Gravit.io --><svg xmlns="http://www.w3.org/2000/svg" xmlns:xlink="http://www.w3.org/1999/xlink" style="isolation:isolate" viewBox="249.66 777.49 44.34 33.595" width="44.34" height="33.595"><g><rect x="262" y="780.55" width="32" height="3" transform="matrix(1,0,0,1,0,0)" fill="rgb(195,195,195)"/><rect x="272" y="792.55" width="22" height="3" transform="matrix(1,0,0,1,0,0)" fill="rgb(195,195,195)"/><rect x="281" y="804.55" width="13" height="3" transform="matrix(1,0,0,1,0,0)" fill="rgb(195,195,195)"/><path d=" M 250.26 785.42 L 250.26 784.3 L 251.66 784.3 L 251.66 780.625 L 251.66 780.625 Q 251.66 780.355 251.675 780.06 L 251.675 780.06 L 250.85 780.745 L 250.85 780.745 Q 250.77 780.81 250.69 780.838 L 250.69 780.838 L 250.69 780.838 Q 250.61 780.865 250.535 780.865 L 250.535 780.865 L 250.535 780.865 Q 250.405 780.865 250.302 780.808 L 250.302 780.808 L 250.302 780.808 Q 250.2 780.75 250.15 780.685 L 250.15 780.685 L 249.66 780.035 L 251.93 778.13 L 253.21 778.13 L 253.21 784.3 L 254.41 784.3 L 254.41 785.42 L 250.26 785.42 Z  M 256.06 782.29 L 256.06 782.29 L 256.06 782.29 Q 256.06 781.795 256.005 781.293 L 256.005 781.293 L 256.005 781.293 Q 255.95 780.79 255.84 780.303 L 255.84 780.303 L 255.84 780.303 Q 255.73 779.815 255.57 779.353 L 255.57 779.353 L 255.57 779.353 Q 255.41 778.89 255.2 778.475 L 255.2 778.475 L 255.2 778.475 Q 255.16 778.395 255.143 778.33 L 255.143 778.33 L 255.143 778.33 Q 255.125 778.265 255.125 778.21 L 255.125 778.21 L 255.125 778.21 Q 255.125 778.095 255.19 778.02 L 255.19 778.02 L 255.19 778.02 Q 255.255 777.945 255.34 777.89 L 255.34 777.89 L 256.03 777.49 L 256.03 777.49 Q 256.755 778.62 257.078 779.815 L 257.078 779.815 L 257.078 779.815 Q 257.4 781.01 257.4 782.29 L 257.4 782.29 L 257.4 782.29 Q 257.4 783.575 257.078 784.768 L 257.078 784.768 L 257.078 784.768 Q 256.755 785.96 256.03 787.085 L 256.03 787.085 L 255.34 786.685 L 255.34 786.685 Q 255.25 786.63 255.185 786.555 L 255.185 786.555 L 255.185 786.555 Q 255.12 786.48 255.12 786.36 L 255.12 786.36 L 255.12 786.36 Q 255.12 786.24 255.19 786.095 L 255.19 786.095 L 255.19 786.095 Q 255.395 785.675 255.557 785.215 L 255.557 785.215 L 255.557 785.215 Q 255.72 784.755 255.833 784.27 L 255.833 784.27 L 255.833 784.27 Q 255.945 783.785 256.003 783.285 L 256.003 783.285 L 256.003 783.285 Q 256.06 782.785 256.06 782.29 Z " fill-rule="evenodd" fill="rgb(117,117,117)"/><path d=" M 263.89 797.42 L 263.18 797.42 L 263.18 797.42 Q 262.96 797.42 262.847 797.36 L 262.847 797.36 L 262.847 797.36 Q 262.735 797.3 262.66 797.11 L 262.66 797.11 L 262.55 796.825 L 262.55 796.825 Q 262.355 796.99 262.175 797.115 L 262.175 797.115 L 262.175 797.115 Q 261.995 797.24 261.802 797.328 L 261.802 797.328 L 261.802 797.328 Q 261.61 797.415 261.393 797.458 L 261.393 797.458 L 261.393 797.458 Q 261.175 797.5 260.91 797.5 L 260.91 797.5 L 260.91 797.5 Q 260.555 797.5 260.265 797.407 L 260.265 797.407 L 260.265 797.407 Q 259.975 797.315 259.773 797.134 L 259.773 797.134 L 259.773 797.134 Q 259.57 796.953 259.46 796.685 L 259.46 796.685 L 259.46 796.685 Q 259.35 796.417 259.35 796.066 L 259.35 796.066 L 259.35 796.066 Q 259.35 795.79 259.49 795.499 L 259.49 795.499 L 259.49 795.499 Q 259.63 795.208 259.975 794.97 L 259.975 794.97 L 259.975 794.97 Q 260.32 794.731 260.905 794.571 L 260.905 794.571 L 260.905 794.571 Q 261.49 794.41 262.38 794.41 L 262.38 794.41 L 262.38 794.188 L 262.38 794.188 Q 262.38 793.729 262.193 793.525 L 262.193 793.525 L 262.193 793.525 Q 262.005 793.32 261.66 793.32 L 261.66 793.32 L 261.66 793.32 Q 261.385 793.32 261.21 793.38 L 261.21 793.38 L 261.21 793.38 Q 261.035 793.44 260.898 793.515 L 260.898 793.515 L 260.898 793.515 Q 260.76 793.59 260.63 793.65 L 260.63 793.65 L 260.63 793.65 Q 260.5 793.71 260.32 793.71 L 260.32 793.71 L 260.32 793.71 Q 260.16 793.71 260.047 793.633 L 260.047 793.633 L 260.047 793.633 Q 259.935 793.555 259.87 793.44 L 259.87 793.44 L 259.59 792.955 L 259.59 792.955 Q 260.06 792.54 260.633 792.338 L 260.633 792.338 L 260.633 792.338 Q 261.205 792.135 261.86 792.135 L 261.86 792.135 L 261.86 792.135 Q 262.33 792.135 262.708 792.288 L 262.708 792.288 L 262.708 792.288 Q 263.085 792.44 263.347 792.713 L 263.347 792.713 L 263.347 792.713 Q 263.61 792.985 263.75 793.36 L 263.75 793.36 L 263.75 793.36 Q 263.89 793.735 263.89 794.18 L 263.89 794.18 L 263.89 797.42 Z  M 261.4 796.475 L 261.4 796.475 L 261.4 796.475 Q 261.7 796.475 261.925 796.37 L 261.925 796.37 L 261.925 796.37 Q 262.15 796.265 262.38 796.03 L 262.38 796.03 L 262.38 795.32 L 262.38 795.32 Q 261.915 795.32 261.615 795.381 L 261.615 795.381 L 261.615 795.381 Q 261.315 795.441 261.14 795.532 L 261.14 795.532 L 261.14 795.532 Q 260.965 795.623 260.898 795.739 L 260.898 795.739 L 260.898 795.739 Q 260.83 795.855 260.83 795.991 L 260.83 795.991 L 260.83 795.991 Q 260.83 796.258 260.975 796.367 L 260.975 796.367 L 260.975 796.367 Q 261.12 796.475 261.4 796.475 Z  M 265.65 794.29 L 265.65 794.29 L 265.65 794.29 Q 265.65 793.795 265.595 793.293 L 265.595 793.293 L 265.595 793.293 Q 265.54 792.79 265.43 792.303 L 265.43 792.303 L 265.43 792.303 Q 265.32 791.815 265.16 791.353 L 265.16 791.353 L 265.16 791.353 Q 265 790.89 264.79 790.475 L 264.79 790.475 L 264.79 790.475 Q 264.75 790.395 264.732 790.33 L 264.732 790.33 L 264.732 790.33 Q 264.715 790.265 264.715 790.21 L 264.715 790.21 L 264.715 790.21 Q 264.715 790.095 264.78 790.02 L 264.78 790.02 L 264.78 790.02 Q 264.845 789.945 264.93 789.89 L 264.93 789.89 L 265.62 789.49 L 265.62 789.49 Q 266.345 790.62 266.667 791.815 L 266.667 791.815 L 266.667 791.815 Q 266.99 793.01 266.99 794.29 L 266.99 794.29 L 266.99 794.29 Q 266.99 795.575 266.667 796.768 L 266.667 796.768 L 266.667 796.768 Q 266.345 797.96 265.62 799.085 L 265.62 799.085 L 264.93 798.685 L 264.93 798.685 Q 264.84 798.63 264.775 798.555 L 264.775 798.555 L 264.775 798.555 Q 264.71 798.48 264.71 798.36 L 264.71 798.36 L 264.71 798.36 Q 264.71 798.24 264.78 798.095 L 264.78 798.095 L 264.78 798.095 Q 264.985 797.675 265.148 797.215 L 265.148 797.215 L 265.148 797.215 Q 265.31 796.755 265.422 796.27 L 265.422 796.27 L 265.422 796.27 Q 265.535 795.785 265.593 795.285 L 265.593 795.285 L 265.593 795.285 Q 265.65 794.785 265.65 794.29 Z " fill-rule="evenodd" fill="rgb(117,117,117)"/><path d=" M 271.65 804.235 L 273.2 804.235 L 273.2 809.42 L 271.65 809.42 L 271.65 804.235 Z  M 273.38 802.815 L 273.38 802.815 L 273.38 802.815 Q 273.38 803 273.305 803.163 L 273.305 803.163 L 273.305 803.163 Q 273.23 803.325 273.1 803.448 L 273.1 803.448 L 273.1 803.448 Q 272.97 803.57 272.797 803.643 L 272.797 803.643 L 272.797 803.643 Q 272.625 803.715 272.43 803.715 L 272.43 803.715 L 272.43 803.715 Q 272.24 803.715 272.075 803.643 L 272.075 803.643 L 272.075 803.643 Q 271.91 803.57 271.782 803.448 L 271.782 803.448 L 271.782 803.448 Q 271.655 803.325 271.583 803.163 L 271.583 803.163 L 271.583 803.163 Q 271.51 803 271.51 802.815 L 271.51 802.815 L 271.51 802.815 Q 271.51 802.625 271.583 802.46 L 271.583 802.46 L 271.583 802.46 Q 271.655 802.295 271.782 802.17 L 271.782 802.17 L 271.782 802.17 Q 271.91 802.045 272.075 801.975 L 272.075 801.975 L 272.075 801.975 Q 272.24 801.905 272.43 801.905 L 272.43 801.905 L 272.43 801.905 Q 272.625 801.905 272.797 801.975 L 272.797 801.975 L 272.797 801.975 Q 272.97 802.045 273.1 802.17 L 273.1 802.17 L 273.1 802.17 Q 273.23 802.295 273.305 802.46 L 273.305 802.46 L 273.305 802.46 Q 273.38 802.625 273.38 802.815 Z  M 275.11 806.29 L 275.11 806.29 L 275.11 806.29 Q 275.11 805.795 275.055 805.293 L 275.055 805.293 L 275.055 805.293 Q 275 804.79 274.89 804.303 L 274.89 804.303 L 274.89 804.303 Q 274.78 803.815 274.62 803.353 L 274.62 803.353 L 274.62 803.353 Q 274.46 802.89 274.25 802.475 L 274.25 802.475 L 274.25 802.475 Q 274.21 802.395 274.193 802.33 L 274.193 802.33 L 274.193 802.33 Q 274.175 802.265 274.175 802.21 L 274.175 802.21 L 274.175 802.21 Q 274.175 802.095 274.24 802.02 L 274.24 802.02 L 274.24 802.02 Q 274.305 801.945 274.39 801.89 L 274.39 801.89 L 275.08 801.49 L 275.08 801.49 Q 275.805 802.62 276.128 803.815 L 276.128 803.815 L 276.128 803.815 Q 276.45 805.01 276.45 806.29 L 276.45 806.29 L 276.45 806.29 Q 276.45 807.575 276.128 808.768 L 276.128 808.768 L 276.128 808.768 Q 275.805 809.96 275.08 811.085 L 275.08 811.085 L 274.39 810.685 L 274.39 810.685 Q 274.3 810.63 274.235 810.555 L 274.235 810.555 L 274.235 810.555 Q 274.17 810.48 274.17 810.36 L 274.17 810.36 L 274.17 810.36 Q 274.17 810.24 274.24 810.095 L 274.24 810.095 L 274.24 810.095 Q 274.445 809.675 274.607 809.215 L 274.607 809.215 L 274.607 809.215 Q 274.77 808.755 274.883 808.27 L 274.883 808.27 L 274.883 808.27 Q 274.995 807.785 275.052 807.285 L 275.052 807.285 L 275.052 807.285 Q 275.11 806.785 275.11 806.29 Z " fill-rule="evenodd" fill="rgb(117,117,117)"/></g></svg>