<?xml version="1.0" standalone="no"?><!-- Generator: Gravit.io --><svg xmlns="http://www.w3.org/2000/svg" xmlns:xlink="http://www.w3.org/1999/xlink" style="isolation:isolate" viewBox="185.16 1020.58 41.84 31.36" width="41.84" height="31.36"><g><rect x="195" y="1023" width="32" height="3" transform="matrix(1,0,0,1,0,0)" fill="rgb(125,125,125)"/><rect x="205" y="1035" width="22" height="3" transform="matrix(1,0,0,1,0,0)" fill="rgb(125,125,125)"/><rect x="214" y="1047" width="13" height="3" transform="matrix(1,0,0,1,0,0)" fill="rgb(125,125,125)"/><path d=" M 185.76 1027.87 L 185.76 1026.75 L 187.16 1026.75 L 187.16 1023.075 L 187.16 1023.075 Q 187.16 1022.805 187.175 1022.51 L 187.175 1022.51 L 186.35 1023.195 L 186.35 1023.195 Q 186.27 1023.26 186.19 1023.288 L 186.19 1023.288 L 186.19 1023.288 Q 186.11 1023.315 186.035 1023.315 L 186.035 1023.315 L 186.035 1023.315 Q 185.905 1023.315 185.802 1023.258 L 185.802 1023.258 L 185.802 1023.258 Q 185.7 1023.2 185.65 1023.135 L 185.65 1023.135 L 185.16 1022.485 L 187.43 1020.58 L 188.71 1020.58 L 188.71 1026.75 L 189.91 1026.75 L 189.91 1027.87 L 185.76 1027.87 Z  M 190.6 1027.085 L 190.6 1027.085 L 190.6 1027.085 Q 190.6 1026.905 190.668 1026.75 L 190.668 1026.75 L 190.668 1026.75 Q 190.735 1026.595 190.853 1026.48 L 190.853 1026.48 L 190.853 1026.48 Q 190.97 1026.365 191.13 1026.298 L 191.13 1026.298 L 191.13 1026.298 Q 191.29 1026.23 191.48 1026.23 L 191.48 1026.23 L 191.48 1026.23 Q 191.665 1026.23 191.825 1026.298 L 191.825 1026.298 L 191.825 1026.298 Q 191.985 1026.365 192.105 1026.48 L 192.105 1026.48 L 192.105 1026.48 Q 192.225 1026.595 192.293 1026.75 L 192.293 1026.75 L 192.293 1026.75 Q 192.36 1026.905 192.36 1027.085 L 192.36 1027.085 L 192.36 1027.085 Q 192.36 1027.265 192.293 1027.423 L 192.293 1027.423 L 192.293 1027.423 Q 192.225 1027.58 192.105 1027.695 L 192.105 1027.695 L 192.105 1027.695 Q 191.985 1027.81 191.825 1027.875 L 191.825 1027.875 L 191.825 1027.875 Q 191.665 1027.94 191.48 1027.94 L 191.48 1027.94 L 191.48 1027.94 Q 191.29 1027.94 191.13 1027.875 L 191.13 1027.875 L 191.13 1027.875 Q 190.97 1027.81 190.853 1027.695 L 190.853 1027.695 L 190.853 1027.695 Q 190.735 1027.58 190.668 1027.423 L 190.668 1027.423 L 190.668 1027.423 Q 190.6 1027.265 190.6 1027.085 Z " fill-rule="evenodd" fill="rgb(215,215,215)"/><path d=" M 199.39 1039.87 L 198.68 1039.87 L 198.68 1039.87 Q 198.46 1039.87 198.348 1039.81 L 198.348 1039.81 L 198.348 1039.81 Q 198.235 1039.75 198.16 1039.56 L 198.16 1039.56 L 198.05 1039.275 L 198.05 1039.275 Q 197.855 1039.44 197.675 1039.565 L 197.675 1039.565 L 197.675 1039.565 Q 197.495 1039.69 197.302 1039.777 L 197.302 1039.777 L 197.302 1039.777 Q 197.11 1039.865 196.892 1039.908 L 196.892 1039.908 L 196.892 1039.908 Q 196.675 1039.95 196.41 1039.95 L 196.41 1039.95 L 196.41 1039.95 Q 196.055 1039.95 195.765 1039.857 L 195.765 1039.857 L 195.765 1039.857 Q 195.475 1039.764 195.272 1039.584 L 195.272 1039.584 L 195.272 1039.584 Q 195.07 1039.403 194.96 1039.135 L 194.96 1039.135 L 194.96 1039.135 Q 194.85 1038.867 194.85 1038.515 L 194.85 1038.515 L 194.85 1038.515 Q 194.85 1038.239 194.99 1037.949 L 194.99 1037.949 L 194.99 1037.949 Q 195.13 1037.658 195.475 1037.419 L 195.475 1037.419 L 195.475 1037.419 Q 195.82 1037.181 196.405 1037.021 L 196.405 1037.021 L 196.405 1037.021 Q 196.99 1036.86 197.88 1036.86 L 197.88 1036.86 L 197.88 1036.638 L 197.88 1036.638 Q 197.88 1036.179 197.693 1035.974 L 197.693 1035.974 L 197.693 1035.974 Q 197.505 1035.77 197.16 1035.77 L 197.16 1035.77 L 197.16 1035.77 Q 196.885 1035.77 196.71 1035.83 L 196.71 1035.83 L 196.71 1035.83 Q 196.535 1035.89 196.397 1035.965 L 196.397 1035.965 L 196.397 1035.965 Q 196.26 1036.04 196.13 1036.1 L 196.13 1036.1 L 196.13 1036.1 Q 196 1036.16 195.82 1036.16 L 195.82 1036.16 L 195.82 1036.16 Q 195.66 1036.16 195.547 1036.083 L 195.547 1036.083 L 195.547 1036.083 Q 195.435 1036.005 195.37 1035.89 L 195.37 1035.89 L 195.09 1035.405 L 195.09 1035.405 Q 195.56 1034.99 196.133 1034.788 L 196.133 1034.788 L 196.133 1034.788 Q 196.705 1034.585 197.36 1034.585 L 197.36 1034.585 L 197.36 1034.585 Q 197.83 1034.585 198.207 1034.738 L 198.207 1034.738 L 198.207 1034.738 Q 198.585 1034.89 198.848 1035.163 L 198.848 1035.163 L 198.848 1035.163 Q 199.11 1035.435 199.25 1035.81 L 199.25 1035.81 L 199.25 1035.81 Q 199.39 1036.185 199.39 1036.63 L 199.39 1036.63 L 199.39 1039.87 Z  M 196.9 1038.925 L 196.9 1038.925 L 196.9 1038.925 Q 197.2 1038.925 197.425 1038.82 L 197.425 1038.82 L 197.425 1038.82 Q 197.65 1038.715 197.88 1038.48 L 197.88 1038.48 L 197.88 1037.77 L 197.88 1037.77 Q 197.415 1037.77 197.115 1037.831 L 197.115 1037.831 L 197.115 1037.831 Q 196.815 1037.891 196.64 1037.982 L 196.64 1037.982 L 196.64 1037.982 Q 196.465 1038.073 196.397 1038.189 L 196.397 1038.189 L 196.397 1038.189 Q 196.33 1038.305 196.33 1038.441 L 196.33 1038.441 L 196.33 1038.441 Q 196.33 1038.708 196.475 1038.817 L 196.475 1038.817 L 196.475 1038.817 Q 196.62 1038.925 196.9 1038.925 Z  M 200.19 1039.085 L 200.19 1039.085 L 200.19 1039.085 Q 200.19 1038.905 200.258 1038.75 L 200.258 1038.75 L 200.258 1038.75 Q 200.325 1038.595 200.443 1038.48 L 200.443 1038.48 L 200.443 1038.48 Q 200.56 1038.365 200.72 1038.298 L 200.72 1038.298 L 200.72 1038.298 Q 200.88 1038.23 201.07 1038.23 L 201.07 1038.23 L 201.07 1038.23 Q 201.255 1038.23 201.415 1038.298 L 201.415 1038.298 L 201.415 1038.298 Q 201.575 1038.365 201.695 1038.48 L 201.695 1038.48 L 201.695 1038.48 Q 201.815 1038.595 201.883 1038.75 L 201.883 1038.75 L 201.883 1038.75 Q 201.95 1038.905 201.95 1039.085 L 201.95 1039.085 L 201.95 1039.085 Q 201.95 1039.265 201.883 1039.423 L 201.883 1039.423 L 201.883 1039.423 Q 201.815 1039.58 201.695 1039.695 L 201.695 1039.695 L 201.695 1039.695 Q 201.575 1039.81 201.415 1039.875 L 201.415 1039.875 L 201.415 1039.875 Q 201.255 1039.94 201.07 1039.94 L 201.07 1039.94 L 201.07 1039.94 Q 200.88 1039.94 200.72 1039.875 L 200.72 1039.875 L 200.72 1039.875 Q 200.56 1039.81 200.443 1039.695 L 200.443 1039.695 L 200.443 1039.695 Q 200.325 1039.58 200.258 1039.423 L 200.258 1039.423 L 200.258 1039.423 Q 200.19 1039.265 200.19 1039.085 Z " fill-rule="evenodd" fill="rgb(215,215,215)"/><path d=" M 207.15 1046.685 L 208.7 1046.685 L 208.7 1051.87 L 207.15 1051.87 L 207.15 1046.685 Z  M 208.88 1045.265 L 208.88 1045.265 L 208.88 1045.265 Q 208.88 1045.45 208.805 1045.613 L 208.805 1045.613 L 208.805 1045.613 Q 208.73 1045.775 208.6 1045.898 L 208.6 1045.898 L 208.6 1045.898 Q 208.47 1046.02 208.297 1046.092 L 208.297 1046.092 L 208.297 1046.092 Q 208.125 1046.165 207.93 1046.165 L 207.93 1046.165 L 207.93 1046.165 Q 207.74 1046.165 207.575 1046.092 L 207.575 1046.092 L 207.575 1046.092 Q 207.41 1046.02 207.283 1045.898 L 207.283 1045.898 L 207.283 1045.898 Q 207.155 1045.775 207.082 1045.613 L 207.082 1045.613 L 207.082 1045.613 Q 207.01 1045.45 207.01 1045.265 L 207.01 1045.265 L 207.01 1045.265 Q 207.01 1045.075 207.082 1044.91 L 207.082 1044.91 L 207.082 1044.91 Q 207.155 1044.745 207.283 1044.62 L 207.283 1044.62 L 207.283 1044.62 Q 207.41 1044.495 207.575 1044.425 L 207.575 1044.425 L 207.575 1044.425 Q 207.74 1044.355 207.93 1044.355 L 207.93 1044.355 L 207.93 1044.355 Q 208.125 1044.355 208.297 1044.425 L 208.297 1044.425 L 208.297 1044.425 Q 208.47 1044.495 208.6 1044.62 L 208.6 1044.62 L 208.6 1044.62 Q 208.73 1044.745 208.805 1044.91 L 208.805 1044.91 L 208.805 1044.91 Q 208.88 1045.075 208.88 1045.265 Z  M 209.65 1051.085 L 209.65 1051.085 L 209.65 1051.085 Q 209.65 1050.905 209.717 1050.75 L 209.717 1050.75 L 209.717 1050.75 Q 209.785 1050.595 209.902 1050.48 L 209.902 1050.48 L 209.902 1050.48 Q 210.02 1050.365 210.18 1050.298 L 210.18 1050.298 L 210.18 1050.298 Q 210.34 1050.23 210.53 1050.23 L 210.53 1050.23 L 210.53 1050.23 Q 210.715 1050.23 210.875 1050.298 L 210.875 1050.298 L 210.875 1050.298 Q 211.035 1050.365 211.155 1050.48 L 211.155 1050.48 L 211.155 1050.48 Q 211.275 1050.595 211.342 1050.75 L 211.342 1050.75 L 211.342 1050.75 Q 211.41 1050.905 211.41 1051.085 L 211.41 1051.085 L 211.41 1051.085 Q 211.41 1051.265 211.342 1051.423 L 211.342 1051.423 L 211.342 1051.423 Q 211.275 1051.58 211.155 1051.695 L 211.155 1051.695 L 211.155 1051.695 Q 211.035 1051.81 210.875 1051.875 L 210.875 1051.875 L 210.875 1051.875 Q 210.715 1051.94 210.53 1051.94 L 210.53 1051.94 L 210.53 1051.94 Q 210.34 1051.94 210.18 1051.875 L 210.18 1051.875 L 210.18 1051.875 Q 210.02 1051.81 209.902 1051.695 L 209.902 1051.695 L 209.902 1051.695 Q 209.785 1051.58 209.717 1051.423 L 209.717 1051.423 L 209.717 1051.423 Q 209.65 1051.265 209.65 1051.085 Z " fill-rule="evenodd" fill="rgb(215,215,215)"/></g></svg>