<?xml version="1.0" standalone="no"?><!-- Generator: Gravit.io --><svg xmlns="http://www.w3.org/2000/svg" xmlns:xlink="http://www.w3.org/1999/xlink" style="isolation:isolate" viewBox="249.66 1019.94 44.34 33.595" width="44.34" height="33.595"><g><rect x="262" y="1023" width="32" height="3" transform="matrix(1,0,0,1,0,0)" fill="rgb(125,125,125)"/><rect x="272" y="1035" width="22" height="3" transform="matrix(1,0,0,1,0,0)" fill="rgb(125,125,125)"/><rect x="281" y="1047" width="13" height="3" transform="matrix(1,0,0,1,0,0)" fill="rgb(125,125,125)"/><path d=" M 250.26 1027.87 L 250.26 1026.75 L 251.66 1026.75 L 251.66 1023.075 L 251.66 1023.075 Q 251.66 1022.805 251.675 1022.51 L 251.675 1022.51 L 250.85 1023.195 L 250.85 1023.195 Q 250.77 1023.26 250.69 1023.288 L 250.69 1023.288 L 250.69 1023.288 Q 250.61 1023.315 250.535 1023.315 L 250.535 1023.315 L 250.535 1023.315 Q 250.405 1023.315 250.302 1023.258 L 250.302 1023.258 L 250.302 1023.258 Q 250.2 1023.2 250.15 1023.135 L 250.15 1023.135 L 249.66 1022.485 L 251.93 1020.58 L 253.21 1020.58 L 253.21 1026.75 L 254.41 1026.75 L 254.41 1027.87 L 250.26 1027.87 Z  M 256.06 1024.74 L 256.06 1024.74 L 256.06 1024.74 Q 256.06 1024.245 256.005 1023.742 L 256.005 1023.742 L 256.005 1023.742 Q 255.95 1023.24 255.84 1022.753 L 255.84 1022.753 L 255.84 1022.753 Q 255.73 1022.265 255.57 1021.803 L 255.57 1021.803 L 255.57 1021.803 Q 255.41 1021.34 255.2 1020.925 L 255.2 1020.925 L 255.2 1020.925 Q 255.16 1020.845 255.143 1020.78 L 255.143 1020.78 L 255.143 1020.78 Q 255.125 1020.715 255.125 1020.66 L 255.125 1020.66 L 255.125 1020.66 Q 255.125 1020.545 255.19 1020.47 L 255.19 1020.47 L 255.19 1020.47 Q 255.255 1020.395 255.34 1020.34 L 255.34 1020.34 L 256.03 1019.94 L 256.03 1019.94 Q 256.755 1021.07 257.078 1022.265 L 257.078 1022.265 L 257.078 1022.265 Q 257.4 1023.46 257.4 1024.74 L 257.4 1024.74 L 257.4 1024.74 Q 257.4 1026.025 257.078 1027.217 L 257.078 1027.217 L 257.078 1027.217 Q 256.755 1028.41 256.03 1029.535 L 256.03 1029.535 L 255.34 1029.135 L 255.34 1029.135 Q 255.25 1029.08 255.185 1029.005 L 255.185 1029.005 L 255.185 1029.005 Q 255.12 1028.93 255.12 1028.81 L 255.12 1028.81 L 255.12 1028.81 Q 255.12 1028.69 255.19 1028.545 L 255.19 1028.545 L 255.19 1028.545 Q 255.395 1028.125 255.557 1027.665 L 255.557 1027.665 L 255.557 1027.665 Q 255.72 1027.205 255.833 1026.72 L 255.833 1026.72 L 255.833 1026.72 Q 255.945 1026.235 256.003 1025.735 L 256.003 1025.735 L 256.003 1025.735 Q 256.06 1025.235 256.06 1024.74 Z " fill-rule="evenodd" fill="rgb(215,215,215)"/><path d=" M 263.89 1039.87 L 263.18 1039.87 L 263.18 1039.87 Q 262.96 1039.87 262.847 1039.81 L 262.847 1039.81 L 262.847 1039.81 Q 262.735 1039.75 262.66 1039.56 L 262.66 1039.56 L 262.55 1039.275 L 262.55 1039.275 Q 262.355 1039.44 262.175 1039.565 L 262.175 1039.565 L 262.175 1039.565 Q 261.995 1039.69 261.802 1039.777 L 261.802 1039.777 L 261.802 1039.777 Q 261.61 1039.865 261.393 1039.908 L 261.393 1039.908 L 261.393 1039.908 Q 261.175 1039.95 260.91 1039.95 L 260.91 1039.95 L 260.91 1039.95 Q 260.555 1039.95 260.265 1039.857 L 260.265 1039.857 L 260.265 1039.857 Q 259.975 1039.764 259.773 1039.584 L 259.773 1039.584 L 259.773 1039.584 Q 259.57 1039.403 259.46 1039.135 L 259.46 1039.135 L 259.46 1039.135 Q 259.35 1038.867 259.35 1038.515 L 259.35 1038.515 L 259.35 1038.515 Q 259.35 1038.239 259.49 1037.949 L 259.49 1037.949 L 259.49 1037.949 Q 259.63 1037.658 259.975 1037.419 L 259.975 1037.419 L 259.975 1037.419 Q 260.32 1037.181 260.905 1037.021 L 260.905 1037.021 L 260.905 1037.021 Q 261.49 1036.86 262.38 1036.86 L 262.38 1036.86 L 262.38 1036.638 L 262.38 1036.638 Q 262.38 1036.179 262.193 1035.974 L 262.193 1035.974 L 262.193 1035.974 Q 262.005 1035.77 261.66 1035.77 L 261.66 1035.77 L 261.66 1035.77 Q 261.385 1035.77 261.21 1035.83 L 261.21 1035.83 L 261.21 1035.83 Q 261.035 1035.89 260.898 1035.965 L 260.898 1035.965 L 260.898 1035.965 Q 260.76 1036.04 260.63 1036.1 L 260.63 1036.1 L 260.63 1036.1 Q 260.5 1036.16 260.32 1036.16 L 260.32 1036.16 L 260.32 1036.16 Q 260.16 1036.16 260.047 1036.083 L 260.047 1036.083 L 260.047 1036.083 Q 259.935 1036.005 259.87 1035.89 L 259.87 1035.89 L 259.59 1035.405 L 259.59 1035.405 Q 260.06 1034.99 260.633 1034.788 L 260.633 1034.788 L 260.633 1034.788 Q 261.205 1034.585 261.86 1034.585 L 261.86 1034.585 L 261.86 1034.585 Q 262.33 1034.585 262.708 1034.738 L 262.708 1034.738 L 262.708 1034.738 Q 263.085 1034.89 263.347 1035.163 L 263.347 1035.163 L 263.347 1035.163 Q 263.61 1035.435 263.75 1035.81 L 263.75 1035.81 L 263.75 1035.81 Q 263.89 1036.185 263.89 1036.63 L 263.89 1036.63 L 263.89 1039.87 Z  M 261.4 1038.925 L 261.4 1038.925 L 261.4 1038.925 Q 261.7 1038.925 261.925 1038.82 L 261.925 1038.82 L 261.925 1038.82 Q 262.15 1038.715 262.38 1038.48 L 262.38 1038.48 L 262.38 1037.77 L 262.38 1037.77 Q 261.915 1037.77 261.615 1037.831 L 261.615 1037.831 L 261.615 1037.831 Q 261.315 1037.891 261.14 1037.982 L 261.14 1037.982 L 261.14 1037.982 Q 260.965 1038.073 260.898 1038.189 L 260.898 1038.189 L 260.898 1038.189 Q 260.83 1038.305 260.83 1038.441 L 260.83 1038.441 L 260.83 1038.441 Q 260.83 1038.708 260.975 1038.817 L 260.975 1038.817 L 260.975 1038.817 Q 261.12 1038.925 261.4 1038.925 Z  M 265.65 1036.74 L 265.65 1036.74 L 265.65 1036.74 Q 265.65 1036.245 265.595 1035.742 L 265.595 1035.742 L 265.595 1035.742 Q 265.54 1035.24 265.43 1034.753 L 265.43 1034.753 L 265.43 1034.753 Q 265.32 1034.265 265.16 1033.803 L 265.16 1033.803 L 265.16 1033.803 Q 265 1033.34 264.79 1032.925 L 264.79 1032.925 L 264.79 1032.925 Q 264.75 1032.845 264.732 1032.78 L 264.732 1032.78 L 264.732 1032.78 Q 264.715 1032.715 264.715 1032.66 L 264.715 1032.66 L 264.715 1032.66 Q 264.715 1032.545 264.78 1032.47 L 264.78 1032.47 L 264.78 1032.47 Q 264.845 1032.395 264.93 1032.34 L 264.93 1032.34 L 265.62 1031.94 L 265.62 1031.94 Q 266.345 1033.07 266.667 1034.265 L 266.667 1034.265 L 266.667 1034.265 Q 266.99 1035.46 266.99 1036.74 L 266.99 1036.74 L 266.99 1036.74 Q 266.99 1038.025 266.667 1039.217 L 266.667 1039.217 L 266.667 1039.217 Q 266.345 1040.41 265.62 1041.535 L 265.62 1041.535 L 264.93 1041.135 L 264.93 1041.135 Q 264.84 1041.08 264.775 1041.005 L 264.775 1041.005 L 264.775 1041.005 Q 264.71 1040.93 264.71 1040.81 L 264.71 1040.81 L 264.71 1040.81 Q 264.71 1040.69 264.78 1040.545 L 264.78 1040.545 L 264.78 1040.545 Q 264.985 1040.125 265.148 1039.665 L 265.148 1039.665 L 265.148 1039.665 Q 265.31 1039.205 265.422 1038.72 L 265.422 1038.72 L 265.422 1038.72 Q 265.535 1038.235 265.593 1037.735 L 265.593 1037.735 L 265.593 1037.735 Q 265.65 1037.235 265.65 1036.74 Z " fill-rule="evenodd" fill="rgb(215,215,215)"/><path d=" M 271.65 1046.685 L 273.2 1046.685 L 273.2 1051.87 L 271.65 1051.87 L 271.65 1046.685 Z  M 273.38 1045.265 L 273.38 1045.265 L 273.38 1045.265 Q 273.38 1045.45 273.305 1045.613 L 273.305 1045.613 L 273.305 1045.613 Q 273.23 1045.775 273.1 1045.898 L 273.1 1045.898 L 273.1 1045.898 Q 272.97 1046.02 272.797 1046.092 L 272.797 1046.092 L 272.797 1046.092 Q 272.625 1046.165 272.43 1046.165 L 272.43 1046.165 L 272.43 1046.165 Q 272.24 1046.165 272.075 1046.092 L 272.075 1046.092 L 272.075 1046.092 Q 271.91 1046.02 271.782 1045.898 L 271.782 1045.898 L 271.782 1045.898 Q 271.655 1045.775 271.583 1045.613 L 271.583 1045.613 L 271.583 1045.613 Q 271.51 1045.45 271.51 1045.265 L 271.51 1045.265 L 271.51 1045.265 Q 271.51 1045.075 271.583 1044.91 L 271.583 1044.91 L 271.583 1044.91 Q 271.655 1044.745 271.782 1044.62 L 271.782 1044.62 L 271.782 1044.62 Q 271.91 1044.495 272.075 1044.425 L 272.075 1044.425 L 272.075 1044.425 Q 272.24 1044.355 272.43 1044.355 L 272.43 1044.355 L 272.43 1044.355 Q 272.625 1044.355 272.797 1044.425 L 272.797 1044.425 L 272.797 1044.425 Q 272.97 1044.495 273.1 1044.62 L 273.1 1044.62 L 273.1 1044.62 Q 273.23 1044.745 273.305 1044.91 L 273.305 1044.91 L 273.305 1044.91 Q 273.38 1045.075 273.38 1045.265 Z  M 275.11 1048.74 L 275.11 1048.74 L 275.11 1048.74 Q 275.11 1048.245 275.055 1047.742 L 275.055 1047.742 L 275.055 1047.742 Q 275 1047.24 274.89 1046.753 L 274.89 1046.753 L 274.89 1046.753 Q 274.78 1046.265 274.62 1045.803 L 274.62 1045.803 L 274.62 1045.803 Q 274.46 1045.34 274.25 1044.925 L 274.25 1044.925 L 274.25 1044.925 Q 274.21 1044.845 274.193 1044.78 L 274.193 1044.78 L 274.193 1044.78 Q 274.175 1044.715 274.175 1044.66 L 274.175 1044.66 L 274.175 1044.66 Q 274.175 1044.545 274.24 1044.47 L 274.24 1044.47 L 274.24 1044.47 Q 274.305 1044.395 274.39 1044.34 L 274.39 1044.34 L 275.08 1043.94 L 275.08 1043.94 Q 275.805 1045.07 276.128 1046.265 L 276.128 1046.265 L 276.128 1046.265 Q 276.45 1047.46 276.45 1048.74 L 276.45 1048.74 L 276.45 1048.74 Q 276.45 1050.025 276.128 1051.217 L 276.128 1051.217 L 276.128 1051.217 Q 275.805 1052.41 275.08 1053.535 L 275.08 1053.535 L 274.39 1053.135 L 274.39 1053.135 Q 274.3 1053.08 274.235 1053.005 L 274.235 1053.005 L 274.235 1053.005 Q 274.17 1052.93 274.17 1052.81 L 274.17 1052.81 L 274.17 1052.81 Q 274.17 1052.69 274.24 1052.545 L 274.24 1052.545 L 274.24 1052.545 Q 274.445 1052.125 274.607 1051.665 L 274.607 1051.665 L 274.607 1051.665 Q 274.77 1051.205 274.883 1050.72 L 274.883 1050.72 L 274.883 1050.72 Q 274.995 1050.235 275.052 1049.735 L 275.052 1049.735 L 275.052 1049.735 Q 275.11 1049.235 275.11 1048.74 Z " fill-rule="evenodd" fill="rgb(215,215,215)"/></g></svg>