<?xml version="1.0" encoding="UTF-8" standalone="no"?><!-- Generator: Gravit.io --><svg xmlns="http://www.w3.org/2000/svg" xmlns:xlink="http://www.w3.org/1999/xlink" style="isolation:isolate" viewBox="402 1618 10 10" width="10px" height="10px"><g><circle vector-effect="non-scaling-stroke" cx="405.5000000000002" cy="1620.4999999999998" r="2.5" fill="rgb(255,255,255)"/><g opacity="0.5"><path d=" M 408.667 1619.033 C 408.775 1619.013 408.886 1619 409 1619 C 409.828 1619 410.5 1619.672 410.5 1620.5 C 410.5 1621.328 409.828 1622 409 1622 C 408.886 1622 408.775 1621.987 408.667 1621.967 C 408.887 1621.515 409 1621.014 409 1620.5 C 409 1619.986 408.887 1619.485 408.667 1619.033 Z " fill-rule="evenodd" fill="rgb(255,255,255)"/></g><path d="M 404 1624 L 407 1624 C 408.104 1624 409 1624.896 409 1626 L 409 1628 L 402 1628 L 402 1626 C 402 1624.896 402.896 1624 404 1624 Z" style="stroke:none;fill:#FFFFFF;stroke-miterlimit:10;"/><g opacity="0.5"><path d=" M 410 1628 L 412 1628 L 412 1625 C 412 1623.896 411.104 1623 410 1623 L 409 1623 C 408.68 1623 408.378 1623.075 408.12 1623.228 C 408.494 1623.369 408.833 1623.593 409.12 1623.88 C 409.68 1624.44 410 1625.2 410 1626 L 410 1628 Z " fill-rule="evenodd" fill="rgb(255,255,255)"/></g></g></svg>