<?xml version="1.0" encoding="UTF-8" standalone="no"?><!-- Generator: Gravit.io --><svg xmlns="http://www.w3.org/2000/svg" xmlns:xlink="http://www.w3.org/1999/xlink" style="isolation:isolate" viewBox="0 0 10 10" width="10pt" height="10pt"><circle vector-effect="non-scaling-stroke" cx="3.5000000000002274" cy="2.4999999999997726" r="2.5" fill="rgb(117,117,117)"/><g opacity="0.5"><path d=" M 6.667 1.033 C 6.775 1.013 6.886 1 7 1 C 7.828 1 8.5 1.672 8.5 2.5 C 8.5 3.328 7.828 4 7 4 C 6.886 4 6.775 3.987 6.667 3.967 C 6.887 3.515 7 3.014 7 2.5 C 7 1.986 6.887 1.485 6.667 1.033 Z " fill-rule="evenodd" fill="rgb(117,117,117)"/></g><path d=" M 2 6 L 5 6 C 6.104 6 7 6.896 7 8 L 7 10 L 0 10 L 0 8 C 0 6.896 0.896 6 2 6 Z " fill="rgb(117,117,117)"/><g opacity="0.5"><path d=" M 8 10 L 10 10 L 10 7 C 10 5.896 9.104 5 8 5 L 7 5 C 6.68 5 6.378 5.075 6.12 5.228 C 6.494 5.369 6.833 5.593 7.12 5.88 C 7.68 6.44 8 7.2 8 8 L 8 10 Z " fill-rule="evenodd" fill="rgb(117,117,117)"/></g><g><g opacity="0.5"><circle vector-effect="non-scaling-stroke" cx="89.9999999999985" cy="-35.54199999999918" r="1.5000000000000568" fill="rgb(117,117,117)"/></g><g style="mix-blend-mode:normal;" opacity="0.5"><path d="M 90 -33.04 L 91 -33.04 C 92.104 -33.04 93 -32.144 93 -31.04 L 93 -28.04 L 88 -28.04 L 88 -31.04 C 88 -32.144 88.896 -33.04 90 -33.04 Z" style="stroke:none;fill:#757575;stroke-miterlimit:10;"/></g><circle vector-effect="non-scaling-stroke" cx="86.49999999999693" cy="-35.54200000000088" r="3" fill="transparent" stroke-width="1" stroke="rgb(255,255,255)" stroke-linejoin="miter" stroke-linecap="square" stroke-miterlimit="3"/><circle vector-effect="non-scaling-stroke" cx="86.49999999999693" cy="-35.54200000000088" r="2.5" fill="rgb(117,117,117)"/><path d="M 85 -32.04 L 88 -32.04 C 89.104 -32.04 90 -31.144 90 -30.04 L 90 -28.04 L 83 -28.04 L 83 -30.04 C 83 -31.144 83.896 -32.04 85 -32.04 Z" style="stroke:none;fill:#757575;stroke-miterlimit:10;"/><path d="M 85 -32.044 L 88 -32.044 C 89.104 -32.044 90 -31.148 90 -30.044 L 90 -28.044 L 83 -28.044 L 83 -30.044 C 83 -31.148 83.896 -32.044 85 -32.044 Z" style="fill:none;stroke:#000000;stroke-width:2;stroke-linecap:square;stroke-miterlimit:2;"/><path d="M 85 -32.04 L 88 -32.04 C 89.104 -32.04 90 -31.144 90 -30.04 L 90 -28.04 L 83 -28.04 L 83 -30.04 C 83 -31.144 83.896 -32.04 85 -32.04 Z" style="stroke:none;fill:#757575;stroke-miterlimit:10;"/><path d="M 85 -32.044 L 88 -32.044 C 89.104 -32.044 90 -31.148 90 -30.044 L 90 -28.044 L 83 -28.044 L 83 -30.044 C 83 -31.148 83.896 -32.044 85 -32.044 Z" style="fill:none;stroke:#000000;stroke-width:2;stroke-linecap:square;stroke-miterlimit:2;"/></g></svg>