<?xml version="1.0" encoding="UTF-8" standalone="no"?><!-- Generator: Gravit.io --><svg xmlns="http://www.w3.org/2000/svg" xmlns:xlink="http://www.w3.org/1999/xlink" style="isolation:isolate" viewBox="270 186.982 12.035 14.035" width="12px" height="14px"><path d=" M 274.236 195.344 L 276.33 191.812 L 276.33 191.812 Q 276.455 191.5 276.861 191.406 L 276.861 191.406 L 276.861 191.406 Q 277.205 191.312 277.486 191.5 L 277.486 191.5 L 277.486 191.5 Q 277.799 191.625 277.893 192 L 277.893 192 L 277.893 192 Q 277.986 192.312 277.799 192.656 L 277.799 192.656 L 275.705 196.187 L 275.705 196.187 Q 275.549 196.5 275.205 196.594 L 275.205 196.594 L 275.205 196.594 Q 274.83 196.687 274.549 196.5 L 274.549 196.5 L 274.549 196.5 Q 274.236 196.375 274.143 196 L 274.143 196 L 274.143 196 Q 274.049 195.625 274.236 195.344 L 274.236 195.344 L 274.236 195.344 Z  M 281.424 193.531 L 280.83 194.5 L 280.83 194.5 Q 280.643 194.812 280.299 194.906 L 280.299 194.906 L 280.299 194.906 Q 279.955 195 279.674 194.812 L 279.674 194.812 L 279.674 194.812 Q 279.361 194.687 279.268 194.312 L 279.268 194.312 L 279.268 194.312 Q 279.174 194 279.33 193.656 L 279.33 193.656 L 279.924 192.687 L 279.924 192.687 Q 280.486 191.719 280.205 190.656 L 280.205 190.656 L 280.205 190.656 Q 279.924 189.625 278.924 189.062 L 278.924 189.062 L 278.924 189.062 Q 277.986 188.469 276.893 188.781 L 276.893 188.781 L 276.893 188.781 Q 275.768 189.062 275.236 190.031 L 275.236 190.031 L 274.643 191 L 274.643 191 Q 274.455 191.312 274.111 191.406 L 274.111 191.406 L 274.111 191.406 Q 273.768 191.5 273.455 191.312 L 273.455 191.312 L 273.455 191.312 Q 273.174 191.187 273.08 190.812 L 273.08 190.812 L 273.08 190.812 Q 272.986 190.5 273.143 190.156 L 273.143 190.156 L 273.736 189.187 L 273.736 189.187 Q 274.674 187.594 276.424 187.156 L 276.424 187.156 L 276.424 187.156 Q 278.236 186.656 279.799 187.594 L 279.799 187.594 L 279.799 187.594 Q 281.393 188.469 281.861 190.219 L 281.861 190.219 L 281.861 190.219 Q 282.361 191.969 281.424 193.531 L 281.424 193.531 L 281.424 193.531 Z  M 276.799 197.969 L 277.393 197 L 277.393 197 Q 277.518 196.687 277.924 196.594 L 277.924 196.594 L 277.924 196.594 Q 278.268 196.5 278.549 196.687 L 278.549 196.687 L 278.549 196.687 Q 278.861 196.875 278.955 197.187 L 278.955 197.187 L 278.955 197.187 Q 279.049 197.5 278.893 197.844 L 278.893 197.844 L 278.299 198.812 L 278.299 198.812 Q 277.361 200.406 275.611 200.844 L 275.611 200.844 L 275.611 200.844 Q 273.799 201.344 272.236 200.406 L 272.236 200.406 L 272.236 200.406 Q 270.643 199.531 270.174 197.781 L 270.174 197.781 L 270.174 197.781 Q 269.674 196.031 270.611 194.469 L 270.611 194.469 L 271.205 193.5 L 271.205 193.5 Q 271.33 193.187 271.736 193.094 L 271.736 193.094 L 271.736 193.094 Q 272.08 193 272.361 193.187 L 272.361 193.187 L 272.361 193.187 Q 272.674 193.312 272.768 193.687 L 272.768 193.687 L 272.768 193.687 Q 272.861 194 272.705 194.344 L 272.705 194.344 L 272.111 195.312 L 272.111 195.312 Q 271.549 196.281 271.83 197.344 L 271.83 197.344 L 271.83 197.344 Q 272.111 198.375 273.111 198.937 L 273.111 198.937 L 273.111 198.937 Q 274.018 199.531 275.174 199.219 L 275.174 199.219 L 275.174 199.219 Q 276.268 198.906 276.799 197.969 L 276.799 197.969 Z " fill-rule="evenodd" fill="rgb(116,116,116)"/></svg>