<?xml version="1.0" encoding="UTF-8" standalone="no"?><!-- Generator: Gravit.io --><svg xmlns="http://www.w3.org/2000/svg" xmlns:xlink="http://www.w3.org/1999/xlink" style="isolation:isolate" viewBox="400.88 1586.88 10.17 10.17" width="10px" height="10px"><g><path d=" M 405.347 1593.685 L 404.567 1594.465 L 406.566 1596.464 C 407.347 1597.245 408.614 1597.245 409.395 1596.464 L 410.464 1595.395 C 411.245 1594.614 411.245 1593.347 410.464 1592.566 L 408.465 1590.567 L 407.685 1591.347 L 409.54 1593.201 C 409.97 1593.631 409.97 1594.33 409.54 1594.76 L 408.76 1595.54 C 408.33 1595.97 407.631 1595.97 407.201 1595.54 L 405.347 1593.685 Z " fill="rgb(255,255,255)"/><path d=" M 404.244 1592.583 L 403.465 1593.363 L 401.465 1591.363 C 400.685 1590.583 400.685 1589.315 401.465 1588.535 L 402.535 1587.465 C 403.315 1586.685 404.583 1586.685 405.363 1587.465 L 407.363 1589.465 L 406.583 1590.244 L 404.729 1588.39 C 404.298 1587.96 403.6 1587.96 403.169 1588.39 L 402.39 1589.169 C 401.96 1589.6 401.96 1590.298 402.39 1590.729 L 404.244 1592.583 Z " fill="rgb(255,255,255)"/><path d="M 407.201 1593.981 L 403.949 1590.729 C 403.734 1590.513 403.734 1590.164 403.949 1589.949 L 403.949 1589.949 C 404.164 1589.734 404.513 1589.734 404.729 1589.949 L 407.981 1593.201 C 408.196 1593.416 408.196 1593.766 407.981 1593.981 L 407.981 1593.981 C 407.766 1594.196 407.416 1594.196 407.201 1593.981 Z" style="stroke:none;fill:#FFFFFF;stroke-miterlimit:10;"/></g></svg>