<?xml version="1.0" encoding="UTF-8" standalone="no"?><!-- Generator: Gravit.io --><svg xmlns="http://www.w3.org/2000/svg" xmlns:xlink="http://www.w3.org/1999/xlink" style="isolation:isolate" viewBox="462 1376.025 26 14" width="26px" height="14px"><path d=" M 477.17 1378.025 L 471.99 1383.195 L 466.82 1378.025 L 477.17 1378.025 L 477.17 1378.025 L 477.17 1378.025 L 477.17 1378.025 L 477.17 1378.025 Z  M 488 1383.025 L 488 1384.025 L 482 1384.025 L 482 1383.025 L 488 1383.025 L 488 1383.025 L 488 1383.025 Z  M 486 1385.025 L 486 1386.025 L 480 1386.025 L 480 1385.025 L 486 1385.025 L 486 1385.025 Z  M 476 1388.025 L 464 1388.025 L 464 1378.027 L 471.983 1386.025 L 479.998 1378.025 L 479.998 1378.025 L 480 1378.025 L 480 1378.025 L 480 1380.025 L 482 1380.025 L 482 1376.025 L 482 1376.025 L 482 1376.025 L 462 1376.025 L 462 1390.025 L 476 1390.025 L 476 1388.025 L 476 1388.025 L 476 1388.025 L 476 1388.025 Z  M 484 1387.025 L 484 1388.025 L 478 1388.025 L 478 1387.025 L 484 1387.025 Z " fill-rule="evenodd" fill="rgb(116,116,116)"/></svg>