<?xml version="1.0" encoding="UTF-8" standalone="no"?><!-- Generator: Gravit.io --><svg xmlns="http://www.w3.org/2000/svg" xmlns:xlink="http://www.w3.org/1999/xlink" style="isolation:isolate" viewBox="778 931 24 24" width="24" height="24"><g id="rotate-left"><g opacity="0"><rect x="778" y="931" width="24" height="24" transform="matrix(1,0,0,1,0,0)" id="Icon Background" fill="rgb(37,86,132)"/></g><path d=" M 782 944 L 778 944 L 783 949 L 788 944 L 784 944 L 784 943.5 L 784 943.5 C 784 941.51 784.79 939.6 786.2 938.2 C 787.6 936.79 789.51 936 791.5 936 C 793.49 936 795.4 936.79 796.8 938.2 L 797.51 938.9 L 798.92 937.49 L 798.22 936.78 C 796.44 935 794.02 934 791.5 934 C 788.98 934 786.56 935 784.78 936.78 C 783 938.56 782 940.98 782 943.5 C 782 943.5 782 943.5 782 943.5 L 782 943.5 L 782 944 Z " id="Fill-A" fill="rgb(215,215,215)"/><path d=" M 795 941.349 L 799.624 945.972 C 799.907 946.256 799.907 946.716 799.624 947 L 795 951.624 C 794.716 951.907 794.256 951.907 793.972 951.624 L 789.349 947 C 789.065 946.716 789.065 946.256 789.349 945.972 L 793.972 941.349 C 794.256 941.065 794.716 941.065 795 941.349 Z  M 794.49 949.31 L 791.66 946.49 L 794.49 943.66 L 797.31 946.49 L 794.49 949.31 Z " fill-rule="evenodd" id="Fill-B" fill="rgb(161,161,161)"/></g></svg>