<?xml version="1.0" encoding="UTF-8" standalone="no"?><!-- Generator: Gravit.io --><svg xmlns="http://www.w3.org/2000/svg" xmlns:xlink="http://www.w3.org/1999/xlink" style="isolation:isolate" viewBox="778 991 24 24" width="24" height="24"><g id="rotate-right"><g opacity="0"><rect x="778" y="991" width="24" height="24" transform="matrix(1,0,0,1,0,0)" id="Icon Background" fill="rgb(37,86,132)"/></g><path d=" M 797.84 1004 L 801.836 1004 L 796.836 1009 L 791.836 1004 L 795.84 1004 L 795.84 1003.5 L 795.84 1003.5 C 795.84 1001.51 795.05 999.6 793.64 998.2 C 792.23 996.79 790.32 996 788.34 996 C 786.35 996 784.44 996.79 783.03 998.2 L 782.33 998.9 L 780.91 997.49 L 781.62 996.78 C 783.4 995 785.82 994 788.34 994 C 790.85 994 793.27 995 795.05 996.78 C 796.83 998.56 797.84 1000.98 797.84 1003.5 C 797.84 1003.5 797.84 1003.5 797.84 1003.5 L 797.84 1003.5 L 797.84 1004 Z " id="Fill-A" fill="rgb(215,215,215)"/><path d=" M 790.487 1007 L 785.864 1011.624 C 785.58 1011.907 785.12 1011.907 784.836 1011.624 L 780.213 1007 C 779.929 1006.716 779.929 1006.256 780.213 1005.972 L 784.836 1001.349 C 785.12 1001.065 785.58 1001.065 785.864 1001.349 L 790.487 1005.972 C 790.771 1006.256 790.771 1006.716 790.487 1007 Z  M 782.53 1006.49 L 785.35 1003.66 L 788.17 1006.49 L 785.35 1009.31 L 782.53 1006.49 Z " fill-rule="evenodd" id="Fill-B" fill="rgb(161,161,161)"/></g></svg>