<?xml version="1.0" encoding="UTF-8" standalone="no"?><!-- Generator: Gravit.io --><svg xmlns="http://www.w3.org/2000/svg" xmlns:xlink="http://www.w3.org/1999/xlink" style="isolation:isolate" viewBox="336 218.972 10.17 10.17" width="10.17pt" height="10.17pt"><path d=" M 340.467 225.778 L 339.687 226.557 L 341.687 228.557 C 342.467 229.337 343.734 229.337 344.515 228.557 L 345.585 227.487 C 346.365 226.706 346.365 225.439 345.585 224.659 L 343.585 222.659 L 342.806 223.439 L 344.66 225.293 C 345.09 225.723 345.09 226.422 344.66 226.852 L 343.88 227.632 C 343.45 228.062 342.751 228.062 342.321 227.632 L 340.467 225.778 L 340.467 225.778 Z  M 339.364 224.675 L 338.585 225.455 L 336.585 223.455 C 335.805 222.675 335.805 221.407 336.585 220.627 L 337.655 219.557 C 338.435 218.777 339.703 218.777 340.483 219.557 L 342.483 221.557 L 341.703 222.336 L 339.849 220.482 C 339.418 220.052 338.72 220.052 338.29 220.482 L 337.51 221.262 C 337.08 221.692 337.08 222.39 337.51 222.821 L 339.364 224.675 L 339.364 224.675 Z  M 342.321 226.073 L 339.069 222.821 C 338.854 222.606 338.854 222.256 339.069 222.041 L 339.069 222.041 C 339.284 221.826 339.634 221.826 339.849 222.041 L 343.101 225.293 C 343.316 225.508 343.316 225.858 343.101 226.073 L 343.101 226.073 C 342.886 226.288 342.536 226.288 342.321 226.073 Z " fill-rule="evenodd" fill="rgb(255,255,255)"/></svg>