<?xml version="1.0" encoding="UTF-8" standalone="no"?><!-- Generator: Gravit.io --><svg xmlns="http://www.w3.org/2000/svg" xmlns:xlink="http://www.w3.org/1999/xlink" style="isolation:isolate" viewBox="48 643 20.953 16.7" width="20.953pt" height="16.7pt"><g><g><path d="M 57.206 644.11 L 68.024 644.11 C 68.254 644.11 68.44 644.296 68.44 644.526 L 68.44 652.294 C 68.44 652.524 68.254 652.71 68.024 652.71 L 57.206 652.71 C 56.976 652.71 56.79 652.524 56.79 652.294 L 56.79 644.526 C 56.79 644.296 56.976 644.11 57.206 644.11 Z" style="stroke:none;fill:#509AC6;stroke-miterlimit:10;"/><path d="M 56.426 645.13 L 67.244 645.13 C 67.474 645.13 67.66 645.316 67.66 645.546 L 67.66 653.304 C 67.66 653.534 67.474 653.72 67.244 653.72 L 56.426 653.72 C 56.196 653.72 56.01 653.534 56.01 653.304 L 56.01 645.546 C 56.01 645.316 56.196 645.13 56.426 645.13 Z" style="stroke:none;fill:#77C0ED;stroke-miterlimit:10;"/><path d=" M 49.454 643 L 57.581 643 C 57.734 643 57.936 643.097 58.033 643.216 L 61.075 646.979 C 61.239 647.181 61.583 647.345 61.843 647.345 L 68.537 647.345 C 68.767 647.345 68.953 647.532 68.953 647.762 L 68.953 658.246 C 68.953 658.506 68.742 658.718 68.481 658.718 L 49.454 658.718 C 49.194 658.718 48.982 658.506 48.982 658.246 L 48.982 643.472 C 48.982 643.211 49.194 643 49.454 643 Z " fill="rgb(91,179,233)"/></g><g><path d=" M 52.041 652.352 C 53.402 652.352 54.507 651.248 54.507 649.886 C 54.507 648.525 53.402 647.421 52.041 647.421 C 50.681 647.421 49.576 648.525 49.576 649.886 C 49.576 651.248 50.681 652.352 52.041 652.352 Z " fill="rgb(43,110,177)"/><path d=" M 56.745 652.864 C 55.993 652.864 55.448 653.127 55 653.695 C 54.284 652.568 48.583 659.7 49.303 659.7 L 54.516 659.7 C 54.569 659.7 54.62 659.695 54.67 659.688 C 54.716 659.695 54.763 659.7 54.81 659.7 L 58.934 659.7 C 59.539 659.7 60.028 659.102 60.028 658.362 C 60.028 656.145 58.558 652.864 56.745 652.864 Z " fill="rgb(19,79,139)"/><path d=" M 52.046 651.853 C 51.98 651.844 51.94 651.841 51.91 651.841 C 49.751 651.841 48 655.467 48 658.106 C 48 658.987 48.583 659.7 49.303 659.7 L 51.91 659.7 Q 51.92 659.692 51.93 659.684 L 54.976 659.684 C 55.697 659.684 56.28 658.971 56.28 658.091 C 56.28 655.451 54.528 651.826 52.37 651.826 C 52.297 651.826 52.176 651.838 52.046 651.853 Z " fill="rgb(43,110,177)"/><path d=" M 56.611 653.435 C 57.719 653.435 58.618 652.536 58.618 651.427 C 58.618 650.319 57.719 649.42 56.611 649.42 C 55.503 649.42 54.604 650.319 54.604 651.427 C 54.604 652.536 55.503 653.435 56.611 653.435 Z " fill="rgb(19,79,139)"/></g></g></svg>