<?xml version="1.0" encoding="UTF-8" standalone="no"?><!-- Generator: Gravit.io --><svg xmlns="http://www.w3.org/2000/svg" xmlns:xlink="http://www.w3.org/1999/xlink" style="isolation:isolate" viewBox="598 217.958 11 12" width="11pt" height="12pt"><g><g opacity="0.5"><circle vector-effect="non-scaling-stroke" cx="606.0000000000003" cy="221.45800000000114" r="1.5000000000001137" fill="rgb(255,255,255)"/></g><g style="mix-blend-mode:normal;" opacity="0.5"><path d="M 606 223.96 L 607 223.96 C 608.104 223.96 609 224.856 609 225.96 L 609 228.96 L 604 228.96 L 604 225.96 C 604 224.856 604.896 223.96 606 223.96 Z" style="stroke:none;fill:#FFFFFF;stroke-miterlimit:10;"/></g><circle vector-effect="non-scaling-stroke" cx="602.4999999999987" cy="221.45799999999997" r="3" fill="transparent" stroke-width="1" stroke="rgb(122,45,173)" stroke-linejoin="miter" stroke-linecap="square" stroke-miterlimit="3"/><circle vector-effect="non-scaling-stroke" cx="602.4999999999987" cy="221.45799999999997" r="2.5" fill="rgb(255,255,255)"/><path d="M 601 224.96 L 604 224.96 C 605.104 224.96 606 225.856 606 226.96 L 606 228.96 L 599 228.96 L 599 226.96 C 599 225.856 599.896 224.96 601 224.96 Z" style="stroke:none;fill:#FFFFFF;stroke-miterlimit:10;"/><path d="M 601 224.96 L 604 224.96 C 605.104 224.96 606 225.856 606 226.96 L 606 228.96 L 599 228.96 L 599 226.96 C 599 225.856 599.896 224.96 601 224.96 Z" style="fill:none;stroke:#000000;stroke-width:2;stroke-linecap:square;stroke-miterlimit:2;"/><path d="M 601 224.96 L 604 224.96 C 605.104 224.96 606 225.856 606 226.96 L 606 228.96 L 599 228.96 L 599 226.96 C 599 225.856 599.896 224.96 601 224.96 Z" style="stroke:none;fill:#FFFFFF;stroke-miterlimit:10;"/><path d="M 601 224.96 L 604 224.96 C 605.104 224.96 606 225.856 606 226.96 L 606 228.96 L 599 228.96 L 599 226.96 C 599 225.856 599.896 224.96 601 224.96 Z" style="fill:none;stroke:#000000;stroke-width:2;stroke-linecap:square;stroke-miterlimit:2;"/></g></svg>