<?xml version="1.0" encoding="UTF-8" standalone="no"?><!-- Generator: Gravit.io --><svg xmlns="http://www.w3.org/2000/svg" xmlns:xlink="http://www.w3.org/1999/xlink" style="isolation:isolate" viewBox="0 0 418 236" width="418pt" height="236pt"><defs><clipPath id="_clipPath_9R6Merkn5gZOOcP1FdcJjjtrk0ILFmZo"><rect width="418" height="236"/></clipPath></defs><g clip-path="url(#_clipPath_9R6Merkn5gZOOcP1FdcJjjtrk0ILFmZo)"><path d="M 4 0 L 414 0 C 416.208 0 418 1.792 418 4 L 418 236 L 0 236 L 0 4 C 0 1.792 1.792 0 4 0 Z" style="stroke:none;fill:#D72E63;stroke-miterlimit:10;"/><clipPath id="_clipPath_ELUi909JyD24p4faQlyUKAekFLEJ2YBF"><path d="M 4 0 L 414 0 C 416.208 0 418 1.792 418 4 L 418 236 L 0 236 L 0 4 C 0 1.792 1.792 0 4 0 Z" style="stroke:none;fill:#D72E63;stroke-miterlimit:10;"/></clipPath><g clip-path="url(#_clipPath_ELUi909JyD24p4faQlyUKAekFLEJ2YBF)"><g opacity="0.09"><radialGradient id="_rgradient_0" fx="0.49878462873460194" fy="0.5041926423352306" cx="0.5" cy="0.5" r="0.5" gradientTransform="matrix(840.543,2,0,642.243,-419.136,-328.121)" gradientUnits="userSpaceOnUse"><stop offset="26.956521739130434%" stop-opacity="1" style="stop-color:rgb(247,141,4)"/><stop offset="100%" stop-opacity="0.46" style="stop-color:rgb(255,255,255)"/></radialGradient><ellipse vector-effect="non-scaling-stroke" cx="-2.839673913043839" cy="-85.12132034356091" rx="432.1983695652175" ry="321.1213203435591" fill="url(#_rgradient_0)"/></g></g><defs><filter id="PvTSrdSWZ26WUF5a9tkaOptMg7dPpK6b" x="-200%" y="-200%" width="400%" height="400%" filterUnits="objectBoundingBox" color-interpolation-filters="sRGB"><feOffset xmlns="http://www.w3.org/2000/svg" in="SourceGraphic" dx="-1" dy="-3"/><feGaussianBlur xmlns="http://www.w3.org/2000/svg" stdDeviation="15.027631719936599" result="pf_100_offsetBlur"/><feComposite xmlns="http://www.w3.org/2000/svg" in="SourceGraphic" in2="pf_100_offsetBlur" result="pf_100_inverse" operator="out"/><feFlood xmlns="http://www.w3.org/2000/svg" flood-color="#FFFFFF" flood-opacity="0.5" result="pf_100_color"/><feComposite xmlns="http://www.w3.org/2000/svg" in="pf_100_color" in2="pf_100_inverse" operator="in" result="pf_100_shadow"/><feComposite xmlns="http://www.w3.org/2000/svg" in="pf_100_shadow" in2="SourceGraphic" operator="over"/></filter><radialGradient id="_rgradient_1" fx="80.45977011494253%" fy="71.86715526696652%" cx="50%" cy="50%" r="50%"><stop offset="27.082555098991413%" style="stop-color:rgba(12,241,250,0)"/><stop offset="100%" style="stop-color:rgba(42,31,166,0.46)"/></radialGradient><linearGradient id="_lgradient_0" x1="0.2826257645078101" y1="0.1553503812739816" x2="0.8983188293262525" y2="0.9413866728824273"><stop offset="0%" style="stop-color:#9AFEFE"/><stop offset="48.69565217391305%" style="stop-color:#C522C8"/><stop offset="97.3913043478261%" style="stop-color:#EA1484"/></linearGradient><radialGradient id="_rgradient_2" fx="50%" fy="50%" cx="50%" cy="50%" r="50%"><stop offset="0%" style="stop-color:#C500FD"/><stop offset="100%" style="stop-color:rgba(197,0,253,0)"/></radialGradient><radialGradient id="_rgradient_3" fx="34.821206039190855%" fy="51.56655914101758%" cx="50%" cy="50%" r="50%"><stop offset="0%" style="stop-color:#622BFD"/><stop offset="58.43113117762242%" style="stop-color:rgba(96,157,255,0.59)"/><stop offset="100%" style="stop-color:rgba(93,142,200,0.18)"/></radialGradient><radialGradient id="_rgradient_4" fx="80.45977011494253%" fy="71.86715526696652%" cx="50%" cy="50%" r="50%"><stop offset="27.082555098991413%" style="stop-color:rgba(12,241,250,0)"/><stop offset="100%" style="stop-color:rgba(42,31,166,0.46)"/></radialGradient></defs><g filter="url(#PvTSrdSWZ26WUF5a9tkaOptMg7dPpK6b)" style="mix-blend-mode:hard-light;" opacity="0.19"><path d="M 4 0 L 414 0 C 416.208 0 418 1.792 418 4 L 418 236 L 0 236 L 0 4 C 0 1.792 1.792 0 4 0 Z" style="stroke:none;fill:url(#_lgradient_0);stroke-miterlimit:10;"/><path d="M 4 0 L 414 0 C 416.208 0 418 1.792 418 4 L 418 236 L 0 236 L 0 4 C 0 1.792 1.792 0 4 0 Z" style="stroke:none;fill:url(#_rgradient_2);stroke-miterlimit:10;"/><path d="M 4 0 L 414 0 C 416.208 0 418 1.792 418 4 L 418 236 L 0 236 L 0 4 C 0 1.792 1.792 0 4 0 Z" style="stroke:none;fill:url(#_rgradient_3);stroke-miterlimit:10;"/><path d="M 4 0 L 414 0 C 416.208 0 418 1.792 418 4 L 418 236 L 0 236 L 0 4 C 0 1.792 1.792 0 4 0 Z" style="stroke:none;fill:url(#_rgradient_4);stroke-miterlimit:10;mix-blend-mode:overlay;"/></g><path d=" M 169.5 119 L 171.5 119 L 171.5 121 L 169.5 121 L 169.5 119 L 169.5 119 L 169.5 119 L 169.5 119 L 169.5 119 L 169.5 119 L 169.5 119 L 169.5 119 L 169.5 119 L 169.5 119 L 169.5 119 L 169.5 119 L 169.5 119 Z  M 238.816 173 L 235.5 173 L 235.5 173 L 235.5 173 L 235.5 173 L 235.5 173 L 235.5 173 L 235.5 173 L 235.5 173 L 235.5 173 L 235.5 173 L 235.5 173 L 235.5 173 L 235.5 173 L 235.5 173 L 235.5 173 L 235.5 173 L 235.5 173 L 235.5 173 L 235.5 173 L 235.5 173 L 235.5 173 L 235.5 173 L 235.5 173 L 235.5 173 L 235.5 173 L 235.5 173 L 235.5 173 L 235.5 173 L 235.5 173 L 235.5 173 L 235.5 173 L 235.5 173 L 235.5 173 L 235.5 175 L 247.5 175 L 247.5 173.994 C 244.525 173.944 241.621 173.604 238.816 173 L 238.816 173 L 238.816 173 L 238.816 173 L 238.816 173 L 238.816 173 L 238.816 173 L 238.816 173 Z  M 241.5 143 L 245.5 143 L 245.5 145 L 241.5 145 L 241.5 143 L 241.5 143 L 241.5 143 L 241.5 143 L 241.5 143 L 241.5 143 L 241.5 143 L 241.5 143 L 241.5 143 L 241.5 143 L 241.5 143 L 241.5 143 L 241.5 143 L 241.5 143 L 241.5 143 L 241.5 143 L 241.5 143 L 241.5 143 L 241.5 143 L 241.5 143 L 241.5 143 L 241.5 143 L 241.5 143 L 241.5 143 L 241.5 143 L 241.5 143 L 241.5 143 L 241.5 143 L 241.5 143 L 241.5 143 L 241.5 143 L 241.5 143 L 241.5 143 Z  M 239.5 155 L 247.5 155 L 247.5 157 L 239.5 157 L 239.5 155 L 239.5 155 L 239.5 155 L 239.5 155 L 239.5 155 L 239.5 155 L 239.5 155 L 239.5 155 L 239.5 155 L 239.5 155 L 239.5 155 L 239.5 155 L 239.5 155 L 239.5 155 L 239.5 155 L 239.5 155 L 239.5 155 L 239.5 155 L 239.5 155 L 239.5 155 L 239.5 155 L 239.5 155 L 239.5 155 L 239.5 155 L 239.5 155 L 239.5 155 L 239.5 155 L 239.5 155 L 239.5 155 L 239.5 155 L 239.5 155 L 239.5 155 L 239.5 155 L 239.5 155 L 239.5 155 L 239.5 155 L 239.5 155 Z  M 235.5 155 L 237.5 155 L 237.5 157 L 235.5 157 L 235.5 155 L 235.5 155 L 235.5 155 L 235.5 155 L 235.5 155 L 235.5 155 L 235.5 155 L 235.5 155 L 235.5 155 L 235.5 155 L 235.5 155 L 235.5 155 L 235.5 155 L 235.5 155 L 235.5 155 L 235.5 155 L 235.5 155 L 235.5 155 L 235.5 155 L 235.5 155 L 235.5 155 L 235.5 155 L 235.5 155 L 235.5 155 L 235.5 155 L 235.5 155 L 235.5 155 L 235.5 155 L 235.5 155 L 235.5 155 L 235.5 155 L 235.5 155 L 235.5 155 L 235.5 155 L 235.5 155 L 235.5 155 Z  M 239.5 151 L 247.5 151 L 247.5 153 L 239.5 153 L 239.5 151 L 239.5 151 L 239.5 151 L 239.5 151 L 239.5 151 L 239.5 151 L 239.5 151 L 239.5 151 L 239.5 151 L 239.5 151 L 239.5 151 L 239.5 151 L 239.5 151 L 239.5 151 L 239.5 151 L 239.5 151 L 239.5 151 L 239.5 151 L 239.5 151 L 239.5 151 L 239.5 151 L 239.5 151 L 239.5 151 L 239.5 151 L 239.5 151 L 239.5 151 L 239.5 151 L 239.5 151 L 239.5 151 L 239.5 151 L 239.5 151 L 239.5 151 L 239.5 151 L 239.5 151 L 239.5 151 Z  M 147.5 119 L 149.5 119 L 149.5 121 L 147.5 121 L 147.5 119 L 147.5 119 L 147.5 119 L 147.5 119 L 147.5 119 L 147.5 119 L 147.5 119 L 147.5 119 L 147.5 119 L 147.5 119 L 147.5 119 Z  M 151.5 119 L 153.5 119 L 153.5 121 L 151.5 121 L 151.5 119 L 151.5 119 L 151.5 119 L 151.5 119 L 151.5 119 L 151.5 119 L 151.5 119 L 151.5 119 L 151.5 119 L 151.5 119 L 151.5 119 L 151.5 119 Z  M 235.5 139 L 239.5 139 L 239.5 141 L 235.5 141 L 235.5 139 L 235.5 139 L 235.5 139 L 235.5 139 L 235.5 139 L 235.5 139 L 235.5 139 L 235.5 139 L 235.5 139 L 235.5 139 L 235.5 139 L 235.5 139 L 235.5 139 L 235.5 139 L 235.5 139 L 235.5 139 L 235.5 139 L 235.5 139 L 235.5 139 L 235.5 139 L 235.5 139 L 235.5 139 L 235.5 139 L 235.5 139 L 235.5 139 L 235.5 139 L 235.5 139 L 235.5 139 L 235.5 139 L 235.5 139 Z  M 239.5 131 L 247.5 131 L 247.5 133 L 239.5 133 L 239.5 131 L 239.5 131 L 239.5 131 L 239.5 131 L 239.5 131 L 239.5 131 L 239.5 131 L 239.5 131 L 239.5 131 L 239.5 131 L 239.5 131 L 239.5 131 L 239.5 131 L 239.5 131 L 239.5 131 L 239.5 131 L 239.5 131 L 239.5 131 L 239.5 131 L 239.5 131 L 239.5 131 L 239.5 131 L 239.5 131 L 239.5 131 L 239.5 131 L 239.5 131 L 239.5 131 L 239.5 131 L 239.5 131 Z  M 209.5 191 L 265.5 191 L 265.5 192.7 C 265.5 193.3 265.26 193.9 264.82 194.32 C 264.4 194.76 263.8 195 263.2 195 L 127.5 195 L 127.5 195 L 127.5 195 L 126.5 195 L 125.8 195 C 125.2 195 124.6 194.76 124.18 194.32 C 123.74 193.9 123.5 193.3 123.5 192.7 L 123.5 191 L 123.5 191 L 185.5 191 L 185.5 193 L 209.5 193 L 209.5 191 L 209.5 191 L 209.5 191 L 209.5 191 L 209.5 191 L 209.5 191 L 209.5 191 L 209.5 191 L 209.5 191 L 209.5 191 L 209.5 191 L 209.5 191 L 209.5 191 L 209.5 191 L 209.5 191 L 209.5 191 L 209.5 191 L 209.5 191 L 209.5 191 L 209.5 191 L 209.5 191 L 209.5 191 L 209.5 191 L 209.5 191 L 209.5 191 L 209.5 191 L 209.5 191 L 209.5 191 L 209.5 191 L 209.5 191 L 209.5 191 L 209.5 191 L 209.5 191 L 209.5 191 L 209.5 191 L 209.5 191 L 209.5 191 L 209.5 191 L 209.5 191 L 209.5 191 L 209.5 191 L 209.5 191 L 209.5 191 L 209.5 191 L 209.5 191 L 209.5 191 L 209.5 191 L 209.5 191 L 209.5 191 L 209.5 191 L 209.5 191 L 209.5 191 L 209.5 191 L 209.5 191 L 209.5 191 Z  M 102.5 195 L 103.5 195 L 103.5 197 L 102.5 197 L 100.5 197 L 99.5 197 L 99.5 195 L 100.5 195 L 102.5 195 L 102.5 195 L 102.5 195 L 102.5 195 L 102.5 195 L 102.5 195 L 102.5 195 L 102.5 195 L 102.5 195 L 102.5 195 L 102.5 195 L 102.5 195 L 102.5 195 L 102.5 195 L 102.5 195 L 102.5 195 L 102.5 195 L 102.5 195 L 102.5 195 L 102.5 195 L 102.5 195 L 102.5 195 L 102.5 195 L 102.5 195 L 102.5 195 L 102.5 195 L 102.5 195 L 102.5 195 L 102.5 195 L 102.5 195 L 102.5 195 L 102.5 195 L 102.5 195 L 102.5 195 L 102.5 195 L 102.5 195 L 102.5 195 L 102.5 195 L 102.5 195 L 102.5 195 L 102.5 195 L 102.5 195 L 102.5 195 L 102.5 195 L 102.5 195 L 102.5 195 L 102.5 195 L 102.5 195 L 102.5 195 L 102.5 195 L 102.5 195 L 102.5 195 L 102.5 195 L 102.5 195 Z  M 143.5 127 L 155.5 127 L 155.5 129 L 143.5 129 L 143.5 127 L 143.5 127 L 143.5 127 L 143.5 127 L 143.5 127 L 143.5 127 L 143.5 127 L 143.5 127 L 143.5 127 L 143.5 127 L 143.5 127 L 143.5 127 L 143.5 127 L 143.5 127 L 143.5 127 L 143.5 127 L 143.5 127 L 143.5 127 L 143.5 127 L 143.5 127 L 143.5 127 L 143.5 127 L 143.5 127 L 143.5 127 L 143.5 127 L 143.5 127 L 143.5 127 L 143.5 127 L 143.5 127 L 143.5 127 L 143.5 127 L 143.5 127 L 143.5 127 L 143.5 127 L 143.5 127 L 143.5 127 L 143.5 127 L 143.5 127 L 143.5 127 L 143.5 127 L 143.5 127 L 143.5 127 L 143.5 127 Z  M 92.611 195 L 93.5 195 L 93.5 197 L 92.611 197 L 86.389 197 L 85.5 197 L 85.5 195 L 86.389 195 L 92.611 195 L 92.611 195 L 92.611 195 L 92.611 195 L 92.611 195 L 92.611 195 L 92.611 195 L 92.611 195 L 92.611 195 L 92.611 195 L 92.611 195 L 92.611 195 L 92.611 195 L 92.611 195 L 92.611 195 L 92.611 195 L 92.611 195 L 92.611 195 L 92.611 195 L 92.611 195 L 92.611 195 L 92.611 195 L 92.611 195 L 92.611 195 L 92.611 195 L 92.611 195 L 92.611 195 L 92.611 195 L 92.611 195 L 92.611 195 L 92.611 195 L 92.611 195 L 92.611 195 L 92.611 195 L 92.611 195 L 92.611 195 L 92.611 195 L 92.611 195 L 92.611 195 L 92.611 195 L 92.611 195 L 92.611 195 L 92.611 195 L 92.611 195 L 92.611 195 L 92.611 195 L 92.611 195 L 92.611 195 L 92.611 195 L 92.611 195 L 92.611 195 L 92.611 195 L 92.611 195 Z  M 143.5 183 L 155.5 183 L 155.5 185 L 143.5 185 L 143.5 183 L 143.5 183 L 143.5 183 L 143.5 183 L 143.5 183 L 143.5 183 L 143.5 183 L 143.5 183 L 143.5 183 L 143.5 183 L 143.5 183 L 143.5 183 L 143.5 183 L 143.5 183 L 143.5 183 L 143.5 183 L 143.5 183 L 143.5 183 L 143.5 183 L 143.5 183 L 143.5 183 L 143.5 183 L 143.5 183 L 143.5 183 L 143.5 183 Z  M 143.5 147 L 155.5 147 L 155.5 149 L 143.5 149 L 143.5 147 L 143.5 147 L 143.5 147 L 143.5 147 L 143.5 147 L 143.5 147 L 143.5 147 L 143.5 147 L 143.5 147 L 143.5 147 L 143.5 147 L 143.5 147 L 143.5 147 L 143.5 147 L 143.5 147 L 143.5 147 L 143.5 147 L 143.5 147 L 143.5 147 L 143.5 147 L 143.5 147 L 143.5 147 L 143.5 147 L 143.5 147 L 143.5 147 L 143.5 147 L 143.5 147 L 143.5 147 L 143.5 147 L 143.5 147 L 143.5 147 L 143.5 147 L 143.5 147 L 143.5 147 L 143.5 147 L 143.5 147 L 143.5 147 L 143.5 147 L 143.5 147 L 143.5 147 L 143.5 147 L 143.5 147 L 143.5 147 L 143.5 147 L 143.5 147 L 143.5 147 L 143.5 147 L 143.5 147 Z  M 143.5 143 L 155.5 143 L 155.5 145 L 143.5 145 L 143.5 143 L 143.5 143 L 143.5 143 L 143.5 143 L 143.5 143 L 143.5 143 L 143.5 143 L 143.5 143 L 143.5 143 L 143.5 143 L 143.5 143 L 143.5 143 L 143.5 143 L 143.5 143 L 143.5 143 L 143.5 143 L 143.5 143 L 143.5 143 L 143.5 143 L 143.5 143 L 143.5 143 L 143.5 143 L 143.5 143 L 143.5 143 L 143.5 143 L 143.5 143 L 143.5 143 L 143.5 143 L 143.5 143 L 143.5 143 L 143.5 143 L 143.5 143 L 143.5 143 L 143.5 143 L 143.5 143 L 143.5 143 L 143.5 143 L 143.5 143 L 143.5 143 L 143.5 143 L 143.5 143 L 143.5 143 L 143.5 143 L 143.5 143 L 143.5 143 L 143.5 143 L 143.5 143 Z  M 143.5 139 L 155.5 139 L 155.5 141 L 143.5 141 L 143.5 139 L 143.5 139 L 143.5 139 L 143.5 139 L 143.5 139 L 143.5 139 L 143.5 139 L 143.5 139 L 143.5 139 L 143.5 139 L 143.5 139 L 143.5 139 L 143.5 139 L 143.5 139 L 143.5 139 L 143.5 139 L 143.5 139 L 143.5 139 L 143.5 139 L 143.5 139 L 143.5 139 L 143.5 139 L 143.5 139 L 143.5 139 L 143.5 139 L 143.5 139 L 143.5 139 L 143.5 139 L 143.5 139 L 143.5 139 L 143.5 139 L 143.5 139 L 143.5 139 L 143.5 139 L 143.5 139 L 143.5 139 L 143.5 139 L 143.5 139 L 143.5 139 L 143.5 139 L 143.5 139 L 143.5 139 L 143.5 139 L 143.5 139 L 143.5 139 L 143.5 139 Z  M 143.5 135 L 155.5 135 L 155.5 137 L 143.5 137 L 143.5 135 L 143.5 135 L 143.5 135 L 143.5 135 L 143.5 135 L 143.5 135 L 143.5 135 L 143.5 135 L 143.5 135 L 143.5 135 L 143.5 135 L 143.5 135 L 143.5 135 L 143.5 135 L 143.5 135 L 143.5 135 L 143.5 135 L 143.5 135 L 143.5 135 L 143.5 135 L 143.5 135 L 143.5 135 L 143.5 135 L 143.5 135 L 143.5 135 L 143.5 135 L 143.5 135 L 143.5 135 L 143.5 135 L 143.5 135 L 143.5 135 L 143.5 135 L 143.5 135 L 143.5 135 L 143.5 135 L 143.5 135 L 143.5 135 L 143.5 135 L 143.5 135 L 143.5 135 L 143.5 135 L 143.5 135 L 143.5 135 L 143.5 135 L 143.5 135 Z  M 143.5 131 L 155.5 131 L 155.5 133 L 143.5 133 L 143.5 131 L 143.5 131 L 143.5 131 L 143.5 131 L 143.5 131 L 143.5 131 L 143.5 131 L 143.5 131 L 143.5 131 L 143.5 131 L 143.5 131 L 143.5 131 L 143.5 131 L 143.5 131 L 143.5 131 L 143.5 131 L 143.5 131 L 143.5 131 L 143.5 131 L 143.5 131 L 143.5 131 L 143.5 131 L 143.5 131 L 143.5 131 L 143.5 131 L 143.5 131 L 143.5 131 L 143.5 131 L 143.5 131 L 143.5 131 L 143.5 131 L 143.5 131 L 143.5 131 L 143.5 131 L 143.5 131 L 143.5 131 L 143.5 131 L 143.5 131 L 143.5 131 L 143.5 131 L 143.5 131 L 143.5 131 L 143.5 131 L 143.5 131 Z  M 235.5 181 L 247.5 181 L 247.5 183 L 235.5 183 L 235.5 181 L 235.5 181 L 235.5 181 L 235.5 181 L 235.5 181 L 235.5 181 L 235.5 181 L 235.5 181 L 235.5 181 L 235.5 181 L 235.5 181 L 235.5 181 L 235.5 181 L 235.5 181 L 235.5 181 L 235.5 181 L 235.5 181 L 235.5 181 L 235.5 181 L 235.5 181 L 235.5 181 L 235.5 181 L 235.5 181 L 235.5 181 L 235.5 181 L 235.5 181 L 235.5 181 L 235.5 181 L 235.5 181 L 235.5 181 L 235.5 181 L 235.5 181 L 235.5 181 L 235.5 181 L 235.5 181 L 235.5 181 L 235.5 181 L 235.5 181 L 235.5 181 L 235.5 181 L 235.5 181 L 235.5 181 Z  M 235.5 177 L 247.5 177 L 247.5 179 L 235.5 179 L 235.5 177 L 235.5 177 L 235.5 177 L 235.5 177 L 235.5 177 L 235.5 177 L 235.5 177 L 235.5 177 L 235.5 177 L 235.5 177 L 235.5 177 L 235.5 177 L 235.5 177 L 235.5 177 L 235.5 177 L 235.5 177 L 235.5 177 L 235.5 177 L 235.5 177 L 235.5 177 L 235.5 177 L 235.5 177 L 235.5 177 L 235.5 177 L 235.5 177 L 235.5 177 L 235.5 177 L 235.5 177 L 235.5 177 L 235.5 177 L 235.5 177 L 235.5 177 L 235.5 177 L 235.5 177 L 235.5 177 L 235.5 177 L 235.5 177 L 235.5 177 L 235.5 177 L 235.5 177 L 235.5 177 Z  M 235.5 161 L 239.5 161 L 239.5 163 L 235.5 163 L 235.5 161 L 235.5 161 L 235.5 161 L 235.5 161 L 235.5 161 L 235.5 161 L 235.5 161 L 235.5 161 L 235.5 161 L 235.5 161 L 235.5 161 L 235.5 161 L 235.5 161 L 235.5 161 L 235.5 161 L 235.5 161 L 235.5 161 L 235.5 161 L 235.5 161 L 235.5 161 L 235.5 161 L 235.5 161 L 235.5 161 L 235.5 161 L 235.5 161 L 235.5 161 L 235.5 161 L 235.5 161 L 235.5 161 L 235.5 161 L 235.5 161 L 235.5 161 L 235.5 161 L 235.5 161 L 235.5 161 L 235.5 161 L 235.5 161 L 235.5 161 L 235.5 161 Z  M 184.41 80.53 C 184.3 80.77 184.1 80.96 183.85 81.05 C 183.6 81.15 183.33 81.14 183.08 81.03 C 182.84 80.92 182.66 80.71 182.56 80.47 C 182.47 80.22 182.48 79.94 182.59 79.7 C 183.54 77.62 184.98 75.79 186.78 74.38 C 188.69 72.87 190.89 71.78 193.25 71.17 C 193.51 71.1 193.78 71.14 194.01 71.27 C 194.24 71.41 194.4 71.63 194.47 71.88 C 194.53 72.14 194.5 72.41 194.36 72.64 C 194.23 72.87 194.01 73.04 193.75 73.1 C 191.66 73.64 189.71 74.61 188.02 75.95 C 186.47 77.17 185.23 78.74 184.41 80.53 L 184.41 80.53 L 184.41 80.53 L 184.41 80.53 L 184.41 80.53 L 184.41 80.53 L 184.41 80.53 L 184.41 80.53 L 184.41 80.53 L 184.41 80.53 L 184.41 80.53 L 184.41 80.53 L 184.41 80.53 Z  M 241.5 161 L 245.5 161 L 245.5 163 L 241.5 163 L 241.5 161 L 241.5 161 L 241.5 161 L 241.5 161 L 241.5 161 L 241.5 161 L 241.5 161 L 241.5 161 L 241.5 161 L 241.5 161 L 241.5 161 L 241.5 161 L 241.5 161 L 241.5 161 L 241.5 161 L 241.5 161 L 241.5 161 L 241.5 161 L 241.5 161 L 241.5 161 L 241.5 161 L 241.5 161 L 241.5 161 L 241.5 161 L 241.5 161 L 241.5 161 L 241.5 161 L 241.5 161 L 241.5 161 L 241.5 161 L 241.5 161 L 241.5 161 L 241.5 161 L 241.5 161 L 241.5 161 L 241.5 161 L 241.5 161 L 241.5 161 Z  M 255.5 162.978 L 255.5 112.86 C 255.5 112.36 255.3 111.9 254.96 111.54 C 254.6 111.2 254.14 111 253.64 111 L 137.36 111 L 137.36 111 C 136.86 111 136.4 111.2 136.04 111.54 C 135.7 111.9 135.5 112.36 135.5 112.86 L 135.5 187 L 139.5 187 L 139.5 125 L 139.5 125 L 139.5 125 L 139.5 125 L 139.5 125 L 139.5 125 L 139.5 125 L 139.5 125 L 139.5 125 L 139.5 125 L 139.5 125 L 139.5 125 L 139.5 125 L 139.5 125 L 139.5 125 L 139.5 125 L 139.5 125 L 139.5 125 L 139.5 125 L 139.5 125 L 139.5 125 L 139.5 125 L 139.5 125 L 139.5 125 L 139.5 125 L 139.5 125 L 139.5 125 L 139.5 125 L 139.5 125 L 139.5 125 L 139.5 125 L 139.5 125 L 139.5 125 L 139.5 125 L 139.5 125 L 139.5 125 L 139.5 125 L 139.5 125 L 139.5 125 L 139.5 125 L 139.5 125 L 139.5 125 L 139.5 123 L 139.5 115 L 139.5 115 L 251.5 115 L 251.5 123 L 251.5 125 L 251.5 164.127 C 252.868 163.828 254.199 163.435 255.5 162.978 L 255.5 162.978 L 255.5 162.978 L 255.5 162.978 Z  M 235.5 151 L 237.5 151 L 237.5 153 L 235.5 153 L 235.5 151 L 235.5 151 L 235.5 151 L 235.5 151 L 235.5 151 L 235.5 151 L 235.5 151 L 235.5 151 L 235.5 151 L 235.5 151 L 235.5 151 L 235.5 151 L 235.5 151 L 235.5 151 L 235.5 151 L 235.5 151 L 235.5 151 L 235.5 151 L 235.5 151 L 235.5 151 L 235.5 151 L 235.5 151 L 235.5 151 L 235.5 151 L 235.5 151 L 235.5 151 L 235.5 151 L 235.5 151 L 235.5 151 L 235.5 151 L 235.5 151 L 235.5 151 L 235.5 151 L 235.5 151 Z  M 235.5 143 L 239.5 143 L 239.5 145 L 235.5 145 L 235.5 143 L 235.5 143 L 235.5 143 L 235.5 143 L 235.5 143 L 235.5 143 L 235.5 143 L 235.5 143 L 235.5 143 L 235.5 143 L 235.5 143 L 235.5 143 L 235.5 143 L 235.5 143 L 235.5 143 L 235.5 143 L 235.5 143 L 235.5 143 L 235.5 143 L 235.5 143 L 235.5 143 L 235.5 143 L 235.5 143 L 235.5 143 L 235.5 143 L 235.5 143 L 235.5 143 L 235.5 143 L 235.5 143 L 235.5 143 L 235.5 143 L 235.5 143 Z  M 241.5 139 L 245.5 139 L 245.5 141 L 241.5 141 L 241.5 139 L 241.5 139 L 241.5 139 L 241.5 139 L 241.5 139 L 241.5 139 L 241.5 139 L 241.5 139 L 241.5 139 L 241.5 139 L 241.5 139 L 241.5 139 L 241.5 139 L 241.5 139 L 241.5 139 L 241.5 139 L 241.5 139 L 241.5 139 L 241.5 139 L 241.5 139 L 241.5 139 L 241.5 139 L 241.5 139 L 241.5 139 L 241.5 139 L 241.5 139 L 241.5 139 L 241.5 139 L 241.5 139 L 241.5 139 L 241.5 139 Z  M 235.5 131 L 237.5 131 L 237.5 133 L 235.5 133 L 235.5 131 L 235.5 131 L 235.5 131 L 235.5 131 L 235.5 131 L 235.5 131 L 235.5 131 L 235.5 131 L 235.5 131 L 235.5 131 L 235.5 131 L 235.5 131 L 235.5 131 L 235.5 131 L 235.5 131 L 235.5 131 L 235.5 131 L 235.5 131 L 235.5 131 L 235.5 131 L 235.5 131 L 235.5 131 L 235.5 131 L 235.5 131 L 235.5 131 L 235.5 131 L 235.5 131 L 235.5 131 Z  M 239.5 127 L 247.5 127 L 247.5 129 L 239.5 129 L 239.5 127 L 239.5 127 L 239.5 127 L 239.5 127 L 239.5 127 L 239.5 127 L 239.5 127 L 239.5 127 L 239.5 127 L 239.5 127 L 239.5 127 L 239.5 127 L 239.5 127 L 239.5 127 L 239.5 127 L 239.5 127 L 239.5 127 L 239.5 127 L 239.5 127 L 239.5 127 L 239.5 127 L 239.5 127 L 239.5 127 L 239.5 127 L 239.5 127 L 239.5 127 L 239.5 127 Z  M 235.5 127 L 237.5 127 L 237.5 129 L 235.5 129 L 235.5 127 L 235.5 127 L 235.5 127 L 235.5 127 L 235.5 127 L 235.5 127 L 235.5 127 L 235.5 127 L 235.5 127 L 235.5 127 L 235.5 127 L 235.5 127 L 235.5 127 L 235.5 127 L 235.5 127 L 235.5 127 L 235.5 127 L 235.5 127 L 235.5 127 L 235.5 127 L 235.5 127 L 235.5 127 L 235.5 127 L 235.5 127 L 235.5 127 L 235.5 127 Z  M 244.5 119 L 246.5 119 L 246.5 121 L 244.5 121 L 244.5 119 L 244.5 119 L 244.5 119 L 244.5 119 L 244.5 119 L 244.5 119 L 244.5 119 L 244.5 119 L 244.5 119 L 244.5 119 L 244.5 119 L 244.5 119 L 244.5 119 L 244.5 119 L 244.5 119 L 244.5 119 L 244.5 119 L 244.5 119 L 244.5 119 L 244.5 119 L 244.5 119 L 244.5 119 L 244.5 119 L 244.5 119 Z  M 240.5 119 L 242.5 119 L 242.5 121 L 240.5 121 L 240.5 119 L 240.5 119 L 240.5 119 L 240.5 119 L 240.5 119 L 240.5 119 L 240.5 119 L 240.5 119 L 240.5 119 L 240.5 119 L 240.5 119 L 240.5 119 L 240.5 119 L 240.5 119 L 240.5 119 L 240.5 119 L 240.5 119 L 240.5 119 L 240.5 119 L 240.5 119 L 240.5 119 L 240.5 119 L 240.5 119 Z  M 236.5 119 L 238.5 119 L 238.5 121 L 236.5 121 L 236.5 119 L 236.5 119 L 236.5 119 L 236.5 119 L 236.5 119 L 236.5 119 L 236.5 119 L 236.5 119 L 236.5 119 L 236.5 119 L 236.5 119 L 236.5 119 L 236.5 119 L 236.5 119 L 236.5 119 L 236.5 119 L 236.5 119 L 236.5 119 L 236.5 119 L 236.5 119 L 236.5 119 L 236.5 119 Z  M 219.5 119 L 221.5 119 L 221.5 121 L 219.5 121 L 219.5 119 L 219.5 119 L 219.5 119 L 219.5 119 L 219.5 119 L 219.5 119 L 219.5 119 L 219.5 119 L 219.5 119 L 219.5 119 L 219.5 119 L 219.5 119 L 219.5 119 L 219.5 119 L 219.5 119 L 219.5 119 L 219.5 119 L 219.5 119 L 219.5 119 L 219.5 119 L 219.5 119 Z  M 215.5 119 L 217.5 119 L 217.5 121 L 215.5 121 L 215.5 119 L 215.5 119 L 215.5 119 L 215.5 119 L 215.5 119 L 215.5 119 L 215.5 119 L 215.5 119 L 215.5 119 L 215.5 119 L 215.5 119 L 215.5 119 L 215.5 119 L 215.5 119 L 215.5 119 L 215.5 119 L 215.5 119 L 215.5 119 L 215.5 119 L 215.5 119 Z  M 211.5 119 L 213.5 119 L 213.5 121 L 211.5 121 L 211.5 119 L 211.5 119 L 211.5 119 L 211.5 119 L 211.5 119 L 211.5 119 L 211.5 119 L 211.5 119 L 211.5 119 L 211.5 119 L 211.5 119 L 211.5 119 L 211.5 119 L 211.5 119 L 211.5 119 L 211.5 119 L 211.5 119 L 211.5 119 L 211.5 119 Z  M 197.5 119 L 199.5 119 L 199.5 121 L 197.5 121 L 197.5 119 L 197.5 119 L 197.5 119 L 197.5 119 L 197.5 119 L 197.5 119 L 197.5 119 L 197.5 119 L 197.5 119 L 197.5 119 L 197.5 119 L 197.5 119 L 197.5 119 L 197.5 119 L 197.5 119 L 197.5 119 L 197.5 119 L 197.5 119 Z  M 193.5 119 L 195.5 119 L 195.5 121 L 193.5 121 L 193.5 119 L 193.5 119 L 193.5 119 L 193.5 119 L 193.5 119 L 193.5 119 L 193.5 119 L 193.5 119 L 193.5 119 L 193.5 119 L 193.5 119 L 193.5 119 L 193.5 119 L 193.5 119 L 193.5 119 L 193.5 119 L 193.5 119 Z  M 189.5 119 L 191.5 119 L 191.5 121 L 189.5 121 L 189.5 119 L 189.5 119 L 189.5 119 L 189.5 119 L 189.5 119 L 189.5 119 L 189.5 119 L 189.5 119 L 189.5 119 L 189.5 119 L 189.5 119 L 189.5 119 L 189.5 119 L 189.5 119 L 189.5 119 L 189.5 119 Z  M 177.5 119 L 179.5 119 L 179.5 121 L 177.5 121 L 177.5 119 L 177.5 119 L 177.5 119 L 177.5 119 L 177.5 119 L 177.5 119 L 177.5 119 L 177.5 119 L 177.5 119 L 177.5 119 L 177.5 119 L 177.5 119 L 177.5 119 L 177.5 119 L 177.5 119 Z  M 173.5 119 L 175.5 119 L 175.5 121 L 173.5 121 L 173.5 119 L 173.5 119 L 173.5 119 L 173.5 119 L 173.5 119 L 173.5 119 L 173.5 119 L 173.5 119 L 173.5 119 L 173.5 119 L 173.5 119 L 173.5 119 L 173.5 119 L 173.5 119 Z  M 143.5 119 L 145.5 119 L 145.5 121 L 143.5 121 L 143.5 119 L 143.5 119 L 143.5 119 L 143.5 119 L 143.5 119 L 143.5 119 L 143.5 119 L 143.5 119 L 143.5 119 L 143.5 119 Z  M 264.602 93.701 L 266.451 89.045 L 271.79 89.045 L 269.256 81.981 L 272.425 74 L 281.5 98 L 274.807 98 L 273.256 93.701 L 264.602 93.701 L 264.602 93.701 L 264.602 93.701 Z  M 258.892 98 L 268.608 74 L 262.167 74 L 255.521 89.509 L 250.795 74 L 245.844 74 L 240.77 89.509 L 237.191 82.442 L 233.953 92.379 L 237.241 98 L 243.58 98 L 248.165 84.091 L 252.537 98 L 258.892 98 L 258.892 98 Z  M 157.5 187 L 141.5 187 L 141.5 125 L 157.5 125 L 157.5 125 L 157.5 125 L 157.5 125 L 157.5 125 L 157.5 125 L 157.5 125 L 157.5 125 L 157.5 125 L 157.5 125 L 157.5 125 L 157.5 125 L 157.5 125 L 157.5 125 L 157.5 125 L 157.5 125 L 157.5 125 L 157.5 125 L 157.5 125 L 157.5 125 L 157.5 125 L 157.5 125 L 157.5 125 L 157.5 125 L 157.5 125 L 157.5 125 L 157.5 125 L 157.5 125 L 157.5 125 L 157.5 125 L 157.5 125 L 157.5 125 L 157.5 125 L 157.5 125 L 157.5 125 L 157.5 125 L 157.5 125 L 157.5 125 L 157.5 125 L 157.5 125 L 157.5 125 L 157.5 125 L 157.5 187 L 157.5 187 L 157.5 187 L 157.5 187 L 157.5 187 L 157.5 187 L 157.5 187 L 157.5 187 L 157.5 187 Z  M 249.5 164.532 L 249.5 125 L 251.5 125 L 233.5 125 L 233.5 125 L 233.5 125 L 233.5 125 L 233.5 125 L 233.5 125 L 233.5 125 L 233.5 125 L 233.5 125 L 233.5 125 L 233.5 125 L 233.5 125 L 233.5 125 L 233.5 125 L 233.5 125 L 233.5 125 L 233.5 125 L 233.5 125 L 233.5 125 L 233.5 125 L 233.5 125 L 233.5 125 L 233.5 125 L 233.5 125 L 233.5 125 L 233.5 125 L 233.5 125 L 233.5 125 L 233.5 125 L 233.5 125 L 233.5 125 L 233.5 125 L 233.5 125 L 233.5 125 L 233.5 125 L 233.5 125 L 233.5 125 L 233.5 125 L 233.5 125 L 233.5 125 L 233.5 125 L 233.5 125 L 233.5 163.547 C 236.183 164.359 239.005 164.855 241.919 165 L 245.453 165 C 246.824 164.917 248.177 164.767 249.5 164.532 L 249.5 164.532 L 249.5 164.532 L 249.5 164.532 Z  M 141.5 123 L 159.5 123 L 231.5 123 L 231.5 123 L 249.5 123 L 249.5 117 L 141.5 117 L 141.5 117 L 141.5 123 L 141.5 123 L 141.5 123 L 141.5 123 L 141.5 123 L 141.5 123 L 141.5 123 L 141.5 123 L 141.5 123 L 141.5 123 L 141.5 123 L 141.5 123 L 141.5 123 L 141.5 123 L 141.5 123 L 141.5 123 L 141.5 123 L 141.5 123 L 141.5 123 L 141.5 123 L 141.5 123 L 141.5 123 L 141.5 123 L 141.5 123 L 141.5 123 L 141.5 123 L 141.5 123 L 141.5 123 L 141.5 123 L 141.5 123 L 141.5 123 L 141.5 123 L 141.5 123 L 141.5 123 L 141.5 123 L 141.5 123 L 141.5 123 L 141.5 123 L 141.5 123 L 141.5 123 L 141.5 123 L 141.5 123 L 141.5 123 L 141.5 123 L 141.5 123 L 141.5 123 L 141.5 123 L 141.5 123 L 141.5 123 L 141.5 123 Z  M 221.5 148.263 L 221.5 148.263 L 221.5 133 L 169.5 133 L 169.5 133 L 169.5 133 L 169.5 133 L 169.5 133 L 169.5 133 L 169.5 133 L 169.5 133 L 169.5 133 L 169.5 133 L 169.5 133 L 169.5 133 L 169.5 133 L 169.5 133 L 169.5 133 L 169.5 133 L 169.5 133 L 169.5 133 L 169.5 133 L 169.5 133 L 169.5 133 L 169.5 133 L 169.5 133 L 169.5 133 L 169.5 133 L 169.5 133 L 169.5 133 L 169.5 133 L 169.5 133 L 169.5 133 L 169.5 133 L 169.5 133 L 169.5 133 L 169.5 133 L 169.5 133 L 169.5 133 L 169.5 133 L 169.5 133 L 169.5 133 L 169.5 133 L 169.5 133 L 169.5 133 L 169.5 133 L 169.5 175 L 221.5 175 L 221.5 165.089 C 220.818 164.576 220.151 164.043 219.5 163.492 L 219.5 173 L 171.5 173 L 171.5 135 L 171.5 135 L 171.5 135 L 171.5 135 L 171.5 135 L 171.5 135 L 171.5 135 L 171.5 135 L 171.5 135 L 171.5 135 L 171.5 135 L 171.5 135 L 171.5 135 L 171.5 135 L 171.5 135 L 171.5 135 L 171.5 135 L 171.5 135 L 171.5 135 L 171.5 135 L 171.5 135 L 171.5 135 L 171.5 135 L 171.5 135 L 171.5 135 L 171.5 135 L 171.5 135 L 171.5 135 L 171.5 135 L 171.5 135 L 171.5 135 L 171.5 135 L 171.5 135 L 171.5 135 L 171.5 135 L 171.5 135 L 171.5 135 L 171.5 135 L 171.5 135 L 171.5 135 L 171.5 135 L 171.5 135 L 171.5 135 L 219.5 135 L 219.5 147.729 L 218.127 147.363 L 207.5 144.53 L 210.347 155.105 L 213.195 165.681 L 219.453 159.453 C 223.019 162.48 227.079 164.957 231.5 166.737 L 231.5 166.88 C 232.157 167.123 232.824 167.346 233.5 167.55 L 233.5 167.484 C 238.111 169.119 243.082 170 248.259 170 C 272.678 170 292.5 150.41 292.5 126.281 C 292.5 125.252 292.464 124.232 292.373 123.227 C 293.9 123.439 295.447 123.54 297 123.54 C 306.39 123.54 315.42 119.84 322.09 113.23 C 325.33 110.03 327.92 106.23 329.71 102.05 C 331.55 97.72 332.5 93.06 332.5 88.36 C 332.5 83.65 331.55 78.99 329.71 74.66 C 327.92 70.48 325.33 66.68 322.09 63.48 C 315.42 56.87 306.39 53.17 297 53.17 C 289.638 53.17 282.472 55.439 276.462 59.659 C 276.121 53.828 273.641 48.305 269.46 44.18 C 264.95 39.71 258.85 37.21 252.5 37.21 C 248.186 37.21 243.95 38.365 240.239 40.551 C 239.595 40.202 238.933 39.885 238.26 39.59 C 234.33 37.88 230.09 37 225.81 37 C 222.38 37 218.97 37.57 215.72 38.68 C 212.56 39.76 209.58 41.34 206.91 43.35 C 201.539 47.398 197.484 52.947 195.248 59.286 C 188.636 60.212 182.446 63.236 177.63 67.97 C 174.79 70.75 172.53 74.06 170.95 77.71 C 169.33 81.49 168.5 85.55 168.5 89.65 C 168.5 93.76 169.33 97.82 170.95 101.59 C 171.156 102.066 171.374 102.536 171.603 103 L 173.851 103 L 173.851 103 L 173.851 103 L 173.851 103 L 173.851 103 C 173.467 102.283 173.113 101.549 172.79 100.8 C 171.28 97.28 170.5 93.49 170.5 89.65 C 170.5 85.82 171.28 82.03 172.79 78.51 C 174.26 75.09 176.38 72 179.03 69.39 C 184.53 64 191.93 60.97 199.64 60.99 C 205.03 60.98 210.32 62.46 214.93 65.25 C 215.16 65.39 215.43 65.43 215.69 65.37 C 215.94 65.3 216.16 65.14 216.3 64.92 C 216.44 64.69 216.48 64.42 216.42 64.16 C 216.36 63.9 216.19 63.68 215.97 63.54 C 211.04 60.56 205.39 58.98 199.64 58.99 C 198.905 58.988 198.173 59.012 197.446 59.074 L 197.446 59.074 C 199.615 53.468 203.302 48.574 208.11 44.94 C 210.62 43.06 213.4 41.59 216.37 40.57 C 219.41 39.53 222.6 39 225.81 39 C 229.82 39 233.78 39.82 237.46 41.42 C 241.06 43 244.32 45.25 247.06 48.06 C 247.25 48.25 247.5 48.35 247.77 48.36 C 248.03 48.36 248.29 48.26 248.48 48.07 C 248.67 47.89 248.78 47.63 248.78 47.37 C 248.78 47.1 248.68 46.85 248.49 46.66 C 246.634 44.76 244.552 43.098 242.302 41.702 L 242.302 41.702 L 242.302 41.702 C 245.448 40.064 248.943 39.21 252.5 39.21 C 258.32 39.21 263.92 41.5 268.06 45.6 C 272.17 49.66 274.49 55.21 274.5 60.99 L 274.5 61.42 C 274.49 61.68 274.6 61.94 274.78 62.13 C 274.97 62.32 275.22 62.42 275.49 62.43 C 275.71 62.43 275.931 62.351 276.108 62.217 L 276.108 62.217 C 276.299 62.197 276.486 62.128 276.64 62.01 C 282.5 57.57 289.65 55.17 297 55.17 C 305.87 55.17 314.38 58.67 320.69 64.9 C 323.74 67.92 326.18 71.5 327.87 75.45 C 329.61 79.53 330.5 83.92 330.5 88.36 C 330.5 92.79 329.61 97.18 327.87 101.26 C 326.18 105.21 323.74 108.79 320.69 111.81 C 314.38 118.05 305.87 121.54 297 121.54 C 295.391 121.54 293.789 121.425 292.209 121.187 C 291.358 114.014 288.751 107.369 284.81 101.693 C 284.785 101.572 284.727 101.46 284.65 101.36 C 284.59 101.286 284.522 101.222 284.444 101.174 C 284.405 101.115 284.363 101.058 284.322 101 C 284.319 101.034 284.317 101.069 284.314 101.103 C 284.214 101.038 284.099 101.004 283.98 100.99 C 283.71 100.96 283.45 101.04 283.24 101.21 C 283.04 101.37 282.9 101.61 282.87 101.88 C 282.01 109.86 278.2 117.24 272.19 122.57 C 269.307 125.137 266.024 127.16 262.5 128.581 L 262.5 130.726 C 266.518 129.211 270.259 126.963 273.52 124.06 C 274.67 123.04 275.744 121.949 276.737 120.797 C 277.739 123.953 278.266 127.314 278.266 130.795 C 278.266 144.033 270.648 155.526 259.5 161.206 L 259.5 110.861 C 259.5 108.73 257.77 107 255.639 107 L 135.361 107 L 135.361 107 C 133.23 107 131.5 108.73 131.5 110.861 L 131.5 187 L 121.5 187 L 121.5 187 L 121.5 192.699 C 121.5 193.545 121.745 194.334 122.168 195 L 108.5 195 L 107.5 195 L 107.5 197 L 108.5 197 L 125.801 197 L 126.5 197 L 127.5 197 L 127.5 197 L 263.199 197 C 263.3 197 263.401 196.997 263.5 196.99 L 263.5 196.99 L 263.5 196.99 L 263.5 196.99 L 263.5 196.99 L 263.5 197 L 264.5 197 L 318.5 197 L 319.5 197 L 319.5 195 L 318.5 195 L 266.833 195 C 267.255 194.334 267.5 193.545 267.5 192.699 L 267.5 187 L 259.5 187 L 259.5 187 L 259.5 172.574 L 259.5 172.574 L 259.5 172.574 L 259.5 172.574 L 259.5 172.574 C 258.189 172.914 256.855 173.195 255.5 173.416 L 255.5 187 L 255.5 187 L 251.5 187 L 251.5 187 L 251.5 173.884 C 250.837 173.932 250.171 173.965 249.5 173.983 L 249.5 187 L 249.5 187 L 233.5 187 L 233.5 171.504 C 232.826 171.268 232.159 171.016 231.5 170.749 L 231.5 187 L 231.5 187 L 159.5 187 L 159.5 125 L 159.5 125 L 159.5 125 L 159.5 125 L 159.5 125 L 159.5 125 L 159.5 125 L 159.5 125 L 159.5 125 L 159.5 125 L 159.5 125 L 159.5 125 L 159.5 125 L 159.5 125 L 159.5 125 L 159.5 125 L 159.5 125 L 159.5 125 L 159.5 125 L 159.5 125 L 159.5 125 L 159.5 125 L 159.5 125 L 159.5 125 L 159.5 125 L 159.5 125 L 159.5 125 L 159.5 125 L 159.5 125 L 159.5 125 L 159.5 125 L 159.5 125 L 159.5 125 L 159.5 125 L 159.5 125 L 159.5 125 L 159.5 125 L 159.5 125 L 159.5 125 L 159.5 125 L 159.5 125 L 159.5 125 L 231.5 125 L 231.5 162.859 C 227.889 161.545 224.57 159.637 221.65 157.267 L 228.754 150.197 L 221.5 148.263 L 221.5 148.263 L 221.5 148.263 L 221.5 148.263 Z  M 228.865 79.521 C 229.44 80.098 229.728 80.869 229.728 81.836 C 229.728 82.81 229.475 83.582 228.969 84.153 C 228.415 84.787 227.394 85.104 225.907 85.104 L 223.614 85.104 L 223.614 78.657 L 225.924 78.657 C 227.31 78.657 228.29 78.945 228.865 79.521 L 228.865 79.521 Z  M 223.614 89.761 L 227.581 89.761 C 228.783 89.761 229.853 89.628 230.792 89.36 L 231.818 86.212 L 234.685 77.413 C 234.467 77.068 234.217 76.742 233.937 76.435 C 232.465 74.812 230.31 74 227.474 74 L 217.5 74 L 217.5 98 L 223.614 98 L 223.614 89.761 L 223.614 89.761 Z " fill-rule="evenodd" fill="rgb(255,255,255)"/></g></svg>