<?xml version="1.0" encoding="UTF-8" standalone="no"?><!-- Generator: Gravit.io --><svg xmlns="http://www.w3.org/2000/svg" xmlns:xlink="http://www.w3.org/1999/xlink" style="isolation:isolate" viewBox="762 428 24 24" width="24px" height="24px"><g><g><g opacity="0"><rect x="762" y="428" width="24" height="24" transform="matrix(1,0,0,1,0,0)" fill="rgb(37,86,132)"/></g></g><path d=" M 781.51 438.13 C 781.75 438 782.02 437.97 782.27 438.04 C 782.53 438.11 782.75 438.28 782.87 438.51 C 783 438.75 783.03 439.02 782.96 439.27 C 782.89 439.53 782.72 439.75 782.49 439.87 L 773 445.14 L 763.51 439.87 C 763.28 439.75 763.11 439.53 763.04 439.27 C 762.97 439.02 763 438.75 763.13 438.51 C 763.25 438.28 763.47 438.11 763.73 438.04 C 763.98 437.97 764.25 438 764.49 438.13 L 773 442.86 L 781.51 438.13 Z  M 781.008 448 L 778.008 448 L 781.508 443 L 785.008 448 L 782.008 448 L 782.008 450 L 781.008 450 L 781.008 448 Z " fill-rule="evenodd" fill="rgb(215,215,215)"/><path d=" M 763 435.5 L 773 441 L 783 435.5 L 773 430 L 763 435.5 Z  M 776.112 447.412 L 773 449.14 L 763.51 443.87 C 763.28 443.75 763.11 443.53 763.04 443.27 C 762.97 443.02 763 442.75 763.13 442.51 C 763.25 442.28 763.47 442.11 763.73 442.04 C 763.98 441.97 764.25 442 764.49 442.13 L 773 446.86 L 778.726 443.678 L 776.112 447.412 Z " fill-rule="evenodd" fill="rgb(161,161,161)"/></g></svg>