<?xml version="1.0" encoding="UTF-8" standalone="no"?><!-- Generator: Gravit.io --><svg xmlns="http://www.w3.org/2000/svg" xmlns:xlink="http://www.w3.org/1999/xlink" style="isolation:isolate" viewBox="794 635 24 24" width="24px" height="24px"><g><g><g opacity="0"><rect x="794" y="635" width="24" height="24" transform="matrix(1,0,0,1,0,0)" fill="rgb(37,86,132)"/></g></g><path d=" M 818 647 C 818 653.623 812.623 659 806 659 C 799.377 659 794 653.623 794 647 C 794 640.377 799.377 635 806 635 C 812.623 635 818 640.377 818 647 Z  M 816 647 C 816 649.65 814.95 652.2 813.07 654.07 C 811.2 655.95 808.65 657 806 657 C 803.35 657 800.8 655.95 798.93 654.07 C 797.05 652.2 796 649.65 796 647 C 796 644.35 797.05 641.8 798.93 639.93 C 800.8 638.05 803.35 637 806 637 C 808.65 637 811.2 638.05 813.07 639.93 C 814.95 641.8 816 644.35 816 647 Z " fill-rule="evenodd" fill="rgb(161,161,161)"/><path d=" M 807.246 649.016 L 807.246 649.016 L 804.277 649.016 L 804.277 648.719 L 804.277 648.719 Q 804.277 647.961 804.449 647.488 L 804.449 647.488 L 804.449 647.488 Q 804.621 647.016 804.961 646.625 L 804.961 646.625 L 804.961 646.625 Q 805.301 646.234 806.488 645.25 L 806.488 645.25 L 806.488 645.25 Q 807.121 644.734 807.121 644.305 L 807.121 644.305 L 807.121 644.305 Q 807.121 643.875 806.867 643.637 L 806.867 643.637 L 806.867 643.637 Q 806.613 643.398 806.098 643.398 L 806.098 643.398 L 806.098 643.398 Q 805.543 643.398 805.18 643.766 L 805.18 643.766 L 805.18 643.766 Q 804.816 644.133 804.715 645.047 L 804.715 645.047 L 801.684 644.672 L 801.684 644.672 Q 801.84 643 802.898 641.98 L 802.898 641.98 L 802.898 641.98 Q 803.957 640.961 806.145 640.961 L 806.145 640.961 L 806.145 640.961 Q 807.848 640.961 808.895 641.672 L 808.895 641.672 L 808.895 641.672 Q 810.316 642.633 810.316 644.234 L 810.316 644.234 L 810.316 644.234 Q 810.316 644.898 809.949 645.516 L 809.949 645.516 L 809.949 645.516 Q 809.582 646.133 808.449 647.023 L 808.449 647.023 L 808.449 647.023 Q 807.66 647.648 807.453 648.027 L 807.453 648.027 L 807.453 648.027 Q 807.246 648.406 807.246 649.016 Z  M 804.176 652.609 L 804.176 649.805 L 807.355 649.805 L 807.355 652.609 L 804.176 652.609 Z " fill="rgb(215,215,215)"/></g></svg>