<?xml version="1.0" encoding="UTF-8" standalone="no"?><!-- Generator: Gravit.io --><svg xmlns="http://www.w3.org/2000/svg" xmlns:xlink="http://www.w3.org/1999/xlink" style="isolation:isolate" viewBox="524 247 24 24" width="24px" height="24px"><g><g><g opacity="0"><rect x="524" y="247" width="24px" height="24px" transform="matrix(1,0,0,1,0,0)" fill="rgb(37,86,132)"/></g></g><path d=" M 541 252 C 541 251.2 540.68 250.44 540.12 249.88 C 539.56 249.32 538.8 249 538 249 L 530 249 L 530 249 C 529.2 249 528.44 249.32 527.88 249.88 C 527.32 250.44 527 251.2 527 252 L 527 262 C 527 262.8 527.32 263.56 527.88 264.12 C 528.44 264.68 529.2 265 530 265 L 530 263 C 529.73 263 529.48 262.89 529.29 262.71 C 529.11 262.52 529 262.27 529 262 L 529 252 C 529 251.73 529.11 251.48 529.29 251.29 C 529.48 251.11 529.73 251 530 251 L 530 251 L 538 251 C 538.27 251 538.52 251.11 538.71 251.29 C 538.89 251.48 539 251.73 539 252 L 541 252 Z " fill="rgb(161,161,161)"/><path d=" M 535 254 L 543 254 C 543.8 254 544.56 254.32 545.12 254.88 C 545.68 255.44 546 256.2 546 257 L 546 267 C 546 267.8 545.68 268.56 545.12 269.12 C 544.56 269.68 543.8 270 543 270 L 535 270 C 534.2 270 533.44 269.68 532.88 269.12 C 532.32 268.56 532 267.8 532 267 L 532 257 C 532 256.2 532.32 255.44 532.88 254.88 C 533.44 254.32 534.2 254 535 254 Z  M 535 256 L 543 256 C 543.27 256 543.52 256.11 543.71 256.29 C 543.89 256.48 544 256.73 544 257 L 544 267 C 544 267.27 543.89 267.52 543.71 267.71 C 543.52 267.89 543.27 268 543 268 L 535 268 C 534.73 268 534.48 267.89 534.29 267.71 C 534.11 267.52 534 267.27 534 267 L 534 257 C 534 256.73 534.11 256.48 534.29 256.29 C 534.48 256.11 534.73 256 535 256 Z " fill-rule="evenodd" fill="rgb(215,215,215)"/></g></svg>