<?xml version="1.0" encoding="UTF-8" standalone="no"?><!-- Generator: Gravit.io --><svg xmlns="http://www.w3.org/2000/svg" xmlns:xlink="http://www.w3.org/1999/xlink" style="isolation:isolate" viewBox="636 247 24 24" width="24px" height="24px"><g><g><g opacity="0"><rect x="636" y="247" width="24" height="24" transform="matrix(1,0,0,1,0,0)" fill="rgb(37,86,132)"/></g></g><path d=" M 645.433 256 L 645.567 256 C 645.806 256 646 256.194 646 256.433 L 646 263.567 C 646 263.806 645.806 264 645.567 264 L 645.433 264 C 645.194 264 645 263.806 645 263.567 L 645 256.433 C 645 256.194 645.194 256 645.433 256 L 645.433 256 L 645.433 256 Z  M 647.433 256 L 647.567 256 C 647.806 256 648 256.194 648 256.433 L 648 263.567 C 648 263.806 647.806 264 647.567 264 L 647.433 264 C 647.194 264 647 263.806 647 263.567 L 647 256.433 C 647 256.194 647.194 256 647.433 256 L 647.433 256 L 647.433 256 Z  M 649.433 256 L 649.567 256 C 649.806 256 650 256.194 650 256.433 L 650 263.567 C 650 263.806 649.806 264 649.567 264 L 649.433 264 C 649.194 264 649 263.806 649 263.567 L 649 256.433 C 649 256.194 649.194 256 649.433 256 L 649.433 256 Z  M 651 252 L 644 252 L 644 251.87 C 644 251.64 644.09 251.42 644.26 251.26 C 644.42 251.09 644.64 251 644.87 251 L 650.13 251 C 650.36 251 650.58 251.09 650.74 251.26 C 650.91 251.42 651 251.64 651 251.87 L 651 252 L 651 252 Z  M 652 254 L 653 254 L 653 266 L 642 266 L 642 254 L 642 254 L 642 254 L 643 254 L 643 254 L 643 254 L 652 254 L 652 254 L 652 254 L 652 254 Z  M 653 252 L 655 252 L 655 252 L 656 252 C 656.27 252 656.52 252.11 656.71 252.29 C 656.89 252.48 657 252.73 657 253 C 657 253.27 656.89 253.52 656.71 253.71 C 656.52 253.89 656.27 254 656 254 L 655 254 L 655 266 C 655 267.104 654.104 268 653 268 L 642 268 C 640.896 268 640 267.104 640 266 L 640 254 L 639 254 C 638.73 254 638.48 253.89 638.29 253.71 C 638.11 253.52 638 253.27 638 253 C 638 252.73 638.11 252.48 638.29 252.29 C 638.48 252.11 638.73 252 639 252 L 640 252 L 640 252 L 640 252 L 642 252 L 642 251.87 C 642 251.11 642.3 250.38 642.84 249.84 C 643.38 249.3 644.11 249 644.87 249 L 650.13 249 C 650.89 249 651.62 249.3 652.16 249.84 C 652.7 250.38 653 251.11 653 251.87 L 653 252 L 653 252 Z " fill-rule="evenodd" fill="rgb(161,161,161)"/></g></svg>