<?xml version="1.0" encoding="UTF-8" standalone="no"?><!-- Generator: Gravit.io --><svg xmlns="http://www.w3.org/2000/svg" xmlns:xlink="http://www.w3.org/1999/xlink" style="isolation:isolate" viewBox="862 635 24 24" width="24px" height="24px"><g><g><g opacity="0"><rect x="862" y="635" width="24" height="24" transform="matrix(1,0,0,1,0,0)" fill="rgb(37,86,132)"/></g></g><path d=" M 873.702 639.702 L 873.702 639.702 C 873.314 639.314 872.683 639.317 872.293 639.707 L 865 647 L 872.293 654.293 C 872.683 654.683 873.314 654.686 873.702 654.298 L 873.702 654.298 C 874.089 653.911 874.088 653.278 873.699 652.886 L 868.836 647.982 L 882 647.982 C 882.552 647.982 883 647.542 883 647 L 883 647 C 883 646.458 882.552 646.018 882 646.018 L 868.836 646.018 L 873.699 641.114 C 874.088 640.722 874.089 640.089 873.702 639.702 Z " fill="rgb(161,161,161)"/></g></svg>