<?xml version="1.0" encoding="UTF-8" standalone="no"?><!-- Generator: Gravit.io --><svg xmlns="http://www.w3.org/2000/svg" xmlns:xlink="http://www.w3.org/1999/xlink" style="isolation:isolate" viewBox="908 634 24 24" width="24px" height="24px"><g><g><g opacity="0"><rect x="908" y="634" width="24" height="24" transform="matrix(1,0,0,1,0,0)" fill="rgb(37,86,132)"/></g></g><path d=" M 920.298 638.702 L 920.298 638.702 C 920.686 638.314 921.317 638.317 921.707 638.707 L 929 646 L 921.707 653.293 C 921.317 653.683 920.686 653.686 920.298 653.298 L 920.298 653.298 C 919.911 652.911 919.912 652.278 920.301 651.886 L 925.164 646.982 L 912 646.982 C 911.448 646.982 911 646.542 911 646 L 911 646 C 911 645.458 911.448 645.018 912 645.018 L 925.164 645.018 L 920.301 640.114 C 919.912 639.722 919.911 639.089 920.298 638.702 Z " fill="rgb(161,161,161)"/></g></svg>