<?xml version="1.0" encoding="UTF-8" standalone="no"?><!-- Generator: Gravit.io --><svg xmlns="http://www.w3.org/2000/svg" xmlns:xlink="http://www.w3.org/1999/xlink" style="isolation:isolate" viewBox="636 293 24 24" width="24px" height="24px"><g><g><g opacity="0"><rect x="636" y="293" width="24px" height="24px" transform="matrix(1,0,0,1,0,0)" fill="rgb(37,86,132)"/></g></g><path d=" M 650 301.521 L 650 299 C 650 298.448 649.552 298 649 298 L 642 298 C 641.448 298 641 298.448 641 299 L 641 306 C 641 306.552 641.448 307 642 307 L 644.521 307 C 644.761 304.087 647.087 301.761 650 301.521 L 650 301.521 L 650 301.521 L 650 301.521 L 650 301.521 Z  M 639.5 295 L 639.5 295 C 640.328 295 641 295.672 641 296.5 L 641 296.5 C 641 297.328 640.328 298 639.5 298 L 639.5 298 C 638.672 298 638 297.328 638 296.5 L 638 296.5 C 638 295.672 638.672 295 639.5 295 L 639.5 295 L 639.5 295 L 639.5 295 L 639.5 295 Z  M 639.5 312 L 639.5 312 C 640.328 312 641 312.672 641 313.5 L 641 313.5 C 641 314.328 640.328 315 639.5 315 L 639.5 315 C 638.672 315 638 314.328 638 313.5 L 638 313.5 C 638 312.672 638.672 312 639.5 312 L 639.5 312 L 639.5 312 L 639.5 312 Z  M 656.5 312 L 656.5 312 C 657.328 312 658 312.672 658 313.5 L 658 313.5 C 658 314.328 657.328 315 656.5 315 L 656.5 315 C 655.672 315 655 314.328 655 313.5 L 655 313.5 C 655 312.672 655.672 312 656.5 312 L 656.5 312 L 656.5 312 Z  M 656.5 295 L 656.5 295 C 657.328 295 658 295.672 658 296.5 L 658 296.5 C 658 297.328 657.328 298 656.5 298 L 656.5 298 C 655.672 298 655 297.328 655 296.5 L 655 296.5 C 655 295.672 655.672 295 656.5 295 L 656.5 295 Z  M 650.5 303 L 650.5 303 C 652.984 303 655 305.016 655 307.5 L 655 307.5 C 655 309.984 652.984 312 650.5 312 L 650.5 312 C 648.016 312 646 309.984 646 307.5 L 646 307.5 C 646 305.016 648.016 303 650.5 303 Z " fill-rule="evenodd" fill="rgb(161,161,161)"/></g></svg>