<?xml version="1.0" encoding="UTF-8" standalone="no"?><!-- Generator: Gravit.io --><svg xmlns="http://www.w3.org/2000/svg" xmlns:xlink="http://www.w3.org/1999/xlink" style="isolation:isolate" viewBox="605 133 24 24" width="24px" height="24px"><g><g><g opacity="0"><rect x="605" y="133" width="24" height="24" transform="matrix(1,0,0,1,0,0)" fill="rgb(37,86,132)"/></g></g><path d=" M 613.482 136.5 C 613.482 135.944 613.934 135.492 614.49 135.492 C 615.046 135.492 615.498 135.944 615.498 136.5 C 615.498 137.056 615.046 137.508 614.49 137.508 C 613.934 137.508 613.482 137.056 613.482 136.5 L 613.482 136.5 L 613.482 136.5 Z  M 615.15 151 L 610.05 151 C 609.77 151 609.5 150.89 609.31 150.69 C 609.11 150.49 609 150.22 609 149.95 L 609 139.05 C 609 138.78 609.11 138.51 609.31 138.31 C 609.5 138.11 609.77 138 610.05 138 L 610.05 138 L 610.99 138 L 610.99 138 L 610.99 138 L 610.99 138 L 610.99 141 L 617.99 141 L 617.99 138 L 618.94 138 C 619.22 138 619.49 138.11 619.69 138.31 C 619.89 138.51 620 138.78 620 139.05 L 620 142.427 C 620.632 142.204 621.303 142.063 622 142.016 L 622 139.05 C 622 138.24 621.68 137.47 621.1 136.89 C 620.53 136.32 619.75 136 618.94 136 L 616.94 136 C 616.708 134.859 615.699 134 614.49 134 C 613.281 134 612.272 134.859 612.04 136 L 612.04 136 L 612.04 136 L 610.05 136 L 610.05 136 L 610.05 136 C 609.24 136 608.47 136.32 607.89 136.89 C 607.32 137.47 607 138.24 607 139.05 L 607 149.95 C 607 150.76 607.32 151.53 607.89 152.11 C 608.47 152.68 609.24 153 610.05 153 L 615.866 153 C 615.538 152.38 615.294 151.708 615.15 151 L 615.15 151 Z  M 618 149.5 C 618 148.31 618.47 147.16 619.32 146.32 C 620.16 145.47 621.31 145 622.5 145 C 623.69 145 624.84 145.47 625.68 146.32 C 626.53 147.16 627 148.31 627 149.5 C 627 150.69 626.53 151.84 625.68 152.68 C 624.84 153.53 623.69 154 622.5 154 C 621.31 154 620.16 153.53 619.32 152.68 C 618.47 151.84 618 150.69 618 149.5 L 618 149.5 Z  M 617 149.5 C 617 146.464 619.464 144 622.5 144 C 625.536 144 628 146.464 628 149.5 C 628 152.536 625.536 155 622.5 155 C 619.464 155 617 152.536 617 149.5 L 617 149.5 Z " fill-rule="evenodd" fill="rgb(161,161,161)"/><path d=" M 623.109 144.028 C 622.908 144.011 622.705 144 622.5 144 C 619.464 144 617 146.464 617 149.5 C 617 150.598 617.323 151.622 617.891 152.472 C 618.092 152.489 618.295 152.5 618.5 152.5 C 621.536 152.5 624 150.036 624 147 C 624 145.902 623.677 144.878 623.109 144.028 Z " fill="rgb(215,215,215)"/></g></svg>