<?xml version="1.0" encoding="UTF-8" standalone="no"?><!-- Generator: Gravit.io --><svg xmlns="http://www.w3.org/2000/svg" xmlns:xlink="http://www.w3.org/1999/xlink" style="isolation:isolate" viewBox="908 588 24 24" width="24px" height="24px"><g><g><g opacity="0"><rect x="908" y="588" width="24" height="24" transform="matrix(1,0,0,1,0,0)" fill="rgb(37,86,132)"/></g></g><path d=" M 927.298 600.298 L 927.298 600.298 C 927.686 600.686 927.683 601.317 927.293 601.707 L 920 609 L 912.707 601.707 C 912.317 601.317 912.314 600.686 912.702 600.298 L 912.702 600.298 C 913.089 599.911 913.722 599.912 914.114 600.301 L 919.018 605.164 L 919.018 592 C 919.018 591.448 919.458 591 920 591 L 920 591 C 920.542 591 920.982 591.448 920.982 592 L 920.982 605.164 L 925.886 600.301 C 926.278 599.912 926.911 599.911 927.298 600.298 Z " fill="rgb(161,161,161)"/></g></svg>