<?xml version="1.0" encoding="UTF-8" standalone="no"?><!-- Generator: Gravit.io --><svg xmlns="http://www.w3.org/2000/svg" xmlns:xlink="http://www.w3.org/1999/xlink" style="isolation:isolate" viewBox="862 588 24 24" width="24px" height="24px"><g><g><g opacity="0"><rect x="862" y="588" width="24" height="24" transform="matrix(1,0,0,1,0,0)" fill="rgb(37,86,132)"/></g></g><path d=" M 866.702 599.702 L 866.702 599.702 C 866.314 599.314 866.317 598.683 866.707 598.293 L 874 591 L 881.293 598.293 C 881.683 598.683 881.686 599.314 881.298 599.702 L 881.298 599.702 C 880.911 600.089 880.278 600.088 879.886 599.699 L 874.982 594.836 L 874.982 608 C 874.982 608.552 874.542 609 874 609 L 874 609 C 873.458 609 873.018 608.552 873.018 608 L 873.018 594.836 L 868.114 599.699 C 867.722 600.088 867.089 600.089 866.702 599.702 Z " fill="rgb(161,161,161)"/></g></svg>