<?xml version="1.0" encoding="UTF-8" standalone="no"?><!-- Generator: Gravit.io --><svg xmlns="http://www.w3.org/2000/svg" xmlns:xlink="http://www.w3.org/1999/xlink" style="isolation:isolate" viewBox="794 589 24 24" width="24px" height="24px"><g><g><g opacity="0"><rect x="794" y="589" width="24" height="24" transform="matrix(1,0,0,1,0,0)" fill="rgb(37,86,132)"/></g></g><path d=" M 797 602 L 797 597 C 797 595.67 797.53 594.4 798.46 593.46 C 799.4 592.53 800.67 592 802 592 L 802 592 L 807 592 L 807 594 L 802 594 L 802 594 C 801.2 594 800.44 594.32 799.88 594.88 C 799.32 595.44 799 596.2 799 597 L 799 602 L 797 602 Z  M 805 610 L 810 610 C 811.33 610 812.6 609.47 813.54 608.54 C 814.47 607.6 815 606.33 815 605 L 815 600 L 815 600 L 813 600 L 813 605 C 813 605.8 812.68 606.56 812.12 607.12 C 811.56 607.68 810.8 608 810 608 L 805 608 L 805 610 L 805 610 Z " fill-rule="evenodd" fill="rgb(161,161,161)"/><path d=" M 815 593.309 L 798.309 610 L 802 610 L 802 612 L 802 612 L 795 612 L 795 605 L 797 605 L 797 608.48 L 813.48 592 L 810 592 L 810 590 L 817 590 L 817 597 L 817 597 L 817 597 L 815 597 L 815 593.309 Z " fill="rgb(215,215,215)"/></g></svg>