<?xml version="1.0" encoding="UTF-8" standalone="no"?><!-- Generator: Gravit.io --><svg xmlns="http://www.w3.org/2000/svg" xmlns:xlink="http://www.w3.org/1999/xlink" style="isolation:isolate" viewBox="762 520 24 24" width="24px" height="24px"><g><g><g opacity="0"><rect x="762" y="520" width="24" height="24" transform="matrix(1,0,0,1,0,0)" fill="rgb(37,86,132)"/></g></g><path d=" M 779 530.7 L 773 534 L 763 528.5 L 773 523 L 779 526.3 L 779 530.7 Z  M 776.471 536.213 L 773 538.14 L 763.51 532.87 C 763.28 532.75 763.11 532.53 763.04 532.27 C 762.97 532.02 763 531.75 763.13 531.51 C 763.25 531.28 763.47 531.11 763.73 531.04 C 763.98 530.97 764.25 531 764.49 531.13 L 773 535.86 L 776.288 534.032 C 775.961 534.589 776.003 535.349 776.471 536.213 L 776.471 536.213 Z  M 777.94 533.114 L 779 532.525 L 779 533.087 L 778.698 533.079 C 778.426 533.071 778.173 533.083 777.94 533.114 L 777.94 533.114 Z " fill-rule="evenodd" fill="rgb(161,161,161)"/><path d=" M 781.008 535 L 778.008 535 L 781.508 540 L 785.008 535 L 782.008 535 L 782.008 526 L 781.008 526 L 781.008 535 Z  M 778.435 539.122 L 773 542.14 L 763.51 536.87 C 763.28 536.75 763.11 536.53 763.04 536.27 C 762.97 536.02 763 535.75 763.13 535.51 C 763.25 535.28 763.47 535.11 763.73 535.04 C 763.98 534.97 764.25 535 764.49 535.13 L 773 539.86 L 777.301 537.469 L 778.435 539.122 Z " fill-rule="evenodd" fill="rgb(215,215,215)"/></g></svg>