<?xml version="1.0" encoding="UTF-8" standalone="no"?><!-- Generator: Gravit.io --><svg xmlns="http://www.w3.org/2000/svg" xmlns:xlink="http://www.w3.org/1999/xlink" style="isolation:isolate" viewBox="762 474 24 24" width="24px" height="24px"><g><g><g opacity="0"><rect x="762" y="474" width="24" height="24" transform="matrix(1,0,0,1,0,0)" fill="rgb(37,86,132)"/></g></g><path d=" M 781.51 489.13 C 781.75 489 782.02 488.97 782.27 489.04 C 782.53 489.11 782.75 489.28 782.87 489.51 C 783 489.75 783.03 490.02 782.96 490.27 C 782.89 490.53 782.72 490.75 782.49 490.87 L 773 496.14 L 763.51 490.87 C 763.28 490.75 763.11 490.53 763.04 490.27 C 762.97 490.02 763 489.75 763.13 489.51 C 763.25 489.28 763.47 489.11 763.73 489.04 C 763.98 488.97 764.25 489 764.49 489.13 L 773 493.86 L 781.51 489.13 Z  M 777.891 485.31 L 773 488 L 763 482.5 L 773 477 L 778.464 480.005 C 776.163 480.108 775.397 481.722 776.769 483.695 L 777.891 485.31 Z " fill-rule="evenodd" fill="rgb(161,161,161)"/><path d=" M 781.008 482 L 778.008 482 L 781.508 487 L 785.008 482 L 782.008 482 L 782.008 480 L 781.008 480 L 781.008 482 Z  M 779.955 488.278 L 773 492.14 L 763.51 486.87 C 763.28 486.75 763.11 486.53 763.04 486.27 C 762.97 486.02 763 485.75 763.13 485.51 C 763.25 485.28 763.47 485.11 763.73 485.04 C 763.98 484.97 764.25 485 764.49 485.13 L 773 489.86 L 778.81 486.631 L 779.955 488.278 Z " fill-rule="evenodd" fill="rgb(215,215,215)"/></g></svg>