<?xml version="1.0" encoding="UTF-8" standalone="no"?><!-- Generator: Gravit.io --><svg xmlns="http://www.w3.org/2000/svg" xmlns:xlink="http://www.w3.org/1999/xlink" style="isolation:isolate" viewBox="570 247 24 24" width="24px" height="24px"><g><g><g opacity="0"><rect x="570" y="247" width="24" height="24" transform="matrix(1,0,0,1,0,0)" fill="rgb(37,86,132)"/></g></g><path d=" M 576.99 252 L 575.05 252 L 575.05 252 C 574.77 252 574.5 252.11 574.31 252.31 C 574.11 252.51 574 252.78 574 253.05 L 574 266.95 C 574 267.22 574.11 267.49 574.31 267.69 C 574.5 267.89 574.77 268 575.05 268 L 587.94 268 C 588.22 268 588.49 267.89 588.69 267.69 C 588.89 267.49 589 267.22 589 266.95 L 589 253.05 C 589 252.78 588.89 252.51 588.69 252.31 C 588.49 252.11 588.22 252 587.94 252 L 585.99 252 L 585.99 256 L 576.99 256 L 576.99 252 L 576.99 252 L 576.99 252 Z  M 579.04 250 L 575.05 250 L 575.05 250 L 575.05 250 C 574.24 250 573.47 250.32 572.89 250.89 C 572.32 251.47 572 252.24 572 253.05 L 572 266.95 C 572 267.76 572.32 268.53 572.89 269.11 C 573.47 269.68 574.24 270 575.05 270 L 587.94 270 C 588.75 270 589.53 269.68 590.1 269.11 C 590.68 268.53 591 267.76 591 266.95 L 591 253.05 C 591 252.24 590.68 251.47 590.1 250.89 C 589.53 250.32 588.75 250 587.94 250 L 583.94 250 C 583.708 248.859 582.699 248 581.49 248 C 580.281 248 579.272 248.859 579.04 250 L 579.04 250 Z  M 580.482 250.5 C 580.482 249.944 580.934 249.492 581.49 249.492 C 582.046 249.492 582.498 249.944 582.498 250.5 C 582.498 251.056 582.046 251.508 581.49 251.508 C 580.934 251.508 580.482 251.056 580.482 250.5 Z " fill-rule="evenodd" fill="rgb(161,161,161)"/></g></svg>