<?xml version="1.0" encoding="UTF-8" standalone="no"?><!-- Generator: Gravit.io --><svg xmlns="http://www.w3.org/2000/svg" xmlns:xlink="http://www.w3.org/1999/xlink" style="isolation:isolate" viewBox="738 634 24 24" width="24px" height="24px"><g><g><g opacity="0"><rect x="738" y="634" width="24" height="24" transform="matrix(1,0,0,1,0,0)" fill="rgb(37,86,132)"/></g></g><path d=" M 757 636 L 757 635 L 758 635 L 758 636 L 757 636 L 757 636 L 757 636 L 757 636 L 757 636 L 757 636 Z  M 757 652 L 757 653 L 758 653 L 758 652 L 757 652 L 757 652 L 757 652 L 757 652 L 757 652 L 757 652 Z  M 757 641 L 757 640 L 758 640 L 758 641 L 757 641 L 757 641 L 757 641 L 757 641 Z  M 757 647 L 757 648 L 758 648 L 758 647 L 757 647 L 757 647 L 757 647 Z  M 757 639 L 757 638 L 758 638 L 758 639 L 757 639 L 757 639 Z  M 756 637 L 756 634 L 759 634 L 759 637 L 756 637 L 756 637 L 756 637 L 756 637 L 756 637 L 756 637 Z  M 756 651 L 756 654 L 759 654 L 759 651 L 756 651 L 756 651 L 756 651 L 756 651 L 756 651 L 756 651 Z  M 757 649 L 757 650 L 758 650 L 758 649 L 757 649 Z " fill-rule="evenodd" fill="rgb(161,161,161)"/><path d=" M 758.627 645.879 C 758.384 646.496 758.014 647.061 757.54 647.54 C 756.6 648.47 755.33 649 754 649 L 748 649 C 747.2 649 746.44 649.32 745.88 649.88 C 745.32 650.44 745 651.2 745 652 C 745 652.8 745.32 653.56 745.88 654.12 C 746.44 654.68 747.2 655 748 655 L 750 655 L 750.268 655 L 750.268 655 C 750.614 654.402 751.26 654 752 654 C 753.104 654 754 654.896 754 656 C 754 657.104 753.104 658 752 658 C 751.26 658 750.614 657.598 750.268 657 L 750.268 657 L 750 657 L 748 657 C 746.67 657 745.4 656.47 744.46 655.54 C 743.53 654.6 743 653.33 743 652 C 743 650.67 743.53 649.4 744.46 648.46 C 745.4 647.53 746.67 647 748 647 L 754 647 C 754.8 647 755.56 646.68 756.12 646.12 C 756.326 645.914 756.499 645.682 756.636 645.429 C 756.238 645.082 756 644.569 756 644 L 756 644 C 756 643.43 756.239 642.916 756.638 642.568 C 756.499 642.318 756.326 642.086 756.12 641.88 C 755.56 641.32 754.8 641 754 641 L 744 641 L 743.732 641 C 743.386 641.598 742.74 642 742 642 C 740.896 642 740 641.104 740 640 L 740 640 C 740 638.896 740.896 638 742 638 C 742.74 638 743.386 638.402 743.732 639 L 743.732 639 L 743.732 639 L 744 639 L 754 639 C 755.33 639 756.6 639.53 757.54 640.46 C 758.018 640.943 758.391 641.514 758.651 642.131 C 759.441 642.386 760 643.128 760 644 C 760 644.882 759.428 645.631 758.627 645.879 Z  M 741.006 639.998 C 741.006 639.737 741.106 639.485 741.298 639.294 C 741.479 639.113 741.74 639.002 742.002 639.002 C 742.263 639.002 742.515 639.113 742.706 639.294 C 742.887 639.485 742.997 639.737 742.997 639.998 C 742.997 640.26 742.887 640.521 742.706 640.702 C 742.515 640.893 742.263 640.994 742.002 640.994 C 741.74 640.994 741.479 640.893 741.298 640.702 C 741.106 640.521 741.006 640.26 741.006 639.998 L 741.006 639.998 L 741.006 639.998 L 741.006 639.998 Z  M 751.006 655.998 C 751.006 655.737 751.106 655.485 751.298 655.294 C 751.479 655.113 751.74 655.002 752.002 655.002 C 752.263 655.002 752.515 655.113 752.706 655.294 C 752.887 655.485 752.997 655.737 752.997 655.998 C 752.997 656.26 752.887 656.521 752.706 656.702 C 752.515 656.893 752.263 656.994 752.002 656.994 C 751.74 656.994 751.479 656.893 751.298 656.702 C 751.106 656.521 751.006 656.26 751.006 655.998 L 751.006 655.998 L 751.006 655.998 Z  M 757.006 643.998 C 757.006 643.737 757.106 643.485 757.298 643.294 C 757.479 643.113 757.74 643.002 758.002 643.002 C 758.263 643.002 758.515 643.113 758.706 643.294 C 758.887 643.485 758.997 643.737 758.997 643.998 C 758.997 644.26 758.887 644.521 758.706 644.702 C 758.515 644.893 758.263 644.994 758.002 644.994 C 757.74 644.994 757.479 644.893 757.298 644.702 C 757.106 644.521 757.006 644.26 757.006 643.998 L 757.006 643.998 Z " fill-rule="evenodd" fill="rgb(215,215,215)"/></g></svg>