<?xml version="1.0" encoding="UTF-8" standalone="no"?><!-- Generator: Gravit.io --><svg xmlns="http://www.w3.org/2000/svg" xmlns:xlink="http://www.w3.org/1999/xlink" style="isolation:isolate" viewBox="605 87 24 24" width="24px" height="24px"><g><g><g opacity="0"><rect x="605" y="87" width="24" height="24" transform="matrix(1,0,0,1,0,0)" fill="rgb(37,86,132)"/></g></g><path d=" M 622 98.022 C 619.363 98.26 617.26 100.363 617.022 103 L 616 103 L 616 104 L 617.022 104 C 617.26 106.637 619.363 108.74 622 108.978 L 622 110 L 623 110 L 623 108.978 C 625.637 108.74 627.74 106.637 627.978 104 L 629 104 L 629 103 L 627.978 103 C 627.74 100.363 625.637 98.26 623 98.022 L 623 97 L 622 97 L 622 98.022 Z  M 618 103.5 C 618 101.016 620.016 99 622.5 99 C 624.984 99 627 101.016 627 103.5 C 627 105.984 624.984 108 622.5 108 C 620.016 108 618 105.984 618 103.5 Z " fill-rule="evenodd" fill="rgb(215,215,215)"/><path d=" M 613.482 90.5 C 613.482 89.944 613.934 89.492 614.49 89.492 C 615.046 89.492 615.498 89.944 615.498 90.5 C 615.498 91.056 615.046 91.508 614.49 91.508 C 613.934 91.508 613.482 91.056 613.482 90.5 L 613.482 90.5 L 613.482 90.5 Z  M 615.15 105 L 610.05 105 C 609.77 105 609.5 104.89 609.31 104.69 C 609.11 104.49 609 104.22 609 103.95 L 609 93.05 C 609 92.78 609.11 92.51 609.31 92.31 C 609.5 92.11 609.77 92 610.05 92 L 610.05 92 L 610.99 92 L 610.99 92 L 610.99 92 L 610.99 92 L 610.99 95 L 617.99 95 L 617.99 92 L 618.94 92 C 619.22 92 619.49 92.11 619.69 92.31 C 619.89 92.51 620 92.78 620 93.05 L 620 96.427 C 620.632 96.204 621.303 96.063 622 96.016 L 622 93.05 C 622 92.24 621.68 91.47 621.1 90.89 C 620.53 90.32 619.75 90 618.94 90 L 616.94 90 C 616.708 88.859 615.699 88 614.49 88 C 613.281 88 612.272 88.859 612.04 90 L 612.04 90 L 612.04 90 L 610.05 90 L 610.05 90 L 610.05 90 C 609.24 90 608.47 90.32 607.89 90.89 C 607.32 91.47 607 92.24 607 93.05 L 607 103.95 C 607 104.76 607.32 105.53 607.89 106.11 C 608.47 106.68 609.24 107 610.05 107 L 615.866 107 C 615.538 106.38 615.294 105.708 615.15 105 L 615.15 105 Z  M 620 103.5 C 620 102.12 621.12 101 622.5 101 C 623.88 101 625 102.12 625 103.5 C 625 104.88 623.88 106 622.5 106 C 621.12 106 620 104.88 620 103.5 Z " fill-rule="evenodd" fill="rgb(161,161,161)"/></g></svg>