<?xml version="1.0" encoding="UTF-8" standalone="no"?><!-- Generator: Gravit.io --><svg xmlns="http://www.w3.org/2000/svg" xmlns:xlink="http://www.w3.org/1999/xlink" style="isolation:isolate" viewBox="682 248 24 24" width="24px" height="24px"><g><g><g opacity="0"><rect x="682" y="248" width="24" height="24" transform="matrix(1,0,0,1,0,0)" fill="rgb(37,86,132)"/></g></g><path d=" M 682.977 257 L 683.977 257 L 683.977 259 L 682.977 259 L 682.977 257 L 682.977 257 L 682.977 257 L 682.977 257 L 682.977 257 L 682.977 257 L 682.977 257 L 682.977 257 L 682.977 257 L 682.977 257 Z  M 703.977 257 L 704.977 257 L 704.977 259 L 703.977 259 L 703.977 257 L 703.977 257 L 703.977 257 L 703.977 257 L 703.977 257 L 703.977 257 L 703.977 257 L 703.977 257 L 703.977 257 Z  M 702.977 269.987 C 702.977 269.727 703.077 269.477 703.267 269.287 C 703.447 269.107 703.707 268.997 703.967 268.997 C 704.227 268.997 704.477 269.107 704.667 269.287 C 704.847 269.477 704.957 269.727 704.957 269.987 C 704.957 270.247 704.847 270.507 704.667 270.687 C 704.477 270.877 704.227 270.977 703.967 270.977 C 703.707 270.977 703.447 270.877 703.267 270.687 C 703.077 270.507 702.977 270.247 702.977 269.987 L 702.977 269.987 L 702.977 269.987 L 702.977 269.987 L 702.977 269.987 L 702.977 269.987 L 702.977 269.987 L 702.977 269.987 L 702.977 269.987 L 702.977 269.987 L 702.977 269.987 L 702.977 269.987 L 702.977 269.987 L 702.977 269.987 L 702.977 269.987 L 702.977 269.987 L 702.977 269.987 L 702.977 269.987 L 702.977 269.987 L 702.977 269.987 L 702.977 269.987 L 702.977 269.987 Z  M 702.977 249.987 C 702.977 249.727 703.077 249.477 703.267 249.287 C 703.447 249.107 703.707 248.997 703.967 248.997 C 704.227 248.997 704.477 249.107 704.667 249.287 C 704.847 249.477 704.957 249.727 704.957 249.987 C 704.957 250.247 704.847 250.507 704.667 250.687 C 704.477 250.877 704.227 250.977 703.967 250.977 C 703.707 250.977 703.447 250.877 703.267 250.687 C 703.077 250.507 702.977 250.247 702.977 249.987 L 702.977 249.987 L 702.977 249.987 L 702.977 249.987 L 702.977 249.987 L 702.977 249.987 L 702.977 249.987 L 702.977 249.987 L 702.977 249.987 L 702.977 249.987 L 702.977 249.987 L 702.977 249.987 L 702.977 249.987 L 702.977 249.987 L 702.977 249.987 L 702.977 249.987 L 702.977 249.987 L 702.977 249.987 L 702.977 249.987 L 702.977 249.987 L 702.977 249.987 Z  M 686.977 249 L 688.977 249 L 688.977 250 L 686.977 250 L 686.977 249 L 686.977 249 L 686.977 249 L 686.977 249 L 686.977 249 L 686.977 249 L 686.977 249 L 686.977 249 L 686.977 249 L 686.977 249 L 686.977 249 L 686.977 249 L 686.977 249 L 686.977 249 L 686.977 249 L 686.977 249 L 686.977 249 L 686.977 249 L 686.977 249 Z  M 683 269.987 C 683 269.727 683.1 269.477 683.29 269.287 C 683.47 269.107 683.73 268.997 683.99 268.997 C 684.25 268.997 684.5 269.107 684.69 269.287 C 684.87 269.477 684.98 269.727 684.98 269.987 C 684.98 270.247 684.87 270.507 684.69 270.687 C 684.5 270.877 684.25 270.977 683.99 270.977 C 683.73 270.977 683.47 270.877 683.29 270.687 C 683.1 270.507 683 270.247 683 269.987 L 683 269.987 L 683 269.987 L 683 269.987 L 683 269.987 L 683 269.987 L 683 269.987 L 683 269.987 L 683 269.987 L 683 269.987 L 683 269.987 L 683 269.987 L 683 269.987 L 683 269.987 L 683 269.987 L 683 269.987 L 683 269.987 L 683 269.987 L 683 269.987 L 683 269.987 L 683 269.987 L 683 269.987 L 683 269.987 Z  M 690.977 249 L 692.977 249 L 692.977 250 L 690.977 250 L 690.977 249 L 690.977 249 L 690.977 249 L 690.977 249 L 690.977 249 L 690.977 249 L 690.977 249 L 690.977 249 L 690.977 249 L 690.977 249 L 690.977 249 L 690.977 249 L 690.977 249 L 690.977 249 L 690.977 249 L 690.977 249 L 690.977 249 L 690.977 249 Z  M 694.977 249 L 696.977 249 L 696.977 250 L 694.977 250 L 694.977 249 L 694.977 249 L 694.977 249 L 694.977 249 L 694.977 249 L 694.977 249 L 694.977 249 L 694.977 249 L 694.977 249 L 694.977 249 L 694.977 249 L 694.977 249 L 694.977 249 L 694.977 249 L 694.977 249 L 694.977 249 L 694.977 249 Z  M 683 249.987 C 683 249.727 683.1 249.477 683.29 249.287 C 683.47 249.107 683.73 248.997 683.99 248.997 C 684.25 248.997 684.5 249.107 684.69 249.287 C 684.87 249.477 684.98 249.727 684.98 249.987 C 684.98 250.247 684.87 250.507 684.69 250.687 C 684.5 250.877 684.25 250.977 683.99 250.977 C 683.73 250.977 683.47 250.877 683.29 250.687 C 683.1 250.507 683 250.247 683 249.987 L 683 249.987 L 683 249.987 L 683 249.987 L 683 249.987 L 683 249.987 L 683 249.987 L 683 249.987 L 683 249.987 L 683 249.987 L 683 249.987 L 683 249.987 L 683 249.987 L 683 249.987 L 683 249.987 L 683 249.987 L 683 249.987 L 683 249.987 L 683 249.987 L 683 249.987 L 683 249.987 L 683 249.987 L 683 249.987 Z  M 698.977 249 L 700.977 249 L 700.977 250 L 698.977 250 L 698.977 249 L 698.977 249 L 698.977 249 L 698.977 249 L 698.977 249 L 698.977 249 L 698.977 249 L 698.977 249 L 698.977 249 L 698.977 249 L 698.977 249 L 698.977 249 L 698.977 249 L 698.977 249 L 698.977 249 L 698.977 249 Z  M 686.98 262 L 691.98 262 L 691.98 267 L 686.98 267 L 686.98 262 L 686.98 262 L 686.98 262 L 686.98 262 L 686.98 262 L 686.98 262 L 686.98 262 L 686.98 262 L 686.98 262 L 686.98 262 L 686.98 262 L 686.98 262 L 686.98 262 L 686.98 262 L 686.98 262 Z  M 682.977 253 L 683.977 253 L 683.977 255 L 682.977 255 L 682.977 253 L 682.977 253 L 682.977 253 L 682.977 253 L 682.977 253 L 682.977 253 L 682.977 253 L 682.977 253 L 682.977 253 L 682.977 253 L 682.977 253 L 682.977 253 L 682.977 253 L 682.977 253 L 682.977 253 Z  M 695.98 253 L 700.98 253 L 700.98 258 L 695.98 258 L 695.98 253 L 695.98 253 L 695.98 253 L 695.98 253 L 695.98 253 L 695.98 253 L 695.98 253 L 695.98 253 L 695.98 253 L 695.98 253 L 695.98 253 L 695.98 253 L 695.98 253 L 695.98 253 Z  M 695.98 262 L 700.98 262 L 700.98 267 L 695.98 267 L 695.98 262 L 695.98 262 L 695.98 262 L 695.98 262 L 695.98 262 L 695.98 262 L 695.98 262 L 695.98 262 L 695.98 262 L 695.98 262 L 695.98 262 L 695.98 262 L 695.98 262 Z  M 703.977 253 L 704.977 253 L 704.977 255 L 703.977 255 L 703.977 253 L 703.977 253 L 703.977 253 L 703.977 253 L 703.977 253 L 703.977 253 L 703.977 253 L 703.977 253 L 703.977 253 L 703.977 253 L 703.977 253 Z  M 682.977 261 L 683.977 261 L 683.977 263 L 682.977 263 L 682.977 261 L 682.977 261 L 682.977 261 L 682.977 261 L 682.977 261 L 682.977 261 L 682.977 261 L 682.977 261 Z  M 703.977 261 L 704.977 261 L 704.977 263 L 703.977 263 L 703.977 261 L 703.977 261 L 703.977 261 L 703.977 261 L 703.977 261 L 703.977 261 L 703.977 261 Z  M 682.977 265 L 683.977 265 L 683.977 267 L 682.977 267 L 682.977 265 L 682.977 265 L 682.977 265 L 682.977 265 L 682.977 265 L 682.977 265 Z  M 703.977 265 L 704.977 265 L 704.977 267 L 703.977 267 L 703.977 265 L 703.977 265 L 703.977 265 L 703.977 265 L 703.977 265 Z  M 686.977 270 L 688.977 270 L 688.977 271 L 686.977 271 L 686.977 270 L 686.977 270 L 686.977 270 L 686.977 270 Z  M 690.977 270 L 692.977 270 L 692.977 271 L 690.977 271 L 690.977 270 L 690.977 270 L 690.977 270 Z  M 694.977 270 L 696.977 270 L 696.977 271 L 694.977 271 L 694.977 270 L 694.977 270 Z  M 701.977 249.988 C 701.977 248.891 702.868 248 703.965 248 C 705.063 248 705.954 248.891 705.954 249.988 C 705.954 251.086 705.063 251.977 703.965 251.977 C 702.868 251.977 701.977 251.086 701.977 249.988 L 701.977 249.988 L 701.977 249.988 L 701.977 249.988 L 701.977 249.988 L 701.977 249.988 L 701.977 249.988 L 701.977 249.988 L 701.977 249.988 L 701.977 249.988 L 701.977 249.988 L 701.977 249.988 L 701.977 249.988 L 701.977 249.988 L 701.977 249.988 L 701.977 249.988 L 701.977 249.988 L 701.977 249.988 L 701.977 249.988 L 701.977 249.988 L 701.977 249.988 Z  M 682 249.988 C 682 248.891 682.891 248 683.988 248 C 685.086 248 685.977 248.891 685.977 249.988 C 685.977 251.086 685.086 251.977 683.988 251.977 C 682.891 251.977 682 251.086 682 249.988 L 682 249.988 L 682 249.988 L 682 249.988 L 682 249.988 L 682 249.988 L 682 249.988 L 682 249.988 L 682 249.988 L 682 249.988 L 682 249.988 L 682 249.988 L 682 249.988 L 682 249.988 L 682 249.988 L 682 249.988 L 682 249.988 L 682 249.988 L 682 249.988 L 682 249.988 L 682 249.988 L 682 249.988 L 682 249.988 Z  M 685.977 261 L 692.977 261 L 692.977 268 L 685.977 268 L 685.977 261 L 685.977 261 L 685.977 261 L 685.977 261 L 685.977 261 L 685.977 261 L 685.977 261 L 685.977 261 L 685.977 261 L 685.977 261 L 685.977 261 L 685.977 261 L 685.977 261 L 685.977 261 L 685.977 261 Z  M 682 269.988 C 682 268.891 682.891 268 683.988 268 C 685.086 268 685.977 268.891 685.977 269.988 C 685.977 271.086 685.086 271.977 683.988 271.977 C 682.891 271.977 682 271.086 682 269.988 L 682 269.988 L 682 269.988 L 682 269.988 L 682 269.988 L 682 269.988 L 682 269.988 L 682 269.988 L 682 269.988 L 682 269.988 L 682 269.988 L 682 269.988 L 682 269.988 L 682 269.988 L 682 269.988 L 682 269.988 L 682 269.988 L 682 269.988 L 682 269.988 L 682 269.988 L 682 269.988 L 682 269.988 L 682 269.988 Z  M 694.977 252 L 701.977 252 L 701.977 259 L 694.977 259 L 694.977 252 L 694.977 252 L 694.977 252 L 694.977 252 L 694.977 252 L 694.977 252 L 694.977 252 L 694.977 252 L 694.977 252 L 694.977 252 L 694.977 252 L 694.977 252 L 694.977 252 L 694.977 252 Z  M 701.977 269.988 C 701.977 268.891 702.868 268 703.965 268 C 705.063 268 705.954 268.891 705.954 269.988 C 705.954 271.086 705.063 271.977 703.965 271.977 C 702.868 271.977 701.977 271.086 701.977 269.988 L 701.977 269.988 L 701.977 269.988 L 701.977 269.988 L 701.977 269.988 L 701.977 269.988 L 701.977 269.988 L 701.977 269.988 L 701.977 269.988 L 701.977 269.988 L 701.977 269.988 L 701.977 269.988 L 701.977 269.988 L 701.977 269.988 L 701.977 269.988 L 701.977 269.988 L 701.977 269.988 L 701.977 269.988 L 701.977 269.988 L 701.977 269.988 L 701.977 269.988 L 701.977 269.988 Z  M 694.977 261 L 701.977 261 L 701.977 268 L 694.977 268 L 694.977 261 L 694.977 261 L 694.977 261 L 694.977 261 L 694.977 261 L 694.977 261 L 694.977 261 L 694.977 261 L 694.977 261 L 694.977 261 L 694.977 261 L 694.977 261 L 694.977 261 Z  M 698.977 270 L 700.977 270 L 700.977 271 L 698.977 271 L 698.977 270 Z " fill-rule="evenodd" fill="rgb(161,161,161)"/><path d=" M 685.977 252 L 692.977 252 L 692.977 259 L 685.977 259 L 685.977 252 L 685.977 252 Z  M 685.977 261 L 692.977 261 L 685.977 268 L 685.977 261 L 685.977 261 Z  M 694.977 252 L 701.977 252 L 694.977 259 L 694.977 252 Z " fill-rule="evenodd" fill="rgb(215,215,215)"/></g></svg>