<?xml version="1.0" encoding="UTF-8" standalone="no"?><!-- Generator: Gravit.io --><svg xmlns="http://www.w3.org/2000/svg" xmlns:xlink="http://www.w3.org/1999/xlink" style="isolation:isolate" viewBox="605 179 24 24" width="24px" height="24px"><g><g><g opacity="0"><rect x="605" y="179" width="24" height="24" transform="matrix(1,0,0,1,0,0)" fill="rgb(37,86,132)"/></g></g><path d=" M 621.271 191.415 L 625.867 196.011 L 622.685 199.193 C 622.219 199.66 621.582 199.928 620.917 199.928 C 620.253 199.928 619.616 199.66 619.15 199.193 L 617.735 197.779 C 617.269 197.312 617 196.676 617 196.011 C 617 195.346 617.269 194.71 617.735 194.243 L 620.211 191.768 L 620.211 191.768 L 619.15 190.707 L 619.857 190 L 621.272 191.414 L 621.271 191.415 Z  M 620.917 192.476 L 624.453 196.011 L 618.004 196.011 C 618.004 195.586 618.132 195.331 618.443 194.95 L 620.917 192.476 L 620.917 192.476 Z " fill-rule="evenodd" fill="rgb(215,215,215)"/><path d=" M 613.482 182.5 C 613.482 181.944 613.934 181.492 614.49 181.492 C 615.046 181.492 615.498 181.944 615.498 182.5 C 615.498 183.056 615.046 183.508 614.49 183.508 C 613.934 183.508 613.482 183.056 613.482 182.5 L 613.482 182.5 L 613.482 182.5 Z  M 615.15 197 L 610.05 197 C 609.77 197 609.5 196.89 609.31 196.69 C 609.11 196.49 609 196.22 609 195.95 L 609 185.05 C 609 184.78 609.11 184.51 609.31 184.31 C 609.5 184.11 609.77 184 610.05 184 L 610.05 184 L 610.99 184 L 610.99 184 L 610.99 184 L 610.99 184 L 610.99 187 L 617.99 187 L 617.99 184 L 618.94 184 C 619.22 184 619.49 184.11 619.69 184.31 C 619.89 184.51 620 184.78 620 185.05 L 620 188.427 C 620.632 188.204 621.303 188.063 622 188.016 L 622 185.05 C 622 184.24 621.68 183.47 621.1 182.89 C 620.53 182.32 619.75 182 618.94 182 L 616.94 182 C 616.708 180.859 615.699 180 614.49 180 C 613.281 180 612.272 180.859 612.04 182 L 612.04 182 L 612.04 182 L 610.05 182 L 610.05 182 L 610.05 182 C 609.24 182 608.47 182.32 607.89 182.89 C 607.32 183.47 607 184.24 607 185.05 L 607 195.95 C 607 196.76 607.32 197.53 607.89 198.11 C 608.47 198.68 609.24 199 610.05 199 L 615.866 199 C 615.538 198.38 615.294 197.708 615.15 197 L 615.15 197 Z  M 625.965 197 L 626.702 198.474 C 627.031 199.132 626.999 199.965 626.631 200.333 L 626.631 200.333 C 626.263 200.701 625.666 200.701 625.298 200.333 L 625.298 200.333 C 624.93 199.965 624.898 199.132 625.228 198.474 L 625.965 197 Z " fill-rule="evenodd" fill="rgb(161,161,161)"/></g></svg>