<?xml version="1.0" encoding="UTF-8" standalone="no"?><!-- Generator: Gravit.io --><svg xmlns="http://www.w3.org/2000/svg" xmlns:xlink="http://www.w3.org/1999/xlink" style="isolation:isolate" viewBox="1545 1189 24 24" width="24" height="24"><g id="add"><g opacity="0"><rect x="1545" y="1189" width="24" height="24" transform="matrix(1,0,0,1,0,0)" id="Icon Background" fill="rgb(37,86,132)"/></g><path d=" M 1568 1201 C 1568 1203.92 1566.84 1206.72 1564.78 1208.78 C 1562.72 1210.84 1559.92 1212 1557 1212 C 1554.08 1212 1551.28 1210.84 1549.22 1208.78 C 1547.16 1206.72 1546 1203.92 1546 1201 C 1546 1198.08 1547.16 1195.28 1549.22 1193.22 C 1551.28 1191.16 1554.08 1190 1557 1190 C 1559.92 1190 1562.72 1191.16 1564.78 1193.22 C 1566.84 1195.28 1568 1198.08 1568 1201 Z  M 1566 1201 C 1566 1203.39 1565.05 1205.68 1563.36 1207.36 C 1561.68 1209.05 1559.39 1210 1557 1210 C 1554.61 1210 1552.32 1209.05 1550.64 1207.36 C 1548.95 1205.68 1548 1203.39 1548 1201 C 1548 1198.61 1548.95 1196.32 1550.64 1194.64 C 1552.32 1192.95 1554.61 1192 1557 1192 C 1559.39 1192 1561.68 1192.95 1563.36 1194.64 C 1565.05 1196.32 1566 1198.61 1566 1201 Z " fill-rule="evenodd" id="Fill-B" fill="rgb(161,161,161)"/><path d=" M 1558 1202 L 1562 1202 L 1562 1200 L 1558 1200 L 1558 1196 L 1556 1196 L 1556 1200 L 1552 1200 L 1552 1202 L 1556 1202 L 1556 1206 L 1558 1206 L 1558 1202 Z " id="Fill-A" fill="rgb(215,215,215)"/></g></svg>