<?xml version="1.0" encoding="UTF-8" standalone="no"?><!-- Generator: Gravit.io --><svg xmlns="http://www.w3.org/2000/svg" xmlns:xlink="http://www.w3.org/1999/xlink" style="isolation:isolate" viewBox="1150 1453 24 24" width="24" height="24"><g id="align-center-text"><g opacity="0"><rect x="1150" y="1453" width="24" height="24" transform="matrix(1,0,0,1,0,0)" id="Icon Background" fill="rgb(37,86,132)"/></g><path d=" M 1154 1458.004 L 1170 1458.004 L 1170 1460.004 L 1154 1460.004 L 1154 1458.004 L 1154 1458.004 L 1154 1458.004 Z  M 1156 1461.996 L 1168 1461.996 L 1168 1463.996 L 1156 1463.996 L 1156 1461.996 L 1156 1461.996 L 1156 1461.996 Z  M 1154 1465.988 L 1170 1465.988 L 1170 1467.988 L 1154 1467.988 L 1154 1465.988 L 1154 1465.988 Z  M 1156 1469.979 L 1168 1469.979 L 1168 1471.979 L 1156 1471.979 L 1156 1469.979 Z " fill-rule="evenodd" id="Fill-B" fill="rgb(161,161,161)"/></g></svg>