<?xml version="1.0" encoding="UTF-8" standalone="no"?><!-- Generator: Gravit.io --><svg xmlns="http://www.w3.org/2000/svg" xmlns:xlink="http://www.w3.org/1999/xlink" style="isolation:isolate" viewBox="1150 265 24 24" width="24" height="24"><g id="align-left"><g opacity="0"><rect x="1150" y="265" width="24" height="24" transform="matrix(1,0,0,1,0,0)" id="Icon Background" fill="rgb(37,86,132)"/></g><path d=" M 1156 270 L 1167 270 L 1167 275 L 1156 275 L 1156 270 Z " id="Fill-A" fill="rgb(215,215,215)"/><path d=" M 1158 280 L 1170 280 L 1170 282 L 1158 282 L 1158 280 L 1158 280 Z  M 1156 278 L 1172 278 L 1172 284 L 1156 284 L 1156 278 L 1156 278 Z  M 1153 280 L 1153 279 L 1153 279 L 1154 279 L 1154 280 L 1153 280 L 1153 280 L 1153 280 L 1153 280 L 1153 280 L 1153 280 Z  M 1153 288 L 1153 287 L 1153 287 L 1154 287 L 1154 288 L 1153 288 L 1153 288 Z  M 1153 286 L 1153 285 L 1153 285 L 1154 285 L 1154 286 L 1153 286 L 1153 286 L 1153 286 Z  M 1153 276 L 1153 275 L 1153 275 L 1154 275 L 1154 276 L 1153 276 L 1153 276 L 1153 276 L 1153 276 L 1153 276 L 1153 276 L 1153 276 L 1153 276 Z  M 1153 284 L 1153 283 L 1153 283 L 1154 283 L 1154 284 L 1153 284 L 1153 284 L 1153 284 L 1153 284 Z  M 1153 282 L 1153 281 L 1153 281 L 1154 281 L 1154 282 L 1153 282 L 1153 282 L 1153 282 L 1153 282 L 1153 282 Z  M 1153 278 L 1153 277 L 1153 277 L 1154 277 L 1154 278 L 1153 278 L 1153 278 L 1153 278 L 1153 278 L 1153 278 L 1153 278 L 1153 278 Z  M 1153 274 L 1153 273 L 1153 273 L 1154 273 L 1154 274 L 1153 274 L 1153 274 L 1153 274 L 1153 274 L 1153 274 L 1153 274 L 1153 274 L 1153 274 L 1153 274 Z  M 1153 272 L 1153 271 L 1153 271 L 1154 271 L 1154 272 L 1153 272 L 1153 272 L 1153 272 L 1153 272 L 1153 272 L 1153 272 L 1153 272 L 1153 272 L 1153 272 L 1153 272 Z  M 1153 270 L 1153 269 L 1153 269 L 1154 269 L 1154 270 L 1153 270 L 1153 270 L 1153 270 L 1153 270 L 1153 270 L 1153 270 L 1153 270 L 1153 270 L 1153 270 L 1153 270 L 1153 270 Z  M 1153 268 L 1153 267 L 1153 267 L 1154 267 L 1154 268 L 1153 268 L 1153 268 L 1153 268 L 1153 268 L 1153 268 L 1153 268 L 1153 268 L 1153 268 L 1153 268 L 1153 268 L 1153 268 L 1153 268 Z  M 1153 266 L 1153 265 L 1154 265 L 1154 266 L 1153 266 L 1153 266 L 1153 266 L 1153 266 L 1153 266 L 1153 266 L 1153 266 L 1153 266 L 1153 266 L 1153 266 L 1153 266 L 1153 266 L 1153 266 Z " fill-rule="evenodd" id="Fill-B" fill="rgb(161,161,161)"/></g></svg>