<?xml version="1.0" encoding="UTF-8" standalone="no"?><!-- Generator: Gravit.io --><svg xmlns="http://www.w3.org/2000/svg" xmlns:xlink="http://www.w3.org/1999/xlink" style="isolation:isolate" viewBox="1150 397 24 24" width="24" height="24"><g id="align-right"><g opacity="0"><rect x="1150" y="397" width="24" height="24" transform="matrix(1,0,0,1,0,0)" id="Icon Background" fill="rgb(37,86,132)"/></g><path d=" M 1159 402 L 1170 402 L 1170 407 L 1159 407 L 1159 402 Z " id="Fill-A" fill="rgb(215,215,215)"/><path d=" M 1156 412 L 1168 412 L 1168 414 L 1156 414 L 1156 412 L 1156 412 Z  M 1154 410 L 1170 410 L 1170 416 L 1154 416 L 1154 410 L 1154 410 Z  M 1172 412 L 1172 411 L 1172 411 L 1173 411 L 1173 412 L 1172 412 L 1172 412 L 1172 412 L 1172 412 L 1172 412 L 1172 412 Z  M 1172 420 L 1172 419 L 1172 419 L 1173 419 L 1173 420 L 1172 420 L 1172 420 Z  M 1172 418 L 1172 417 L 1172 417 L 1173 417 L 1173 418 L 1172 418 L 1172 418 L 1172 418 Z  M 1172 408 L 1172 407 L 1172 407 L 1173 407 L 1173 408 L 1172 408 L 1172 408 L 1172 408 L 1172 408 L 1172 408 L 1172 408 L 1172 408 L 1172 408 Z  M 1172 416 L 1172 415 L 1172 415 L 1173 415 L 1173 416 L 1172 416 L 1172 416 L 1172 416 L 1172 416 Z  M 1172 414 L 1172 413 L 1172 413 L 1173 413 L 1173 414 L 1172 414 L 1172 414 L 1172 414 L 1172 414 L 1172 414 Z  M 1172 410 L 1172 409 L 1172 409 L 1173 409 L 1173 410 L 1172 410 L 1172 410 L 1172 410 L 1172 410 L 1172 410 L 1172 410 L 1172 410 Z  M 1172 406 L 1172 405 L 1172 405 L 1173 405 L 1173 406 L 1172 406 L 1172 406 L 1172 406 L 1172 406 L 1172 406 L 1172 406 L 1172 406 L 1172 406 L 1172 406 Z  M 1172 404 L 1172 403 L 1172 403 L 1173 403 L 1173 404 L 1172 404 L 1172 404 L 1172 404 L 1172 404 L 1172 404 L 1172 404 L 1172 404 L 1172 404 L 1172 404 L 1172 404 Z  M 1172 402 L 1172 401 L 1172 401 L 1173 401 L 1173 402 L 1172 402 L 1172 402 L 1172 402 L 1172 402 L 1172 402 L 1172 402 L 1172 402 L 1172 402 L 1172 402 L 1172 402 L 1172 402 Z  M 1172 400 L 1172 399 L 1172 399 L 1173 399 L 1173 400 L 1172 400 L 1172 400 L 1172 400 L 1172 400 L 1172 400 L 1172 400 L 1172 400 L 1172 400 L 1172 400 L 1172 400 L 1172 400 L 1172 400 Z  M 1172 398 L 1172 397 L 1173 397 L 1173 398 L 1172 398 L 1172 398 L 1172 398 L 1172 398 L 1172 398 L 1172 398 L 1172 398 L 1172 398 L 1172 398 L 1172 398 L 1172 398 L 1172 398 L 1172 398 Z " fill-rule="evenodd" id="Fill-B" fill="rgb(161,161,161)"/></g></svg>