<?xml version="1.0" encoding="UTF-8" standalone="no"?><!-- Generator: Gravit.io --><svg xmlns="http://www.w3.org/2000/svg" xmlns:xlink="http://www.w3.org/1999/xlink" style="isolation:isolate" viewBox="1150 463 24 24" width="24" height="24"><g id="align-top"><g opacity="0"><rect x="1150" y="463" width="24" height="24" transform="matrix(1,0,0,1,0,0)" id="Icon Background" fill="rgb(37,86,132)"/></g><path d=" M 1170 468 L 1170 479 L 1165 479 L 1165 468 L 1170 468 Z " id="Fill-A" fill="rgb(215,215,215)"/><path d=" M 1160 470 L 1160 482 L 1158 482 L 1158 470 L 1160 470 L 1160 470 Z  M 1162 468 L 1162 484 L 1156 484 L 1156 468 L 1162 468 L 1162 468 Z  M 1166 466 L 1165 466 L 1165 466 L 1165 465 L 1166 465 L 1166 466 L 1166 466 L 1166 466 L 1166 466 L 1166 466 L 1166 466 Z  M 1174 466 L 1173 466 L 1173 466 L 1173 465 L 1174 465 L 1174 466 L 1174 466 Z  M 1172 466 L 1171 466 L 1171 466 L 1171 465 L 1172 465 L 1172 466 L 1172 466 L 1172 466 Z  M 1162 466 L 1161 466 L 1161 466 L 1161 465 L 1162 465 L 1162 466 L 1162 466 L 1162 466 L 1162 466 L 1162 466 L 1162 466 L 1162 466 L 1162 466 Z  M 1170 466 L 1169 466 L 1169 466 L 1169 465 L 1170 465 L 1170 466 L 1170 466 L 1170 466 L 1170 466 Z  M 1168 466 L 1167 466 L 1167 466 L 1167 465 L 1168 465 L 1168 466 L 1168 466 L 1168 466 L 1168 466 L 1168 466 Z  M 1164 466 L 1163 466 L 1163 466 L 1163 465 L 1164 465 L 1164 466 L 1164 466 L 1164 466 L 1164 466 L 1164 466 L 1164 466 L 1164 466 Z  M 1160 466 L 1159 466 L 1159 466 L 1159 465 L 1160 465 L 1160 466 L 1160 466 L 1160 466 L 1160 466 L 1160 466 L 1160 466 L 1160 466 L 1160 466 L 1160 466 Z  M 1158 466 L 1157 466 L 1157 466 L 1157 465 L 1158 465 L 1158 466 L 1158 466 L 1158 466 L 1158 466 L 1158 466 L 1158 466 L 1158 466 L 1158 466 L 1158 466 L 1158 466 Z  M 1156 466 L 1155 466 L 1155 466 L 1155 465 L 1156 465 L 1156 466 L 1156 466 L 1156 466 L 1156 466 L 1156 466 L 1156 466 L 1156 466 L 1156 466 L 1156 466 L 1156 466 L 1156 466 Z  M 1154 466 L 1153 466 L 1153 466 L 1153 465 L 1154 465 L 1154 466 L 1154 466 L 1154 466 L 1154 466 L 1154 466 L 1154 466 L 1154 466 L 1154 466 L 1154 466 L 1154 466 L 1154 466 L 1154 466 Z  M 1152 466 L 1151 466 L 1151 465 L 1152 465 L 1152 466 L 1152 466 L 1152 466 L 1152 466 L 1152 466 L 1152 466 L 1152 466 L 1152 466 L 1152 466 L 1152 466 L 1152 466 L 1152 466 L 1152 466 Z " fill-rule="evenodd" id="Fill-B" fill="rgb(161,161,161)"/></g></svg>