<?xml version="1.0" encoding="UTF-8" standalone="no"?><!-- Generator: Gravit.io --><svg xmlns="http://www.w3.org/2000/svg" xmlns:xlink="http://www.w3.org/1999/xlink" style="isolation:isolate" viewBox="1150 529 24 24" width="24" height="24"><g id="align-middle"><g opacity="0"><rect x="1150" y="529" width="24" height="24" transform="matrix(1,0,0,1,0,0)" id="Icon Background" fill="rgb(37,86,132)"/></g><path d=" M 1159 541 L 1159 541 L 1159 542 L 1159 542 L 1159 548 L 1157 548 L 1157 542 L 1158 542 L 1158 542 L 1158 542 L 1158 542 L 1158 542 L 1158 542 L 1158 542 L 1158 542 L 1158 542 L 1158 542 L 1158 541 L 1157 541 L 1157 535 L 1159 535 L 1159 535 L 1159 541 Z  M 1166 542 L 1165 542 L 1165 542 L 1165 541 L 1166 541 L 1166 542 L 1166 542 L 1166 542 L 1166 542 L 1166 542 L 1166 542 Z  M 1174 542 L 1173 542 L 1173 542 L 1173 541 L 1174 541 L 1174 542 L 1174 542 Z  M 1172 542 L 1171 542 L 1171 542 L 1171 541 L 1172 541 L 1172 542 L 1172 542 L 1172 542 Z  M 1162 542 L 1161 542 L 1161 542 L 1161 541 L 1162 541 L 1162 542 L 1162 542 L 1162 542 L 1162 542 L 1162 542 L 1162 542 L 1162 542 L 1162 542 Z  M 1170 542 L 1169 542 L 1169 542 L 1169 541 L 1170 541 L 1170 542 L 1170 542 L 1170 542 L 1170 542 Z  M 1168 542 L 1167 542 L 1167 542 L 1167 541 L 1168 541 L 1168 542 L 1168 542 L 1168 542 L 1168 542 L 1168 542 Z  M 1164 542 L 1163 542 L 1163 542 L 1163 541 L 1164 541 L 1164 542 L 1164 542 L 1164 542 L 1164 542 L 1164 542 L 1164 542 L 1164 542 Z  M 1154 542 L 1153 542 L 1153 542 L 1153 541 L 1154 541 L 1154 542 L 1154 542 L 1154 542 L 1154 542 L 1154 542 L 1154 542 L 1154 542 L 1154 542 L 1154 542 L 1154 542 L 1154 542 L 1154 542 Z  M 1152 542 L 1151 542 L 1151 541 L 1152 541 L 1152 542 L 1152 542 L 1152 542 L 1152 542 L 1152 542 L 1152 542 L 1152 542 L 1152 542 L 1152 542 L 1152 542 L 1152 542 L 1152 542 L 1152 542 Z  M 1161 533 L 1161 550 L 1155 550 L 1155 533 L 1161 533 L 1161 533 Z " fill-rule="evenodd" id="Fill-B" fill="rgb(161,161,161)"/><path d=" M 1169 536 L 1169 547 L 1164 547 L 1164 536 L 1169 536 Z " id="Fill-A" fill="rgb(215,215,215)"/></g></svg>