<?xml version="1.0" encoding="UTF-8" standalone="no"?><!-- Generator: Gravit.io --><svg xmlns="http://www.w3.org/2000/svg" xmlns:xlink="http://www.w3.org/1999/xlink" style="isolation:isolate" viewBox="1334.954 1387 24 24" width="24" height="24"><g id="align-top-text"><g opacity="0"><rect x="1334.954" y="1387" width="24" height="24" transform="matrix(1,0,0,1,0,0)" id="Icon Background" fill="rgb(37,86,132)"/></g><path d=" M 1339.977 1392.004 L 1353.977 1392.004 L 1353.977 1394.004 L 1339.977 1394.004 L 1339.977 1392.004 L 1339.977 1392.004 L 1339.977 1392.004 Z  M 1339.977 1395.996 L 1351.977 1395.996 L 1351.977 1397.996 L 1339.977 1397.996 L 1339.977 1395.996 L 1339.977 1395.996 L 1339.977 1395.996 Z " fill-rule="evenodd" id="Fill-A" fill="rgb(215,215,215)"/><path d=" M 1335.977 1396 L 1336.977 1396 L 1336.977 1398 L 1335.977 1398 L 1335.977 1396 L 1335.977 1396 L 1335.977 1396 L 1335.977 1396 L 1335.977 1396 L 1335.977 1396 L 1335.977 1396 L 1335.977 1396 L 1335.977 1396 L 1335.977 1396 L 1335.977 1396 L 1335.977 1396 L 1335.977 1396 Z  M 1356.977 1396 L 1357.977 1396 L 1357.977 1398 L 1356.977 1398 L 1356.977 1396 L 1356.977 1396 L 1356.977 1396 L 1356.977 1396 L 1356.977 1396 L 1356.977 1396 L 1356.977 1396 L 1356.977 1396 L 1356.977 1396 L 1356.977 1396 L 1356.977 1396 L 1356.977 1396 Z  M 1355.977 1408.987 C 1355.977 1408.727 1356.077 1408.477 1356.267 1408.287 C 1356.447 1408.107 1356.707 1407.997 1356.967 1407.997 C 1357.227 1407.997 1357.477 1408.107 1357.667 1408.287 C 1357.847 1408.477 1357.957 1408.727 1357.957 1408.987 C 1357.957 1409.247 1357.847 1409.507 1357.667 1409.687 C 1357.477 1409.877 1357.227 1409.977 1356.967 1409.977 C 1356.707 1409.977 1356.447 1409.877 1356.267 1409.687 C 1356.077 1409.507 1355.977 1409.247 1355.977 1408.987 L 1355.977 1408.987 L 1355.977 1408.987 L 1355.977 1408.987 L 1355.977 1408.987 L 1355.977 1408.987 L 1355.977 1408.987 L 1355.977 1408.987 L 1355.977 1408.987 L 1355.977 1408.987 L 1355.977 1408.987 L 1355.977 1408.987 L 1355.977 1408.987 L 1355.977 1408.987 L 1355.977 1408.987 L 1355.977 1408.987 L 1355.977 1408.987 L 1355.977 1408.987 L 1355.977 1408.987 L 1355.977 1408.987 L 1355.977 1408.987 L 1355.977 1408.987 L 1355.977 1408.987 L 1355.977 1408.987 L 1355.977 1408.987 Z  M 1339.977 1388 L 1341.977 1388 L 1341.977 1389 L 1339.977 1389 L 1339.977 1388 L 1339.977 1388 L 1339.977 1388 L 1339.977 1388 L 1339.977 1388 L 1339.977 1388 L 1339.977 1388 L 1339.977 1388 L 1339.977 1388 L 1339.977 1388 L 1339.977 1388 L 1339.977 1388 L 1339.977 1388 L 1339.977 1388 L 1339.977 1388 L 1339.977 1388 L 1339.977 1388 L 1339.977 1388 L 1339.977 1388 L 1339.977 1388 L 1339.977 1388 L 1339.977 1388 Z  M 1343.977 1388 L 1345.977 1388 L 1345.977 1389 L 1343.977 1389 L 1343.977 1388 L 1343.977 1388 L 1343.977 1388 L 1343.977 1388 L 1343.977 1388 L 1343.977 1388 L 1343.977 1388 L 1343.977 1388 L 1343.977 1388 L 1343.977 1388 L 1343.977 1388 L 1343.977 1388 L 1343.977 1388 L 1343.977 1388 L 1343.977 1388 L 1343.977 1388 L 1343.977 1388 L 1343.977 1388 L 1343.977 1388 L 1343.977 1388 L 1343.977 1388 Z  M 1347.977 1388 L 1349.977 1388 L 1349.977 1389 L 1347.977 1389 L 1347.977 1388 L 1347.977 1388 L 1347.977 1388 L 1347.977 1388 L 1347.977 1388 L 1347.977 1388 L 1347.977 1388 L 1347.977 1388 L 1347.977 1388 L 1347.977 1388 L 1347.977 1388 L 1347.977 1388 L 1347.977 1388 L 1347.977 1388 L 1347.977 1388 L 1347.977 1388 L 1347.977 1388 L 1347.977 1388 L 1347.977 1388 L 1347.977 1388 Z  M 1351.977 1388 L 1353.977 1388 L 1353.977 1389 L 1351.977 1389 L 1351.977 1388 L 1351.977 1388 L 1351.977 1388 L 1351.977 1388 L 1351.977 1388 L 1351.977 1388 L 1351.977 1388 L 1351.977 1388 L 1351.977 1388 L 1351.977 1388 L 1351.977 1388 L 1351.977 1388 L 1351.977 1388 L 1351.977 1388 L 1351.977 1388 L 1351.977 1388 L 1351.977 1388 L 1351.977 1388 L 1351.977 1388 Z  M 1335.977 1392 L 1336.977 1392 L 1336.977 1394 L 1335.977 1394 L 1335.977 1392 L 1335.977 1392 L 1335.977 1392 L 1335.977 1392 L 1335.977 1392 L 1335.977 1392 L 1335.977 1392 L 1335.977 1392 L 1335.977 1392 L 1335.977 1392 L 1335.977 1392 L 1335.977 1392 L 1335.977 1392 L 1335.977 1392 L 1335.977 1392 L 1335.977 1392 L 1335.977 1392 L 1335.977 1392 Z  M 1356.977 1392 L 1357.977 1392 L 1357.977 1394 L 1356.977 1394 L 1356.977 1392 L 1356.977 1392 L 1356.977 1392 L 1356.977 1392 L 1356.977 1392 L 1356.977 1392 L 1356.977 1392 L 1356.977 1392 L 1356.977 1392 L 1356.977 1392 L 1356.977 1392 L 1356.977 1392 L 1356.977 1392 L 1356.977 1392 Z  M 1335.977 1400 L 1336.977 1400 L 1336.977 1402 L 1335.977 1402 L 1335.977 1400 L 1335.977 1400 L 1335.977 1400 L 1335.977 1400 L 1335.977 1400 L 1335.977 1400 L 1335.977 1400 L 1335.977 1400 L 1335.977 1400 L 1335.977 1400 L 1335.977 1400 Z  M 1356.977 1400 L 1357.977 1400 L 1357.977 1402 L 1356.977 1402 L 1356.977 1400 L 1356.977 1400 L 1356.977 1400 L 1356.977 1400 L 1356.977 1400 L 1356.977 1400 L 1356.977 1400 L 1356.977 1400 L 1356.977 1400 L 1356.977 1400 Z  M 1335.977 1404 L 1336.977 1404 L 1336.977 1406 L 1335.977 1406 L 1335.977 1404 L 1335.977 1404 L 1335.977 1404 L 1335.977 1404 L 1335.977 1404 L 1335.977 1404 L 1335.977 1404 L 1335.977 1404 L 1335.977 1404 Z  M 1356.977 1404 L 1357.977 1404 L 1357.977 1406 L 1356.977 1406 L 1356.977 1404 L 1356.977 1404 L 1356.977 1404 L 1356.977 1404 L 1356.977 1404 L 1356.977 1404 L 1356.977 1404 L 1356.977 1404 Z  M 1339.977 1409 L 1341.977 1409 L 1341.977 1410 L 1339.977 1410 L 1339.977 1409 L 1339.977 1409 L 1339.977 1409 L 1339.977 1409 L 1339.977 1409 L 1339.977 1409 L 1339.977 1409 Z  M 1343.977 1409 L 1345.977 1409 L 1345.977 1410 L 1343.977 1410 L 1343.977 1409 L 1343.977 1409 L 1343.977 1409 L 1343.977 1409 L 1343.977 1409 L 1343.977 1409 Z  M 1347.977 1409 L 1349.977 1409 L 1349.977 1410 L 1347.977 1410 L 1347.977 1409 L 1347.977 1409 L 1347.977 1409 L 1347.977 1409 L 1347.977 1409 Z  M 1351.977 1409 L 1353.977 1409 L 1353.977 1410 L 1351.977 1410 L 1351.977 1409 L 1351.977 1409 L 1351.977 1409 L 1351.977 1409 Z  M 1356.978 1388 L 1356 1388 L 1356 1389 L 1356.978 1389 L 1356.978 1389.957 L 1357.978 1389.957 L 1357.978 1388 L 1357.957 1388 L 1356.978 1388 L 1356.978 1388 L 1356.978 1388 Z  M 1336.011 1388.989 L 1336.011 1389.968 L 1337.011 1389.968 L 1337.011 1388.989 L 1337.968 1388.989 L 1337.968 1387.989 L 1336.011 1387.989 L 1336.011 1388.011 L 1336.011 1388.989 L 1336.011 1388.989 Z  M 1354.977 1408.988 C 1354.977 1407.891 1355.868 1407 1356.965 1407 C 1358.063 1407 1358.954 1407.891 1358.954 1408.988 C 1358.954 1410.086 1358.063 1410.977 1356.965 1410.977 C 1355.868 1410.977 1354.977 1410.086 1354.977 1408.988 L 1354.977 1408.988 L 1354.977 1408.988 L 1354.977 1408.988 L 1354.977 1408.988 L 1354.977 1408.988 L 1354.977 1408.988 L 1354.977 1408.988 L 1354.977 1408.988 L 1354.977 1408.988 L 1354.977 1408.988 L 1354.977 1408.988 L 1354.977 1408.988 L 1354.977 1408.988 L 1354.977 1408.988 L 1354.977 1408.988 L 1354.977 1408.988 L 1354.977 1408.988 L 1354.977 1408.988 L 1354.977 1408.988 L 1354.977 1408.988 L 1354.977 1408.988 L 1354.977 1408.988 L 1354.977 1408.988 L 1354.977 1408.988 Z  M 1337 1409.978 L 1337.978 1409.978 L 1337.978 1408.978 L 1337 1408.978 L 1337 1408.022 L 1336 1408.022 L 1336 1409.978 L 1336.021 1409.978 L 1337 1409.978 Z " fill-rule="evenodd" id="Fill-B" fill="rgb(161,161,161)"/></g></svg>