<?xml version="1.0" encoding="UTF-8" standalone="no"?><!-- Generator: Gravit.io --><svg xmlns="http://www.w3.org/2000/svg" xmlns:xlink="http://www.w3.org/1999/xlink" style="isolation:isolate" viewBox="1334.954 1519 24 24" width="24" height="24"><g id="align-bottom-text"><g opacity="0"><rect x="1334.954" y="1519" width="24" height="24" transform="matrix(1,0,0,1,0,0)" id="Icon Background" fill="rgb(37,86,132)"/></g><path d=" M 1339.977 1533.004 L 1353.977 1533.004 L 1353.977 1535.004 L 1339.977 1535.004 L 1339.977 1533.004 L 1339.977 1533.004 L 1339.977 1533.004 Z  M 1339.977 1536.996 L 1351.977 1536.996 L 1351.977 1538.996 L 1339.977 1538.996 L 1339.977 1536.996 L 1339.977 1536.996 L 1339.977 1536.996 Z " fill-rule="evenodd" id="Fill-A" fill="rgb(215,215,215)"/><path d=" M 1335.977 1528 L 1336.977 1528 L 1336.977 1530 L 1335.977 1530 L 1335.977 1528 L 1335.977 1528 L 1335.977 1528 L 1335.977 1528 L 1335.977 1528 L 1335.977 1528 L 1335.977 1528 L 1335.977 1528 L 1335.977 1528 L 1335.977 1528 L 1335.977 1528 L 1335.977 1528 L 1335.977 1528 Z  M 1356.977 1528 L 1357.977 1528 L 1357.977 1530 L 1356.977 1530 L 1356.977 1528 L 1356.977 1528 L 1356.977 1528 L 1356.977 1528 L 1356.977 1528 L 1356.977 1528 L 1356.977 1528 L 1356.977 1528 L 1356.977 1528 L 1356.977 1528 L 1356.977 1528 L 1356.977 1528 Z  M 1355.977 1540.987 C 1355.977 1540.727 1356.077 1540.477 1356.267 1540.287 C 1356.447 1540.107 1356.707 1539.997 1356.967 1539.997 C 1357.227 1539.997 1357.477 1540.107 1357.667 1540.287 C 1357.847 1540.477 1357.957 1540.727 1357.957 1540.987 C 1357.957 1541.247 1357.847 1541.507 1357.667 1541.687 C 1357.477 1541.877 1357.227 1541.977 1356.967 1541.977 C 1356.707 1541.977 1356.447 1541.877 1356.267 1541.687 C 1356.077 1541.507 1355.977 1541.247 1355.977 1540.987 L 1355.977 1540.987 L 1355.977 1540.987 L 1355.977 1540.987 L 1355.977 1540.987 L 1355.977 1540.987 L 1355.977 1540.987 L 1355.977 1540.987 L 1355.977 1540.987 L 1355.977 1540.987 L 1355.977 1540.987 L 1355.977 1540.987 L 1355.977 1540.987 L 1355.977 1540.987 L 1355.977 1540.987 L 1355.977 1540.987 L 1355.977 1540.987 L 1355.977 1540.987 L 1355.977 1540.987 L 1355.977 1540.987 L 1355.977 1540.987 L 1355.977 1540.987 L 1355.977 1540.987 L 1355.977 1540.987 L 1355.977 1540.987 Z  M 1339.977 1520 L 1341.977 1520 L 1341.977 1521 L 1339.977 1521 L 1339.977 1520 L 1339.977 1520 L 1339.977 1520 L 1339.977 1520 L 1339.977 1520 L 1339.977 1520 L 1339.977 1520 L 1339.977 1520 L 1339.977 1520 L 1339.977 1520 L 1339.977 1520 L 1339.977 1520 L 1339.977 1520 L 1339.977 1520 L 1339.977 1520 L 1339.977 1520 L 1339.977 1520 L 1339.977 1520 L 1339.977 1520 L 1339.977 1520 L 1339.977 1520 L 1339.977 1520 Z  M 1343.977 1520 L 1345.977 1520 L 1345.977 1521 L 1343.977 1521 L 1343.977 1520 L 1343.977 1520 L 1343.977 1520 L 1343.977 1520 L 1343.977 1520 L 1343.977 1520 L 1343.977 1520 L 1343.977 1520 L 1343.977 1520 L 1343.977 1520 L 1343.977 1520 L 1343.977 1520 L 1343.977 1520 L 1343.977 1520 L 1343.977 1520 L 1343.977 1520 L 1343.977 1520 L 1343.977 1520 L 1343.977 1520 L 1343.977 1520 L 1343.977 1520 Z  M 1347.977 1520 L 1349.977 1520 L 1349.977 1521 L 1347.977 1521 L 1347.977 1520 L 1347.977 1520 L 1347.977 1520 L 1347.977 1520 L 1347.977 1520 L 1347.977 1520 L 1347.977 1520 L 1347.977 1520 L 1347.977 1520 L 1347.977 1520 L 1347.977 1520 L 1347.977 1520 L 1347.977 1520 L 1347.977 1520 L 1347.977 1520 L 1347.977 1520 L 1347.977 1520 L 1347.977 1520 L 1347.977 1520 L 1347.977 1520 Z  M 1351.977 1520 L 1353.977 1520 L 1353.977 1521 L 1351.977 1521 L 1351.977 1520 L 1351.977 1520 L 1351.977 1520 L 1351.977 1520 L 1351.977 1520 L 1351.977 1520 L 1351.977 1520 L 1351.977 1520 L 1351.977 1520 L 1351.977 1520 L 1351.977 1520 L 1351.977 1520 L 1351.977 1520 L 1351.977 1520 L 1351.977 1520 L 1351.977 1520 L 1351.977 1520 L 1351.977 1520 L 1351.977 1520 Z  M 1335.977 1524 L 1336.977 1524 L 1336.977 1526 L 1335.977 1526 L 1335.977 1524 L 1335.977 1524 L 1335.977 1524 L 1335.977 1524 L 1335.977 1524 L 1335.977 1524 L 1335.977 1524 L 1335.977 1524 L 1335.977 1524 L 1335.977 1524 L 1335.977 1524 L 1335.977 1524 L 1335.977 1524 L 1335.977 1524 L 1335.977 1524 L 1335.977 1524 L 1335.977 1524 L 1335.977 1524 Z  M 1356.977 1524 L 1357.977 1524 L 1357.977 1526 L 1356.977 1526 L 1356.977 1524 L 1356.977 1524 L 1356.977 1524 L 1356.977 1524 L 1356.977 1524 L 1356.977 1524 L 1356.977 1524 L 1356.977 1524 L 1356.977 1524 L 1356.977 1524 L 1356.977 1524 L 1356.977 1524 L 1356.977 1524 L 1356.977 1524 Z  M 1335.977 1532 L 1336.977 1532 L 1336.977 1534 L 1335.977 1534 L 1335.977 1532 L 1335.977 1532 L 1335.977 1532 L 1335.977 1532 L 1335.977 1532 L 1335.977 1532 L 1335.977 1532 L 1335.977 1532 L 1335.977 1532 L 1335.977 1532 L 1335.977 1532 Z  M 1356.977 1532 L 1357.977 1532 L 1357.977 1534 L 1356.977 1534 L 1356.977 1532 L 1356.977 1532 L 1356.977 1532 L 1356.977 1532 L 1356.977 1532 L 1356.977 1532 L 1356.977 1532 L 1356.977 1532 L 1356.977 1532 L 1356.977 1532 Z  M 1335.977 1536 L 1336.977 1536 L 1336.977 1538 L 1335.977 1538 L 1335.977 1536 L 1335.977 1536 L 1335.977 1536 L 1335.977 1536 L 1335.977 1536 L 1335.977 1536 L 1335.977 1536 L 1335.977 1536 L 1335.977 1536 Z  M 1356.977 1536 L 1357.977 1536 L 1357.977 1538 L 1356.977 1538 L 1356.977 1536 L 1356.977 1536 L 1356.977 1536 L 1356.977 1536 L 1356.977 1536 L 1356.977 1536 L 1356.977 1536 L 1356.977 1536 Z  M 1339.977 1541 L 1341.977 1541 L 1341.977 1542 L 1339.977 1542 L 1339.977 1541 L 1339.977 1541 L 1339.977 1541 L 1339.977 1541 L 1339.977 1541 L 1339.977 1541 L 1339.977 1541 Z  M 1343.977 1541 L 1345.977 1541 L 1345.977 1542 L 1343.977 1542 L 1343.977 1541 L 1343.977 1541 L 1343.977 1541 L 1343.977 1541 L 1343.977 1541 L 1343.977 1541 Z  M 1347.977 1541 L 1349.977 1541 L 1349.977 1542 L 1347.977 1542 L 1347.977 1541 L 1347.977 1541 L 1347.977 1541 L 1347.977 1541 L 1347.977 1541 Z  M 1351.977 1541 L 1353.977 1541 L 1353.977 1542 L 1351.977 1542 L 1351.977 1541 L 1351.977 1541 L 1351.977 1541 L 1351.977 1541 Z  M 1356.978 1520 L 1356 1520 L 1356 1521 L 1356.978 1521 L 1356.978 1521.957 L 1357.978 1521.957 L 1357.978 1520 L 1357.957 1520 L 1356.978 1520 L 1356.978 1520 L 1356.978 1520 Z  M 1336.011 1520.989 L 1336.011 1521.968 L 1337.011 1521.968 L 1337.011 1520.989 L 1337.968 1520.989 L 1337.968 1519.989 L 1336.011 1519.989 L 1336.011 1520.011 L 1336.011 1520.989 L 1336.011 1520.989 Z  M 1354.977 1540.988 C 1354.977 1539.891 1355.868 1539 1356.965 1539 C 1358.063 1539 1358.954 1539.891 1358.954 1540.988 C 1358.954 1542.086 1358.063 1542.977 1356.965 1542.977 C 1355.868 1542.977 1354.977 1542.086 1354.977 1540.988 L 1354.977 1540.988 L 1354.977 1540.988 L 1354.977 1540.988 L 1354.977 1540.988 L 1354.977 1540.988 L 1354.977 1540.988 L 1354.977 1540.988 L 1354.977 1540.988 L 1354.977 1540.988 L 1354.977 1540.988 L 1354.977 1540.988 L 1354.977 1540.988 L 1354.977 1540.988 L 1354.977 1540.988 L 1354.977 1540.988 L 1354.977 1540.988 L 1354.977 1540.988 L 1354.977 1540.988 L 1354.977 1540.988 L 1354.977 1540.988 L 1354.977 1540.988 L 1354.977 1540.988 L 1354.977 1540.988 L 1354.977 1540.988 Z  M 1337 1541.978 L 1337.978 1541.978 L 1337.978 1540.978 L 1337 1540.978 L 1337 1540.022 L 1336 1540.022 L 1336 1541.978 L 1336.021 1541.978 L 1337 1541.978 Z " fill-rule="evenodd" id="Fill-B" fill="rgb(161,161,161)"/></g></svg>