<?xml version="1.0" encoding="UTF-8" standalone="no"?><!-- Generator: Gravit.io --><svg xmlns="http://www.w3.org/2000/svg" xmlns:xlink="http://www.w3.org/1999/xlink" style="isolation:isolate" viewBox="1334.954 1453 24 24" width="24" height="24"><g id="align-middle-text"><g opacity="0"><rect x="1334.954" y="1453" width="24" height="24" transform="matrix(1,0,0,1,0,0)" id="Icon Background" fill="rgb(37,86,132)"/></g><path d=" M 1339.977 1462.004 L 1353.977 1462.004 L 1353.977 1464.004 L 1339.977 1464.004 L 1339.977 1462.004 L 1339.977 1462.004 L 1339.977 1462.004 Z  M 1339.977 1465.996 L 1351.977 1465.996 L 1351.977 1467.996 L 1339.977 1467.996 L 1339.977 1465.996 L 1339.977 1465.996 L 1339.977 1465.996 Z " fill-rule="evenodd" id="Fill-A" fill="rgb(215,215,215)"/><path d=" M 1335.977 1462 L 1336.977 1462 L 1336.977 1464 L 1335.977 1464 L 1335.977 1462 L 1335.977 1462 L 1335.977 1462 L 1335.977 1462 L 1335.977 1462 L 1335.977 1462 L 1335.977 1462 L 1335.977 1462 L 1335.977 1462 L 1335.977 1462 L 1335.977 1462 L 1335.977 1462 L 1335.977 1462 Z  M 1356.977 1462 L 1357.977 1462 L 1357.977 1464 L 1356.977 1464 L 1356.977 1462 L 1356.977 1462 L 1356.977 1462 L 1356.977 1462 L 1356.977 1462 L 1356.977 1462 L 1356.977 1462 L 1356.977 1462 L 1356.977 1462 L 1356.977 1462 L 1356.977 1462 L 1356.977 1462 Z  M 1355.977 1474.987 C 1355.977 1474.727 1356.077 1474.477 1356.267 1474.287 C 1356.447 1474.107 1356.707 1473.997 1356.967 1473.997 C 1357.227 1473.997 1357.477 1474.107 1357.667 1474.287 C 1357.847 1474.477 1357.957 1474.727 1357.957 1474.987 C 1357.957 1475.247 1357.847 1475.507 1357.667 1475.687 C 1357.477 1475.877 1357.227 1475.977 1356.967 1475.977 C 1356.707 1475.977 1356.447 1475.877 1356.267 1475.687 C 1356.077 1475.507 1355.977 1475.247 1355.977 1474.987 L 1355.977 1474.987 L 1355.977 1474.987 L 1355.977 1474.987 L 1355.977 1474.987 L 1355.977 1474.987 L 1355.977 1474.987 L 1355.977 1474.987 L 1355.977 1474.987 L 1355.977 1474.987 L 1355.977 1474.987 L 1355.977 1474.987 L 1355.977 1474.987 L 1355.977 1474.987 L 1355.977 1474.987 L 1355.977 1474.987 L 1355.977 1474.987 L 1355.977 1474.987 L 1355.977 1474.987 L 1355.977 1474.987 L 1355.977 1474.987 L 1355.977 1474.987 L 1355.977 1474.987 L 1355.977 1474.987 L 1355.977 1474.987 Z  M 1339.977 1454 L 1341.977 1454 L 1341.977 1455 L 1339.977 1455 L 1339.977 1454 L 1339.977 1454 L 1339.977 1454 L 1339.977 1454 L 1339.977 1454 L 1339.977 1454 L 1339.977 1454 L 1339.977 1454 L 1339.977 1454 L 1339.977 1454 L 1339.977 1454 L 1339.977 1454 L 1339.977 1454 L 1339.977 1454 L 1339.977 1454 L 1339.977 1454 L 1339.977 1454 L 1339.977 1454 L 1339.977 1454 L 1339.977 1454 L 1339.977 1454 L 1339.977 1454 Z  M 1343.977 1454 L 1345.977 1454 L 1345.977 1455 L 1343.977 1455 L 1343.977 1454 L 1343.977 1454 L 1343.977 1454 L 1343.977 1454 L 1343.977 1454 L 1343.977 1454 L 1343.977 1454 L 1343.977 1454 L 1343.977 1454 L 1343.977 1454 L 1343.977 1454 L 1343.977 1454 L 1343.977 1454 L 1343.977 1454 L 1343.977 1454 L 1343.977 1454 L 1343.977 1454 L 1343.977 1454 L 1343.977 1454 L 1343.977 1454 L 1343.977 1454 Z  M 1347.977 1454 L 1349.977 1454 L 1349.977 1455 L 1347.977 1455 L 1347.977 1454 L 1347.977 1454 L 1347.977 1454 L 1347.977 1454 L 1347.977 1454 L 1347.977 1454 L 1347.977 1454 L 1347.977 1454 L 1347.977 1454 L 1347.977 1454 L 1347.977 1454 L 1347.977 1454 L 1347.977 1454 L 1347.977 1454 L 1347.977 1454 L 1347.977 1454 L 1347.977 1454 L 1347.977 1454 L 1347.977 1454 L 1347.977 1454 Z  M 1351.977 1454 L 1353.977 1454 L 1353.977 1455 L 1351.977 1455 L 1351.977 1454 L 1351.977 1454 L 1351.977 1454 L 1351.977 1454 L 1351.977 1454 L 1351.977 1454 L 1351.977 1454 L 1351.977 1454 L 1351.977 1454 L 1351.977 1454 L 1351.977 1454 L 1351.977 1454 L 1351.977 1454 L 1351.977 1454 L 1351.977 1454 L 1351.977 1454 L 1351.977 1454 L 1351.977 1454 L 1351.977 1454 Z  M 1335.977 1458 L 1336.977 1458 L 1336.977 1460 L 1335.977 1460 L 1335.977 1458 L 1335.977 1458 L 1335.977 1458 L 1335.977 1458 L 1335.977 1458 L 1335.977 1458 L 1335.977 1458 L 1335.977 1458 L 1335.977 1458 L 1335.977 1458 L 1335.977 1458 L 1335.977 1458 L 1335.977 1458 L 1335.977 1458 L 1335.977 1458 L 1335.977 1458 L 1335.977 1458 L 1335.977 1458 Z  M 1356.977 1458 L 1357.977 1458 L 1357.977 1460 L 1356.977 1460 L 1356.977 1458 L 1356.977 1458 L 1356.977 1458 L 1356.977 1458 L 1356.977 1458 L 1356.977 1458 L 1356.977 1458 L 1356.977 1458 L 1356.977 1458 L 1356.977 1458 L 1356.977 1458 L 1356.977 1458 L 1356.977 1458 L 1356.977 1458 Z  M 1335.977 1466 L 1336.977 1466 L 1336.977 1468 L 1335.977 1468 L 1335.977 1466 L 1335.977 1466 L 1335.977 1466 L 1335.977 1466 L 1335.977 1466 L 1335.977 1466 L 1335.977 1466 L 1335.977 1466 L 1335.977 1466 L 1335.977 1466 L 1335.977 1466 Z  M 1356.977 1466 L 1357.977 1466 L 1357.977 1468 L 1356.977 1468 L 1356.977 1466 L 1356.977 1466 L 1356.977 1466 L 1356.977 1466 L 1356.977 1466 L 1356.977 1466 L 1356.977 1466 L 1356.977 1466 L 1356.977 1466 L 1356.977 1466 Z  M 1335.977 1470 L 1336.977 1470 L 1336.977 1472 L 1335.977 1472 L 1335.977 1470 L 1335.977 1470 L 1335.977 1470 L 1335.977 1470 L 1335.977 1470 L 1335.977 1470 L 1335.977 1470 L 1335.977 1470 L 1335.977 1470 Z  M 1356.977 1470 L 1357.977 1470 L 1357.977 1472 L 1356.977 1472 L 1356.977 1470 L 1356.977 1470 L 1356.977 1470 L 1356.977 1470 L 1356.977 1470 L 1356.977 1470 L 1356.977 1470 L 1356.977 1470 Z  M 1339.977 1475 L 1341.977 1475 L 1341.977 1476 L 1339.977 1476 L 1339.977 1475 L 1339.977 1475 L 1339.977 1475 L 1339.977 1475 L 1339.977 1475 L 1339.977 1475 L 1339.977 1475 Z  M 1343.977 1475 L 1345.977 1475 L 1345.977 1476 L 1343.977 1476 L 1343.977 1475 L 1343.977 1475 L 1343.977 1475 L 1343.977 1475 L 1343.977 1475 L 1343.977 1475 Z  M 1347.977 1475 L 1349.977 1475 L 1349.977 1476 L 1347.977 1476 L 1347.977 1475 L 1347.977 1475 L 1347.977 1475 L 1347.977 1475 L 1347.977 1475 Z  M 1351.977 1475 L 1353.977 1475 L 1353.977 1476 L 1351.977 1476 L 1351.977 1475 L 1351.977 1475 L 1351.977 1475 L 1351.977 1475 Z  M 1356.978 1454 L 1356 1454 L 1356 1455 L 1356.978 1455 L 1356.978 1455.957 L 1357.978 1455.957 L 1357.978 1454 L 1357.957 1454 L 1356.978 1454 L 1356.978 1454 L 1356.978 1454 Z  M 1336.011 1454.989 L 1336.011 1455.968 L 1337.011 1455.968 L 1337.011 1454.989 L 1337.968 1454.989 L 1337.968 1453.989 L 1336.011 1453.989 L 1336.011 1454.011 L 1336.011 1454.989 L 1336.011 1454.989 Z  M 1354.977 1474.988 C 1354.977 1473.891 1355.868 1473 1356.965 1473 C 1358.063 1473 1358.954 1473.891 1358.954 1474.988 C 1358.954 1476.086 1358.063 1476.977 1356.965 1476.977 C 1355.868 1476.977 1354.977 1476.086 1354.977 1474.988 L 1354.977 1474.988 L 1354.977 1474.988 L 1354.977 1474.988 L 1354.977 1474.988 L 1354.977 1474.988 L 1354.977 1474.988 L 1354.977 1474.988 L 1354.977 1474.988 L 1354.977 1474.988 L 1354.977 1474.988 L 1354.977 1474.988 L 1354.977 1474.988 L 1354.977 1474.988 L 1354.977 1474.988 L 1354.977 1474.988 L 1354.977 1474.988 L 1354.977 1474.988 L 1354.977 1474.988 L 1354.977 1474.988 L 1354.977 1474.988 L 1354.977 1474.988 L 1354.977 1474.988 L 1354.977 1474.988 L 1354.977 1474.988 Z  M 1337 1475.978 L 1337.978 1475.978 L 1337.978 1474.978 L 1337 1474.978 L 1337 1474.022 L 1336 1474.022 L 1336 1475.978 L 1336.021 1475.978 L 1337 1475.978 Z " fill-rule="evenodd" id="Fill-B" fill="rgb(161,161,161)"/></g></svg>