<?xml version="1.0" encoding="UTF-8" standalone="no"?><!-- Generator: Gravit.io --><svg xmlns="http://www.w3.org/2000/svg" xmlns:xlink="http://www.w3.org/1999/xlink" style="isolation:isolate" viewBox="1150 1387 24 24" width="24" height="24"><g id="align-left-text"><g opacity="0"><rect x="1150" y="1387" width="24" height="24" transform="matrix(1,0,0,1,0,0)" id="Icon Background" fill="rgb(37,86,132)"/></g><path d=" M 1154 1392.004 L 1170 1392.004 L 1170 1394.004 L 1154 1394.004 L 1154 1392.004 L 1154 1392.004 L 1154 1392.004 Z  M 1154 1395.996 L 1166 1395.996 L 1166 1397.996 L 1154 1397.996 L 1154 1395.996 L 1154 1395.996 L 1154 1395.996 Z  M 1154 1399.988 L 1170 1399.988 L 1170 1401.988 L 1154 1401.988 L 1154 1399.988 L 1154 1399.988 Z  M 1154 1403.979 L 1166 1403.979 L 1166 1405.979 L 1154 1405.979 L 1154 1403.979 Z " fill-rule="evenodd" id="Fill-B" fill="rgb(161,161,161)"/></g></svg>