<?xml version="1.0" encoding="UTF-8" standalone="no"?><!-- Generator: Gravit.io --><svg xmlns="http://www.w3.org/2000/svg" xmlns:xlink="http://www.w3.org/1999/xlink" style="isolation:isolate" viewBox="1150 1519 24 24" width="24" height="24"><g id="align-right-text"><g opacity="0"><rect x="1150" y="1519" width="24" height="24" transform="matrix(1,0,0,1,0,0)" id="Icon Background" fill="rgb(37,86,132)"/></g><path d=" M 1154 1524.004 L 1170 1524.004 L 1170 1526.004 L 1154 1526.004 L 1154 1524.004 L 1154 1524.004 L 1154 1524.004 Z  M 1158 1527.996 L 1170 1527.996 L 1170 1529.996 L 1158 1529.996 L 1158 1527.996 L 1158 1527.996 L 1158 1527.996 Z  M 1154 1531.988 L 1170 1531.988 L 1170 1533.988 L 1154 1533.988 L 1154 1531.988 L 1154 1531.988 Z  M 1158 1535.979 L 1170 1535.979 L 1170 1537.979 L 1158 1537.979 L 1158 1535.979 Z " fill-rule="evenodd" id="Fill-B" fill="rgb(161,161,161)"/></g></svg>