<?xml version="1.0" encoding="UTF-8" standalone="no"?><!-- Generator: Gravit.io --><svg xmlns="http://www.w3.org/2000/svg" xmlns:xlink="http://www.w3.org/1999/xlink" style="isolation:isolate" viewBox="1150 595 24 24" width="24" height="24"><g id="align-bottom"><g opacity="0"><rect x="1150" y="595" width="24" height="24" transform="matrix(1,0,0,1,0,0)" id="Icon Background" fill="rgb(37,86,132)"/></g><path d=" M 1170 603 L 1170 614 L 1165 614 L 1165 603 L 1170 603 Z " id="Fill-A" fill="rgb(215,215,215)"/><path d=" M 1160 600 L 1160 612 L 1158 612 L 1158 600 L 1160 600 L 1160 600 Z  M 1162 598 L 1162 614 L 1156 614 L 1156 598 L 1162 598 L 1162 598 Z  M 1166 617 L 1165 617 L 1165 617 L 1165 616 L 1166 616 L 1166 617 L 1166 617 L 1166 617 L 1166 617 L 1166 617 L 1166 617 Z  M 1174 617 L 1173 617 L 1173 617 L 1173 616 L 1174 616 L 1174 617 L 1174 617 Z  M 1172 617 L 1171 617 L 1171 617 L 1171 616 L 1172 616 L 1172 617 L 1172 617 L 1172 617 Z  M 1162 617 L 1161 617 L 1161 617 L 1161 616 L 1162 616 L 1162 617 L 1162 617 L 1162 617 L 1162 617 L 1162 617 L 1162 617 L 1162 617 L 1162 617 Z  M 1170 617 L 1169 617 L 1169 617 L 1169 616 L 1170 616 L 1170 617 L 1170 617 L 1170 617 L 1170 617 Z  M 1168 617 L 1167 617 L 1167 617 L 1167 616 L 1168 616 L 1168 617 L 1168 617 L 1168 617 L 1168 617 L 1168 617 Z  M 1164 617 L 1163 617 L 1163 617 L 1163 616 L 1164 616 L 1164 617 L 1164 617 L 1164 617 L 1164 617 L 1164 617 L 1164 617 L 1164 617 Z  M 1160 617 L 1159 617 L 1159 617 L 1159 616 L 1160 616 L 1160 617 L 1160 617 L 1160 617 L 1160 617 L 1160 617 L 1160 617 L 1160 617 L 1160 617 L 1160 617 Z  M 1158 617 L 1157 617 L 1157 617 L 1157 616 L 1158 616 L 1158 617 L 1158 617 L 1158 617 L 1158 617 L 1158 617 L 1158 617 L 1158 617 L 1158 617 L 1158 617 L 1158 617 Z  M 1156 617 L 1155 617 L 1155 617 L 1155 616 L 1156 616 L 1156 617 L 1156 617 L 1156 617 L 1156 617 L 1156 617 L 1156 617 L 1156 617 L 1156 617 L 1156 617 L 1156 617 L 1156 617 Z  M 1154 617 L 1153 617 L 1153 617 L 1153 616 L 1154 616 L 1154 617 L 1154 617 L 1154 617 L 1154 617 L 1154 617 L 1154 617 L 1154 617 L 1154 617 L 1154 617 L 1154 617 L 1154 617 L 1154 617 Z  M 1152 617 L 1151 617 L 1151 616 L 1152 616 L 1152 617 L 1152 617 L 1152 617 L 1152 617 L 1152 617 L 1152 617 L 1152 617 L 1152 617 L 1152 617 L 1152 617 L 1152 617 L 1152 617 L 1152 617 Z " fill-rule="evenodd" id="Fill-B" fill="rgb(161,161,161)"/></g></svg>