<?xml version="1.0" encoding="UTF-8" standalone="no"?><!-- Generator: Gravit.io --><svg xmlns="http://www.w3.org/2000/svg" xmlns:xlink="http://www.w3.org/1999/xlink" style="isolation:isolate" viewBox="1978 2847 24 24" width="24" height="24"><g id="appearance-panel"><g opacity="0"><rect x="1978" y="2847" width="24" height="24" transform="matrix(1,0,0,1,0,0)" id="Icon Background" fill="rgb(37,86,132)"/></g><path d=" M 1989 2862.011 C 1989.565 2862.09 1990 2862.575 1990 2863.162 L 1990 2868.838 C 1990 2869.479 1989.479 2870 1988.838 2870 L 1988.162 2870 C 1987.521 2870 1987 2869.479 1987 2868.838 L 1987 2863.162 C 1987 2862.575 1987.435 2862.09 1988 2862.011 L 1988 2860 L 1998.5 2860 C 1998.63 2860 1998.76 2859.95 1998.85 2859.85 C 1998.95 2859.76 1999 2859.63 1999 2859.5 L 1999 2854.5 C 1999 2854.37 1998.95 2854.24 1998.85 2854.15 C 1998.76 2854.05 1998.63 2854 1998.5 2854 L 1996.5 2854 L 1996.5 2853 L 1998.5 2853 C 1998.9 2853 1999.28 2853.16 1999.56 2853.44 C 1999.84 2853.72 2000 2854.1 2000 2854.5 L 2000 2859.5 C 2000 2859.9 1999.84 2860.28 1999.56 2860.56 C 1999.28 2860.84 1998.9 2861 1998.5 2861 L 1989 2861 L 1989 2862.011 Z " id="Fill-B" fill="rgb(161,161,161)"/><path d=" M 1983 2850 L 1983 2857 L 1982 2857 L 1982 2850 L 1983 2850 L 1983 2850 L 1983 2850 L 1983 2850 L 1983 2850 L 1983 2850 L 1983 2850 Z  M 1985 2850 L 1985 2857 L 1984 2857 L 1984 2850 L 1985 2850 L 1985 2850 L 1985 2850 L 1985 2850 L 1985 2850 L 1985 2850 Z  M 1987 2850 L 1987 2857 L 1986 2857 L 1986 2850 L 1987 2850 L 1987 2850 L 1987 2850 L 1987 2850 L 1987 2850 Z  M 1989 2850 L 1989 2857 L 1988 2857 L 1988 2850 L 1989 2850 L 1989 2850 L 1989 2850 L 1989 2850 Z  M 1991 2850 L 1991 2857 L 1990 2857 L 1990 2850 L 1991 2850 L 1991 2850 L 1991 2850 Z  M 1993 2850 L 1993 2857 L 1992 2857 L 1992 2850 L 1993 2850 L 1993 2850 Z  M 1981 2849 L 1996 2849 C 1996.552 2849 1997 2849.448 1997 2850 L 1997 2857 C 1997 2857.552 1996.552 2858 1996 2858 L 1981 2858 C 1980.448 2858 1980 2857.552 1980 2857 L 1980 2850 C 1980 2849.448 1980.448 2849 1981 2849 L 1981 2849 L 1981 2849 L 1981 2849 L 1981 2849 L 1981 2849 L 1981 2849 Z  M 1995 2850 L 1995 2857 L 1994 2857 L 1994 2850 L 1995 2850 Z " fill-rule="evenodd" id="Fill-A" fill="rgb(215,215,215)"/></g></svg>