<?xml version="1.0" encoding="UTF-8" standalone="no"?><!-- Generator: Gravit.io --><svg xmlns="http://www.w3.org/2000/svg" xmlns:xlink="http://www.w3.org/1999/xlink" style="isolation:isolate" viewBox="2487 1125 24 24" width="24" height="24"><g id="apply-to-fill"><g opacity="0"><rect x="2487" y="1125" width="24" height="24" transform="matrix(1,0,0,1,0,0)" id="Icon Background" fill="rgb(37,86,132)"/></g><path d=" M 2490 1132 L 2492 1132 L 2492 1134 L 2490 1134 L 2490 1132 L 2490 1132 L 2490 1132 L 2490 1132 L 2490 1132 L 2490 1132 L 2490 1132 L 2490 1132 L 2490 1132 L 2490 1132 L 2490 1132 L 2490 1132 L 2490 1132 L 2490 1132 L 2490 1132 L 2490 1132 L 2490 1132 L 2490 1132 L 2490 1132 L 2490 1132 L 2490 1132 L 2490 1132 L 2490 1132 L 2490 1132 L 2490 1132 L 2490 1132 L 2490 1132 L 2490 1132 L 2490 1132 L 2490 1132 L 2490 1132 Z  M 2488 1134 L 2490 1134 L 2490 1136 L 2490 1136 L 2488 1136 L 2488 1134 L 2488 1134 L 2488 1134 L 2488 1134 L 2488 1134 L 2488 1134 L 2488 1134 L 2488 1134 L 2488 1134 L 2488 1134 L 2488 1134 L 2488 1134 L 2488 1134 L 2488 1134 L 2488 1134 L 2488 1134 L 2488 1134 L 2488 1134 L 2488 1134 L 2488 1134 L 2488 1134 L 2488 1134 L 2488 1134 L 2488 1134 L 2488 1134 L 2488 1134 L 2488 1134 L 2488 1134 L 2488 1134 L 2488 1134 L 2488 1134 L 2488 1134 L 2488 1134 L 2488 1134 L 2488 1134 Z  M 2488 1126 L 2490 1126 L 2490 1128 L 2490 1128 L 2488 1128 L 2488 1126 L 2488 1126 L 2488 1126 L 2488 1126 L 2488 1126 L 2488 1126 L 2488 1126 L 2488 1126 L 2488 1126 L 2488 1126 L 2488 1126 L 2488 1126 L 2488 1126 L 2488 1126 L 2488 1126 L 2488 1126 L 2488 1126 L 2488 1126 L 2488 1126 L 2488 1126 L 2488 1126 L 2488 1126 L 2488 1126 L 2488 1126 L 2488 1126 L 2488 1126 L 2488 1126 L 2488 1126 L 2488 1126 L 2488 1126 L 2488 1126 L 2488 1126 L 2488 1126 L 2488 1126 Z  M 2490 1136 L 2490 1136 L 2492 1136 L 2492 1138 L 2490 1138 L 2490 1136 L 2490 1136 L 2490 1136 L 2490 1136 L 2490 1136 L 2490 1136 L 2490 1136 L 2490 1136 L 2490 1136 L 2490 1136 L 2490 1136 L 2490 1136 L 2490 1136 L 2490 1136 L 2490 1136 L 2490 1136 L 2490 1136 L 2490 1136 L 2490 1136 L 2490 1136 L 2490 1136 L 2490 1136 L 2490 1136 L 2490 1136 L 2490 1136 L 2490 1136 L 2490 1136 L 2490 1136 L 2490 1136 L 2490 1136 L 2490 1136 L 2490 1136 L 2490 1136 Z  M 2490 1128 L 2490 1128 L 2492 1128 L 2492 1130 L 2490 1130 L 2490 1128 L 2490 1128 L 2490 1128 L 2490 1128 L 2490 1128 L 2490 1128 L 2490 1128 L 2490 1128 L 2490 1128 L 2490 1128 L 2490 1128 L 2490 1128 L 2490 1128 L 2490 1128 L 2490 1128 L 2490 1128 L 2490 1128 L 2490 1128 L 2490 1128 L 2490 1128 L 2490 1128 L 2490 1128 L 2490 1128 L 2490 1128 L 2490 1128 L 2490 1128 L 2490 1128 L 2490 1128 L 2490 1128 L 2490 1128 L 2490 1128 L 2490 1128 Z  M 2488 1138 L 2490 1138 L 2490 1140 L 2490 1140 L 2488 1140 L 2488 1138 L 2488 1138 L 2488 1138 L 2488 1138 L 2488 1138 L 2488 1138 L 2488 1138 L 2488 1138 L 2488 1138 L 2488 1138 L 2488 1138 L 2488 1138 L 2488 1138 L 2488 1138 L 2488 1138 L 2488 1138 L 2488 1138 L 2488 1138 L 2488 1138 L 2488 1138 L 2488 1138 L 2488 1138 L 2488 1138 L 2488 1138 L 2488 1138 L 2488 1138 L 2488 1138 L 2488 1138 L 2488 1138 L 2488 1138 L 2488 1138 Z  M 2488 1130 L 2490 1130 L 2490 1132 L 2488 1132 L 2488 1130 L 2488 1130 L 2488 1130 L 2488 1130 L 2488 1130 L 2488 1130 L 2488 1130 L 2488 1130 L 2488 1130 L 2488 1130 L 2488 1130 L 2488 1130 L 2488 1130 L 2488 1130 L 2488 1130 L 2488 1130 L 2488 1130 L 2488 1130 L 2488 1130 L 2488 1130 L 2488 1130 L 2488 1130 L 2488 1130 L 2488 1130 L 2488 1130 L 2488 1130 L 2488 1130 L 2488 1130 L 2488 1130 L 2488 1130 Z  M 2490 1140 L 2490 1140 L 2492 1140 L 2492 1142 L 2490 1142 L 2490 1140 L 2490 1140 L 2490 1140 L 2490 1140 L 2490 1140 L 2490 1140 L 2490 1140 L 2490 1140 L 2490 1140 L 2490 1140 L 2490 1140 L 2490 1140 L 2490 1140 L 2490 1140 L 2490 1140 L 2490 1140 L 2490 1140 L 2490 1140 L 2490 1140 L 2490 1140 L 2490 1140 L 2490 1140 L 2490 1140 L 2490 1140 L 2490 1140 L 2490 1140 L 2490 1140 L 2490 1140 L 2490 1140 Z  M 2492 1126 L 2494 1126 L 2494 1128 L 2494 1128 L 2492 1128 L 2492 1126 L 2492 1126 L 2492 1126 L 2492 1126 L 2492 1126 L 2492 1126 L 2492 1126 L 2492 1126 L 2492 1126 L 2492 1126 L 2492 1126 L 2492 1126 L 2492 1126 L 2492 1126 L 2492 1126 L 2492 1126 L 2492 1126 L 2492 1126 L 2492 1126 L 2492 1126 L 2492 1126 L 2492 1126 L 2492 1126 L 2492 1126 L 2492 1126 L 2492 1126 L 2492 1126 L 2492 1126 Z  M 2494 1128 L 2494 1128 L 2496 1128 L 2496 1130 L 2494 1130 L 2494 1128 L 2494 1128 L 2494 1128 L 2494 1128 L 2494 1128 L 2494 1128 L 2494 1128 L 2494 1128 L 2494 1128 L 2494 1128 L 2494 1128 L 2494 1128 L 2494 1128 L 2494 1128 L 2494 1128 L 2494 1128 L 2494 1128 L 2494 1128 L 2494 1128 L 2494 1128 L 2494 1128 L 2494 1128 L 2494 1128 L 2494 1128 L 2494 1128 L 2494 1128 L 2494 1128 Z  M 2496 1126 L 2498 1126 L 2498 1128 L 2498 1128 L 2496 1128 L 2496 1126 L 2496 1126 L 2496 1126 L 2496 1126 L 2496 1126 L 2496 1126 L 2496 1126 L 2496 1126 L 2496 1126 L 2496 1126 L 2496 1126 L 2496 1126 L 2496 1126 L 2496 1126 L 2496 1126 L 2496 1126 L 2496 1126 L 2496 1126 L 2496 1126 L 2496 1126 L 2496 1126 L 2496 1126 L 2496 1126 L 2496 1126 L 2496 1126 L 2496 1126 Z  M 2498 1128 L 2498 1128 L 2500 1128 L 2500 1130 L 2498 1130 L 2498 1128 L 2498 1128 L 2498 1128 L 2498 1128 L 2498 1128 L 2498 1128 L 2498 1128 L 2498 1128 L 2498 1128 L 2498 1128 L 2498 1128 L 2498 1128 L 2498 1128 L 2498 1128 L 2498 1128 L 2498 1128 L 2498 1128 L 2498 1128 L 2498 1128 L 2498 1128 L 2498 1128 L 2498 1128 L 2498 1128 L 2498 1128 L 2498 1128 Z  M 2500 1126 L 2502 1126 L 2502 1128 L 2502 1128 L 2500 1128 L 2500 1126 L 2500 1126 L 2500 1126 L 2500 1126 L 2500 1126 L 2500 1126 L 2500 1126 L 2500 1126 L 2500 1126 L 2500 1126 L 2500 1126 L 2500 1126 L 2500 1126 L 2500 1126 L 2500 1126 L 2500 1126 L 2500 1126 L 2500 1126 L 2500 1126 L 2500 1126 L 2500 1126 L 2500 1126 L 2500 1126 L 2500 1126 Z  M 2502 1128 L 2502 1128 L 2504 1128 L 2504 1130 L 2502 1130 L 2502 1128 L 2502 1128 L 2502 1128 L 2502 1128 L 2502 1128 L 2502 1128 L 2502 1128 L 2502 1128 L 2502 1128 L 2502 1128 L 2502 1128 L 2502 1128 L 2502 1128 L 2502 1128 L 2502 1128 L 2502 1128 L 2502 1128 L 2502 1128 L 2502 1128 L 2502 1128 L 2502 1128 L 2502 1128 L 2502 1128 Z  M 2488 1142 L 2490 1142 L 2490 1144 L 2490 1144 L 2488 1144 L 2488 1142 L 2488 1142 L 2488 1142 L 2488 1142 L 2488 1142 L 2488 1142 L 2488 1142 L 2488 1142 L 2488 1142 L 2488 1142 L 2488 1142 L 2488 1142 L 2488 1142 L 2488 1142 L 2488 1142 L 2488 1142 L 2488 1142 L 2488 1142 L 2488 1142 L 2488 1142 L 2488 1142 L 2488 1142 Z  M 2490 1144 L 2490 1144 L 2492 1144 L 2492 1146 L 2492 1146 L 2490 1146 L 2490 1144 L 2490 1144 L 2490 1144 L 2490 1144 L 2490 1144 L 2490 1144 L 2490 1144 L 2490 1144 L 2490 1144 L 2490 1144 L 2490 1144 L 2490 1144 L 2490 1144 L 2490 1144 L 2490 1144 L 2490 1144 L 2490 1144 L 2490 1144 L 2490 1144 L 2490 1144 L 2490 1144 Z  M 2488 1146 L 2490 1146 L 2490 1148 L 2488 1148 L 2488 1146 L 2488 1146 L 2488 1146 L 2488 1146 L 2488 1146 L 2488 1146 L 2488 1146 L 2488 1146 L 2488 1146 L 2488 1146 L 2488 1146 L 2488 1146 L 2488 1146 L 2488 1146 L 2488 1146 L 2488 1146 L 2488 1146 L 2488 1146 L 2488 1146 L 2488 1146 Z  M 2494 1144 L 2496 1144 L 2496 1146 L 2496 1146 L 2494 1146 L 2494 1144 L 2494 1144 L 2494 1144 L 2494 1144 L 2494 1144 L 2494 1144 L 2494 1144 L 2494 1144 L 2494 1144 L 2494 1144 L 2494 1144 L 2494 1144 L 2494 1144 L 2494 1144 L 2494 1144 L 2494 1144 L 2494 1144 L 2494 1144 L 2494 1144 Z  M 2492 1146 L 2492 1146 L 2494 1146 L 2494 1148 L 2492 1148 L 2492 1146 L 2492 1146 L 2492 1146 L 2492 1146 L 2492 1146 L 2492 1146 L 2492 1146 L 2492 1146 L 2492 1146 L 2492 1146 L 2492 1146 L 2492 1146 L 2492 1146 L 2492 1146 L 2492 1146 L 2492 1146 L 2492 1146 L 2492 1146 Z  M 2498 1144 L 2500 1144 L 2500 1146 L 2500 1146 L 2498 1146 L 2498 1144 L 2498 1144 L 2498 1144 L 2498 1144 L 2498 1144 L 2498 1144 L 2498 1144 L 2498 1144 L 2498 1144 L 2498 1144 L 2498 1144 L 2498 1144 L 2498 1144 L 2498 1144 L 2498 1144 L 2498 1144 L 2498 1144 Z  M 2496 1146 L 2496 1146 L 2498 1146 L 2498 1148 L 2496 1148 L 2496 1146 L 2496 1146 L 2496 1146 L 2496 1146 L 2496 1146 L 2496 1146 L 2496 1146 L 2496 1146 L 2496 1146 L 2496 1146 L 2496 1146 L 2496 1146 L 2496 1146 L 2496 1146 L 2496 1146 L 2496 1146 Z  M 2502 1144 L 2504 1144 L 2504 1146 L 2504 1146 L 2502 1146 L 2502 1144 L 2502 1144 L 2502 1144 L 2502 1144 L 2502 1144 L 2502 1144 L 2502 1144 L 2502 1144 L 2502 1144 L 2502 1144 L 2502 1144 L 2502 1144 L 2502 1144 L 2502 1144 L 2502 1144 Z  M 2500 1146 L 2500 1146 L 2502 1146 L 2502 1148 L 2500 1148 L 2500 1146 L 2500 1146 L 2500 1146 L 2500 1146 L 2500 1146 L 2500 1146 L 2500 1146 L 2500 1146 L 2500 1146 L 2500 1146 L 2500 1146 L 2500 1146 L 2500 1146 L 2500 1146 Z  M 2506 1132 L 2508 1132 L 2508 1134 L 2508 1134 L 2506 1134 L 2506 1132 L 2506 1132 L 2506 1132 L 2506 1132 L 2506 1132 L 2506 1132 L 2506 1132 L 2506 1132 L 2506 1132 L 2506 1132 L 2506 1132 L 2506 1132 L 2506 1132 Z  M 2504 1126 L 2506 1126 L 2506 1128 L 2506 1128 L 2504 1128 L 2504 1126 L 2504 1126 L 2504 1126 L 2504 1126 L 2504 1126 L 2504 1126 L 2504 1126 L 2504 1126 L 2504 1126 L 2504 1126 L 2504 1126 L 2504 1126 Z  M 2506 1136 L 2508 1136 L 2508 1138 L 2508 1138 L 2506 1138 L 2506 1136 L 2506 1136 L 2506 1136 L 2506 1136 L 2506 1136 L 2506 1136 L 2506 1136 L 2506 1136 L 2506 1136 L 2506 1136 L 2506 1136 Z  M 2506 1128 L 2506 1128 L 2508 1128 L 2508 1130 L 2508 1130 L 2506 1130 L 2506 1128 L 2506 1128 L 2506 1128 L 2506 1128 L 2506 1128 L 2506 1128 L 2506 1128 L 2506 1128 L 2506 1128 L 2506 1128 Z  M 2506 1140 L 2508 1140 L 2508 1142 L 2508 1142 L 2506 1142 L 2506 1140 L 2506 1140 L 2506 1140 L 2506 1140 L 2506 1140 L 2506 1140 L 2506 1140 L 2506 1140 L 2506 1140 Z  M 2508 1134 L 2508 1134 L 2510 1134 L 2510 1136 L 2508 1136 L 2508 1134 L 2508 1134 L 2508 1134 L 2508 1134 L 2508 1134 L 2508 1134 L 2508 1134 L 2508 1134 Z  M 2508 1126 L 2510 1126 L 2510 1128 L 2508 1128 L 2508 1126 L 2508 1126 L 2508 1126 L 2508 1126 L 2508 1126 L 2508 1126 L 2508 1126 Z  M 2508 1138 L 2508 1138 L 2510 1138 L 2510 1140 L 2508 1140 L 2508 1138 L 2508 1138 L 2508 1138 L 2508 1138 L 2508 1138 L 2508 1138 Z  M 2508 1130 L 2508 1130 L 2510 1130 L 2510 1132 L 2508 1132 L 2508 1130 L 2508 1130 L 2508 1130 L 2508 1130 L 2508 1130 Z  M 2506 1144 L 2508 1144 L 2508 1146 L 2508 1146 L 2506 1146 L 2506 1144 L 2506 1144 L 2506 1144 L 2506 1144 Z  M 2504 1146 L 2504 1146 L 2506 1146 L 2506 1148 L 2504 1148 L 2504 1146 L 2504 1146 L 2504 1146 Z  M 2508 1142 L 2508 1142 L 2510 1142 L 2510 1144 L 2508 1144 L 2508 1142 L 2508 1142 Z  M 2508 1146 L 2508 1146 L 2510 1146 L 2510 1148 L 2508 1148 L 2508 1146 Z " fill-rule="evenodd" id="Fill-B" fill="rgb(161,161,161)"/><rect x="2492" y="1130" width="14" height="14" transform="matrix(1,0,0,1,0,0)" id="Fill-A" fill="rgb(215,215,215)"/></g></svg>