<?xml version="1.0" encoding="UTF-8" standalone="no"?><!-- Generator: Gravit.io --><svg xmlns="http://www.w3.org/2000/svg" xmlns:xlink="http://www.w3.org/1999/xlink" style="isolation:isolate" viewBox="2454 1124 24 24" width="24" height="24"><g id="apply-to-border"><g opacity="0"><rect x="2454" y="1124" width="24" height="24" transform="matrix(1,0,0,1,0,0)" id="Icon Background" fill="rgb(37,86,132)"/></g><path d=" M 2455 1125 L 2477 1125 L 2477 1147 L 2455 1147 L 2455 1125 Z  M 2459 1129 L 2473 1129 L 2473 1143 L 2459 1143 L 2459 1129 Z " fill-rule="evenodd" id="Fill-A" fill="rgb(215,215,215)"/><path d=" M 2461 1135 L 2463 1135 L 2463 1137 L 2463 1137 L 2461 1137 L 2461 1135 L 2461 1135 L 2461 1135 L 2461 1135 L 2461 1135 L 2461 1135 L 2461 1135 L 2461 1135 L 2461 1135 L 2461 1135 L 2461 1135 L 2461 1135 L 2461 1135 L 2461 1135 L 2461 1135 L 2461 1135 L 2461 1135 L 2461 1135 L 2461 1135 L 2461 1135 Z  M 2459 1137 L 2461 1137 L 2461 1139 L 2461 1139 L 2459 1139 L 2459 1137 L 2459 1137 L 2459 1137 L 2459 1137 L 2459 1137 L 2459 1137 L 2459 1137 L 2459 1137 L 2459 1137 L 2459 1137 L 2459 1137 L 2459 1137 L 2459 1137 L 2459 1137 L 2459 1137 L 2459 1137 L 2459 1137 L 2459 1137 L 2459 1137 L 2459 1137 L 2459 1137 L 2459 1137 L 2459 1137 L 2459 1137 Z  M 2459 1129 L 2461 1129 L 2461 1131 L 2461 1131 L 2459 1131 L 2459 1129 L 2459 1129 L 2459 1129 L 2459 1129 L 2459 1129 L 2459 1129 L 2459 1129 L 2459 1129 L 2459 1129 L 2459 1129 L 2459 1129 L 2459 1129 L 2459 1129 L 2459 1129 L 2459 1129 L 2459 1129 L 2459 1129 L 2459 1129 L 2459 1129 L 2459 1129 L 2459 1129 L 2459 1129 L 2459 1129 Z  M 2461 1139 L 2461 1139 L 2463 1139 L 2463 1141 L 2463 1141 L 2461 1141 L 2461 1139 L 2461 1139 L 2461 1139 L 2461 1139 L 2461 1139 L 2461 1139 L 2461 1139 L 2461 1139 L 2461 1139 L 2461 1139 L 2461 1139 L 2461 1139 L 2461 1139 L 2461 1139 L 2461 1139 L 2461 1139 L 2461 1139 L 2461 1139 L 2461 1139 L 2461 1139 L 2461 1139 L 2461 1139 Z  M 2461 1131 L 2461 1131 L 2463 1131 L 2463 1133 L 2463 1133 L 2461 1133 L 2461 1131 L 2461 1131 L 2461 1131 L 2461 1131 L 2461 1131 L 2461 1131 L 2461 1131 L 2461 1131 L 2461 1131 L 2461 1131 L 2461 1131 L 2461 1131 L 2461 1131 L 2461 1131 L 2461 1131 L 2461 1131 L 2461 1131 L 2461 1131 L 2461 1131 L 2461 1131 L 2461 1131 Z  M 2459 1141 L 2461 1141 L 2461 1143 L 2459 1143 L 2459 1141 L 2459 1141 L 2459 1141 L 2459 1141 L 2459 1141 L 2459 1141 L 2459 1141 L 2459 1141 L 2459 1141 L 2459 1141 L 2459 1141 L 2459 1141 L 2459 1141 L 2459 1141 L 2459 1141 L 2459 1141 L 2459 1141 L 2459 1141 L 2459 1141 L 2459 1141 Z  M 2459 1133 L 2461 1133 L 2461 1135 L 2459 1135 L 2459 1133 L 2459 1133 L 2459 1133 L 2459 1133 L 2459 1133 L 2459 1133 L 2459 1133 L 2459 1133 L 2459 1133 L 2459 1133 L 2459 1133 L 2459 1133 L 2459 1133 L 2459 1133 L 2459 1133 L 2459 1133 L 2459 1133 L 2459 1133 L 2459 1133 Z  M 2465 1135 L 2465 1135 L 2465 1135 L 2465 1135 L 2465 1135 L 2465 1135 L 2467 1135 L 2467 1137 L 2467 1137 L 2465 1137 L 2465 1135 L 2465 1135 L 2465 1135 L 2465 1135 L 2465 1135 L 2465 1135 L 2465 1135 L 2465 1135 L 2465 1135 L 2465 1135 L 2465 1135 L 2465 1135 L 2465 1135 Z  M 2463 1137 L 2463 1137 L 2465 1137 L 2465 1139 L 2465 1139 L 2463 1139 L 2463 1137 L 2463 1137 L 2463 1137 L 2463 1137 L 2463 1137 L 2463 1137 L 2463 1137 L 2463 1137 L 2463 1137 L 2463 1137 L 2463 1137 L 2463 1137 L 2463 1137 L 2463 1137 L 2463 1137 L 2463 1137 L 2463 1137 Z  M 2463 1129 L 2465 1129 L 2465 1131 L 2465 1131 L 2463 1131 L 2463 1129 L 2463 1129 L 2463 1129 L 2463 1129 L 2463 1129 L 2463 1129 L 2463 1129 L 2463 1129 L 2463 1129 L 2463 1129 L 2463 1129 L 2463 1129 L 2463 1129 L 2463 1129 L 2463 1129 L 2463 1129 Z  M 2465 1139 L 2465 1139 L 2467 1139 L 2467 1141 L 2467 1141 L 2465 1141 L 2465 1139 L 2465 1139 L 2465 1139 L 2465 1139 L 2465 1139 L 2465 1139 L 2465 1139 L 2465 1139 L 2465 1139 L 2465 1139 L 2465 1139 L 2465 1139 L 2465 1139 L 2465 1139 L 2465 1139 Z  M 2465 1131 L 2465 1131 L 2467 1131 L 2467 1133 L 2467 1133 L 2465 1133 L 2465 1131 L 2465 1131 L 2465 1131 L 2465 1131 L 2465 1131 L 2465 1131 L 2465 1131 L 2465 1131 L 2465 1131 L 2465 1131 L 2465 1131 L 2465 1131 L 2465 1131 L 2465 1131 Z  M 2463 1141 L 2463 1141 L 2465 1141 L 2465 1143 L 2463 1143 L 2463 1141 L 2463 1141 L 2463 1141 L 2463 1141 L 2463 1141 L 2463 1141 L 2463 1141 L 2463 1141 L 2463 1141 L 2463 1141 L 2463 1141 L 2463 1141 L 2463 1141 Z  M 2463 1133 L 2463 1133 L 2465 1133 L 2465 1135 L 2463 1135 L 2463 1133 L 2463 1133 L 2463 1133 L 2463 1133 L 2463 1133 L 2463 1133 L 2463 1133 L 2463 1133 L 2463 1133 L 2463 1133 L 2463 1133 L 2463 1133 Z  M 2469 1135 L 2469 1135 L 2469 1135 L 2469 1135 L 2469 1135 L 2469 1135 L 2471 1135 L 2471 1137 L 2471 1137 L 2469 1137 L 2469 1135 L 2469 1135 L 2469 1135 L 2469 1135 L 2469 1135 L 2469 1135 Z  M 2467 1137 L 2467 1137 L 2469 1137 L 2469 1139 L 2469 1139 L 2467 1139 L 2467 1137 L 2467 1137 L 2467 1137 L 2467 1137 L 2467 1137 L 2467 1137 L 2467 1137 L 2467 1137 L 2467 1137 L 2467 1137 Z  M 2467 1129 L 2469 1129 L 2469 1131 L 2469 1131 L 2467 1131 L 2467 1129 L 2467 1129 L 2467 1129 L 2467 1129 L 2467 1129 L 2467 1129 L 2467 1129 L 2467 1129 L 2467 1129 Z  M 2469 1139 L 2469 1139 L 2471 1139 L 2471 1141 L 2471 1141 L 2469 1141 L 2469 1139 L 2469 1139 L 2469 1139 L 2469 1139 L 2469 1139 L 2469 1139 L 2469 1139 L 2469 1139 Z  M 2469 1131 L 2469 1131 L 2471 1131 L 2471 1133 L 2471 1133 L 2469 1133 L 2469 1131 L 2469 1131 L 2469 1131 L 2469 1131 L 2469 1131 L 2469 1131 L 2469 1131 Z  M 2467 1141 L 2467 1141 L 2469 1141 L 2469 1143 L 2467 1143 L 2467 1141 L 2467 1141 L 2467 1141 L 2467 1141 L 2467 1141 L 2467 1141 Z  M 2467 1133 L 2467 1133 L 2469 1133 L 2469 1135 L 2467 1135 L 2467 1133 L 2467 1133 L 2467 1133 L 2467 1133 L 2467 1133 Z  M 2471 1137 L 2471 1137 L 2473 1137 L 2473 1139 L 2471 1139 L 2471 1137 L 2471 1137 L 2471 1137 L 2471 1137 Z  M 2471 1129 L 2473 1129 L 2473 1131 L 2471 1131 L 2471 1129 L 2471 1129 L 2471 1129 Z  M 2471 1141 L 2471 1141 L 2473 1141 L 2473 1143 L 2471 1143 L 2471 1141 L 2471 1141 Z  M 2471 1133 L 2471 1133 L 2473 1133 L 2473 1135 L 2471 1135 L 2471 1133 Z " fill-rule="evenodd" id="Fill-B" fill="rgb(161,161,161)"/></g></svg>