<?xml version="1.0" encoding="UTF-8" standalone="no"?><!-- Generator: Gravit.io --><svg xmlns="http://www.w3.org/2000/svg" xmlns:xlink="http://www.w3.org/1999/xlink" style="isolation:isolate" viewBox="1978 664 24 24" width="24" height="24"><g id="arrange"><g opacity="0"><rect x="1978" y="664" width="24" height="24" transform="matrix(1,0,0,1,0,0)" id="Icon Background" fill="rgb(37,86,132)"/></g><path d=" M 1997.008 674 L 1994.008 674 L 1997.508 669 L 2001.008 674 L 1998.008 674 L 1998.008 681 L 1997.008 681 L 1997.008 674 Z  M 1991.008 682 L 1988.008 682 L 1991.508 687 L 1995.008 682 L 1992.008 682 L 1992.008 675 L 1991.008 675 L 1991.008 682 Z " fill-rule="evenodd" id="Fill-A" fill="rgb(215,215,215)"/><path d=" M 1989.01 675.995 L 1989 676 L 1979 670.5 L 1979 670.5 L 1979 670.5 L 1989 665 L 1995.403 668.522 L 1992.269 673 L 1992.269 673 L 1991.01 673 C 1989.906 673 1989.01 673.896 1989.01 675 L 1989.01 675.995 Z  M 1994.01 676 L 1994.01 676 L 1995.01 676 L 1995.01 676.802 L 1994.01 677.358 L 1994.01 676 Z  M 1989.01 677.854 L 1989 677.86 L 1980.49 673.13 C 1980.25 673 1979.98 672.97 1979.73 673.04 C 1979.47 673.11 1979.25 673.28 1979.13 673.51 C 1979 673.75 1978.97 674.02 1979.04 674.27 C 1979.11 674.53 1979.28 674.75 1979.51 674.87 L 1988.748 680 L 1989.01 680 L 1989.01 677.854 Z  M 1994.01 679.075 L 1995.01 678.52 L 1995.01 678.52 L 1995.01 678.52 L 1995.01 680 L 1994.01 680 L 1994.01 679.075 Z  M 1986.463 680.45 L 1980.49 677.13 C 1980.25 677 1979.98 676.97 1979.73 677.04 C 1979.47 677.11 1979.25 677.28 1979.13 677.51 C 1979 677.75 1978.97 678.02 1979.04 678.27 C 1979.11 678.53 1979.28 678.75 1979.51 678.87 L 1986.029 682.49 C 1985.683 681.623 1985.855 680.891 1986.463 680.45 Z " fill-rule="evenodd" id="Fill-B" fill="rgb(161,161,161)"/></g></svg>