<?xml version="1.0" encoding="UTF-8" standalone="no"?><!-- Generator: Gravit.io --><svg xmlns="http://www.w3.org/2000/svg" xmlns:xlink="http://www.w3.org/1999/xlink" style="isolation:isolate" viewBox="1978 265 24 24" width="24" height="24"><g id="arrow-left"><g opacity="0"><rect x="1978" y="265" width="24" height="24" transform="matrix(1,0,0,1,0,0)" id="Icon Background" fill="rgb(37,86,132)"/></g><path d=" M 1990.298 269.702 L 1990.298 269.702 C 1990.686 269.314 1991.317 269.317 1991.707 269.707 L 1999 277 L 1991.707 284.293 C 1991.317 284.683 1990.686 284.686 1990.298 284.298 L 1990.298 284.298 C 1989.911 283.911 1989.912 283.278 1990.301 282.886 L 1995.164 277.982 L 1982 277.982 C 1981.448 277.982 1981 277.542 1981 277 L 1981 277 C 1981 276.458 1981.448 276.018 1982 276.018 L 1995.164 276.018 L 1990.301 271.114 C 1989.912 270.722 1989.911 270.089 1990.298 269.702 Z " id="Fill-B" fill="rgb(161,161,161)"/></g></svg>