<?xml version="1.0" encoding="UTF-8" standalone="no"?><!-- Generator: Gravit.io --><svg xmlns="http://www.w3.org/2000/svg" xmlns:xlink="http://www.w3.org/1999/xlink" style="isolation:isolate" viewBox="1978 463 24 24" width="24" height="24"><g id="arrow-down"><g opacity="0"><rect x="1978" y="463" width="24" height="24" transform="matrix(1,0,0,1,0,0)" id="Icon Background" fill="rgb(37,86,132)"/></g><path d=" M 1997.298 475.298 L 1997.298 475.298 C 1997.686 475.686 1997.683 476.317 1997.293 476.707 L 1990 484 L 1982.707 476.707 C 1982.317 476.317 1982.314 475.686 1982.702 475.298 L 1982.702 475.298 C 1983.089 474.911 1983.722 474.912 1984.114 475.301 L 1989.018 480.164 L 1989.018 467 C 1989.018 466.448 1989.458 466 1990 466 L 1990 466 C 1990.542 466 1990.982 466.448 1990.982 467 L 1990.982 480.164 L 1995.886 475.301 C 1996.278 474.912 1996.911 474.911 1997.298 475.298 Z " id="Fill-B" fill="rgb(161,161,161)"/></g></svg>