<?xml version="1.0" encoding="UTF-8" standalone="no"?><!-- Generator: Gravit.io --><svg xmlns="http://www.w3.org/2000/svg" xmlns:xlink="http://www.w3.org/1999/xlink" style="isolation:isolate" viewBox="1545 1387 24 24" width="24" height="24"><g id="artboard"><g opacity="0"><rect x="1545" y="1387" width="24" height="24" transform="matrix(1,0,0,1,0,0)" id="Icon Background" fill="rgb(37,86,132)"/></g><path d=" M 1551 1393 L 1563 1393 L 1563 1405 L 1551 1405 L 1551 1393 L 1551 1393 L 1551 1393 L 1551 1393 L 1551 1393 L 1551 1393 L 1551 1393 L 1551 1393 L 1551 1393 Z  M 1550 1389 L 1551 1389 L 1551 1390 L 1550 1390 L 1550 1389 L 1550 1389 L 1550 1389 L 1550 1389 L 1550 1389 L 1550 1389 L 1550 1389 L 1550 1389 Z  M 1567 1392 L 1567 1393 L 1566 1393 L 1566 1392 L 1567 1392 L 1567 1392 L 1567 1392 L 1567 1392 L 1567 1392 L 1567 1392 L 1567 1392 Z  M 1563 1389 L 1564 1389 L 1564 1390 L 1563 1390 L 1563 1389 L 1563 1389 L 1563 1389 L 1563 1389 L 1563 1389 L 1563 1389 Z  M 1567 1406 L 1567 1407 L 1566 1407 L 1566 1406 L 1567 1406 L 1567 1406 L 1567 1406 L 1567 1406 L 1567 1406 Z  M 1550 1408 L 1551 1408 L 1551 1409 L 1550 1409 L 1550 1408 L 1550 1408 L 1550 1408 L 1550 1408 Z  M 1548 1392 L 1548 1393 L 1547 1393 L 1547 1392 L 1548 1392 L 1548 1392 L 1548 1392 Z  M 1563 1408 L 1564 1408 L 1564 1409 L 1563 1409 L 1563 1408 L 1563 1408 Z  M 1549 1391 L 1565 1391 L 1565 1407 L 1549 1407 L 1549 1391 L 1549 1391 L 1549 1391 L 1549 1391 L 1549 1391 L 1549 1391 L 1549 1391 L 1549 1391 L 1549 1391 Z  M 1548 1406 L 1548 1407 L 1547 1407 L 1547 1406 L 1548 1406 Z " fill-rule="evenodd" id="Fill-B" fill="rgb(161,161,161)"/></g></svg>