<?xml version="1.0" encoding="UTF-8" standalone="no"?><!-- Generator: Gravit.io --><svg xmlns="http://www.w3.org/2000/svg" xmlns:xlink="http://www.w3.org/1999/xlink" style="isolation:isolate" viewBox="778 1527 24 24" width="24" height="24"><g id="bring-forward"><g opacity="0"><rect x="778" y="1527" width="24" height="24" transform="matrix(1,0,0,1,0,0)" id="Icon Background" fill="rgb(37,86,132)"/></g><path d=" M 797.51 1537.13 C 797.75 1537 798.02 1536.97 798.27 1537.04 C 798.53 1537.11 798.75 1537.28 798.87 1537.51 C 799 1537.75 799.03 1538.02 798.96 1538.27 C 798.89 1538.53 798.72 1538.75 798.49 1538.87 L 789 1544.14 L 779.51 1538.87 C 779.28 1538.75 779.11 1538.53 779.04 1538.27 C 778.97 1538.02 779 1537.75 779.13 1537.51 C 779.25 1537.28 779.47 1537.11 779.73 1537.04 C 779.98 1536.97 780.25 1537 780.49 1537.13 L 789 1541.86 L 797.51 1537.13 Z  M 797.008 1547 L 794.008 1547 L 797.508 1542 L 801.008 1547 L 798.008 1547 L 798.008 1549 L 797.008 1549 L 797.008 1547 Z " fill-rule="evenodd" id="Fill-A" fill="rgb(215,215,215)"/><path d=" M 779 1534.5 L 789 1540 L 799 1534.5 L 789 1529 L 779 1534.5 Z  M 792.112 1546.412 L 789 1548.14 L 779.51 1542.87 C 779.28 1542.75 779.11 1542.53 779.04 1542.27 C 778.97 1542.02 779 1541.75 779.13 1541.51 C 779.25 1541.28 779.47 1541.11 779.73 1541.04 C 779.98 1540.97 780.25 1541 780.49 1541.13 L 789 1545.86 L 794.726 1542.678 L 792.112 1546.412 Z " fill-rule="evenodd" id="Fill-B" fill="rgb(161,161,161)"/></g></svg>