<?xml version="1.0" encoding="UTF-8" standalone="no"?><!-- Generator: Gravit.io --><svg xmlns="http://www.w3.org/2000/svg" xmlns:xlink="http://www.w3.org/1999/xlink" style="isolation:isolate" viewBox="778 1659 24 24" width="24" height="24"><g id="bring-to-front"><g opacity="0"><rect x="778" y="1659" width="24" height="24" transform="matrix(1,0,0,1,0,0)" id="Icon Background" fill="rgb(37,86,132)"/></g><path d=" M 797.008 1672 L 794.008 1672 L 797.508 1667 L 801.008 1672 L 798.008 1672 L 798.008 1681 L 797.008 1681 L 797.008 1672 Z  M 793.284 1669.644 L 789 1672 L 779 1666.5 L 789 1661 L 796.621 1665.192 C 796.323 1665.362 796.043 1665.623 795.803 1665.974 L 793.284 1669.644 Z " fill-rule="evenodd" id="Fill-A" fill="rgb(215,215,215)"/><path d=" M 793.221 1673.796 L 789 1676.14 L 779.51 1670.87 C 779.28 1670.75 779.11 1670.53 779.04 1670.27 C 778.97 1670.02 779 1669.75 779.13 1669.51 C 779.25 1669.28 779.47 1669.11 779.73 1669.04 C 779.98 1668.97 780.25 1669 780.49 1669.13 L 789 1673.86 L 792.077 1672.15 C 792.045 1672.91 792.447 1673.499 793.221 1673.796 Z  M 795 1676.808 L 789 1680.14 L 779.51 1674.87 C 779.28 1674.75 779.11 1674.53 779.04 1674.27 C 778.97 1674.02 779 1673.75 779.13 1673.51 C 779.25 1673.28 779.47 1673.11 779.73 1673.04 C 779.98 1672.97 780.25 1673 780.49 1673.13 L 789 1677.86 L 795 1674.525 L 795 1676.808 Z " fill-rule="evenodd" id="Fill-B" fill="rgb(161,161,161)"/></g></svg>