<?xml version="1.0" encoding="UTF-8" standalone="no"?><!-- Generator: Gravit.io --><svg xmlns="http://www.w3.org/2000/svg" xmlns:xlink="http://www.w3.org/1999/xlink" style="isolation:isolate" viewBox="778 1461 24 24" width="24" height="24"><g id="clip"><g opacity="0"><rect x="778" y="1461" width="24" height="24" transform="matrix(1,0,0,1,0,0)" id="Icon Background" fill="rgb(37,86,132)"/></g><path d=" M 794.5 1467 C 790.913 1467 788 1469.913 788 1473.5 C 788 1477.087 790.913 1480 794.5 1480 L 794.5 1467 Z " id="Fill-A" fill="rgb(215,215,215)"/><path d=" M 800.5 1473.004 L 800.5 1473.004 C 800.224 1473.004 800 1473.228 800 1473.504 L 800 1473.504 C 800 1473.78 800.224 1474.004 800.5 1474.004 L 800.5 1474.004 C 800.776 1474.004 801 1473.78 801 1473.504 L 801 1473.504 C 801 1473.228 800.776 1473.004 800.5 1473.004 L 800.5 1473.004 L 800.5 1473.004 L 800.5 1473.004 L 800.5 1473.004 L 800.5 1473.004 L 800.5 1473.004 L 800.5 1473.004 L 800.5 1473.004 Z  M 800.361 1474.884 L 800.361 1474.884 C 800.098 1474.799 799.816 1474.943 799.731 1475.205 L 799.731 1475.205 C 799.645 1475.467 799.789 1475.75 800.052 1475.835 L 800.052 1475.835 C 800.314 1475.92 800.596 1475.776 800.682 1475.514 L 800.682 1475.514 C 800.767 1475.252 800.623 1474.969 800.361 1474.884 L 800.361 1474.884 L 800.361 1474.884 L 800.361 1474.884 L 800.361 1474.884 L 800.361 1474.884 L 800.361 1474.884 L 800.361 1474.884 L 800.361 1474.884 Z  M 799.647 1476.629 L 799.647 1476.629 C 799.424 1476.467 799.111 1476.516 798.949 1476.739 L 798.949 1476.739 C 798.787 1476.963 798.836 1477.276 799.059 1477.438 L 799.059 1477.438 C 799.283 1477.6 799.596 1477.55 799.758 1477.327 L 799.758 1477.327 C 799.92 1477.104 799.87 1476.791 799.647 1476.629 L 799.647 1476.629 L 799.647 1476.629 L 799.647 1476.629 L 799.647 1476.629 L 799.647 1476.629 L 799.647 1476.629 L 799.647 1476.629 Z  M 798.43 1478.068 L 798.43 1478.068 C 798.267 1477.844 797.954 1477.795 797.731 1477.957 L 797.731 1477.957 C 797.508 1478.119 797.458 1478.432 797.62 1478.655 L 797.62 1478.655 C 797.783 1478.879 798.096 1478.928 798.319 1478.766 L 798.319 1478.766 C 798.542 1478.604 798.592 1478.291 798.43 1478.068 L 798.43 1478.068 L 798.43 1478.068 L 798.43 1478.068 L 798.43 1478.068 L 798.43 1478.068 L 798.43 1478.068 Z  M 796.827 1479.06 L 796.827 1479.06 C 796.742 1478.797 796.459 1478.654 796.197 1478.739 L 796.197 1478.739 C 795.934 1478.824 795.79 1479.106 795.876 1479.369 L 795.876 1479.369 C 795.961 1479.631 796.243 1479.775 796.506 1479.69 L 796.506 1479.69 C 796.768 1479.605 796.912 1479.322 796.827 1479.06 L 796.827 1479.06 L 796.827 1479.06 L 796.827 1479.06 L 796.827 1479.06 L 796.827 1479.06 Z  M 796.827 1467.948 L 796.827 1467.948 C 796.912 1467.686 796.768 1467.404 796.506 1467.318 L 796.506 1467.318 C 796.243 1467.233 795.961 1467.377 795.876 1467.639 L 795.876 1467.639 C 795.79 1467.902 795.934 1468.184 796.197 1468.269 L 796.197 1468.269 C 796.459 1468.355 796.742 1468.211 796.827 1467.948 L 796.827 1467.948 L 796.827 1467.948 L 796.827 1467.948 L 796.827 1467.948 Z  M 798.43 1468.941 L 798.43 1468.941 C 798.592 1468.717 798.542 1468.404 798.319 1468.242 L 798.319 1468.242 C 798.096 1468.08 797.783 1468.13 797.62 1468.353 L 797.62 1468.353 C 797.458 1468.576 797.508 1468.889 797.731 1469.051 L 797.731 1469.051 C 797.954 1469.213 798.267 1469.164 798.43 1468.941 L 798.43 1468.941 L 798.43 1468.941 L 798.43 1468.941 Z  M 799.647 1470.38 L 799.647 1470.38 C 799.87 1470.217 799.92 1469.904 799.758 1469.681 L 799.758 1469.681 C 799.596 1469.458 799.283 1469.408 799.059 1469.57 L 799.059 1469.57 C 798.836 1469.733 798.787 1470.046 798.949 1470.269 L 798.949 1470.269 C 799.111 1470.492 799.424 1470.542 799.647 1470.38 L 799.647 1470.38 L 799.647 1470.38 Z  M 800.361 1472.124 L 800.361 1472.124 C 800.623 1472.039 800.767 1471.757 800.682 1471.494 L 800.682 1471.494 C 800.596 1471.232 800.314 1471.088 800.052 1471.173 L 800.052 1471.173 C 799.789 1471.259 799.645 1471.541 799.731 1471.803 L 799.731 1471.803 C 799.816 1472.066 800.098 1472.21 800.361 1472.124 L 800.361 1472.124 Z  M 793 1482 L 782 1482 L 782 1465 L 793 1465 L 793 1482 L 793 1482 Z  M 795 1484 L 780 1484 L 780 1463 L 795 1463 L 795 1484 L 795 1484 Z " fill-rule="evenodd" id="Fill-B" fill="rgb(161,161,161)"/></g></svg>