<?xml version="1.0" encoding="UTF-8" standalone="no"?><!-- Generator: Gravit.io --><svg xmlns="http://www.w3.org/2000/svg" xmlns:xlink="http://www.w3.org/1999/xlink" style="isolation:isolate" viewBox="1545 2583 24 24" width="24" height="24"><g id="close"><g opacity="0"><rect x="1545" y="2583" width="24" height="24" transform="matrix(1,0,0,1,0,0)" id="Icon Background" fill="rgb(37,86,132)"/></g><path d=" M 1568 2595 C 1568 2597.92 1566.84 2600.72 1564.78 2602.78 C 1562.72 2604.84 1559.92 2606 1557 2606 C 1554.08 2606 1551.28 2604.84 1549.22 2602.78 C 1547.16 2600.72 1546 2597.92 1546 2595 C 1546 2592.08 1547.16 2589.28 1549.22 2587.22 C 1551.28 2585.16 1554.08 2584 1557 2584 C 1559.92 2584 1562.72 2585.16 1564.78 2587.22 C 1566.84 2589.28 1568 2592.08 1568 2595 Z  M 1566 2595 C 1566 2597.39 1565.05 2599.68 1563.36 2601.36 C 1561.68 2603.05 1559.39 2604 1557 2604 C 1554.61 2604 1552.32 2603.05 1550.64 2601.36 C 1548.95 2599.68 1548 2597.39 1548 2595 C 1548 2592.61 1548.95 2590.32 1550.64 2588.64 C 1552.32 2586.95 1554.61 2586 1557 2586 C 1559.39 2586 1561.68 2586.95 1563.36 2588.64 C 1565.05 2590.32 1566 2592.61 1566 2595 Z " fill-rule="evenodd" id="Fill-B" fill="rgb(161,161,161)"/><path d=" M 1558.414 2595 L 1561.243 2592.172 L 1559.828 2590.757 L 1557 2593.586 L 1554.172 2590.757 L 1552.757 2592.172 L 1555.586 2595 L 1552.757 2597.828 L 1554.172 2599.243 L 1557 2596.414 L 1559.828 2599.243 L 1561.243 2597.828 L 1558.414 2595 Z " id="Fill-A" fill="rgb(215,215,215)"/></g></svg>