<?xml version="1.0" encoding="UTF-8" standalone="no"?><!-- Generator: Gravit.io --><svg xmlns="http://www.w3.org/2000/svg" xmlns:xlink="http://www.w3.org/1999/xlink" style="isolation:isolate" viewBox="2715 1051 24 24" width="24" height="24"><g id="cloud-sharepoint"><g opacity="0"><rect x="2715" y="1051" width="24" height="24" transform="matrix(1,0,0,1,0,0)" id="Icon Background" fill="rgb(37,86,132)"/></g><path d=" M 2734.699 1061.149 C 2734.573 1061.149 2734.449 1061.162 2734.331 1061.187 C 2733.874 1060.013 2732.978 1059.06 2731.846 1058.524 C 2731.856 1058.45 2731.861 1058.375 2731.861 1058.297 C 2731.861 1057.303 2731.055 1056.497 2730.06 1056.497 C 2729.638 1056.497 2729.253 1056.642 2728.945 1056.885 L 2728.945 1058.118 L 2728.945 1058.977 L 2728.945 1059.71 C 2729.253 1059.953 2729.638 1060.098 2730.06 1060.098 C 2730.675 1060.098 2731.217 1059.79 2731.542 1059.321 C 2732.471 1059.778 2733.197 1060.576 2733.56 1061.555 C 2733.157 1061.886 2732.898 1062.387 2732.898 1062.95 C 2732.898 1063.52 2733.163 1064.027 2733.575 1064.357 C 2733.216 1065.353 2732.483 1066.166 2731.542 1066.63 C 2731.217 1066.161 2730.675 1065.853 2730.06 1065.853 C 2729.638 1065.853 2729.251 1065.999 2728.945 1066.241 L 2728.945 1066.974 L 2728.945 1067.833 L 2728.945 1069.065 C 2729.251 1069.309 2729.638 1069.455 2730.06 1069.455 C 2731.055 1069.455 2731.861 1068.647 2731.861 1067.654 C 2731.861 1067.576 2731.856 1067.502 2731.846 1067.427 C 2732.993 1066.884 2733.896 1065.912 2734.349 1064.717 C 2734.462 1064.738 2734.578 1064.751 2734.699 1064.751 C 2735.694 1064.751 2736.5 1063.945 2736.5 1062.95 C 2736.5 1061.955 2735.694 1061.149 2734.699 1061.149 Z  M 2723.414 1066.5 C 2722.562 1067.119 2721.445 1066.857 2720.547 1066.488 C 2720.535 1065.967 2720.524 1065.444 2720.506 1064.918 C 2721.083 1065.345 2721.934 1065.972 2722.622 1065.39 C 2723.154 1064.498 2722.109 1063.93 2721.505 1063.498 C 2720.209 1062.715 2720.16 1060.572 2721.418 1059.735 C 2722.154 1059.269 2723.051 1059.416 2723.862 1059.53 C 2723.873 1060.022 2723.885 1060.518 2723.898 1061.009 C 2723.222 1060.797 2722.361 1060.367 2721.805 1061.055 C 2721.418 1062.066 2722.642 1062.448 2723.234 1062.976 C 2724.39 1063.723 2724.489 1065.645 2723.414 1066.5 L 2723.414 1066.5 Z  M 2717.522 1055.996 L 2717.5 1070.004 L 2727.957 1071.906 L 2727.957 1054.094 L 2717.522 1055.996 L 2717.522 1055.996 Z " fill-rule="evenodd" id="Fill-A" fill="rgb(215,215,215)"/></g></svg>