<?xml version="1.0" encoding="UTF-8" standalone="no"?><!-- Generator: Gravit.io --><svg xmlns="http://www.w3.org/2000/svg" xmlns:xlink="http://www.w3.org/1999/xlink" style="isolation:isolate" viewBox="2629 1051.003 24 24" width="24" height="24"><g id="cloud-corel"><g opacity="0"><rect x="2629" y="1051.003" width="24" height="24" transform="matrix(1,0,0,1,0,0)" id="Icon Background" fill="rgb(37,86,132)"/></g><path d=" M 2644.307 1069.041 L 2645.771 1069.041 L 2646.044 1067.829 L 2644.038 1067.829 L 2644.307 1069.041 L 2644.307 1069.041 Z  M 2645.033 1054.29 L 2645.033 1054.29 C 2645.026 1054.29 2645.02 1054.29 2645.013 1054.29 C 2645.006 1054.29 2645 1054.29 2644.993 1054.29 L 2644.993 1054.29 C 2639.113 1054.325 2637.048 1061.905 2644.993 1066.806 L 2645.013 1066.818 L 2645.033 1066.806 C 2652.979 1061.905 2650.914 1054.325 2645.033 1054.29 L 2645.033 1054.29 Z  M 2639.341 1060.858 C 2638.878 1060.916 2638.391 1061.023 2637.942 1061.195 C 2637.389 1061.407 2636.886 1061.718 2636.554 1062.155 C 2636.234 1062.575 2636.066 1063.132 2636.155 1063.862 C 2636.196 1064.194 2636.29 1064.56 2636.445 1064.965 L 2636.761 1065.788 L 2635.889 1065.651 C 2634.349 1065.408 2633.385 1065.86 2632.907 1066.578 C 2632.673 1066.93 2632.549 1067.348 2632.526 1067.782 C 2632.501 1068.226 2632.582 1068.684 2632.759 1069.101 C 2633.138 1069.993 2633.963 1070.698 2635.142 1070.679 L 2647.275 1070.697 C 2648.29 1070.699 2648.98 1070.151 2649.29 1069.449 C 2649.413 1069.169 2649.478 1068.868 2649.48 1068.568 C 2649.483 1068.269 2649.426 1067.97 2649.304 1067.697 C 2648.996 1067.004 2648.067 1066.54 2646.579 1066.446 L 2647.726 1065.493 C 2648.981 1065.892 2649.779 1066.253 2650.235 1067.281 C 2650.418 1067.69 2650.505 1068.134 2650.5 1068.576 C 2650.496 1069.017 2650.403 1069.458 2650.225 1069.861 C 2649.765 1070.905 2648.753 1071.72 2647.275 1071.717 L 2635.157 1071.698 C 2633.501 1071.725 2632.347 1070.743 2631.82 1069.501 C 2631.582 1068.941 2631.473 1068.325 2631.506 1067.726 C 2631.539 1067.117 2631.719 1066.522 2632.056 1066.014 C 2632.644 1065.13 2633.69 1064.517 2635.248 1064.566 C 2635.199 1064.366 2635.163 1064.172 2635.141 1063.987 C 2635.014 1062.966 2635.268 1062.163 2635.742 1061.54 C 2636.202 1060.934 2636.864 1060.517 2637.579 1060.243 C 2638.121 1060.035 2638.69 1059.909 2639.218 1059.844 L 2639.341 1060.858 Z " fill-rule="evenodd" id="Fill-A" fill="rgb(215,215,215)"/></g></svg>