<?xml version="1.0" encoding="UTF-8" standalone="no"?><!-- Generator: Gravit.io --><svg xmlns="http://www.w3.org/2000/svg" xmlns:xlink="http://www.w3.org/1999/xlink" style="isolation:isolate" viewBox="1040 3276 24 24" width="24" height="24"><g id="compound-difference-small"><g opacity="0"><rect x="1040" y="3276" width="24" height="24" transform="matrix(1,0,0,1,0,0)" id="Icon Background" fill="rgb(37,86,132)"/></g><path d=" M 1055 3285.083 L 1055 3282.222 C 1055 3281.548 1054.452 3281 1053.778 3281 L 1045.222 3281 C 1044.548 3281 1044 3281.548 1044 3282.222 L 1044 3290.778 C 1044 3291.452 1044.548 3292 1045.222 3292 L 1048.083 3292 C 1048.56 3294.836 1051.029 3297 1054 3297 L 1054 3297 C 1057.311 3297 1060 3294.312 1060 3291 L 1060 3291 C 1060 3288.029 1057.836 3285.56 1055 3285.083 Z  M 1055 3285.083 L 1055 3290.778 C 1055 3291.452 1054.452 3292 1053.778 3292 L 1048.083 3292 L 1048.083 3292 C 1048.028 3291.675 1048 3291.341 1048 3291 L 1048 3291 C 1048 3287.688 1050.688 3285 1054 3285 L 1054 3285 C 1054.341 3285 1054.675 3285.029 1055 3285.083 L 1055 3285.083 Z " fill-rule="evenodd" id="Fill-B" fill="rgb(161,161,161)"/></g></svg>