<?xml version="1.0" encoding="UTF-8" standalone="no"?><!-- Generator: Gravit.io --><svg xmlns="http://www.w3.org/2000/svg" xmlns:xlink="http://www.w3.org/1999/xlink" style="isolation:isolate" viewBox="1150 3246 24 24" width="24" height="24"><g id="compound-shape-small"><g opacity="0"><rect x="1150" y="3246" width="24" height="24" transform="matrix(1,0,0,1,0,0)" id="Icon Background" fill="rgb(37,86,132)"/></g><path d=" M 1165 3255.083 L 1165 3252.222 C 1165 3251.548 1164.452 3251 1163.778 3251 L 1155.222 3251 C 1154.548 3251 1154 3251.548 1154 3252.222 L 1154 3260.778 C 1154 3261.452 1154.548 3262 1155.222 3262 L 1158.083 3262 C 1158.56 3264.836 1161.029 3267 1164 3267 L 1164 3267 C 1167.311 3267 1170 3264.312 1170 3261 L 1170 3261 C 1170 3258.029 1167.836 3255.56 1165 3255.083 Z " id="Fill-B" fill="rgb(161,161,161)"/></g></svg>