<?xml version="1.0" encoding="UTF-8" standalone="no"?><!-- Generator: Gravit.io --><svg xmlns="http://www.w3.org/2000/svg" xmlns:xlink="http://www.w3.org/1999/xlink" style="isolation:isolate" viewBox="1040 3246 24 24" width="24" height="24"><g id="compound-intersect-small"><g opacity="0"><rect x="1040" y="3246" width="24" height="24" transform="matrix(1,0,0,1,0,0)" id="Icon Background" fill="rgb(37,86,132)"/></g><path d=" M 1055 3256.102 L 1055 3260.778 C 1055 3261.452 1054.452 3262 1053.778 3262 L 1049.102 3262 C 1049.329 3263.103 1049.914 3264.097 1050.77 3264.82 C 1051.67 3265.58 1052.82 3266 1054 3266 C 1055.33 3266 1056.6 3265.47 1057.54 3264.54 C 1058.47 3263.6 1059 3262.33 1059 3261 C 1059 3259.82 1058.58 3258.67 1057.82 3257.77 C 1057.097 3256.914 1056.102 3256.329 1055 3256.102 Z  M 1048 3261 C 1048 3261 1048 3261 1048 3261 L 1048 3261 C 1048 3257.688 1050.688 3255 1054 3255 L 1054 3255 L 1054 3252.22 L 1054 3252.22 C 1054 3252.16 1053.98 3252.11 1053.93 3252.07 C 1053.89 3252.02 1053.84 3252 1053.78 3252 L 1045.22 3252 C 1045.16 3252 1045.11 3252.02 1045.07 3252.07 C 1045.02 3252.11 1045 3252.16 1045 3252.22 L 1045 3260.78 C 1045 3260.84 1045.02 3260.89 1045.07 3260.93 C 1045.11 3260.98 1045.16 3261 1045.22 3261 L 1045.22 3261 L 1048 3261 Z  M 1055 3255.083 L 1055 3252.222 C 1055 3251.548 1054.452 3251 1053.778 3251 L 1045.222 3251 C 1044.547 3251 1044 3251.548 1044 3252.222 L 1044 3260.778 C 1044 3261.452 1044.547 3262 1045.222 3262 L 1048.083 3262 C 1048.56 3264.836 1051.029 3267 1054 3267 L 1054 3267 C 1057.311 3267 1060 3264.312 1060 3261 L 1060 3261 C 1060 3258.029 1057.836 3255.56 1055 3255.083 L 1055 3255.083 Z " fill-rule="evenodd" id="Fill-B" fill="rgb(161,161,161)"/></g></svg>