<?xml version="1.0" encoding="UTF-8" standalone="no"?><!-- Generator: Gravit.io --><svg xmlns="http://www.w3.org/2000/svg" xmlns:xlink="http://www.w3.org/1999/xlink" style="isolation:isolate" viewBox="1040 3306 24 24" width="24" height="24"><g id="compound-subtract-small"><g opacity="0"><rect x="1040" y="3306" width="24" height="24" transform="matrix(1,0,0,1,0,0)" id="Icon Background" fill="rgb(37,86,132)"/></g><path d=" M 1055 3315.083 L 1055 3312.222 C 1055 3311.548 1054.452 3311 1053.778 3311 L 1045.222 3311 C 1044.547 3311 1044 3311.548 1044 3312.222 L 1044 3320.778 C 1044 3321.452 1044.547 3322 1045.222 3322 L 1048.083 3322 L 1048.083 3322 C 1048.56 3324.836 1051.029 3327 1054 3327 L 1054 3327 C 1057.311 3327 1060 3324.312 1060 3321 L 1060 3321 C 1060 3318.029 1057.836 3315.56 1055 3315.083 Z  M 1054 3316 C 1055.33 3316 1056.6 3316.53 1057.54 3317.46 C 1058.47 3318.4 1059 3319.67 1059 3321 C 1059 3322.33 1058.47 3323.6 1057.54 3324.54 C 1056.6 3325.47 1055.33 3326 1054 3326 C 1052.67 3326 1051.4 3325.47 1050.46 3324.54 C 1049.53 3323.6 1049 3322.33 1049 3321 C 1049 3319.67 1049.53 3318.4 1050.46 3317.46 C 1051.4 3316.53 1052.67 3316 1054 3316 L 1054 3316 Z " fill-rule="evenodd" id="Fill-B" fill="rgb(161,161,161)"/></g></svg>