<?xml version="1.0" encoding="UTF-8" standalone="no"?><!-- Generator: Gravit.io --><svg xmlns="http://www.w3.org/2000/svg" xmlns:xlink="http://www.w3.org/1999/xlink" style="isolation:isolate" viewBox="778 1857 24 24" width="24" height="24"><g id="convert-to-path"><g opacity="0"><rect x="778" y="1857" width="24" height="24" transform="matrix(1,0,0,1,0,0)" id="Icon Background" fill="rgb(37,86,132)"/></g><path d=" M 797 1859 L 797 1858 L 798 1858 L 798 1859 L 797 1859 L 797 1859 L 797 1859 L 797 1859 L 797 1859 L 797 1859 Z  M 797 1875 L 797 1876 L 798 1876 L 798 1875 L 797 1875 L 797 1875 L 797 1875 L 797 1875 L 797 1875 L 797 1875 Z  M 797 1864 L 797 1863 L 798 1863 L 798 1864 L 797 1864 L 797 1864 L 797 1864 L 797 1864 Z  M 797 1870 L 797 1871 L 798 1871 L 798 1870 L 797 1870 L 797 1870 L 797 1870 Z  M 797 1862 L 797 1861 L 798 1861 L 798 1862 L 797 1862 L 797 1862 Z  M 796 1860 L 796 1857 L 799 1857 L 799 1860 L 796 1860 L 796 1860 L 796 1860 L 796 1860 L 796 1860 L 796 1860 Z  M 796 1874 L 796 1877 L 799 1877 L 799 1874 L 796 1874 L 796 1874 L 796 1874 L 796 1874 L 796 1874 L 796 1874 Z  M 797 1872 L 797 1873 L 798 1873 L 798 1872 L 797 1872 Z " fill-rule="evenodd" id="Fill-B" fill="rgb(161,161,161)"/><path d=" M 798.627 1868.879 C 798.384 1869.496 798.014 1870.061 797.54 1870.54 C 796.6 1871.47 795.33 1872 794 1872 L 788 1872 C 787.2 1872 786.44 1872.32 785.88 1872.88 C 785.32 1873.44 785 1874.2 785 1875 C 785 1875.8 785.32 1876.56 785.88 1877.12 C 786.44 1877.68 787.2 1878 788 1878 L 790 1878 L 790.268 1878 L 790.268 1878 C 790.614 1877.402 791.26 1877 792 1877 C 793.104 1877 794 1877.896 794 1879 C 794 1880.104 793.104 1881 792 1881 C 791.26 1881 790.614 1880.598 790.268 1880 L 790.268 1880 L 790 1880 L 788 1880 C 786.67 1880 785.4 1879.47 784.46 1878.54 C 783.53 1877.6 783 1876.33 783 1875 C 783 1873.67 783.53 1872.4 784.46 1871.46 C 785.4 1870.53 786.67 1870 788 1870 L 794 1870 C 794.8 1870 795.56 1869.68 796.12 1869.12 C 796.326 1868.914 796.499 1868.682 796.636 1868.429 C 796.238 1868.082 796 1867.569 796 1867 L 796 1867 C 796 1866.43 796.239 1865.916 796.638 1865.568 C 796.499 1865.318 796.326 1865.086 796.12 1864.88 C 795.56 1864.32 794.8 1864 794 1864 L 784 1864 L 783.732 1864 C 783.386 1864.598 782.74 1865 782 1865 C 780.896 1865 780 1864.104 780 1863 L 780 1863 C 780 1861.896 780.896 1861 782 1861 C 782.74 1861 783.386 1861.402 783.732 1862 L 783.732 1862 L 783.732 1862 L 784 1862 L 794 1862 C 795.33 1862 796.6 1862.53 797.54 1863.46 C 798.018 1863.943 798.391 1864.514 798.651 1865.131 C 799.441 1865.386 800 1866.128 800 1867 C 800 1867.882 799.428 1868.631 798.627 1868.879 Z  M 781.006 1862.998 C 781.006 1862.737 781.106 1862.485 781.298 1862.294 C 781.479 1862.113 781.74 1862.002 782.002 1862.002 C 782.263 1862.002 782.515 1862.113 782.706 1862.294 C 782.887 1862.485 782.997 1862.737 782.997 1862.998 C 782.997 1863.26 782.887 1863.521 782.706 1863.702 C 782.515 1863.893 782.263 1863.994 782.002 1863.994 C 781.74 1863.994 781.479 1863.893 781.298 1863.702 C 781.106 1863.521 781.006 1863.26 781.006 1862.998 L 781.006 1862.998 L 781.006 1862.998 L 781.006 1862.998 Z  M 791.006 1878.998 C 791.006 1878.737 791.106 1878.485 791.298 1878.294 C 791.479 1878.113 791.74 1878.002 792.002 1878.002 C 792.263 1878.002 792.515 1878.113 792.706 1878.294 C 792.887 1878.485 792.997 1878.737 792.997 1878.998 C 792.997 1879.26 792.887 1879.521 792.706 1879.702 C 792.515 1879.893 792.263 1879.994 792.002 1879.994 C 791.74 1879.994 791.479 1879.893 791.298 1879.702 C 791.106 1879.521 791.006 1879.26 791.006 1878.998 L 791.006 1878.998 L 791.006 1878.998 Z  M 797.006 1866.998 C 797.006 1866.737 797.106 1866.485 797.298 1866.294 C 797.479 1866.113 797.74 1866.002 798.002 1866.002 C 798.263 1866.002 798.515 1866.113 798.706 1866.294 C 798.887 1866.485 798.997 1866.737 798.997 1866.998 C 798.997 1867.26 798.887 1867.521 798.706 1867.702 C 798.515 1867.893 798.263 1867.994 798.002 1867.994 C 797.74 1867.994 797.479 1867.893 797.298 1867.702 C 797.106 1867.521 797.006 1867.26 797.006 1866.998 L 797.006 1866.998 Z " fill-rule="evenodd" id="Fill-A" fill="rgb(215,215,215)"/></g></svg>