<?xml version="1.0" encoding="UTF-8" standalone="no"?><!-- Generator: Gravit.io --><svg xmlns="http://www.w3.org/2000/svg" xmlns:xlink="http://www.w3.org/1999/xlink" style="isolation:isolate" viewBox="2411 397 24 24" width="24" height="24"><g id="convert-to-raw-path"><g opacity="0"><rect x="2411" y="397" width="24" height="24" transform="matrix(1,0,0,1,0,0)" id="Icon Background" fill="rgb(37,86,132)"/></g><path d=" M 2428 399 L 2428 398 L 2429 398 L 2429 399 L 2428 399 L 2428 399 L 2428 399 L 2428 399 Z  M 2428 404 L 2428 403 L 2429 403 L 2429 404 L 2428 404 L 2428 404 L 2428 404 Z  M 2428 402 L 2428 401 L 2429 401 L 2429 402 L 2428 402 L 2428 402 Z  M 2427 400 L 2427 397 L 2430 397 L 2430 400 L 2427 400 L 2427 400 L 2427 400 L 2427 400 Z  M 2421 418 L 2423 418 L 2423 417 L 2421 417 L 2421 418 L 2421 418 Z  M 2426 417 L 2428 417 L 2428 418 L 2426 418 L 2426 417 L 2426 417 Z  M 2434 421 L 2433 421 L 2433 417 L 2432 417 L 2432 421 L 2431 421 L 2431 416 L 2430 416 L 2430 419 L 2435 419 L 2435 416 L 2434 416 L 2434 421 L 2434 421 Z  M 2423 421 L 2423 418 L 2424 418 L 2424 417 L 2423 417 L 2423 416 L 2420 416 L 2420 421 L 2421 421 L 2421 419 L 2422 419 L 2422 420 L 2424 420 L 2424 421 L 2423 421 L 2423 421 Z  M 2428 417 L 2428 416 L 2426 416 L 2426 417 L 2425 417 L 2425 421 L 2426 421 L 2426 419 L 2428 419 L 2428 421 L 2429 421 L 2429 417 L 2428 417 L 2428 417 Z " fill-rule="evenodd" id="Fill-B" fill="rgb(161,161,161)"/><path d=" M 2429.651 405.131 C 2429.391 404.514 2429.018 403.944 2428.54 403.46 C 2427.6 402.53 2426.33 402 2425 402 L 2415 402 L 2414.732 402 L 2414.732 402 C 2414.386 401.402 2413.74 401 2413 401 C 2411.896 401 2411 401.896 2411 403 L 2411 403 C 2411 404.104 2411.896 405 2413 405 C 2413.74 405 2414.386 404.598 2414.732 404 L 2415 404 L 2425 404 C 2425.8 404 2426.56 404.32 2427.12 404.88 C 2427.326 405.086 2427.499 405.318 2427.638 405.568 C 2427.239 405.916 2427 406.43 2427 407 L 2427 407 C 2427 407.569 2427.238 408.082 2427.636 408.429 L 2427.636 408.429 C 2427.499 408.682 2427.326 408.914 2427.12 409.12 C 2426.56 409.68 2425.8 410 2425 410 L 2419 410 C 2417.67 410 2416.4 410.53 2415.46 411.46 C 2414.53 412.4 2414 413.67 2414 415 C 2414 416.33 2414.53 417.6 2415.46 418.54 C 2416.4 419.47 2417.67 420 2419 420 L 2419 418 C 2418.2 418 2417.44 417.68 2416.88 417.12 C 2416.32 416.56 2416 415.8 2416 415 C 2416 414.2 2416.32 413.44 2416.88 412.88 C 2417.44 412.32 2418.2 412 2419 412 L 2425 412 C 2426.33 412 2427.6 411.47 2428.54 410.54 C 2429.014 410.061 2429.384 409.496 2429.626 408.879 C 2430.428 408.631 2431 407.882 2431 407 C 2431 406.128 2430.441 405.386 2429.651 405.131 Z  M 2412.006 402.998 C 2412.006 402.737 2412.106 402.485 2412.298 402.294 C 2412.479 402.113 2412.74 402.002 2413.001 402.002 C 2413.263 402.002 2413.514 402.113 2413.706 402.294 C 2413.887 402.485 2413.997 402.737 2413.997 402.998 C 2413.997 403.26 2413.887 403.521 2413.706 403.702 C 2413.514 403.893 2413.263 403.994 2413.001 403.994 C 2412.74 403.994 2412.479 403.893 2412.298 403.702 C 2412.106 403.521 2412.006 403.26 2412.006 402.998 L 2412.006 402.998 L 2412.006 402.998 Z  M 2428.006 406.998 C 2428.006 406.737 2428.106 406.485 2428.298 406.294 C 2428.479 406.113 2428.74 406.002 2429.001 406.002 C 2429.263 406.002 2429.514 406.113 2429.706 406.294 C 2429.887 406.485 2429.997 406.737 2429.997 406.998 C 2429.997 407.26 2429.887 407.521 2429.706 407.702 C 2429.514 407.893 2429.263 407.994 2429.001 407.994 C 2428.74 407.994 2428.479 407.893 2428.298 407.702 C 2428.106 407.521 2428.006 407.26 2428.006 406.998 L 2428.006 406.998 Z " fill-rule="evenodd" id="Fill-A" fill="rgb(215,215,215)"/></g></svg>