<?xml version="1.0" encoding="UTF-8" standalone="no"?><!-- Generator: Gravit.io --><svg xmlns="http://www.w3.org/2000/svg" xmlns:xlink="http://www.w3.org/1999/xlink" style="isolation:isolate" viewBox="2411 463 24 24" width="24" height="24"><g id="convert-to-outline"><g opacity="0"><rect x="2411" y="463" width="24" height="24" transform="matrix(1,0,0,1,0,0)" id="Icon Background" fill="rgb(37,86,132)"/></g><path d=" M 2431.884 480 C 2431.966 480.655 2432.008 481.323 2432.008 482 L 2432.992 482 L 2432.992 485 L 2429.992 485 L 2429.992 482 L 2429.992 482 L 2429.992 482 L 2431.01 482 C 2431.01 478.02 2429.43 474.21 2426.61 471.39 C 2423.8 468.58 2419.98 467 2416.01 467 C 2416.007 467 2416.003 467 2416 467 L 2416 468 L 2413 468 L 2413 465 L 2413 465 L 2413 465 L 2413 465 L 2413 465 L 2416 465 L 2416 466 L 2416 466 L 2416 466 C 2416.003 466 2416.006 466 2416.008 466 C 2416.683 466 2417.347 466.042 2418 466.123 L 2418 466 L 2418 466 L 2418 466 L 2418 466 L 2418 466 L 2418 466 L 2418 466 L 2418 466 L 2418 466 L 2418 466 L 2419 466 L 2419 466.28 C 2419.337 466.344 2419.671 466.418 2420 466.503 L 2420 466 L 2420 466 L 2420 466 L 2420 466 L 2420 466 L 2420 466 L 2420 466 L 2420 466 L 2420 466 L 2421 466 L 2421 466.795 C 2425.816 468.377 2429.625 472.185 2431.21 477 L 2432 477 L 2432 478 L 2431.503 478 L 2431.503 478 C 2431.588 478.329 2431.663 478.663 2431.727 479 L 2432 479 L 2432 480 L 2431.884 480 L 2431.884 480 Z  M 2414 466 L 2415 466 L 2415 467 L 2414 467 L 2414 466 L 2414 466 L 2414 466 L 2414 466 L 2414 466 L 2414 466 L 2414 466 Z  M 2414 473 L 2415 473 L 2415 474 L 2414 474 L 2414 473 L 2414 473 L 2414 473 L 2414 473 L 2414 473 L 2414 473 L 2414 473 Z  M 2424 483 L 2425 483 L 2425 484 L 2424 484 L 2424 483 L 2424 483 L 2424 483 L 2424 483 L 2424 483 L 2424 483 Z  M 2430.992 483 L 2431.992 483 L 2431.992 484 L 2430.992 484 L 2430.992 483 L 2430.992 483 L 2430.992 483 L 2430.992 483 L 2430.992 483 Z  M 2416 473 L 2416 472 L 2413 472 L 2413 472 L 2413 472 L 2413 472 L 2413 472 L 2413 472 L 2413 475 L 2416 475 L 2416 474 C 2418.12 474 2420.16 474.84 2421.66 476.34 C 2423.16 477.84 2424 479.88 2424 482 L 2423 482 L 2423 482 L 2423 482 L 2423 482 L 2423 482 L 2423 485 L 2426 485 L 2426 482 L 2425 482 C 2425 477.033 2420.967 473 2416 473 L 2416 473 Z  M 2431 471 L 2431 470 L 2432 470 L 2432 471 L 2431 471 L 2431 471 L 2431 471 L 2431 471 L 2431 471 L 2431 471 L 2431 471 Z  M 2422 466 L 2423 466 L 2423 467 L 2422 467 L 2422 466 L 2422 466 L 2422 466 L 2422 466 L 2422 466 L 2422 466 L 2422 466 L 2422 466 Z  M 2424 466 L 2425 466 L 2425 467 L 2424 467 L 2424 466 L 2424 466 L 2424 466 L 2424 466 L 2424 466 L 2424 466 L 2424 466 Z  M 2427 466 L 2428 466 L 2428 467 L 2427 467 L 2427 466 L 2427 466 L 2427 466 L 2427 466 L 2427 466 L 2427 466 L 2427 466 L 2427 466 L 2427 466 L 2427 466 L 2427 466 Z  M 2431 476 L 2431 475 L 2432 475 L 2432 476 L 2431 476 L 2431 476 L 2431 476 Z  M 2431 474 L 2431 473 L 2432 473 L 2432 474 L 2431 474 L 2431 474 Z  M 2426 465 L 2429 465 L 2429 468 L 2426 468 L 2426 465 L 2426 465 L 2426 465 L 2426 465 L 2426 465 L 2426 465 L 2426 465 L 2426 465 L 2426 465 L 2426 465 L 2426 465 Z  M 2430 472 L 2430 469 L 2433 469 L 2433 472 L 2430 472 L 2430 472 L 2430 472 L 2430 472 L 2430 472 L 2430 472 L 2430 472 Z " fill-rule="evenodd" id="Fill-B" fill="rgb(161,161,161)"/></g></svg>