<?xml version="1.0" encoding="UTF-8" standalone="no"?><!-- Generator: Gravit.io --><svg xmlns="http://www.w3.org/2000/svg" xmlns:xlink="http://www.w3.org/1999/xlink" style="isolation:isolate" viewBox="1452 2404 24 24" width="24" height="24"><g id="copy-small"><g opacity="0"><rect x="1452" y="2404" width="24" height="24" transform="matrix(1,0,0,1,0,0)" id="Icon Background" fill="rgb(37,86,132)"/></g><path d=" M 1467.828 2409 C 1467.679 2408.582 1467.438 2408.198 1467.12 2407.88 C 1466.56 2407.32 1465.8 2407 1465 2407 L 1459 2407 L 1459 2407 C 1458.2 2407 1457.44 2407.32 1456.88 2407.88 C 1456.32 2408.44 1456 2409.2 1456 2410 L 1456 2420 C 1456 2420.8 1456.32 2421.56 1456.88 2422.12 C 1457.198 2422.438 1457.582 2422.679 1458 2422.828 L 1458 2420 L 1458 2420 L 1458 2411.837 L 1458 2410 C 1458 2409.73 1458.11 2409.48 1458.29 2409.29 C 1458.48 2409.11 1458.73 2409 1459 2409 L 1459 2409 L 1460.837 2409 L 1460.837 2409 L 1465 2409 L 1467.828 2409 Z " id="Fill-B" fill="rgb(161,161,161)"/><path d=" M 1462 2410 L 1468 2410 C 1468.8 2410 1469.56 2410.32 1470.12 2410.88 C 1470.68 2411.44 1471 2412.2 1471 2413 L 1471 2422 C 1471 2422.8 1470.68 2423.56 1470.12 2424.12 C 1469.56 2424.68 1468.8 2425 1468 2425 L 1462 2425 C 1461.2 2425 1460.44 2424.68 1459.88 2424.12 C 1459.32 2423.56 1459 2422.8 1459 2422 L 1459 2413 C 1459 2412.2 1459.32 2411.44 1459.88 2410.88 C 1460.44 2410.32 1461.2 2410 1462 2410 Z  M 1462 2412 L 1468 2412 C 1468.27 2412 1468.52 2412.11 1468.71 2412.29 C 1468.89 2412.48 1469 2412.73 1469 2413 L 1469 2422 C 1469 2422.27 1468.89 2422.52 1468.71 2422.71 C 1468.52 2422.89 1468.27 2423 1468 2423 L 1462 2423 C 1461.73 2423 1461.48 2422.89 1461.29 2422.71 C 1461.11 2422.52 1461 2422.27 1461 2422 L 1461 2413 C 1461 2412.73 1461.11 2412.48 1461.29 2412.29 C 1461.48 2412.11 1461.73 2412 1462 2412 Z " fill-rule="evenodd" id="Fill-A" fill="rgb(215,215,215)"/></g></svg>