<?xml version="1.0" encoding="UTF-8" standalone="no"?><!-- Generator: Gravit.io --><svg xmlns="http://www.w3.org/2000/svg" xmlns:xlink="http://www.w3.org/1999/xlink" style="isolation:isolate" viewBox="1697 1585 24 24" width="24" height="24"><g id="copy"><g opacity="0"><rect x="1697" y="1585" width="24" height="24" transform="matrix(1,0,0,1,0,0)" id="Icon Background" fill="rgb(37,86,132)"/></g><path d=" M 1713 1590 C 1713 1589.2 1712.68 1588.44 1712.12 1587.88 C 1711.56 1587.32 1710.8 1587 1710 1587 L 1702 1587 L 1702 1587 C 1701.2 1587 1700.44 1587.32 1699.88 1587.88 C 1699.32 1588.44 1699 1589.2 1699 1590 L 1699 1600 C 1699 1600.8 1699.32 1601.56 1699.88 1602.12 C 1700.44 1602.68 1701.2 1603 1702 1603 L 1702 1601 C 1701.73 1601 1701.48 1600.89 1701.29 1600.71 C 1701.11 1600.52 1701 1600.27 1701 1600 L 1701 1590 C 1701 1589.73 1701.11 1589.48 1701.29 1589.29 C 1701.48 1589.11 1701.73 1589 1702 1589 L 1702 1589 L 1710 1589 C 1710.27 1589 1710.52 1589.11 1710.71 1589.29 C 1710.89 1589.48 1711 1589.73 1711 1590 L 1713 1590 Z " id="Fill-B" fill="rgb(161,161,161)"/><path d=" M 1707 1592 L 1715 1592 C 1715.8 1592 1716.56 1592.32 1717.12 1592.88 C 1717.68 1593.44 1718 1594.2 1718 1595 L 1718 1605 C 1718 1605.8 1717.68 1606.56 1717.12 1607.12 C 1716.56 1607.68 1715.8 1608 1715 1608 L 1707 1608 C 1706.2 1608 1705.44 1607.68 1704.88 1607.12 C 1704.32 1606.56 1704 1605.8 1704 1605 L 1704 1595 C 1704 1594.2 1704.32 1593.44 1704.88 1592.88 C 1705.44 1592.32 1706.2 1592 1707 1592 Z  M 1707 1594 L 1715 1594 C 1715.27 1594 1715.52 1594.11 1715.71 1594.29 C 1715.89 1594.48 1716 1594.73 1716 1595 L 1716 1605 C 1716 1605.27 1715.89 1605.52 1715.71 1605.71 C 1715.52 1605.89 1715.27 1606 1715 1606 L 1707 1606 C 1706.73 1606 1706.48 1605.89 1706.29 1605.71 C 1706.11 1605.52 1706 1605.27 1706 1605 L 1706 1595 C 1706 1594.73 1706.11 1594.48 1706.29 1594.29 C 1706.48 1594.11 1706.73 1594 1707 1594 Z " fill-rule="evenodd" id="Fill-A" fill="rgb(215,215,215)"/></g></svg>