<?xml version="1.0" encoding="UTF-8" standalone="no"?><!-- Generator: Gravit.io --><svg xmlns="http://www.w3.org/2000/svg" xmlns:xlink="http://www.w3.org/1999/xlink" style="isolation:isolate" viewBox="1978 1189 24 24" width="24" height="24"><g id="corners-inset"><g opacity="0"><rect x="1978" y="1189" width="24" height="24" transform="matrix(1,0,0,1,0,0)" id="Icon Background" fill="rgb(37,86,132)"/></g><path d=" M 1980 1192 L 1987 1192 L 1987 1204 L 1999 1204 L 1999 1211 L 1980 1211 L 1980 1192 Z " id="Fill-B" fill="rgb(161,161,161)"/><path d=" M 1998 1211 L 2000 1211 L 2000 1203 L 1988 1203 L 1988 1191 L 1980 1191 L 1980 1191 L 1980 1193 L 1982 1193 L 1982 1193 L 1982 1193 L 1982.625 1193 L 1986 1193 L 1986 1205 L 1998 1205 L 1998 1207 L 1998 1209 L 1998 1211 Z " id="Fill-A" fill="rgb(215,215,215)"/></g></svg>