<?xml version="1.0" encoding="UTF-8" standalone="no"?><!-- Generator: Gravit.io --><svg xmlns="http://www.w3.org/2000/svg" xmlns:xlink="http://www.w3.org/1999/xlink" style="isolation:isolate" viewBox="1545 265 24 24" width="24" height="24"><g id="crop"><g opacity="0"><rect x="1545" y="265" width="24" height="24" transform="matrix(1,0,0,1,0,0)" id="Icon Background" fill="rgb(37,86,132)"/></g><path d=" M 1563 284 L 1563 286 L 1561 286 L 1561 284 L 1563 284 Z  M 1563 279 L 1563 271 L 1555 271 L 1555 273 L 1561 273 L 1561 279 L 1563 279 Z  M 1550 271 L 1548 271 L 1548 273 L 1550 273 L 1550 271 Z " fill-rule="evenodd" id="Fill-B" fill="rgb(161,161,161)"/><path d=" M 1553 281 L 1553 269 L 1551 269 L 1551 283 L 1566 283 L 1566 281 L 1553 281 Z " id="Fill-A" fill="rgb(215,215,215)"/></g></svg>