<?xml version="1.0" encoding="UTF-8" standalone="no"?><!-- Generator: Gravit.io --><svg xmlns="http://www.w3.org/2000/svg" xmlns:xlink="http://www.w3.org/1999/xlink" style="isolation:isolate" viewBox="2722.315 225.315 22.369 22.369" width="22.369pt" height="22.369pt"><g id="ctrl-point-circle"><mask id="_mask_4Us7WQymi0NxZ0f4eXiWHqXOTU5krMzK" x="-200%" y="-200%" width="400%" height="400%"><rect x="-200%" y="-200%" width="400%" height="400%" style="fill:white;"/><path d=" M 2727.657 230.843 L 2727.843 230.657 C 2730.965 227.535 2736.035 227.535 2739.157 230.657 L 2739.343 230.843 C 2742.465 233.965 2742.465 239.035 2739.343 242.157 L 2739.157 242.343 C 2736.035 245.465 2730.965 245.465 2727.843 242.343 L 2727.657 242.157 C 2724.535 239.035 2724.535 233.965 2727.657 230.843 Z " id="Path" fill="black" stroke="none"/></mask><path d=" M 2727.657 230.843 L 2727.843 230.657 C 2730.965 227.535 2736.035 227.535 2739.157 230.657 L 2739.343 230.843 C 2742.465 233.965 2742.465 239.035 2739.343 242.157 L 2739.157 242.343 C 2736.035 245.465 2730.965 245.465 2727.843 242.343 L 2727.657 242.157 C 2724.535 239.035 2724.535 233.965 2727.657 230.843 Z " id="Path" fill="rgb(255,255,255)"/><path d=" M 2727.657 230.843 L 2727.843 230.657 C 2730.965 227.535 2736.035 227.535 2739.157 230.657 L 2739.343 230.843 C 2742.465 233.965 2742.465 239.035 2739.343 242.157 L 2739.157 242.343 C 2736.035 245.465 2730.965 245.465 2727.843 242.343 L 2727.657 242.157 C 2724.535 239.035 2724.535 233.965 2727.657 230.843 Z " id="Path" fill="rgb(255,255,255)" mask="url(#_mask_4Us7WQymi0NxZ0f4eXiWHqXOTU5krMzK)" vector-effect="non-scaling-stroke" stroke-width="2" stroke="rgb(255,64,0)" stroke-opacity="0.5" stroke-linejoin="miter" stroke-linecap="butt" stroke-miterlimit="3"/><path d=" M 2730.25 233.25 L 2730.25 233.25 C 2732.044 231.456 2734.956 231.456 2736.75 233.25 L 2736.75 233.25 C 2738.544 235.044 2738.544 237.956 2736.75 239.75 L 2736.75 239.75 C 2734.956 241.544 2732.044 241.544 2730.25 239.75 L 2730.25 239.75 C 2728.456 237.956 2728.456 235.044 2730.25 233.25 Z " id="Path" fill="rgb(255,64,0)"/></g></svg>