<?xml version="1.0" encoding="UTF-8" standalone="no"?><!-- Generator: Gravit.io --><svg xmlns="http://www.w3.org/2000/svg" xmlns:xlink="http://www.w3.org/1999/xlink" style="isolation:isolate" viewBox="1545 991 24 24" width="24" height="24"><g id="delete - small"><g opacity="0"><rect x="1545" y="991" width="24" height="24" transform="matrix(1,0,0,1,0,0)" id="Icon Background" fill="rgb(37,86,132)"/></g><path d=" M 1554.433 1002 L 1554.567 1002 C 1554.806 1002 1555 1002.194 1555 1002.433 L 1555 1007.567 C 1555 1007.806 1554.806 1008 1554.567 1008 L 1554.433 1008 C 1554.194 1008 1554 1007.806 1554 1007.567 L 1554 1002.433 C 1554 1002.194 1554.194 1002 1554.433 1002 L 1554.433 1002 L 1554.433 1002 Z  M 1556.433 1002 L 1556.567 1002 C 1556.806 1002 1557 1002.194 1557 1002.433 L 1557 1007.567 C 1557 1007.806 1556.806 1008 1556.567 1008 L 1556.433 1008 C 1556.194 1008 1556 1007.806 1556 1007.567 L 1556 1002.433 C 1556 1002.194 1556.194 1002 1556.433 1002 L 1556.433 1002 L 1556.433 1002 Z  M 1558.433 1002 L 1558.567 1002 C 1558.806 1002 1559 1002.194 1559 1002.433 L 1559 1007.567 C 1559 1007.806 1558.806 1008 1558.567 1008 L 1558.433 1008 C 1558.194 1008 1558 1007.806 1558 1007.567 L 1558 1002.433 C 1558 1002.194 1558.194 1002 1558.433 1002 L 1558.433 1002 Z  M 1559 998 L 1554 998 L 1554 997.87 C 1554 997.64 1554.09 997.42 1554.26 997.26 C 1554.42 997.09 1554.64 997 1554.87 997 L 1558.13 997 C 1558.36 997 1558.58 997.09 1558.74 997.26 C 1558.91 997.42 1559 997.64 1559 997.87 L 1559 998 L 1559 998 Z  M 1560 1000 L 1561 1000 L 1561 1010 L 1552 1010 L 1552 1000 L 1552 1000 L 1552 1000 L 1553 1000 L 1553 1000 L 1553 1000 L 1560 1000 L 1560 1000 L 1560 1000 L 1560 1000 Z  M 1561 998 L 1563 998 L 1563 998 L 1564 998 C 1564.27 998 1564.52 998.11 1564.71 998.29 C 1564.89 998.48 1565 998.73 1565 999 C 1565 999.27 1564.89 999.52 1564.71 999.71 C 1564.52 999.89 1564.27 1000 1564 1000 L 1563 1000 L 1563 1010 C 1563 1011.104 1562.104 1012 1561 1012 L 1552 1012 C 1550.896 1012 1550 1011.104 1550 1010 L 1550 1000 L 1549 1000 C 1548.73 1000 1548.48 999.89 1548.29 999.71 C 1548.11 999.52 1548 999.27 1548 999 C 1548 998.73 1548.11 998.48 1548.29 998.29 C 1548.48 998.11 1548.73 998 1549 998 L 1550 998 L 1550 998 L 1550 998 L 1552 998 L 1552 997.87 C 1552 997.11 1552.3 996.38 1552.84 995.84 C 1553.38 995.3 1554.11 995 1554.87 995 L 1558.13 995 C 1558.89 995 1559.62 995.3 1560.16 995.84 C 1560.7 996.38 1561 997.11 1561 997.87 L 1561 998 L 1561 998 Z " fill-rule="evenodd" id="Fill-B" fill="rgb(161,161,161)"/></g></svg>