<?xml version="1.0" encoding="UTF-8" standalone="no"?><!-- Generator: Gravit.io --><svg xmlns="http://www.w3.org/2000/svg" xmlns:xlink="http://www.w3.org/1999/xlink" style="isolation:isolate" viewBox="1505 991 24 24" width="24" height="24"><g id="delete"><g opacity="0"><rect x="1505" y="991" width="24" height="24" transform="matrix(1,0,0,1,0,0)" id="Icon Background" fill="rgb(37,86,132)"/></g><path d=" M 1514.433 1000 L 1514.567 1000 C 1514.806 1000 1515 1000.194 1515 1000.433 L 1515 1008.567 C 1515 1008.806 1514.806 1009 1514.567 1009 L 1514.433 1009 C 1514.194 1009 1514 1008.806 1514 1008.567 L 1514 1000.433 C 1514 1000.194 1514.194 1000 1514.433 1000 L 1514.433 1000 L 1514.433 1000 Z  M 1516.433 1000 L 1516.567 1000 C 1516.806 1000 1517 1000.194 1517 1000.433 L 1517 1008.567 C 1517 1008.806 1516.806 1009 1516.567 1009 L 1516.433 1009 C 1516.194 1009 1516 1008.806 1516 1008.567 L 1516 1000.433 C 1516 1000.194 1516.194 1000 1516.433 1000 L 1516.433 1000 L 1516.433 1000 Z  M 1518.433 1000 L 1518.567 1000 C 1518.806 1000 1519 1000.194 1519 1000.433 L 1519 1008.567 C 1519 1008.806 1518.806 1009 1518.567 1009 L 1518.433 1009 C 1518.194 1009 1518 1008.806 1518 1008.567 L 1518 1000.433 C 1518 1000.194 1518.194 1000 1518.433 1000 L 1518.433 1000 Z  M 1520 996 L 1513 996 L 1513 995.87 C 1513 995.64 1513.09 995.42 1513.26 995.26 C 1513.42 995.09 1513.64 995 1513.87 995 L 1519.13 995 C 1519.36 995 1519.58 995.09 1519.74 995.26 C 1519.91 995.42 1520 995.64 1520 995.87 L 1520 996 L 1520 996 Z  M 1521 998 L 1522 998 L 1522 1011 L 1511 1011 L 1511 998 L 1511 998 L 1511 998 L 1512 998 L 1512 998 L 1512 998 L 1521 998 L 1521 998 L 1521 998 L 1521 998 Z  M 1522 996 L 1525 996 C 1525.27 996 1525.52 996.11 1525.71 996.29 C 1525.89 996.48 1526 996.73 1526 997 C 1526 997.27 1525.89 997.52 1525.71 997.71 C 1525.52 997.89 1525.27 998 1525 998 L 1524 998 L 1524 1011 C 1524 1012.104 1523.104 1013 1522 1013 L 1511 1013 C 1509.896 1013 1509 1012.104 1509 1011 L 1509 998 L 1508 998 C 1507.73 998 1507.48 997.89 1507.29 997.71 C 1507.11 997.52 1507 997.27 1507 997 C 1507 996.73 1507.11 996.48 1507.29 996.29 C 1507.48 996.11 1507.73 996 1508 996 L 1511 996 L 1511 995.87 C 1511 995.11 1511.3 994.38 1511.84 993.84 C 1512.38 993.3 1513.11 993 1513.87 993 L 1519.13 993 C 1519.89 993 1520.62 993.3 1521.16 993.84 C 1521.7 994.38 1522 995.11 1522 995.87 L 1522 996 L 1522 996 Z " fill-rule="evenodd" id="Fill-B" fill="rgb(161,161,161)"/></g></svg>