<?xml version="1.0" encoding="UTF-8" standalone="no"?><!-- Generator: Gravit.io --><svg xmlns="http://www.w3.org/2000/svg" xmlns:xlink="http://www.w3.org/1999/xlink" style="isolation:isolate" viewBox="778 1321 24 24" width="24" height="24"><g id="difference"><g opacity="0"><rect x="778" y="1321" width="24" height="24" transform="matrix(1,0,0,1,0,0)" id="Icon Background" fill="rgb(37,86,132)"/></g><path d=" M 794.984 1330 L 794.984 1330 C 794.726 1326.093 791.471 1323 787.5 1323 L 787.5 1323 C 783.361 1323 780 1326.361 780 1330.5 L 780 1330.5 C 780 1334.471 783.093 1337.726 787 1337.984 L 787 1337.984 L 787 1343 L 800 1343 L 800 1330 L 794.984 1330 Z  M 794.984 1330 C 794.994 1330.165 795 1330.332 795 1330.5 L 795 1330.5 C 795 1334.639 791.639 1338 787.5 1338 L 787.5 1338 C 787.332 1338 787.165 1337.995 787 1337.984 L 787 1330 L 794.984 1330 L 794.984 1330 Z " fill-rule="evenodd" id="Fill-B" fill="rgb(161,161,161)"/></g></svg>