<?xml version="1.0" encoding="UTF-8" standalone="no"?><!-- Generator: Gravit.io --><svg xmlns="http://www.w3.org/2000/svg" xmlns:xlink="http://www.w3.org/1999/xlink" style="isolation:isolate" viewBox="1150 199 24 24" width="24" height="24"><g id="distribute-ver"><g opacity="0"><rect x="1150" y="199" width="24" height="24" transform="matrix(1,0,0,1,0,0)" id="Icon Background" fill="rgb(37,86,132)"/></g><path d=" M 1157 201 L 1169 201 L 1169 206 L 1157 206 L 1157 201 Z " id="Fill-A" fill="rgb(215,215,215)"/><path d=" M 1168 212 L 1167 212 L 1167 212 L 1167 211 L 1168 211 L 1168 212 L 1168 212 L 1168 212 L 1168 212 L 1168 212 L 1168 212 Z  M 1157 216 L 1169 216 L 1169 218 L 1157 218 L 1157 216 L 1157 216 L 1157 216 Z  M 1166 212 L 1165 212 L 1165 212 L 1165 211 L 1166 211 L 1166 212 L 1166 212 L 1166 212 L 1166 212 L 1166 212 L 1166 212 L 1166 212 Z  M 1174 212 L 1173 212 L 1173 212 L 1173 211 L 1174 211 L 1174 212 L 1174 212 L 1174 212 Z  M 1172 212 L 1171 212 L 1171 212 L 1171 211 L 1172 211 L 1172 212 L 1172 212 L 1172 212 L 1172 212 Z  M 1162 212 L 1161 212 L 1161 212 L 1161 211 L 1162 211 L 1162 212 L 1162 212 L 1162 212 L 1162 212 L 1162 212 L 1162 212 L 1162 212 L 1162 212 L 1162 212 Z  M 1170 212 L 1169 212 L 1169 212 L 1169 211 L 1170 211 L 1170 212 L 1170 212 L 1170 212 L 1170 212 L 1170 212 Z  M 1154 212 L 1153 212 L 1153 212 L 1153 211 L 1154 211 L 1154 212 L 1154 212 L 1154 212 L 1154 212 L 1154 212 L 1154 212 L 1154 212 L 1154 212 L 1154 212 L 1154 212 L 1154 212 L 1154 212 L 1154 212 Z  M 1164 212 L 1163 212 L 1163 212 L 1163 211 L 1164 211 L 1164 212 L 1164 212 L 1164 212 L 1164 212 L 1164 212 L 1164 212 L 1164 212 L 1164 212 Z  M 1160 212 L 1159 212 L 1159 212 L 1159 211 L 1160 211 L 1160 212 L 1160 212 L 1160 212 L 1160 212 L 1160 212 L 1160 212 L 1160 212 L 1160 212 L 1160 212 L 1160 212 Z  M 1158 212 L 1157 212 L 1157 212 L 1157 211 L 1158 211 L 1158 212 L 1158 212 L 1158 212 L 1158 212 L 1158 212 L 1158 212 L 1158 212 L 1158 212 L 1158 212 L 1158 212 L 1158 212 Z  M 1156 212 L 1155 212 L 1155 212 L 1155 211 L 1156 211 L 1156 212 L 1156 212 L 1156 212 L 1156 212 L 1156 212 L 1156 212 L 1156 212 L 1156 212 L 1156 212 L 1156 212 L 1156 212 L 1156 212 Z  M 1152 212 L 1151 212 L 1151 211 L 1152 211 L 1152 212 L 1152 212 L 1152 212 L 1152 212 L 1152 212 L 1152 212 L 1152 212 L 1152 212 L 1152 212 L 1152 212 L 1152 212 L 1152 212 L 1152 212 L 1152 212 Z  M 1155 214 L 1171 214 L 1171 220 L 1155 220 L 1155 214 L 1155 214 L 1155 214 Z  M 1166 209 L 1165 209 L 1165 209 L 1165 208 L 1166 208 L 1166 209 L 1166 209 L 1166 209 L 1166 209 L 1166 209 L 1166 209 Z  M 1174 209 L 1173 209 L 1173 209 L 1173 208 L 1174 208 L 1174 209 L 1174 209 Z  M 1172 209 L 1171 209 L 1171 209 L 1171 208 L 1172 208 L 1172 209 L 1172 209 L 1172 209 Z  M 1162 209 L 1161 209 L 1161 209 L 1161 208 L 1162 208 L 1162 209 L 1162 209 L 1162 209 L 1162 209 L 1162 209 L 1162 209 L 1162 209 L 1162 209 Z  M 1170 209 L 1169 209 L 1169 209 L 1169 208 L 1170 208 L 1170 209 L 1170 209 L 1170 209 L 1170 209 Z  M 1168 209 L 1167 209 L 1167 209 L 1167 208 L 1168 208 L 1168 209 L 1168 209 L 1168 209 L 1168 209 L 1168 209 Z  M 1164 209 L 1163 209 L 1163 209 L 1163 208 L 1164 208 L 1164 209 L 1164 209 L 1164 209 L 1164 209 L 1164 209 L 1164 209 L 1164 209 Z  M 1160 209 L 1159 209 L 1159 209 L 1159 208 L 1160 208 L 1160 209 L 1160 209 L 1160 209 L 1160 209 L 1160 209 L 1160 209 L 1160 209 L 1160 209 L 1160 209 Z  M 1158 209 L 1157 209 L 1157 209 L 1157 208 L 1158 208 L 1158 209 L 1158 209 L 1158 209 L 1158 209 L 1158 209 L 1158 209 L 1158 209 L 1158 209 L 1158 209 L 1158 209 Z  M 1156 209 L 1155 209 L 1155 209 L 1155 208 L 1156 208 L 1156 209 L 1156 209 L 1156 209 L 1156 209 L 1156 209 L 1156 209 L 1156 209 L 1156 209 L 1156 209 L 1156 209 L 1156 209 Z  M 1154 209 L 1153 209 L 1153 209 L 1153 208 L 1154 208 L 1154 209 L 1154 209 L 1154 209 L 1154 209 L 1154 209 L 1154 209 L 1154 209 L 1154 209 L 1154 209 L 1154 209 L 1154 209 L 1154 209 Z  M 1152 209 L 1151 209 L 1151 208 L 1152 208 L 1152 209 L 1152 209 L 1152 209 L 1152 209 L 1152 209 L 1152 209 L 1152 209 L 1152 209 L 1152 209 L 1152 209 L 1152 209 L 1152 209 L 1152 209 Z " fill-rule="evenodd" id="Fill-B" fill="rgb(161,161,161)"/></g></svg>