<?xml version="1.0" encoding="UTF-8" standalone="no"?><!-- Generator: Gravit.io --><svg xmlns="http://www.w3.org/2000/svg" xmlns:xlink="http://www.w3.org/1999/xlink" style="isolation:isolate" viewBox="1150 133 24 24" width="24" height="24"><g id="distribute-hor"><g opacity="0"><rect x="1150" y="133" width="24" height="24" transform="matrix(1,0,0,1,0,0)" id="Icon Background" fill="rgb(37,86,132)"/></g><path d=" M 1154 151 L 1154 139 L 1159 139 L 1159 151 L 1154 151 Z " id="Fill-A" fill="rgb(215,215,215)"/><path d=" M 1164 151 L 1164 150 L 1164 150 L 1165 150 L 1165 151 L 1164 151 L 1164 151 L 1164 151 L 1164 151 L 1164 151 L 1164 151 Z  M 1169 151 L 1169 139 L 1171 139 L 1171 151 L 1169 151 L 1169 151 L 1169 151 Z  M 1164 149 L 1164 148 L 1164 148 L 1165 148 L 1165 149 L 1164 149 L 1164 149 L 1164 149 L 1164 149 L 1164 149 L 1164 149 L 1164 149 Z  M 1164 157 L 1164 156 L 1164 156 L 1165 156 L 1165 157 L 1164 157 L 1164 157 L 1164 157 Z  M 1164 155 L 1164 154 L 1164 154 L 1165 154 L 1165 155 L 1164 155 L 1164 155 L 1164 155 L 1164 155 Z  M 1164 145 L 1164 144 L 1164 144 L 1165 144 L 1165 145 L 1164 145 L 1164 145 L 1164 145 L 1164 145 L 1164 145 L 1164 145 L 1164 145 L 1164 145 L 1164 145 Z  M 1164 153 L 1164 152 L 1164 152 L 1165 152 L 1165 153 L 1164 153 L 1164 153 L 1164 153 L 1164 153 L 1164 153 Z  M 1164 137 L 1164 136 L 1164 136 L 1165 136 L 1165 137 L 1164 137 L 1164 137 L 1164 137 L 1164 137 L 1164 137 L 1164 137 L 1164 137 L 1164 137 L 1164 137 L 1164 137 L 1164 137 L 1164 137 L 1164 137 Z  M 1164 147 L 1164 146 L 1164 146 L 1165 146 L 1165 147 L 1164 147 L 1164 147 L 1164 147 L 1164 147 L 1164 147 L 1164 147 L 1164 147 L 1164 147 Z  M 1164 143 L 1164 142 L 1164 142 L 1165 142 L 1165 143 L 1164 143 L 1164 143 L 1164 143 L 1164 143 L 1164 143 L 1164 143 L 1164 143 L 1164 143 L 1164 143 L 1164 143 Z  M 1164 141 L 1164 140 L 1164 140 L 1165 140 L 1165 141 L 1164 141 L 1164 141 L 1164 141 L 1164 141 L 1164 141 L 1164 141 L 1164 141 L 1164 141 L 1164 141 L 1164 141 L 1164 141 Z  M 1164 139 L 1164 138 L 1164 138 L 1165 138 L 1165 139 L 1164 139 L 1164 139 L 1164 139 L 1164 139 L 1164 139 L 1164 139 L 1164 139 L 1164 139 L 1164 139 L 1164 139 L 1164 139 L 1164 139 Z  M 1164 135 L 1164 134 L 1165 134 L 1165 135 L 1164 135 L 1164 135 L 1164 135 L 1164 135 L 1164 135 L 1164 135 L 1164 135 L 1164 135 L 1164 135 L 1164 135 L 1164 135 L 1164 135 L 1164 135 L 1164 135 Z  M 1167 153 L 1167 137 L 1173 137 L 1173 153 L 1167 153 L 1167 153 L 1167 153 Z  M 1161 149 L 1161 148 L 1161 148 L 1162 148 L 1162 149 L 1161 149 L 1161 149 L 1161 149 L 1161 149 L 1161 149 L 1161 149 Z  M 1161 157 L 1161 156 L 1161 156 L 1162 156 L 1162 157 L 1161 157 L 1161 157 Z  M 1161 155 L 1161 154 L 1161 154 L 1162 154 L 1162 155 L 1161 155 L 1161 155 L 1161 155 Z  M 1161 145 L 1161 144 L 1161 144 L 1162 144 L 1162 145 L 1161 145 L 1161 145 L 1161 145 L 1161 145 L 1161 145 L 1161 145 L 1161 145 L 1161 145 Z  M 1161 153 L 1161 152 L 1161 152 L 1162 152 L 1162 153 L 1161 153 L 1161 153 L 1161 153 L 1161 153 Z  M 1161 151 L 1161 150 L 1161 150 L 1162 150 L 1162 151 L 1161 151 L 1161 151 L 1161 151 L 1161 151 L 1161 151 Z  M 1161 147 L 1161 146 L 1161 146 L 1162 146 L 1162 147 L 1161 147 L 1161 147 L 1161 147 L 1161 147 L 1161 147 L 1161 147 L 1161 147 Z  M 1161 143 L 1161 142 L 1161 142 L 1162 142 L 1162 143 L 1161 143 L 1161 143 L 1161 143 L 1161 143 L 1161 143 L 1161 143 L 1161 143 L 1161 143 L 1161 143 Z  M 1161 141 L 1161 140 L 1161 140 L 1162 140 L 1162 141 L 1161 141 L 1161 141 L 1161 141 L 1161 141 L 1161 141 L 1161 141 L 1161 141 L 1161 141 L 1161 141 L 1161 141 Z  M 1161 139 L 1161 138 L 1161 138 L 1162 138 L 1162 139 L 1161 139 L 1161 139 L 1161 139 L 1161 139 L 1161 139 L 1161 139 L 1161 139 L 1161 139 L 1161 139 L 1161 139 L 1161 139 Z  M 1161 137 L 1161 136 L 1161 136 L 1162 136 L 1162 137 L 1161 137 L 1161 137 L 1161 137 L 1161 137 L 1161 137 L 1161 137 L 1161 137 L 1161 137 L 1161 137 L 1161 137 L 1161 137 L 1161 137 Z  M 1161 135 L 1161 134 L 1162 134 L 1162 135 L 1161 135 L 1161 135 L 1161 135 L 1161 135 L 1161 135 L 1161 135 L 1161 135 L 1161 135 L 1161 135 L 1161 135 L 1161 135 L 1161 135 L 1161 135 Z " fill-rule="evenodd" id="Fill-B" fill="rgb(161,161,161)"/></g></svg>