<?xml version="1.0" encoding="UTF-8" standalone="no"?><!-- Generator: Gravit.io --><svg xmlns="http://www.w3.org/2000/svg" xmlns:xlink="http://www.w3.org/1999/xlink" style="isolation:isolate" viewBox="445 601 24 24" width="24" height="24"><g id="ellipse"><g opacity="0"><rect x="445" y="601" width="24" height="24" transform="matrix(1,0,0,1,0,0)" id="Icon Background" fill="rgb(37,86,132)"/></g><path d=" M 447 613 C 447 610.35 448.05 607.8 449.93 605.93 C 451.8 604.05 454.35 603 457 603 C 459.65 603 462.2 604.05 464.07 605.93 C 465.95 607.8 467 610.35 467 613 C 467 615.65 465.95 618.2 464.07 620.07 C 462.2 621.95 459.65 623 457 623 C 454.35 623 451.8 621.95 449.93 620.07 C 448.05 618.2 447 615.65 447 613 Z  M 449 613 C 449 610.88 449.84 608.84 451.34 607.34 C 452.84 605.84 454.88 605 457 605 C 459.12 605 461.16 605.84 462.66 607.34 C 464.16 608.84 465 610.88 465 613 C 465 615.12 464.16 617.16 462.66 618.66 C 461.16 620.16 459.12 621 457 621 C 454.88 621 452.84 620.16 451.34 618.66 C 449.84 617.16 449 615.12 449 613 Z " fill-rule="evenodd" id="Fill-B" fill="rgb(161,161,161)"/></g></svg>