<?xml version="1.0" encoding="UTF-8" standalone="no"?><!-- Generator: Gravit.io --><svg xmlns="http://www.w3.org/2000/svg" xmlns:xlink="http://www.w3.org/1999/xlink" style="isolation:isolate" viewBox="1978 859 24 24" width="24" height="24"><g id="ellipse-closed"><g opacity="0"><rect x="1978" y="859" width="24" height="24" transform="matrix(1,0,0,1,0,0)" id="Icon Background" fill="rgb(37,86,132)"/></g><path d=" M 1992.84 862.46 C 1994.64 863.06 1996.2 864.2 1997.3 865.74 C 1998.41 867.27 1999 869.11 1999 871 C 1999 873.39 1998.05 875.68 1996.36 877.36 C 1994.68 879.05 1992.39 880 1990 880 C 1987.61 880 1985.32 879.05 1983.64 877.36 C 1981.95 875.68 1981 873.39 1981 871 C 1981 870.68 1981.15 870.38 1981.42 870.19 L 1991.94 862.6 C 1992.2 862.41 1992.54 862.36 1992.84 862.46 Z  M 1992.68 864.53 C 1993.96 865.06 1995.05 865.96 1995.82 867.11 C 1996.59 868.26 1997 869.62 1997 871 C 1997 872.86 1996.26 874.64 1994.95 875.95 C 1993.64 877.26 1991.86 878 1990 878 C 1988.23 878 1986.53 877.33 1985.23 876.12 C 1983.93 874.92 1983.14 873.26 1983.02 871.5 L 1992.68 864.53 Z " fill-rule="evenodd" id="Fill-B" fill="rgb(161,161,161)"/></g></svg>