<?xml version="1.0" encoding="UTF-8" standalone="no"?><!-- Generator: Gravit.io --><svg xmlns="http://www.w3.org/2000/svg" xmlns:xlink="http://www.w3.org/1999/xlink" style="isolation:isolate" viewBox="1150 3048 24 24" width="24" height="24"><g id="ellipse-small"><g opacity="0"><rect x="1150" y="3048" width="24" height="24" transform="matrix(1,0,0,1,0,0)" id="Icon Background" fill="rgb(37,86,132)"/></g><path d=" M 1154 3060 C 1154 3057.88 1154.84 3055.84 1156.34 3054.34 C 1157.84 3052.84 1159.88 3052 1162 3052 C 1164.12 3052 1166.16 3052.84 1167.66 3054.34 C 1169.16 3055.84 1170 3057.88 1170 3060 C 1170 3062.12 1169.16 3064.16 1167.66 3065.66 C 1166.16 3067.16 1164.12 3068 1162 3068 C 1159.88 3068 1157.84 3067.16 1156.34 3065.66 C 1154.84 3064.16 1154 3062.12 1154 3060 Z  M 1156 3060 C 1156 3058.41 1156.63 3056.88 1157.76 3055.76 C 1158.88 3054.63 1160.41 3054 1162 3054 C 1163.59 3054 1165.12 3054.63 1166.24 3055.76 C 1167.37 3056.88 1168 3058.41 1168 3060 C 1168 3061.59 1167.37 3063.12 1166.24 3064.24 C 1165.12 3065.37 1163.59 3066 1162 3066 C 1160.41 3066 1158.88 3065.37 1157.76 3064.24 C 1156.63 3063.12 1156 3061.59 1156 3060 Z " fill-rule="evenodd" id="Fill-B" fill="rgb(161,161,161)"/></g></svg>