<?xml version="1.0" encoding="UTF-8" standalone="no"?><!-- Generator: Gravit.io --><svg xmlns="http://www.w3.org/2000/svg" xmlns:xlink="http://www.w3.org/1999/xlink" style="isolation:isolate" viewBox="1978 925 24 24" width="24" height="24"><g id="ellipse-pie"><g opacity="0"><rect x="1978" y="925" width="24" height="24" transform="matrix(1,0,0,1,0,0)" id="Icon Background" fill="rgb(37,86,132)"/></g><path d=" M 1992.84 928.46 C 1994.64 929.06 1996.2 930.2 1997.3 931.74 C 1998.41 933.27 1999 935.11 1999 937 C 1999 939.39 1998.05 941.68 1996.36 943.36 C 1994.68 945.05 1992.39 946 1990 946 C 1987.61 946 1985.32 945.05 1983.64 943.36 C 1981.95 941.68 1981 939.39 1981 937 C 1981 936.73 1981.11 936.48 1981.29 936.29 C 1981.48 936.11 1981.73 936 1982 936 L 1989.28 936 L 1991.58 929.09 C 1991.66 928.84 1991.84 928.63 1992.08 928.51 C 1992.32 928.4 1992.59 928.38 1992.84 928.46 Z  M 1993.14 930.74 C 1995.5 931.93 1997 934.36 1997 937 C 1997 938.86 1996.26 940.64 1994.95 941.95 C 1993.64 943.26 1991.86 944 1990 944 C 1988.32 944 1986.69 943.39 1985.42 942.29 C 1984.15 941.19 1983.31 939.67 1983.07 938 L 1990.72 938 L 1993.14 930.74 Z " fill-rule="evenodd" id="Fill-B" fill="rgb(161,161,161)"/></g></svg>