<?xml version="1.0" encoding="UTF-8" standalone="no"?><!-- Generator: Gravit.io --><svg xmlns="http://www.w3.org/2000/svg" xmlns:xlink="http://www.w3.org/1999/xlink" style="isolation:isolate" viewBox="1978 2253 24 24" width="24" height="24"><g id="ends-round"><g opacity="0"><rect x="1978" y="2253" width="24" height="24" transform="matrix(1,0,0,1,0,0)" id="Icon Background" fill="rgb(37,86,132)"/></g><path d=" M 1992 2276 L 2000 2276 L 2000 2267 C 2000 2261.481 1995.743 2257 1990.5 2257 L 1990.5 2257 L 1990.5 2257 C 1985.257 2257 1981 2261.481 1981 2267 L 1981 2276 L 1989 2276 L 1989 2269.663 C 1987.818 2269.101 1987 2267.895 1987 2266.5 L 1987 2266.5 C 1987 2264.568 1988.568 2263 1990.5 2263 L 1990.5 2263 L 1990.5 2263 C 1992.432 2263 1994 2264.568 1994 2266.5 L 1994 2266.5 C 1994 2267.895 1993.182 2269.101 1992 2269.663 L 1992 2276 Z " id="Fill-B" fill="rgb(161,161,161)"/><path d=" M 1991 2269.987 L 1991 2276 L 1990 2276 L 1990 2269.987 C 1990.08 2269.992 1990.16 2269.995 1990.242 2269.995 L 1990.758 2269.995 C 1990.84 2269.995 1990.92 2269.992 1991 2269.987 Z  M 1990.5 2264 L 1990.5 2264 C 1991.88 2264 1993 2265.12 1993 2266.5 L 1993 2266.5 C 1993 2267.88 1991.88 2269 1990.5 2269 L 1990.5 2269 C 1989.12 2269 1988 2267.88 1988 2266.5 L 1988 2266.5 C 1988 2265.12 1989.12 2264 1990.5 2264 Z " fill-rule="evenodd" id="Fill-A" fill="rgb(215,215,215)"/></g></svg>