<?xml version="1.0" encoding="UTF-8" standalone="no"?><!-- Generator: Gravit.io --><svg xmlns="http://www.w3.org/2000/svg" xmlns:xlink="http://www.w3.org/1999/xlink" style="isolation:isolate" viewBox="1978 2319 24 24" width="24" height="24"><g id="ends-sqare"><g opacity="0"><rect x="1978" y="2319" width="24" height="24" transform="matrix(1,0,0,1,0,0)" id="Icon Background" fill="rgb(37,86,132)"/></g><path d=" M 1992 2341 L 2000 2341 L 2000 2322 L 1981 2322 L 1981 2322 L 1981 2341 L 1989 2341 L 1989 2334.663 C 1987.818 2334.101 1987 2332.895 1987 2331.5 L 1987 2331.5 C 1987 2329.568 1988.568 2328 1990.5 2328 L 1990.5 2328 L 1990.5 2328 C 1992.432 2328 1994 2329.568 1994 2331.5 L 1994 2331.5 C 1994 2332.895 1993.182 2334.101 1992 2334.663 L 1992 2341 Z " id="Fill-B" fill="rgb(161,161,161)"/><path d=" M 1991 2334.987 L 1991 2341 L 1990 2341 L 1990 2334.987 C 1990.08 2334.992 1990.16 2334.995 1990.242 2334.995 L 1990.758 2334.995 C 1990.84 2334.995 1990.92 2334.992 1991 2334.987 Z  M 1990.5 2329 L 1990.5 2329 C 1991.88 2329 1993 2330.12 1993 2331.5 L 1993 2331.5 C 1993 2332.88 1991.88 2334 1990.5 2334 L 1990.5 2334 C 1989.12 2334 1988 2332.88 1988 2331.5 L 1988 2331.5 C 1988 2330.12 1989.12 2329 1990.5 2329 Z " fill-rule="evenodd" id="Fill-A" fill="rgb(215,215,215)"/></g></svg>