<?xml version="1.0" encoding="UTF-8" standalone="no"?><!-- Generator: Gravit.io --><svg xmlns="http://www.w3.org/2000/svg" xmlns:xlink="http://www.w3.org/1999/xlink" style="isolation:isolate" viewBox="1978 3173 24 24" width="24" height="24"><g id="export-assets"><g opacity="0"><rect x="1978" y="3173" width="24" height="24" transform="matrix(1,0,0,1,0,0)" id="Icon Background" fill="rgb(37,86,132)"/></g><path d=" M 1991.813 3174 L 2000.187 3174 C 2000.636 3174 2001 3174.364 2001 3174.813 L 2001 3181.187 C 2001 3181.636 2000.636 3182 2000.187 3182 L 1991.813 3182 C 1991.364 3182 1991 3181.636 1991 3181.187 L 1991 3174.813 C 1991 3174.364 1991.364 3174 1991.813 3174 Z  M 1999 3180 L 1993 3180 L 1993 3176 L 1999 3176 L 1999 3180 Z " fill-rule="evenodd" id="Fill-A" fill="rgb(215,215,215)"/><path d=" M 1988 3186 L 1981 3186 L 1981 3176 L 1988 3176 L 1988 3186 L 1988 3186 L 1988 3186 Z  M 1988 3194 L 1981 3194 L 1981 3191 L 1988 3191 L 1988 3194 L 1988 3194 L 1988 3194 Z  M 1980.128 3174 L 1988.872 3174 C 1989.495 3174 1990 3174.506 1990 3175.128 L 1990 3186.872 C 1990 3187.494 1989.495 3188 1988.872 3188 L 1980.128 3188 C 1979.505 3188 1979 3187.494 1979 3186.872 L 1979 3175.128 C 1979 3174.506 1979.505 3174 1980.128 3174 L 1980.128 3174 L 1980.128 3174 Z  M 1979.798 3189 L 1989.202 3189 C 1989.643 3189 1990 3189.357 1990 3189.798 L 1990 3195.202 C 1990 3195.643 1989.643 3196 1989.202 3196 L 1979.798 3196 C 1979.357 3196 1979 3195.643 1979 3195.202 L 1979 3189.798 C 1979 3189.357 1979.357 3189 1979.798 3189 L 1979.798 3189 L 1979.798 3189 Z  M 1999 3194 L 1993 3194 L 1993 3185 L 1999 3185 L 1999 3194 L 1999 3194 Z  M 1992.036 3183 L 1999.964 3183 C 2000.536 3183 2001 3183.464 2001 3184.037 L 2001 3194.963 C 2001 3195.536 2000.536 3196 1999.964 3196 L 1992.036 3196 C 1991.464 3196 1991 3195.536 1991 3194.963 L 1991 3184.037 C 1991 3183.464 1991.464 3183 1992.036 3183 L 1992.036 3183 Z " fill-rule="evenodd" id="Fill-B" fill="rgb(161,161,161)"/></g></svg>