<?xml version="1.0" encoding="UTF-8" standalone="no"?><!-- Generator: Gravit.io --><svg xmlns="http://www.w3.org/2000/svg" xmlns:xlink="http://www.w3.org/1999/xlink" style="isolation:isolate" viewBox="1545 331 24 24" width="24" height="24"><g id="extract-colors"><g opacity="0"><rect x="1545" y="331" width="24" height="24" transform="matrix(1,0,0,1,0,0)" id="Icon Background" fill="rgb(37,86,132)"/></g><path d=" M 1559.747 344.194 L 1559.02 343.59 C 1558.84 343.45 1558.62 343.37 1558.39 343.38 C 1558.21 343.37 1558.02 343.42 1557.87 343.52 L 1557.173 343.987 L 1558.618 345.21 L 1558.618 345.21 C 1558.36 345.504 1558.128 345.82 1557.925 346.157 L 1551.63 340.91 C 1551.59 340.88 1551.55 340.87 1551.5 340.87 C 1551.45 340.87 1551.41 340.88 1551.37 340.91 L 1548 343.809 L 1548 343.809 L 1548 348 C 1548 348.552 1548.448 349 1549 349 L 1557.019 349 L 1557.019 349 C 1557.006 349.165 1557 349.332 1557 349.5 C 1557 349.668 1557.006 349.835 1557.019 350 L 1549 350 C 1547.896 350 1547 349.104 1547 348 L 1547 337 C 1547 335.896 1547.896 335 1549 335 L 1549 335 L 1549 335 L 1563 335 C 1564.104 335 1565 335.896 1565 337 L 1565 343.174 L 1565 343.174 C 1564.518 343.06 1564.016 343 1563.5 343 C 1562.102 343 1560.807 343.442 1559.747 344.194 Z  M 1559 339 C 1559 338.448 1559.448 338 1560 338 C 1560.552 338 1561 338.448 1561 339 C 1561 339.552 1560.552 340 1560 340 C 1559.448 340 1559 339.552 1559 339 L 1559 339 L 1559 339 Z  M 1558 339 C 1558 338.47 1558.21 337.96 1558.59 337.59 C 1558.96 337.21 1559.47 337 1560 337 C 1560.53 337 1561.04 337.21 1561.41 337.59 C 1561.79 337.96 1562 338.47 1562 339 C 1562 339.53 1561.79 340.04 1561.41 340.41 C 1561.04 340.79 1560.53 341 1560 341 C 1559.47 341 1558.96 340.79 1558.59 340.41 C 1558.21 340.04 1558 339.53 1558 339 L 1558 339 L 1558 339 Z " fill-rule="evenodd" id="Fill-B" fill="rgb(161,161,161)"/><path d=" M 1559.376 351.657 L 1563.618 347.414 L 1562.911 346.707 L 1563.618 346 L 1564.325 346.707 L 1565.74 345.293 C 1566.13 344.902 1566.764 344.902 1567.154 345.293 L 1567.861 346 C 1568.251 346.39 1568.251 347.024 1567.861 347.414 L 1566.447 348.828 L 1567.154 349.535 L 1566.447 350.242 L 1565.74 349.535 L 1561.497 353.778 L 1559 354.154 L 1559.376 351.657 Z  M 1561.083 351.364 L 1564.325 348.121 L 1565.033 348.828 L 1562.414 351.447 L 1561.083 351.364 Z " fill-rule="evenodd" id="Fill-A" fill="rgb(215,215,215)"/></g></svg>