<?xml version="1.0" encoding="UTF-8" standalone="no"?><!-- Generator: Gravit.io --><svg xmlns="http://www.w3.org/2000/svg" xmlns:xlink="http://www.w3.org/1999/xlink" style="isolation:isolate" viewBox="778 601 24 24" width="24" height="24"><g id="fit-all"><g opacity="0"><rect x="778" y="601" width="24" height="24" transform="matrix(1,0,0,1,0,0)" id="Icon Background" fill="rgb(37,86,132)"/></g><path d=" M 793.406 615.097 L 797 618.691 L 797 616 C 797 615.448 797.448 615 798 615 L 798 615 C 798.552 615 799 615.448 799 616 L 799 622 L 793 622 C 792.448 622 792 621.552 792 621 L 792 621 C 792 620.448 792.448 620 793 620 L 795.48 620 L 791.965 616.484 C 792.554 616.151 793.051 615.672 793.406 615.097 Z  M 793.406 610.903 L 797 607.309 L 797 610 C 797 610.552 797.448 611 798 611 L 798 611 C 798.552 611 799 610.552 799 610 L 799 604 L 793 604 C 792.448 604 792 604.448 792 605 L 792 605 C 792 605.552 792.448 606 793 606 L 795.48 606 L 791.965 609.516 C 792.554 609.849 793.051 610.328 793.406 610.903 Z  M 787.903 609.594 L 784.309 606 L 787 606 C 787.552 606 788 605.552 788 605 L 788 605 C 788 604.448 787.552 604 787 604 L 781 604 L 781 610 C 781 610.552 781.448 611 782 611 L 782 611 C 782.552 611 783 610.552 783 610 L 783 607.52 L 786.516 611.035 C 786.849 610.446 787.328 609.949 787.903 609.594 Z  M 786.516 614.965 L 783 618.48 L 783 616 C 783 615.448 782.552 615 782 615 L 782 615 C 781.448 615 781 615.448 781 616 L 781 622 L 787 622 C 787.552 622 788 621.552 788 621 L 788 621 C 788 620.448 787.552 620 787 620 L 784.309 620 L 787.903 616.406 C 787.328 616.051 786.849 615.554 786.516 614.965 Z " fill-rule="evenodd" id="Fill-B" fill="rgb(161,161,161)"/></g></svg>