<?xml version="1.0" encoding="UTF-8" standalone="no"?><!-- Generator: Gravit.io --><svg xmlns="http://www.w3.org/2000/svg" xmlns:xlink="http://www.w3.org/1999/xlink" style="isolation:isolate" viewBox="1545 397 24 24" width="24" height="24"><g id="flatten"><g opacity="0"><rect x="1545" y="397" width="24" height="24" transform="matrix(1,0,0,1,0,0)" id="Icon Background" fill="rgb(37,86,132)"/></g><path d=" M 1553 404 L 1553 404 C 1554.104 404 1555 404.896 1555 406 L 1555 406 C 1555 407.104 1554.104 408 1553 408 L 1553 408 C 1551.896 408 1551 407.104 1551 406 L 1551 406 C 1551 404.896 1551.896 404 1553 404 Z " id="Fill-A" fill="rgb(215,215,215)"/><path d=" M 1558 414 L 1560 414 L 1560 414 L 1560 416 L 1560 416 L 1558 416 L 1558 414 L 1558 414 L 1558 414 L 1558 414 L 1558 414 L 1558 414 L 1558 414 L 1558 414 L 1558 414 L 1558 414 L 1558 414 L 1558 414 Z  M 1558 418 L 1558 416 L 1556 416 L 1556 416 L 1556 416 L 1556 416 L 1556 416 L 1556 416 L 1556 416 L 1556 416 L 1556 416 L 1556 416 L 1556 416 L 1556 416 L 1556 416 L 1556 416 L 1556 418 L 1554 418 L 1554 416 L 1552 416 L 1552 411 C 1552 410.285 1552.109 409.583 1552.312 408.912 C 1551.62 408.757 1551.023 408.357 1550.612 407.807 C 1550.203 408.81 1550 409.894 1550 411 L 1550 420 L 1568 420 L 1568 402 L 1560.5 402 L 1559 402 L 1559 402 C 1557.34 402 1555.728 402.458 1554.346 403.322 C 1554.969 403.632 1555.466 404.155 1555.739 404.798 C 1556.737 404.281 1557.853 404 1559 404 L 1559 404 L 1564 404 L 1564 404 L 1564 404 L 1564 404 L 1564 404 L 1564 406 L 1566 406 L 1566 408 L 1564 408 L 1564 408 L 1564 408 L 1564 408 L 1564 408 L 1564 408 L 1564 408 L 1564 408 L 1564 410 L 1566 410 L 1566 412 L 1564 412 L 1564 412 L 1564 412 L 1564 412 L 1564 412 L 1564 412 L 1564 414 L 1566 414 L 1566 416 L 1564 416 L 1564 416 L 1564 418 L 1562 418 L 1562 416 L 1560 416 L 1560 416 L 1560 416 L 1560 416 L 1560 416 L 1560 416 L 1560 416 L 1560 416 L 1560 416 L 1560 418 L 1558 418 L 1558 418 L 1558 418 Z  M 1560 408 L 1562 408 L 1562 410 L 1562 410 L 1560 410 L 1560 408 L 1560 408 L 1560 408 L 1560 408 L 1560 408 L 1560 408 L 1560 408 L 1560 408 L 1560 408 L 1560 408 L 1560 408 L 1560 408 L 1560 408 L 1560 408 L 1560 408 Z  M 1556 412 L 1558 412 L 1558 414 L 1558 414 L 1556 414 L 1556 412 L 1556 412 L 1556 412 L 1556 412 L 1556 412 L 1556 412 L 1556 412 L 1556 412 L 1556 412 L 1556 412 L 1556 412 L 1556 412 L 1556 412 L 1556 412 L 1556 412 L 1556 412 L 1556 412 L 1556 412 Z  M 1558 410 L 1560 410 L 1560 410 L 1560 412 L 1560 412 L 1558 412 L 1558 410 L 1558 410 L 1558 410 L 1558 410 L 1558 410 L 1558 410 L 1558 410 L 1558 410 L 1558 410 L 1558 410 L 1558 410 L 1558 410 L 1558 410 L 1558 410 Z  M 1560 412 L 1562 412 L 1562 414 L 1562 414 L 1560 414 L 1560 412 L 1560 412 L 1560 412 L 1560 412 L 1560 412 L 1560 412 L 1560 412 L 1560 412 L 1560 412 L 1560 412 L 1560 412 L 1560 412 L 1560 412 Z  M 1554 414 L 1556 414 L 1556 414 L 1556 416 L 1556 416 L 1554 416 L 1554 414 L 1554 414 L 1554 414 L 1554 414 L 1554 414 L 1554 414 L 1554 414 L 1554 414 L 1554 414 L 1554 414 L 1554 414 L 1554 414 L 1554 414 L 1554 414 L 1554 414 L 1554 414 L 1554 414 Z  M 1562 410 L 1564 410 L 1564 410 L 1564 412 L 1564 412 L 1562 412 L 1562 410 L 1562 410 L 1562 410 L 1562 410 L 1562 410 L 1562 410 L 1562 410 L 1562 410 L 1562 410 Z  M 1562 414 L 1564 414 L 1564 414 L 1564 416 L 1564 416 L 1562 416 L 1562 414 L 1562 414 L 1562 414 L 1562 414 L 1562 414 L 1562 414 Z  M 1562 406 L 1564 406 L 1564 406 L 1564 408 L 1562 408 L 1562 406 L 1562 406 L 1562 406 L 1562 406 L 1562 406 Z  M 1559.667 399.5 L 1560.5 398.667 L 1561.333 399.5 L 1560.5 400.333 L 1559.667 399.5 L 1559.667 399.5 L 1559.667 399.5 Z  M 1558 399.5 L 1560.5 397 L 1563 399.5 L 1560.5 402 L 1558 399.5 L 1558 399.5 L 1558 399.5 Z  M 1547.5 412.667 L 1546.667 413.5 L 1547.5 414.333 L 1548.333 413.5 L 1547.5 412.667 L 1547.5 412.667 Z  M 1547.5 411 L 1545 413.5 L 1547.5 416 L 1550 413.5 L 1547.5 411 L 1547.5 411 Z " fill-rule="evenodd" id="Fill-B" fill="rgb(161,161,161)"/></g></svg>