<?xml version="1.0" encoding="UTF-8" standalone="no"?><!-- Generator: Gravit.io --><svg xmlns="http://www.w3.org/2000/svg" xmlns:xlink="http://www.w3.org/1999/xlink" style="isolation:isolate" viewBox="1150 1857 24 24" width="24" height="24"><g id="fractions-text"><g opacity="0"><rect x="1150" y="1857" width="24" height="24" transform="matrix(1,0,0,1,0,0)" id="Icon Background" fill="rgb(37,86,132)"/></g><path d=" M 1158.68 1859.704 L 1158.68 1865.608 L 1158.68 1865.608 Q 1158.68 1866.28 1159.04 1866.532 L 1159.04 1866.532 L 1159.04 1866.532 Q 1159.4 1866.784 1160.288 1866.784 L 1160.288 1866.784 L 1160.288 1867.288 L 1160.288 1867.288 Q 1159.088 1867.24 1157.24 1867.24 L 1157.24 1867.24 L 1157.24 1867.24 Q 1155.392 1867.24 1154.192 1867.288 L 1154.192 1867.288 L 1154.192 1866.784 L 1154.192 1866.784 Q 1155.08 1866.784 1155.524 1866.532 L 1155.524 1866.532 L 1155.524 1866.532 Q 1155.968 1866.28 1155.968 1865.608 L 1155.968 1865.608 L 1155.968 1862.512 L 1155.968 1862.512 Q 1155.968 1861.816 1155.8 1861.492 L 1155.8 1861.492 L 1155.8 1861.492 Q 1155.632 1861.168 1155.236 1861.06 L 1155.236 1861.06 L 1155.236 1861.06 Q 1154.84 1860.952 1154.024 1860.952 L 1154.024 1860.952 L 1154.024 1860.448 L 1154.024 1860.448 Q 1155.68 1860.424 1156.724 1860.256 L 1156.724 1860.256 L 1156.724 1860.256 Q 1157.768 1860.088 1158.68 1859.704 L 1158.68 1859.704 Z  M 1168.04 1858 L 1168.496 1858.312 L 1154.456 1879.096 L 1154 1878.784 L 1168.04 1858 Z  M 1166.36 1870.144 L 1166.36 1870.144 Q 1167.608 1870.144 1168.388 1870.6 L 1168.388 1870.6 L 1168.388 1870.6 Q 1169.168 1871.056 1169.168 1871.92 L 1169.168 1871.92 L 1169.168 1871.92 Q 1169.168 1872.736 1168.544 1873.312 L 1168.544 1873.312 L 1168.544 1873.312 Q 1167.92 1873.888 1166.528 1874.728 L 1166.528 1874.728 L 1166.528 1874.728 Q 1166.312 1874.848 1165.892 1875.1 L 1165.892 1875.1 L 1165.892 1875.1 Q 1165.472 1875.352 1165.16 1875.568 L 1165.16 1875.568 L 1168.448 1875.568 L 1168.448 1875.568 Q 1168.976 1875.568 1169.18 1875.388 L 1169.18 1875.388 L 1169.18 1875.388 Q 1169.384 1875.208 1169.576 1874.752 L 1169.576 1874.752 L 1169.984 1874.824 L 1169.984 1874.824 Q 1169.648 1876.696 1169.624 1877.824 L 1169.624 1877.824 L 1169.624 1877.824 Q 1169.336 1877.752 1168.712 1877.752 L 1168.712 1877.752 L 1162.472 1877.752 L 1162.472 1877.272 L 1163.456 1876.48 L 1163.456 1876.48 Q 1164.872 1875.4 1165.664 1874.488 L 1165.664 1874.488 L 1165.664 1874.488 Q 1166.456 1873.576 1166.456 1872.4 L 1166.456 1872.4 L 1166.456 1872.4 Q 1166.456 1871.848 1166.096 1871.524 L 1166.096 1871.524 L 1166.096 1871.524 Q 1165.736 1871.2 1165.088 1871.2 L 1165.088 1871.2 L 1165.088 1871.2 Q 1163.84 1871.2 1163.096 1872.256 L 1163.096 1872.256 L 1162.736 1872.064 L 1162.736 1872.064 Q 1163.912 1870.144 1166.36 1870.144 L 1166.36 1870.144 Z " id="Fill-B" fill="rgb(161,161,161)"/></g></svg>