<?xml version="1.0" encoding="UTF-8" standalone="no"?><!-- Generator: Gravit.io --><svg xmlns="http://www.w3.org/2000/svg" xmlns:xlink="http://www.w3.org/1999/xlink" style="isolation:isolate" viewBox="445 991 24 24" width="24" height="24"><g id="freehand"><g opacity="0"><rect x="445" y="991" width="24" height="24" transform="matrix(1,0,0,1,0,0)" id="Icon Background" fill="rgb(37,86,132)"/></g><path d=" M 451.853 1013.538 Q 447 1014.306 447 1010 C 447 1005.469 457.59 999.326 457.59 996.235 C 457.59 992.746 455.307 993.92 454.63 993.92 C 454.05 993.92 453.602 993.46 453.602 992.921 C 453.602 992.505 454.006 992 454.691 992 C 456.457 992 458.32 993.273 458.32 996.235 C 458.32 999.619 450 1006.488 450 1008.863 Q 450 1010.926 452.265 1011.191 L 451.853 1013.538 Z " id="Fill-B" fill="rgb(161,161,161)"/><path d=" M 465.621 1004.914 L 467.571 1002.964 C 468.352 1002.184 468.352 1000.917 467.571 1000.136 L 466.864 999.429 C 466.083 998.648 464.816 998.648 464.036 999.429 L 462.086 1001.379 L 465.621 1004.914 L 465.621 1004.914 L 465.621 1004.914 L 465.621 1004.914 Z  M 461.758 1003.758 L 461.828 1003.828 C 462.004 1004.004 462.004 1004.289 461.828 1004.465 L 455.576 1010.717 C 455.4 1010.893 455.115 1010.893 454.939 1010.717 L 454.869 1010.647 C 454.693 1010.471 454.693 1010.186 454.869 1010.01 L 461.121 1003.758 C 461.297 1003.582 461.582 1003.582 461.758 1003.758 L 461.758 1003.758 L 461.758 1003.758 Z  M 463.172 1005.172 L 463.242 1005.242 C 463.418 1005.418 463.418 1005.703 463.242 1005.879 L 456.99 1012.131 C 456.814 1012.307 456.529 1012.307 456.353 1012.131 L 456.283 1012.061 C 456.107 1011.885 456.107 1011.6 456.283 1011.424 L 462.535 1005.172 C 462.711 1004.996 462.996 1004.996 463.172 1005.172 L 463.172 1005.172 Z  M 464.914 1005.621 L 456.964 1013.571 L 452.782 1014.218 L 453.429 1010.036 L 461.379 1002.086 L 464.914 1005.621 L 464.914 1005.621 L 464.914 1005.621 L 464.914 1005.621 Z  M 454 1011 L 454 1012.5 C 454 1012.776 454.224 1013 454.5 1013 L 456 1013 L 454 1011 Z " fill-rule="evenodd" id="Fill-A" fill="rgb(215,215,215)"/></g></svg>