<?xml version="1.0" encoding="UTF-8" standalone="no"?><!-- Generator: Gravit.io --><svg xmlns="http://www.w3.org/2000/svg" xmlns:xlink="http://www.w3.org/1999/xlink" style="isolation:isolate" viewBox="2411 265 24 24" width="24" height="24"><g id="go-to-master"><g opacity="0"><rect x="2411" y="265" width="24" height="24" transform="matrix(1,0,0,1,0,0)" id="Icon Background" fill="rgb(37,86,132)"/></g><path d=" M 2428 277.022 C 2425.363 277.261 2423.26 279.363 2423.022 282 L 2422 282 L 2422 283 L 2423.022 283 C 2423.26 285.637 2425.363 287.739 2428 287.978 L 2428 289 L 2429 289 L 2429 287.978 C 2431.637 287.739 2433.74 285.637 2433.978 283 L 2435 283 L 2435 282 L 2433.978 282 C 2433.74 279.363 2431.637 277.261 2429 277.022 L 2429 276 L 2428 276 L 2428 277.022 Z  M 2424 282.5 C 2424 280.016 2426.016 278 2428.5 278 C 2430.984 278 2433 280.016 2433 282.5 C 2433 284.984 2430.984 287 2428.5 287 C 2426.016 287 2424 284.984 2424 282.5 Z " fill-rule="evenodd" id="Fill-A" fill="rgb(215,215,215)"/><path d=" M 2425.263 270.004 C 2427.548 270.96 2429.271 272.947 2429.89 275.38 C 2429.96 275.64 2430.12 275.86 2430.35 276 C 2430.58 276.13 2430.85 276.17 2431.11 276.11 C 2431.37 276.04 2431.59 275.88 2431.72 275.65 C 2431.86 275.42 2431.9 275.15 2431.83 274.89 C 2431.007 271.671 2428.642 269.082 2425.55 267.955 C 2425.448 267.392 2425.222 266.853 2424.88 266.39 C 2424.42 265.79 2423.78 265.35 2423.05 265.14 C 2422.73 265.05 2422.41 265 2422.08 265 C 2421.32 265 2420.58 265.25 2419.97 265.71 C 2419.37 266.16 2418.93 266.81 2418.72 267.54 C 2418.63 267.85 2418.58 268.17 2418.58 268.5 C 2418.58 269.26 2418.83 270 2419.29 270.61 C 2419.74 271.21 2420.39 271.66 2421.12 271.86 C 2421.43 271.95 2421.75 272 2422.08 272 C 2422.84 272 2423.58 271.75 2424.19 271.3 C 2424.641 270.955 2425.007 270.508 2425.263 270.004 L 2425.263 270.004 L 2425.263 270.004 Z  M 2422.12 285.36 C 2422.39 285.36 2422.64 285.47 2422.83 285.65 C 2423.02 285.84 2423.12 286.1 2423.12 286.36 C 2423.12 286.63 2423.02 286.88 2422.83 287.07 C 2422.64 287.25 2422.39 287.36 2422.12 287.36 C 2421.21 287.36 2420.31 287.23 2419.44 286.99 C 2419.18 286.92 2418.96 286.75 2418.83 286.52 C 2418.7 286.28 2418.67 286.01 2418.74 285.76 C 2418.81 285.5 2418.98 285.28 2419.22 285.15 C 2419.45 285.02 2419.72 284.99 2419.98 285.06 C 2420.68 285.26 2421.4 285.36 2422.12 285.36 L 2422.12 285.36 L 2422.12 285.36 Z  M 2414.213 278.35 C 2414.161 278.019 2414.14 277.683 2414.14 277.35 C 2414.14 275.2 2415.01 273.13 2416.56 271.63 C 2416.75 271.44 2416.85 271.19 2416.86 270.93 C 2416.86 270.66 2416.76 270.4 2416.57 270.22 C 2416.39 270.03 2416.13 269.92 2415.87 269.91 C 2415.6 269.91 2415.35 270.01 2415.16 270.2 C 2413.23 272.08 2412.14 274.66 2412.14 277.35 C 2412.14 277.947 2412.193 278.538 2412.296 279.121 C 2412.09 279.284 2411.903 279.472 2411.74 279.68 C 2411.26 280.3 2411 281.06 2411 281.84 C 2411 282.12 2411.04 282.41 2411.1 282.68 C 2411.29 283.44 2411.73 284.11 2412.35 284.6 C 2412.96 285.08 2413.72 285.34 2414.5 285.34 C 2414.79 285.34 2415.07 285.3 2415.35 285.23 C 2416.1 285.04 2416.78 284.61 2417.26 283.99 C 2417.74 283.38 2418 282.62 2418 281.84 C 2418 281.55 2417.97 281.27 2417.9 280.99 C 2417.71 280.23 2417.27 279.56 2416.66 279.08 C 2416.04 278.6 2415.28 278.34 2414.5 278.34 C 2414.406 278.34 2414.31 278.343 2414.213 278.35 L 2414.213 278.35 Z  M 2426 282.5 C 2426 281.12 2427.12 280 2428.5 280 C 2429.88 280 2431 281.12 2431 282.5 C 2431 283.88 2429.88 285 2428.5 285 C 2427.12 285 2426 283.88 2426 282.5 Z " fill-rule="evenodd" id="Fill-B" fill="rgb(161,161,161)"/></g></svg>