<?xml version="1.0" encoding="UTF-8" standalone="no"?><!-- Generator: Gravit.io --><svg xmlns="http://www.w3.org/2000/svg" xmlns:xlink="http://www.w3.org/1999/xlink" style="isolation:isolate" viewBox="326 2591.006 22 22" width="22pt" height="22pt"><path d=" M 348 2602.006 C 348 2604.926 346.84 2607.726 344.78 2609.786 C 342.72 2611.846 339.92 2613.006 337 2613.006 C 334.08 2613.006 331.28 2611.846 329.22 2609.786 C 327.16 2607.726 326 2604.926 326 2602.006 C 326 2599.086 327.16 2596.286 329.22 2594.226 C 331.28 2592.166 334.08 2591.006 337 2591.006 C 339.92 2591.006 342.72 2592.166 344.78 2594.226 C 346.84 2596.286 348 2599.086 348 2602.006 Z  M 346 2602.006 C 346 2604.396 345.05 2606.686 343.36 2608.366 C 341.68 2610.056 339.39 2611.006 337 2611.006 C 334.61 2611.006 332.32 2610.056 330.64 2608.366 C 328.95 2606.686 328 2604.396 328 2602.006 C 328 2599.616 328.95 2597.326 330.64 2595.646 C 332.32 2593.956 334.61 2593.006 337 2593.006 C 339.39 2593.006 341.68 2593.956 343.36 2595.646 C 345.05 2597.326 346 2599.616 346 2602.006 Z " fill-rule="evenodd" fill="rgb(161,161,161)"/></svg>