<?xml version="1.0" encoding="UTF-8" standalone="no"?><!-- Generator: Gravit.io --><svg xmlns="http://www.w3.org/2000/svg" xmlns:xlink="http://www.w3.org/1999/xlink" style="isolation:isolate" viewBox="1488.929 188.302 20.256 21" width="20.256pt" height="21pt"><g><path d=" M 1488.929 206.763 L 1491.73 203.962 L 1491.281 203.513 L 1492.68 201.091 L 1492.323 198.881 L 1493.296 198.058 L 1493.296 198.058 L 1499.429 204.192 L 1498.607 205.165 L 1496.397 204.808 L 1493.975 206.207 L 1493.526 205.758 L 1492.52 206.763 L 1488.929 206.763 Z  M 1494.269 197.236 L 1500.785 191.725 L 1500.785 191.725 L 1505.763 196.703 L 1500.252 203.219 L 1494.269 197.236 L 1494.269 197.236 Z  M 1501.758 190.902 L 1503.954 189.046 C 1504.945 188.055 1506.554 188.055 1507.545 189.045 L 1508.442 189.943 C 1509.433 190.934 1509.433 192.543 1508.442 193.534 L 1506.586 195.73 L 1501.758 190.902 L 1501.758 190.902 L 1501.758 190.902 Z " fill-rule="evenodd" fill="rgb(255,255,255)"/><path d=" M 1503.199 206.154 C 1503.021 206.154 1502.869 206.09 1502.742 205.963 C 1502.628 205.849 1502.564 205.684 1502.564 205.519 C 1502.564 205.354 1502.628 205.189 1502.742 205.075 C 1502.869 204.948 1503.021 204.884 1503.199 204.884 L 1506.576 204.884 C 1507.16 204.884 1507.718 205.113 1508.125 205.532 C 1508.544 205.938 1508.772 206.497 1508.772 207.081 L 1508.772 207.106 C 1508.772 207.69 1508.544 208.249 1508.125 208.655 C 1507.718 209.074 1507.16 209.302 1506.576 209.302 L 1489.564 209.302 C 1489.399 209.302 1489.234 209.239 1489.12 209.112 C 1489.005 208.998 1488.929 208.833 1488.929 208.668 C 1488.929 208.503 1489.005 208.337 1489.12 208.223 C 1489.234 208.096 1489.399 208.033 1489.564 208.033 L 1506.576 208.033 C 1506.817 208.033 1507.058 207.931 1507.236 207.766 C 1507.401 207.588 1507.503 207.347 1507.503 207.106 L 1507.503 207.081 C 1507.503 206.839 1507.401 206.598 1507.236 206.42 C 1507.058 206.255 1506.817 206.154 1506.576 206.154 L 1503.199 206.154 Z " fill="rgb(255,255,255)"/></g></svg>