<?xml version="1.0" encoding="UTF-8" standalone="no"?><!-- Generator: Gravit.io --><svg xmlns="http://www.w3.org/2000/svg" xmlns:xlink="http://www.w3.org/1999/xlink" style="isolation:isolate" viewBox="738 293 24 24" width="24pt" height="24pt"><g><g><g opacity="0"><rect x="738" y="293" width="24" height="24" transform="matrix(1,0,0,1,0,0)" fill="rgb(37,86,132)"/></g></g><path d=" M 757 295 L 757 294 L 758 294 L 758 295 L 757 295 L 757 295 L 757 295 L 757 295 L 757 295 L 757 295 Z  M 757 311 L 757 312 L 758 312 L 758 311 L 757 311 L 757 311 L 757 311 L 757 311 L 757 311 L 757 311 Z  M 757 300 L 757 299 L 758 299 L 758 300 L 757 300 L 757 300 L 757 300 L 757 300 Z  M 757 306 L 757 307 L 758 307 L 758 306 L 757 306 L 757 306 L 757 306 Z  M 757 298 L 757 297 L 758 297 L 758 298 L 757 298 L 757 298 Z  M 756 296 L 756 293 L 759 293 L 759 296 L 756 296 L 756 296 L 756 296 L 756 296 L 756 296 L 756 296 Z  M 756 310 L 756 313 L 759 313 L 759 310 L 756 310 L 756 310 L 756 310 L 756 310 L 756 310 L 756 310 Z  M 757 308 L 757 309 L 758 309 L 758 308 L 757 308 Z " fill-rule="evenodd" fill="rgb(117,117,117)"/><path d=" M 758.627 304.879 C 758.384 305.496 758.014 306.061 757.54 306.54 C 756.6 307.47 755.33 308 754 308 L 748 308 C 747.2 308 746.44 308.32 745.88 308.88 C 745.32 309.44 745 310.2 745 311 C 745 311.8 745.32 312.56 745.88 313.12 C 746.44 313.68 747.2 314 748 314 L 750 314 L 750.268 314 L 750.268 314 C 750.614 313.402 751.26 313 752 313 C 753.104 313 754 313.896 754 315 C 754 316.104 753.104 317 752 317 C 751.26 317 750.614 316.598 750.268 316 L 750.268 316 L 750 316 L 748 316 C 746.67 316 745.4 315.47 744.46 314.54 C 743.53 313.6 743 312.33 743 311 C 743 309.67 743.53 308.4 744.46 307.46 C 745.4 306.53 746.67 306 748 306 L 754 306 C 754.8 306 755.56 305.68 756.12 305.12 C 756.326 304.914 756.499 304.682 756.636 304.429 C 756.238 304.082 756 303.569 756 303 L 756 303 C 756 302.43 756.239 301.916 756.638 301.568 C 756.499 301.318 756.326 301.086 756.12 300.88 C 755.56 300.32 754.8 300 754 300 L 744 300 L 743.732 300 C 743.386 300.598 742.74 301 742 301 C 740.896 301 740 300.104 740 299 L 740 299 C 740 297.896 740.896 297 742 297 C 742.74 297 743.386 297.402 743.732 298 L 743.732 298 L 743.732 298 L 744 298 L 754 298 C 755.33 298 756.6 298.53 757.54 299.46 C 758.018 299.943 758.391 300.514 758.651 301.131 C 759.441 301.386 760 302.128 760 303 C 760 303.882 759.428 304.631 758.627 304.879 Z  M 741.006 298.998 C 741.006 298.737 741.106 298.485 741.298 298.294 C 741.479 298.113 741.74 298.002 742.002 298.002 C 742.263 298.002 742.515 298.113 742.706 298.294 C 742.887 298.485 742.997 298.737 742.997 298.998 C 742.997 299.26 742.887 299.521 742.706 299.702 C 742.515 299.893 742.263 299.994 742.002 299.994 C 741.74 299.994 741.479 299.893 741.298 299.702 C 741.106 299.521 741.006 299.26 741.006 298.998 L 741.006 298.998 L 741.006 298.998 L 741.006 298.998 Z  M 751.006 314.998 C 751.006 314.737 751.106 314.485 751.298 314.294 C 751.479 314.113 751.74 314.002 752.002 314.002 C 752.263 314.002 752.515 314.113 752.706 314.294 C 752.887 314.485 752.997 314.737 752.997 314.998 C 752.997 315.26 752.887 315.521 752.706 315.702 C 752.515 315.893 752.263 315.994 752.002 315.994 C 751.74 315.994 751.479 315.893 751.298 315.702 C 751.106 315.521 751.006 315.26 751.006 314.998 L 751.006 314.998 L 751.006 314.998 Z  M 757.006 302.998 C 757.006 302.737 757.106 302.485 757.298 302.294 C 757.479 302.113 757.74 302.002 758.002 302.002 C 758.263 302.002 758.515 302.113 758.706 302.294 C 758.887 302.485 758.997 302.737 758.997 302.998 C 758.997 303.26 758.887 303.521 758.706 303.702 C 758.515 303.893 758.263 303.994 758.002 303.994 C 757.74 303.994 757.479 303.893 757.298 303.702 C 757.106 303.521 757.006 303.26 757.006 302.998 L 757.006 302.998 Z " fill-rule="evenodd" fill="rgb(77,77,77)"/></g></svg>