<?xml version="1.0" encoding="UTF-8" standalone="no"?><!-- Generator: Gravit.io --><svg xmlns="http://www.w3.org/2000/svg" xmlns:xlink="http://www.w3.org/1999/xlink" style="isolation:isolate" viewBox="475 193 24 24" width="24pt" height="24pt"><g><g><g opacity="0"><rect x="475" y="193" width="24" height="24" transform="matrix(1,0,0,1,0,0)" fill="rgb(37,86,132)"/></g></g><path d=" M 479 211 L 479 199 L 484 199 L 484 211 L 479 211 Z " fill="rgb(215,215,215)"/><path d=" M 489 211 L 489 210 L 489 210 L 490 210 L 490 211 L 489 211 L 489 211 L 489 211 L 489 211 L 489 211 L 489 211 Z  M 494 211 L 494 199 L 496 199 L 496 211 L 494 211 L 494 211 L 494 211 Z  M 489 209 L 489 208 L 489 208 L 490 208 L 490 209 L 489 209 L 489 209 L 489 209 L 489 209 L 489 209 L 489 209 L 489 209 Z  M 489 217 L 489 216 L 489 216 L 490 216 L 490 217 L 489 217 L 489 217 L 489 217 Z  M 489 215 L 489 214 L 489 214 L 490 214 L 490 215 L 489 215 L 489 215 L 489 215 L 489 215 Z  M 489 205 L 489 204 L 489 204 L 490 204 L 490 205 L 489 205 L 489 205 L 489 205 L 489 205 L 489 205 L 489 205 L 489 205 L 489 205 L 489 205 Z  M 489 213 L 489 212 L 489 212 L 490 212 L 490 213 L 489 213 L 489 213 L 489 213 L 489 213 L 489 213 Z  M 489 197 L 489 196 L 489 196 L 490 196 L 490 197 L 489 197 L 489 197 L 489 197 L 489 197 L 489 197 L 489 197 L 489 197 L 489 197 L 489 197 L 489 197 L 489 197 L 489 197 L 489 197 Z  M 489 207 L 489 206 L 489 206 L 490 206 L 490 207 L 489 207 L 489 207 L 489 207 L 489 207 L 489 207 L 489 207 L 489 207 L 489 207 Z  M 489 203 L 489 202 L 489 202 L 490 202 L 490 203 L 489 203 L 489 203 L 489 203 L 489 203 L 489 203 L 489 203 L 489 203 L 489 203 L 489 203 L 489 203 Z  M 489 201 L 489 200 L 489 200 L 490 200 L 490 201 L 489 201 L 489 201 L 489 201 L 489 201 L 489 201 L 489 201 L 489 201 L 489 201 L 489 201 L 489 201 L 489 201 Z  M 489 199 L 489 198 L 489 198 L 490 198 L 490 199 L 489 199 L 489 199 L 489 199 L 489 199 L 489 199 L 489 199 L 489 199 L 489 199 L 489 199 L 489 199 L 489 199 L 489 199 Z  M 489 195 L 489 194 L 490 194 L 490 195 L 489 195 L 489 195 L 489 195 L 489 195 L 489 195 L 489 195 L 489 195 L 489 195 L 489 195 L 489 195 L 489 195 L 489 195 L 489 195 L 489 195 Z  M 492 213 L 492 197 L 498 197 L 498 213 L 492 213 L 492 213 L 492 213 Z  M 486 209 L 486 208 L 486 208 L 487 208 L 487 209 L 486 209 L 486 209 L 486 209 L 486 209 L 486 209 L 486 209 Z  M 486 217 L 486 216 L 486 216 L 487 216 L 487 217 L 486 217 L 486 217 Z  M 486 215 L 486 214 L 486 214 L 487 214 L 487 215 L 486 215 L 486 215 L 486 215 Z  M 486 205 L 486 204 L 486 204 L 487 204 L 487 205 L 486 205 L 486 205 L 486 205 L 486 205 L 486 205 L 486 205 L 486 205 L 486 205 Z  M 486 213 L 486 212 L 486 212 L 487 212 L 487 213 L 486 213 L 486 213 L 486 213 L 486 213 Z  M 486 211 L 486 210 L 486 210 L 487 210 L 487 211 L 486 211 L 486 211 L 486 211 L 486 211 L 486 211 Z  M 486 207 L 486 206 L 486 206 L 487 206 L 487 207 L 486 207 L 486 207 L 486 207 L 486 207 L 486 207 L 486 207 L 486 207 Z  M 486 203 L 486 202 L 486 202 L 487 202 L 487 203 L 486 203 L 486 203 L 486 203 L 486 203 L 486 203 L 486 203 L 486 203 L 486 203 L 486 203 Z  M 486 201 L 486 200 L 486 200 L 487 200 L 487 201 L 486 201 L 486 201 L 486 201 L 486 201 L 486 201 L 486 201 L 486 201 L 486 201 L 486 201 L 486 201 Z  M 486 199 L 486 198 L 486 198 L 487 198 L 487 199 L 486 199 L 486 199 L 486 199 L 486 199 L 486 199 L 486 199 L 486 199 L 486 199 L 486 199 L 486 199 L 486 199 Z  M 486 197 L 486 196 L 486 196 L 487 196 L 487 197 L 486 197 L 486 197 L 486 197 L 486 197 L 486 197 L 486 197 L 486 197 L 486 197 L 486 197 L 486 197 L 486 197 L 486 197 Z  M 486 195 L 486 194 L 487 194 L 487 195 L 486 195 L 486 195 L 486 195 L 486 195 L 486 195 L 486 195 L 486 195 L 486 195 L 486 195 L 486 195 L 486 195 L 486 195 L 486 195 Z " fill-rule="evenodd" fill="rgb(161,161,161)"/></g></svg>