<?xml version="1.0" encoding="UTF-8" standalone="no"?><!-- Generator: Gravit.io --><svg xmlns="http://www.w3.org/2000/svg" xmlns:xlink="http://www.w3.org/1999/xlink" style="isolation:isolate" viewBox="969.879 2795.563 23.98 23.601" width="23.98px" height="23.601px"><path d=" M 993.171 2812.001 C 993.208 2812.151 993.171 2812.301 993.058 2812.376 L 991.337 2814.022 L 991.748 2816.38 C 991.786 2816.53 991.711 2816.68 991.599 2816.754 C 991.487 2816.829 991.337 2816.867 991.187 2816.792 L 989.091 2815.669 L 986.996 2816.792 C 986.883 2816.867 986.734 2816.867 986.584 2816.754 C 986.472 2816.68 986.397 2816.53 986.434 2816.38 L 986.846 2814.022 L 985.124 2812.376 C 985.012 2812.263 984.975 2812.114 985.012 2812.001 C 985.05 2811.852 985.162 2811.777 985.311 2811.739 L 987.669 2811.403 L 988.717 2809.269 C 988.792 2809.157 988.904 2809.082 989.054 2809.082 C 989.204 2809.082 989.316 2809.157 989.391 2809.307 L 990.439 2811.44 L 992.796 2811.777 C 992.983 2811.777 993.133 2811.889 993.171 2812.001 L 993.171 2812.001 L 993.171 2812.001 L 993.171 2812.001 Z  M 984.937 2812.75 C 985.05 2812.937 985.012 2813.162 984.825 2813.274 C 984.638 2813.386 984.413 2813.349 984.301 2813.162 L 981.457 2808.82 L 977.939 2813.199 C 977.827 2813.349 977.565 2813.386 977.415 2813.274 C 977.265 2813.162 977.228 2812.9 977.34 2812.75 L 980.109 2809.307 L 975.244 2811.702 C 975.057 2811.777 974.833 2811.739 974.758 2811.515 C 974.646 2811.328 974.758 2811.103 974.945 2811.028 L 980.596 2808.222 L 974.945 2805.714 C 974.758 2805.639 974.683 2805.415 974.758 2805.228 C 974.833 2805.041 975.057 2804.966 975.244 2805.041 L 980.559 2807.361 L 978.014 2803.169 C 977.901 2802.982 977.976 2802.758 978.126 2802.645 C 978.313 2802.533 978.538 2802.608 978.65 2802.758 L 981.457 2807.398 L 985.087 2799.614 C 985.162 2799.427 985.386 2799.352 985.573 2799.427 C 985.761 2799.502 985.835 2799.726 985.761 2799.913 L 982.355 2807.211 L 987.969 2803.768 C 988.156 2803.656 988.38 2803.693 988.493 2803.88 C 988.605 2804.067 988.567 2804.292 988.38 2804.404 L 982.467 2808.034 L 987.22 2809.082 C 987.407 2809.12 987.557 2809.344 987.52 2809.531 C 987.482 2809.719 987.258 2809.868 987.07 2809.831 L 982.318 2808.783 L 984.937 2812.75 L 984.937 2812.75 L 984.937 2812.75 L 984.937 2812.75 Z  M 993.732 2798.903 L 992.01 2800.587 L 992.422 2802.945 C 992.46 2803.094 992.385 2803.244 992.272 2803.319 C 992.16 2803.394 992.01 2803.431 991.898 2803.356 L 989.802 2802.234 L 987.707 2803.356 C 987.594 2803.431 987.445 2803.431 987.295 2803.319 C 987.183 2803.244 987.108 2803.094 987.145 2802.945 L 987.557 2800.587 L 985.835 2798.903 C 985.723 2798.791 985.686 2798.641 985.723 2798.529 C 985.761 2798.379 985.873 2798.304 986.023 2798.267 L 988.38 2797.93 L 989.428 2795.759 C 989.54 2795.497 989.99 2795.497 990.102 2795.759 L 991.15 2797.892 L 993.507 2798.229 C 993.657 2798.267 993.769 2798.379 993.844 2798.491 C 993.882 2798.641 993.844 2798.791 993.732 2798.903 L 993.732 2798.903 L 993.732 2798.903 Z  M 970.529 2800.624 C 970.417 2800.512 970.379 2800.362 970.417 2800.25 C 970.454 2800.1 970.566 2800.026 970.716 2799.988 L 973.074 2799.651 L 974.122 2797.518 C 974.234 2797.256 974.683 2797.256 974.795 2797.518 L 975.843 2799.651 L 978.201 2799.988 C 978.351 2800.026 978.463 2800.1 978.5 2800.25 C 978.538 2800.4 978.5 2800.55 978.388 2800.624 L 976.666 2802.309 L 977.078 2804.666 C 977.116 2804.816 977.041 2804.966 976.928 2805.041 C 976.816 2805.115 976.666 2805.153 976.554 2805.078 L 974.458 2803.955 L 972.363 2805.078 C 972.25 2805.115 972.101 2805.115 971.988 2805.041 C 971.876 2804.966 971.801 2804.816 971.839 2804.666 L 972.25 2802.309 L 970.529 2800.624 L 970.529 2800.624 Z  M 978.014 2814.322 C 978.051 2814.471 978.014 2814.621 977.901 2814.696 L 976.217 2816.343 L 976.629 2818.7 C 976.666 2818.85 976.592 2819 976.479 2819.075 C 976.33 2819.15 976.217 2819.15 976.068 2819.112 L 973.972 2817.989 L 971.839 2819.112 C 971.726 2819.187 971.577 2819.187 971.464 2819.075 C 971.352 2819 971.277 2818.85 971.315 2818.7 L 971.726 2816.343 L 970.005 2814.659 C 969.893 2814.546 969.855 2814.397 969.893 2814.284 C 969.93 2814.135 970.042 2814.06 970.192 2814.022 L 972.587 2813.723 L 973.635 2811.59 C 973.71 2811.478 973.822 2811.403 973.972 2811.403 C 974.122 2811.403 974.234 2811.478 974.309 2811.59 L 975.357 2813.723 L 977.714 2814.06 C 977.864 2814.06 977.976 2814.172 978.014 2814.322 Z " fill-rule="evenodd" fill="rgb(215,215,215)"/></svg>