<?xml version="1.0" encoding="UTF-8" standalone="no"?><!-- Generator: Gravit.io --><svg xmlns="http://www.w3.org/2000/svg" xmlns:xlink="http://www.w3.org/1999/xlink" style="isolation:isolate" viewBox="76 49.974 22 22" width="22px" height="22px"><path d=" M 76.45 57.638 L 86.534 63.596 C 86.677 63.681 86.838 63.724 87 63.724 C 87.161 63.724 87.322 63.681 87.466 63.596 L 97.55 57.638 C 97.829 57.473 98 57.173 98 56.849 C 98 56.525 97.829 56.224 97.55 56.06 L 87.466 50.101 C 87.178 49.931 86.821 49.931 86.534 50.101 L 76.45 56.06 C 76.171 56.224 76 56.525 76 56.849 C 76 57.173 76.171 57.473 76.45 57.638 Z  M 87 51.955 L 95.281 56.849 L 87 61.742 L 78.718 56.849 L 87 51.955 Z  M 97.55 60.185 L 97.083 59.909 L 87 65.867 L 76.917 59.909 L 76.45 60.185 C 76.171 60.349 76 60.65 76 60.974 C 76 61.298 76.171 61.598 76.45 61.763 L 86.534 67.721 C 86.677 67.806 86.838 67.849 87 67.849 C 87.161 67.849 87.322 67.806 87.466 67.721 L 97.55 61.763 C 97.829 61.598 98 61.298 98 60.974 C 98 60.65 97.829 60.349 97.55 60.185 Z  M 97.55 64.31 L 97.083 64.034 L 87 69.992 L 76.917 64.034 L 76.45 64.31 C 76.171 64.474 76 64.775 76 65.099 C 76 65.423 76.171 65.723 76.45 65.888 L 86.534 71.846 C 86.677 71.931 86.838 71.974 87 71.974 C 87.161 71.974 87.322 71.931 87.466 71.846 L 97.55 65.888 C 97.829 65.723 98 65.423 98 65.099 C 98 64.775 97.829 64.474 97.55 64.31 Z " fill="rgb(215,215,215)"/></svg>