<?xml version="1.0" encoding="UTF-8" standalone="no"?><!-- Generator: Gravit.io --><svg xmlns="http://www.w3.org/2000/svg" xmlns:xlink="http://www.w3.org/1999/xlink" style="isolation:isolate" viewBox="728 589 24 24" width="24px" height="24px"><g><g><g opacity="0"><rect x="728" y="589" width="24" height="24" transform="matrix(1,0,0,1,0,0)" fill="rgb(37,86,132)"/></g></g><path d=" M 747.008 599 L 744.008 599 L 747.508 594 L 751.008 599 L 748.008 599 L 748.008 606 L 747.008 606 L 747.008 599 Z  M 741.008 607 L 738.008 607 L 741.508 612 L 745.008 607 L 742.008 607 L 742.008 600 L 741.008 600 L 741.008 607 Z " fill-rule="evenodd" fill="rgb(77,77,77)"/><path d=" M 739.01 600.995 L 739 601 L 729 595.5 L 729 595.5 L 729 595.5 L 739 590 L 745.403 593.522 L 742.269 598 L 742.269 598 L 741.01 598 C 739.906 598 739.01 598.896 739.01 600 L 739.01 600.995 Z  M 744.01 601 L 744.01 601 L 745.01 601 L 745.01 601.802 L 744.01 602.358 L 744.01 601 Z  M 739.01 602.854 L 739 602.86 L 730.49 598.13 C 730.25 598 729.98 597.97 729.73 598.04 C 729.47 598.11 729.25 598.28 729.13 598.51 C 729 598.75 728.97 599.02 729.04 599.27 C 729.11 599.53 729.28 599.75 729.51 599.87 L 738.748 605 L 739.01 605 L 739.01 602.854 Z  M 744.01 604.075 L 745.01 603.52 L 745.01 603.52 L 745.01 603.52 L 745.01 605 L 744.01 605 L 744.01 604.075 Z  M 736.463 605.45 L 730.49 602.13 C 730.25 602 729.98 601.97 729.73 602.04 C 729.47 602.11 729.25 602.28 729.13 602.51 C 729 602.75 728.97 603.02 729.04 603.27 C 729.11 603.53 729.28 603.75 729.51 603.87 L 736.029 607.49 C 735.683 606.623 735.855 605.891 736.463 605.45 Z " fill-rule="evenodd" fill="rgb(117,117,117)"/></g></svg>