<?xml version="1.0" encoding="UTF-8" standalone="no"?><!-- Generator: Gravit.io --><svg xmlns="http://www.w3.org/2000/svg" xmlns:xlink="http://www.w3.org/1999/xlink" style="isolation:isolate" viewBox="419.143 111.433 26.01 24" width="26.01pt" height="24pt"><path d=" M 431.512 116.669 L 431.953 116.669 L 431.953 117.551 L 431.512 117.551 L 424.313 117.551 L 423.872 117.551 L 423.872 116.669 L 424.313 116.669 L 431.512 116.669 L 431.512 116.669 L 431.512 116.669 Z  M 428.867 119.58 L 429.253 119.58 L 429.253 120.462 L 428.867 120.462 L 424.258 120.462 L 423.872 120.462 L 423.872 119.58 L 424.258 119.58 L 428.867 119.58 L 428.867 119.58 L 428.867 119.58 Z  M 431.07 119.58 L 431.953 119.58 L 431.953 120.462 L 431.07 120.462 L 431.07 119.58 L 431.07 119.58 Z  M 436.681 118.433 L 436.681 125.698 L 429.385 125.698 L 429.379 125.703 L 429.379 129.169 L 435.492 129.169 L 439.762 132.319 L 439.762 132.319 L 439.762 129.169 L 443.388 129.169 L 443.388 118.433 L 436.681 118.433 L 436.681 118.433 Z  M 424.533 127.083 L 424.533 123.934 L 420.907 123.934 L 420.907 113.197 L 434.917 113.197 L 434.917 123.934 L 428.803 123.934 L 424.533 127.083 L 424.533 127.083 L 424.533 127.083 Z  M 436.681 116.669 L 436.681 111.433 L 419.143 111.433 L 419.143 125.698 L 422.769 125.698 L 422.769 129.694 L 422.769 129.694 C 422.769 130.181 423.087 130.342 423.479 130.053 L 427.614 127.004 L 427.614 130.934 L 434.91 130.934 L 440.817 135.289 C 441.209 135.578 441.527 135.417 441.527 134.93 L 441.527 134.93 L 441.527 130.934 L 445.153 130.934 L 445.153 116.669 L 436.681 116.669 L 436.681 116.669 Z " fill-rule="evenodd" fill="rgb(215,215,215)"/></svg>