<?xml version="1.0" encoding="UTF-8" standalone="no"?><!-- Generator: Gravit.io --><svg xmlns="http://www.w3.org/2000/svg" xmlns:xlink="http://www.w3.org/1999/xlink" style="isolation:isolate" viewBox="720 29 24 24" width="24pt" height="24pt"><g><g><g opacity="0"><rect x="720" y="29" width="24" height="24" transform="matrix(1,0,0,1,0,0)" fill="rgb(37,86,132)"/></g></g><path d=" M 726.728 50.732 L 725.446 47.523 L 722 47.776 L 724.138 45.062 L 722.196 42.203 L 725.615 42.698 L 727.12 39.587 L 728.402 42.795 L 731.848 42.543 L 729.71 45.257 L 731.652 48.115 L 728.232 47.621 L 726.728 50.732 Z  M 733.422 38 L 732.589 35.371 L 730 34.422 L 732.629 33.589 L 733.578 31 L 734.411 33.629 L 737 34.578 L 734.371 35.411 L 733.422 38 Z " fill-rule="evenodd" fill="rgb(215,215,215)"/><path d=" M 724.444 38.002 L 723.849 36.124 L 722 35.447 L 723.878 34.852 L 724.556 33.002 L 725.151 34.88 L 727 35.558 L 725.122 36.153 L 724.444 38.002 Z  M 739.422 46.002 L 738.589 43.373 L 736 42.424 L 738.629 41.591 L 739.578 39.002 L 740.411 41.631 L 743 42.58 L 740.371 43.413 L 739.422 46.002 Z " fill-rule="evenodd" fill="rgb(161,161,161)"/></g></svg>