<?xml version="1.0" encoding="UTF-8" standalone="no"?><!-- Generator: Gravit.io --><svg xmlns="http://www.w3.org/2000/svg" xmlns:xlink="http://www.w3.org/1999/xlink" style="isolation:isolate" viewBox="908 293 24 24" width="24px" height="24px"><g><g><g opacity="0"><rect x="908" y="293" width="24" height="24" transform="matrix(1,0,0,1,0,0)" fill="rgb(37,86,132)"/></g></g><path d=" M 920.298 297.702 L 920.298 297.702 C 920.686 297.314 921.317 297.317 921.707 297.707 L 929 305 L 921.707 312.293 C 921.317 312.683 920.686 312.686 920.298 312.298 L 920.298 312.298 C 919.911 311.911 919.912 311.278 920.301 310.886 L 925.164 305.982 L 912 305.982 C 911.448 305.982 911 305.542 911 305 L 911 305 C 911 304.458 911.448 304.018 912 304.018 L 925.164 304.018 L 920.301 299.114 C 919.912 298.722 919.911 298.089 920.298 297.702 Z " fill="rgb(117,117,117)"/></g></svg>