<?xml version="1.0" encoding="UTF-8" standalone="no"?><!-- Generator: Gravit.io --><svg xmlns="http://www.w3.org/2000/svg" xmlns:xlink="http://www.w3.org/1999/xlink" style="isolation:isolate" viewBox="332 1091.027 104 104" width="104pt" height="104pt"><g><g><g opacity="0"><rect x="372" y="1131.027" width="24" height="24" transform="matrix(1,0,0,1,0,0)" fill="rgb(37,86,132)"/></g></g><path d=" M 386 1154.027 L 394 1154.027 L 394 1145.027 C 394 1139.508 389.743 1135.027 384.5 1135.027 L 384.5 1135.027 L 384.5 1135.027 C 379.257 1135.027 375 1139.508 375 1145.027 L 375 1154.027 L 383 1154.027 L 383 1147.69 C 381.818 1147.128 381 1145.922 381 1144.527 L 381 1144.527 C 381 1142.595 382.568 1141.027 384.5 1141.027 L 384.5 1141.027 L 384.5 1141.027 C 386.432 1141.027 388 1142.595 388 1144.527 L 388 1144.527 C 388 1145.922 387.182 1147.128 386 1147.69 L 386 1154.027 Z " fill="rgb(161,161,161)"/><path d=" M 385 1148.014 L 385 1154.027 L 384 1154.027 L 384 1148.014 C 384.08 1148.019 384.16 1148.022 384.242 1148.022 L 384.758 1148.022 C 384.84 1148.022 384.92 1148.019 385 1148.014 Z  M 384.5 1142.027 L 384.5 1142.027 C 385.88 1142.027 387 1143.147 387 1144.527 L 387 1144.527 C 387 1145.907 385.88 1147.027 384.5 1147.027 L 384.5 1147.027 C 383.12 1147.027 382 1145.907 382 1144.527 L 382 1144.527 C 382 1143.147 383.12 1142.027 384.5 1142.027 Z " fill-rule="evenodd" fill="rgb(215,215,215)"/></g></svg>