<?xml version="1.0" encoding="UTF-8" standalone="no"?><!-- Generator: Gravit.io --><svg xmlns="http://www.w3.org/2000/svg" xmlns:xlink="http://www.w3.org/1999/xlink" style="isolation:isolate" viewBox="169 2532 22.34 22.36" width="22.34pt" height="22.36pt"><path d=" M 183.263 2537.004 C 185.548 2537.96 187.271 2539.947 187.89 2542.38 C 187.96 2542.64 188.12 2542.86 188.35 2543 C 188.58 2543.13 188.85 2543.17 189.11 2543.11 C 189.37 2543.04 189.59 2542.88 189.72 2542.65 C 189.86 2542.42 189.9 2542.15 189.83 2541.89 C 189.006 2538.671 186.642 2536.082 183.55 2534.955 C 183.448 2534.392 183.222 2533.854 182.88 2533.39 C 182.42 2532.79 181.78 2532.35 181.05 2532.14 C 180.73 2532.05 180.41 2532 180.08 2532 C 179.32 2532 178.58 2532.25 177.97 2532.71 C 177.37 2533.16 176.93 2533.81 176.72 2534.54 C 176.63 2534.85 176.58 2535.17 176.58 2535.5 C 176.58 2536.26 176.83 2537 177.29 2537.61 C 177.74 2538.21 178.39 2538.66 179.12 2538.86 C 179.43 2538.95 179.75 2539 180.08 2539 C 180.84 2539 181.58 2538.75 182.19 2538.3 C 182.641 2537.955 183.007 2537.508 183.263 2537.004 L 183.263 2537.004 Z  M 184.976 2550.727 C 183.593 2551.78 181.891 2552.36 180.14 2552.36 C 179.41 2552.36 178.68 2552.26 177.98 2552.06 C 177.72 2551.99 177.45 2552.02 177.22 2552.15 C 176.98 2552.28 176.81 2552.5 176.74 2552.76 C 176.67 2553.01 176.7 2553.28 176.83 2553.52 C 176.96 2553.75 177.18 2553.92 177.44 2553.99 C 178.32 2554.23 179.23 2554.36 180.14 2554.36 C 182.508 2554.36 184.792 2553.516 186.595 2551.997 C 186.987 2552.159 187.411 2552.24 187.84 2552.24 C 188.75 2552.24 189.62 2551.89 190.28 2551.26 C 190.96 2550.6 191.34 2549.69 191.34 2548.74 C 191.34 2547.83 190.99 2546.96 190.36 2546.31 C 189.7 2545.62 188.79 2545.24 187.84 2545.24 C 186.94 2545.24 186.07 2545.59 185.41 2546.22 C 184.73 2546.88 184.34 2547.79 184.34 2548.74 C 184.34 2549.458 184.564 2550.152 184.976 2550.727 L 184.976 2550.727 Z  M 172.213 2545.35 C 172.161 2545.019 172.14 2544.683 172.14 2544.35 C 172.14 2542.2 173.01 2540.13 174.56 2538.63 C 174.75 2538.44 174.85 2538.19 174.86 2537.93 C 174.86 2537.66 174.76 2537.4 174.57 2537.22 C 174.39 2537.03 174.13 2536.92 173.87 2536.91 C 173.6 2536.91 173.35 2537.01 173.16 2537.2 C 171.23 2539.08 170.14 2541.66 170.14 2544.35 C 170.14 2544.947 170.193 2545.538 170.296 2546.121 C 170.09 2546.284 169.903 2546.472 169.74 2546.68 C 169.26 2547.3 169 2548.06 169 2548.84 C 169 2549.12 169.04 2549.41 169.1 2549.68 C 169.29 2550.44 169.73 2551.11 170.35 2551.6 C 170.96 2552.08 171.72 2552.34 172.5 2552.34 C 172.79 2552.34 173.07 2552.3 173.35 2552.23 C 174.1 2552.04 174.78 2551.61 175.26 2550.99 C 175.74 2550.38 176 2549.62 176 2548.84 C 176 2548.55 175.97 2548.27 175.9 2547.99 C 175.71 2547.23 175.27 2546.56 174.66 2546.08 C 174.04 2545.6 173.28 2545.34 172.5 2545.34 C 172.405 2545.34 172.31 2545.344 172.213 2545.35 Z " fill-rule="evenodd" fill="rgb(161,161,161)"/></svg>