<?xml version="1.0" encoding="UTF-8" standalone="no"?><!-- Generator: Gravit.io --><svg xmlns="http://www.w3.org/2000/svg" xmlns:xlink="http://www.w3.org/1999/xlink" style="isolation:isolate" viewBox="278 1168.027 104 104" width="104pt" height="104pt"><g><g><g opacity="0"><rect x="318" y="1208.027" width="24" height="24" transform="matrix(1,0,0,1,0,0)" fill="rgb(37,86,132)"/></g></g><path d=" M 328 1229.027 L 320 1229.027 L 320 1220.027 L 330 1210.027 L 339 1210.027 L 339 1218.027 L 332.661 1218.027 C 332.49 1217.669 332.258 1217.34 331.97 1217.057 C 331.32 1216.397 330.43 1216.027 329.5 1216.027 C 328.57 1216.027 327.68 1216.397 327.03 1217.057 C 326.37 1217.707 326 1218.597 326 1219.527 C 326 1220.457 326.37 1221.347 327.03 1221.997 C 327.313 1222.285 327.642 1222.517 328 1222.688 L 328 1229.027 Z  M 331 1229.027 L 339 1229.027 L 339 1221.027 L 332.661 1221.027 C 332.49 1221.385 332.258 1221.714 331.97 1221.997 C 331.687 1222.285 331.358 1222.517 331 1222.688 L 331 1229.027 Z " fill-rule="evenodd" fill="rgb(161,161,161)"/><path d=" M 329.5 1217.027 L 329.5 1217.027 C 328.12 1217.027 327 1218.147 327 1219.527 L 327 1219.527 C 327 1220.907 328.12 1222.027 329.5 1222.027 L 329.5 1222.027 C 330.88 1222.027 332 1220.907 332 1219.527 L 332 1219.527 C 332 1218.147 330.88 1217.027 329.5 1217.027 Z  M 332.964 1219.027 L 339 1219.027 L 339 1220.027 L 332.964 1220.027 C 332.988 1219.864 333 1219.697 333 1219.527 L 333 1219.527 C 333 1219.357 332.988 1219.19 332.964 1219.027 L 332.964 1219.027 Z  M 330 1222.991 L 330 1229.027 L 329 1229.027 L 329 1222.991 C 329.163 1223.015 329.33 1223.027 329.5 1223.027 L 329.5 1223.027 C 329.67 1223.027 329.837 1223.015 330 1222.991 L 330 1222.991 Z " fill-rule="evenodd" fill="rgb(215,215,215)"/></g></svg>