<?xml version="1.0" encoding="UTF-8" standalone="no"?><!-- Generator: Gravit.io --><svg xmlns="http://www.w3.org/2000/svg" xmlns:xlink="http://www.w3.org/1999/xlink" style="isolation:isolate" viewBox="625 193 24 24" width="24pt" height="24pt"><g><g><g opacity="0"><rect x="625" y="193" width="24" height="24" transform="matrix(1,0,0,1,0,0)" fill="rgb(37,86,132)"/></g></g><path d=" M 632 195 L 644 195 L 644 200 L 632 200 L 632 195 Z " fill="rgb(215,215,215)"/><path d=" M 643 206 L 642 206 L 642 206 L 642 205 L 643 205 L 643 206 L 643 206 L 643 206 L 643 206 L 643 206 L 643 206 Z  M 632 210 L 644 210 L 644 212 L 632 212 L 632 210 L 632 210 L 632 210 Z  M 641 206 L 640 206 L 640 206 L 640 205 L 641 205 L 641 206 L 641 206 L 641 206 L 641 206 L 641 206 L 641 206 L 641 206 Z  M 649 206 L 648 206 L 648 206 L 648 205 L 649 205 L 649 206 L 649 206 L 649 206 Z  M 647 206 L 646 206 L 646 206 L 646 205 L 647 205 L 647 206 L 647 206 L 647 206 L 647 206 Z  M 637 206 L 636 206 L 636 206 L 636 205 L 637 205 L 637 206 L 637 206 L 637 206 L 637 206 L 637 206 L 637 206 L 637 206 L 637 206 L 637 206 Z  M 645 206 L 644 206 L 644 206 L 644 205 L 645 205 L 645 206 L 645 206 L 645 206 L 645 206 L 645 206 Z  M 629 206 L 628 206 L 628 206 L 628 205 L 629 205 L 629 206 L 629 206 L 629 206 L 629 206 L 629 206 L 629 206 L 629 206 L 629 206 L 629 206 L 629 206 L 629 206 L 629 206 L 629 206 Z  M 639 206 L 638 206 L 638 206 L 638 205 L 639 205 L 639 206 L 639 206 L 639 206 L 639 206 L 639 206 L 639 206 L 639 206 L 639 206 Z  M 635 206 L 634 206 L 634 206 L 634 205 L 635 205 L 635 206 L 635 206 L 635 206 L 635 206 L 635 206 L 635 206 L 635 206 L 635 206 L 635 206 L 635 206 Z  M 633 206 L 632 206 L 632 206 L 632 205 L 633 205 L 633 206 L 633 206 L 633 206 L 633 206 L 633 206 L 633 206 L 633 206 L 633 206 L 633 206 L 633 206 L 633 206 Z  M 631 206 L 630 206 L 630 206 L 630 205 L 631 205 L 631 206 L 631 206 L 631 206 L 631 206 L 631 206 L 631 206 L 631 206 L 631 206 L 631 206 L 631 206 L 631 206 L 631 206 Z  M 627 206 L 626 206 L 626 205 L 627 205 L 627 206 L 627 206 L 627 206 L 627 206 L 627 206 L 627 206 L 627 206 L 627 206 L 627 206 L 627 206 L 627 206 L 627 206 L 627 206 L 627 206 Z  M 630 208 L 646 208 L 646 214 L 630 214 L 630 208 L 630 208 L 630 208 Z  M 641 203 L 640 203 L 640 203 L 640 202 L 641 202 L 641 203 L 641 203 L 641 203 L 641 203 L 641 203 L 641 203 Z  M 649 203 L 648 203 L 648 203 L 648 202 L 649 202 L 649 203 L 649 203 Z  M 647 203 L 646 203 L 646 203 L 646 202 L 647 202 L 647 203 L 647 203 L 647 203 Z  M 637 203 L 636 203 L 636 203 L 636 202 L 637 202 L 637 203 L 637 203 L 637 203 L 637 203 L 637 203 L 637 203 L 637 203 L 637 203 Z  M 645 203 L 644 203 L 644 203 L 644 202 L 645 202 L 645 203 L 645 203 L 645 203 L 645 203 Z  M 643 203 L 642 203 L 642 203 L 642 202 L 643 202 L 643 203 L 643 203 L 643 203 L 643 203 L 643 203 Z  M 639 203 L 638 203 L 638 203 L 638 202 L 639 202 L 639 203 L 639 203 L 639 203 L 639 203 L 639 203 L 639 203 L 639 203 Z  M 635 203 L 634 203 L 634 203 L 634 202 L 635 202 L 635 203 L 635 203 L 635 203 L 635 203 L 635 203 L 635 203 L 635 203 L 635 203 L 635 203 Z  M 633 203 L 632 203 L 632 203 L 632 202 L 633 202 L 633 203 L 633 203 L 633 203 L 633 203 L 633 203 L 633 203 L 633 203 L 633 203 L 633 203 L 633 203 Z  M 631 203 L 630 203 L 630 203 L 630 202 L 631 202 L 631 203 L 631 203 L 631 203 L 631 203 L 631 203 L 631 203 L 631 203 L 631 203 L 631 203 L 631 203 L 631 203 Z  M 629 203 L 628 203 L 628 203 L 628 202 L 629 202 L 629 203 L 629 203 L 629 203 L 629 203 L 629 203 L 629 203 L 629 203 L 629 203 L 629 203 L 629 203 L 629 203 L 629 203 Z  M 627 203 L 626 203 L 626 202 L 627 202 L 627 203 L 627 203 L 627 203 L 627 203 L 627 203 L 627 203 L 627 203 L 627 203 L 627 203 L 627 203 L 627 203 L 627 203 L 627 203 Z " fill-rule="evenodd" fill="rgb(161,161,161)"/></g></svg>