<?xml version="1.0" encoding="UTF-8" standalone="no"?><!-- Generator: Gravit.io --><svg xmlns="http://www.w3.org/2000/svg" xmlns:xlink="http://www.w3.org/1999/xlink" style="isolation:isolate" viewBox="1395.026 186.802 24 24" width="24pt" height="24pt"><g><g opacity="0.2"><rect x="1395.026" y="186.802" width="24" height="24" transform="matrix(1,0,0,1,0,0)" fill="none"/></g><g><path d=" M 1415.276 191.392 L 1417.276 191.392 L 1417.276 190.392 L 1415.276 190.392 L 1415.276 188.392 L 1414.276 188.392 L 1414.276 190.392 L 1412.276 190.392 L 1412.276 191.392 L 1414.276 191.392 L 1414.276 193.392 L 1415.276 193.392 L 1415.276 191.392 Z  M 1412.276 187.392 L 1417.276 187.392 C 1417.828 187.392 1418.276 187.84 1418.276 188.392 L 1418.276 193.392 C 1418.276 193.944 1417.828 194.392 1417.276 194.392 L 1412.276 194.392 C 1411.724 194.392 1411.276 193.944 1411.276 193.392 L 1411.276 188.392 C 1411.276 187.84 1411.724 187.392 1412.276 187.392 Z " fill-rule="evenodd" fill="rgb(255,255,255)"/><path d=" M 1409.167 189.895 L 1397.176 189.895 L 1397.176 189.895 C 1396.806 189.895 1396.446 190.035 1396.186 190.305 C 1395.926 190.565 1395.776 190.915 1395.776 191.285 L 1395.776 204.495 C 1395.776 204.865 1395.926 205.225 1396.186 205.485 C 1396.446 205.745 1396.806 205.895 1397.176 205.895 L 1399.506 205.895 L 1399.506 209.635 C 1399.506 210.187 1399.873 210.377 1400.324 210.059 L 1406.236 205.895 L 1406.236 205.895 L 1414.376 205.895 C 1414.746 205.895 1415.106 205.745 1415.366 205.485 C 1415.626 205.225 1415.776 204.865 1415.776 204.495 L 1415.776 196.501 L 1413.776 196.501 L 1413.776 203.895 L 1405.596 203.895 L 1401.506 206.775 L 1401.506 203.895 L 1397.776 203.895 L 1397.776 191.895 L 1409.167 191.895 L 1409.167 189.895 Z " fill-rule="evenodd" fill="rgb(255,255,255)"/></g></g></svg>