<?xml version="1.0" encoding="UTF-8" standalone="no"?><!-- Generator: Gravit.io --><svg xmlns="http://www.w3.org/2000/svg" xmlns:xlink="http://www.w3.org/1999/xlink" style="isolation:isolate" viewBox="202.047 141.548 24 24" width="24pt" height="24pt"><g><g><path d=" M 208.322 163.977 Q 203.469 164.745 203.469 160.439 C 203.469 155.908 214.059 149.765 214.059 146.674 C 214.059 143.184 211.776 144.359 211.099 144.359 C 210.518 144.359 210.07 143.899 210.07 143.36 C 210.07 142.944 210.475 142.439 211.16 142.439 C 212.926 142.439 214.789 143.712 214.789 146.674 C 214.789 150.057 206.469 156.927 206.469 159.302 Q 206.469 161.365 208.733 161.63 L 208.322 163.977 Z " fill="rgb(255,255,255)"/><path d=" M 222.09 155.353 L 224.04 153.403 C 224.82 152.623 224.82 151.355 224.04 150.575 L 223.333 149.868 C 222.552 149.087 221.285 149.087 220.504 149.868 L 218.554 151.818 L 222.09 155.353 L 222.09 155.353 L 222.09 155.353 L 222.09 155.353 Z  M 218.227 154.197 L 218.297 154.267 C 218.472 154.443 218.472 154.728 218.297 154.904 L 212.045 161.156 C 211.869 161.332 211.583 161.332 211.407 161.156 L 211.337 161.086 C 211.162 160.91 211.162 160.625 211.337 160.449 L 217.589 154.197 C 217.765 154.021 218.051 154.021 218.227 154.197 L 218.227 154.197 L 218.227 154.197 Z  M 219.641 155.611 L 219.711 155.681 C 219.887 155.857 219.887 156.142 219.711 156.318 L 213.459 162.57 C 213.283 162.746 212.997 162.746 212.822 162.57 L 212.752 162.5 C 212.576 162.324 212.576 162.039 212.752 161.863 L 219.004 155.611 C 219.179 155.435 219.465 155.435 219.641 155.611 L 219.641 155.611 Z  M 221.383 156.06 L 213.433 164.01 L 209.251 164.656 L 209.898 160.474 L 217.847 152.525 L 221.383 156.06 L 221.383 156.06 L 221.383 156.06 L 221.383 156.06 Z  M 210.469 161.439 L 210.469 162.939 C 210.469 163.215 210.693 163.439 210.969 163.439 L 212.469 163.439 L 210.469 161.439 Z " fill-rule="evenodd" fill="rgb(255,255,255)"/></g><rect x="202.047" y="141.548" width="24" height="24" transform="matrix(1,0,0,1,0,0)" fill="none"/></g></svg>