<?xml version="1.0" encoding="UTF-8" standalone="no"?><!-- Generator: Gravit.io --><svg xmlns="http://www.w3.org/2000/svg" xmlns:xlink="http://www.w3.org/1999/xlink" style="isolation:isolate" viewBox="536 1388.99 24 24" width="24pt" height="24pt"><g><g opacity="0"><rect x="536" y="1388.99" width="24" height="24" transform="matrix(1,0,0,1,0,0)" fill="rgb(37,86,132)"/></g><path d=" M 551 1408.97 L 555.75 1408.97 C 556.61 1408.97 557.44 1408.63 558.05 1408.02 C 558.66 1407.41 559 1406.58 559 1405.72 L 559 1393.22 C 559 1392.36 558.66 1391.53 558.05 1390.92 C 557.44 1390.31 556.61 1389.97 555.75 1389.97 L 543.25 1389.97 L 543.25 1389.97 C 542.39 1389.97 541.56 1390.31 540.95 1390.92 C 540.34 1391.53 540 1392.36 540 1393.22 L 540 1397.97 L 542 1397.97 L 542 1393.22 C 542 1392.89 542.13 1392.57 542.37 1392.34 C 542.6 1392.1 542.92 1391.97 543.25 1391.97 L 543.25 1391.97 L 555.75 1391.97 C 556.08 1391.97 556.4 1392.1 556.63 1392.34 C 556.87 1392.57 557 1392.89 557 1393.22 L 557 1405.72 C 557 1406.05 556.87 1406.37 556.63 1406.6 C 556.4 1406.84 556.08 1406.97 555.75 1406.97 L 551 1406.97 L 551 1408.97 Z " fill="rgb(215,215,215)"/><path d=" M 552 1398.39 L 548.867 1401.523 C 548.954 1401.768 549 1402.027 549 1402.29 L 549 1409.65 C 549 1410.26 548.75 1410.85 548.32 1411.29 C 547.88 1411.72 547.29 1411.97 546.68 1411.97 L 539.32 1411.97 C 538.71 1411.97 538.12 1411.72 537.68 1411.29 C 537.25 1410.85 537 1410.26 537 1409.65 L 537 1402.29 C 537 1401.68 537.25 1401.09 537.68 1400.65 C 538.12 1400.22 538.71 1399.97 539.32 1399.97 L 539.32 1399.97 L 546.68 1399.97 C 546.943 1399.97 547.202 1400.016 547.447 1400.104 L 547.447 1400.104 L 550.58 1396.97 L 549 1396.97 C 548.73 1396.97 548.48 1396.86 548.29 1396.68 C 548.11 1396.49 548 1396.24 548 1395.97 C 548 1395.7 548.11 1395.45 548.29 1395.26 C 548.48 1395.08 548.73 1394.97 549 1394.97 L 554 1394.97 L 554 1399.97 C 554 1400.24 553.89 1400.49 553.71 1400.68 C 553.52 1400.86 553.27 1400.97 553 1400.97 C 552.73 1400.97 552.48 1400.86 552.29 1400.68 C 552.11 1400.49 552 1400.24 552 1399.97 L 552 1398.39 Z  M 539.32 1401.97 L 546.68 1401.97 C 546.76 1401.97 546.84 1402 546.9 1402.07 C 546.97 1402.13 547 1402.21 547 1402.29 L 547 1409.65 C 547 1409.73 546.97 1409.81 546.9 1409.87 C 546.84 1409.94 546.76 1409.97 546.68 1409.97 L 539.32 1409.97 C 539.24 1409.97 539.16 1409.94 539.1 1409.87 C 539.03 1409.81 539 1409.73 539 1409.65 L 539 1402.29 C 539 1402.21 539.03 1402.13 539.1 1402.07 C 539.16 1402 539.24 1401.97 539.32 1401.97 L 539.32 1401.97 L 539.32 1401.97 Z " fill-rule="evenodd" fill="rgb(161,161,161)"/></g></svg>