<?xml version="1.0" encoding="UTF-8" standalone="no"?><!-- Generator: Gravit.io --><svg xmlns="http://www.w3.org/2000/svg" xmlns:xlink="http://www.w3.org/1999/xlink" style="isolation:isolate" viewBox="787.54 2795.527 22.92 22.92" width="22.92px" height="22.92px"><path d=" M 810.46 2800.931 L 810.46 2795.527 L 805.055 2795.527 L 805.055 2797.169 L 801.702 2797.169 L 801.702 2795.527 L 796.298 2795.527 L 796.298 2797.169 L 792.944 2797.169 L 792.944 2795.527 L 787.54 2795.527 L 787.54 2800.931 L 789.182 2800.931 L 789.182 2804.285 L 787.54 2804.285 L 787.54 2809.689 L 789.182 2809.689 L 789.182 2813.043 L 787.54 2813.043 L 787.54 2818.447 L 792.944 2818.447 L 792.944 2816.805 L 796.298 2816.805 L 796.298 2818.447 L 801.702 2818.447 L 801.702 2816.805 L 805.055 2816.805 L 805.055 2818.447 L 810.46 2818.447 L 810.46 2813.043 L 808.818 2813.043 L 808.818 2809.689 L 810.46 2809.689 L 810.46 2804.285 L 808.818 2804.285 L 808.818 2800.931 L 810.46 2800.931 Z  M 796.298 2813.043 L 796.298 2815.197 L 792.944 2815.197 L 792.944 2813.043 L 790.79 2813.043 L 790.79 2809.689 L 792.944 2809.689 L 792.944 2804.285 L 790.79 2804.285 L 790.79 2800.931 L 792.944 2800.931 L 792.944 2798.777 L 796.298 2798.777 L 796.298 2800.931 L 801.702 2800.931 L 801.702 2798.777 L 805.055 2798.777 L 805.055 2800.931 L 807.21 2800.931 L 807.21 2804.285 L 805.055 2804.285 L 805.055 2809.689 L 807.21 2809.689 L 807.21 2813.043 L 805.055 2813.043 L 805.055 2815.197 L 801.702 2815.197 L 801.702 2813.043 L 796.298 2813.043 L 796.298 2813.043 Z  M 797.905 2816.839 L 797.905 2814.65 L 800.095 2814.65 L 800.095 2816.839 L 797.905 2816.839 Z  M 791.337 2797.135 L 791.337 2799.324 L 789.147 2799.324 L 789.147 2797.135 L 791.337 2797.135 Z  M 791.337 2805.892 L 791.337 2808.082 L 789.147 2808.082 L 789.147 2805.892 L 791.337 2805.892 Z  M 791.337 2814.65 L 791.337 2816.84 L 789.147 2816.84 L 789.147 2814.65 L 791.337 2814.65 Z  M 800.094 2797.135 L 800.094 2799.324 L 797.905 2799.324 L 797.905 2797.135 L 800.094 2797.135 Z  M 808.852 2797.135 L 808.852 2799.324 L 806.663 2799.324 L 806.663 2797.135 L 808.852 2797.135 Z  M 808.852 2805.892 L 808.852 2808.082 L 806.663 2808.082 L 806.663 2805.892 L 808.852 2805.892 Z  M 806.663 2814.65 L 808.853 2814.65 L 808.853 2816.84 L 806.663 2816.84 L 806.663 2814.65 Z " fill="rgb(215,215,215)"/></svg>