<?xml version="1.0" encoding="UTF-8" standalone="no"?><!-- Generator: Gravit.io --><svg xmlns="http://www.w3.org/2000/svg" xmlns:xlink="http://www.w3.org/1999/xlink" style="isolation:isolate" viewBox="862 247 24 24" width="24px" height="24px"><g><g><g opacity="0"><rect x="862" y="247" width="24" height="24" transform="matrix(1,0,0,1,0,0)" fill="rgb(37,86,132)"/></g></g><path d=" M 866.702 258.702 L 866.702 258.702 C 866.314 258.314 866.317 257.683 866.707 257.293 L 874 250 L 881.293 257.293 C 881.683 257.683 881.686 258.314 881.298 258.702 L 881.298 258.702 C 880.911 259.089 880.278 259.088 879.886 258.699 L 874.982 253.836 L 874.982 267 C 874.982 267.552 874.542 268 874 268 L 874 268 C 873.458 268 873.018 267.552 873.018 267 L 873.018 253.836 L 868.114 258.699 C 867.722 259.088 867.089 259.089 866.702 258.702 Z " fill="rgb(117,117,117)"/></g></svg>