<?xml version="1.0" encoding="UTF-8" standalone="no"?><!-- Generator: Gravit.io --><svg xmlns="http://www.w3.org/2000/svg" xmlns:xlink="http://www.w3.org/1999/xlink" style="isolation:isolate" viewBox="636 634 24 24" width="24pt" height="24pt"><g><g><g opacity="0"><rect x="636" y="634" width="24" height="24" transform="matrix(1,0,0,1,0,0)" fill="rgb(37,86,132)"/></g></g><path d=" M 650 642.521 L 650 640 C 650 639.448 649.552 639 649 639 L 642 639 C 641.448 639 641 639.448 641 640 L 641 647 C 641 647.552 641.448 648 642 648 L 644.521 648 C 644.761 645.087 647.087 642.761 650 642.521 L 650 642.521 L 650 642.521 L 650 642.521 L 650 642.521 Z  M 639.5 636 L 639.5 636 C 640.328 636 641 636.672 641 637.5 L 641 637.5 C 641 638.328 640.328 639 639.5 639 L 639.5 639 C 638.672 639 638 638.328 638 637.5 L 638 637.5 C 638 636.672 638.672 636 639.5 636 L 639.5 636 L 639.5 636 L 639.5 636 L 639.5 636 Z  M 639.5 653 L 639.5 653 C 640.328 653 641 653.672 641 654.5 L 641 654.5 C 641 655.328 640.328 656 639.5 656 L 639.5 656 C 638.672 656 638 655.328 638 654.5 L 638 654.5 C 638 653.672 638.672 653 639.5 653 L 639.5 653 L 639.5 653 L 639.5 653 Z  M 656.5 653 L 656.5 653 C 657.328 653 658 653.672 658 654.5 L 658 654.5 C 658 655.328 657.328 656 656.5 656 L 656.5 656 C 655.672 656 655 655.328 655 654.5 L 655 654.5 C 655 653.672 655.672 653 656.5 653 L 656.5 653 L 656.5 653 Z  M 656.5 636 L 656.5 636 C 657.328 636 658 636.672 658 637.5 L 658 637.5 C 658 638.328 657.328 639 656.5 639 L 656.5 639 C 655.672 639 655 638.328 655 637.5 L 655 637.5 C 655 636.672 655.672 636 656.5 636 L 656.5 636 Z  M 650.5 644 L 650.5 644 C 652.984 644 655 646.016 655 648.5 L 655 648.5 C 655 650.984 652.984 653 650.5 653 L 650.5 653 C 648.016 653 646 650.984 646 648.5 L 646 648.5 C 646 646.016 648.016 644 650.5 644 Z " fill-rule="evenodd" fill="rgb(117,117,117)"/></g></svg>