<?xml version="1.0" encoding="UTF-8" standalone="no"?><!-- Generator: Gravit.io --><svg xmlns="http://www.w3.org/2000/svg" xmlns:xlink="http://www.w3.org/1999/xlink" style="isolation:isolate" viewBox="490 29 24 24" width="24pt" height="24pt"><g><g><g opacity="0"><rect x="490" y="29" width="24" height="24" transform="matrix(1,0,0,1,0,0)" fill="rgb(37,86,132)"/></g></g><path d=" M 504 42 L 492 42 L 492 41 L 504 41 L 504 37 C 504 36.448 504.448 36 505 36 L 508 36 C 508.552 36 509 36.448 509 37 L 509 41 L 512 41 L 512 42 L 509 42 L 509 46 C 509 46.552 508.552 47 508 47 L 505 47 C 504.448 47 504 46.552 504 46 L 504 42 Z " fill="rgb(215,215,215)"/><path d=" M 495 34 L 495 49 C 495 49.552 495.448 50 496 50 L 500 50 C 500.552 50 501 49.552 501 49 L 501 34 C 501 33.448 500.552 33 500 33 L 496 33 C 495.448 33 495 33.448 495 34 Z " fill="rgb(161,161,161)"/></g></svg>