<?xml version="1.0" encoding="UTF-8" standalone="no"?><!-- Generator: Gravit.io --><svg xmlns="http://www.w3.org/2000/svg" xmlns:xlink="http://www.w3.org/1999/xlink" style="isolation:isolate" viewBox="84 88 24 24" width="24pt" height="24pt"><g><g><g opacity="0"><rect x="84" y="88" width="24" height="24" transform="matrix(1,0,0,1,0,0)" fill="rgb(37,86,132)"/></g></g><path d=" M 86 95.5 L 96 101 L 106 95.5 L 96 90 L 86 95.5 Z " fill="rgb(215,215,215)"/><path d=" M 87.49 98.13 L 96 102.86 L 104.51 98.13 C 104.75 98 105.02 97.97 105.27 98.04 C 105.53 98.11 105.75 98.28 105.87 98.51 C 106 98.75 106.03 99.02 105.96 99.27 C 105.89 99.53 105.72 99.75 105.49 99.87 L 96 105.14 L 86.51 99.87 C 86.28 99.75 86.11 99.53 86.04 99.27 C 85.97 99.02 86 98.75 86.13 98.51 C 86.25 98.28 86.47 98.11 86.73 98.04 C 86.98 97.97 87.25 98 87.49 98.13 Z  M 87.49 102.13 L 96 106.86 L 104.51 102.13 C 104.75 102 105.02 101.97 105.27 102.04 C 105.53 102.11 105.75 102.28 105.87 102.51 C 106 102.75 106.03 103.02 105.96 103.27 C 105.89 103.53 105.72 103.75 105.49 103.87 L 96 109.14 L 86.51 103.87 C 86.28 103.75 86.11 103.53 86.04 103.27 C 85.97 103.02 86 102.75 86.13 102.51 C 86.25 102.28 86.47 102.11 86.73 102.04 C 86.98 101.97 87.25 102 87.49 102.13 Z " fill-rule="evenodd" fill="rgb(161,161,161)"/></g></svg>