<?xml version="1.0" encoding="UTF-8" standalone="no"?><!-- Generator: Gravit.io --><svg xmlns="http://www.w3.org/2000/svg" xmlns:xlink="http://www.w3.org/1999/xlink" style="isolation:isolate" viewBox="717 135 24 24" width="24pt" height="24pt"><g><g><g opacity="0"><rect x="717" y="135" width="24" height="24" transform="matrix(1,0,0,1,0,0)" fill="rgb(37,86,132)"/></g></g><path d=" M 737 143 L 737 154 L 732 154 L 732 143 L 737 143 Z " fill="rgb(215,215,215)"/><path d=" M 727 140 L 727 152 L 725 152 L 725 140 L 727 140 L 727 140 Z  M 729 138 L 729 154 L 723 154 L 723 138 L 729 138 L 729 138 Z  M 733 157 L 732 157 L 732 157 L 732 156 L 733 156 L 733 157 L 733 157 L 733 157 L 733 157 L 733 157 L 733 157 Z  M 741 157 L 740 157 L 740 157 L 740 156 L 741 156 L 741 157 L 741 157 Z  M 739 157 L 738 157 L 738 157 L 738 156 L 739 156 L 739 157 L 739 157 L 739 157 Z  M 729 157 L 728 157 L 728 157 L 728 156 L 729 156 L 729 157 L 729 157 L 729 157 L 729 157 L 729 157 L 729 157 L 729 157 L 729 157 Z  M 737 157 L 736 157 L 736 157 L 736 156 L 737 156 L 737 157 L 737 157 L 737 157 L 737 157 Z  M 735 157 L 734 157 L 734 157 L 734 156 L 735 156 L 735 157 L 735 157 L 735 157 L 735 157 L 735 157 Z  M 731 157 L 730 157 L 730 157 L 730 156 L 731 156 L 731 157 L 731 157 L 731 157 L 731 157 L 731 157 L 731 157 L 731 157 Z  M 727 157 L 726 157 L 726 157 L 726 156 L 727 156 L 727 157 L 727 157 L 727 157 L 727 157 L 727 157 L 727 157 L 727 157 L 727 157 L 727 157 Z  M 725 157 L 724 157 L 724 157 L 724 156 L 725 156 L 725 157 L 725 157 L 725 157 L 725 157 L 725 157 L 725 157 L 725 157 L 725 157 L 725 157 L 725 157 Z  M 723 157 L 722 157 L 722 157 L 722 156 L 723 156 L 723 157 L 723 157 L 723 157 L 723 157 L 723 157 L 723 157 L 723 157 L 723 157 L 723 157 L 723 157 L 723 157 Z  M 721 157 L 720 157 L 720 157 L 720 156 L 721 156 L 721 157 L 721 157 L 721 157 L 721 157 L 721 157 L 721 157 L 721 157 L 721 157 L 721 157 L 721 157 L 721 157 L 721 157 Z  M 719 157 L 718 157 L 718 156 L 719 156 L 719 157 L 719 157 L 719 157 L 719 157 L 719 157 L 719 157 L 719 157 L 719 157 L 719 157 L 719 157 L 719 157 L 719 157 L 719 157 Z " fill-rule="evenodd" fill="rgb(161,161,161)"/></g></svg>