<?xml version="1.0" encoding="UTF-8" standalone="no"?><!-- Generator: Gravit.io --><svg xmlns="http://www.w3.org/2000/svg" xmlns:xlink="http://www.w3.org/1999/xlink" style="isolation:isolate" viewBox="294.078 141.548 24 24" width="24pt" height="24pt"><g><path d=" M 296.078 153.548 C 296.078 150.898 297.128 148.348 299.008 146.478 C 300.878 144.598 303.428 143.548 306.078 143.548 C 308.728 143.548 311.278 144.598 313.148 146.478 C 315.028 148.348 316.078 150.898 316.078 153.548 C 316.078 156.198 315.028 158.748 313.148 160.618 C 311.278 162.498 308.728 163.548 306.078 163.548 C 303.428 163.548 300.878 162.498 299.008 160.618 C 297.128 158.748 296.078 156.198 296.078 153.548 Z  M 298.078 153.548 C 298.078 151.428 298.918 149.388 300.418 147.888 C 301.918 146.388 303.958 145.548 306.078 145.548 C 308.198 145.548 310.238 146.388 311.738 147.888 C 313.238 149.388 314.078 151.428 314.078 153.548 C 314.078 155.668 313.238 157.708 311.738 159.208 C 310.238 160.708 308.198 161.548 306.078 161.548 C 303.958 161.548 301.918 160.708 300.418 159.208 C 298.918 157.708 298.078 155.668 298.078 153.548 Z " fill-rule="evenodd" fill="rgb(255,255,255)"/><rect x="294.078" y="141.548" width="24" height="24" transform="matrix(1,0,0,1,0,0)" fill="none"/></g></svg>