<?xml version="1.0" encoding="UTF-8" standalone="no"?><!-- Generator: Gravit.io --><svg xmlns="http://www.w3.org/2000/svg" xmlns:xlink="http://www.w3.org/1999/xlink" style="isolation:isolate" viewBox="762 382 24 24" width="24px" height="24px"><g><g><g opacity="0"><rect x="762" y="382" width="24" height="24" transform="matrix(1,0,0,1,0,0)" fill="rgb(37,86,132)"/></g></g><path d=" M 781.008 395 L 778.008 395 L 781.508 390 L 785.008 395 L 782.008 395 L 782.008 404 L 781.008 404 L 781.008 395 Z  M 777.284 392.644 L 773 395 L 763 389.5 L 773 384 L 780.621 388.192 C 780.323 388.362 780.043 388.623 779.803 388.974 L 777.284 392.644 Z " fill-rule="evenodd" fill="rgb(77,77,77)"/><path d=" M 777.221 396.796 L 773 399.14 L 763.51 393.87 C 763.28 393.75 763.11 393.53 763.04 393.27 C 762.97 393.02 763 392.75 763.13 392.51 C 763.25 392.28 763.47 392.11 763.73 392.04 C 763.98 391.97 764.25 392 764.49 392.13 L 773 396.86 L 776.077 395.15 C 776.045 395.91 776.447 396.499 777.221 396.796 Z  M 779 399.808 L 773 403.14 L 763.51 397.87 C 763.28 397.75 763.11 397.53 763.04 397.27 C 762.97 397.02 763 396.75 763.13 396.51 C 763.25 396.28 763.47 396.11 763.73 396.04 C 763.98 395.97 764.25 396 764.49 396.13 L 773 400.86 L 779 397.525 L 779 399.808 Z " fill-rule="evenodd" fill="rgb(117,117,117)"/></g></svg>