<?xml version="1.0" encoding="UTF-8" standalone="no"?><!-- Generator: Gravit.io --><svg xmlns="http://www.w3.org/2000/svg" xmlns:xlink="http://www.w3.org/1999/xlink" style="isolation:isolate" viewBox="705 331.027 24 24" width="24pt" height="24pt"><g><g><g opacity="0"><rect x="705" y="331.027" width="24" height="24" transform="matrix(1,0,0,1,0,0)" fill="rgb(37,86,132)"/></g></g><path d=" M 709.237 342.006 Q 709.071 341.772 708.907 341.527 Q 709.075 341.266 709.246 341.018 Q 712.807 346.027 717.407 346.027 Q 722.007 346.027 725.568 341.018 Q 725.739 341.266 725.907 341.527 Q 725.56 342.047 725.202 342.517 L 728.284 345.269 L 728.096 345.537 L 724.371 343.528 Q 723.795 344.174 723.194 344.701 L 725.273 348.407 L 725.008 348.6 L 722.156 345.51 Q 721.428 346.008 720.667 346.342 L 721.407 350.397 L 721.094 350.494 L 719.452 346.766 Q 718.601 346.989 717.709 347.022 L 717.103 351.024 L 716.776 351.014 L 716.435 346.97 Q 715.564 346.866 714.732 346.573 L 712.829 350.22 L 712.524 350.104 L 713.544 346.049 Q 712.829 345.666 712.144 345.134 L 709.048 348.072 L 708.797 347.862 L 711.143 344.26 Q 710.576 343.709 710.032 343.048 L 706.17 344.812 L 706 344.532 L 709.237 342.006 Z " fill="rgb(161,161,161)"/></g></svg>