<?xml version="1.0" encoding="UTF-8" standalone="no"?><!-- Generator: Gravit.io --><svg xmlns="http://www.w3.org/2000/svg" xmlns:xlink="http://www.w3.org/1999/xlink" style="isolation:isolate" viewBox="130 88 24 24" width="24pt" height="24pt"><g><g><g opacity="0"><rect x="130" y="88" width="24" height="24" transform="matrix(1,0,0,1,0,0)" fill="rgb(37,86,132)"/></g></g><path d=" M 132 92 L 134 92 L 134 94 L 132 94 L 132 92 L 132 92 L 132 92 Z  M 141.634 93.438 L 143.366 92.438 L 144.366 94.17 L 142.634 95.17 L 141.634 93.438 L 141.634 93.438 L 141.634 93.438 Z  M 131 91 L 135 91 L 135 107 L 131 107 L 131 91 L 131 91 L 131 91 Z  M 140.268 93.072 L 143.732 91.072 L 151.732 104.928 L 148.268 106.928 L 140.268 93.072 L 140.268 93.072 L 140.268 93.072 Z  M 137 92 L 139 92 L 139 98 L 137 98 L 137 92 L 137 92 Z  M 136 91 L 140 91 L 140 107 L 136 107 L 136 91 L 136 91 Z " fill-rule="evenodd" fill="rgb(161,161,161)"/><path d=" M 131 108 L 153 108 L 153 109 L 131 109 L 131 108 Z " fill="rgb(215,215,215)"/></g></svg>