<?xml version="1.0" encoding="UTF-8" standalone="no"?><!-- Generator: Gravit.io --><svg xmlns="http://www.w3.org/2000/svg" xmlns:xlink="http://www.w3.org/1999/xlink" style="isolation:isolate" viewBox="521 135 24 24" width="24pt" height="24pt"><g><g><g opacity="0"><rect x="521" y="135" width="24" height="24" transform="matrix(1,0,0,1,0,0)" fill="rgb(37,86,132)"/></g></g><path d=" M 534 158 L 534 157 L 534 157 L 535 157 L 535 158 L 534 158 L 534 158 Z  M 534 156 L 534 155 L 534 155 L 535 155 L 535 156 L 534 156 L 534 156 L 534 156 Z  M 534 146 L 534 145 L 534 145 L 535 145 L 535 146 L 534 146 L 534 146 L 534 146 L 534 146 L 534 146 L 534 146 L 534 146 L 534 146 Z  M 534 152 L 534 151 L 534 151 L 535 151 L 535 152 L 534 152 L 534 152 L 534 152 L 534 152 L 534 152 Z  M 534 148 L 534 147 L 534 147 L 535 147 L 535 148 L 534 148 L 534 148 L 534 148 L 534 148 L 534 148 L 534 148 L 534 148 Z  M 534 144 L 534 143 L 534 143 L 535 143 L 535 144 L 534 144 L 534 144 L 534 144 L 534 144 L 534 144 L 534 144 L 534 144 L 534 144 L 534 144 Z  M 534 142 L 534 141 L 534 141 L 535 141 L 535 142 L 534 142 L 534 142 L 534 142 L 534 142 L 534 142 L 534 142 L 534 142 L 534 142 L 534 142 L 534 142 Z  M 534 140 L 534 139 L 534 139 L 535 139 L 535 140 L 534 140 L 534 140 L 534 140 L 534 140 L 534 140 L 534 140 L 534 140 L 534 140 L 534 140 L 534 140 L 534 140 Z  M 534 138 L 534 137 L 534 137 L 535 137 L 535 138 L 534 138 L 534 138 L 534 138 L 534 138 L 534 138 L 534 138 L 534 138 L 534 138 L 534 138 L 534 138 L 534 138 L 534 138 Z  M 534 136 L 534 135 L 535 135 L 535 136 L 534 136 L 534 136 L 534 136 L 534 136 L 534 136 L 534 136 L 534 136 L 534 136 L 534 136 L 534 136 L 534 136 L 534 136 L 534 136 Z  M 528 151 L 541 151 L 541 153 L 528 153 L 528 151 L 528 151 Z  M 526 149 L 543 149 L 543 155 L 526 155 L 526 149 L 526 149 Z " fill-rule="evenodd" fill="rgb(161,161,161)"/><path d=" M 529 141 L 540 141 L 540 146 L 529 146 L 529 141 Z " fill="rgb(215,215,215)"/></g></svg>