<?xml version="1.0" encoding="UTF-8" standalone="no"?><!-- Generator: Gravit.io --><svg xmlns="http://www.w3.org/2000/svg" xmlns:xlink="http://www.w3.org/1999/xlink" style="isolation:isolate" viewBox="470 706.001 19.986 20.016" width="19.986pt" height="20.016pt"><path d=" M 479.915 711.829 L 478.854 710.768 C 478.659 710.573 478.659 710.256 478.854 710.061 L 478.854 710.061 C 479.05 709.866 479.366 709.866 479.561 710.061 L 479.915 710.415 C 480.305 710.805 480.939 710.805 481.329 710.415 L 485.158 706.586 C 485.938 705.806 487.206 705.806 487.986 706.586 L 489.4 708.001 C 490.181 708.781 490.181 710.049 489.4 710.829 L 485.572 714.657 C 485.182 715.048 485.182 715.681 485.572 716.072 L 485.925 716.425 C 486.121 716.62 486.121 716.937 485.925 717.132 L 485.925 717.132 C 485.73 717.327 485.413 717.327 485.218 717.132 L 484.158 716.072 L 475.672 724.557 C 474.882 723.783 473.613 723.788 472.829 724.572 C 472.819 724.582 471.394 726.007 471.385 726.017 L 470 724.633 C 470.01 724.623 471.435 723.198 471.445 723.188 C 472.234 722.399 472.234 721.118 471.445 720.33 C 471.44 720.324 471.435 720.319 471.43 720.314 L 479.915 711.829 Z  M 474.022 719.136 L 480.622 712.536 L 483.451 715.365 L 479.444 719.372 L 474.022 719.136 Z " fill-rule="evenodd" fill="rgb(161,161,161)"/></svg>