<?xml version="1.0" encoding="UTF-8" standalone="no"?><!-- Generator: Gravit.io --><svg xmlns="http://www.w3.org/2000/svg" xmlns:xlink="http://www.w3.org/1999/xlink" style="isolation:isolate" viewBox="794 294 24 24" width="24px" height="24px"><g><g><g opacity="0"><rect x="794" y="294" width="24" height="24" transform="matrix(1,0,0,1,0,0)" fill="rgb(37,86,132)"/></g></g><path d=" M 818 306 C 818 312.623 812.623 318 806 318 C 799.377 318 794 312.623 794 306 C 794 299.377 799.377 294 806 294 C 812.623 294 818 299.377 818 306 Z  M 816 306 C 816 308.65 814.95 311.2 813.07 313.07 C 811.2 314.95 808.65 316 806 316 C 803.35 316 800.8 314.95 798.93 313.07 C 797.05 311.2 796 308.65 796 306 C 796 303.35 797.05 300.8 798.93 298.93 C 800.8 297.05 803.35 296 806 296 C 808.65 296 811.2 297.05 813.07 298.93 C 814.95 300.8 816 303.35 816 306 Z " fill-rule="evenodd" fill="rgb(117,117,117)"/><path d=" M 807.246 308.016 L 807.246 308.016 L 804.277 308.016 L 804.277 307.719 L 804.277 307.719 Q 804.277 306.961 804.449 306.488 L 804.449 306.488 L 804.449 306.488 Q 804.621 306.016 804.961 305.625 L 804.961 305.625 L 804.961 305.625 Q 805.301 305.234 806.488 304.25 L 806.488 304.25 L 806.488 304.25 Q 807.121 303.734 807.121 303.305 L 807.121 303.305 L 807.121 303.305 Q 807.121 302.875 806.867 302.637 L 806.867 302.637 L 806.867 302.637 Q 806.613 302.398 806.098 302.398 L 806.098 302.398 L 806.098 302.398 Q 805.543 302.398 805.18 302.766 L 805.18 302.766 L 805.18 302.766 Q 804.816 303.133 804.715 304.047 L 804.715 304.047 L 801.684 303.672 L 801.684 303.672 Q 801.84 302 802.898 300.98 L 802.898 300.98 L 802.898 300.98 Q 803.957 299.961 806.145 299.961 L 806.145 299.961 L 806.145 299.961 Q 807.848 299.961 808.895 300.672 L 808.895 300.672 L 808.895 300.672 Q 810.316 301.633 810.316 303.234 L 810.316 303.234 L 810.316 303.234 Q 810.316 303.898 809.949 304.516 L 809.949 304.516 L 809.949 304.516 Q 809.582 305.133 808.449 306.023 L 808.449 306.023 L 808.449 306.023 Q 807.66 306.648 807.453 307.027 L 807.453 307.027 L 807.453 307.027 Q 807.246 307.406 807.246 308.016 Z  M 804.176 311.609 L 804.176 308.805 L 807.355 308.805 L 807.355 311.609 L 804.176 311.609 Z " fill="rgb(77,77,77)"/></g></svg>