<?xml version="1.0" encoding="UTF-8" standalone="no"?><!-- Generator: Gravit.io --><svg xmlns="http://www.w3.org/2000/svg" xmlns:xlink="http://www.w3.org/1999/xlink" style="isolation:isolate" viewBox="517 1091.027 104 104" width="104pt" height="104pt"><g><g><g opacity="0"><rect x="557" y="1131.027" width="24" height="24" transform="matrix(1,0,0,1,0,0)" fill="rgb(37,86,132)"/></g></g><path d=" M 571 1153.027 L 579 1153.027 L 579 1134.027 L 560 1134.027 L 560 1142.027 L 566.339 1142.027 C 566.51 1141.669 566.742 1141.34 567.03 1141.057 C 567.68 1140.397 568.57 1140.027 569.5 1140.027 C 570.43 1140.027 571.32 1140.397 571.97 1141.057 C 572.63 1141.707 573 1142.597 573 1143.527 C 573 1144.457 572.63 1145.347 571.97 1145.997 C 571.687 1146.285 571.358 1146.517 571 1146.688 L 571 1153.027 Z  M 568 1153.027 L 560 1153.027 L 560 1145.027 L 566.339 1145.027 C 566.51 1145.385 566.742 1145.714 567.03 1145.997 C 567.313 1146.285 567.642 1146.517 568 1146.688 L 568 1153.027 Z " fill-rule="evenodd" fill="rgb(161,161,161)"/><path d=" M 569.5 1141.027 L 569.5 1141.027 C 570.88 1141.027 572 1142.147 572 1143.527 L 572 1143.527 C 572 1144.907 570.88 1146.027 569.5 1146.027 L 569.5 1146.027 C 568.12 1146.027 567 1144.907 567 1143.527 L 567 1143.527 C 567 1142.147 568.12 1141.027 569.5 1141.027 Z  M 566.036 1143.027 L 560 1143.027 L 560 1144.027 L 566.036 1144.027 C 566.012 1143.864 566 1143.697 566 1143.527 L 566 1143.527 C 566 1143.357 566.012 1143.19 566.036 1143.027 L 566.036 1143.027 Z  M 569 1146.992 L 569 1153.027 L 570 1153.027 L 570 1146.992 C 569.837 1147.015 569.67 1147.027 569.5 1147.027 L 569.5 1147.027 C 569.33 1147.027 569.163 1147.015 569 1146.992 L 569 1146.992 Z " fill-rule="evenodd" fill="rgb(215,215,215)"/></g></svg>