<?xml version="1.0" encoding="UTF-8" standalone="no"?><!-- Generator: Gravit.io --><svg xmlns="http://www.w3.org/2000/svg" xmlns:xlink="http://www.w3.org/1999/xlink" style="isolation:isolate" viewBox="524 247 24 24" width="24pt" height="24pt"><g><g><g opacity="0"><rect x="524" y="247" width="24" height="24" transform="matrix(1,0,0,1,0,0)" fill="rgb(37,86,132)"/></g></g><path d=" M 540 252 C 540 251.2 539.68 250.44 539.12 249.88 C 538.56 249.32 537.8 249 537 249 L 529 249 L 529 249 C 528.2 249 527.44 249.32 526.88 249.88 C 526.32 250.44 526 251.2 526 252 L 526 262 C 526 262.8 526.32 263.56 526.88 264.12 C 527.44 264.68 528.2 265 529 265 L 529 263 C 528.73 263 528.48 262.89 528.29 262.71 C 528.11 262.52 528 262.27 528 262 L 528 252 C 528 251.73 528.11 251.48 528.29 251.29 C 528.48 251.11 528.73 251 529 251 L 529 251 L 537 251 C 537.27 251 537.52 251.11 537.71 251.29 C 537.89 251.48 538 251.73 538 252 L 540 252 Z " fill="rgb(117,117,117)"/><path d=" M 534 254 L 542 254 C 542.8 254 543.56 254.32 544.12 254.88 C 544.68 255.44 545 256.2 545 257 L 545 267 C 545 267.8 544.68 268.56 544.12 269.12 C 543.56 269.68 542.8 270 542 270 L 534 270 C 533.2 270 532.44 269.68 531.88 269.12 C 531.32 268.56 531 267.8 531 267 L 531 257 C 531 256.2 531.32 255.44 531.88 254.88 C 532.44 254.32 533.2 254 534 254 Z  M 534 256 L 542 256 C 542.27 256 542.52 256.11 542.71 256.29 C 542.89 256.48 543 256.73 543 257 L 543 267 C 543 267.27 542.89 267.52 542.71 267.71 C 542.52 267.89 542.27 268 542 268 L 534 268 C 533.73 268 533.48 267.89 533.29 267.71 C 533.11 267.52 533 267.27 533 267 L 533 257 C 533 256.73 533.11 256.48 533.29 256.29 C 533.48 256.11 533.73 256 534 256 Z " fill-rule="evenodd" fill="rgb(77,77,77)"/></g></svg>