<?xml version="1.0" encoding="UTF-8" standalone="no"?><!-- Generator: Gravit.io --><svg xmlns="http://www.w3.org/2000/svg" xmlns:xlink="http://www.w3.org/1999/xlink" style="isolation:isolate" viewBox="567 135 24 24" width="24pt" height="24pt"><g><g><g opacity="0"><rect x="567" y="135" width="24" height="24" transform="matrix(1,0,0,1,0,0)" fill="rgb(37,86,132)"/></g></g><path d=" M 576 140 L 587 140 L 587 145 L 576 145 L 576 140 Z " fill="rgb(215,215,215)"/><path d=" M 573 150 L 585 150 L 585 152 L 573 152 L 573 150 L 573 150 Z  M 571 148 L 587 148 L 587 154 L 571 154 L 571 148 L 571 148 Z  M 589 150 L 589 149 L 589 149 L 590 149 L 590 150 L 589 150 L 589 150 L 589 150 L 589 150 L 589 150 L 589 150 Z  M 589 158 L 589 157 L 589 157 L 590 157 L 590 158 L 589 158 L 589 158 Z  M 589 156 L 589 155 L 589 155 L 590 155 L 590 156 L 589 156 L 589 156 L 589 156 Z  M 589 146 L 589 145 L 589 145 L 590 145 L 590 146 L 589 146 L 589 146 L 589 146 L 589 146 L 589 146 L 589 146 L 589 146 L 589 146 Z  M 589 154 L 589 153 L 589 153 L 590 153 L 590 154 L 589 154 L 589 154 L 589 154 L 589 154 Z  M 589 152 L 589 151 L 589 151 L 590 151 L 590 152 L 589 152 L 589 152 L 589 152 L 589 152 L 589 152 Z  M 589 148 L 589 147 L 589 147 L 590 147 L 590 148 L 589 148 L 589 148 L 589 148 L 589 148 L 589 148 L 589 148 L 589 148 Z  M 589 144 L 589 143 L 589 143 L 590 143 L 590 144 L 589 144 L 589 144 L 589 144 L 589 144 L 589 144 L 589 144 L 589 144 L 589 144 L 589 144 Z  M 589 142 L 589 141 L 589 141 L 590 141 L 590 142 L 589 142 L 589 142 L 589 142 L 589 142 L 589 142 L 589 142 L 589 142 L 589 142 L 589 142 L 589 142 Z  M 589 140 L 589 139 L 589 139 L 590 139 L 590 140 L 589 140 L 589 140 L 589 140 L 589 140 L 589 140 L 589 140 L 589 140 L 589 140 L 589 140 L 589 140 L 589 140 Z  M 589 138 L 589 137 L 589 137 L 590 137 L 590 138 L 589 138 L 589 138 L 589 138 L 589 138 L 589 138 L 589 138 L 589 138 L 589 138 L 589 138 L 589 138 L 589 138 L 589 138 Z  M 589 136 L 589 135 L 590 135 L 590 136 L 589 136 L 589 136 L 589 136 L 589 136 L 589 136 L 589 136 L 589 136 L 589 136 L 589 136 L 589 136 L 589 136 L 589 136 L 589 136 Z " fill-rule="evenodd" fill="rgb(161,161,161)"/></g></svg>