<?xml version="1.0" encoding="UTF-8" standalone="no"?><!-- Generator: Gravit.io --><svg xmlns="http://www.w3.org/2000/svg" xmlns:xlink="http://www.w3.org/1999/xlink" style="isolation:isolate" viewBox="386 1091.027 104 104" width="104pt" height="104pt"><g><g><g opacity="0"><rect x="426" y="1131.027" width="24" height="24" transform="matrix(1,0,0,1,0,0)" fill="rgb(37,86,132)"/></g></g><path d=" M 440 1153.027 L 448 1153.027 L 448 1134.027 L 429 1134.027 L 429 1134.027 L 429 1153.027 L 437 1153.027 L 437 1146.69 C 435.818 1146.128 435 1144.922 435 1143.527 L 435 1143.527 C 435 1141.595 436.568 1140.027 438.5 1140.027 L 438.5 1140.027 L 438.5 1140.027 C 440.432 1140.027 442 1141.595 442 1143.527 L 442 1143.527 C 442 1144.922 441.182 1146.128 440 1146.69 L 440 1153.027 Z " fill="rgb(161,161,161)"/><path d=" M 439 1147.014 L 439 1153.027 L 438 1153.027 L 438 1147.014 C 438.08 1147.019 438.16 1147.022 438.242 1147.022 L 438.758 1147.022 C 438.84 1147.022 438.92 1147.019 439 1147.014 Z  M 438.5 1141.027 L 438.5 1141.027 C 439.88 1141.027 441 1142.147 441 1143.527 L 441 1143.527 C 441 1144.907 439.88 1146.027 438.5 1146.027 L 438.5 1146.027 C 437.12 1146.027 436 1144.907 436 1143.527 L 436 1143.527 C 436 1142.147 437.12 1141.027 438.5 1141.027 Z " fill-rule="evenodd" fill="rgb(215,215,215)"/></g></svg>