<?xml version="1.0" encoding="UTF-8" standalone="no"?><!-- Generator: Gravit.io --><svg xmlns="http://www.w3.org/2000/svg" xmlns:xlink="http://www.w3.org/1999/xlink" style="isolation:isolate" viewBox="1224.513 439.677 3.521 16" width="3.521pt" height="16pt"><path d=" M 1224.513 453.885 C 1224.513 452.897 1225.302 452.093 1226.274 452.093 C 1227.246 452.093 1228.034 452.897 1228.034 453.885 C 1228.034 454.874 1227.246 455.677 1226.274 455.677 C 1225.302 455.677 1224.513 454.874 1224.513 453.885 Z  M 1224.513 447.677 C 1224.513 446.688 1225.302 445.885 1226.274 445.885 C 1227.246 445.885 1228.034 446.688 1228.034 447.677 C 1228.034 448.666 1227.246 449.469 1226.274 449.469 C 1225.302 449.469 1224.513 448.666 1224.513 447.677 Z  M 1224.513 441.469 C 1224.513 440.48 1225.302 439.677 1226.274 439.677 C 1227.246 439.677 1228.034 440.48 1228.034 441.469 C 1228.034 442.457 1227.246 443.261 1226.274 443.261 C 1225.302 443.261 1224.513 442.457 1224.513 441.469 Z " fill-rule="evenodd" fill="rgb(215,215,215)"/></svg>