<?xml version="1.0" encoding="UTF-8" standalone="no"?><!-- Generator: Gravit.io --><svg xmlns="http://www.w3.org/2000/svg" xmlns:xlink="http://www.w3.org/1999/xlink" style="isolation:isolate" viewBox="369.028 144.548 18 18" width="18pt" height="18pt"><g><path d=" M 377.353 152.948 L 377.353 152.948 L 384.628 152.948 L 384.628 154.148 L 377.353 154.148 L 377.353 154.148 Q 377.166 155.198 376.341 155.873 L 376.341 155.873 L 376.341 155.873 Q 375.516 156.548 374.428 156.548 L 374.428 156.548 L 374.428 156.548 Q 374.353 156.548 374.128 156.529 L 374.128 156.529 L 374.128 156.529 Q 373.903 156.51 373.828 156.51 L 373.828 156.51 L 373.828 155.235 L 373.828 155.235 Q 374.091 155.348 374.428 155.348 L 374.428 155.348 L 374.428 155.348 Q 375.178 155.348 375.703 154.823 L 375.703 154.823 L 375.703 154.823 Q 376.228 154.298 376.228 153.548 L 376.228 153.548 L 376.228 153.548 Q 376.228 152.798 375.703 152.273 L 375.703 152.273 L 375.703 152.273 Q 375.178 151.748 374.428 151.748 L 374.428 151.748 L 374.428 151.748 Q 374.128 151.748 373.828 151.86 L 373.828 151.86 L 373.828 150.585 L 373.828 150.585 Q 373.903 150.585 374.128 150.566 L 374.128 150.566 L 374.128 150.566 Q 374.353 150.548 374.428 150.548 L 374.428 150.548 L 374.428 150.548 Q 375.516 150.548 376.341 151.223 L 376.341 151.223 L 376.341 151.223 Q 377.166 151.898 377.353 152.948 Z " fill="rgb(255,255,255)"/><path d=" M 371.503 152.948 L 371.503 152.948 L 369.028 152.948 L 369.028 154.148 L 371.503 154.148 L 371.503 154.148 Q 371.653 155.048 372.291 155.685 L 372.291 155.685 L 372.291 155.685 Q 372.928 156.323 373.828 156.51 L 373.828 156.51 L 373.828 155.235 L 373.828 155.235 Q 372.628 154.86 372.628 153.548 L 372.628 153.548 L 372.628 153.548 Q 372.628 152.235 373.828 151.86 L 373.828 151.86 L 373.828 150.585 L 373.828 150.585 Q 372.966 150.773 372.309 151.429 L 372.309 151.429 L 372.309 151.429 Q 371.653 152.085 371.503 152.948 Z " fill="rgb(255,255,255)"/><path d=" M 384.628 149.235 L 384.628 149.235 L 384.628 150.51 L 384.628 150.51 Q 385.641 150.285 386.334 149.46 L 386.334 149.46 L 386.334 149.46 Q 387.028 148.635 387.028 147.548 L 387.028 147.548 L 387.028 147.548 Q 387.028 146.46 386.334 145.635 L 386.334 145.635 L 386.334 145.635 Q 385.641 144.81 384.628 144.585 L 384.628 144.585 L 384.628 145.86 L 384.628 145.86 Q 385.828 146.235 385.828 147.548 L 385.828 147.548 L 385.828 147.548 Q 385.828 148.86 384.628 149.235 Z " fill="rgb(255,255,255)"/><path d=" M 381.103 146.948 L 381.103 146.948 L 369.028 146.948 L 369.028 148.148 L 381.103 148.148 L 381.103 148.148 Q 381.291 149.198 382.116 149.873 L 382.116 149.873 L 382.116 149.873 Q 382.941 150.548 384.028 150.548 L 384.028 150.548 L 384.028 150.548 Q 384.141 150.548 384.347 150.529 L 384.347 150.529 L 384.347 150.529 Q 384.553 150.51 384.628 150.51 L 384.628 150.51 L 384.628 149.235 L 384.628 149.235 Q 384.366 149.348 384.028 149.348 L 384.028 149.348 L 384.028 149.348 Q 383.278 149.348 382.753 148.823 L 382.753 148.823 L 382.753 148.823 Q 382.228 148.298 382.228 147.548 L 382.228 147.548 L 382.228 147.548 Q 382.228 146.798 382.753 146.273 L 382.753 146.273 L 382.753 146.273 Q 383.278 145.748 384.028 145.748 L 384.028 145.748 L 384.028 145.748 Q 384.366 145.748 384.628 145.86 L 384.628 145.86 L 384.628 144.585 L 384.628 144.585 Q 384.553 144.585 384.347 144.566 L 384.347 144.566 L 384.347 144.566 Q 384.141 144.548 384.028 144.548 L 384.028 144.548 L 384.028 144.548 Q 382.941 144.548 382.116 145.241 L 382.116 145.241 L 382.116 145.241 Q 381.291 145.935 381.103 146.948 Z " fill="rgb(255,255,255)"/><path d=" M 384.628 161.235 L 384.628 161.235 L 384.628 162.51 L 384.628 162.51 Q 385.641 162.285 386.334 161.46 L 386.334 161.46 L 386.334 161.46 Q 387.028 160.635 387.028 159.548 L 387.028 159.548 L 387.028 159.548 Q 387.028 158.46 386.334 157.635 L 386.334 157.635 L 386.334 157.635 Q 385.641 156.81 384.628 156.585 L 384.628 156.585 L 384.628 157.86 L 384.628 157.86 Q 385.828 158.235 385.828 159.548 L 385.828 159.548 L 385.828 159.548 Q 385.828 160.86 384.628 161.235 Z " fill="rgb(255,255,255)"/><path d=" M 381.103 158.948 L 381.103 158.948 L 369.028 158.948 L 369.028 160.148 L 381.103 160.148 L 381.103 160.148 Q 381.291 161.198 382.116 161.873 L 382.116 161.873 L 382.116 161.873 Q 382.941 162.548 384.028 162.548 L 384.028 162.548 L 384.028 162.548 Q 384.141 162.548 384.347 162.529 L 384.347 162.529 L 384.347 162.529 Q 384.553 162.51 384.628 162.51 L 384.628 162.51 L 384.628 161.235 L 384.628 161.235 Q 384.366 161.348 384.028 161.348 L 384.028 161.348 L 384.028 161.348 Q 383.278 161.348 382.753 160.823 L 382.753 160.823 L 382.753 160.823 Q 382.228 160.298 382.228 159.548 L 382.228 159.548 L 382.228 159.548 Q 382.228 158.798 382.753 158.273 L 382.753 158.273 L 382.753 158.273 Q 383.278 157.748 384.028 157.748 L 384.028 157.748 L 384.028 157.748 Q 384.366 157.748 384.628 157.86 L 384.628 157.86 L 384.628 156.585 L 384.628 156.585 Q 384.553 156.585 384.347 156.566 L 384.347 156.566 L 384.347 156.566 Q 384.141 156.548 384.028 156.548 L 384.028 156.548 L 384.028 156.548 Q 382.941 156.548 382.116 157.241 L 382.116 157.241 L 382.116 157.241 Q 381.291 157.935 381.103 158.948 Z " fill="rgb(255,255,255)"/><path d=" M 381.103 158.948 L 381.103 158.948 L 369.028 158.948 L 369.028 160.148 L 381.103 160.148 L 381.103 160.148 Q 381.291 161.198 382.116 161.873 L 382.116 161.873 L 382.116 161.873 Q 382.941 162.548 384.028 162.548 L 384.028 162.548 L 384.028 162.548 Q 384.141 162.548 384.347 162.529 L 384.347 162.529 L 384.347 162.529 Q 384.553 162.51 384.628 162.51 L 384.628 162.51 L 384.628 161.235 L 384.628 161.235 Q 384.366 161.348 384.028 161.348 L 384.028 161.348 L 384.028 161.348 Q 383.278 161.348 382.753 160.823 L 382.753 160.823 L 382.753 160.823 Q 382.228 160.298 382.228 159.548 L 382.228 159.548 L 382.228 159.548 Q 382.228 158.798 382.753 158.273 L 382.753 158.273 L 382.753 158.273 Q 383.278 157.748 384.028 157.748 L 384.028 157.748 L 384.028 157.748 Q 384.366 157.748 384.628 157.86 L 384.628 157.86 L 384.628 156.585 L 384.628 156.585 Q 384.553 156.585 384.347 156.566 L 384.347 156.566 L 384.347 156.566 Q 384.141 156.548 384.028 156.548 L 384.028 156.548 L 384.028 156.548 Q 382.941 156.548 382.116 157.241 L 382.116 157.241 L 382.116 157.241 Q 381.291 157.935 381.103 158.948 Z " fill="rgb(255,255,255)"/><path d=" M 384.628 161.235 L 384.628 161.235 L 384.628 162.51 L 384.628 162.51 Q 385.641 162.285 386.334 161.46 L 386.334 161.46 L 386.334 161.46 Q 387.028 160.635 387.028 159.548 L 387.028 159.548 L 387.028 159.548 Q 387.028 158.46 386.334 157.635 L 386.334 157.635 L 386.334 157.635 Q 385.641 156.81 384.628 156.585 L 384.628 156.585 L 384.628 157.86 L 384.628 157.86 Q 385.828 158.235 385.828 159.548 L 385.828 159.548 L 385.828 159.548 Q 385.828 160.86 384.628 161.235 Z " fill="rgb(255,255,255)"/><path d=" M 381.103 146.948 L 381.103 146.948 L 369.028 146.948 L 369.028 148.148 L 381.103 148.148 L 381.103 148.148 Q 381.291 149.198 382.116 149.873 L 382.116 149.873 L 382.116 149.873 Q 382.941 150.548 384.028 150.548 L 384.028 150.548 L 384.028 150.548 Q 384.141 150.548 384.347 150.529 L 384.347 150.529 L 384.347 150.529 Q 384.553 150.51 384.628 150.51 L 384.628 150.51 L 384.628 149.235 L 384.628 149.235 Q 384.366 149.348 384.028 149.348 L 384.028 149.348 L 384.028 149.348 Q 383.278 149.348 382.753 148.823 L 382.753 148.823 L 382.753 148.823 Q 382.228 148.298 382.228 147.548 L 382.228 147.548 L 382.228 147.548 Q 382.228 146.798 382.753 146.273 L 382.753 146.273 L 382.753 146.273 Q 383.278 145.748 384.028 145.748 L 384.028 145.748 L 384.028 145.748 Q 384.366 145.748 384.628 145.86 L 384.628 145.86 L 384.628 144.585 L 384.628 144.585 Q 384.553 144.585 384.347 144.566 L 384.347 144.566 L 384.347 144.566 Q 384.141 144.548 384.028 144.548 L 384.028 144.548 L 384.028 144.548 Q 382.941 144.548 382.116 145.241 L 382.116 145.241 L 382.116 145.241 Q 381.291 145.935 381.103 146.948 Z " fill="rgb(255,255,255)"/><path d=" M 384.628 149.235 L 384.628 149.235 L 384.628 150.51 L 384.628 150.51 Q 385.641 150.285 386.334 149.46 L 386.334 149.46 L 386.334 149.46 Q 387.028 148.635 387.028 147.548 L 387.028 147.548 L 387.028 147.548 Q 387.028 146.46 386.334 145.635 L 386.334 145.635 L 386.334 145.635 Q 385.641 144.81 384.628 144.585 L 384.628 144.585 L 384.628 145.86 L 384.628 145.86 Q 385.828 146.235 385.828 147.548 L 385.828 147.548 L 385.828 147.548 Q 385.828 148.86 384.628 149.235 Z " fill="rgb(255,255,255)"/><path d=" M 371.503 152.948 L 371.503 152.948 L 369.028 152.948 L 369.028 154.148 L 371.503 154.148 L 371.503 154.148 Q 371.653 155.048 372.291 155.685 L 372.291 155.685 L 372.291 155.685 Q 372.928 156.323 373.828 156.51 L 373.828 156.51 L 373.828 155.235 L 373.828 155.235 Q 372.628 154.86 372.628 153.548 L 372.628 153.548 L 372.628 153.548 Q 372.628 152.235 373.828 151.86 L 373.828 151.86 L 373.828 150.585 L 373.828 150.585 Q 372.966 150.773 372.309 151.429 L 372.309 151.429 L 372.309 151.429 Q 371.653 152.085 371.503 152.948 Z " fill="rgb(255,255,255)"/><path d=" M 377.353 152.948 L 377.353 152.948 L 384.628 152.948 L 384.628 154.148 L 377.353 154.148 L 377.353 154.148 Q 377.166 155.198 376.341 155.873 L 376.341 155.873 L 376.341 155.873 Q 375.516 156.548 374.428 156.548 L 374.428 156.548 L 374.428 156.548 Q 374.353 156.548 374.128 156.529 L 374.128 156.529 L 374.128 156.529 Q 373.903 156.51 373.828 156.51 L 373.828 156.51 L 373.828 155.235 L 373.828 155.235 Q 374.091 155.348 374.428 155.348 L 374.428 155.348 L 374.428 155.348 Q 375.178 155.348 375.703 154.823 L 375.703 154.823 L 375.703 154.823 Q 376.228 154.298 376.228 153.548 L 376.228 153.548 L 376.228 153.548 Q 376.228 152.798 375.703 152.273 L 375.703 152.273 L 375.703 152.273 Q 375.178 151.748 374.428 151.748 L 374.428 151.748 L 374.428 151.748 Q 374.128 151.748 373.828 151.86 L 373.828 151.86 L 373.828 150.585 L 373.828 150.585 Q 373.903 150.585 374.128 150.566 L 374.128 150.566 L 374.128 150.566 Q 374.353 150.548 374.428 150.548 L 374.428 150.548 L 374.428 150.548 Q 375.516 150.548 376.341 151.223 L 376.341 151.223 L 376.341 151.223 Q 377.166 151.898 377.353 152.948 Z " fill="rgb(255,255,255)"/></g></svg>