<?xml version="1.0" encoding="UTF-8" standalone="no"?><!-- Generator: Gravit.io --><svg xmlns="http://www.w3.org/2000/svg" xmlns:xlink="http://www.w3.org/1999/xlink" style="isolation:isolate" viewBox="396 694.001 3 15" width="3pt" height="15pt"><path d=" M 396 695.501 C 396 694.673 396.672 694.001 397.5 694.001 C 398.328 694.001 399 694.673 399 695.501 C 399 696.329 398.328 697.001 397.5 697.001 C 396.672 697.001 396 696.329 396 695.501 L 396 695.501 Z  M 396 701.501 C 396 700.673 396.672 700.001 397.5 700.001 C 398.328 700.001 399 700.673 399 701.501 C 399 702.329 398.328 703.001 397.5 703.001 C 396.672 703.001 396 702.329 396 701.501 L 396 701.501 Z  M 396 707.501 C 396 706.673 396.672 706.001 397.5 706.001 C 398.328 706.001 399 706.673 399 707.501 C 399 708.329 398.328 709.001 397.5 709.001 C 396.672 709.001 396 708.329 396 707.501 Z " fill-rule="evenodd" fill="rgb(161,161,161)"/></svg>