<?xml version="1.0" encoding="UTF-8" standalone="no"?><!-- Generator: Gravit.io --><svg xmlns="http://www.w3.org/2000/svg" xmlns:xlink="http://www.w3.org/1999/xlink" style="isolation:isolate" viewBox="571 1091.027 104 104" width="104pt" height="104pt"><g><g><g opacity="0"><rect x="611" y="1131.027" width="24" height="24" transform="matrix(1,0,0,1,0,0)" fill="rgb(37,86,132)"/></g></g><path d=" M 614 1142.027 L 614 1134.027 L 633 1134.027 L 633 1153.027 L 625 1153.027 L 625 1146.688 C 625.358 1146.517 625.687 1146.285 625.97 1145.997 C 626.63 1145.347 627 1144.457 627 1143.527 C 627 1142.597 626.63 1141.707 625.97 1141.057 C 625.32 1140.397 624.43 1140.027 623.5 1140.027 C 622.57 1140.027 621.68 1140.397 621.03 1141.057 C 620.742 1141.34 620.51 1141.669 620.339 1142.027 L 614 1142.027 Z " fill="rgb(161,161,161)"/><path d=" M 623.5 1141.027 L 623.5 1141.027 C 624.88 1141.027 626 1142.147 626 1143.527 L 626 1143.527 C 626 1144.907 624.88 1146.027 623.5 1146.027 L 623.5 1146.027 C 622.12 1146.027 621 1144.907 621 1143.527 L 621 1143.527 C 621 1142.147 622.12 1141.027 623.5 1141.027 Z  M 620.036 1143.027 L 614 1143.027 L 614 1144.027 L 620.036 1144.027 C 620.012 1143.864 620 1143.697 620 1143.527 L 620 1143.527 C 620 1143.357 620.012 1143.19 620.036 1143.027 L 620.036 1143.027 Z  M 623 1146.992 L 623 1153.027 L 624 1153.027 L 624 1146.992 C 623.837 1147.015 623.67 1147.027 623.5 1147.027 L 623.5 1147.027 C 623.33 1147.027 623.163 1147.015 623 1146.992 L 623 1146.992 Z " fill-rule="evenodd" fill="rgb(215,215,215)"/></g></svg>