<?xml version="1.0" encoding="UTF-8" standalone="no"?><!-- Generator: Gravit.io --><svg xmlns="http://www.w3.org/2000/svg" xmlns:xlink="http://www.w3.org/1999/xlink" style="isolation:isolate" viewBox="582 29 24 24" width="24pt" height="24pt"><g><g><g opacity="0"><rect x="582" y="29" width="24" height="24" transform="matrix(1,0,0,1,0,0)" fill="rgb(37,86,132)"/></g></g><path d=" M 593 44.011 C 593.565 44.09 594 44.575 594 45.162 L 594 50.838 C 594 51.479 593.479 52 592.838 52 L 592.162 52 C 591.521 52 591 51.479 591 50.838 L 591 45.162 C 591 44.575 591.435 44.09 592 44.011 L 592 42 L 602.5 42 C 602.63 42 602.76 41.95 602.85 41.85 C 602.95 41.76 603 41.63 603 41.5 L 603 36.5 C 603 36.37 602.95 36.24 602.85 36.15 C 602.76 36.05 602.63 36 602.5 36 L 600.5 36 L 600.5 35 L 602.5 35 C 602.9 35 603.28 35.16 603.56 35.44 C 603.84 35.72 604 36.1 604 36.5 L 604 41.5 C 604 41.9 603.84 42.28 603.56 42.56 C 603.28 42.84 602.9 43 602.5 43 L 593 43 L 593 44.011 Z " fill="rgb(161,161,161)"/><path d=" M 587 32 L 587 39 L 586 39 L 586 32 L 587 32 L 587 32 L 587 32 L 587 32 L 587 32 L 587 32 L 587 32 Z  M 589 32 L 589 39 L 588 39 L 588 32 L 589 32 L 589 32 L 589 32 L 589 32 L 589 32 L 589 32 Z  M 591 32 L 591 39 L 590 39 L 590 32 L 591 32 L 591 32 L 591 32 L 591 32 L 591 32 Z  M 593 32 L 593 39 L 592 39 L 592 32 L 593 32 L 593 32 L 593 32 L 593 32 Z  M 595 32 L 595 39 L 594 39 L 594 32 L 595 32 L 595 32 L 595 32 Z  M 597 32 L 597 39 L 596 39 L 596 32 L 597 32 L 597 32 Z  M 585 31 L 600 31 C 600.552 31 601 31.448 601 32 L 601 39 C 601 39.552 600.552 40 600 40 L 585 40 C 584.448 40 584 39.552 584 39 L 584 32 C 584 31.448 584.448 31 585 31 L 585 31 L 585 31 L 585 31 L 585 31 L 585 31 L 585 31 Z  M 599 32 L 599 39 L 598 39 L 598 32 L 599 32 Z " fill-rule="evenodd" fill="rgb(215,215,215)"/></g></svg>