<?xml version="1.0" encoding="UTF-8" standalone="no"?><!-- Generator: Gravit.io --><svg xmlns="http://www.w3.org/2000/svg" xmlns:xlink="http://www.w3.org/1999/xlink" style="isolation:isolate" viewBox="332 1168.027 104 104" width="104pt" height="104pt"><g><g><g opacity="0"><rect x="372" y="1208.027" width="24" height="24" transform="matrix(1,0,0,1,0,0)" fill="rgb(37,86,132)"/></g></g><path d=" M 382 1229.027 L 374 1229.027 L 374 1210.027 L 393 1210.027 L 393 1218.027 L 386.661 1218.027 C 386.49 1217.669 386.258 1217.34 385.97 1217.057 C 385.32 1216.397 384.43 1216.027 383.5 1216.027 C 382.57 1216.027 381.68 1216.397 381.03 1217.057 C 380.37 1217.707 380 1218.597 380 1219.527 C 380 1220.457 380.37 1221.347 381.03 1221.997 C 381.313 1222.285 381.642 1222.517 382 1222.688 L 382 1229.027 Z  M 385 1229.027 L 393 1229.027 L 393 1221.027 L 386.661 1221.027 C 386.49 1221.385 386.258 1221.714 385.97 1221.997 C 385.687 1222.285 385.358 1222.517 385 1222.688 L 385 1229.027 Z " fill-rule="evenodd" fill="rgb(161,161,161)"/><path d=" M 383.5 1217.027 L 383.5 1217.027 C 382.12 1217.027 381 1218.147 381 1219.527 L 381 1219.527 C 381 1220.907 382.12 1222.027 383.5 1222.027 L 383.5 1222.027 C 384.88 1222.027 386 1220.907 386 1219.527 L 386 1219.527 C 386 1218.147 384.88 1217.027 383.5 1217.027 Z  M 386.964 1219.027 L 393 1219.027 L 393 1220.027 L 386.964 1220.027 C 386.988 1219.864 387 1219.697 387 1219.527 L 387 1219.527 C 387 1219.357 386.988 1219.19 386.964 1219.027 L 386.964 1219.027 Z  M 384 1222.991 L 384 1229.027 L 383 1229.027 L 383 1222.991 C 383.163 1223.015 383.33 1223.027 383.5 1223.027 L 383.5 1223.027 C 383.67 1223.027 383.837 1223.015 384 1222.991 L 384 1222.991 Z " fill-rule="evenodd" fill="rgb(215,215,215)"/></g></svg>