<?xml version="1.0" encoding="UTF-8" standalone="no"?><!-- Generator: Gravit.io --><svg xmlns="http://www.w3.org/2000/svg" xmlns:xlink="http://www.w3.org/1999/xlink" style="isolation:isolate" viewBox="625 135 24 24" width="24pt" height="24pt"><g><g><g opacity="0"><rect x="625" y="135" width="24" height="24" transform="matrix(1,0,0,1,0,0)" fill="rgb(37,86,132)"/></g></g><path d=" M 645 140 L 645 151 L 640 151 L 640 140 L 645 140 Z " fill="rgb(215,215,215)"/><path d=" M 635 142 L 635 154 L 633 154 L 633 142 L 635 142 L 635 142 Z  M 637 140 L 637 156 L 631 156 L 631 140 L 637 140 L 637 140 Z  M 641 138 L 640 138 L 640 138 L 640 137 L 641 137 L 641 138 L 641 138 L 641 138 L 641 138 L 641 138 L 641 138 Z  M 649 138 L 648 138 L 648 138 L 648 137 L 649 137 L 649 138 L 649 138 Z  M 647 138 L 646 138 L 646 138 L 646 137 L 647 137 L 647 138 L 647 138 L 647 138 Z  M 637 138 L 636 138 L 636 138 L 636 137 L 637 137 L 637 138 L 637 138 L 637 138 L 637 138 L 637 138 L 637 138 L 637 138 L 637 138 Z  M 645 138 L 644 138 L 644 138 L 644 137 L 645 137 L 645 138 L 645 138 L 645 138 L 645 138 Z  M 643 138 L 642 138 L 642 138 L 642 137 L 643 137 L 643 138 L 643 138 L 643 138 L 643 138 L 643 138 Z  M 639 138 L 638 138 L 638 138 L 638 137 L 639 137 L 639 138 L 639 138 L 639 138 L 639 138 L 639 138 L 639 138 L 639 138 Z  M 635 138 L 634 138 L 634 138 L 634 137 L 635 137 L 635 138 L 635 138 L 635 138 L 635 138 L 635 138 L 635 138 L 635 138 L 635 138 L 635 138 Z  M 633 138 L 632 138 L 632 138 L 632 137 L 633 137 L 633 138 L 633 138 L 633 138 L 633 138 L 633 138 L 633 138 L 633 138 L 633 138 L 633 138 L 633 138 Z  M 631 138 L 630 138 L 630 138 L 630 137 L 631 137 L 631 138 L 631 138 L 631 138 L 631 138 L 631 138 L 631 138 L 631 138 L 631 138 L 631 138 L 631 138 L 631 138 Z  M 629 138 L 628 138 L 628 138 L 628 137 L 629 137 L 629 138 L 629 138 L 629 138 L 629 138 L 629 138 L 629 138 L 629 138 L 629 138 L 629 138 L 629 138 L 629 138 L 629 138 Z  M 627 138 L 626 138 L 626 137 L 627 137 L 627 138 L 627 138 L 627 138 L 627 138 L 627 138 L 627 138 L 627 138 L 627 138 L 627 138 L 627 138 L 627 138 L 627 138 L 627 138 Z " fill-rule="evenodd" fill="rgb(161,161,161)"/></g></svg>