<?xml version="1.0" encoding="UTF-8" standalone="no"?><!-- Generator: Gravit.io --><svg xmlns="http://www.w3.org/2000/svg" xmlns:xlink="http://www.w3.org/1999/xlink" style="isolation:isolate" viewBox="386 1168.027 104 104" width="104pt" height="104pt"><g><g><g opacity="0"><rect x="426" y="1208.027" width="24" height="24" transform="matrix(1,0,0,1,0,0)" fill="rgb(37,86,132)"/></g></g><path d=" M 436 1229.027 L 428 1229.027 L 428 1220.027 C 428 1214.508 432.481 1210.027 438 1210.027 L 447 1210.027 L 447 1218.027 L 440.661 1218.027 C 440.49 1217.669 440.258 1217.34 439.97 1217.057 C 439.32 1216.397 438.43 1216.027 437.5 1216.027 C 436.57 1216.027 435.68 1216.397 435.03 1217.057 C 434.37 1217.707 434 1218.597 434 1219.527 C 434 1220.457 434.37 1221.347 435.03 1221.997 C 435.313 1222.285 435.642 1222.517 436 1222.688 L 436 1229.027 Z  M 439 1229.027 L 447 1229.027 L 447 1221.027 L 440.661 1221.027 C 440.49 1221.385 440.258 1221.714 439.97 1221.997 C 439.687 1222.285 439.358 1222.517 439 1222.688 L 439 1229.027 Z " fill-rule="evenodd" fill="rgb(161,161,161)"/><path d=" M 437.5 1217.027 L 437.5 1217.027 C 436.12 1217.027 435 1218.147 435 1219.527 L 435 1219.527 C 435 1220.907 436.12 1222.027 437.5 1222.027 L 437.5 1222.027 C 438.88 1222.027 440 1220.907 440 1219.527 L 440 1219.527 C 440 1218.147 438.88 1217.027 437.5 1217.027 Z  M 440.964 1219.027 L 447 1219.027 L 447 1220.027 L 440.964 1220.027 C 440.988 1219.864 441 1219.697 441 1219.527 L 441 1219.527 C 441 1219.357 440.988 1219.19 440.964 1219.027 L 440.964 1219.027 Z  M 438 1222.991 L 438 1229.027 L 437 1229.027 L 437 1222.991 C 437.163 1223.015 437.33 1223.027 437.5 1223.027 L 437.5 1223.027 C 437.67 1223.027 437.837 1223.015 438 1222.991 L 438 1222.991 Z " fill-rule="evenodd" fill="rgb(215,215,215)"/></g></svg>