<?xml version="1.0" encoding="UTF-8" standalone="no"?><!-- Generator: Gravit.io --><svg xmlns="http://www.w3.org/2000/svg" xmlns:xlink="http://www.w3.org/1999/xlink" style="isolation:isolate" viewBox="167.747 49.446 22.506 22.109" width="22.506px" height="22.109px"><path d=" M 180.966 52.429 L 180.966 52.476 L 180.966 52.429 Z  M 177.685 52.476 L 176.231 55.008 L 178.06 56.039 L 173.513 58.195 L 172.903 53.039 L 174.731 54.117 L 176.185 51.633 L 176.185 51.633 Q 176.606 50.929 177.122 50.414 L 177.122 50.414 L 177.122 50.414 Q 177.591 49.945 178.247 49.664 L 178.247 49.664 L 178.247 49.664 Q 179.606 49.148 180.778 49.851 L 180.778 49.851 L 180.825 49.851 L 180.825 49.851 Q 181.95 50.554 182.513 51.679 L 182.513 51.679 L 184.997 55.898 L 184.997 55.898 Q 185.138 56.273 185.091 56.554 L 185.091 56.554 L 185.091 56.601 L 184.997 56.742 L 184.997 56.742 Q 184.81 57.023 184.669 57.07 L 184.669 57.07 L 184.669 57.07 Q 184.435 57.258 184.013 57.164 L 184.013 57.164 L 183.966 57.164 L 183.825 57.07 L 183.825 57.07 Q 183.638 56.929 183.497 56.742 L 183.497 56.742 L 180.966 52.476 L 180.966 52.476 Q 180.685 51.867 179.935 51.304 L 179.935 51.304 L 179.935 51.304 Q 179.372 51.07 178.903 51.258 L 178.903 51.258 L 178.903 51.258 Q 178.528 51.445 178.341 51.633 L 178.341 51.633 L 178.341 51.633 Q 178.013 51.914 177.685 52.476 L 177.685 52.476 Z  M 186.45 68.554 L 186.403 68.554 L 186.45 68.554 Z  M 188.044 65.695 L 186.591 63.164 L 184.763 64.242 L 185.185 59.179 L 189.966 61.242 L 188.091 62.32 L 189.544 64.804 L 189.544 64.804 Q 190.013 65.742 190.106 66.211 L 190.106 66.211 L 190.106 66.211 Q 190.341 66.961 190.2 67.617 L 190.2 67.617 L 190.2 67.617 Q 190.06 68.976 188.794 69.679 L 188.794 69.679 L 188.747 69.726 L 188.747 69.726 Q 187.575 70.336 186.31 70.242 L 186.31 70.242 L 181.435 70.336 L 181.435 70.336 Q 181.013 70.242 180.825 70.054 L 180.825 70.054 L 180.731 69.914 L 180.685 69.867 L 180.685 69.867 Q 180.591 69.586 180.591 69.445 L 180.591 69.445 L 180.591 69.445 Q 180.591 69.023 180.872 68.836 L 180.872 68.836 L 180.872 68.789 L 181.013 68.695 L 181.013 68.695 Q 181.294 68.601 181.481 68.601 L 181.481 68.601 L 186.403 68.508 L 186.403 68.554 L 186.403 68.554 Q 187.294 68.554 187.95 68.226 L 187.95 68.226 L 187.95 68.226 Q 188.419 67.898 188.513 67.383 L 188.513 67.383 L 188.513 67.383 Q 188.56 67.148 188.466 66.633 L 188.466 66.633 L 188.466 66.633 Q 188.325 66.211 188.091 65.695 L 188.091 65.695 L 188.044 65.695 Z  M 169.903 64.804 L 169.95 64.804 L 169.903 64.804 Z  M 171.591 67.664 L 174.497 67.664 L 174.497 65.554 L 178.622 68.414 L 174.45 71.554 L 174.497 69.398 L 171.591 69.398 L 171.591 69.398 Q 170.888 69.398 170.091 69.164 L 170.091 69.164 L 170.091 69.164 Q 169.435 69.023 168.872 68.554 L 168.872 68.554 L 168.872 68.554 Q 167.747 67.711 167.747 66.258 L 167.747 66.258 L 167.747 66.258 Q 167.841 64.898 168.497 63.867 L 168.497 63.867 L 170.888 59.601 L 170.888 59.601 Q 171.122 59.32 171.403 59.226 L 171.403 59.226 L 171.45 59.179 L 171.591 59.179 L 171.638 59.179 L 171.638 59.179 Q 171.919 59.179 172.106 59.32 L 172.106 59.32 L 172.106 59.32 Q 172.388 59.461 172.481 59.836 L 172.481 59.836 L 172.481 59.883 L 172.481 60.023 L 172.481 60.023 Q 172.481 60.304 172.341 60.492 L 172.341 60.492 L 169.95 64.804 L 169.95 64.804 Q 169.481 65.508 169.481 66.304 L 169.481 66.304 L 169.481 66.304 Q 169.481 66.914 169.903 67.195 L 169.903 67.195 L 169.903 67.195 Q 170.278 67.476 170.56 67.523 L 170.56 67.523 L 170.56 67.523 Q 171.028 67.664 171.591 67.664 L 171.591 67.664 Z " fill="rgb(215,215,215)"/></svg>