<?xml version="1.0" encoding="UTF-8" standalone="no"?><!-- Generator: Gravit.io --><svg xmlns="http://www.w3.org/2000/svg" xmlns:xlink="http://www.w3.org/1999/xlink" style="isolation:isolate" viewBox="671 135 24 24" width="24pt" height="24pt"><g><g><g opacity="0"><rect x="671" y="135" width="24" height="24" transform="matrix(1,0,0,1,0,0)" fill="rgb(37,86,132)"/></g></g><path d=" M 680 147 L 680 147 L 680 148 L 680 148 L 680 154 L 678 154 L 678 148 L 679 148 L 679 148 L 679 148 L 679 148 L 679 148 L 679 148 L 679 148 L 679 148 L 679 148 L 679 148 L 679 147 L 678 147 L 678 141 L 680 141 L 680 141 L 680 147 Z  M 687 148 L 686 148 L 686 148 L 686 147 L 687 147 L 687 148 L 687 148 L 687 148 L 687 148 L 687 148 L 687 148 Z  M 695 148 L 694 148 L 694 148 L 694 147 L 695 147 L 695 148 L 695 148 Z  M 693 148 L 692 148 L 692 148 L 692 147 L 693 147 L 693 148 L 693 148 L 693 148 Z  M 683 148 L 682 148 L 682 148 L 682 147 L 683 147 L 683 148 L 683 148 L 683 148 L 683 148 L 683 148 L 683 148 L 683 148 L 683 148 Z  M 691 148 L 690 148 L 690 148 L 690 147 L 691 147 L 691 148 L 691 148 L 691 148 L 691 148 Z  M 689 148 L 688 148 L 688 148 L 688 147 L 689 147 L 689 148 L 689 148 L 689 148 L 689 148 L 689 148 Z  M 685 148 L 684 148 L 684 148 L 684 147 L 685 147 L 685 148 L 685 148 L 685 148 L 685 148 L 685 148 L 685 148 L 685 148 Z  M 675 148 L 674 148 L 674 148 L 674 147 L 675 147 L 675 148 L 675 148 L 675 148 L 675 148 L 675 148 L 675 148 L 675 148 L 675 148 L 675 148 L 675 148 L 675 148 L 675 148 Z  M 673 148 L 672 148 L 672 147 L 673 147 L 673 148 L 673 148 L 673 148 L 673 148 L 673 148 L 673 148 L 673 148 L 673 148 L 673 148 L 673 148 L 673 148 L 673 148 L 673 148 Z  M 682 139 L 682 156 L 676 156 L 676 139 L 682 139 L 682 139 Z " fill-rule="evenodd" fill="rgb(161,161,161)"/><path d=" M 690 142 L 690 153 L 685 153 L 685 142 L 690 142 Z " fill="rgb(215,215,215)"/></g></svg>