<?xml version="1.0" encoding="UTF-8" standalone="no"?><!-- Generator: Gravit.io --><svg xmlns="http://www.w3.org/2000/svg" xmlns:xlink="http://www.w3.org/1999/xlink" style="isolation:isolate" viewBox="570 588 24 24" width="24px" height="24px"><g><g><g opacity="0"><rect x="570" y="588" width="24" height="24" transform="matrix(1,0,0,1,0,0)" fill="rgb(37,86,132)"/></g></g><path d=" M 576.99 593 L 575.05 593 L 575.05 593 C 574.77 593 574.5 593.11 574.31 593.31 C 574.11 593.51 574 593.78 574 594.05 L 574 607.95 C 574 608.22 574.11 608.49 574.31 608.69 C 574.5 608.89 574.77 609 575.05 609 L 587.94 609 C 588.22 609 588.49 608.89 588.69 608.69 C 588.89 608.49 589 608.22 589 607.95 L 589 594.05 C 589 593.78 588.89 593.51 588.69 593.31 C 588.49 593.11 588.22 593 587.94 593 L 585.99 593 L 585.99 597 L 576.99 597 L 576.99 593 L 576.99 593 L 576.99 593 Z  M 579.04 591 L 575.05 591 L 575.05 591 L 575.05 591 C 574.24 591 573.47 591.32 572.89 591.89 C 572.32 592.47 572 593.24 572 594.05 L 572 607.95 C 572 608.76 572.32 609.53 572.89 610.11 C 573.47 610.68 574.24 611 575.05 611 L 587.94 611 C 588.75 611 589.53 610.68 590.1 610.11 C 590.68 609.53 591 608.76 591 607.95 L 591 594.05 C 591 593.24 590.68 592.47 590.1 591.89 C 589.53 591.32 588.75 591 587.94 591 L 583.94 591 C 583.708 589.859 582.699 589 581.49 589 C 580.281 589 579.272 589.859 579.04 591 L 579.04 591 Z  M 580.482 591.5 C 580.482 590.944 580.934 590.492 581.49 590.492 C 582.046 590.492 582.498 590.944 582.498 591.5 C 582.498 592.056 582.046 592.508 581.49 592.508 C 580.934 592.508 580.482 592.056 580.482 591.5 Z " fill-rule="evenodd" fill="rgb(117,117,117)"/></g></svg>