<?xml version="1.0" encoding="UTF-8" standalone="no"?><!-- Generator: Gravit.io --><svg xmlns="http://www.w3.org/2000/svg" xmlns:xlink="http://www.w3.org/1999/xlink" style="isolation:isolate" viewBox="717 88.001 24 24" width="24pt" height="24pt"><g><g><g opacity="0"><rect x="717" y="88.001" width="24" height="24" transform="matrix(1,0,0,1,0,0)" fill="rgb(37,86,132)"/></g></g><path d=" M 740 100.001 C 740 102.921 738.84 105.721 736.78 107.781 C 734.72 109.841 731.92 111.001 729 111.001 C 726.08 111.001 723.28 109.841 721.22 107.781 C 719.16 105.721 718 102.921 718 100.001 C 718 97.081 719.16 94.281 721.22 92.221 C 723.28 90.161 726.08 89.001 729 89.001 C 731.92 89.001 734.72 90.161 736.78 92.221 C 738.84 94.281 740 97.081 740 100.001 Z  M 738 100.001 C 738 102.391 737.05 104.681 735.36 106.361 C 733.68 108.051 731.39 109.001 729 109.001 C 726.61 109.001 724.32 108.051 722.64 106.361 C 720.95 104.681 720 102.391 720 100.001 C 720 97.611 720.95 95.321 722.64 93.641 C 724.32 91.951 726.61 91.001 729 91.001 C 731.39 91.001 733.68 91.951 735.36 93.641 C 737.05 95.321 738 97.611 738 100.001 Z " fill-rule="evenodd" fill="rgb(161,161,161)"/><path d=" M 730 101.001 L 734 101.001 L 734 99.001 L 730 99.001 L 730 95.001 L 728 95.001 L 728 99.001 L 724 99.001 L 724 101.001 L 728 101.001 L 728 105.001 L 730 105.001 L 730 101.001 Z " fill="rgb(215,215,215)"/></g></svg>