<?xml version="1.0" encoding="UTF-8" standalone="no"?><!-- Generator: Gravit.io --><svg xmlns="http://www.w3.org/2000/svg" xmlns:xlink="http://www.w3.org/1999/xlink" style="isolation:isolate" viewBox="38 88 24 24" width="24pt" height="24pt"><g><g><g opacity="0"><rect x="38" y="88" width="24" height="24" transform="matrix(1,0,0,1,0,0)" fill="rgb(37,86,132)"/></g></g><path d=" M 51 92 L 48 92 L 48 103 L 48 103 L 48 103 L 56 103 L 56 97 L 52 97 C 51.448 97 51 96.552 51 96 L 51 92 L 51 92 Z  M 45 94 L 43 94 L 43 94 C 42.448 94 42 94.448 42 95 L 42 108 C 42 108.552 42.448 109 43 109 L 53 109 C 53.552 109 54 108.552 54 108 L 54 106 L 52 106 L 52 107 L 44 107 L 44 107 L 44 96 L 45 96 L 45 94 L 45 94 Z  M 47 90 L 53 90 L 58 95 L 58 104 C 58 104.552 57.552 105 57 105 L 47 105 C 46.448 105 46 104.552 46 104 L 46 91 C 46 90.448 46.448 90 47 90 L 47 90 L 47 90 Z  M 52 95.859 L 52 92 L 56 96 L 52 96 L 52 95.859 L 52 95.859 Z " fill-rule="evenodd" fill="rgb(161,161,161)"/></g></svg>