<?xml version="1.0" encoding="UTF-8" standalone="no"?><!-- Generator: Gravit.io --><svg xmlns="http://www.w3.org/2000/svg" xmlns:xlink="http://www.w3.org/1999/xlink" style="isolation:isolate" viewBox="475 135 24 24" width="24pt" height="24pt"><g><g><g opacity="0"><rect x="475" y="135" width="24" height="24" transform="matrix(1,0,0,1,0,0)" fill="rgb(37,86,132)"/></g></g><path d=" M 481 140 L 492 140 L 492 145 L 481 145 L 481 140 Z " fill="rgb(215,215,215)"/><path d=" M 483 150 L 495 150 L 495 152 L 483 152 L 483 150 L 483 150 Z  M 481 148 L 497 148 L 497 154 L 481 154 L 481 148 L 481 148 Z  M 478 150 L 478 149 L 478 149 L 479 149 L 479 150 L 478 150 L 478 150 L 478 150 L 478 150 L 478 150 L 478 150 Z  M 478 158 L 478 157 L 478 157 L 479 157 L 479 158 L 478 158 L 478 158 Z  M 478 156 L 478 155 L 478 155 L 479 155 L 479 156 L 478 156 L 478 156 L 478 156 Z  M 478 146 L 478 145 L 478 145 L 479 145 L 479 146 L 478 146 L 478 146 L 478 146 L 478 146 L 478 146 L 478 146 L 478 146 L 478 146 Z  M 478 154 L 478 153 L 478 153 L 479 153 L 479 154 L 478 154 L 478 154 L 478 154 L 478 154 Z  M 478 152 L 478 151 L 478 151 L 479 151 L 479 152 L 478 152 L 478 152 L 478 152 L 478 152 L 478 152 Z  M 478 148 L 478 147 L 478 147 L 479 147 L 479 148 L 478 148 L 478 148 L 478 148 L 478 148 L 478 148 L 478 148 L 478 148 Z  M 478 144 L 478 143 L 478 143 L 479 143 L 479 144 L 478 144 L 478 144 L 478 144 L 478 144 L 478 144 L 478 144 L 478 144 L 478 144 L 478 144 Z  M 478 142 L 478 141 L 478 141 L 479 141 L 479 142 L 478 142 L 478 142 L 478 142 L 478 142 L 478 142 L 478 142 L 478 142 L 478 142 L 478 142 L 478 142 Z  M 478 140 L 478 139 L 478 139 L 479 139 L 479 140 L 478 140 L 478 140 L 478 140 L 478 140 L 478 140 L 478 140 L 478 140 L 478 140 L 478 140 L 478 140 L 478 140 Z  M 478 138 L 478 137 L 478 137 L 479 137 L 479 138 L 478 138 L 478 138 L 478 138 L 478 138 L 478 138 L 478 138 L 478 138 L 478 138 L 478 138 L 478 138 L 478 138 L 478 138 Z  M 478 136 L 478 135 L 479 135 L 479 136 L 478 136 L 478 136 L 478 136 L 478 136 L 478 136 L 478 136 L 478 136 L 478 136 L 478 136 L 478 136 L 478 136 L 478 136 L 478 136 Z " fill-rule="evenodd" fill="rgb(161,161,161)"/></g></svg>