<?xml version="1.0" encoding="UTF-8" standalone="no"?><!-- Generator: Gravit.io --><svg xmlns="http://www.w3.org/2000/svg" xmlns:xlink="http://www.w3.org/1999/xlink" style="isolation:isolate" viewBox="682 634 24 24" width="24pt" height="24pt"><g><g><g opacity="0"><rect x="682" y="634" width="24" height="24" transform="matrix(1,0,0,1,0,0)" fill="rgb(37,86,132)"/></g></g><path d=" M 690.5 642 L 690.5 642 C 690.776 642 691 642.224 691 642.5 L 691 642.5 C 691 642.776 690.776 643 690.5 643 L 690.5 643 C 690.224 643 690 642.776 690 642.5 L 690 642.5 C 690 642.224 690.224 642 690.5 642 L 690.5 642 L 690.5 642 L 690.5 642 L 690.5 642 L 690.5 642 L 690.5 642 L 690.5 642 Z  M 685.5 649 L 685.5 649 C 685.776 649 686 649.224 686 649.5 L 686 649.5 C 686 649.776 685.776 650 685.5 650 L 685.5 650 C 685.224 650 685 649.776 685 649.5 L 685 649.5 C 685 649.224 685.224 649 685.5 649 L 685.5 649 L 685.5 649 L 685.5 649 L 685.5 649 Z  M 685.5 637 L 685.5 637 C 685.776 637 686 637.224 686 637.5 L 686 637.5 C 686 637.776 685.776 638 685.5 638 L 685.5 638 C 685.224 638 685 637.776 685 637.5 L 685 637.5 C 685 637.224 685.224 637 685.5 637 L 685.5 637 L 685.5 637 L 685.5 637 L 685.5 637 L 685.5 637 L 685.5 637 Z  M 702.5 654 L 702.5 654 C 702.776 654 703 654.224 703 654.5 L 703 654.5 C 703 654.776 702.776 655 702.5 655 L 702.5 655 C 702.224 655 702 654.776 702 654.5 L 702 654.5 C 702 654.224 702.224 654 702.5 654 L 702.5 654 L 702.5 654 L 702.5 654 Z  M 702.5 642 L 702.5 642 C 702.776 642 703 642.224 703 642.5 L 703 642.5 C 703 642.776 702.776 643 702.5 643 L 702.5 643 C 702.224 643 702 642.776 702 642.5 L 702 642.5 C 702 642.224 702.224 642 702.5 642 L 702.5 642 L 702.5 642 L 702.5 642 L 702.5 642 L 702.5 642 Z  M 690.5 654 L 690.5 654 C 690.776 654 691 654.224 691 654.5 L 691 654.5 C 691 654.776 690.776 655 690.5 655 L 690.5 655 C 690.224 655 690 654.776 690 654.5 L 690 654.5 C 690 654.224 690.224 654 690.5 654 L 690.5 654 L 690.5 654 Z  M 690.5 653 L 690.5 653 C 691.328 653 692 653.672 692 654.5 L 692 654.5 C 692 655.328 691.328 656 690.5 656 L 690.5 656 C 689.672 656 689 655.328 689 654.5 L 689 654.5 C 689 653.672 689.672 653 690.5 653 L 690.5 653 L 690.5 653 Z  M 685.5 648 L 685.5 648 C 686.328 648 687 648.672 687 649.5 L 687 649.5 C 687 650.328 686.328 651 685.5 651 L 685.5 651 C 684.672 651 684 650.328 684 649.5 L 684 649.5 C 684 648.672 684.672 648 685.5 648 L 685.5 648 L 685.5 648 L 685.5 648 L 685.5 648 Z  M 690.5 641 L 690.5 641 C 691.328 641 692 641.672 692 642.5 L 692 642.5 C 692 643.328 691.328 644 690.5 644 L 690.5 644 C 689.672 644 689 643.328 689 642.5 L 689 642.5 C 689 641.672 689.672 641 690.5 641 L 690.5 641 L 690.5 641 L 690.5 641 L 690.5 641 L 690.5 641 L 690.5 641 L 690.5 641 Z  M 685.5 636 L 685.5 636 C 686.328 636 687 636.672 687 637.5 L 687 637.5 C 687 638.328 686.328 639 685.5 639 L 685.5 639 C 684.672 639 684 638.328 684 637.5 L 684 637.5 C 684 636.672 684.672 636 685.5 636 L 685.5 636 L 685.5 636 L 685.5 636 L 685.5 636 L 685.5 636 L 685.5 636 Z  M 702.5 653 L 702.5 653 C 703.328 653 704 653.672 704 654.5 L 704 654.5 C 704 655.328 703.328 656 702.5 656 L 702.5 656 C 701.672 656 701 655.328 701 654.5 L 701 654.5 C 701 653.672 701.672 653 702.5 653 L 702.5 653 L 702.5 653 L 702.5 653 Z  M 702.5 641 L 702.5 641 C 703.328 641 704 641.672 704 642.5 L 704 642.5 C 704 643.328 703.328 644 702.5 644 L 702.5 644 C 701.672 644 701 643.328 701 642.5 L 701 642.5 C 701 641.672 701.672 641 702.5 641 L 702.5 641 L 702.5 641 L 702.5 641 L 702.5 641 L 702.5 641 Z  M 696 642.521 L 696 640 C 696 639.448 695.552 639 695 639 L 688 639 C 687.448 639 687 639.448 687 640 L 687 647 C 687 647.552 687.448 648 688 648 L 690.521 648 C 690.761 645.087 693.087 642.761 696 642.521 L 696 642.521 L 696 642.521 L 696 642.521 L 696 642.521 L 696 642.521 L 696 642.521 Z  M 697.5 637 L 697.5 637 C 697.776 637 698 637.224 698 637.5 L 698 637.5 C 698 637.776 697.776 638 697.5 638 L 697.5 638 C 697.224 638 697 637.776 697 637.5 L 697 637.5 C 697 637.224 697.224 637 697.5 637 L 697.5 637 Z  M 697.5 636 L 697.5 636 C 698.328 636 699 636.672 699 637.5 L 699 637.5 C 699 638.328 698.328 639 697.5 639 L 697.5 639 C 696.672 639 696 638.328 696 637.5 L 696 637.5 C 696 636.672 696.672 636 697.5 636 L 697.5 636 Z " fill-rule="evenodd" fill="rgb(117,117,117)"/><path d=" M 696.5 644 L 696.5 644 C 698.984 644 701 646.016 701 648.5 L 701 648.5 C 701 650.984 698.984 653 696.5 653 L 696.5 653 C 694.016 653 692 650.984 692 648.5 L 692 648.5 C 692 646.016 694.016 644 696.5 644 Z " fill="rgb(77,77,77)"/></g></svg>