<?xml version="1.0" encoding="UTF-8" standalone="no"?><!-- Generator: Gravit.io --><svg xmlns="http://www.w3.org/2000/svg" xmlns:xlink="http://www.w3.org/1999/xlink" style="isolation:isolate" viewBox="794 248 24 24" width="24px" height="24px"><g><g><g opacity="0"><rect x="794" y="248" width="24" height="24" transform="matrix(1,0,0,1,0,0)" fill="rgb(37,86,132)"/></g></g><path d=" M 797 261 L 797 256 C 797 254.67 797.53 253.4 798.46 252.46 C 799.4 251.53 800.67 251 802 251 L 802 251 L 807 251 L 807 253 L 802 253 L 802 253 C 801.2 253 800.44 253.32 799.88 253.88 C 799.32 254.44 799 255.2 799 256 L 799 261 L 797 261 Z  M 805 269 L 810 269 C 811.33 269 812.6 268.47 813.54 267.54 C 814.47 266.6 815 265.33 815 264 L 815 259 L 815 259 L 813 259 L 813 264 C 813 264.8 812.68 265.56 812.12 266.12 C 811.56 266.68 810.8 267 810 267 L 805 267 L 805 269 L 805 269 Z " fill-rule="evenodd" fill="rgb(117,117,117)"/><path d=" M 815 252.309 L 798.309 269 L 802 269 L 802 271 L 802 271 L 795 271 L 795 264 L 797 264 L 797 267.48 L 813.48 251 L 810 251 L 810 249 L 817 249 L 817 256 L 817 256 L 817 256 L 815 256 L 815 252.309 Z " fill="rgb(77,77,77)"/></g></svg>