<?xml version="1.0" encoding="UTF-8" standalone="no"?><!-- Generator: Gravit.io --><svg xmlns="http://www.w3.org/2000/svg" xmlns:xlink="http://www.w3.org/1999/xlink" style="isolation:isolate" viewBox="278 1091.027 104 104" width="104pt" height="104pt"><g><g><g opacity="0"><rect x="318" y="1131.027" width="24" height="24" transform="matrix(1,0,0,1,0,0)" fill="rgb(37,86,132)"/></g></g><path d=" M 329 1153.027 L 321 1153.027 L 321 1143.027 L 327.036 1143.027 C 327.012 1143.19 327 1143.357 327 1143.527 L 327 1143.527 C 327 1144.922 327.818 1146.128 329 1146.69 L 329 1153.027 Z  M 332 1153.027 L 340 1153.027 L 340 1143.027 L 333.964 1143.027 C 333.988 1143.19 334 1143.357 334 1143.527 L 334 1143.527 C 334 1144.922 333.182 1146.128 332 1146.69 L 332 1153.027 Z " fill-rule="evenodd" fill="rgb(161,161,161)"/><path d=" M 331 1147.014 L 331 1153.027 L 330 1153.027 L 330 1147.014 C 330.08 1147.019 330.16 1147.022 330.242 1147.022 L 330.758 1147.022 C 330.84 1147.022 330.92 1147.019 331 1147.014 Z  M 330.5 1141.027 L 330.5 1141.027 C 331.88 1141.027 333 1142.147 333 1143.527 L 333 1143.527 C 333 1144.907 331.88 1146.027 330.5 1146.027 L 330.5 1146.027 C 329.12 1146.027 328 1144.907 328 1143.527 L 328 1143.527 C 328 1142.147 329.12 1141.027 330.5 1141.027 Z " fill-rule="evenodd" fill="rgb(215,215,215)"/></g></svg>