<?xml version="1.0" encoding="UTF-8" standalone="no"?><!-- Generator: Gravit.io --><svg xmlns="http://www.w3.org/2000/svg" xmlns:xlink="http://www.w3.org/1999/xlink" style="isolation:isolate" viewBox="636 588 24 24" width="24px" height="24px"><g><g><g opacity="0"><rect x="636" y="588" width="24" height="24" transform="matrix(1,0,0,1,0,0)" fill="rgb(37,86,132)"/></g></g><path d=" M 645.433 597 L 645.567 597 C 645.806 597 646 597.194 646 597.433 L 646 605.567 C 646 605.806 645.806 606 645.567 606 L 645.433 606 C 645.194 606 645 605.806 645 605.567 L 645 597.433 C 645 597.194 645.194 597 645.433 597 L 645.433 597 L 645.433 597 Z  M 647.433 597 L 647.567 597 C 647.806 597 648 597.194 648 597.433 L 648 605.567 C 648 605.806 647.806 606 647.567 606 L 647.433 606 C 647.194 606 647 605.806 647 605.567 L 647 597.433 C 647 597.194 647.194 597 647.433 597 L 647.433 597 L 647.433 597 Z  M 649.433 597 L 649.567 597 C 649.806 597 650 597.194 650 597.433 L 650 605.567 C 650 605.806 649.806 606 649.567 606 L 649.433 606 C 649.194 606 649 605.806 649 605.567 L 649 597.433 C 649 597.194 649.194 597 649.433 597 L 649.433 597 Z  M 651 593 L 644 593 L 644 592.87 C 644 592.64 644.09 592.42 644.26 592.26 C 644.42 592.09 644.64 592 644.87 592 L 650.13 592 C 650.36 592 650.58 592.09 650.74 592.26 C 650.91 592.42 651 592.64 651 592.87 L 651 593 L 651 593 Z  M 652 595 L 653 595 L 653 608 L 642 608 L 642 595 L 642 595 L 642 595 L 643 595 L 643 595 L 643 595 L 652 595 L 652 595 L 652 595 L 652 595 Z  M 653 593 L 656 593 C 656.27 593 656.52 593.11 656.71 593.29 C 656.89 593.48 657 593.73 657 594 C 657 594.27 656.89 594.52 656.71 594.71 C 656.52 594.89 656.27 595 656 595 L 655 595 L 655 608 C 655 609.104 654.104 610 653 610 L 642 610 C 640.896 610 640 609.104 640 608 L 640 595 L 639 595 C 638.73 595 638.48 594.89 638.29 594.71 C 638.11 594.52 638 594.27 638 594 C 638 593.73 638.11 593.48 638.29 593.29 C 638.48 593.11 638.73 593 639 593 L 642 593 L 642 592.87 C 642 592.11 642.3 591.38 642.84 590.84 C 643.38 590.3 644.11 590 644.87 590 L 650.13 590 C 650.89 590 651.62 590.3 652.16 590.84 C 652.7 591.38 653 592.11 653 592.87 L 653 593 L 653 593 Z " fill-rule="evenodd" fill="rgb(117,117,117)"/></g></svg>