<?xml version="1.0" encoding="UTF-8" standalone="no"?><!-- Generator: Gravit.io --><svg xmlns="http://www.w3.org/2000/svg" xmlns:xlink="http://www.w3.org/1999/xlink" style="isolation:isolate" viewBox="713 138.001 24 24" width="24pt" height="24pt"><g><g><g opacity="0"><rect x="713" y="138.001" width="24" height="24" transform="matrix(1,0,0,1,0,0)" fill="rgb(37,86,132)"/></g></g><path d=" M 722 150.501 C 722 148.569 723.568 147.001 725.5 147.001 C 727.432 147.001 729 148.569 729 150.501 C 729 152.433 727.432 154.001 725.5 154.001 C 723.568 154.001 722 152.433 722 150.501 L 722 150.501 Z  M 717 150.501 Q 720.539 145.001 725.5 145.001 Q 730.461 145.001 734 150.501 Q 730.32 156.001 725.5 156.001 Q 720.68 156.001 717 150.501 L 717 150.501 Z  M 724 150.501 C 724 149.673 724.672 149.001 725.5 149.001 C 726.328 149.001 727 149.673 727 150.501 C 727 151.329 726.328 152.001 725.5 152.001 C 724.672 152.001 724 151.329 724 150.501 Z " fill-rule="evenodd" fill="rgb(161,161,161)"/></g></svg>