<?xml version="1.0" encoding="UTF-8" standalone="no"?><!-- Generator: Gravit.io --><svg xmlns="http://www.w3.org/2000/svg" xmlns:xlink="http://www.w3.org/1999/xlink" style="isolation:isolate" viewBox="621 138.001 24 24" width="24pt" height="24pt"><g><g><g opacity="0"><rect x="621" y="138.001" width="24" height="24" transform="matrix(1,0,0,1,0,0)" fill="rgb(37,86,132)"/></g></g><path d=" M 638 142.501 C 638 142.101 638.16 141.721 638.44 141.441 C 638.72 141.161 639.1 141.001 639.5 141.001 C 639.9 141.001 640.28 141.161 640.56 141.441 C 640.84 141.721 641 142.101 641 142.501 C 641 142.901 640.84 143.281 640.56 143.561 C 640.28 143.841 639.9 144.001 639.5 144.001 C 639.1 144.001 638.72 143.841 638.44 143.561 C 638.16 143.281 638 142.901 638 142.501 L 638 142.501 L 638 142.501 L 638 142.501 L 638 142.501 L 638 142.501 L 638 142.501 Z  M 628 149.501 C 628 149.101 628.16 148.721 628.44 148.441 C 628.72 148.161 629.1 148.001 629.5 148.001 C 629.9 148.001 630.28 148.161 630.56 148.441 C 630.84 148.721 631 149.101 631 149.501 C 631 149.901 630.84 150.281 630.56 150.561 C 630.28 150.841 629.9 151.001 629.5 151.001 C 629.1 151.001 628.72 150.841 628.44 150.561 C 628.16 150.281 628 149.901 628 149.501 L 628 149.501 L 628 149.501 L 628 149.501 L 628 149.501 L 628 149.501 L 628 149.501 Z  M 638 156.501 C 638 156.101 638.16 155.721 638.44 155.441 C 638.72 155.161 639.1 155.001 639.5 155.001 C 639.9 155.001 640.28 155.161 640.56 155.441 C 640.84 155.721 641 156.101 641 156.501 C 641 156.901 640.84 157.281 640.56 157.561 C 640.28 157.841 639.9 158.001 639.5 158.001 C 639.1 158.001 638.72 157.841 638.44 157.561 C 638.16 157.281 638 156.901 638 156.501 L 638 156.501 L 638 156.501 L 638 156.501 L 638 156.501 L 638 156.501 Z  M 623 142.001 L 634 142.001 L 634 143.001 L 623 143.001 L 623 142.001 L 623 142.001 L 623 142.001 L 623 142.001 Z  M 635 149.001 L 643 149.001 L 643 150.001 L 635 150.001 L 635 149.001 L 635 149.001 Z  M 626.036 150.001 L 626.036 150.001 C 626.143 150.746 626.49 151.44 627.03 151.981 C 627.68 152.631 628.57 153.001 629.5 153.001 C 630.43 153.001 631.32 152.631 631.98 151.981 C 632.63 151.321 633 150.431 633 149.501 C 633 148.571 632.63 147.681 631.98 147.031 C 631.32 146.371 630.43 146.001 629.5 146.001 C 628.57 146.001 627.68 146.371 627.03 147.031 C 626.49 147.563 626.143 148.257 626.036 149.001 L 623 149.001 L 623 150.001 L 626.036 150.001 L 626.036 150.001 L 626.036 150.001 Z  M 636 142.501 C 636 141.571 636.37 140.681 637.03 140.031 C 637.68 139.371 638.57 139.001 639.5 139.001 C 640.43 139.001 641.32 139.371 641.98 140.031 C 642.63 140.681 643 141.571 643 142.501 C 643 143.431 642.63 144.321 641.98 144.981 C 641.32 145.631 640.43 146.001 639.5 146.001 C 638.57 146.001 637.68 145.631 637.03 144.981 C 636.37 144.321 636 143.431 636 142.501 L 636 142.501 L 636 142.501 L 636 142.501 L 636 142.501 L 636 142.501 L 636 142.501 Z  M 636 156.501 C 636 155.571 636.37 154.681 637.03 154.031 C 637.68 153.371 638.57 153.001 639.5 153.001 C 640.43 153.001 641.32 153.371 641.98 154.031 C 642.63 154.681 643 155.571 643 156.501 C 643 157.431 642.63 158.321 641.98 158.981 C 641.32 159.631 640.43 160.001 639.5 160.001 C 638.57 160.001 637.68 159.631 637.03 158.981 C 636.37 158.321 636 157.431 636 156.501 L 636 156.501 L 636 156.501 L 636 156.501 L 636 156.501 L 636 156.501 Z  M 623 156.001 L 634 156.001 L 634 157.001 L 623 157.001 L 623 156.001 Z " fill-rule="evenodd" fill="rgb(161,161,161)"/></g></svg>