<?xml version="1.0" encoding="UTF-8" standalone="no"?><!-- Generator: Gravit.io --><svg xmlns="http://www.w3.org/2000/svg" xmlns:xlink="http://www.w3.org/1999/xlink" style="isolation:isolate" viewBox="667 138.001 24 24" width="24pt" height="24pt"><g><g><g opacity="0"><rect x="667" y="138.001" width="24" height="24" transform="matrix(1,0,0,1,0,0)" fill="rgb(37,86,132)"/></g></g><path d=" M 676.433 147.001 L 676.567 147.001 C 676.806 147.001 677 147.195 677 147.434 L 677 155.568 C 677 155.807 676.806 156.001 676.567 156.001 L 676.433 156.001 C 676.194 156.001 676 155.807 676 155.568 L 676 147.434 C 676 147.195 676.194 147.001 676.433 147.001 L 676.433 147.001 L 676.433 147.001 Z  M 678.433 147.001 L 678.567 147.001 C 678.806 147.001 679 147.195 679 147.434 L 679 155.568 C 679 155.807 678.806 156.001 678.567 156.001 L 678.433 156.001 C 678.194 156.001 678 155.807 678 155.568 L 678 147.434 C 678 147.195 678.194 147.001 678.433 147.001 L 678.433 147.001 L 678.433 147.001 Z  M 680.433 147.001 L 680.567 147.001 C 680.806 147.001 681 147.195 681 147.434 L 681 155.568 C 681 155.807 680.806 156.001 680.567 156.001 L 680.433 156.001 C 680.194 156.001 680 155.807 680 155.568 L 680 147.434 C 680 147.195 680.194 147.001 680.433 147.001 L 680.433 147.001 Z  M 682 143.001 L 675 143.001 L 675 142.871 C 675 142.641 675.09 142.421 675.26 142.261 C 675.42 142.091 675.64 142.001 675.87 142.001 L 681.13 142.001 C 681.36 142.001 681.58 142.091 681.74 142.261 C 681.91 142.421 682 142.641 682 142.871 L 682 143.001 L 682 143.001 Z  M 683 145.001 L 684 145.001 L 684 158.001 L 673 158.001 L 673 145.001 L 673 145.001 L 673 145.001 L 674 145.001 L 674 145.001 L 674 145.001 L 683 145.001 L 683 145.001 L 683 145.001 L 683 145.001 Z  M 684 143.001 L 686 143.001 L 686 143.001 L 687 143.001 C 687.27 143.001 687.52 143.111 687.71 143.291 C 687.89 143.481 688 143.731 688 144.001 C 688 144.271 687.89 144.521 687.71 144.711 C 687.52 144.891 687.27 145.001 687 145.001 L 686 145.001 L 686 158.001 C 686 159.105 685.104 160.001 684 160.001 L 673 160.001 C 671.896 160.001 671 159.105 671 158.001 L 671 145.001 L 670 145.001 C 669.73 145.001 669.48 144.891 669.29 144.711 C 669.11 144.521 669 144.271 669 144.001 C 669 143.731 669.11 143.481 669.29 143.291 C 669.48 143.111 669.73 143.001 670 143.001 L 671 143.001 L 671 143.001 L 671 143.001 L 673 143.001 L 673 142.871 C 673 142.111 673.3 141.381 673.84 140.841 C 674.38 140.301 675.11 140.001 675.87 140.001 L 681.13 140.001 C 681.89 140.001 682.62 140.301 683.16 140.841 C 683.7 141.381 684 142.111 684 142.871 L 684 143.001 L 684 143.001 Z " fill-rule="evenodd" fill="rgb(161,161,161)"/></g></svg>