<?xml version="1.0" encoding="UTF-8" standalone="no"?><!-- Generator: Gravit.io --><svg xmlns="http://www.w3.org/2000/svg" xmlns:xlink="http://www.w3.org/1999/xlink" style="isolation:isolate" viewBox="463 1091.027 104 104" width="104pt" height="104pt"><g><g><g opacity="0"><rect x="503" y="1131.027" width="24" height="24" transform="matrix(1,0,0,1,0,0)" fill="rgb(37,86,132)"/></g></g><path d=" M 515 1152.027 L 506 1152.027 L 506 1143.027 L 513.339 1143.027 C 513.51 1143.385 513.742 1143.714 514.03 1143.997 C 514.313 1144.285 514.642 1144.517 515 1144.688 L 515 1152.027 Z " fill="rgb(161,161,161)"/><path d=" M 516.5 1139.027 L 516.5 1139.027 C 517.88 1139.027 519 1140.147 519 1141.527 L 519 1141.527 C 519 1142.907 517.88 1144.027 516.5 1144.027 L 516.5 1144.027 C 515.12 1144.027 514 1142.907 514 1141.527 L 514 1141.527 C 514 1140.147 515.12 1139.027 516.5 1139.027 Z  M 513.036 1141.027 L 506 1141.027 L 506 1142.027 L 513.036 1142.027 C 513.012 1141.864 513 1141.697 513 1141.527 L 513 1141.527 C 513 1141.357 513.012 1141.19 513.036 1141.027 L 513.036 1141.027 Z  M 516 1144.991 L 516 1152.027 L 517 1152.027 L 517 1144.991 C 516.837 1145.015 516.67 1145.027 516.5 1145.027 L 516.5 1145.027 C 516.33 1145.027 516.163 1145.015 516 1144.991 L 516 1144.991 Z " fill-rule="evenodd" fill="rgb(215,215,215)"/></g></svg>