<?xml version="1.0" encoding="UTF-8" standalone="no"?><!-- Generator: Gravit.io --><svg xmlns="http://www.w3.org/2000/svg" xmlns:xlink="http://www.w3.org/1999/xlink" style="isolation:isolate" viewBox="834.648 2795.996 20.703 21.981" width="20.703px" height="21.981px"><path d=" M 845.086 2807.848 L 845.086 2808.456 L 847.163 2808.456 L 847.163 2817.977 L 840.756 2817.977 L 840.756 2808.456 L 842.832 2808.456 L 842.832 2805.552 L 853.636 2805.552 L 853.636 2800.83 L 852.543 2800.83 L 852.543 2804.48 L 834.648 2804.48 L 834.648 2795.996 L 852.476 2795.996 L 852.476 2799.111 L 855.352 2799.111 L 855.352 2807.276 L 855.352 2807.276 L 855.352 2807.276 L 845.861 2807.276 L 845.861 2807.848 L 845.086 2807.848 Z  M 850.83 2802.834 L 836.295 2802.834 L 836.295 2797.643 L 850.83 2797.643 L 850.83 2802.834 L 850.83 2802.834 L 850.83 2802.834 Z  M 845.517 2810.102 L 845.517 2816.331 L 842.402 2816.331 L 842.402 2810.102 L 845.517 2810.102 L 845.517 2810.102 Z " fill-rule="evenodd" fill="rgb(215,215,215)"/></svg>