<?xml version="1.0" encoding="UTF-8" standalone="no"?><!-- Generator: Gravit.io --><svg xmlns="http://www.w3.org/2000/svg" xmlns:xlink="http://www.w3.org/1999/xlink" style="isolation:isolate" viewBox="908 247 24 24" width="24px" height="24px"><g><g><g opacity="0"><rect x="908" y="247" width="24" height="24" transform="matrix(1,0,0,1,0,0)" fill="rgb(37,86,132)"/></g></g><path d=" M 927.298 259.298 L 927.298 259.298 C 927.686 259.686 927.683 260.317 927.293 260.707 L 920 268 L 912.707 260.707 C 912.317 260.317 912.314 259.686 912.702 259.298 L 912.702 259.298 C 913.089 258.911 913.722 258.912 914.114 259.301 L 919.018 264.164 L 919.018 251 C 919.018 250.448 919.458 250 920 250 L 920 250 C 920.542 250 920.982 250.448 920.982 251 L 920.982 264.164 L 925.886 259.301 C 926.278 258.912 926.911 258.911 927.298 259.298 Z " fill="rgb(117,117,117)"/></g></svg>