<?xml version="1.0" encoding="UTF-8" standalone="no"?><!-- Generator: Gravit.io --><svg xmlns="http://www.w3.org/2000/svg" xmlns:xlink="http://www.w3.org/1999/xlink" style="isolation:isolate" viewBox="1441.042 186.802 24 24" width="24pt" height="24pt"><g><path d=" M 1460.332 190.092 C 1460.522 189.912 1460.772 189.802 1461.042 189.802 C 1461.312 189.802 1461.562 189.912 1461.752 190.092 C 1461.932 190.282 1462.042 190.532 1462.042 190.802 C 1462.042 191.072 1461.932 191.322 1461.752 191.512 L 1445.752 207.512 C 1445.562 207.692 1445.312 207.802 1445.042 207.802 C 1444.772 207.802 1444.522 207.692 1444.332 207.512 C 1444.152 207.322 1444.042 207.072 1444.042 206.802 C 1444.042 206.532 1444.152 206.282 1444.332 206.092 L 1460.332 190.092 Z " fill="rgb(255,255,255)"/><rect x="1441.042" y="186.802" width="24" height="24" transform="matrix(1,0,0,1,0,0)" fill="none"/></g></svg>