<?xml version="1.0" encoding="UTF-8" standalone="no"?><!-- Generator: Gravit.io --><svg xmlns="http://www.w3.org/2000/svg" xmlns:xlink="http://www.w3.org/1999/xlink" style="isolation:isolate" viewBox="862 294 24 24" width="24px" height="24px"><g><g><g opacity="0"><rect x="862" y="294" width="24" height="24" transform="matrix(1,0,0,1,0,0)" fill="rgb(37,86,132)"/></g></g><path d=" M 873.702 298.702 L 873.702 298.702 C 873.314 298.314 872.683 298.317 872.293 298.707 L 865 306 L 872.293 313.293 C 872.683 313.683 873.314 313.686 873.702 313.298 L 873.702 313.298 C 874.089 312.911 874.088 312.278 873.699 311.886 L 868.836 306.982 L 882 306.982 C 882.552 306.982 883 306.542 883 306 L 883 306 C 883 305.458 882.552 305.018 882 305.018 L 868.836 305.018 L 873.699 300.114 C 874.088 299.722 874.089 299.089 873.702 298.702 Z " fill="rgb(117,117,117)"/></g></svg>