<?xml version="1.0" encoding="UTF-8" standalone="no"?><!-- Generator: Gravit.io --><svg xmlns="http://www.w3.org/2000/svg" xmlns:xlink="http://www.w3.org/1999/xlink" style="isolation:isolate" viewBox="1150 2583 24 24" width="24" height="24"><g id="group-small"><g opacity="0"><rect x="1150" y="2583" width="24" height="24" transform="matrix(1,0,0,1,0,0)" id="Icon Background" fill="rgb(37,86,132)"/></g><path d=" M 1164 2592.525 L 1164 2590.778 C 1164 2590.348 1163.651 2590 1163.222 2590 L 1157.778 2590 C 1157.349 2590 1157 2590.348 1157 2590.778 L 1157 2596.222 C 1157 2596.652 1157.349 2597 1157.778 2597 L 1159.525 2597 C 1159.76 2594.639 1161.639 2592.76 1164 2592.525 L 1164 2592.525 L 1164 2592.525 L 1164 2592.525 L 1164 2592.525 Z  M 1155.5 2587 L 1155.5 2587 C 1156.328 2587 1157 2587.672 1157 2588.5 L 1157 2588.5 C 1157 2589.328 1156.328 2590 1155.5 2590 L 1155.5 2590 C 1154.672 2590 1154 2589.328 1154 2588.5 L 1154 2588.5 C 1154 2587.672 1154.672 2587 1155.5 2587 L 1155.5 2587 L 1155.5 2587 L 1155.5 2587 L 1155.5 2587 Z  M 1155.5 2600 L 1155.5 2600 C 1156.328 2600 1157 2600.672 1157 2601.5 L 1157 2601.5 C 1157 2602.328 1156.328 2603 1155.5 2603 L 1155.5 2603 C 1154.672 2603 1154 2602.328 1154 2601.5 L 1154 2601.5 C 1154 2600.672 1154.672 2600 1155.5 2600 L 1155.5 2600 L 1155.5 2600 L 1155.5 2600 Z  M 1168.5 2600 L 1168.5 2600 C 1169.328 2600 1170 2600.672 1170 2601.5 L 1170 2601.5 C 1170 2602.328 1169.328 2603 1168.5 2603 L 1168.5 2603 C 1167.672 2603 1167 2602.328 1167 2601.5 L 1167 2601.5 C 1167 2600.672 1167.672 2600 1168.5 2600 L 1168.5 2600 L 1168.5 2600 Z  M 1168.5 2587 L 1168.5 2587 C 1169.328 2587 1170 2587.672 1170 2588.5 L 1170 2588.5 C 1170 2589.328 1169.328 2590 1168.5 2590 L 1168.5 2590 C 1167.672 2590 1167 2589.328 1167 2588.5 L 1167 2588.5 C 1167 2587.672 1167.672 2587 1168.5 2587 L 1168.5 2587 Z  M 1164.5 2594 L 1164.5 2594 C 1166.432 2594 1168 2595.568 1168 2597.5 L 1168 2597.5 C 1168 2599.432 1166.432 2601 1164.5 2601 L 1164.5 2601 C 1162.568 2601 1161 2599.432 1161 2597.5 L 1161 2597.5 C 1161 2595.568 1162.568 2594 1164.5 2594 Z " fill-rule="evenodd" id="Fill-B" fill="rgb(161,161,161)"/></g></svg>