<?xml version="1.0" encoding="UTF-8" standalone="no"?><!-- Generator: Gravit.io --><svg xmlns="http://www.w3.org/2000/svg" xmlns:xlink="http://www.w3.org/1999/xlink" style="isolation:isolate" viewBox="778 1057 24 24" width="24" height="24"><g id="group"><g opacity="0"><rect x="778" y="1057" width="24" height="24" transform="matrix(1,0,0,1,0,0)" id="Icon Background" fill="rgb(37,86,132)"/></g><path d=" M 792 1065.521 L 792 1063 C 792 1062.448 791.552 1062 791 1062 L 784 1062 C 783.448 1062 783 1062.448 783 1063 L 783 1070 C 783 1070.552 783.448 1071 784 1071 L 786.521 1071 C 786.761 1068.087 789.087 1065.761 792 1065.521 L 792 1065.521 L 792 1065.521 L 792 1065.521 L 792 1065.521 Z  M 781.5 1059 L 781.5 1059 C 782.328 1059 783 1059.672 783 1060.5 L 783 1060.5 C 783 1061.328 782.328 1062 781.5 1062 L 781.5 1062 C 780.672 1062 780 1061.328 780 1060.5 L 780 1060.5 C 780 1059.672 780.672 1059 781.5 1059 L 781.5 1059 L 781.5 1059 L 781.5 1059 L 781.5 1059 Z  M 781.5 1076 L 781.5 1076 C 782.328 1076 783 1076.672 783 1077.5 L 783 1077.5 C 783 1078.328 782.328 1079 781.5 1079 L 781.5 1079 C 780.672 1079 780 1078.328 780 1077.5 L 780 1077.5 C 780 1076.672 780.672 1076 781.5 1076 L 781.5 1076 L 781.5 1076 L 781.5 1076 Z  M 798.5 1076 L 798.5 1076 C 799.328 1076 800 1076.672 800 1077.5 L 800 1077.5 C 800 1078.328 799.328 1079 798.5 1079 L 798.5 1079 C 797.672 1079 797 1078.328 797 1077.5 L 797 1077.5 C 797 1076.672 797.672 1076 798.5 1076 L 798.5 1076 L 798.5 1076 Z  M 798.5 1059 L 798.5 1059 C 799.328 1059 800 1059.672 800 1060.5 L 800 1060.5 C 800 1061.328 799.328 1062 798.5 1062 L 798.5 1062 C 797.672 1062 797 1061.328 797 1060.5 L 797 1060.5 C 797 1059.672 797.672 1059 798.5 1059 L 798.5 1059 Z  M 792.5 1067 L 792.5 1067 C 794.984 1067 797 1069.016 797 1071.5 L 797 1071.5 C 797 1073.984 794.984 1076 792.5 1076 L 792.5 1076 C 790.016 1076 788 1073.984 788 1071.5 L 788 1071.5 C 788 1069.016 790.016 1067 792.5 1067 Z " fill-rule="evenodd" id="Fill-B" fill="rgb(161,161,161)"/></g></svg>