<?xml version="1.0" encoding="UTF-8" standalone="no"?><!-- Generator: Gravit.io --><svg xmlns="http://www.w3.org/2000/svg" xmlns:xlink="http://www.w3.org/1999/xlink" style="isolation:isolate" viewBox="2411 862 24 24" width="24" height="24"><g id="help"><g opacity="0"><rect x="2411" y="862" width="24" height="24" transform="matrix(1,0,0,1,0,0)" id="Icon Background" fill="rgb(37,86,132)"/></g><path d=" M 2435 874 C 2435 880.623 2429.623 886 2423 886 C 2416.377 886 2411 880.623 2411 874 C 2411 867.377 2416.377 862 2423 862 C 2429.623 862 2435 867.377 2435 874 Z  M 2433 874 C 2433 876.65 2431.95 879.2 2430.07 881.07 C 2428.2 882.95 2425.65 884 2423 884 C 2420.35 884 2417.8 882.95 2415.93 881.07 C 2414.05 879.2 2413 876.65 2413 874 C 2413 871.35 2414.05 868.8 2415.93 866.93 C 2417.8 865.05 2420.35 864 2423 864 C 2425.65 864 2428.2 865.05 2430.07 866.93 C 2431.95 868.8 2433 871.35 2433 874 Z " fill-rule="evenodd" id="Fill-B" fill="rgb(161,161,161)"/><path d=" M 2424.246 876.016 L 2424.246 876.016 L 2421.277 876.016 L 2421.277 875.719 L 2421.277 875.719 Q 2421.277 874.961 2421.449 874.488 L 2421.449 874.488 L 2421.449 874.488 Q 2421.621 874.016 2421.961 873.625 L 2421.961 873.625 L 2421.961 873.625 Q 2422.301 873.234 2423.488 872.25 L 2423.488 872.25 L 2423.488 872.25 Q 2424.121 871.734 2424.121 871.305 L 2424.121 871.305 L 2424.121 871.305 Q 2424.121 870.875 2423.867 870.637 L 2423.867 870.637 L 2423.867 870.637 Q 2423.613 870.398 2423.098 870.398 L 2423.098 870.398 L 2423.098 870.398 Q 2422.543 870.398 2422.18 870.766 L 2422.18 870.766 L 2422.18 870.766 Q 2421.816 871.133 2421.715 872.047 L 2421.715 872.047 L 2418.684 871.672 L 2418.684 871.672 Q 2418.84 870 2419.898 868.98 L 2419.898 868.98 L 2419.898 868.98 Q 2420.957 867.961 2423.145 867.961 L 2423.145 867.961 L 2423.145 867.961 Q 2424.848 867.961 2425.895 868.672 L 2425.895 868.672 L 2425.895 868.672 Q 2427.316 869.633 2427.316 871.234 L 2427.316 871.234 L 2427.316 871.234 Q 2427.316 871.898 2426.949 872.516 L 2426.949 872.516 L 2426.949 872.516 Q 2426.582 873.133 2425.449 874.023 L 2425.449 874.023 L 2425.449 874.023 Q 2424.66 874.648 2424.453 875.027 L 2424.453 875.027 L 2424.453 875.027 Q 2424.246 875.406 2424.246 876.016 Z  M 2421.176 879.609 L 2421.176 876.805 L 2424.355 876.805 L 2424.355 879.609 L 2421.176 879.609 Z " id="Fill-A" fill="rgb(215,215,215)"/></g></svg>