<?xml version="1.0" encoding="UTF-8" standalone="no"?><!-- Generator: Gravit.io --><svg xmlns="http://www.w3.org/2000/svg" xmlns:xlink="http://www.w3.org/1999/xlink" style="isolation:isolate" viewBox="1545 1123 24 24" width="24" height="24"><g id="hide"><g opacity="0"><rect x="1545" y="1123" width="24" height="24" transform="matrix(1,0,0,1,0,0)" id="Icon Background" fill="rgb(37,86,132)"/></g><path d=" M 1556.383 1134.499 C 1556.145 1134.765 1556 1135.115 1556 1135.5 C 1556 1136.328 1556.672 1137 1557.5 1137 C 1557.606 1137 1557.709 1136.989 1557.809 1136.968 L 1558.831 1138.738 L 1558.831 1138.738 C 1558.42 1138.907 1557.971 1139 1557.5 1139 C 1555.568 1139 1554 1137.432 1554 1135.5 L 1554 1135.5 C 1554 1134.373 1554.534 1133.37 1555.362 1132.73 L 1555.362 1132.73 L 1556.383 1134.499 Z  M 1556.156 1130.105 Q 1556.814 1130 1557.5 1130 Q 1562.461 1130 1566 1135.5 Q 1564.039 1138.431 1561.754 1139.8 L 1560.401 1137.458 C 1560.779 1136.899 1561 1136.225 1561 1135.5 C 1561 1133.568 1559.432 1132 1557.5 1132 C 1557.418 1132 1557.336 1132.003 1557.255 1132.008 L 1556.156 1130.105 L 1556.156 1130.105 L 1556.156 1130.105 Z  M 1555.135 1130.336 L 1555.135 1130.336 L 1556.232 1132.237 L 1556.232 1132.237 L 1559.691 1138.229 L 1559.691 1138.229 L 1560.376 1139.414 L 1560.868 1140.267 L 1560.868 1140.267 L 1562.366 1142.861 L 1561.5 1143.361 L 1559.923 1140.63 Q 1558.75 1141 1557.5 1141 Q 1552.68 1141 1549 1135.5 L 1549 1135.5 Q 1551.292 1131.938 1554.18 1130.683 L 1553 1128.639 L 1553.866 1128.139 L 1555.135 1130.336 L 1555.135 1130.336 Z " fill-rule="evenodd" id="Fill-B" fill="rgb(161,161,161)"/></g></svg>