<?xml version="1.0" encoding="UTF-8" standalone="no"?><!-- Generator: Gravit.io --><svg xmlns="http://www.w3.org/2000/svg" xmlns:xlink="http://www.w3.org/1999/xlink" style="isolation:isolate" viewBox="1717 133 24 24" width="24" height="24"><g id="image"><g opacity="0"><rect x="1717" y="133" width="24" height="24" transform="matrix(1,0,0,1,0,0)" id="Icon Background" fill="rgb(37,86,132)"/></g><path d=" M 1737 150.73 L 1732.02 146.59 C 1731.84 146.45 1731.62 146.37 1731.39 146.38 C 1731.21 146.37 1731.02 146.42 1730.87 146.52 L 1730.173 146.987 L 1736.091 151.996 C 1736.6 151.95 1737 151.521 1737 151 L 1737 150.73 L 1737 150.73 L 1737 150.73 Z  M 1734.336 152 L 1724.63 143.91 C 1724.59 143.88 1724.55 143.87 1724.5 143.87 C 1724.45 143.87 1724.41 143.88 1724.37 143.91 L 1721 146.809 L 1721 146.809 L 1721 151 C 1721 151.552 1721.448 152 1722 152 L 1734.336 152 L 1734.336 152 L 1734.336 152 Z  M 1738 150.45 C 1738.002 150.478 1738.002 150.506 1738 150.533 L 1738 151 C 1738 152.104 1737.104 153 1736 153 L 1722 153 C 1720.896 153 1720 152.104 1720 151 L 1720 140 C 1720 138.896 1720.896 138 1722 138 L 1722 138 L 1722 138 L 1736 138 C 1737.104 138 1738 138.896 1738 140 L 1738 150.45 L 1738 150.45 Z  M 1732 142 C 1732 141.448 1732.448 141 1733 141 C 1733.552 141 1734 141.448 1734 142 C 1734 142.552 1733.552 143 1733 143 C 1732.448 143 1732 142.552 1732 142 L 1732 142 Z  M 1731 142 C 1731 141.47 1731.21 140.96 1731.59 140.59 C 1731.96 140.21 1732.47 140 1733 140 C 1733.53 140 1734.04 140.21 1734.41 140.59 C 1734.79 140.96 1735 141.47 1735 142 C 1735 142.53 1734.79 143.04 1734.41 143.41 C 1734.04 143.79 1733.53 144 1733 144 C 1732.47 144 1731.96 143.79 1731.59 143.41 C 1731.21 143.04 1731 142.53 1731 142 L 1731 142 Z " fill-rule="evenodd" id="Fill-B" fill="rgb(153,153,153)"/></g></svg>