<?xml version="1.0" encoding="UTF-8" standalone="no"?><!-- Generator: Gravit.io --><svg xmlns="http://www.w3.org/2000/svg" xmlns:xlink="http://www.w3.org/1999/xlink" style="isolation:isolate" viewBox="1150 3312 24 24" width="24" height="24"><g id="image-small"><g opacity="0"><rect x="1150" y="3312" width="24" height="24" transform="matrix(1,0,0,1,0,0)" id="Icon Background" fill="rgb(37,86,132)"/></g><path d=" M 1167 3331 L 1158.63 3322.91 C 1158.59 3322.88 1158.55 3322.87 1158.5 3322.87 C 1158.45 3322.87 1158.41 3322.88 1158.37 3322.91 L 1155 3325.809 L 1155 3325.809 L 1155 3330 C 1155 3330.552 1155.448 3331 1156 3331 L 1167 3331 L 1167 3331 Z  M 1165 3320 C 1165 3319.448 1165.448 3319 1166 3319 C 1166.552 3319 1167 3319.448 1167 3320 C 1167 3320.552 1166.552 3321 1166 3321 C 1165.448 3321 1165 3320.552 1165 3320 L 1165 3320 L 1165 3320 Z  M 1164 3320 C 1164 3319.47 1164.21 3318.96 1164.59 3318.59 C 1164.96 3318.21 1165.47 3318 1166 3318 C 1166.53 3318 1167.04 3318.21 1167.41 3318.59 C 1167.79 3318.96 1168 3319.47 1168 3320 C 1168 3320.53 1167.79 3321.04 1167.41 3321.41 C 1167.04 3321.79 1166.53 3322 1166 3322 C 1165.47 3322 1164.96 3321.79 1164.59 3321.41 C 1164.21 3321.04 1164 3320.53 1164 3320 L 1164 3320 L 1164 3320 Z  M 1170 3330 C 1170 3331.104 1169.104 3332 1168 3332 L 1156 3332 C 1154.896 3332 1154 3331.104 1154 3330 L 1154 3318 C 1154 3316.896 1154.896 3316 1156 3316 L 1156 3316 L 1156 3316 L 1168 3316 C 1169.104 3316 1170 3316.896 1170 3318 L 1170 3330 L 1170 3330 Z  M 1163.077 3324.361 L 1168.596 3329.881 C 1168.791 3330.076 1168.791 3330.393 1168.596 3330.588 L 1168.596 3330.588 C 1168.401 3330.783 1168.084 3330.783 1167.889 3330.588 L 1162.37 3325.068 C 1162.174 3324.873 1162.174 3324.556 1162.37 3324.361 L 1162.37 3324.361 C 1162.565 3324.166 1162.882 3324.166 1163.077 3324.361 Z " fill-rule="evenodd" id="Fill-B" fill="rgb(161,161,161)"/></g></svg>