<?xml version="1.0" encoding="UTF-8" standalone="no"?><!-- Generator: Gravit.io --><svg xmlns="http://www.w3.org/2000/svg" xmlns:xlink="http://www.w3.org/1999/xlink" style="isolation:isolate" viewBox="778 1395 24 24" width="24" height="24"><g id="intersect"><g opacity="0"><rect x="778" y="1395" width="24" height="24" transform="matrix(1,0,0,1,0,0)" id="Icon Background" fill="rgb(37,86,132)"/></g><path d=" M 796.986 1404 C 796.995 1404.165 797 1404.332 797 1404.5 L 797 1404.5 C 797 1409.191 793.191 1413 788.5 1413 L 788.5 1413 C 788.332 1413 788.165 1412.995 788 1412.985 L 788 1404 L 796.986 1404 Z  M 798.5 1416 L 798.5 1416 C 798.776 1416 799 1416.224 799 1416.5 L 799 1416.5 C 799 1416.776 798.776 1417 798.5 1417 L 798.5 1417 C 798.224 1417 798 1416.776 798 1416.5 L 798 1416.5 C 798 1416.224 798.224 1416 798.5 1416 L 798.5 1416 L 798.5 1416 L 798.5 1416 L 798.5 1416 L 798.5 1416 L 798.5 1416 L 798.5 1416 L 798.5 1416 L 798.5 1416 Z  M 792.5 1416 L 792.5 1416 C 792.776 1416 793 1416.224 793 1416.5 L 793 1416.5 C 793 1416.776 792.776 1417 792.5 1417 L 792.5 1417 C 792.224 1417 792 1416.776 792 1416.5 L 792 1416.5 C 792 1416.224 792.224 1416 792.5 1416 L 792.5 1416 L 792.5 1416 L 792.5 1416 L 792.5 1416 L 792.5 1416 L 792.5 1416 L 792.5 1416 L 792.5 1416 L 792.5 1416 L 792.5 1416 L 792.5 1416 L 792.5 1416 L 792.5 1416 L 792.5 1416 L 792.5 1416 Z  M 788.5 1416 L 788.5 1416 C 788.776 1416 789 1416.224 789 1416.5 L 789 1416.5 C 789 1416.776 788.776 1417 788.5 1417 L 788.5 1417 C 788.224 1417 788 1416.776 788 1416.5 L 788 1416.5 C 788 1416.224 788.224 1416 788.5 1416 L 788.5 1416 L 788.5 1416 L 788.5 1416 L 788.5 1416 L 788.5 1416 L 788.5 1416 L 788.5 1416 L 788.5 1416 L 788.5 1416 L 788.5 1416 L 788.5 1416 L 788.5 1416 L 788.5 1416 L 788.5 1416 L 788.5 1416 L 788.5 1416 L 788.5 1416 L 788.5 1416 L 788.5 1416 Z  M 790.5 1416 L 790.5 1416 C 790.776 1416 791 1416.224 791 1416.5 L 791 1416.5 C 791 1416.776 790.776 1417 790.5 1417 L 790.5 1417 C 790.224 1417 790 1416.776 790 1416.5 L 790 1416.5 C 790 1416.224 790.224 1416 790.5 1416 L 790.5 1416 L 790.5 1416 L 790.5 1416 L 790.5 1416 L 790.5 1416 L 790.5 1416 L 790.5 1416 L 790.5 1416 L 790.5 1416 L 790.5 1416 L 790.5 1416 L 790.5 1416 L 790.5 1416 L 790.5 1416 L 790.5 1416 L 790.5 1416 L 790.5 1416 Z  M 794.5 1416 L 794.5 1416 C 794.776 1416 795 1416.224 795 1416.5 L 795 1416.5 C 795 1416.776 794.776 1417 794.5 1417 L 794.5 1417 C 794.224 1417 794 1416.776 794 1416.5 L 794 1416.5 C 794 1416.224 794.224 1416 794.5 1416 L 794.5 1416 L 794.5 1416 L 794.5 1416 L 794.5 1416 L 794.5 1416 L 794.5 1416 L 794.5 1416 L 794.5 1416 L 794.5 1416 L 794.5 1416 L 794.5 1416 L 794.5 1416 L 794.5 1416 Z  M 796.5 1416 L 796.5 1416 C 796.776 1416 797 1416.224 797 1416.5 L 797 1416.5 C 797 1416.776 796.776 1417 796.5 1417 L 796.5 1417 C 796.224 1417 796 1416.776 796 1416.5 L 796 1416.5 C 796 1416.224 796.224 1416 796.5 1416 L 796.5 1416 L 796.5 1416 L 796.5 1416 L 796.5 1416 L 796.5 1416 L 796.5 1416 L 796.5 1416 L 796.5 1416 L 796.5 1416 L 796.5 1416 L 796.5 1416 Z  M 798.5 1404 L 798.5 1404 C 798.776 1404 799 1404.224 799 1404.5 L 799 1404.5 C 799 1404.776 798.776 1405 798.5 1405 L 798.5 1405 C 798.224 1405 798 1404.776 798 1404.5 L 798 1404.5 C 798 1404.224 798.224 1404 798.5 1404 L 798.5 1404 L 798.5 1404 L 798.5 1404 L 798.5 1404 L 798.5 1404 L 798.5 1404 L 798.5 1404 L 798.5 1404 L 798.5 1404 L 798.5 1404 Z  M 788.5 1414 L 788.5 1414 C 788.776 1414 789 1414.224 789 1414.5 L 789 1414.5 C 789 1414.776 788.776 1415 788.5 1415 L 788.5 1415 C 788.224 1415 788 1414.776 788 1414.5 L 788 1414.5 C 788 1414.224 788.224 1414 788.5 1414 L 788.5 1414 L 788.5 1414 L 788.5 1414 L 788.5 1414 L 788.5 1414 L 788.5 1414 L 788.5 1414 L 788.5 1414 L 788.5 1414 L 788.5 1414 L 788.5 1414 L 788.5 1414 L 788.5 1414 L 788.5 1414 L 788.5 1414 L 788.5 1414 L 788.5 1414 L 788.5 1414 L 788.5 1414 L 788.5 1414 Z  M 800.5 1404 L 800.5 1404 C 800.776 1404 801 1404.224 801 1404.5 L 801 1404.5 C 801 1404.776 800.776 1405 800.5 1405 L 800.5 1405 C 800.224 1405 800 1404.776 800 1404.5 L 800 1404.5 C 800 1404.224 800.224 1404 800.5 1404 L 800.5 1404 L 800.5 1404 L 800.5 1404 L 800.5 1404 L 800.5 1404 L 800.5 1404 L 800.5 1404 L 800.5 1404 Z  M 800.5 1406 L 800.5 1406 C 800.776 1406 801 1406.224 801 1406.5 L 801 1406.5 C 801 1406.776 800.776 1407 800.5 1407 L 800.5 1407 C 800.224 1407 800 1406.776 800 1406.5 L 800 1406.5 C 800 1406.224 800.224 1406 800.5 1406 L 800.5 1406 L 800.5 1406 L 800.5 1406 L 800.5 1406 L 800.5 1406 L 800.5 1406 L 800.5 1406 Z  M 800.5 1408 L 800.5 1408 C 800.776 1408 801 1408.224 801 1408.5 L 801 1408.5 C 801 1408.776 800.776 1409 800.5 1409 L 800.5 1409 C 800.224 1409 800 1408.776 800 1408.5 L 800 1408.5 C 800 1408.224 800.224 1408 800.5 1408 L 800.5 1408 L 800.5 1408 L 800.5 1408 L 800.5 1408 L 800.5 1408 L 800.5 1408 Z  M 800.5 1410 L 800.5 1410 C 800.776 1410 801 1410.224 801 1410.5 L 801 1410.5 C 801 1410.776 800.776 1411 800.5 1411 L 800.5 1411 C 800.224 1411 800 1410.776 800 1410.5 L 800 1410.5 C 800 1410.224 800.224 1410 800.5 1410 L 800.5 1410 L 800.5 1410 L 800.5 1410 L 800.5 1410 L 800.5 1410 Z  M 800.5 1412 L 800.5 1412 C 800.776 1412 801 1412.224 801 1412.5 L 801 1412.5 C 801 1412.776 800.776 1413 800.5 1413 L 800.5 1413 C 800.224 1413 800 1412.776 800 1412.5 L 800 1412.5 C 800 1412.224 800.224 1412 800.5 1412 L 800.5 1412 L 800.5 1412 L 800.5 1412 L 800.5 1412 Z  M 800.5 1414 L 800.5 1414 C 800.776 1414 801 1414.224 801 1414.5 L 801 1414.5 C 801 1414.776 800.776 1415 800.5 1415 L 800.5 1415 C 800.224 1415 800 1414.776 800 1414.5 L 800 1414.5 C 800 1414.224 800.224 1414 800.5 1414 L 800.5 1414 L 800.5 1414 L 800.5 1414 Z  M 800.5 1416 L 800.5 1416 C 800.776 1416 801 1416.224 801 1416.5 L 801 1416.5 C 801 1416.776 800.776 1417 800.5 1417 L 800.5 1417 C 800.224 1417 800 1416.776 800 1416.5 L 800 1416.5 C 800 1416.224 800.224 1416 800.5 1416 L 800.5 1416 L 800.5 1416 Z  M 785.999 1397.049 L 785.999 1397.049 C 785.849 1396.818 785.915 1396.508 786.146 1396.357 L 786.146 1396.357 C 786.377 1396.207 786.687 1396.273 786.838 1396.504 L 786.838 1396.504 C 786.988 1396.736 786.922 1397.046 786.691 1397.196 L 786.691 1397.196 C 786.459 1397.346 786.149 1397.28 785.999 1397.049 L 785.999 1397.049 L 785.999 1397.049 L 785.999 1397.049 L 785.999 1397.049 L 785.999 1397.049 L 785.999 1397.049 L 785.999 1397.049 L 785.999 1397.049 L 785.999 1397.049 L 785.999 1397.049 L 785.999 1397.049 L 785.999 1397.049 L 785.999 1397.049 L 785.999 1397.049 L 785.999 1397.049 L 785.999 1397.049 L 785.999 1397.049 L 785.999 1397.049 Z  M 781.459 1400.991 L 781.459 1400.991 C 781.189 1400.934 781.017 1400.668 781.074 1400.398 L 781.074 1400.398 C 781.131 1400.128 781.397 1399.956 781.667 1400.013 L 781.667 1400.013 C 781.937 1400.07 782.11 1400.336 782.052 1400.606 L 782.052 1400.606 C 781.995 1400.876 781.729 1401.049 781.459 1400.991 L 781.459 1400.991 L 781.459 1400.991 L 781.459 1400.991 L 781.459 1400.991 L 781.459 1400.991 L 781.459 1400.991 L 781.459 1400.991 L 781.459 1400.991 L 781.459 1400.991 L 781.459 1400.991 L 781.459 1400.991 L 781.459 1400.991 L 781.459 1400.991 L 781.459 1400.991 L 781.459 1400.991 Z  M 795.041 1400.168 L 795.041 1400.168 C 795.225 1399.963 795.542 1399.946 795.747 1400.131 L 795.747 1400.131 C 795.952 1400.315 795.969 1400.632 795.784 1400.837 L 795.784 1400.837 C 795.599 1401.042 795.283 1401.058 795.078 1400.874 L 795.078 1400.874 C 794.873 1400.689 794.856 1400.373 795.041 1400.168 L 795.041 1400.168 L 795.041 1400.168 L 795.041 1400.168 L 795.041 1400.168 L 795.041 1400.168 L 795.041 1400.168 L 795.041 1400.168 L 795.041 1400.168 L 795.041 1400.168 L 795.041 1400.168 L 795.041 1400.168 L 795.041 1400.168 L 795.041 1400.168 L 795.041 1400.168 L 795.041 1400.168 L 795.041 1400.168 L 795.041 1400.168 L 795.041 1400.168 L 795.041 1400.168 L 795.041 1400.168 L 795.041 1400.168 L 795.041 1400.168 L 795.041 1400.168 Z  M 793.696 1398.619 L 793.696 1398.619 C 793.822 1398.373 794.123 1398.275 794.369 1398.401 L 794.369 1398.401 C 794.615 1398.526 794.713 1398.827 794.587 1399.073 L 794.587 1399.073 C 794.462 1399.319 794.161 1399.417 793.915 1399.292 L 793.915 1399.292 C 793.669 1399.166 793.571 1398.865 793.696 1398.619 L 793.696 1398.619 L 793.696 1398.619 L 793.696 1398.619 L 793.696 1398.619 L 793.696 1398.619 L 793.696 1398.619 L 793.696 1398.619 L 793.696 1398.619 L 793.696 1398.619 L 793.696 1398.619 L 793.696 1398.619 L 793.696 1398.619 L 793.696 1398.619 L 793.696 1398.619 L 793.696 1398.619 L 793.696 1398.619 L 793.696 1398.619 L 793.696 1398.619 L 793.696 1398.619 L 793.696 1398.619 L 793.696 1398.619 L 793.696 1398.619 Z  M 791.997 1397.471 L 791.997 1397.471 C 792.054 1397.202 792.32 1397.029 792.59 1397.086 L 792.59 1397.086 C 792.86 1397.144 793.032 1397.409 792.975 1397.679 L 792.975 1397.679 C 792.917 1397.949 792.652 1398.122 792.382 1398.065 L 792.382 1398.065 C 792.112 1398.007 791.939 1397.741 791.997 1397.471 L 791.997 1397.471 L 791.997 1397.471 L 791.997 1397.471 L 791.997 1397.471 L 791.997 1397.471 L 791.997 1397.471 L 791.997 1397.471 L 791.997 1397.471 L 791.997 1397.471 L 791.997 1397.471 L 791.997 1397.471 L 791.997 1397.471 L 791.997 1397.471 L 791.997 1397.471 L 791.997 1397.471 L 791.997 1397.471 L 791.997 1397.471 L 791.997 1397.471 L 791.997 1397.471 L 791.997 1397.471 L 791.997 1397.471 Z  M 795.939 1402.011 L 795.939 1402.011 C 796.17 1401.861 796.48 1401.927 796.63 1402.158 L 796.63 1402.158 C 796.781 1402.39 796.715 1402.7 796.484 1402.85 L 796.484 1402.85 C 796.252 1403 795.942 1402.934 795.792 1402.703 L 795.792 1402.703 C 795.642 1402.471 795.707 1402.162 795.939 1402.011 L 795.939 1402.011 L 795.939 1402.011 L 795.939 1402.011 L 795.939 1402.011 L 795.939 1402.011 L 795.939 1402.011 L 795.939 1402.011 L 795.939 1402.011 L 795.939 1402.011 L 795.939 1402.011 L 795.939 1402.011 L 795.939 1402.011 L 795.939 1402.011 L 795.939 1402.011 L 795.939 1402.011 L 795.939 1402.011 L 795.939 1402.011 L 795.939 1402.011 L 795.939 1402.011 L 795.939 1402.011 L 795.939 1402.011 L 795.939 1402.011 L 795.939 1402.011 L 795.939 1402.011 Z  M 790.058 1396.803 L 790.058 1396.803 C 790.043 1396.527 790.255 1396.292 790.531 1396.277 L 790.531 1396.277 C 790.807 1396.263 791.042 1396.475 791.057 1396.75 L 791.057 1396.75 C 791.071 1397.026 790.859 1397.261 790.583 1397.276 L 790.583 1397.276 C 790.308 1397.29 790.072 1397.078 790.058 1396.803 L 790.058 1396.803 L 790.058 1396.803 L 790.058 1396.803 L 790.058 1396.803 L 790.058 1396.803 L 790.058 1396.803 L 790.058 1396.803 L 790.058 1396.803 L 790.058 1396.803 L 790.058 1396.803 L 790.058 1396.803 L 790.058 1396.803 L 790.058 1396.803 L 790.058 1396.803 L 790.058 1396.803 L 790.058 1396.803 L 790.058 1396.803 L 790.058 1396.803 L 790.058 1396.803 L 790.058 1396.803 Z  M 788.012 1396.659 L 788.012 1396.659 C 787.927 1396.396 788.071 1396.114 788.333 1396.029 L 788.333 1396.029 C 788.596 1395.943 788.878 1396.087 788.963 1396.35 L 788.963 1396.35 C 789.049 1396.612 788.905 1396.895 788.642 1396.98 L 788.642 1396.98 C 788.38 1397.065 788.098 1396.921 788.012 1396.659 L 788.012 1396.659 L 788.012 1396.659 L 788.012 1396.659 L 788.012 1396.659 L 788.012 1396.659 L 788.012 1396.659 L 788.012 1396.659 L 788.012 1396.659 L 788.012 1396.659 L 788.012 1396.659 L 788.012 1396.659 L 788.012 1396.659 L 788.012 1396.659 L 788.012 1396.659 L 788.012 1396.659 L 788.012 1396.659 L 788.012 1396.659 L 788.012 1396.659 L 788.012 1396.659 Z  M 780.791 1402.93 L 780.791 1402.93 C 780.515 1402.944 780.279 1402.732 780.265 1402.457 L 780.265 1402.457 C 780.251 1402.181 780.463 1401.946 780.738 1401.931 L 780.738 1401.931 C 781.014 1401.917 781.249 1402.129 781.264 1402.404 L 781.264 1402.404 C 781.278 1402.68 781.066 1402.916 780.791 1402.93 L 780.791 1402.93 L 780.791 1402.93 L 780.791 1402.93 L 780.791 1402.93 L 780.791 1402.93 L 780.791 1402.93 L 780.791 1402.93 L 780.791 1402.93 L 780.791 1402.93 L 780.791 1402.93 L 780.791 1402.93 L 780.791 1402.93 L 780.791 1402.93 L 780.791 1402.93 Z  M 784.155 1397.947 L 784.155 1397.947 C 783.95 1397.762 783.934 1397.446 784.118 1397.241 L 784.118 1397.241 C 784.303 1397.036 784.619 1397.019 784.824 1397.204 L 784.824 1397.204 C 785.029 1397.389 785.046 1397.705 784.861 1397.91 L 784.861 1397.91 C 784.677 1398.115 784.36 1398.132 784.155 1397.947 L 784.155 1397.947 L 784.155 1397.947 L 784.155 1397.947 L 784.155 1397.947 L 784.155 1397.947 L 784.155 1397.947 L 784.155 1397.947 L 784.155 1397.947 L 784.155 1397.947 L 784.155 1397.947 L 784.155 1397.947 L 784.155 1397.947 L 784.155 1397.947 L 784.155 1397.947 L 784.155 1397.947 L 784.155 1397.947 L 784.155 1397.947 Z  M 782.607 1399.292 L 782.607 1399.292 C 782.361 1399.166 782.263 1398.865 782.388 1398.619 L 782.388 1398.619 C 782.514 1398.373 782.815 1398.275 783.061 1398.401 L 783.061 1398.401 C 783.307 1398.526 783.405 1398.827 783.279 1399.073 L 783.279 1399.073 C 783.154 1399.319 782.853 1399.417 782.607 1399.292 L 782.607 1399.292 L 782.607 1399.292 L 782.607 1399.292 L 782.607 1399.292 L 782.607 1399.292 L 782.607 1399.292 L 782.607 1399.292 L 782.607 1399.292 L 782.607 1399.292 L 782.607 1399.292 L 782.607 1399.292 L 782.607 1399.292 L 782.607 1399.292 L 782.607 1399.292 L 782.607 1399.292 L 782.607 1399.292 Z  M 780.337 1404.025 L 780.337 1404.025 C 780.6 1403.939 780.882 1404.083 780.967 1404.346 L 780.967 1404.346 C 781.053 1404.608 780.909 1404.89 780.646 1404.976 L 780.646 1404.976 C 780.384 1405.061 780.102 1404.917 780.016 1404.655 L 780.016 1404.655 C 779.931 1404.392 780.075 1404.11 780.337 1404.025 L 780.337 1404.025 L 780.337 1404.025 L 780.337 1404.025 L 780.337 1404.025 L 780.337 1404.025 L 780.337 1404.025 L 780.337 1404.025 L 780.337 1404.025 L 780.337 1404.025 L 780.337 1404.025 L 780.337 1404.025 L 780.337 1404.025 L 780.337 1404.025 Z  M 780.492 1406.15 L 780.492 1406.15 C 780.724 1406 781.033 1406.066 781.184 1406.297 L 781.184 1406.297 C 781.334 1406.529 781.268 1406.839 781.037 1406.989 L 781.037 1406.989 C 780.805 1407.139 780.495 1407.073 780.345 1406.842 L 780.345 1406.842 C 780.195 1406.61 780.261 1406.301 780.492 1406.15 L 780.492 1406.15 L 780.492 1406.15 L 780.492 1406.15 L 780.492 1406.15 L 780.492 1406.15 L 780.492 1406.15 L 780.492 1406.15 L 780.492 1406.15 L 780.492 1406.15 L 780.492 1406.15 L 780.492 1406.15 L 780.492 1406.15 Z  M 781.192 1408.163 L 781.192 1408.163 C 781.376 1407.958 781.693 1407.942 781.898 1408.126 L 781.898 1408.126 C 782.103 1408.311 782.119 1408.627 781.935 1408.833 L 781.935 1408.833 C 781.75 1409.038 781.434 1409.054 781.229 1408.87 L 781.229 1408.87 C 781.023 1408.685 781.007 1408.369 781.192 1408.163 L 781.192 1408.163 L 781.192 1408.163 L 781.192 1408.163 L 781.192 1408.163 L 781.192 1408.163 L 781.192 1408.163 L 781.192 1408.163 L 781.192 1408.163 L 781.192 1408.163 L 781.192 1408.163 L 781.192 1408.163 Z  M 782.388 1409.927 L 782.388 1409.927 C 782.514 1409.681 782.815 1409.583 783.061 1409.709 L 783.061 1409.709 C 783.307 1409.834 783.405 1410.135 783.279 1410.381 L 783.279 1410.381 C 783.154 1410.627 782.853 1410.725 782.607 1410.599 L 782.607 1410.599 C 782.361 1410.474 782.263 1410.173 782.388 1409.927 L 782.388 1409.927 L 782.388 1409.927 L 782.388 1409.927 L 782.388 1409.927 L 782.388 1409.927 L 782.388 1409.927 L 782.388 1409.927 L 782.388 1409.927 L 782.388 1409.927 L 782.388 1409.927 Z  M 784.001 1411.321 L 784.001 1411.321 C 784.058 1411.051 784.324 1410.878 784.594 1410.936 L 784.594 1410.936 C 784.864 1410.993 785.036 1411.259 784.979 1411.529 L 784.979 1411.529 C 784.922 1411.799 784.656 1411.971 784.386 1411.914 L 784.386 1411.914 C 784.116 1411.856 783.943 1411.591 784.001 1411.321 L 784.001 1411.321 L 784.001 1411.321 L 784.001 1411.321 L 784.001 1411.321 L 784.001 1411.321 L 784.001 1411.321 L 784.001 1411.321 L 784.001 1411.321 L 784.001 1411.321 Z  M 785.919 1412.25 L 785.919 1412.25 C 785.905 1411.974 786.117 1411.739 786.392 1411.724 L 786.392 1411.724 C 786.668 1411.71 786.903 1411.922 786.918 1412.197 L 786.918 1412.197 C 786.932 1412.473 786.72 1412.708 786.444 1412.723 L 786.444 1412.723 C 786.169 1412.737 785.933 1412.525 785.919 1412.25 L 785.919 1412.25 L 785.919 1412.25 L 785.919 1412.25 L 785.919 1412.25 L 785.919 1412.25 L 785.919 1412.25 L 785.919 1412.25 L 785.919 1412.25 Z " fill-rule="evenodd" id="Fill-B" fill="rgb(161,161,161)"/></g></svg>