<?xml version="1.0" encoding="UTF-8" standalone="no"?><!-- Generator: Gravit.io --><svg xmlns="http://www.w3.org/2000/svg" xmlns:xlink="http://www.w3.org/1999/xlink" style="isolation:isolate" viewBox="1150 1189 24 24" width="24" height="24"><g id="italic-text"><g opacity="0"><rect x="1150" y="1189" width="24" height="24" transform="matrix(1,0,0,1,0,0)" id="Icon Background" fill="rgb(37,86,132)"/></g><path d=" M 1163.416 1207.452 L 1163.416 1207.452 Q 1163.2 1208.364 1163.2 1208.628 L 1163.2 1208.628 L 1163.2 1208.628 Q 1163.2 1209.132 1163.548 1209.3 L 1163.548 1209.3 L 1163.548 1209.3 Q 1163.896 1209.468 1164.832 1209.516 L 1164.832 1209.516 L 1164.736 1209.996 L 1164.736 1209.996 Q 1163.2 1209.924 1160.248 1209.924 L 1160.248 1209.924 L 1160.248 1209.924 Q 1157.416 1209.924 1156 1209.996 L 1156 1209.996 L 1156.12 1209.516 L 1156.12 1209.516 Q 1156.96 1209.468 1157.38 1209.324 L 1157.38 1209.324 L 1157.38 1209.324 Q 1157.8 1209.18 1158.052 1208.76 L 1158.052 1208.76 L 1158.052 1208.76 Q 1158.304 1208.34 1158.544 1207.452 L 1158.544 1207.452 L 1161.712 1195.548 L 1161.712 1195.548 Q 1161.904 1194.732 1161.904 1194.396 L 1161.904 1194.396 L 1161.904 1194.396 Q 1161.904 1193.868 1161.556 1193.7 L 1161.556 1193.7 L 1161.556 1193.7 Q 1161.208 1193.532 1160.296 1193.484 L 1160.296 1193.484 L 1160.416 1193.004 L 1160.416 1193.004 Q 1161.76 1193.076 1164.664 1193.076 L 1164.664 1193.076 L 1164.664 1193.076 Q 1167.376 1193.076 1169.176 1193.004 L 1169.176 1193.004 L 1169.056 1193.484 L 1169.056 1193.484 Q 1168.168 1193.532 1167.748 1193.676 L 1167.748 1193.676 L 1167.748 1193.676 Q 1167.328 1193.82 1167.076 1194.228 L 1167.076 1194.228 L 1167.076 1194.228 Q 1166.824 1194.636 1166.584 1195.548 L 1166.584 1195.548 L 1163.416 1207.452 Z " id="Fill-B" fill="rgb(161,161,161)"/></g></svg>