<?xml version="1.0" encoding="UTF-8" standalone="no"?><!-- Generator: Gravit.io --><svg xmlns="http://www.w3.org/2000/svg" xmlns:xlink="http://www.w3.org/1999/xlink" style="isolation:isolate" viewBox="1978 1585 24 24" width="24" height="24"><g id="joints-connector"><g opacity="0"><rect x="1978" y="1585" width="24" height="24" transform="matrix(1,0,0,1,0,0)" id="Icon Background" fill="rgb(37,86,132)"/></g><path d=" M 1989 1591 L 1989 1591 C 1990.656 1591 1992 1592.344 1992 1594 L 1992 1594 C 1992 1595.656 1990.656 1597 1989 1597 L 1989 1597 C 1987.344 1597 1986 1595.656 1986 1594 L 1986 1594 C 1986 1592.344 1987.344 1591 1989 1591 Z " id="Fill-A" fill="rgb(215,215,215)"/><path d=" M 1993 1593.759 C 1992.997 1593.758 1992.994 1593.757 1992.992 1593.755 L 1992.992 1593.755 L 1992.992 1593.755 C 1992.998 1593.836 1993 1593.918 1993 1594 L 1993 1594 L 1993 1594 C 1993 1594.637 1992.851 1595.24 1992.58 1595.773 C 1993.616 1596.194 1994.557 1596.833 1995.36 1597.64 C 1997.05 1599.32 1998 1601.61 1998 1604 L 2000 1604 C 2000 1601.08 1998.84 1598.28 1996.78 1596.22 C 1995.845 1595.285 1994.759 1594.536 1993.576 1594 L 1994 1594 L 1994 1593 L 1993 1593 L 1993 1593.759 L 1993 1593.759 Z  M 1985.126 1593 L 1983.48 1593 L 1979 1593 L 1979 1595 L 1983.48 1595 L 1985.126 1595 C 1985.044 1594.68 1985 1594.345 1985 1594 L 1985 1594 C 1985 1593.655 1985.044 1593.32 1985.126 1593 L 1985.126 1593 L 1985.126 1593 L 1985.126 1593 Z  M 1998 1593 L 1999 1593 L 1999 1594 L 1998 1594 L 1998 1593 L 1998 1593 L 1998 1593 L 1998 1593 Z  M 1997 1592 L 2000 1592 L 2000 1595 L 1997 1595 L 1997 1592 L 1997 1592 L 1997 1592 L 1997 1592 Z  M 1995 1593 L 1996 1593 L 1996 1594 L 1995 1594 L 1995 1593 Z " fill-rule="evenodd" id="Fill-B" fill="rgb(161,161,161)"/></g></svg>