<?xml version="1.0" encoding="UTF-8" standalone="no"?><!-- Generator: Gravit.io --><svg xmlns="http://www.w3.org/2000/svg" xmlns:xlink="http://www.w3.org/1999/xlink" style="isolation:isolate" viewBox="1978 1387 24 24" width="24" height="24"><g id="joints-mirrored"><g opacity="0"><rect x="1978" y="1387" width="24" height="24" transform="matrix(1,0,0,1,0,0)" id="Icon Background" fill="rgb(37,86,132)"/></g><path d=" M 1990 1393 L 1990 1393 C 1991.656 1393 1993 1394.344 1993 1396 L 1993 1396 C 1993 1397.656 1991.656 1399 1990 1399 L 1990 1399 C 1988.344 1399 1987 1397.656 1987 1396 L 1987 1396 C 1987 1394.344 1988.344 1393 1990 1393 Z " id="Fill-A" fill="rgb(215,215,215)"/><path d=" M 1986 1395.759 C 1986.003 1395.758 1986.006 1395.757 1986.008 1395.755 L 1986.008 1395.755 L 1986.008 1395.755 L 1986.008 1395.755 L 1986.008 1395.755 L 1986.008 1395.755 C 1986.002 1395.836 1986 1395.918 1986 1396 L 1986 1396 C 1986 1396.637 1986.149 1397.24 1986.42 1397.773 C 1985.384 1398.194 1984.443 1398.833 1983.64 1399.64 C 1981.95 1401.32 1981 1403.61 1981 1406 L 1979 1406 C 1979 1403.08 1980.16 1400.28 1982.22 1398.22 C 1983.155 1397.286 1984.241 1396.536 1985.424 1396 L 1985 1396 L 1985 1395 L 1986 1395 L 1986 1395.759 L 1986 1395.759 Z  M 1994 1395.759 C 1993.997 1395.758 1993.994 1395.757 1993.992 1395.755 L 1993.992 1395.755 L 1993.992 1395.755 C 1993.998 1395.836 1994 1395.918 1994 1396 L 1994 1396 C 1994 1396.637 1993.851 1397.24 1993.58 1397.773 C 1994.616 1398.194 1995.557 1398.833 1996.36 1399.64 C 1998.05 1401.32 1999 1403.61 1999 1406 L 2001 1406 C 2001 1403.08 1999.84 1400.28 1997.78 1398.22 C 1996.845 1397.286 1995.759 1396.536 1994.576 1396 L 1995 1396 L 1995 1395 L 1994 1395 L 1994 1395.759 L 1994 1395.759 L 1994 1395.759 L 1994 1395.759 L 1994 1395.759 Z  M 1999 1395 L 2000 1395 L 2000 1396 L 1999 1396 L 1999 1395 L 1999 1395 L 1999 1395 L 1999 1395 L 1999 1395 L 1999 1395 L 1999 1395 Z  M 1996 1395 L 1997 1395 L 1997 1396 L 1996 1396 L 1996 1395 L 1996 1395 L 1996 1395 L 1996 1395 Z  M 1981 1395 L 1980 1395 L 1980 1396 L 1981 1396 L 1981 1395 L 1981 1395 L 1981 1395 L 1981 1395 Z  M 1998 1394 L 2001 1394 L 2001 1397 L 1998 1397 L 1998 1394 L 1998 1394 L 1998 1394 L 1998 1394 L 1998 1394 L 1998 1394 L 1998 1394 Z  M 1982 1394 L 1979 1394 L 1979 1397 L 1982 1397 L 1982 1394 L 1982 1394 L 1982 1394 L 1982 1394 Z  M 1984 1395 L 1983 1395 L 1983 1396 L 1984 1396 L 1984 1395 Z " fill-rule="evenodd" id="Fill-B" fill="rgb(161,161,161)"/></g></svg>