<?xml version="1.0" encoding="UTF-8" standalone="no"?><!-- Generator: Gravit.io --><svg xmlns="http://www.w3.org/2000/svg" xmlns:xlink="http://www.w3.org/1999/xlink" style="isolation:isolate" viewBox="1978 1519 24 24" width="24" height="24"><g id="joints-disconnected"><g opacity="0"><rect x="1978" y="1519" width="24" height="24" transform="matrix(1,0,0,1,0,0)" id="Icon Background" fill="rgb(37,86,132)"/></g><path d=" M 1990 1525 L 1990 1525 C 1991.656 1525 1993 1526.344 1993 1528 L 1993 1528 C 1993 1529.656 1991.656 1531 1990 1531 L 1990 1531 C 1988.344 1531 1987 1529.656 1987 1528 L 1987 1528 C 1987 1526.344 1988.344 1525 1990 1525 Z " id="Fill-A" fill="rgb(215,215,215)"/><path d=" M 1992.028 1531.448 L 1999.29 1538.71 L 2000.71 1537.29 L 1993.448 1530.028 C 1993.103 1530.613 1992.613 1531.103 1992.028 1531.448 L 1992.028 1531.448 L 1992.028 1531.448 L 1992.028 1531.448 Z  M 1986.008 1528 C 1984.599 1528.542 1983.306 1529.378 1982.22 1530.464 C 1980.16 1532.525 1979 1535.324 1979 1538.245 L 1981 1538.245 C 1981 1535.854 1981.95 1533.564 1983.64 1531.885 C 1984.443 1531.077 1985.384 1530.439 1986.42 1530.017 C 1986.149 1529.485 1986 1528.882 1986 1528.245 L 1986 1528.245 C 1986 1528.162 1986.002 1528.081 1986.008 1528 L 1986.008 1528 L 1986.008 1528 L 1986.008 1528 Z  M 1981 1527 L 1980 1527 L 1980 1528 L 1981 1528 L 1981 1527 L 1981 1527 L 1981 1527 L 1981 1527 Z  M 1986 1527 L 1985 1527 L 1985 1528 L 1986 1528 L 1986 1527 L 1986 1527 Z  M 1982 1526 L 1979 1526 L 1979 1529 L 1982 1529 L 1982 1526 L 1982 1526 L 1982 1526 L 1982 1526 Z  M 1984 1527 L 1983 1527 L 1983 1528 L 1984 1528 L 1984 1527 Z " fill-rule="evenodd" id="Fill-B" fill="rgb(161,161,161)"/></g></svg>