<?xml version="1.0" encoding="UTF-8" standalone="no"?><!-- Generator: Gravit.io --><svg xmlns="http://www.w3.org/2000/svg" xmlns:xlink="http://www.w3.org/1999/xlink" style="isolation:isolate" viewBox="1978 1651 24 24" width="24" height="24"><g id="joints-auto"><g opacity="0"><rect x="1978" y="1651" width="24" height="24" transform="matrix(1,0,0,1,0,0)" id="Icon Background" fill="rgb(37,86,132)"/></g><path d=" M 1984.637 1660.396 C 1983.757 1660.885 1982.943 1661.497 1982.22 1662.22 C 1980.16 1664.28 1979 1667.08 1979 1670 L 1981 1670 C 1981 1667.61 1981.95 1665.32 1983.64 1663.64 C 1984.368 1662.907 1985.211 1662.314 1986.135 1661.895 L 1984.637 1660.396 L 1984.637 1660.396 L 1984.637 1660.396 L 1984.637 1660.396 L 1984.637 1660.396 L 1984.637 1660.396 L 1984.637 1660.396 Z  M 1995.363 1660.396 C 1996.243 1660.885 1997.057 1661.497 1997.78 1662.22 C 1999.84 1664.28 2001 1667.08 2001 1670 L 1999 1670 C 1999 1667.61 1998.05 1665.32 1996.36 1663.64 C 1995.632 1662.907 1994.789 1662.314 1993.865 1661.895 L 1995.363 1660.396 L 1995.363 1660.396 L 1995.363 1660.396 L 1995.363 1660.396 L 1995.363 1660.396 L 1995.363 1660.396 L 1995.363 1660.396 Z  M 2000 1659 L 2001 1659 L 2001 1660 L 2000 1660 L 2000 1659 L 2000 1659 L 2000 1659 L 2000 1659 L 2000 1659 L 2000 1659 L 2000 1659 Z  M 1995 1659 L 1996 1659 L 1996 1660 L 1995 1660 L 1995 1659 L 1995 1659 L 1995 1659 L 1995 1659 L 1995 1659 Z  M 1997 1659 L 1998 1659 L 1998 1660 L 1997 1660 L 1997 1659 L 1997 1659 L 1997 1659 L 1997 1659 Z  M 1980 1659 L 1979 1659 L 1979 1660 L 1980 1660 L 1980 1659 L 1980 1659 L 1980 1659 L 1980 1659 Z  M 1985 1659 L 1984 1659 L 1984 1660 L 1985 1660 L 1985 1659 L 1985 1659 Z  M 1999 1658 L 2002 1658 L 2002 1661 L 1999 1661 L 1999 1658 L 1999 1658 L 1999 1658 L 1999 1658 L 1999 1658 L 1999 1658 L 1999 1658 Z  M 1981 1658 L 1978 1658 L 1978 1661 L 1981 1661 L 1981 1658 L 1981 1658 L 1981 1658 L 1981 1658 Z  M 1983 1659 L 1982 1659 L 1982 1660 L 1983 1660 L 1983 1659 Z " fill-rule="evenodd" id="Fill-B" fill="rgb(161,161,161)"/><path d=" M 1990 1655.757 L 1994.243 1660 L 1990 1664.243 L 1985.757 1660 L 1990 1655.757 Z  M 1989.475 1669.681 L 1990.538 1669.681 L 1990.323 1668.86 L 1990.323 1668.86 Q 1990.248 1668.587 1990.14 1668.153 L 1990.14 1668.153 L 1990.14 1668.153 Q 1990.032 1667.719 1989.998 1667.531 L 1989.998 1667.531 L 1989.998 1667.531 Q 1989.968 1667.705 1989.877 1668.105 L 1989.877 1668.105 L 1989.877 1668.105 Q 1989.786 1668.505 1989.475 1669.681 L 1989.475 1669.681 L 1989.475 1669.681 Z  M 1992.541 1671.725 L 1991.065 1671.725 L 1990.819 1670.788 L 1989.195 1670.788 L 1988.942 1671.725 L 1987.459 1671.725 L 1989.089 1666.707 L 1990.89 1666.707 L 1992.541 1671.725 L 1992.541 1671.725 Z " fill-rule="evenodd" id="Fill-A" fill="rgb(215,215,215)"/></g></svg>