<?xml version="1.0" encoding="UTF-8" standalone="no"?><!-- Generator: Gravit.io --><svg xmlns="http://www.w3.org/2000/svg" xmlns:xlink="http://www.w3.org/1999/xlink" style="isolation:isolate" viewBox="445 1057 24 24" width="24" height="24"><g id="knife"><g opacity="0"><rect x="445" y="1057" width="24" height="24" transform="matrix(1,0,0,1,0,0)" id="Icon Background" fill="rgb(37,86,132)"/></g><path d=" M 465.022 1077 C 465.152 1077 465.282 1077.05 465.372 1077.15 C 465.472 1077.24 465.522 1077.37 465.522 1077.5 C 465.522 1077.63 465.472 1077.76 465.372 1077.85 C 465.282 1077.95 465.152 1078 465.022 1078 L 452.002 1078 C 453.576 1077.748 454.413 1077.515 456.002 1077 L 465.022 1077 Z " id="Fill-B" fill="rgb(161,161,161)"/><path d=" M 457.75 1067.25 L 447 1078 C 451.563 1078 457.719 1076.031 461 1074 L 461 1074 L 461 1070.5 L 461.002 1070.502 C 461.449 1070.949 462.148 1070.975 462.561 1070.562 L 462.561 1070.562 C 462.975 1070.148 462.949 1069.449 462.502 1069.002 L 462.389 1068.889 L 466 1066 L 466 1059 L 459.25 1065.75 L 458.854 1065.354 C 458.407 1064.907 457.708 1064.88 457.294 1065.294 L 457.294 1065.294 C 456.88 1065.708 456.907 1066.407 457.354 1066.854 L 457.75 1067.25 Z  M 458.13 1068.65 C 458.22 1068.55 458.35 1068.5 458.48 1068.5 C 458.62 1068.5 458.74 1068.55 458.84 1068.65 C 458.93 1068.74 458.98 1068.87 458.98 1069 C 458.98 1069.13 458.93 1069.26 458.84 1069.35 L 452.35 1075.84 C 452.26 1075.93 452.13 1075.98 452 1075.98 C 451.87 1075.98 451.74 1075.93 451.65 1075.84 C 451.55 1075.74 451.5 1075.62 451.5 1075.48 C 451.5 1075.35 451.55 1075.22 451.65 1075.13 L 458.13 1068.65 L 458.13 1068.65 Z " fill-rule="evenodd" id="Fill-A" fill="rgb(215,215,215)"/></g></svg>