<?xml version="1.0" encoding="UTF-8" standalone="no"?><!-- Generator: Gravit.io --><svg xmlns="http://www.w3.org/2000/svg" xmlns:xlink="http://www.w3.org/1999/xlink" style="isolation:isolate" viewBox="2188 2463 24 24" width="24" height="24"><g id="layers-panel"><g opacity="0"><rect x="2188" y="2463" width="24" height="24" transform="matrix(1,0,0,1,0,0)" id="Icon Background" fill="rgb(37,86,132)"/></g><path d=" M 2190 2470.5 L 2200 2476 L 2210 2470.5 L 2200 2465 L 2190 2470.5 Z " id="Fill-A" fill="rgb(215,215,215)"/><path d=" M 2191.49 2473.13 L 2200 2477.86 L 2208.51 2473.13 C 2208.75 2473 2209.02 2472.97 2209.27 2473.04 C 2209.53 2473.11 2209.75 2473.28 2209.87 2473.51 C 2210 2473.75 2210.03 2474.02 2209.96 2474.27 C 2209.89 2474.53 2209.72 2474.75 2209.49 2474.87 L 2200 2480.14 L 2190.51 2474.87 C 2190.28 2474.75 2190.11 2474.53 2190.04 2474.27 C 2189.97 2474.02 2190 2473.75 2190.13 2473.51 C 2190.25 2473.28 2190.47 2473.11 2190.73 2473.04 C 2190.98 2472.97 2191.25 2473 2191.49 2473.13 Z  M 2191.49 2477.13 L 2200 2481.86 L 2208.51 2477.13 C 2208.75 2477 2209.02 2476.97 2209.27 2477.04 C 2209.53 2477.11 2209.75 2477.28 2209.87 2477.51 C 2210 2477.75 2210.03 2478.02 2209.96 2478.27 C 2209.89 2478.53 2209.72 2478.75 2209.49 2478.87 L 2200 2484.14 L 2190.51 2478.87 C 2190.28 2478.75 2190.11 2478.53 2190.04 2478.27 C 2189.97 2478.02 2190 2477.75 2190.13 2477.51 C 2190.25 2477.28 2190.47 2477.11 2190.73 2477.04 C 2190.98 2476.97 2191.25 2477 2191.49 2477.13 Z " fill-rule="evenodd" id="Fill-B" fill="rgb(161,161,161)"/></g></svg>