<?xml version="1.0" encoding="UTF-8" standalone="no"?><!-- Generator: Gravit.io --><svg xmlns="http://www.w3.org/2000/svg" xmlns:xlink="http://www.w3.org/1999/xlink" style="isolation:isolate" viewBox="1150 1791 24 24" width="24" height="24"><g id="ligatures-text"><g opacity="0"><rect x="1150" y="1791" width="24" height="24" transform="matrix(1,0,0,1,0,0)" id="Icon Background" fill="rgb(37,86,132)"/></g><path d=" M 1162.952 1793 L 1162.952 1793 Q 1164.608 1793 1165.496 1793.24 L 1165.496 1793.24 L 1165.496 1793.24 Q 1166.384 1793.48 1167.2 1793.96 L 1167.2 1793.96 L 1167.2 1793.96 Q 1167.632 1794.224 1167.956 1794.728 L 1167.956 1794.728 L 1167.956 1794.728 Q 1168.28 1795.232 1168.28 1795.784 L 1168.28 1795.784 L 1168.28 1795.784 Q 1168.28 1797.824 1165.544 1797.824 L 1165.544 1797.824 L 1165.544 1797.824 Q 1164.2 1797.824 1163.504 1797.308 L 1163.504 1797.308 L 1163.504 1797.308 Q 1162.808 1796.792 1162.808 1795.832 L 1162.808 1795.832 L 1162.808 1795.832 Q 1162.808 1795.064 1163.36 1794.524 L 1163.36 1794.524 L 1163.36 1794.524 Q 1163.912 1793.984 1164.92 1793.744 L 1164.92 1793.744 L 1164.92 1793.744 Q 1164.728 1793.648 1164.32 1793.564 L 1164.32 1793.564 L 1164.32 1793.564 Q 1163.912 1793.48 1163.504 1793.48 L 1163.504 1793.48 L 1163.504 1793.48 Q 1161.584 1793.48 1160.648 1795.208 L 1160.648 1795.208 L 1160.648 1795.208 Q 1160.288 1795.832 1160.144 1796.732 L 1160.144 1796.732 L 1160.144 1796.732 Q 1160 1797.632 1160 1799.336 L 1160 1799.336 L 1162.184 1799.336 L 1162.184 1799.336 Q 1164.416 1799.336 1165.664 1799.276 L 1165.664 1799.276 L 1165.664 1799.276 Q 1166.912 1799.216 1168.088 1799.048 L 1168.088 1799.048 L 1168.088 1809.536 L 1168.088 1809.536 Q 1168.088 1810.52 1168.436 1810.892 L 1168.436 1810.892 L 1168.436 1810.892 Q 1168.784 1811.264 1169.672 1811.264 L 1169.672 1811.264 L 1169.672 1811.768 L 1169.672 1811.768 Q 1166.888 1811.672 1166.048 1811.672 L 1166.048 1811.672 L 1166.048 1811.672 Q 1165.208 1811.672 1162.424 1811.768 L 1162.424 1811.768 L 1162.424 1811.264 L 1162.424 1811.264 Q 1163.168 1811.264 1163.468 1810.892 L 1163.468 1810.892 L 1163.468 1810.892 Q 1163.768 1810.52 1163.768 1809.536 L 1163.768 1809.536 L 1163.768 1801.928 L 1163.768 1801.928 Q 1163.768 1800.824 1163.42 1800.32 L 1163.42 1800.32 L 1163.42 1800.32 Q 1163.072 1799.816 1162.184 1799.816 L 1162.184 1799.816 L 1160 1799.816 L 1160 1809.536 L 1160 1809.536 Q 1160 1810.52 1160.444 1810.892 L 1160.444 1810.892 L 1160.444 1810.892 Q 1160.888 1811.264 1161.824 1811.264 L 1161.824 1811.264 L 1161.824 1811.768 L 1161.176 1811.744 L 1161.176 1811.744 Q 1158.656 1811.672 1157.96 1811.672 L 1157.96 1811.672 L 1157.96 1811.672 Q 1157.144 1811.672 1154.624 1811.744 L 1154.624 1811.744 L 1154.624 1811.744 Q 1154.432 1811.768 1154.096 1811.768 L 1154.096 1811.768 L 1154.096 1811.264 L 1154.096 1811.264 Q 1154.984 1811.264 1155.332 1810.892 L 1155.332 1810.892 L 1155.332 1810.892 Q 1155.68 1810.52 1155.68 1809.536 L 1155.68 1809.536 L 1155.68 1799.816 L 1154 1799.816 L 1154 1799.336 L 1155.68 1799.336 L 1155.68 1799.336 Q 1155.68 1796.552 1157.696 1794.656 L 1157.696 1794.656 L 1157.696 1794.656 Q 1158.584 1793.816 1160 1793.408 L 1160 1793.408 L 1160 1793.408 Q 1161.416 1793 1162.952 1793 L 1162.952 1793 Z " id="Fill-B" fill="rgb(161,161,161)"/></g></svg>