<?xml version="1.0" encoding="UTF-8" standalone="no"?><!-- Generator: Gravit.io --><svg xmlns="http://www.w3.org/2000/svg" xmlns:xlink="http://www.w3.org/1999/xlink" style="isolation:isolate" viewBox="445 461 24 24" width="24" height="24"><g id="line"><g opacity="0"><rect x="445" y="461" width="24" height="24" transform="matrix(1,0,0,1,0,0)" id="Icon Background" fill="rgb(37,86,132)"/></g><path d=" M 464.29 464.29 C 464.48 464.11 464.73 464 465 464 C 465.27 464 465.52 464.11 465.71 464.29 C 465.89 464.48 466 464.73 466 465 C 466 465.27 465.89 465.52 465.71 465.71 L 449.71 481.71 C 449.52 481.89 449.27 482 449 482 C 448.73 482 448.48 481.89 448.29 481.71 C 448.11 481.52 448 481.27 448 481 C 448 480.73 448.11 480.48 448.29 480.29 L 464.29 464.29 Z " id="Fill-B" fill="rgb(161,161,161)"/></g></svg>