<?xml version="1.0" encoding="UTF-8" standalone="no"?><!-- Generator: Gravit.io --><svg xmlns="http://www.w3.org/2000/svg" xmlns:xlink="http://www.w3.org/1999/xlink" style="isolation:isolate" viewBox="1150 2916 24 24" width="24" height="24"><g id="line-small"><g opacity="0"><rect x="1150" y="2916" width="24" height="24" transform="matrix(1,0,0,1,0,0)" id="Icon Background" fill="rgb(37,86,132)"/></g><path d=" M 1168.29 2920.29 C 1168.48 2920.11 1168.73 2920 1169 2920 C 1169.27 2920 1169.52 2920.11 1169.71 2920.29 C 1169.89 2920.48 1170 2920.73 1170 2921 C 1170 2921.27 1169.89 2921.52 1169.71 2921.71 L 1155.71 2935.71 C 1155.52 2935.89 1155.27 2936 1155 2936 C 1154.73 2936 1154.48 2935.89 1154.29 2935.71 C 1154.11 2935.52 1154 2935.27 1154 2935 C 1154 2934.73 1154.11 2934.48 1154.29 2934.29 L 1168.29 2920.29 Z " id="Fill-B" fill="rgb(161,161,161)"/></g></svg>