<?xml version="1.0" encoding="UTF-8" standalone="no"?><!-- Generator: Gravit.io --><svg xmlns="http://www.w3.org/2000/svg" xmlns:xlink="http://www.w3.org/1999/xlink" style="isolation:isolate" viewBox="445 1315 24 24" width="24" height="24"><g id="link-image"><g opacity="0"><rect x="445" y="1315" width="24" height="24" transform="matrix(1,0,0,1,0,0)" id="Icon Background" fill="rgb(37,86,132)"/></g><path d=" M 461 1330.067 L 458.02 1327.59 C 457.84 1327.45 457.62 1327.37 457.39 1327.38 C 457.21 1327.37 457.02 1327.42 456.87 1327.52 L 456.173 1327.987 L 461 1332.072 L 461 1332.072 L 461 1333.977 C 461 1333.984 461 1333.992 461 1334 L 448 1334 C 446.896 1334 446 1333.104 446 1332 L 446 1321 C 446 1319.896 446.896 1319 448 1319 L 448 1319 L 448 1319 L 462 1319 C 463.104 1319 464 1319.896 464 1321 L 464 1324.023 L 464 1324.023 L 463 1324.023 C 461.896 1324.023 461 1324.919 461 1326.023 L 461 1330.067 Z  M 460.336 1333 L 450.63 1324.91 C 450.59 1324.88 450.55 1324.87 450.5 1324.87 C 450.45 1324.87 450.41 1324.88 450.37 1324.91 L 447 1327.809 L 447 1327.809 L 447 1332 C 447 1332.552 447.448 1333 448 1333 L 460.336 1333 L 460.336 1333 L 460.336 1333 L 460.336 1333 Z  M 458 1323 C 458 1322.448 458.448 1322 459 1322 C 459.552 1322 460 1322.448 460 1323 C 460 1323.552 459.552 1324 459 1324 C 458.448 1324 458 1323.552 458 1323 L 458 1323 L 458 1323 Z  M 457 1323 C 457 1322.47 457.21 1321.96 457.59 1321.59 C 457.96 1321.21 458.47 1321 459 1321 C 459.53 1321 460.04 1321.21 460.41 1321.59 C 460.79 1321.96 461 1322.47 461 1323 C 461 1323.53 460.79 1324.04 460.41 1324.41 C 460.04 1324.79 459.53 1325 459 1325 C 458.47 1325 457.96 1324.79 457.59 1324.41 C 457.21 1324.04 457 1323.53 457 1323 L 457 1323 L 457 1323 Z " fill-rule="evenodd" id="Fill-B" fill="rgb(161,161,161)"/><path d=" M 464 1330 L 463 1330 L 463 1327 C 463 1326.448 463.448 1326 464 1326 L 467 1326 C 467.552 1326 468 1326.448 468 1327 L 468 1330 L 467 1330 L 467 1327 L 464 1327 L 464 1330 L 464 1330 Z  M 464 1333 L 463 1333 L 463 1336 C 463 1336.552 463.448 1337 464 1337 L 467 1337 C 467.552 1337 468 1336.552 468 1336 L 468 1333 L 467 1333 L 467 1336 L 464 1336 L 464 1333 L 464 1333 Z  M 465 1333.5 L 465 1329.5 C 465 1329.224 465.224 1329 465.5 1329 L 465.5 1329 C 465.776 1329 466 1329.224 466 1329.5 L 466 1333.5 C 466 1333.776 465.776 1334 465.5 1334 L 465.5 1334 C 465.224 1334 465 1333.776 465 1333.5 Z " fill-rule="evenodd" id="Fill-A" fill="rgb(215,215,215)"/></g></svg>