<?xml version="1.0" encoding="UTF-8" standalone="no"?><!-- Generator: Gravit.io --><svg xmlns="http://www.w3.org/2000/svg" xmlns:xlink="http://www.w3.org/1999/xlink" style="isolation:isolate" viewBox="1545 1651 24 24" width="24" height="24"><g id="lock-ratio"><g opacity="0"><rect x="1545" y="1651" width="24" height="24" transform="matrix(1,0,0,1,0,0)" id="Icon Background" fill="rgb(37,86,132)"/></g><path d=" M 1554 1661 L 1552 1661 L 1552 1656.771 C 1552 1654.69 1553.69 1653 1555.771 1653 L 1558.229 1653 C 1560.31 1653 1562 1654.69 1562 1656.771 L 1562 1661 L 1560 1661 L 1560 1657 C 1560 1655.896 1559.104 1655 1558 1655 L 1556 1655 C 1554.896 1655 1554 1655.896 1554 1657 L 1554 1661 L 1554 1661 Z  M 1554 1665 L 1552 1665 L 1552 1669.229 C 1552 1671.31 1553.69 1673 1555.771 1673 L 1558.229 1673 C 1560.31 1673 1562 1671.31 1562 1669.229 L 1562 1665 L 1560 1665 L 1560 1669 C 1560 1670.104 1559.104 1671 1558 1671 L 1556 1671 C 1554.896 1671 1554 1670.104 1554 1669 L 1554 1665 L 1554 1665 Z  M 1556 1667 L 1556 1659 C 1556 1658.448 1556.448 1658 1557 1658 L 1557 1658 C 1557.552 1658 1558 1658.448 1558 1659 L 1558 1667 C 1558 1667.552 1557.552 1668 1557 1668 L 1557 1668 C 1556.448 1668 1556 1667.552 1556 1667 Z " fill-rule="evenodd" id="Fill-B" fill="rgb(161,161,161)"/></g></svg>