<?xml version="1.0" encoding="UTF-8" standalone="no"?><!-- Generator: Gravit.io --><svg xmlns="http://www.w3.org/2000/svg" xmlns:xlink="http://www.w3.org/1999/xlink" style="isolation:isolate" viewBox="1150 3639 24 24" width="24" height="24"><g id="lock-small"><g opacity="0"><rect x="1150" y="3639" width="24" height="24" transform="matrix(1,0,0,1,0,0)" id="Icon Background" fill="rgb(37,86,132)"/></g><path d=" M 1158 3650 L 1157 3650 C 1156.448 3650 1156 3650.448 1156 3651 L 1156 3655 C 1156 3655.552 1156.448 3656 1157 3656 L 1166 3656 C 1166.552 3656 1167 3655.552 1167 3655 L 1167 3651 C 1167 3650.448 1166.552 3650 1166 3650 L 1165 3650 L 1165 3647.8 C 1165 3647.053 1164.68 3646.344 1164.12 3645.821 C 1163.56 3645.299 1162.8 3645 1162 3645 L 1161 3645 C 1160.2 3645 1159.44 3645.299 1158.88 3645.821 C 1158.32 3646.344 1158 3647.053 1158 3647.8 L 1158 3650 Z  M 1160 3650 L 1163 3650 L 1163 3647.8 C 1163 3647.548 1162.89 3647.315 1162.71 3647.137 C 1162.52 3646.969 1162.27 3646.867 1162 3646.867 L 1161 3646.867 C 1160.73 3646.867 1160.48 3646.969 1160.29 3647.137 C 1160.11 3647.315 1160 3647.548 1160 3647.8 L 1160 3650 Z " fill-rule="evenodd" id="Fill-B" fill="rgb(161,161,161)"/></g></svg>