<?xml version="1.0" encoding="UTF-8" standalone="no"?><!-- Generator: Gravit.io --><svg xmlns="http://www.w3.org/2000/svg" xmlns:xlink="http://www.w3.org/1999/xlink" style="isolation:isolate" viewBox="2411 331 24 24" width="24" height="24"><g id="nested-compound"><g opacity="0"><rect x="2411" y="331" width="24" height="24" transform="matrix(1,0,0,1,0,0)" id="Icon Background" fill="rgb(37,86,132)"/></g><path d=" M 2426.984 339 C 2426.726 335.093 2423.471 332 2419.5 332 L 2419.5 332 C 2415.361 332 2412 335.361 2412 339.5 L 2412 339.5 C 2412 343.471 2415.093 346.726 2419 346.984 L 2419 352 L 2432 352 L 2432 339 L 2426.984 339 Z  M 2421 341 L 2430 341 L 2430 350 L 2421 350 L 2421 341 Z " fill-rule="evenodd" id="Fill-B" fill="rgb(161,161,161)"/><path d=" M 2424 344 L 2427 344 L 2427 347 L 2424 347 L 2424 344 Z " id="Fill-A" fill="rgb(215,215,215)"/></g></svg>