<?xml version="1.0" encoding="UTF-8" standalone="no"?><!-- Generator: Gravit.io --><svg xmlns="http://www.w3.org/2000/svg" xmlns:xlink="http://www.w3.org/1999/xlink" style="isolation:isolate" viewBox="1545 1255 24 24" width="24" height="24"><g id="new-layer-group"><g opacity="0"><rect x="1545" y="1255" width="24" height="24" transform="matrix(1,0,0,1,0,0)" id="Icon Background" fill="rgb(37,86,132)"/></g><path d=" M 1565 1273 L 1565 1271 L 1564 1271 L 1564 1273 L 1562 1273 L 1562 1274 L 1564 1274 L 1564 1276 L 1565 1276 L 1565 1274 L 1567 1274 L 1567 1273 L 1565 1273 L 1565 1273 Z  M 1560 1273.5 C 1560 1271.016 1562.016 1269 1564.5 1269 C 1566.984 1269 1569 1271.016 1569 1273.5 C 1569 1275.984 1566.984 1278 1564.5 1278 C 1562.016 1278 1560 1275.984 1560 1273.5 L 1560 1273.5 Z  M 1545 1262.5 L 1555 1268 L 1565 1262.5 L 1555 1257 L 1545 1262.5 Z " fill-rule="evenodd" id="Fill-A" fill="rgb(215,215,215)"/><path d=" M 1559.015 1273.91 L 1555 1276.14 L 1545.51 1270.87 C 1545.28 1270.75 1545.11 1270.53 1545.04 1270.27 C 1544.97 1270.02 1545 1269.75 1545.13 1269.51 C 1545.25 1269.28 1545.47 1269.11 1545.73 1269.04 C 1545.98 1268.97 1546.25 1269 1546.49 1269.13 L 1555 1273.86 L 1559.413 1271.407 C 1559.147 1272.052 1559 1272.759 1559 1273.5 C 1559 1273.638 1559.005 1273.775 1559.015 1273.91 Z  M 1563.51 1265.13 C 1563.75 1265 1564.02 1264.97 1564.27 1265.04 C 1564.53 1265.11 1564.75 1265.28 1564.87 1265.51 C 1565 1265.75 1565.03 1266.02 1564.96 1266.27 C 1564.89 1266.53 1564.72 1266.75 1564.49 1266.87 L 1555 1272.14 L 1545.51 1266.87 C 1545.28 1266.75 1545.11 1266.53 1545.04 1266.27 C 1544.97 1266.02 1545 1265.75 1545.13 1265.51 C 1545.25 1265.28 1545.47 1265.11 1545.73 1265.04 C 1545.98 1264.97 1546.25 1265 1546.49 1265.13 L 1555 1269.86 L 1563.51 1265.13 Z " fill-rule="evenodd" id="Fill-B" fill="rgb(161,161,161)"/></g></svg>