<?xml version="1.0" encoding="UTF-8" standalone="no"?><!-- Generator: Gravit.io --><svg xmlns="http://www.w3.org/2000/svg" xmlns:xlink="http://www.w3.org/1999/xlink" style="isolation:isolate" viewBox="1545 1321 24 24" width="24" height="24"><g id="new-page"><g opacity="0"><rect x="1545" y="1321" width="24" height="24" transform="matrix(1,0,0,1,0,0)" id="Icon Background" fill="rgb(37,86,132)"/></g><path d=" M 1556 1325 L 1550 1325 L 1550 1339 L 1550 1339 L 1557.207 1339 C 1557.072 1339.477 1557 1339.98 1557 1340.5 C 1557 1340.669 1557.008 1340.835 1557.022 1341 L 1549 1341 C 1548.448 1341 1548 1340.552 1548 1340 L 1548 1324 C 1548 1323.448 1548.448 1323 1549 1323 L 1549 1323 L 1558 1323 L 1563 1328 L 1563 1335.022 C 1562.835 1335.008 1562.669 1335 1562.5 1335 C 1561.98 1335 1561.477 1335.072 1561 1335.207 L 1561 1330 L 1557 1330 C 1556.448 1330 1556 1329.552 1556 1329 L 1556 1325 L 1556 1325 Z  M 1557 1328.859 L 1557 1325 L 1561 1329 L 1557 1329 L 1557 1328.859 L 1557 1328.859 Z " fill-rule="evenodd" id="Fill-B" fill="rgb(161,161,161)"/><path d=" M 1558 1340.5 C 1558 1338.016 1560.016 1336 1562.5 1336 C 1564.984 1336 1567 1338.016 1567 1340.5 C 1567 1342.984 1564.984 1345 1562.5 1345 C 1560.016 1345 1558 1342.984 1558 1340.5 Z  M 1563 1340 L 1563 1338 L 1562 1338 L 1562 1340 L 1560 1340 L 1560 1341 L 1562 1341 L 1562 1343 L 1563 1343 L 1563 1341 L 1565 1341 L 1565 1340 L 1563 1340 Z " fill-rule="evenodd" id="Fill-A" fill="rgb(215,215,215)"/></g></svg>