<?xml version="1.0" encoding="UTF-8" standalone="no"?><!-- Generator: Gravit.io --><svg xmlns="http://www.w3.org/2000/svg" xmlns:xlink="http://www.w3.org/1999/xlink" style="isolation:isolate" viewBox="1460 2594 24 24" width="24" height="24"><g id="No"><g opacity="0"><rect x="1460" y="2594" width="24" height="24" transform="matrix(1,0,0,1,0,0)" id="Icon Background" fill="rgb(37,86,132)"/></g><path d=" M 1466.385 2613.03 C 1467.967 2614.299 1469.947 2615 1472 2615 C 1474.39 2615 1476.68 2614.05 1478.36 2612.36 C 1480.05 2610.68 1481 2608.39 1481 2606 L 1481 2606 C 1481 2603.947 1480.299 2601.967 1479.03 2600.385 L 1466.385 2613.03 Z  M 1464.97 2611.615 C 1463.701 2610.033 1463 2608.053 1463 2606 C 1463 2603.61 1463.95 2601.32 1465.64 2599.64 C 1467.32 2597.95 1469.61 2597 1472 2597 C 1474.053 2597 1476.033 2597.701 1477.615 2598.97 L 1464.97 2611.615 Z  M 1483 2606 C 1483 2608.92 1481.84 2611.72 1479.78 2613.78 C 1477.72 2615.84 1474.92 2617 1472 2617 C 1469.08 2617 1466.28 2615.84 1464.22 2613.78 C 1462.16 2611.72 1461 2608.92 1461 2606 C 1461 2603.08 1462.16 2600.28 1464.22 2598.22 C 1466.28 2596.16 1469.08 2595 1472 2595 C 1474.92 2595 1477.72 2596.16 1479.78 2598.22 C 1481.84 2600.28 1483 2603.08 1483 2606 L 1483 2606 Z " fill-rule="evenodd" id="FIll-B" fill="rgb(161,161,161)"/></g></svg>