<?xml version="1.0" encoding="UTF-8" standalone="no"?><!-- Generator: Gravit.io --><svg xmlns="http://www.w3.org/2000/svg" xmlns:xlink="http://www.w3.org/1999/xlink" style="isolation:isolate" viewBox="1545 199 24 24" width="24" height="24"><g id="original-size-image"><g opacity="0"><rect x="1545" y="199" width="24" height="24" transform="matrix(1,0,0,1,0,0)" id="Icon Background" fill="rgb(37,86,132)"/></g><path d=" M 1545 222.002 L 1545 222.003 L 1549 222.003 L 1549 222.003 L 1549 221.003 L 1546 221.003 L 1546 218.002 L 1545 218.002 L 1545 221.003 L 1545 222.002 Z  M 1569 222.002 L 1569 222.003 L 1565 222.003 L 1565 222.003 L 1565 221.003 L 1568 221.003 L 1568 218.002 L 1569 218.002 L 1569 221.003 L 1569 222.002 L 1569 222.002 L 1569 222.002 Z  M 1545 201.002 L 1545 201 L 1549 201 L 1549 201 L 1549 202 L 1546 202 L 1546 205.002 L 1545 205.002 L 1545 202 L 1545 201.002 L 1545 201.002 L 1545 201.002 L 1545 201.002 L 1545 201.002 Z  M 1569 201.002 L 1569 201 L 1565 201 L 1565 202 L 1568 202 L 1568 205.002 L 1569 205.002 L 1569 202 L 1569 201.002 L 1569 201.002 L 1569 201.002 L 1569 201.002 L 1569 201.002 L 1569 201.002 Z " fill-rule="evenodd" id="Fill-A" fill="rgb(215,215,215)"/><path d=" M 1562 218 L 1553.63 209.91 C 1553.59 209.88 1553.55 209.87 1553.5 209.87 C 1553.45 209.87 1553.41 209.88 1553.37 209.91 L 1550 212.809 L 1550 212.809 L 1550 217 C 1550 217.552 1550.448 218 1551 218 L 1562 218 L 1562 218 Z  M 1560 207 C 1560 206.448 1560.448 206 1561 206 C 1561.552 206 1562 206.448 1562 207 C 1562 207.552 1561.552 208 1561 208 C 1560.448 208 1560 207.552 1560 207 L 1560 207 L 1560 207 Z  M 1559 207 C 1559 206.47 1559.21 205.96 1559.59 205.59 C 1559.96 205.21 1560.47 205 1561 205 C 1561.53 205 1562.04 205.21 1562.41 205.59 C 1562.79 205.96 1563 206.47 1563 207 C 1563 207.53 1562.79 208.04 1562.41 208.41 C 1562.04 208.79 1561.53 209 1561 209 C 1560.47 209 1559.96 208.79 1559.59 208.41 C 1559.21 208.04 1559 207.53 1559 207 L 1559 207 L 1559 207 Z  M 1565 217 C 1565 218.104 1564.104 219 1563 219 L 1551 219 C 1549.896 219 1549 218.104 1549 217 L 1549 205 C 1549 203.896 1549.896 203 1551 203 L 1551 203 L 1551 203 L 1563 203 C 1564.104 203 1565 203.896 1565 205 L 1565 217 L 1565 217 Z  M 1558.077 211.361 L 1563.596 216.881 C 1563.791 217.076 1563.791 217.393 1563.596 217.588 L 1563.596 217.588 C 1563.401 217.783 1563.084 217.783 1562.889 217.588 L 1557.37 212.068 C 1557.174 211.873 1557.174 211.556 1557.37 211.361 L 1557.37 211.361 C 1557.565 211.166 1557.882 211.166 1558.077 211.361 Z " fill-rule="evenodd" id="Fill-B" fill="rgb(161,161,161)"/></g></svg>