<?xml version="1.0" encoding="UTF-8" standalone="no"?><!-- Generator: Gravit.io --><svg xmlns="http://www.w3.org/2000/svg" xmlns:xlink="http://www.w3.org/1999/xlink" style="isolation:isolate" viewBox="1978 2451 24 24" width="24" height="24"><g id="pages-panel"><g opacity="0"><rect x="1978" y="2451" width="24" height="24" transform="matrix(1,0,0,1,0,0)" id="Icon Background" fill="rgb(37,86,132)"/></g><path d=" M 1991 2455 L 1988 2455 L 1988 2466 L 1988 2466 L 1988 2466 L 1996 2466 L 1996 2460 L 1992 2460 C 1991.448 2460 1991 2459.552 1991 2459 L 1991 2455 L 1991 2455 Z  M 1985 2457 L 1983 2457 L 1983 2457 C 1982.448 2457 1982 2457.448 1982 2458 L 1982 2471 C 1982 2471.552 1982.448 2472 1983 2472 L 1993 2472 C 1993.552 2472 1994 2471.552 1994 2471 L 1994 2469 L 1992 2469 L 1992 2470 L 1984 2470 L 1984 2470 L 1984 2459 L 1985 2459 L 1985 2457 L 1985 2457 Z  M 1987 2453 L 1993 2453 L 1998 2458 L 1998 2467 C 1998 2467.552 1997.552 2468 1997 2468 L 1987 2468 C 1986.448 2468 1986 2467.552 1986 2467 L 1986 2454 C 1986 2453.448 1986.448 2453 1987 2453 L 1987 2453 L 1987 2453 Z  M 1992 2458.859 L 1992 2455 L 1996 2459 L 1992 2459 L 1992 2458.859 L 1992 2458.859 Z " fill-rule="evenodd" id="Fill-B" fill="rgb(161,161,161)"/></g></svg>