<?xml version="1.0" encoding="UTF-8" standalone="no"?><!-- Generator: Gravit.io --><svg xmlns="http://www.w3.org/2000/svg" xmlns:xlink="http://www.w3.org/1999/xlink" style="isolation:isolate" viewBox="1150 3448 24 24" width="24" height="24"><g id="page-small"><g opacity="0"><rect x="1150" y="3448" width="24" height="24" transform="matrix(1,0,0,1,0,0)" id="Icon Background" fill="rgb(37,86,132)"/></g><path d=" M 1161 3454 L 1158 3454 L 1158 3465 L 1158 3465 L 1166 3465 L 1166 3459 L 1162 3459 C 1161.448 3459 1161 3458.552 1161 3458 L 1161 3454 L 1161 3454 Z  M 1157 3452 L 1163 3452 L 1168 3457 L 1168 3466 C 1168 3466.552 1167.552 3467 1167 3467 L 1157 3467 C 1156.448 3467 1156 3466.552 1156 3466 L 1156 3453 C 1156 3452.448 1156.448 3452 1157 3452 L 1157 3452 Z  M 1162 3457.859 L 1162 3454 L 1166 3458 L 1162 3458 L 1162 3457.859 L 1162 3457.859 Z " fill-rule="evenodd" id="Fill-B" fill="rgb(161,161,161)"/></g></svg>