<?xml version="1.0" encoding="UTF-8" standalone="no"?><!-- Generator: Gravit.io --><svg xmlns="http://www.w3.org/2000/svg" xmlns:xlink="http://www.w3.org/1999/xlink" style="isolation:isolate" viewBox="1150 3518 24 24" width="24" height="24"><g id="page-imfinity-small"><g opacity="0"><rect x="1150" y="3518" width="24" height="24" transform="matrix(1,0,0,1,0,0)" id="Icon Background" fill="rgb(37,86,132)"/></g><path d=" M 1161 3524 L 1158 3524 L 1158 3535 L 1158 3535 L 1162.172 3535 C 1162.059 3535.315 1162 3535.65 1162 3535.99 C 1162 3536.337 1162.062 3536.679 1162.179 3537 L 1157 3537 C 1156.448 3537 1156 3536.552 1156 3536 L 1156 3523 C 1156 3522.448 1156.448 3522 1157 3522 L 1157 3522 L 1163 3522 L 1168 3527 L 1168 3533.423 C 1167.919 3533.466 1167.839 3533.512 1167.76 3533.56 C 1167.57 3533.68 1167.39 3533.8 1167.22 3533.94 C 1167.21 3533.93 1167.2 3533.92 1167.19 3533.92 C 1167 3533.77 1166.8 3533.64 1166.6 3533.52 C 1166.405 3533.405 1166.205 3533.305 1166 3533.22 L 1166 3529 L 1162 3529 C 1161.448 3529 1161 3528.552 1161 3528 L 1161 3524 L 1161 3524 Z  M 1162 3527.859 L 1162 3524 L 1166 3528 L 1162 3528 L 1162 3527.859 L 1162 3527.859 Z " fill-rule="evenodd" id="Fill-B" fill="rgb(161,161,161)"/><path d=" M 1167.217 3535.244 Q 1165.856 3534.005 1164.99 3534.005 C 1163.893 3534.005 1163.002 3534.895 1163.002 3535.992 C 1163.002 3537.089 1163.893 3537.98 1164.99 3537.98 Q 1165.856 3537.98 1167.217 3536.741 Q 1168.578 3537.98 1169.444 3537.98 C 1170.541 3537.98 1171.431 3537.089 1171.431 3535.992 C 1171.431 3534.895 1170.541 3534.005 1169.444 3534.005 Q 1168.578 3534.005 1167.217 3535.244 Z  M 1167.88 3535.99 C 1168.06 3535.83 1168.24 3535.68 1168.43 3535.53 C 1168.55 3535.43 1168.68 3535.35 1168.81 3535.26 C 1168.97 3535.17 1169.13 3535.09 1169.3 3535.03 C 1169.35 3535.01 1169.4 3535 1169.44 3535 C 1169.71 3535 1169.96 3535.11 1170.14 3535.29 C 1170.33 3535.48 1170.43 3535.73 1170.43 3535.99 L 1170.43 3535.99 L 1170.43 3535.99 C 1170.43 3536.25 1170.33 3536.51 1170.14 3536.69 C 1169.96 3536.88 1169.71 3536.98 1169.44 3536.98 C 1169.4 3536.98 1169.35 3536.97 1169.31 3536.96 C 1169.15 3536.91 1169 3536.84 1168.86 3536.75 C 1168.72 3536.67 1168.59 3536.58 1168.46 3536.48 C 1168.26 3536.33 1168.07 3536.16 1167.88 3535.99 Z  M 1166.55 3535.99 C 1166.38 3536.15 1166.19 3536.31 1166.01 3536.45 C 1165.88 3536.55 1165.75 3536.64 1165.62 3536.72 C 1165.47 3536.82 1165.3 3536.9 1165.13 3536.96 C 1165.09 3536.97 1165.04 3536.98 1164.99 3536.98 C 1164.73 3536.98 1164.48 3536.88 1164.29 3536.69 C 1164.11 3536.51 1164 3536.25 1164 3535.99 C 1164 3535.73 1164.11 3535.48 1164.29 3535.29 C 1164.48 3535.11 1164.73 3535 1164.99 3535 C 1165.04 3535 1165.08 3535.01 1165.12 3535.03 C 1165.28 3535.08 1165.43 3535.15 1165.57 3535.23 C 1165.71 3535.32 1165.84 3535.41 1165.97 3535.5 C 1166.17 3535.66 1166.37 3535.82 1166.55 3535.99 Z " fill-rule="evenodd" id="Fill-A" fill="rgb(215,215,215)"/></g></svg>