<?xml version="1.0" encoding="UTF-8" standalone="no"?><!-- Generator: Gravit.io --><svg xmlns="http://www.w3.org/2000/svg" xmlns:xlink="http://www.w3.org/1999/xlink" style="isolation:isolate" viewBox="1150 3578 24 24" width="24" height="24"><g id="page-master-small"><g opacity="0"><rect x="1150" y="3578" width="24" height="24" transform="matrix(1,0,0,1,0,0)" id="Icon Background" fill="rgb(37,86,132)"/></g><path d=" M 1161 3584 L 1158 3584 L 1158 3595 L 1158 3595 L 1161.97 3595 C 1162.004 3595.72 1162.199 3596.398 1162.519 3597 L 1157 3597 C 1156.448 3597 1156 3596.552 1156 3596 L 1156 3583 C 1156 3582.448 1156.448 3582 1157 3582 L 1157 3582 L 1163 3582 L 1168 3587 L 1168 3590.171 C 1167.596 3590.06 1167.171 3590 1166.732 3590 C 1166.483 3590 1166.239 3590.019 1166 3590.056 L 1166 3589 L 1162 3589 C 1161.448 3589 1161 3588.552 1161 3588 L 1161 3584 L 1161 3584 Z  M 1162 3587.859 L 1162 3584 L 1166 3588 L 1162 3588 L 1162 3587.859 L 1162 3587.859 Z " fill-rule="evenodd" id="Fill-B" fill="rgb(161,161,161)"/><path d=" M 1165.998 3593.634 L 1165.998 3591.5 C 1165.998 3591.224 1166.222 3591 1166.498 3591 L 1166.498 3591 C 1166.774 3591 1166.998 3591.224 1166.998 3591.5 L 1166.998 3593.634 L 1168.846 3592.567 C 1169.085 3592.429 1169.391 3592.511 1169.529 3592.75 L 1169.529 3592.75 C 1169.667 3592.989 1169.585 3593.295 1169.346 3593.433 L 1167.498 3594.5 L 1169.346 3595.567 C 1169.585 3595.705 1169.667 3596.011 1169.529 3596.25 L 1169.529 3596.25 C 1169.391 3596.489 1169.085 3596.571 1168.846 3596.433 L 1166.998 3595.366 L 1166.998 3597.5 C 1166.998 3597.776 1166.774 3598 1166.498 3598 L 1166.498 3598 C 1166.222 3598 1165.998 3597.776 1165.998 3597.5 L 1165.998 3595.366 L 1164.15 3596.433 C 1163.911 3596.571 1163.605 3596.489 1163.467 3596.25 L 1163.467 3596.25 C 1163.329 3596.011 1163.411 3595.705 1163.65 3595.567 L 1165.498 3594.5 L 1163.65 3593.433 C 1163.411 3593.295 1163.329 3592.989 1163.467 3592.75 L 1163.467 3592.75 C 1163.605 3592.511 1163.911 3592.429 1164.15 3592.567 L 1165.998 3593.634 Z " id="Fill-A" fill="rgb(215,215,215)"/></g></svg>