<?xml version="1.0" encoding="UTF-8" standalone="no"?><!-- Generator: Gravit.io --><svg xmlns="http://www.w3.org/2000/svg" xmlns:xlink="http://www.w3.org/1999/xlink" style="isolation:isolate" viewBox="1452 2432 24 24" width="24" height="24"><g id="paste-small"><g opacity="0"><rect x="1452" y="2432" width="24" height="24" transform="matrix(1,0,0,1,0,0)" id="Icon Background" fill="rgb(37,86,132)"/></g><path d=" M 1459.99 2438 L 1459.05 2438 L 1459.05 2438 C 1458.77 2438 1458.5 2438.11 1458.31 2438.31 C 1458.11 2438.51 1458 2438.78 1458 2439.05 L 1458 2449.95 C 1458 2450.22 1458.11 2450.49 1458.31 2450.69 C 1458.5 2450.89 1458.77 2451 1459.05 2451 L 1467.94 2451 C 1468.22 2451 1468.49 2450.89 1468.69 2450.69 C 1468.89 2450.49 1469 2450.22 1469 2449.95 L 1469 2439.05 C 1469 2438.78 1468.89 2438.51 1468.69 2438.31 C 1468.49 2438.11 1468.22 2438 1467.94 2438 L 1466.99 2438 L 1466.99 2441 L 1459.99 2441 L 1459.99 2438 L 1459.99 2438 L 1459.99 2438 Z  M 1461.04 2436 L 1459.05 2436 L 1459.05 2436 L 1459.05 2436 C 1458.24 2436 1457.47 2436.32 1456.89 2436.89 C 1456.32 2437.47 1456 2438.24 1456 2439.05 L 1456 2449.95 C 1456 2450.76 1456.32 2451.53 1456.89 2452.11 C 1457.47 2452.68 1458.24 2453 1459.05 2453 L 1467.94 2453 C 1468.75 2453 1469.53 2452.68 1470.1 2452.11 C 1470.68 2451.53 1471 2450.76 1471 2449.95 L 1471 2439.05 C 1471 2438.24 1470.68 2437.47 1470.1 2436.89 C 1469.53 2436.32 1468.75 2436 1467.94 2436 L 1465.94 2436 C 1465.708 2434.859 1464.699 2434 1463.49 2434 C 1462.281 2434 1461.272 2434.859 1461.04 2436 L 1461.04 2436 Z  M 1462.482 2436.5 C 1462.482 2435.944 1462.934 2435.492 1463.49 2435.492 C 1464.046 2435.492 1464.498 2435.944 1464.498 2436.5 C 1464.498 2437.056 1464.046 2437.508 1463.49 2437.508 C 1462.934 2437.508 1462.482 2437.056 1462.482 2436.5 Z " fill-rule="evenodd" id="Fill-B" fill="rgb(161,161,161)"/></g></svg>