<?xml version="1.0" encoding="UTF-8" standalone="no"?><!-- Generator: Gravit.io --><svg xmlns="http://www.w3.org/2000/svg" xmlns:xlink="http://www.w3.org/1999/xlink" style="isolation:isolate" viewBox="33.374 8 24 24" width="24pt" height="24pt"><g><rect x="33.374" y="8" width="24" height="24" transform="matrix(1,0,0,1,0,0)" fill="none"/><g><path d=" M 41.434 12.047 C 41.434 11.491 41.886 11.039 42.442 11.039 C 42.998 11.039 43.45 11.491 43.45 12.047 C 43.45 12.603 42.998 13.055 42.442 13.055 C 41.886 13.055 41.434 12.603 41.434 12.047 L 41.434 12.047 L 41.434 12.047 Z  M 43.102 26.547 L 38.002 26.547 C 37.722 26.547 37.452 26.437 37.262 26.237 C 37.062 26.037 36.952 25.767 36.952 25.497 L 36.952 14.597 C 36.952 14.327 37.062 14.057 37.262 13.857 C 37.452 13.657 37.722 13.547 38.002 13.547 L 38.002 13.547 L 38.942 13.547 L 38.942 13.547 L 38.942 13.547 L 38.942 13.547 L 38.942 16.547 L 45.942 16.547 L 45.942 13.547 L 46.892 13.547 C 47.172 13.547 47.442 13.657 47.642 13.857 C 47.842 14.057 47.952 14.327 47.952 14.597 L 47.952 17.974 C 48.584 17.751 49.255 17.61 49.952 17.563 L 49.952 14.597 C 49.952 13.787 49.632 13.017 49.052 12.437 C 48.482 11.867 47.702 11.547 46.892 11.547 L 44.892 11.547 C 44.66 10.406 43.651 9.547 42.442 9.547 C 41.233 9.547 40.224 10.406 39.992 11.547 L 39.992 11.547 L 39.992 11.547 L 38.002 11.547 L 38.002 11.547 L 38.002 11.547 C 37.192 11.547 36.422 11.867 35.842 12.437 C 35.272 13.017 34.952 13.787 34.952 14.597 L 34.952 25.497 C 34.952 26.307 35.272 27.077 35.842 27.657 C 36.422 28.227 37.192 28.547 38.002 28.547 L 43.818 28.547 C 43.49 27.927 43.246 27.255 43.102 26.547 L 43.102 26.547 Z " fill-rule="evenodd" fill="rgb(161,161,161)"/><path d=" M 53.546 27.453 L 53.546 22.203 L 52.796 22.203 L 52.796 27.453 L 50.546 27.453 L 53.171 30.453 L 53.171 30.453 L 55.796 27.453 L 53.546 27.453 Z  M 48.108 22.641 L 48.108 27.891 L 47.358 27.891 L 47.358 22.641 L 45.108 22.641 L 47.733 19.641 L 47.733 19.641 L 50.358 22.641 L 48.108 22.641 Z " fill-rule="evenodd" fill="rgb(215,215,215)"/></g></g></svg>