<?xml version="1.0" encoding="UTF-8" standalone="no"?><!-- Generator: Gravit.io --><svg xmlns="http://www.w3.org/2000/svg" xmlns:xlink="http://www.w3.org/1999/xlink" style="isolation:isolate" viewBox="1150 2850 24 24" width="24" height="24"><g id="path-small"><g opacity="0"><rect x="1150" y="2850" width="24" height="24" transform="matrix(1,0,0,1,0,0)" id="Icon Background" fill="rgb(37,86,132)"/></g><path d=" M 1166.608 2860.933 L 1166.731 2861.835 C 1166.731 2861.835 1166.741 2861.843 1166.741 2861.843 C 1166.843 2862.631 1166.762 2863.424 1166.535 2864.159 C 1166.298 2864.886 1165.927 2865.58 1165.44 2866.161 C 1164.909 2866.815 1164.226 2867.312 1163.427 2867.63 C 1163.427 2867.63 1163.427 2867.63 1163.419 2867.64 L 1163.419 2867.64 L 1163.419 2867.64 L 1154 2871.24 L 1155.909 2861.338 C 1155.917 2861.329 1155.917 2861.329 1155.917 2861.329 C 1156.092 2860.486 1156.463 2859.728 1157.015 2859.091 C 1157.502 2858.51 1158.122 2858.025 1158.796 2857.666 C 1159.48 2857.314 1160.248 2857.097 1161.041 2857.06 C 1161.041 2857.06 1161.051 2857.069 1161.051 2857.069 L 1161.961 2857.033 L 1161.961 2857.033 L 1160.071 2855.448 L 1160.786 2854.596 L 1161.812 2855.457 L 1162.323 2854.455 C 1162.575 2853.964 1163.122 2853.853 1163.544 2854.208 L 1168.725 2858.555 C 1169.148 2858.91 1169.179 2859.519 1168.793 2859.914 L 1168.042 2860.685 L 1169.212 2861.667 L 1168.498 2862.518 L 1167.264 2861.482 L 1167.264 2861.482 L 1166.608 2860.933 Z  M 1155.955 2868.131 L 1158.814 2864.724 C 1158.702 2864.532 1158.632 2864.317 1158.613 2864.093 C 1158.578 2863.698 1158.7 2863.304 1158.957 2862.998 C 1159.214 2862.691 1159.581 2862.503 1159.976 2862.469 C 1160.37 2862.434 1160.764 2862.556 1161.07 2862.813 C 1161.377 2863.07 1161.565 2863.437 1161.6 2863.831 C 1161.634 2864.226 1161.513 2864.62 1161.255 2864.926 C 1160.998 2865.233 1160.631 2865.421 1160.237 2865.455 C 1160.013 2865.475 1159.789 2865.444 1159.581 2865.366 L 1156.721 2868.774 L 1162.837 2866.433 L 1162.837 2866.433 C 1163.453 2866.184 1163.986 2865.802 1164.392 2865.297 C 1164.793 2864.82 1165.1 2864.264 1165.29 2863.657 C 1165.467 2863.087 1165.529 2862.485 1165.442 2861.87 L 1165.256 2860.55 L 1162.573 2858.298 L 1161.24 2858.344 C 1160.619 2858.365 1160.037 2858.531 1159.506 2858.804 C 1158.942 2859.097 1158.448 2859.496 1158.047 2859.973 C 1157.62 2860.46 1157.337 2861.052 1157.199 2861.702 L 1155.955 2868.131 L 1155.955 2868.131 L 1155.955 2868.131 Z " fill-rule="evenodd" id="Fill-B" fill="rgb(161,161,161)"/></g></svg>