<?xml version="1.0" encoding="UTF-8" standalone="no"?><!-- Generator: Gravit.io --><svg xmlns="http://www.w3.org/2000/svg" xmlns:xlink="http://www.w3.org/1999/xlink" style="isolation:isolate" viewBox="1978 133 24 24" width="24" height="24"><g id="play-present"><g opacity="0"><rect x="1978" y="133" width="24" height="24" transform="matrix(1,0,0,1,0,0)" id="Icon Background" fill="rgb(37,86,132)"/></g><path d=" M 2002 145 C 2002 151.623 1996.623 157 1990 157 C 1983.377 157 1978 151.623 1978 145 C 1978 138.377 1983.377 133 1990 133 C 1996.623 133 2002 138.377 2002 145 Z  M 2000 145 C 2000 147.65 1998.95 150.2 1997.07 152.07 C 1995.2 153.95 1992.65 155 1990 155 C 1987.35 155 1984.8 153.95 1982.93 152.07 C 1981.05 150.2 1980 147.65 1980 145 C 1980 142.35 1981.05 139.8 1982.93 137.93 C 1984.8 136.05 1987.35 135 1990 135 C 1992.65 135 1995.2 136.05 1997.07 137.93 C 1998.95 139.8 2000 142.35 2000 145 Z " fill-rule="evenodd" id="Fill-B" fill="rgb(161,161,161)"/><path d=" M 1987.847 140.576 L 1994.063 144.469 C 1994.531 144.762 1994.531 145.238 1994.063 145.531 L 1987.847 149.424 C 1987.38 149.717 1987 149.507 1987 148.955 L 1987 141.045 C 1987 140.493 1987.38 140.283 1987.847 140.576 Z " id="Fill-A" fill="rgb(215,215,215)"/></g></svg>