<?xml version="1.0" encoding="UTF-8" standalone="no"?><!-- Generator: Gravit.io --><svg xmlns="http://www.w3.org/2000/svg" xmlns:xlink="http://www.w3.org/1999/xlink" style="isolation:isolate" viewBox="1978 1989 24 24" width="24" height="24"><g id="position-inside"><g opacity="0"><rect x="1978" y="1989" width="24" height="24" transform="matrix(1,0,0,1,0,0)" id="Icon Background" fill="rgb(37,86,132)"/></g><path d=" M 1990 2010 L 1981 2010 L 1981 2001 L 1988.339 2001 C 1988.51 2001.358 1988.742 2001.687 1989.03 2001.97 C 1989.313 2002.258 1989.642 2002.49 1990 2002.661 L 1990 2010 Z " id="Fill-B" fill="rgb(161,161,161)"/><path d=" M 1991.5 1997 L 1991.5 1997 C 1992.88 1997 1994 1998.12 1994 1999.5 L 1994 1999.5 C 1994 2000.88 1992.88 2002 1991.5 2002 L 1991.5 2002 C 1990.12 2002 1989 2000.88 1989 1999.5 L 1989 1999.5 C 1989 1998.12 1990.12 1997 1991.5 1997 Z  M 1988.036 1999 L 1981 1999 L 1981 2000 L 1988.036 2000 C 1988.012 1999.837 1988 1999.67 1988 1999.5 L 1988 1999.5 C 1988 1999.33 1988.012 1999.163 1988.036 1999 L 1988.036 1999 Z  M 1991 2002.964 L 1991 2010 L 1992 2010 L 1992 2002.964 C 1991.837 2002.988 1991.67 2003 1991.5 2003 L 1991.5 2003 C 1991.33 2003 1991.163 2002.988 1991 2002.964 L 1991 2002.964 Z " fill-rule="evenodd" id="Fill-A" fill="rgb(215,215,215)"/></g></svg>