<?xml version="1.0" encoding="UTF-8" standalone="no"?><!-- Generator: Gravit.io --><svg xmlns="http://www.w3.org/2000/svg" xmlns:xlink="http://www.w3.org/1999/xlink" style="isolation:isolate" viewBox="1545 2721 24 24" width="24" height="24"><g id="print"><g opacity="0"><rect x="1545" y="2721" width="24" height="24" transform="matrix(1,0,0,1,0,0)" id="Icon Background" fill="rgb(37,86,132)"/></g><path d=" M 1552.02 2726.41 L 1553.42 2725 L 1561 2725 L 1561 2730 L 1552.01 2730 L 1552.02 2726.41 L 1552.02 2726.41 Z  M 1551.025 2726 L 1553 2724 L 1562 2724 L 1562 2731 L 1551 2731 L 1551.025 2726 L 1551.025 2726 Z  M 1551 2740 L 1562 2740 L 1562 2743 L 1551 2743 L 1551 2740 Z " fill-rule="evenodd" id="Fill-B" fill="rgb(161,161,161)"/><path d=" M 1549 2739 L 1547 2739 L 1547 2732 C 1547 2730.896 1547.896 2730 1549 2730 L 1549 2730 L 1549 2730 L 1549 2733 L 1564 2733 L 1564 2730 L 1564 2730 C 1565.104 2730 1566 2730.896 1566 2732 L 1566 2739 L 1564 2739 L 1564 2738 L 1549 2738 L 1549 2739 Z  M 1562 2736.008 C 1562 2735.452 1562.452 2735 1563.008 2735 C 1563.565 2735 1564.016 2735.452 1564.016 2736.008 C 1564.016 2736.565 1563.565 2737.016 1563.008 2737.016 C 1562.452 2737.016 1562 2736.565 1562 2736.008 Z " fill-rule="evenodd" id="Fill-A" fill="rgb(215,215,215)"/></g></svg>