<?xml version="1.0" encoding="UTF-8" standalone="no"?><!-- Generator: Gravit.io --><svg xmlns="http://www.w3.org/2000/svg" xmlns:xlink="http://www.w3.org/1999/xlink" style="isolation:isolate" viewBox="2777.5 188.5 24 24" width="24" height="24"><g id="proportional-handle"><circle vector-effect="non-scaling-stroke" cx="2789.4999999999995" cy="200.49999999999991" r="11.5" id="Ellipse" fill="rgb(255,255,255)" stroke-width="1" stroke="rgb(74,134,232)" stroke-opacity="0.5" stroke-linejoin="miter" stroke-linecap="butt" stroke-miterlimit="3"/><circle vector-effect="non-scaling-stroke" cx="2789.4999999999995" cy="200.49999999999991" r="9.5" id="Ellipse" fill="rgb(74,134,232)"/><path d=" M 2788 201 L 2787 201 L 2787 203 C 2787 204.104 2787.896 205 2789 205 L 2790 205 C 2791.104 205 2792 204.104 2792 203 L 2792 201 L 2791 201 L 2791 203 C 2791 203.552 2790.552 204 2790 204 L 2789 204 C 2788.448 204 2788 203.552 2788 203 L 2788 201 L 2788 201 Z  M 2788 200 L 2787 200 L 2787 198 C 2787 196.896 2787.896 196 2789 196 L 2790 196 C 2791.104 196 2792 196.896 2792 198 L 2792 200 L 2791 200 L 2791 198 C 2791 197.448 2790.552 197 2790 197 L 2789 197 C 2788.448 197 2788 197.448 2788 198 L 2788 200 L 2788 200 Z  M 2789 201.613 L 2789 199.387 C 2789 199.174 2789.174 199 2789.387 199 L 2789.613 199 C 2789.826 199 2790 199.174 2790 199.387 L 2790 201.613 C 2790 201.826 2789.826 202 2789.613 202 L 2789.387 202 C 2789.174 202 2789 201.826 2789 201.613 Z " fill-rule="evenodd" id="Compound Path" fill="rgb(255,255,255)"/></g></svg>