<?xml version="1.0" encoding="UTF-8" standalone="no"?><!-- Generator: Gravit.io --><svg xmlns="http://www.w3.org/2000/svg" xmlns:xlink="http://www.w3.org/1999/xlink" style="isolation:isolate" viewBox="778 329 24 24" width="24" height="24"><g id="redo"><g opacity="0"><rect x="778" y="329" width="24" height="24" transform="matrix(1,0,0,1,0,0)" id="Icon Background" fill="rgb(37,86,132)"/></g><path d=" M 796.599 337.401 L 800 334 L 800 345.25 L 788.75 345.25 L 792.488 341.512 C 791.356 339.988 789.542 339 787.5 339 C 784.073 339 781.29 341.782 781.29 345.21 C 781.29 346.716 781.828 348.099 782.722 349.174 L 782.239 349.453 C 780.843 347.816 780 345.693 780 343.375 C 780 338.201 784.201 334 789.375 334 C 792.28 334 794.878 335.324 796.599 337.401 Z " id="Fill-B" fill="rgb(161,161,161)"/></g></svg>