<?xml version="1.0" encoding="UTF-8" standalone="no"?><!-- Generator: Gravit.io --><svg xmlns="http://www.w3.org/2000/svg" xmlns:xlink="http://www.w3.org/1999/xlink" style="isolation:isolate" viewBox="1545 1519 24 24" width="24" height="24"><g id="refresh"><g opacity="0"><rect x="1545" y="1519" width="24" height="24" transform="matrix(1,0,0,1,0,0)" id="Icon Background" fill="rgb(37,86,132)"/></g><path d=" M 1567.697 1530.687 L 1563.891 1526.88 L 1560.041 1530.687 L 1562.928 1530.687 L 1562.928 1530.687 Q 1562.928 1533.049 1561.244 1534.733 L 1561.244 1534.733 L 1561.244 1534.733 Q 1559.559 1536.418 1557.197 1536.418 L 1557.197 1536.418 L 1557.197 1536.418 Q 1555.841 1536.418 1554.528 1535.762 L 1554.528 1535.762 L 1553.128 1537.118 L 1553.128 1537.118 Q 1554.966 1538.343 1557.197 1538.343 L 1557.197 1538.343 L 1557.197 1538.343 Q 1560.347 1538.343 1562.6 1536.09 L 1562.6 1536.09 L 1562.6 1536.09 Q 1564.853 1533.837 1564.853 1530.687 L 1564.853 1530.687 L 1567.697 1530.687 Z  M 1554.353 1530.687 L 1551.466 1530.687 L 1551.466 1530.687 Q 1551.466 1528.324 1553.15 1526.64 L 1553.15 1526.64 L 1553.15 1526.64 Q 1554.834 1524.955 1557.197 1524.955 L 1557.197 1524.955 L 1557.197 1524.955 Q 1558.553 1524.955 1559.866 1525.612 L 1559.866 1525.612 L 1561.266 1524.255 L 1561.266 1524.255 Q 1559.428 1523.03 1557.197 1523.03 L 1557.197 1523.03 L 1557.197 1523.03 Q 1554.047 1523.03 1551.794 1525.283 L 1551.794 1525.283 L 1551.794 1525.283 Q 1549.541 1527.536 1549.541 1530.687 L 1549.541 1530.687 L 1546.697 1530.687 L 1550.503 1534.493 L 1554.353 1530.687 Z " fill-rule="evenodd" id="Fill-B" fill="rgb(161,161,161)"/></g></svg>