<?xml version="1.0" encoding="UTF-8" standalone="no"?><!-- Generator: Gravit.io --><svg xmlns="http://www.w3.org/2000/svg" xmlns:xlink="http://www.w3.org/1999/xlink" style="isolation:isolate" viewBox="1545 133 24 24" width="24" height="24"><g id="replace-image"><g opacity="0"><rect x="1545" y="133" width="24" height="24" transform="matrix(1,0,0,1,0,0)" id="Icon Background" fill="rgb(37,86,132)"/></g><path d=" M 1557.747 144.194 L 1557.02 143.59 C 1556.84 143.45 1556.62 143.37 1556.39 143.38 C 1556.21 143.37 1556.02 143.42 1555.87 143.52 L 1555.173 143.987 L 1556.618 145.21 L 1556.618 145.21 C 1556.36 145.504 1556.128 145.82 1555.925 146.157 L 1549.63 140.91 C 1549.59 140.88 1549.55 140.87 1549.5 140.87 C 1549.45 140.87 1549.41 140.88 1549.37 140.91 L 1546 143.809 L 1546 143.809 L 1546 148 C 1546 148.552 1546.448 149 1547 149 L 1555.019 149 L 1555.019 149 C 1555.006 149.165 1555 149.332 1555 149.5 C 1555 149.668 1555.006 149.835 1555.019 150 L 1547 150 C 1545.896 150 1545 149.104 1545 148 L 1545 137 C 1545 135.896 1545.896 135 1547 135 L 1547 135 L 1547 135 L 1561 135 C 1562.104 135 1563 135.896 1563 137 L 1563 143.174 L 1563 143.174 C 1562.518 143.06 1562.016 143 1561.5 143 C 1560.102 143 1558.807 143.442 1557.747 144.194 Z  M 1557 139 C 1557 138.448 1557.448 138 1558 138 C 1558.552 138 1559 138.448 1559 139 C 1559 139.552 1558.552 140 1558 140 C 1557.448 140 1557 139.552 1557 139 L 1557 139 L 1557 139 Z  M 1556 139 C 1556 138.47 1556.21 137.96 1556.59 137.59 C 1556.96 137.21 1557.47 137 1558 137 C 1558.53 137 1559.04 137.21 1559.41 137.59 C 1559.79 137.96 1560 138.47 1560 139 C 1560 139.53 1559.79 140.04 1559.41 140.41 C 1559.04 140.79 1558.53 141 1558 141 C 1557.47 141 1556.96 140.79 1556.59 140.41 C 1556.21 140.04 1556 139.53 1556 139 L 1556 139 L 1556 139 Z " fill-rule="evenodd" id="Fill-B" fill="rgb(161,161,161)"/><path d=" M 1565.964 151 L 1565.964 151 C 1565.857 151.744 1565.51 152.438 1564.97 152.97 C 1564.32 153.63 1563.43 154 1562.5 154 C 1562.226 154 1561.955 153.968 1561.693 153.906 L 1561 154.744 C 1561.469 154.91 1561.974 155 1562.5 155 C 1564.815 155 1566.723 153.249 1566.973 151 L 1569 151 L 1566.5 148 L 1564 151 L 1565.964 151 Z  M 1558.027 150 C 1558.277 147.751 1560.185 146 1562.5 146 C 1563.026 146 1563.531 146.09 1564 146.256 L 1564 146.256 L 1563.307 147.094 C 1563.045 147.032 1562.774 147 1562.5 147 C 1561.57 147 1560.68 147.37 1560.03 148.03 C 1559.49 148.562 1559.143 149.256 1559.036 150 L 1561 150 L 1558.5 153 L 1556 150 L 1558.027 150 L 1558.027 150 Z " fill-rule="evenodd" id="Fill-A" fill="rgb(215,215,215)"/></g></svg>