<?xml version="1.0" encoding="UTF-8" standalone="no"?><!-- Generator: Gravit.io --><svg xmlns="http://www.w3.org/2000/svg" xmlns:xlink="http://www.w3.org/1999/xlink" style="isolation:isolate" viewBox="1545 529 24 24" width="24" height="24"><g id="rotate-canvas"><g opacity="0"><rect x="1545" y="529" width="24" height="24" transform="matrix(1,0,0,1,0,0)" id="Icon Background" fill="rgb(37,86,132)"/></g><path d=" M 1550.566 536 C 1550.727 534.973 1551.175 534.006 1551.86 533.22 C 1552.192 532.834 1552.577 532.505 1553 532.242 L 1553 533.476 C 1552.862 533.597 1552.731 533.729 1552.61 533.87 C 1552.083 534.478 1551.727 535.214 1551.579 536 L 1554 536 L 1551 539 L 1548 536 L 1550.566 536 Z " id="Fill-A" fill="rgb(215,215,215)"/><path d=" M 1565 542 L 1565 549 L 1549 549 L 1549 542 L 1565 542 L 1565 542 L 1565 542 Z  M 1547 549.946 L 1547 541.054 C 1547 540.472 1547.472 540 1548.054 540 L 1565.946 540 C 1566.528 540 1567 540.472 1567 541.054 L 1567 549.946 C 1567 550.528 1566.528 551 1565.946 551 L 1548.054 551 C 1547.472 551 1547 550.528 1547 549.946 L 1547 549.946 L 1547 549.946 Z  M 1567 538 L 1567 531 C 1567 530.448 1566.552 530 1566 530 L 1556 530 L 1556 530 C 1555.448 530 1555 530.448 1555 531 L 1555 538 L 1557 538 L 1557 532 L 1565 532 L 1565 538 L 1565 538 L 1567 538 Z " fill-rule="evenodd" id="Fill-B" fill="rgb(161,161,161)"/></g></svg>