<?xml version="1.0" encoding="UTF-8" standalone="no"?><!-- Generator: Gravit.io --><svg xmlns="http://www.w3.org/2000/svg" xmlns:xlink="http://www.w3.org/1999/xlink" style="isolation:isolate" viewBox="2514 978 24 24" width="24" height="24"><g id="same-width"><g opacity="0"><rect x="2514" y="978" width="24" height="24" transform="matrix(1,0,0,1,0,0)" id="Icon Background" fill="rgb(37,86,132)"/></g><path d=" M 2518 988 L 2534 988 L 2534 993 L 2518 993 L 2518 988 Z " id="Fill-A" fill="rgb(215,215,215)"/><path d=" M 2515 994 L 2515 993 L 2515 993 L 2516 993 L 2516 994 L 2515 994 L 2515 994 L 2515 994 L 2515 994 L 2515 994 L 2515 994 L 2515 994 L 2515 994 L 2515 994 Z  M 2515 1002 L 2515 1001 L 2515 1001 L 2516 1001 L 2516 1002 L 2515 1002 L 2515 1002 L 2515 1002 L 2515 1002 L 2515 1002 Z  M 2515 1000 L 2515 999 L 2515 999 L 2516 999 L 2516 1000 L 2515 1000 L 2515 1000 L 2515 1000 L 2515 1000 L 2515 1000 L 2515 1000 Z  M 2515 990 L 2515 989 L 2515 989 L 2516 989 L 2516 990 L 2515 990 L 2515 990 L 2515 990 L 2515 990 L 2515 990 L 2515 990 L 2515 990 L 2515 990 L 2515 990 L 2515 990 L 2515 990 Z  M 2515 998 L 2515 997 L 2515 997 L 2516 997 L 2516 998 L 2515 998 L 2515 998 L 2515 998 L 2515 998 L 2515 998 L 2515 998 L 2515 998 Z  M 2515 996 L 2515 995 L 2515 995 L 2516 995 L 2516 996 L 2515 996 L 2515 996 L 2515 996 L 2515 996 L 2515 996 L 2515 996 L 2515 996 L 2515 996 Z  M 2515 992 L 2515 991 L 2515 991 L 2516 991 L 2516 992 L 2515 992 L 2515 992 L 2515 992 L 2515 992 L 2515 992 L 2515 992 L 2515 992 L 2515 992 L 2515 992 L 2515 992 Z  M 2515 988 L 2515 987 L 2515 987 L 2516 987 L 2516 988 L 2515 988 L 2515 988 L 2515 988 L 2515 988 L 2515 988 L 2515 988 L 2515 988 L 2515 988 L 2515 988 L 2515 988 L 2515 988 L 2515 988 Z  M 2515 986 L 2515 985 L 2515 985 L 2516 985 L 2516 986 L 2515 986 L 2515 986 L 2515 986 L 2515 986 L 2515 986 L 2515 986 L 2515 986 L 2515 986 L 2515 986 L 2515 986 L 2515 986 L 2515 986 L 2515 986 Z  M 2515 984 L 2515 983 L 2515 983 L 2516 983 L 2516 984 L 2515 984 L 2515 984 L 2515 984 L 2515 984 L 2515 984 L 2515 984 L 2515 984 L 2515 984 L 2515 984 L 2515 984 L 2515 984 L 2515 984 L 2515 984 L 2515 984 Z  M 2515 982 L 2515 981 L 2515 981 L 2516 981 L 2516 982 L 2515 982 L 2515 982 L 2515 982 L 2515 982 L 2515 982 L 2515 982 L 2515 982 L 2515 982 L 2515 982 L 2515 982 L 2515 982 L 2515 982 L 2515 982 L 2515 982 L 2515 982 Z  M 2515 980 L 2515 979 L 2516 979 L 2516 980 L 2515 980 L 2515 980 L 2515 980 L 2515 980 L 2515 980 L 2515 980 L 2515 980 L 2515 980 L 2515 980 L 2515 980 L 2515 980 L 2515 980 L 2515 980 L 2515 980 L 2515 980 L 2515 980 Z  M 2520 982 L 2532 982 L 2532 984 L 2520 984 L 2520 982 L 2520 982 L 2520 982 L 2520 982 L 2520 982 Z  M 2520 997 L 2532 997 L 2532 999 L 2520 999 L 2520 997 L 2520 997 L 2520 997 L 2520 997 Z  M 2518 980 L 2534 980 L 2534 986 L 2518 986 L 2518 980 L 2518 980 L 2518 980 L 2518 980 L 2518 980 Z  M 2518 995 L 2534 995 L 2534 1001 L 2518 1001 L 2518 995 L 2518 995 L 2518 995 L 2518 995 Z  M 2536 994 L 2536 993 L 2536 993 L 2537 993 L 2537 994 L 2536 994 L 2536 994 L 2536 994 L 2536 994 L 2536 994 L 2536 994 L 2536 994 Z  M 2536 1002 L 2536 1001 L 2536 1001 L 2537 1001 L 2537 1002 L 2536 1002 L 2536 1002 L 2536 1002 Z  M 2536 1000 L 2536 999 L 2536 999 L 2537 999 L 2537 1000 L 2536 1000 L 2536 1000 L 2536 1000 L 2536 1000 Z  M 2536 990 L 2536 989 L 2536 989 L 2537 989 L 2537 990 L 2536 990 L 2536 990 L 2536 990 L 2536 990 L 2536 990 L 2536 990 L 2536 990 L 2536 990 L 2536 990 Z  M 2536 998 L 2536 997 L 2536 997 L 2537 997 L 2537 998 L 2536 998 L 2536 998 L 2536 998 L 2536 998 L 2536 998 Z  M 2536 996 L 2536 995 L 2536 995 L 2537 995 L 2537 996 L 2536 996 L 2536 996 L 2536 996 L 2536 996 L 2536 996 L 2536 996 Z  M 2536 992 L 2536 991 L 2536 991 L 2537 991 L 2537 992 L 2536 992 L 2536 992 L 2536 992 L 2536 992 L 2536 992 L 2536 992 L 2536 992 L 2536 992 Z  M 2536 988 L 2536 987 L 2536 987 L 2537 987 L 2537 988 L 2536 988 L 2536 988 L 2536 988 L 2536 988 L 2536 988 L 2536 988 L 2536 988 L 2536 988 L 2536 988 L 2536 988 Z  M 2536 986 L 2536 985 L 2536 985 L 2537 985 L 2537 986 L 2536 986 L 2536 986 L 2536 986 L 2536 986 L 2536 986 L 2536 986 L 2536 986 L 2536 986 L 2536 986 L 2536 986 L 2536 986 Z  M 2536 984 L 2536 983 L 2536 983 L 2537 983 L 2537 984 L 2536 984 L 2536 984 L 2536 984 L 2536 984 L 2536 984 L 2536 984 L 2536 984 L 2536 984 L 2536 984 L 2536 984 L 2536 984 L 2536 984 Z  M 2536 982 L 2536 981 L 2536 981 L 2537 981 L 2537 982 L 2536 982 L 2536 982 L 2536 982 L 2536 982 L 2536 982 L 2536 982 L 2536 982 L 2536 982 L 2536 982 L 2536 982 L 2536 982 L 2536 982 L 2536 982 Z  M 2536 980 L 2536 979 L 2537 979 L 2537 980 L 2536 980 L 2536 980 L 2536 980 L 2536 980 L 2536 980 L 2536 980 L 2536 980 L 2536 980 L 2536 980 L 2536 980 L 2536 980 L 2536 980 L 2536 980 L 2536 980 Z " fill-rule="evenodd" id="Fill-B" fill="rgb(161,161,161)"/></g></svg>