<?xml version="1.0" encoding="UTF-8" standalone="no"?><!-- Generator: Gravit.io --><svg xmlns="http://www.w3.org/2000/svg" xmlns:xlink="http://www.w3.org/1999/xlink" style="isolation:isolate" viewBox="2548 978 24 24" width="24" height="24"><g id="same-height"><g opacity="0"><rect x="2548" y="978" width="24" height="24" transform="matrix(1,0,0,1,0,0)" id="Icon Background" fill="rgb(37,86,132)"/></g><path d=" M 2558 998 L 2558 982 L 2563 982 L 2563 998 L 2558 998 Z " id="Fill-A" fill="rgb(215,215,215)"/><path d=" M 2564 1001 L 2563 1001 L 2563 1001 L 2563 1000 L 2564 1000 L 2564 1001 L 2564 1001 L 2564 1001 L 2564 1001 L 2564 1001 L 2564 1001 L 2564 1001 L 2564 1001 L 2564 1001 Z  M 2572 1001 L 2571 1001 L 2571 1001 L 2571 1000 L 2572 1000 L 2572 1001 L 2572 1001 L 2572 1001 L 2572 1001 L 2572 1001 Z  M 2570 1001 L 2569 1001 L 2569 1001 L 2569 1000 L 2570 1000 L 2570 1001 L 2570 1001 L 2570 1001 L 2570 1001 L 2570 1001 L 2570 1001 Z  M 2560 1001 L 2559 1001 L 2559 1001 L 2559 1000 L 2560 1000 L 2560 1001 L 2560 1001 L 2560 1001 L 2560 1001 L 2560 1001 L 2560 1001 L 2560 1001 L 2560 1001 L 2560 1001 L 2560 1001 L 2560 1001 Z  M 2568 1001 L 2567 1001 L 2567 1001 L 2567 1000 L 2568 1000 L 2568 1001 L 2568 1001 L 2568 1001 L 2568 1001 L 2568 1001 L 2568 1001 L 2568 1001 Z  M 2566 1001 L 2565 1001 L 2565 1001 L 2565 1000 L 2566 1000 L 2566 1001 L 2566 1001 L 2566 1001 L 2566 1001 L 2566 1001 L 2566 1001 L 2566 1001 L 2566 1001 Z  M 2562 1001 L 2561 1001 L 2561 1001 L 2561 1000 L 2562 1000 L 2562 1001 L 2562 1001 L 2562 1001 L 2562 1001 L 2562 1001 L 2562 1001 L 2562 1001 L 2562 1001 L 2562 1001 L 2562 1001 Z  M 2558 1001 L 2557 1001 L 2557 1001 L 2557 1000 L 2558 1000 L 2558 1001 L 2558 1001 L 2558 1001 L 2558 1001 L 2558 1001 L 2558 1001 L 2558 1001 L 2558 1001 L 2558 1001 L 2558 1001 L 2558 1001 L 2558 1001 Z  M 2556 1001 L 2555 1001 L 2555 1001 L 2555 1000 L 2556 1000 L 2556 1001 L 2556 1001 L 2556 1001 L 2556 1001 L 2556 1001 L 2556 1001 L 2556 1001 L 2556 1001 L 2556 1001 L 2556 1001 L 2556 1001 L 2556 1001 L 2556 1001 Z  M 2554 1001 L 2553 1001 L 2553 1001 L 2553 1000 L 2554 1000 L 2554 1001 L 2554 1001 L 2554 1001 L 2554 1001 L 2554 1001 L 2554 1001 L 2554 1001 L 2554 1001 L 2554 1001 L 2554 1001 L 2554 1001 L 2554 1001 L 2554 1001 L 2554 1001 Z  M 2552 1001 L 2551 1001 L 2551 1001 L 2551 1000 L 2552 1000 L 2552 1001 L 2552 1001 L 2552 1001 L 2552 1001 L 2552 1001 L 2552 1001 L 2552 1001 L 2552 1001 L 2552 1001 L 2552 1001 L 2552 1001 L 2552 1001 L 2552 1001 L 2552 1001 L 2552 1001 Z  M 2550 1001 L 2549 1001 L 2549 1000 L 2550 1000 L 2550 1001 L 2550 1001 L 2550 1001 L 2550 1001 L 2550 1001 L 2550 1001 L 2550 1001 L 2550 1001 L 2550 1001 L 2550 1001 L 2550 1001 L 2550 1001 L 2550 1001 L 2550 1001 L 2550 1001 L 2550 1001 Z  M 2552 996 L 2552 984 L 2554 984 L 2554 996 L 2552 996 L 2552 996 L 2552 996 L 2552 996 L 2552 996 Z  M 2567 996 L 2567 984 L 2569 984 L 2569 996 L 2567 996 L 2567 996 L 2567 996 L 2567 996 Z  M 2550 998 L 2550 982 L 2556 982 L 2556 998 L 2550 998 L 2550 998 L 2550 998 L 2550 998 L 2550 998 Z  M 2565 998 L 2565 982 L 2571 982 L 2571 998 L 2565 998 L 2565 998 L 2565 998 L 2565 998 Z  M 2564 980 L 2563 980 L 2563 980 L 2563 979 L 2564 979 L 2564 980 L 2564 980 L 2564 980 L 2564 980 L 2564 980 L 2564 980 L 2564 980 Z  M 2572 980 L 2571 980 L 2571 980 L 2571 979 L 2572 979 L 2572 980 L 2572 980 L 2572 980 Z  M 2570 980 L 2569 980 L 2569 980 L 2569 979 L 2570 979 L 2570 980 L 2570 980 L 2570 980 L 2570 980 Z  M 2560 980 L 2559 980 L 2559 980 L 2559 979 L 2560 979 L 2560 980 L 2560 980 L 2560 980 L 2560 980 L 2560 980 L 2560 980 L 2560 980 L 2560 980 L 2560 980 Z  M 2568 980 L 2567 980 L 2567 980 L 2567 979 L 2568 979 L 2568 980 L 2568 980 L 2568 980 L 2568 980 L 2568 980 Z  M 2566 980 L 2565 980 L 2565 980 L 2565 979 L 2566 979 L 2566 980 L 2566 980 L 2566 980 L 2566 980 L 2566 980 L 2566 980 Z  M 2562 980 L 2561 980 L 2561 980 L 2561 979 L 2562 979 L 2562 980 L 2562 980 L 2562 980 L 2562 980 L 2562 980 L 2562 980 L 2562 980 L 2562 980 Z  M 2558 980 L 2557 980 L 2557 980 L 2557 979 L 2558 979 L 2558 980 L 2558 980 L 2558 980 L 2558 980 L 2558 980 L 2558 980 L 2558 980 L 2558 980 L 2558 980 L 2558 980 Z  M 2556 980 L 2555 980 L 2555 980 L 2555 979 L 2556 979 L 2556 980 L 2556 980 L 2556 980 L 2556 980 L 2556 980 L 2556 980 L 2556 980 L 2556 980 L 2556 980 L 2556 980 L 2556 980 Z  M 2554 980 L 2553 980 L 2553 980 L 2553 979 L 2554 979 L 2554 980 L 2554 980 L 2554 980 L 2554 980 L 2554 980 L 2554 980 L 2554 980 L 2554 980 L 2554 980 L 2554 980 L 2554 980 L 2554 980 Z  M 2552 980 L 2551 980 L 2551 980 L 2551 979 L 2552 979 L 2552 980 L 2552 980 L 2552 980 L 2552 980 L 2552 980 L 2552 980 L 2552 980 L 2552 980 L 2552 980 L 2552 980 L 2552 980 L 2552 980 L 2552 980 Z  M 2550 980 L 2549 980 L 2549 979 L 2550 979 L 2550 980 L 2550 980 L 2550 980 L 2550 980 L 2550 980 L 2550 980 L 2550 980 L 2550 980 L 2550 980 L 2550 980 L 2550 980 L 2550 980 L 2550 980 L 2550 980 Z " fill-rule="evenodd" id="Fill-B" fill="rgb(161,161,161)"/></g></svg>