<?xml version="1.0" encoding="UTF-8" standalone="no"?><!-- Generator: Gravit.io --><svg xmlns="http://www.w3.org/2000/svg" xmlns:xlink="http://www.w3.org/1999/xlink" style="isolation:isolate" viewBox="778 131 24 24" width="24" height="24"><g id="save"><g opacity="0"><rect x="778" y="131" width="24" height="24" transform="matrix(1,0,0,1,0,0)" id="Icon Background" fill="rgb(37,86,132)"/></g><path d=" M 785 152 L 795 152 L 795 146.286 C 795 145.576 794.424 145 793.714 145 L 786.286 145 C 785.576 145 785 145.576 785 146.286 L 785 152 Z " id="Fill-A" fill="rgb(215,215,215)"/><path d=" M 784 152 L 781 152 L 781 134 L 784 134 L 784 139 L 785 140 L 794 140 L 794 134 L 795 134 L 799 138 L 799 152 L 796 152 L 796 146.571 C 796 145.152 794.848 144 793.429 144 L 786.571 144 C 785.152 144 784 145.152 784 146.571 L 784 152 Z  M 789 134 L 793 134 L 793 139 L 789 139 L 789 134 Z " fill-rule="evenodd" id="Fill-B" fill="rgb(161,161,161)"/></g></svg>