<?xml version="1.0" encoding="UTF-8" standalone="no"?><!-- Generator: Gravit.io --><svg xmlns="http://www.w3.org/2000/svg" xmlns:xlink="http://www.w3.org/1999/xlink" style="isolation:isolate" viewBox="1545 1453 24 24" width="24" height="24"><g id="search"><g opacity="0"><rect x="1545" y="1453" width="24" height="24" transform="matrix(1,0,0,1,0,0)" id="Icon Background" fill="rgb(37,86,132)"/></g><path d=" M 1562.451 1468.345 C 1563.458 1466.943 1564 1465.245 1564 1463.5 C 1564 1461.25 1563.1 1459.08 1561.51 1457.49 C 1559.92 1455.9 1557.75 1455 1555.5 1455 C 1553.25 1455 1551.08 1455.9 1549.49 1457.49 C 1547.9 1459.08 1547 1461.25 1547 1463.5 C 1547 1465.75 1547.9 1467.92 1549.49 1469.51 L 1549.49 1469.51 C 1551.08 1471.1 1553.25 1472 1555.5 1472 C 1557.245 1472 1558.943 1471.458 1560.345 1470.451 C 1560.377 1470.492 1560.411 1470.532 1560.448 1470.57 L 1563.277 1473.398 C 1563.667 1473.788 1564.301 1473.788 1564.691 1473.398 L 1565.398 1472.691 C 1565.788 1472.301 1565.788 1471.667 1565.398 1471.277 L 1562.57 1468.448 C 1562.532 1468.411 1562.492 1468.377 1562.451 1468.345 Z  M 1550.9 1468.09 C 1549.68 1466.88 1549 1465.22 1549 1463.5 C 1549 1461.78 1549.68 1460.12 1550.9 1458.9 C 1552.12 1457.68 1553.78 1457 1555.5 1457 C 1557.22 1457 1558.88 1457.68 1560.09 1458.9 C 1561.31 1460.12 1562 1461.78 1562 1463.5 C 1562 1465.22 1561.31 1466.88 1560.09 1468.09 C 1558.88 1469.31 1557.22 1470 1555.5 1470 C 1553.78 1470 1552.12 1469.31 1550.9 1468.09 L 1550.9 1468.09 Z " fill-rule="evenodd" id="Fill-B" fill="rgb(161,161,161)"/></g></svg>