<?xml version="1.0" encoding="UTF-8" standalone="no"?><!-- Generator: Gravit.io --><svg xmlns="http://www.w3.org/2000/svg" xmlns:xlink="http://www.w3.org/1999/xlink" style="isolation:isolate" viewBox="1978 199 24 24" width="24" height="24"><g id="select-deselect-all"><g opacity="0"><rect x="1978" y="199" width="24" height="24" transform="matrix(1,0,0,1,0,0)" id="Icon Background" fill="rgb(37,86,132)"/></g><path d=" M 1978.977 208 L 1979.977 208 L 1979.977 210 L 1978.977 210 L 1978.977 208 L 1978.977 208 L 1978.977 208 L 1978.977 208 L 1978.977 208 L 1978.977 208 L 1978.977 208 L 1978.977 208 L 1978.977 208 L 1978.977 208 Z  M 1999.977 208 L 2000.977 208 L 2000.977 210 L 1999.977 210 L 1999.977 208 L 1999.977 208 L 1999.977 208 L 1999.977 208 L 1999.977 208 L 1999.977 208 L 1999.977 208 L 1999.977 208 L 1999.977 208 Z  M 1998.977 220.987 C 1998.977 220.727 1999.077 220.477 1999.267 220.287 C 1999.447 220.107 1999.707 219.997 1999.967 219.997 C 2000.227 219.997 2000.477 220.107 2000.667 220.287 C 2000.847 220.477 2000.957 220.727 2000.957 220.987 C 2000.957 221.247 2000.847 221.507 2000.667 221.687 C 2000.477 221.877 2000.227 221.977 1999.967 221.977 C 1999.707 221.977 1999.447 221.877 1999.267 221.687 C 1999.077 221.507 1998.977 221.247 1998.977 220.987 L 1998.977 220.987 L 1998.977 220.987 L 1998.977 220.987 L 1998.977 220.987 L 1998.977 220.987 L 1998.977 220.987 L 1998.977 220.987 L 1998.977 220.987 L 1998.977 220.987 L 1998.977 220.987 L 1998.977 220.987 L 1998.977 220.987 L 1998.977 220.987 L 1998.977 220.987 L 1998.977 220.987 L 1998.977 220.987 L 1998.977 220.987 L 1998.977 220.987 L 1998.977 220.987 L 1998.977 220.987 L 1998.977 220.987 Z  M 1998.977 200.987 C 1998.977 200.727 1999.077 200.477 1999.267 200.287 C 1999.447 200.107 1999.707 199.997 1999.967 199.997 C 2000.227 199.997 2000.477 200.107 2000.667 200.287 C 2000.847 200.477 2000.957 200.727 2000.957 200.987 C 2000.957 201.247 2000.847 201.507 2000.667 201.687 C 2000.477 201.877 2000.227 201.977 1999.967 201.977 C 1999.707 201.977 1999.447 201.877 1999.267 201.687 C 1999.077 201.507 1998.977 201.247 1998.977 200.987 L 1998.977 200.987 L 1998.977 200.987 L 1998.977 200.987 L 1998.977 200.987 L 1998.977 200.987 L 1998.977 200.987 L 1998.977 200.987 L 1998.977 200.987 L 1998.977 200.987 L 1998.977 200.987 L 1998.977 200.987 L 1998.977 200.987 L 1998.977 200.987 L 1998.977 200.987 L 1998.977 200.987 L 1998.977 200.987 L 1998.977 200.987 L 1998.977 200.987 L 1998.977 200.987 L 1998.977 200.987 Z  M 1982.977 200 L 1984.977 200 L 1984.977 201 L 1982.977 201 L 1982.977 200 L 1982.977 200 L 1982.977 200 L 1982.977 200 L 1982.977 200 L 1982.977 200 L 1982.977 200 L 1982.977 200 L 1982.977 200 L 1982.977 200 L 1982.977 200 L 1982.977 200 L 1982.977 200 L 1982.977 200 L 1982.977 200 L 1982.977 200 L 1982.977 200 L 1982.977 200 L 1982.977 200 Z  M 1979 220.987 C 1979 220.727 1979.1 220.477 1979.29 220.287 C 1979.47 220.107 1979.73 219.997 1979.99 219.997 C 1980.25 219.997 1980.5 220.107 1980.69 220.287 C 1980.87 220.477 1980.98 220.727 1980.98 220.987 C 1980.98 221.247 1980.87 221.507 1980.69 221.687 C 1980.5 221.877 1980.25 221.977 1979.99 221.977 C 1979.73 221.977 1979.47 221.877 1979.29 221.687 C 1979.1 221.507 1979 221.247 1979 220.987 L 1979 220.987 L 1979 220.987 L 1979 220.987 L 1979 220.987 L 1979 220.987 L 1979 220.987 L 1979 220.987 L 1979 220.987 L 1979 220.987 L 1979 220.987 L 1979 220.987 L 1979 220.987 L 1979 220.987 L 1979 220.987 L 1979 220.987 L 1979 220.987 L 1979 220.987 L 1979 220.987 L 1979 220.987 L 1979 220.987 L 1979 220.987 L 1979 220.987 Z  M 1986.977 200 L 1988.977 200 L 1988.977 201 L 1986.977 201 L 1986.977 200 L 1986.977 200 L 1986.977 200 L 1986.977 200 L 1986.977 200 L 1986.977 200 L 1986.977 200 L 1986.977 200 L 1986.977 200 L 1986.977 200 L 1986.977 200 L 1986.977 200 L 1986.977 200 L 1986.977 200 L 1986.977 200 L 1986.977 200 L 1986.977 200 L 1986.977 200 Z  M 1990.977 200 L 1992.977 200 L 1992.977 201 L 1990.977 201 L 1990.977 200 L 1990.977 200 L 1990.977 200 L 1990.977 200 L 1990.977 200 L 1990.977 200 L 1990.977 200 L 1990.977 200 L 1990.977 200 L 1990.977 200 L 1990.977 200 L 1990.977 200 L 1990.977 200 L 1990.977 200 L 1990.977 200 L 1990.977 200 L 1990.977 200 Z  M 1979 200.987 C 1979 200.727 1979.1 200.477 1979.29 200.287 C 1979.47 200.107 1979.73 199.997 1979.99 199.997 C 1980.25 199.997 1980.5 200.107 1980.69 200.287 C 1980.87 200.477 1980.98 200.727 1980.98 200.987 C 1980.98 201.247 1980.87 201.507 1980.69 201.687 C 1980.5 201.877 1980.25 201.977 1979.99 201.977 C 1979.73 201.977 1979.47 201.877 1979.29 201.687 C 1979.1 201.507 1979 201.247 1979 200.987 L 1979 200.987 L 1979 200.987 L 1979 200.987 L 1979 200.987 L 1979 200.987 L 1979 200.987 L 1979 200.987 L 1979 200.987 L 1979 200.987 L 1979 200.987 L 1979 200.987 L 1979 200.987 L 1979 200.987 L 1979 200.987 L 1979 200.987 L 1979 200.987 L 1979 200.987 L 1979 200.987 L 1979 200.987 L 1979 200.987 L 1979 200.987 L 1979 200.987 Z  M 1994.977 200 L 1996.977 200 L 1996.977 201 L 1994.977 201 L 1994.977 200 L 1994.977 200 L 1994.977 200 L 1994.977 200 L 1994.977 200 L 1994.977 200 L 1994.977 200 L 1994.977 200 L 1994.977 200 L 1994.977 200 L 1994.977 200 L 1994.977 200 L 1994.977 200 L 1994.977 200 L 1994.977 200 L 1994.977 200 Z  M 1982.98 213 L 1987.98 213 L 1987.98 218 L 1982.98 218 L 1982.98 213 L 1982.98 213 L 1982.98 213 L 1982.98 213 L 1982.98 213 L 1982.98 213 L 1982.98 213 L 1982.98 213 L 1982.98 213 L 1982.98 213 L 1982.98 213 L 1982.98 213 L 1982.98 213 L 1982.98 213 L 1982.98 213 Z  M 1978.977 204 L 1979.977 204 L 1979.977 206 L 1978.977 206 L 1978.977 204 L 1978.977 204 L 1978.977 204 L 1978.977 204 L 1978.977 204 L 1978.977 204 L 1978.977 204 L 1978.977 204 L 1978.977 204 L 1978.977 204 L 1978.977 204 L 1978.977 204 L 1978.977 204 L 1978.977 204 L 1978.977 204 Z  M 1991.98 204 L 1996.98 204 L 1996.98 209 L 1991.98 209 L 1991.98 204 L 1991.98 204 L 1991.98 204 L 1991.98 204 L 1991.98 204 L 1991.98 204 L 1991.98 204 L 1991.98 204 L 1991.98 204 L 1991.98 204 L 1991.98 204 L 1991.98 204 L 1991.98 204 L 1991.98 204 Z  M 1991.98 213 L 1996.98 213 L 1996.98 218 L 1991.98 218 L 1991.98 213 L 1991.98 213 L 1991.98 213 L 1991.98 213 L 1991.98 213 L 1991.98 213 L 1991.98 213 L 1991.98 213 L 1991.98 213 L 1991.98 213 L 1991.98 213 L 1991.98 213 L 1991.98 213 Z  M 1999.977 204 L 2000.977 204 L 2000.977 206 L 1999.977 206 L 1999.977 204 L 1999.977 204 L 1999.977 204 L 1999.977 204 L 1999.977 204 L 1999.977 204 L 1999.977 204 L 1999.977 204 L 1999.977 204 L 1999.977 204 L 1999.977 204 Z  M 1978.977 212 L 1979.977 212 L 1979.977 214 L 1978.977 214 L 1978.977 212 L 1978.977 212 L 1978.977 212 L 1978.977 212 L 1978.977 212 L 1978.977 212 L 1978.977 212 L 1978.977 212 Z  M 1999.977 212 L 2000.977 212 L 2000.977 214 L 1999.977 214 L 1999.977 212 L 1999.977 212 L 1999.977 212 L 1999.977 212 L 1999.977 212 L 1999.977 212 L 1999.977 212 Z  M 1978.977 216 L 1979.977 216 L 1979.977 218 L 1978.977 218 L 1978.977 216 L 1978.977 216 L 1978.977 216 L 1978.977 216 L 1978.977 216 L 1978.977 216 Z  M 1999.977 216 L 2000.977 216 L 2000.977 218 L 1999.977 218 L 1999.977 216 L 1999.977 216 L 1999.977 216 L 1999.977 216 L 1999.977 216 Z  M 1982.977 221 L 1984.977 221 L 1984.977 222 L 1982.977 222 L 1982.977 221 L 1982.977 221 L 1982.977 221 L 1982.977 221 Z  M 1986.977 221 L 1988.977 221 L 1988.977 222 L 1986.977 222 L 1986.977 221 L 1986.977 221 L 1986.977 221 Z  M 1990.977 221 L 1992.977 221 L 1992.977 222 L 1990.977 222 L 1990.977 221 L 1990.977 221 Z  M 1997.977 200.988 C 1997.977 199.891 1998.868 199 1999.965 199 C 2001.063 199 2001.954 199.891 2001.954 200.988 C 2001.954 202.086 2001.063 202.977 1999.965 202.977 C 1998.868 202.977 1997.977 202.086 1997.977 200.988 L 1997.977 200.988 L 1997.977 200.988 L 1997.977 200.988 L 1997.977 200.988 L 1997.977 200.988 L 1997.977 200.988 L 1997.977 200.988 L 1997.977 200.988 L 1997.977 200.988 L 1997.977 200.988 L 1997.977 200.988 L 1997.977 200.988 L 1997.977 200.988 L 1997.977 200.988 L 1997.977 200.988 L 1997.977 200.988 L 1997.977 200.988 L 1997.977 200.988 L 1997.977 200.988 L 1997.977 200.988 Z  M 1978 200.988 C 1978 199.891 1978.891 199 1979.988 199 C 1981.086 199 1981.977 199.891 1981.977 200.988 C 1981.977 202.086 1981.086 202.977 1979.988 202.977 C 1978.891 202.977 1978 202.086 1978 200.988 L 1978 200.988 L 1978 200.988 L 1978 200.988 L 1978 200.988 L 1978 200.988 L 1978 200.988 L 1978 200.988 L 1978 200.988 L 1978 200.988 L 1978 200.988 L 1978 200.988 L 1978 200.988 L 1978 200.988 L 1978 200.988 L 1978 200.988 L 1978 200.988 L 1978 200.988 L 1978 200.988 L 1978 200.988 L 1978 200.988 L 1978 200.988 L 1978 200.988 Z  M 1981.977 212 L 1988.977 212 L 1988.977 219 L 1981.977 219 L 1981.977 212 L 1981.977 212 L 1981.977 212 L 1981.977 212 L 1981.977 212 L 1981.977 212 L 1981.977 212 L 1981.977 212 L 1981.977 212 L 1981.977 212 L 1981.977 212 L 1981.977 212 L 1981.977 212 L 1981.977 212 L 1981.977 212 Z  M 1978 220.988 C 1978 219.891 1978.891 219 1979.988 219 C 1981.086 219 1981.977 219.891 1981.977 220.988 C 1981.977 222.086 1981.086 222.977 1979.988 222.977 C 1978.891 222.977 1978 222.086 1978 220.988 L 1978 220.988 L 1978 220.988 L 1978 220.988 L 1978 220.988 L 1978 220.988 L 1978 220.988 L 1978 220.988 L 1978 220.988 L 1978 220.988 L 1978 220.988 L 1978 220.988 L 1978 220.988 L 1978 220.988 L 1978 220.988 L 1978 220.988 L 1978 220.988 L 1978 220.988 L 1978 220.988 L 1978 220.988 L 1978 220.988 L 1978 220.988 L 1978 220.988 Z  M 1990.977 203 L 1997.977 203 L 1997.977 210 L 1990.977 210 L 1990.977 203 L 1990.977 203 L 1990.977 203 L 1990.977 203 L 1990.977 203 L 1990.977 203 L 1990.977 203 L 1990.977 203 L 1990.977 203 L 1990.977 203 L 1990.977 203 L 1990.977 203 L 1990.977 203 L 1990.977 203 Z  M 1997.977 220.988 C 1997.977 219.891 1998.868 219 1999.965 219 C 2001.063 219 2001.954 219.891 2001.954 220.988 C 2001.954 222.086 2001.063 222.977 1999.965 222.977 C 1998.868 222.977 1997.977 222.086 1997.977 220.988 L 1997.977 220.988 L 1997.977 220.988 L 1997.977 220.988 L 1997.977 220.988 L 1997.977 220.988 L 1997.977 220.988 L 1997.977 220.988 L 1997.977 220.988 L 1997.977 220.988 L 1997.977 220.988 L 1997.977 220.988 L 1997.977 220.988 L 1997.977 220.988 L 1997.977 220.988 L 1997.977 220.988 L 1997.977 220.988 L 1997.977 220.988 L 1997.977 220.988 L 1997.977 220.988 L 1997.977 220.988 L 1997.977 220.988 Z  M 1990.977 212 L 1997.977 212 L 1997.977 219 L 1990.977 219 L 1990.977 212 L 1990.977 212 L 1990.977 212 L 1990.977 212 L 1990.977 212 L 1990.977 212 L 1990.977 212 L 1990.977 212 L 1990.977 212 L 1990.977 212 L 1990.977 212 L 1990.977 212 L 1990.977 212 Z  M 1994.977 221 L 1996.977 221 L 1996.977 222 L 1994.977 222 L 1994.977 221 Z " fill-rule="evenodd" id="Fill-B" fill="rgb(161,161,161)"/><path d=" M 1981.977 203 L 1988.977 203 L 1988.977 210 L 1981.977 210 L 1981.977 203 L 1981.977 203 Z  M 1981.977 212 L 1988.977 212 L 1981.977 219 L 1981.977 212 L 1981.977 212 Z  M 1990.977 203 L 1997.977 203 L 1990.977 210 L 1990.977 203 Z " fill-rule="evenodd" id="Fill-A" fill="rgb(215,215,215)"/></g></svg>