<?xml version="1.0" encoding="UTF-8" standalone="no"?><!-- Generator: Gravit.io --><svg xmlns="http://www.w3.org/2000/svg" xmlns:xlink="http://www.w3.org/1999/xlink" style="isolation:isolate" viewBox="1150 2319 24 24" width="24" height="24"><g id="select-by-font"><g opacity="0"><rect x="1150" y="2319" width="24" height="24" transform="matrix(1,0,0,1,0,0)" id="Icon Background" fill="rgb(37,86,132)"/></g><path d=" M 1167.032 2322 L 1167.032 2322 Q 1166.864 2324.256 1166.864 2326.032 L 1166.864 2326.032 L 1166.864 2326.032 Q 1166.864 2327.136 1166.936 2327.76 L 1166.936 2327.76 L 1166.384 2327.76 L 1166.384 2327.76 Q 1165.808 2324.976 1164.62 2323.764 L 1164.62 2323.764 L 1164.62 2323.764 Q 1163.432 2322.552 1161.968 2322.552 L 1161.968 2322.552 L 1161.656 2322.552 L 1161.656 2322.552 Q 1161.008 2322.552 1160.708 2322.66 L 1160.708 2322.66 L 1160.708 2322.66 Q 1160.408 2322.768 1160.3 2323.068 L 1160.3 2323.068 L 1160.3 2323.068 Q 1160.192 2323.368 1160.192 2324.064 L 1160.192 2324.064 L 1160.192 2330.208 L 1160.432 2330.208 L 1160.432 2330.208 Q 1161.68 2330.208 1162.568 2329.224 L 1162.568 2329.224 L 1162.568 2329.224 Q 1163.456 2328.24 1163.696 2327.04 L 1163.696 2327.04 L 1164.248 2327.04 L 1164.248 2327.04 Q 1164.176 2328.048 1164.176 2329.296 L 1164.176 2329.296 L 1164.176 2330.448 L 1164.176 2330.448 Q 1164.176 2331.672 1164.32 2333.856 L 1164.32 2333.856 L 1163.768 2333.856 L 1163.768 2333.856 Q 1163.552 2332.488 1162.652 2331.588 L 1162.652 2331.588 L 1162.652 2331.588 Q 1161.752 2330.688 1160.432 2330.688 L 1160.432 2330.688 L 1160.192 2330.688 L 1160.192 2336.208 L 1160.192 2336.208 Q 1160.192 2337.216 1160.396 2337.672 L 1160.396 2337.672 L 1160.396 2337.672 Q 1160.6 2338.128 1161.14 2338.284 L 1161.14 2338.284 L 1161.14 2338.284 Q 1161.68 2338.44 1162.856 2338.44 L 1162.856 2338.44 L 1162.856 2338.992 L 1162.856 2338.992 Q 1159.616 2338.92 1157.912 2338.92 L 1157.912 2338.92 L 1157.912 2338.92 Q 1156.784 2338.92 1154.768 2338.968 L 1154.768 2338.968 L 1153.616 2338.992 L 1153.616 2338.512 L 1153.616 2338.512 Q 1154.384 2338.464 1154.732 2338.32 L 1154.732 2338.32 L 1154.732 2338.32 Q 1155.08 2338.176 1155.2 2337.768 L 1155.2 2337.768 L 1155.2 2337.768 Q 1155.32 2337.36 1155.32 2336.448 L 1155.32 2336.448 L 1155.32 2324.544 L 1155.32 2324.544 Q 1155.32 2323.632 1155.188 2323.224 L 1155.188 2323.224 L 1155.188 2323.224 Q 1155.056 2322.816 1154.72 2322.672 L 1154.72 2322.672 L 1154.72 2322.672 Q 1154.384 2322.528 1153.616 2322.48 L 1153.616 2322.48 L 1153.616 2322 L 1153.616 2322 Q 1156.4 2322.072 1162.016 2322.072 L 1162.016 2322.072 L 1162.016 2322.072 Q 1165.544 2322.072 1167.032 2322 L 1167.032 2322 Z " id="Fill-B" fill="rgb(161,161,161)"/><path d=" M 1168.696 2339 L 1171.116 2339 L 1166.116 2334 L 1166.116 2341 L 1167.758 2339.358 L 1168.546 2341.2 L 1168.736 2341.66 L 1169.656 2341.26 L 1169.466 2340.8 L 1168.696 2339 Z " id="Fill-A" fill="rgb(215,215,215)"/></g></svg>