<?xml version="1.0" encoding="UTF-8" standalone="no"?><!-- Generator: Gravit.io --><svg xmlns="http://www.w3.org/2000/svg" xmlns:xlink="http://www.w3.org/1999/xlink" style="isolation:isolate" viewBox="778 1593 24 24" width="24" height="24"><g id="send-backward"><g opacity="0"><rect x="778" y="1593" width="24" height="24" transform="matrix(1,0,0,1,0,0)" id="Icon Background" fill="rgb(37,86,132)"/></g><path d=" M 797.51 1608.13 C 797.75 1608 798.02 1607.97 798.27 1608.04 C 798.53 1608.11 798.75 1608.28 798.87 1608.51 C 799 1608.75 799.03 1609.02 798.96 1609.27 C 798.89 1609.53 798.72 1609.75 798.49 1609.87 L 789 1615.14 L 779.51 1609.87 C 779.28 1609.75 779.11 1609.53 779.04 1609.27 C 778.97 1609.02 779 1608.75 779.13 1608.51 C 779.25 1608.28 779.47 1608.11 779.73 1608.04 C 779.98 1607.97 780.25 1608 780.49 1608.13 L 789 1612.86 L 797.51 1608.13 Z  M 793.891 1604.31 L 789 1607 L 779 1601.5 L 789 1596 L 794.464 1599.005 C 792.163 1599.108 791.397 1600.722 792.769 1602.695 L 793.891 1604.31 Z " fill-rule="evenodd" id="Fill-B" fill="rgb(161,161,161)"/><path d=" M 797.008 1601 L 794.008 1601 L 797.508 1606 L 801.008 1601 L 798.008 1601 L 798.008 1599 L 797.008 1599 L 797.008 1601 Z  M 795.955 1607.278 L 789 1611.14 L 779.51 1605.87 C 779.28 1605.75 779.11 1605.53 779.04 1605.27 C 778.97 1605.02 779 1604.75 779.13 1604.51 C 779.25 1604.28 779.47 1604.11 779.73 1604.04 C 779.98 1603.97 780.25 1604 780.49 1604.13 L 789 1608.86 L 794.81 1605.631 L 795.955 1607.278 Z " fill-rule="evenodd" id="Fill-A" fill="rgb(215,215,215)"/></g></svg>