<?xml version="1.0" encoding="UTF-8" standalone="no"?><!-- Generator: Gravit.io --><svg xmlns="http://www.w3.org/2000/svg" xmlns:xlink="http://www.w3.org/1999/xlink" style="isolation:isolate" viewBox="2441 966 24 24" width="24" height="24"><g id="Settings-2"><g opacity="0"><rect x="2441" y="966" width="24" height="24" transform="matrix(1,0,0,1,0,0)" id="Icon Background" fill="rgb(37,86,132)"/></g><path d=" M 2457.706 986.826 L 2455.49 985.157 L 2454.031 985.507 L 2452.814 988 L 2450.087 987.568 L 2449.7 984.821 L 2448.42 984.037 L 2445.797 984.939 L 2444.174 982.706 L 2445.843 980.49 L 2445.493 979.031 L 2443 977.814 L 2443.432 975.087 L 2446.178 974.7 L 2446.963 973.42 L 2446.061 970.797 L 2448.294 969.174 L 2450.51 970.843 L 2451.969 970.493 L 2453.186 968 L 2455.913 968.432 L 2456.3 971.179 L 2457.58 971.963 L 2460.203 971.061 L 2461.826 973.294 L 2460.157 975.51 L 2460.507 976.969 L 2463 978.186 L 2462.568 980.913 L 2459.822 981.3 L 2459.037 982.58 L 2459.939 985.203 L 2457.706 986.826 Z  M 2449.282 977.747 C 2449.282 975.695 2450.948 974.029 2453 974.029 C 2455.052 974.029 2456.718 975.695 2456.718 977.747 C 2456.718 979.799 2455.052 981.465 2453 981.465 C 2450.948 981.465 2449.282 979.799 2449.282 977.747 Z " fill-rule="evenodd" id="Fill-B" fill="rgb(161,161,161)"/></g></svg>