<?xml version="1.0" encoding="UTF-8" standalone="no"?><!-- Generator: Gravit.io --><svg xmlns="http://www.w3.org/2000/svg" xmlns:xlink="http://www.w3.org/1999/xlink" style="isolation:isolate" viewBox="1545 2801 24 24" width="24" height="24"><g id="settings"><g opacity="0"><rect x="1545" y="2801" width="24" height="24" transform="matrix(1,0,0,1,0,0)" id="Icon Background" fill="rgb(37,86,132)"/></g><path d=" M 1562 2805.5 C 1562 2805.1 1562.16 2804.72 1562.44 2804.44 C 1562.72 2804.16 1563.1 2804 1563.5 2804 C 1563.9 2804 1564.28 2804.16 1564.56 2804.44 C 1564.84 2804.72 1565 2805.1 1565 2805.5 C 1565 2805.9 1564.84 2806.28 1564.56 2806.56 C 1564.28 2806.84 1563.9 2807 1563.5 2807 C 1563.1 2807 1562.72 2806.84 1562.44 2806.56 C 1562.16 2806.28 1562 2805.9 1562 2805.5 L 1562 2805.5 L 1562 2805.5 L 1562 2805.5 L 1562 2805.5 L 1562 2805.5 L 1562 2805.5 Z  M 1552 2812.5 C 1552 2812.1 1552.16 2811.72 1552.44 2811.44 C 1552.72 2811.16 1553.1 2811 1553.5 2811 C 1553.9 2811 1554.28 2811.16 1554.56 2811.44 C 1554.84 2811.72 1555 2812.1 1555 2812.5 C 1555 2812.9 1554.84 2813.28 1554.56 2813.56 C 1554.28 2813.84 1553.9 2814 1553.5 2814 C 1553.1 2814 1552.72 2813.84 1552.44 2813.56 C 1552.16 2813.28 1552 2812.9 1552 2812.5 L 1552 2812.5 L 1552 2812.5 L 1552 2812.5 L 1552 2812.5 L 1552 2812.5 L 1552 2812.5 Z  M 1562 2819.5 C 1562 2819.1 1562.16 2818.72 1562.44 2818.44 C 1562.72 2818.16 1563.1 2818 1563.5 2818 C 1563.9 2818 1564.28 2818.16 1564.56 2818.44 C 1564.84 2818.72 1565 2819.1 1565 2819.5 C 1565 2819.9 1564.84 2820.28 1564.56 2820.56 C 1564.28 2820.84 1563.9 2821 1563.5 2821 C 1563.1 2821 1562.72 2820.84 1562.44 2820.56 C 1562.16 2820.28 1562 2819.9 1562 2819.5 L 1562 2819.5 L 1562 2819.5 L 1562 2819.5 L 1562 2819.5 L 1562 2819.5 Z  M 1547 2805 L 1558 2805 L 1558 2806 L 1547 2806 L 1547 2805 L 1547 2805 L 1547 2805 L 1547 2805 Z  M 1559 2812 L 1567 2812 L 1567 2813 L 1559 2813 L 1559 2812 L 1559 2812 Z  M 1550.036 2813 L 1550.036 2813 C 1550.143 2813.745 1550.49 2814.439 1551.03 2814.98 C 1551.68 2815.63 1552.57 2816 1553.5 2816 C 1554.43 2816 1555.32 2815.63 1555.98 2814.98 C 1556.63 2814.32 1557 2813.43 1557 2812.5 C 1557 2811.57 1556.63 2810.68 1555.98 2810.03 C 1555.32 2809.37 1554.43 2809 1553.5 2809 C 1552.57 2809 1551.68 2809.37 1551.03 2810.03 C 1550.49 2810.562 1550.143 2811.256 1550.036 2812 L 1547 2812 L 1547 2813 L 1550.036 2813 L 1550.036 2813 L 1550.036 2813 Z  M 1560 2805.5 C 1560 2804.57 1560.37 2803.68 1561.03 2803.03 C 1561.68 2802.37 1562.57 2802 1563.5 2802 C 1564.43 2802 1565.32 2802.37 1565.98 2803.03 C 1566.63 2803.68 1567 2804.57 1567 2805.5 C 1567 2806.43 1566.63 2807.32 1565.98 2807.98 C 1565.32 2808.63 1564.43 2809 1563.5 2809 C 1562.57 2809 1561.68 2808.63 1561.03 2807.98 C 1560.37 2807.32 1560 2806.43 1560 2805.5 L 1560 2805.5 L 1560 2805.5 L 1560 2805.5 L 1560 2805.5 L 1560 2805.5 L 1560 2805.5 Z  M 1560 2819.5 C 1560 2818.57 1560.37 2817.68 1561.03 2817.03 C 1561.68 2816.37 1562.57 2816 1563.5 2816 C 1564.43 2816 1565.32 2816.37 1565.98 2817.03 C 1566.63 2817.68 1567 2818.57 1567 2819.5 C 1567 2820.43 1566.63 2821.32 1565.98 2821.98 C 1565.32 2822.63 1564.43 2823 1563.5 2823 C 1562.57 2823 1561.68 2822.63 1561.03 2821.98 C 1560.37 2821.32 1560 2820.43 1560 2819.5 L 1560 2819.5 L 1560 2819.5 L 1560 2819.5 L 1560 2819.5 L 1560 2819.5 Z  M 1547 2819 L 1558 2819 L 1558 2820 L 1547 2820 L 1547 2819 Z " fill-rule="evenodd" id="Fill-B" fill="rgb(161,161,161)"/></g></svg>