<?xml version="1.0" encoding="UTF-8" standalone="no"?><!-- Generator: Gravit.io --><svg xmlns="http://www.w3.org/2000/svg" xmlns:xlink="http://www.w3.org/1999/xlink" style="isolation:isolate" viewBox="398 535 24 24" width="24" height="24"><g id="shapes"><g opacity="0"><rect x="398" y="535" width="24" height="24" transform="matrix(1,0,0,1,0,0)" id="Icon Background" fill="rgb(37,86,132)"/></g><path d=" M 413 542.515 L 413 536 L 399 536 L 399 536 L 399 550 L 405.515 550 C 405.505 550.165 405.5 550.332 405.5 550.5 L 405.5 550.5 C 405.5 554.915 409.085 558.5 413.5 558.5 C 417.915 558.5 421.5 554.915 421.5 550.5 C 421.5 546.085 417.915 542.5 413.5 542.5 C 413.332 542.5 413.165 542.505 413 542.515 Z  M 405.899 548 L 401 548 L 401 538 L 401 538 L 411 538 L 411 542.899 C 408.594 543.691 406.691 545.594 405.899 548 Z  M 407.5 550.5 C 407.5 548.91 408.13 547.38 409.26 546.26 C 410.38 545.13 411.91 544.5 413.5 544.5 C 415.09 544.5 416.62 545.13 417.74 546.26 C 418.87 547.38 419.5 548.91 419.5 550.5 C 419.5 552.09 418.87 553.62 417.74 554.74 C 416.62 555.87 415.09 556.5 413.5 556.5 C 411.91 556.5 410.38 555.87 409.26 554.74 C 408.13 553.62 407.5 552.09 407.5 550.5 L 407.5 550.5 Z " fill-rule="evenodd" id="Fill-B" fill="rgb(161,161,161)"/></g></svg>