<?xml version="1.0" encoding="UTF-8" standalone="no"?><!-- Generator: Gravit.io --><svg xmlns="http://www.w3.org/2000/svg" xmlns:xlink="http://www.w3.org/1999/xlink" style="isolation:isolate" viewBox="1505 1057 24 24" width="24" height="24"><g id="show-big"><g opacity="0"><rect x="1505" y="1057" width="24" height="24" transform="matrix(1,0,0,1,0,0)" id="Icon Background" fill="rgb(37,86,132)"/></g><path d=" M 1506.429 1069 Q 1510.83 1062.16 1517 1062.16 Q 1523.17 1062.16 1527.571 1069 Q 1522.995 1075.84 1517 1075.84 Q 1511.005 1075.84 1506.429 1069 Z  M 1512.647 1069 C 1512.647 1066.598 1514.598 1064.647 1517 1064.647 C 1519.402 1064.647 1521.353 1066.598 1521.353 1069 C 1521.353 1071.402 1519.402 1073.353 1517 1073.353 C 1514.598 1073.353 1512.647 1071.402 1512.647 1069 Z " fill-rule="evenodd" id="Compound Path" fill="rgb(161,161,161)"/><path d=" M 1515 1069 C 1515 1067.896 1515.896 1067 1517 1067 C 1518.104 1067 1519 1067.896 1519 1069 C 1519 1070.104 1518.104 1071 1517 1071 C 1515.896 1071 1515 1070.104 1515 1069 Z " id="Path" fill="rgb(161,161,161)"/></g></svg>