<?xml version="1.0" encoding="UTF-8" standalone="no"?><!-- Generator: Gravit.io --><svg xmlns="http://www.w3.org/2000/svg" xmlns:xlink="http://www.w3.org/1999/xlink" style="isolation:isolate" viewBox="1150 3759 24 24" width="24" height="24"><g id="show-small"><g opacity="0"><rect x="1150" y="3759" width="24" height="24" transform="matrix(1,0,0,1,0,0)" id="Icon Background" fill="rgb(37,86,132)"/></g><path d=" M 1159 3771.5 C 1159 3769.568 1160.568 3768 1162.5 3768 C 1164.432 3768 1166 3769.568 1166 3771.5 C 1166 3773.432 1164.432 3775 1162.5 3775 C 1160.568 3775 1159 3773.432 1159 3771.5 L 1159 3771.5 Z  M 1154 3771.5 Q 1157.539 3766 1162.5 3766 Q 1167.461 3766 1171 3771.5 Q 1167.32 3777 1162.5 3777 Q 1157.68 3777 1154 3771.5 L 1154 3771.5 Z  M 1161 3771.5 C 1161 3770.672 1161.672 3770 1162.5 3770 C 1163.328 3770 1164 3770.672 1164 3771.5 C 1164 3772.328 1163.328 3773 1162.5 3773 C 1161.672 3773 1161 3772.328 1161 3771.5 Z " fill-rule="evenodd" id="Fill-B" fill="rgb(161,161,161)"/></g></svg>