<?xml version="1.0" encoding="UTF-8" standalone="no"?><!-- Generator: Gravit.io --><svg xmlns="http://www.w3.org/2000/svg" xmlns:xlink="http://www.w3.org/1999/xlink" style="isolation:isolate" viewBox="1150 2121 24 24" width="24" height="24"><g id="smalcaps-text"><g opacity="0"><rect x="1150" y="2121" width="24" height="24" transform="matrix(1,0,0,1,0,0)" id="Icon Background" fill="rgb(37,86,132)"/></g><path d=" M 1171.088 2137.32 L 1171.088 2137.32 Q 1171.244 2137.704 1171.43 2137.89 L 1171.43 2137.89 L 1171.43 2137.89 Q 1171.616 2138.076 1171.796 2138.088 L 1171.796 2138.088 L 1171.796 2138.328 L 1171.796 2138.328 Q 1170.932 2138.292 1169.612 2138.292 L 1169.612 2138.292 L 1169.612 2138.292 Q 1168.244 2138.292 1167.596 2138.328 L 1167.596 2138.328 L 1167.596 2138.088 L 1167.596 2138.088 Q 1168.052 2138.064 1168.244 2137.974 L 1168.244 2137.974 L 1168.244 2137.974 Q 1168.436 2137.884 1168.436 2137.656 L 1168.436 2137.656 L 1168.436 2137.656 Q 1168.436 2137.44 1168.292 2137.08 L 1168.292 2137.08 L 1167.584 2135.112 L 1165.16 2135.112 L 1164.956 2135.652 L 1164.956 2135.652 Q 1164.56 2136.672 1164.56 2137.212 L 1164.56 2137.212 L 1164.56 2137.212 Q 1164.56 2137.704 1164.836 2137.884 L 1164.836 2137.884 L 1164.836 2137.884 Q 1165.112 2138.064 1165.652 2138.088 L 1165.652 2138.088 L 1165.652 2138.328 L 1165.652 2138.328 Q 1164.752 2138.292 1164.08 2138.292 L 1164.08 2138.292 L 1164.08 2138.292 Q 1163.516 2138.292 1163.156 2138.328 L 1163.156 2138.328 L 1163.156 2138.088 L 1163.156 2138.088 Q 1163.456 2138.04 1163.72 2137.716 L 1163.72 2137.716 L 1163.72 2137.716 Q 1163.984 2137.392 1164.26 2136.684 L 1164.26 2136.684 L 1166.924 2129.832 L 1166.924 2129.832 Q 1167.308 2129.856 1167.56 2129.856 L 1167.56 2129.856 L 1167.56 2129.856 Q 1167.8 2129.856 1168.184 2129.832 L 1168.184 2129.832 L 1171.088 2137.32 Z  M 1165.256 2134.872 L 1167.5 2134.872 L 1166.408 2131.872 L 1165.256 2134.872 Z  M 1162.576 2136.984 L 1162.576 2136.984 Q 1162.784 2137.496 1163.032 2137.744 L 1163.032 2137.744 L 1163.032 2137.744 Q 1163.28 2137.992 1163.52 2138.008 L 1163.52 2138.008 L 1163.52 2138.328 L 1163.52 2138.328 Q 1162.368 2138.28 1160.608 2138.28 L 1160.608 2138.28 L 1160.608 2138.28 Q 1158.784 2138.28 1157.92 2138.328 L 1157.92 2138.328 L 1157.92 2138.008 L 1157.92 2138.008 Q 1158.528 2137.976 1158.784 2137.856 L 1158.784 2137.856 L 1158.784 2137.856 Q 1159.04 2137.736 1159.04 2137.432 L 1159.04 2137.432 L 1159.04 2137.432 Q 1159.04 2137.144 1158.848 2136.664 L 1158.848 2136.664 L 1157.904 2134.04 L 1154.672 2134.04 L 1154.4 2134.76 L 1154.4 2134.76 Q 1153.872 2136.12 1153.872 2136.84 L 1153.872 2136.84 L 1153.872 2136.84 Q 1153.872 2137.496 1154.24 2137.736 L 1154.24 2137.736 L 1154.24 2137.736 Q 1154.608 2137.976 1155.328 2138.008 L 1155.328 2138.008 L 1155.328 2138.328 L 1155.328 2138.328 Q 1154.128 2138.28 1153.232 2138.28 L 1153.232 2138.28 L 1153.232 2138.28 Q 1152.48 2138.28 1152 2138.328 L 1152 2138.328 L 1152 2138.008 L 1152 2138.008 Q 1152.4 2137.944 1152.752 2137.512 L 1152.752 2137.512 L 1152.752 2137.512 Q 1153.104 2137.08 1153.472 2136.136 L 1153.472 2136.136 L 1157.024 2127 L 1157.024 2127 Q 1157.536 2127.032 1157.872 2127.032 L 1157.872 2127.032 L 1157.872 2127.032 Q 1158.192 2127.032 1158.704 2127 L 1158.704 2127 L 1162.576 2136.984 Z  M 1154.8 2133.72 L 1157.792 2133.72 L 1156.336 2129.72 L 1154.8 2133.72 Z " id="Fill-B" fill="rgb(161,161,161)"/></g></svg>