<?xml version="1.0" encoding="UTF-8" standalone="no"?><!-- Generator: Gravit.io --><svg xmlns="http://www.w3.org/2000/svg" xmlns:xlink="http://www.w3.org/1999/xlink" style="isolation:isolate" viewBox="2559 1016 24 24" width="24" height="24"><g id="snap-to-half"><g opacity="0"><rect x="2559" y="1016" width="24" height="24" transform="matrix(0,-1,1,0,1543,3599)" id="Icon Background" fill="rgb(37,86,132)"/></g><path d=" M 2570 1039 L 2570 1038 L 2570 1038 L 2571 1038 L 2571 1039 L 2570 1039 L 2570 1039 L 2570 1039 L 2570 1039 Z  M 2570 1037 L 2570 1036 L 2570 1036 L 2571 1036 L 2571 1037 L 2570 1037 L 2570 1037 L 2570 1037 L 2570 1037 L 2570 1037 Z  M 2570 1035 L 2570 1034 L 2570 1034 L 2571 1034 L 2571 1035 L 2570 1035 L 2570 1035 L 2570 1035 L 2570 1035 L 2570 1035 L 2570 1035 Z  M 2570 1033 L 2570 1032 L 2570 1032 L 2571 1032 L 2571 1033 L 2570 1033 L 2570 1033 L 2570 1033 L 2570 1033 L 2570 1033 L 2570 1033 L 2570 1033 Z  M 2570 1023 L 2570 1022 L 2570 1022 L 2571 1022 L 2571 1023 L 2570 1023 L 2570 1023 L 2570 1023 L 2570 1023 L 2570 1023 L 2570 1023 L 2570 1023 L 2570 1023 L 2570 1023 L 2570 1023 L 2570 1023 L 2570 1023 Z  M 2570 1021 L 2570 1020 L 2570 1020 L 2571 1020 L 2571 1021 L 2570 1021 L 2570 1021 L 2570 1021 L 2570 1021 L 2570 1021 L 2570 1021 L 2570 1021 L 2570 1021 L 2570 1021 L 2570 1021 L 2570 1021 L 2570 1021 L 2570 1021 Z  M 2570 1019 L 2570 1018 L 2570 1018 L 2571 1018 L 2571 1019 L 2570 1019 L 2570 1019 L 2570 1019 L 2570 1019 L 2570 1019 L 2570 1019 L 2570 1019 L 2570 1019 L 2570 1019 L 2570 1019 L 2570 1019 L 2570 1019 L 2570 1019 L 2570 1019 Z  M 2570 1017 L 2570 1016 L 2571 1016 L 2571 1017 L 2570 1017 L 2570 1017 L 2570 1017 L 2570 1017 L 2570 1017 L 2570 1017 L 2570 1017 L 2570 1017 L 2570 1017 L 2570 1017 L 2570 1017 L 2570 1017 L 2570 1017 L 2570 1017 L 2570 1017 Z  M 2559 1027 L 2560 1027 L 2560 1027 L 2560 1028 L 2559 1028 L 2559 1027 L 2559 1027 L 2559 1027 L 2559 1027 Z  M 2561 1027 L 2562 1027 L 2562 1027 L 2562 1028 L 2561 1028 L 2561 1027 L 2561 1027 L 2561 1027 L 2561 1027 L 2561 1027 Z  M 2563 1027 L 2564 1027 L 2564 1027 L 2564 1028 L 2563 1028 L 2563 1027 L 2563 1027 L 2563 1027 L 2563 1027 L 2563 1027 L 2563 1027 Z  M 2565 1027 L 2566 1027 L 2566 1027 L 2566 1028 L 2565 1028 L 2565 1027 L 2565 1027 L 2565 1027 L 2565 1027 L 2565 1027 L 2565 1027 L 2565 1027 Z  M 2575 1027 L 2576 1027 L 2576 1027 L 2576 1028 L 2575 1028 L 2575 1027 L 2575 1027 L 2575 1027 L 2575 1027 L 2575 1027 L 2575 1027 L 2575 1027 L 2575 1027 L 2575 1027 L 2575 1027 L 2575 1027 L 2575 1027 Z  M 2577 1027 L 2578 1027 L 2578 1027 L 2578 1028 L 2577 1028 L 2577 1027 L 2577 1027 L 2577 1027 L 2577 1027 L 2577 1027 L 2577 1027 L 2577 1027 L 2577 1027 L 2577 1027 L 2577 1027 L 2577 1027 L 2577 1027 L 2577 1027 Z  M 2579 1027 L 2580 1027 L 2580 1027 L 2580 1028 L 2579 1028 L 2579 1027 L 2579 1027 L 2579 1027 L 2579 1027 L 2579 1027 L 2579 1027 L 2579 1027 L 2579 1027 L 2579 1027 L 2579 1027 L 2579 1027 L 2579 1027 L 2579 1027 L 2579 1027 Z  M 2581 1027 L 2582 1027 L 2582 1028 L 2581 1028 L 2581 1027 L 2581 1027 L 2581 1027 L 2581 1027 L 2581 1027 L 2581 1027 L 2581 1027 L 2581 1027 L 2581 1027 L 2581 1027 L 2581 1027 L 2581 1027 L 2581 1027 L 2581 1027 L 2581 1027 Z  M 2579 1039 L 2579 1040 L 2577 1040 L 2577 1039 L 2577 1036 C 2577 1035.2 2577.32 1034.44 2577.88 1033.88 C 2578.44 1033.32 2579.2 1033 2580 1033 C 2580.8 1033 2581.56 1033.32 2582.12 1033.88 C 2582.68 1034.44 2583 1035.2 2583 1036 L 2583 1038.92 L 2583 1039.92 L 2581 1039.92 L 2581 1038.92 L 2581 1036 C 2581 1035.73 2580.89 1035.48 2580.71 1035.29 C 2580.52 1035.11 2580.27 1035 2580 1035 C 2579.73 1035 2579.48 1035.11 2579.29 1035.29 C 2579.11 1035.48 2579 1035.73 2579 1036 L 2579 1039 Z " fill-rule="evenodd" id="Fill-B" fill="rgb(161,161,161)"/><path d=" M 2567.014 1031 L 2567.014 1024 L 2574.014 1024 L 2574.014 1031 L 2567.014 1031 Z  M 2568.01 1030 L 2568.01 1025 L 2573.01 1025 L 2573.01 1030 L 2568.01 1030 Z " fill-rule="evenodd" id="Fill-A" fill="rgb(215,215,215)"/></g></svg>