<?xml version="1.0" encoding="UTF-8" standalone="no"?><!-- Generator: Gravit.io --><svg xmlns="http://www.w3.org/2000/svg" xmlns:xlink="http://www.w3.org/1999/xlink" style="isolation:isolate" viewBox="778 733 24 24" width="24" height="24"><g id="snap"><g opacity="0"><rect x="778" y="733" width="24" height="24" transform="matrix(1,0,0,1,0,0)" id="Icon Background" fill="rgb(37,86,132)"/></g><path d=" M 795.049 751 L 798.049 751 L 798.049 754 L 795.049 754 L 795.049 751 L 795.049 751 Z  M 790 734 L 790 734 C 794.967 734 799 738.033 799 743 L 799 755 L 794 755 L 794 743 C 794 740.792 792.208 739 790 739 L 790 739 C 787.792 739 786 740.792 786 743 L 786 755 L 781 755 L 781 743 C 781 738.033 785.033 734 790 734 L 790 734 Z  M 782 751 L 785 751 L 785 754 L 782 754 L 782 751 Z " fill-rule="evenodd" id="Fill-B" fill="rgb(161,161,161)"/></g></svg>