<?xml version="1.0" encoding="UTF-8" standalone="no"?><!-- Generator: Gravit.io --><svg xmlns="http://www.w3.org/2000/svg" xmlns:xlink="http://www.w3.org/1999/xlink" style="isolation:isolate" viewBox="2514 1015 24 24" width="24" height="24"><g id="snap-to-full"><g opacity="0"><rect x="2514" y="1015" width="24" height="24" transform="matrix(1,0,0,1,0,0)" id="Icon Background" fill="rgb(37,86,132)"/></g><path d=" M 2522 1038 L 2522 1037 L 2522 1037 L 2523 1037 L 2523 1038 L 2522 1038 L 2522 1038 L 2522 1038 L 2522 1038 L 2522 1038 L 2522 1038 Z  M 2522 1036 L 2522 1035 L 2522 1035 L 2523 1035 L 2523 1036 L 2522 1036 L 2522 1036 L 2522 1036 L 2522 1036 L 2522 1036 L 2522 1036 L 2522 1036 Z  M 2522 1034 L 2522 1033 L 2522 1033 L 2523 1033 L 2523 1034 L 2522 1034 L 2522 1034 L 2522 1034 L 2522 1034 L 2522 1034 L 2522 1034 L 2522 1034 L 2522 1034 Z  M 2522 1032 L 2522 1031 L 2522 1031 L 2523 1031 L 2523 1032 L 2522 1032 L 2522 1032 L 2522 1032 L 2522 1032 L 2522 1032 L 2522 1032 L 2522 1032 L 2522 1032 L 2522 1032 Z  M 2522 1022 L 2522 1021 L 2522 1021 L 2523 1021 L 2523 1022 L 2522 1022 L 2522 1022 L 2522 1022 L 2522 1022 L 2522 1022 L 2522 1022 L 2522 1022 L 2522 1022 L 2522 1022 L 2522 1022 L 2522 1022 L 2522 1022 L 2522 1022 L 2522 1022 Z  M 2522 1020 L 2522 1019 L 2522 1019 L 2523 1019 L 2523 1020 L 2522 1020 L 2522 1020 L 2522 1020 L 2522 1020 L 2522 1020 L 2522 1020 L 2522 1020 L 2522 1020 L 2522 1020 L 2522 1020 L 2522 1020 L 2522 1020 L 2522 1020 L 2522 1020 L 2522 1020 Z  M 2522 1018 L 2522 1017 L 2522 1017 L 2523 1017 L 2523 1018 L 2522 1018 L 2522 1018 L 2522 1018 L 2522 1018 L 2522 1018 L 2522 1018 L 2522 1018 L 2522 1018 L 2522 1018 L 2522 1018 L 2522 1018 L 2522 1018 L 2522 1018 L 2522 1018 L 2522 1018 L 2522 1018 Z  M 2522 1016 L 2522 1015 L 2523 1015 L 2523 1016 L 2522 1016 L 2522 1016 L 2522 1016 L 2522 1016 L 2522 1016 L 2522 1016 L 2522 1016 L 2522 1016 L 2522 1016 L 2522 1016 L 2522 1016 L 2522 1016 L 2522 1016 L 2522 1016 L 2522 1016 L 2522 1016 L 2522 1016 Z  M 2514 1023 L 2515 1023 L 2515 1023 L 2515 1024 L 2514 1024 L 2514 1023 L 2514 1023 L 2514 1023 L 2514 1023 L 2514 1023 L 2514 1023 Z  M 2516 1023 L 2517 1023 L 2517 1023 L 2517 1024 L 2516 1024 L 2516 1023 L 2516 1023 L 2516 1023 L 2516 1023 L 2516 1023 L 2516 1023 L 2516 1023 Z  M 2518 1023 L 2519 1023 L 2519 1023 L 2519 1024 L 2518 1024 L 2518 1023 L 2518 1023 L 2518 1023 L 2518 1023 L 2518 1023 L 2518 1023 L 2518 1023 L 2518 1023 Z  M 2520 1023 L 2521 1023 L 2521 1023 L 2521 1024 L 2520 1024 L 2520 1023 L 2520 1023 L 2520 1023 L 2520 1023 L 2520 1023 L 2520 1023 L 2520 1023 L 2520 1023 L 2520 1023 Z  M 2530 1023 L 2531 1023 L 2531 1023 L 2531 1024 L 2530 1024 L 2530 1023 L 2530 1023 L 2530 1023 L 2530 1023 L 2530 1023 L 2530 1023 L 2530 1023 L 2530 1023 L 2530 1023 L 2530 1023 L 2530 1023 L 2530 1023 L 2530 1023 L 2530 1023 Z  M 2532 1023 L 2533 1023 L 2533 1023 L 2533 1024 L 2532 1024 L 2532 1023 L 2532 1023 L 2532 1023 L 2532 1023 L 2532 1023 L 2532 1023 L 2532 1023 L 2532 1023 L 2532 1023 L 2532 1023 L 2532 1023 L 2532 1023 L 2532 1023 L 2532 1023 L 2532 1023 Z  M 2534 1023 L 2535 1023 L 2535 1023 L 2535 1024 L 2534 1024 L 2534 1023 L 2534 1023 L 2534 1023 L 2534 1023 L 2534 1023 L 2534 1023 L 2534 1023 L 2534 1023 L 2534 1023 L 2534 1023 L 2534 1023 L 2534 1023 L 2534 1023 L 2534 1023 L 2534 1023 L 2534 1023 Z  M 2536 1023 L 2537 1023 L 2537 1024 L 2536 1024 L 2536 1023 L 2536 1023 L 2536 1023 L 2536 1023 L 2536 1023 L 2536 1023 L 2536 1023 L 2536 1023 L 2536 1023 L 2536 1023 L 2536 1023 L 2536 1023 L 2536 1023 L 2536 1023 L 2536 1023 L 2536 1023 L 2536 1023 Z  M 2528 1038 L 2528 1037 L 2528 1037 L 2529 1037 L 2529 1038 L 2528 1038 L 2528 1038 L 2528 1038 L 2528 1038 L 2528 1038 Z  M 2528 1036 L 2528 1035 L 2528 1035 L 2529 1035 L 2529 1036 L 2528 1036 L 2528 1036 L 2528 1036 L 2528 1036 L 2528 1036 L 2528 1036 Z  M 2528 1034 L 2528 1033 L 2528 1033 L 2529 1033 L 2529 1034 L 2528 1034 L 2528 1034 L 2528 1034 L 2528 1034 L 2528 1034 L 2528 1034 L 2528 1034 Z  M 2528 1032 L 2528 1031 L 2528 1031 L 2529 1031 L 2529 1032 L 2528 1032 L 2528 1032 L 2528 1032 L 2528 1032 L 2528 1032 L 2528 1032 L 2528 1032 L 2528 1032 Z  M 2528 1022 L 2528 1021 L 2528 1021 L 2529 1021 L 2529 1022 L 2528 1022 L 2528 1022 L 2528 1022 L 2528 1022 L 2528 1022 L 2528 1022 L 2528 1022 L 2528 1022 L 2528 1022 L 2528 1022 L 2528 1022 L 2528 1022 L 2528 1022 Z  M 2528 1020 L 2528 1019 L 2528 1019 L 2529 1019 L 2529 1020 L 2528 1020 L 2528 1020 L 2528 1020 L 2528 1020 L 2528 1020 L 2528 1020 L 2528 1020 L 2528 1020 L 2528 1020 L 2528 1020 L 2528 1020 L 2528 1020 L 2528 1020 L 2528 1020 Z  M 2528 1018 L 2528 1017 L 2528 1017 L 2529 1017 L 2529 1018 L 2528 1018 L 2528 1018 L 2528 1018 L 2528 1018 L 2528 1018 L 2528 1018 L 2528 1018 L 2528 1018 L 2528 1018 L 2528 1018 L 2528 1018 L 2528 1018 L 2528 1018 L 2528 1018 L 2528 1018 Z  M 2528 1016 L 2528 1015 L 2529 1015 L 2529 1016 L 2528 1016 L 2528 1016 L 2528 1016 L 2528 1016 L 2528 1016 L 2528 1016 L 2528 1016 L 2528 1016 L 2528 1016 L 2528 1016 L 2528 1016 L 2528 1016 L 2528 1016 L 2528 1016 L 2528 1016 L 2528 1016 Z  M 2514 1029 L 2515 1029 L 2515 1029 L 2515 1030 L 2514 1030 L 2514 1029 L 2514 1029 L 2514 1029 L 2514 1029 Z  M 2516 1029 L 2517 1029 L 2517 1029 L 2517 1030 L 2516 1030 L 2516 1029 L 2516 1029 L 2516 1029 L 2516 1029 L 2516 1029 Z  M 2518 1029 L 2519 1029 L 2519 1029 L 2519 1030 L 2518 1030 L 2518 1029 L 2518 1029 L 2518 1029 L 2518 1029 L 2518 1029 L 2518 1029 Z  M 2520 1029 L 2521 1029 L 2521 1029 L 2521 1030 L 2520 1030 L 2520 1029 L 2520 1029 L 2520 1029 L 2520 1029 L 2520 1029 L 2520 1029 L 2520 1029 Z  M 2530 1029 L 2531 1029 L 2531 1029 L 2531 1030 L 2530 1030 L 2530 1029 L 2530 1029 L 2530 1029 L 2530 1029 L 2530 1029 L 2530 1029 L 2530 1029 L 2530 1029 L 2530 1029 L 2530 1029 L 2530 1029 L 2530 1029 Z  M 2532 1029 L 2533 1029 L 2533 1029 L 2533 1030 L 2532 1030 L 2532 1029 L 2532 1029 L 2532 1029 L 2532 1029 L 2532 1029 L 2532 1029 L 2532 1029 L 2532 1029 L 2532 1029 L 2532 1029 L 2532 1029 L 2532 1029 L 2532 1029 Z  M 2534 1029 L 2535 1029 L 2535 1029 L 2535 1030 L 2534 1030 L 2534 1029 L 2534 1029 L 2534 1029 L 2534 1029 L 2534 1029 L 2534 1029 L 2534 1029 L 2534 1029 L 2534 1029 L 2534 1029 L 2534 1029 L 2534 1029 L 2534 1029 L 2534 1029 Z  M 2536 1029 L 2537 1029 L 2537 1030 L 2536 1030 L 2536 1029 L 2536 1029 L 2536 1029 L 2536 1029 L 2536 1029 L 2536 1029 L 2536 1029 L 2536 1029 L 2536 1029 L 2536 1029 L 2536 1029 L 2536 1029 L 2536 1029 L 2536 1029 L 2536 1029 Z  M 2534 1038 L 2534 1039 L 2532 1039 L 2532 1038 L 2532 1035 C 2532 1034.2 2532.32 1033.44 2532.88 1032.88 C 2533.44 1032.32 2534.2 1032 2535 1032 C 2535.8 1032 2536.56 1032.32 2537.12 1032.88 C 2537.68 1033.44 2538 1034.2 2538 1035 L 2538 1037.92 L 2538 1038.92 L 2536 1038.92 L 2536 1037.92 L 2536 1035 C 2536 1034.73 2535.89 1034.48 2535.71 1034.29 C 2535.52 1034.11 2535.27 1034 2535 1034 C 2534.73 1034 2534.48 1034.11 2534.29 1034.29 C 2534.11 1034.48 2534 1034.73 2534 1035 L 2534 1038 Z " fill-rule="evenodd" id="Fill-B" fill="rgb(161,161,161)"/><path d=" M 2522.014 1030 L 2522.014 1023 L 2529.014 1023 L 2529.014 1030 L 2522.014 1030 Z " id="Fill-A" fill="rgb(215,215,215)"/></g></svg>