<?xml version="1.0" encoding="UTF-8" standalone="no"?><!-- Generator: Gravit.io --><svg xmlns="http://www.w3.org/2000/svg" xmlns:xlink="http://www.w3.org/1999/xlink" style="isolation:isolate" viewBox="1978 2649 24 24" width="24" height="24"><g id="symbols-panel"><g opacity="0"><rect x="1978" y="2649" width="24" height="24" transform="matrix(1,0,0,1,0,0)" id="Icon Background" fill="rgb(37,86,132)"/></g><path d=" M 1993.263 2655.004 C 1995.548 2655.96 1997.271 2657.947 1997.89 2660.38 C 1997.96 2660.64 1998.12 2660.86 1998.35 2661 C 1998.58 2661.13 1998.85 2661.17 1999.11 2661.11 C 1999.37 2661.04 1999.59 2660.88 1999.72 2660.65 C 1999.86 2660.42 1999.9 2660.15 1999.83 2659.89 C 1999.006 2656.671 1996.642 2654.082 1993.55 2652.955 C 1993.448 2652.392 1993.222 2651.854 1992.88 2651.39 C 1992.42 2650.79 1991.78 2650.35 1991.05 2650.14 C 1990.73 2650.05 1990.41 2650 1990.08 2650 C 1989.32 2650 1988.58 2650.25 1987.97 2650.71 C 1987.37 2651.16 1986.93 2651.81 1986.72 2652.54 C 1986.63 2652.85 1986.58 2653.17 1986.58 2653.5 C 1986.58 2654.26 1986.83 2655 1987.29 2655.61 C 1987.74 2656.21 1988.39 2656.66 1989.12 2656.86 C 1989.43 2656.95 1989.75 2657 1990.08 2657 C 1990.84 2657 1991.58 2656.75 1992.19 2656.3 C 1992.641 2655.955 1993.007 2655.508 1993.263 2655.004 L 1993.263 2655.004 Z  M 1994.976 2668.727 C 1993.593 2669.78 1991.891 2670.36 1990.14 2670.36 C 1989.41 2670.36 1988.68 2670.26 1987.98 2670.06 C 1987.72 2669.99 1987.45 2670.02 1987.22 2670.15 C 1986.98 2670.28 1986.81 2670.5 1986.74 2670.76 C 1986.67 2671.01 1986.7 2671.28 1986.83 2671.52 C 1986.96 2671.75 1987.18 2671.92 1987.44 2671.99 C 1988.32 2672.23 1989.23 2672.36 1990.14 2672.36 C 1992.508 2672.36 1994.792 2671.516 1996.595 2669.997 C 1996.987 2670.159 1997.411 2670.24 1997.84 2670.24 C 1998.75 2670.24 1999.62 2669.89 2000.28 2669.26 C 2000.96 2668.6 2001.34 2667.69 2001.34 2666.74 C 2001.34 2665.83 2000.99 2664.96 2000.36 2664.31 C 1999.7 2663.62 1998.79 2663.24 1997.84 2663.24 C 1996.94 2663.24 1996.07 2663.59 1995.41 2664.22 C 1994.73 2664.88 1994.34 2665.79 1994.34 2666.74 C 1994.34 2667.458 1994.564 2668.152 1994.976 2668.727 L 1994.976 2668.727 Z  M 1982.213 2663.35 C 1982.161 2663.019 1982.14 2662.683 1982.14 2662.35 C 1982.14 2660.2 1983.01 2658.13 1984.56 2656.63 C 1984.75 2656.44 1984.85 2656.19 1984.86 2655.93 C 1984.86 2655.66 1984.76 2655.4 1984.57 2655.22 C 1984.39 2655.03 1984.13 2654.92 1983.87 2654.91 C 1983.6 2654.91 1983.35 2655.01 1983.16 2655.2 C 1981.23 2657.08 1980.14 2659.66 1980.14 2662.35 C 1980.14 2662.947 1980.193 2663.538 1980.296 2664.121 C 1980.09 2664.284 1979.903 2664.472 1979.74 2664.68 C 1979.26 2665.3 1979 2666.06 1979 2666.84 C 1979 2667.12 1979.04 2667.41 1979.1 2667.68 C 1979.29 2668.44 1979.73 2669.11 1980.35 2669.6 C 1980.96 2670.08 1981.72 2670.34 1982.5 2670.34 C 1982.79 2670.34 1983.07 2670.3 1983.35 2670.23 C 1984.1 2670.04 1984.78 2669.61 1985.26 2668.99 C 1985.74 2668.38 1986 2667.62 1986 2666.84 C 1986 2666.55 1985.97 2666.27 1985.9 2665.99 C 1985.71 2665.23 1985.27 2664.56 1984.66 2664.08 C 1984.04 2663.6 1983.28 2663.34 1982.5 2663.34 C 1982.405 2663.34 1982.31 2663.344 1982.213 2663.35 Z " fill-rule="evenodd" id="Fill-B" fill="rgb(161,161,161)"/></g></svg>