<?xml version="1.0" encoding="UTF-8" standalone="no"?><!-- Generator: Gravit.io --><svg xmlns="http://www.w3.org/2000/svg" xmlns:xlink="http://www.w3.org/1999/xlink" style="isolation:isolate" viewBox="1150 2784 24 24" width="24" height="24"><g id="symbol-instance-small"><g opacity="0"><rect x="1150" y="2784" width="24" height="24" transform="matrix(1,0,0,1,0,0)" id="Icon Background" fill="rgb(37,86,132)"/></g><path d=" M 1156.025 2797.726 L 1156.025 2797.726 C 1155.991 2797.461 1155.972 2797.192 1155.972 2796.92 C 1155.972 2795.19 1156.712 2793.53 1157.992 2792.36 C 1158.092 2792.27 1158.152 2792.14 1158.162 2792.01 C 1158.162 2791.88 1158.122 2791.75 1158.032 2791.65 C 1157.942 2791.55 1157.812 2791.49 1157.682 2791.49 C 1157.552 2791.48 1157.422 2791.53 1157.322 2791.62 C 1155.832 2792.98 1154.972 2794.9 1154.972 2796.92 C 1154.972 2797.323 1155.004 2797.72 1155.076 2798.11 C 1154.869 2798.223 1154.693 2798.384 1154.542 2798.57 C 1154.202 2798.99 1154.012 2799.51 1154.012 2800.05 C 1154.012 2800.22 1154.032 2800.38 1154.062 2800.55 C 1154.172 2801.07 1154.462 2801.55 1154.882 2801.89 C 1155.302 2802.23 1155.832 2802.41 1156.372 2802.41 C 1156.532 2802.41 1156.692 2802.39 1156.862 2802.36 L 1156.862 2802.36 C 1157.382 2802.25 1157.862 2801.96 1158.202 2801.54 C 1158.542 2801.12 1158.722 2800.6 1158.722 2800.06 C 1158.722 2799.89 1158.712 2799.73 1158.672 2799.57 C 1158.562 2799.04 1158.272 2798.56 1157.852 2798.22 C 1157.432 2797.88 1156.912 2797.7 1156.372 2797.7 C 1156.253 2797.7 1156.138 2797.71 1156.025 2797.726 Z  M 1161.052 2789.94 C 1161.232 2789.38 1161.752 2789 1162.342 2789 C 1162.482 2789 1162.622 2789.02 1162.762 2789.07 C 1163.312 2789.25 1163.692 2789.77 1163.692 2790.36 C 1163.692 2790.5 1163.672 2790.64 1163.632 2790.78 C 1163.452 2791.33 1162.922 2791.71 1162.342 2791.71 C 1162.192 2791.71 1162.052 2791.69 1161.922 2791.65 C 1161.362 2791.47 1160.982 2790.94 1160.982 2790.36 C 1160.982 2790.21 1161.002 2790.07 1161.052 2789.94 L 1161.052 2789.94 L 1161.052 2789.94 L 1161.052 2789.94 L 1161.052 2789.94 L 1161.052 2789.94 Z  M 1168.762 2799.47 C 1168.992 2799.72 1169.112 2800.04 1169.112 2800.38 C 1169.112 2800.76 1168.952 2801.13 1168.662 2801.39 C 1168.412 2801.61 1168.092 2801.74 1167.752 2801.74 C 1167.372 2801.74 1167.002 2801.57 1166.752 2801.29 C 1166.522 2801.04 1166.402 2800.72 1166.402 2800.38 C 1166.402 2800 1166.562 2799.63 1166.852 2799.37 C 1167.102 2799.15 1167.422 2799.02 1167.752 2799.02 C 1168.142 2799.02 1168.502 2799.19 1168.762 2799.47 L 1168.762 2799.47 L 1168.762 2799.47 L 1168.762 2799.47 Z  M 1165.914 2801.848 L 1165.914 2801.848 C 1164.834 2802.664 1163.517 2803.11 1162.152 2803.11 C 1161.522 2803.11 1160.882 2803.01 1160.272 2802.82 C 1160.152 2802.78 1160.012 2802.79 1159.892 2802.85 C 1159.772 2802.91 1159.682 2803.02 1159.642 2803.15 C 1159.602 2803.27 1159.622 2803.41 1159.682 2803.53 C 1159.742 2803.65 1159.842 2803.73 1159.972 2803.77 C 1160.682 2804 1161.412 2804.11 1162.152 2804.11 C 1163.821 2804.11 1165.429 2803.539 1166.709 2802.484 C 1167.031 2802.652 1167.392 2802.74 1167.762 2802.74 C 1168.342 2802.74 1168.902 2802.52 1169.332 2802.13 C 1169.832 2801.68 1170.112 2801.05 1170.112 2800.38 C 1170.112 2799.8 1169.892 2799.24 1169.512 2798.8 L 1169.512 2798.8 C 1169.062 2798.31 1168.422 2798.02 1167.752 2798.02 C 1167.172 2798.02 1166.612 2798.24 1166.182 2798.63 C 1165.682 2799.08 1165.402 2799.71 1165.402 2800.38 C 1165.402 2800.913 1165.579 2801.429 1165.914 2801.848 L 1165.914 2801.848 L 1165.914 2801.848 Z  M 1164.684 2790.209 C 1166.957 2791.065 1168.646 2793.018 1169.172 2795.4 C 1169.202 2795.53 1169.172 2795.67 1169.102 2795.78 C 1169.032 2795.89 1168.922 2795.97 1168.792 2796 C 1168.662 2796.03 1168.522 2796 1168.412 2795.93 C 1168.302 2795.86 1168.222 2795.74 1168.192 2795.62 C 1167.758 2793.632 1166.383 2791.995 1164.527 2791.222 C 1164.171 2792.115 1163.302 2792.71 1162.342 2792.71 C 1162.092 2792.71 1161.842 2792.67 1161.612 2792.6 C 1160.642 2792.28 1159.982 2791.37 1159.982 2790.36 C 1159.982 2790.11 1160.022 2789.86 1160.102 2789.63 L 1160.102 2789.63 C 1160.412 2788.66 1161.322 2788 1162.342 2788 C 1162.582 2788 1162.832 2788.04 1163.072 2788.12 C 1163.984 2788.415 1164.626 2789.251 1164.684 2790.209 L 1164.684 2790.209 L 1164.684 2790.209 L 1164.684 2790.209 L 1164.684 2790.209 Z  M 1156.652 2801.38 C 1156.562 2801.4 1156.462 2801.41 1156.362 2801.41 C 1156.052 2801.41 1155.752 2801.31 1155.512 2801.11 C 1155.272 2800.91 1155.102 2800.64 1155.042 2800.34 C 1155.022 2800.24 1155.012 2800.15 1155.012 2800.05 C 1155.012 2799.74 1155.122 2799.44 1155.312 2799.2 C 1155.512 2798.96 1155.782 2798.79 1156.082 2798.73 C 1156.182 2798.71 1156.272 2798.7 1156.372 2798.7 C 1156.682 2798.7 1156.982 2798.81 1157.222 2799 C 1157.462 2799.2 1157.632 2799.47 1157.692 2799.77 C 1157.712 2799.87 1157.722 2799.96 1157.722 2800.06 C 1157.722 2800.37 1157.622 2800.67 1157.422 2800.91 C 1157.222 2801.15 1156.952 2801.32 1156.652 2801.38 L 1156.652 2801.38 Z " fill-rule="evenodd" id="Fill-B" fill="rgb(161,161,161)"/></g></svg>