<?xml version="1.0" encoding="UTF-8" standalone="no"?><!-- Generator: Gravit.io --><svg xmlns="http://www.w3.org/2000/svg" xmlns:xlink="http://www.w3.org/1999/xlink" style="isolation:isolate" viewBox="445 1188 24 24" width="24" height="24"><g id="text"><g opacity="0"><rect x="445" y="1188" width="24" height="24" transform="matrix(1,0,0,1,0,0)" id="Icon Background" fill="rgb(37,86,132)"/></g><path d=" M 464.624 1191.98 L 464.624 1191.98 Q 464.456 1194.644 464.456 1196.732 L 464.456 1196.732 L 464.456 1196.732 Q 464.456 1197.836 464.528 1198.46 L 464.528 1198.46 L 463.976 1198.46 L 463.976 1198.46 Q 463.184 1195.316 461.936 1193.924 L 461.936 1193.924 L 461.936 1193.924 Q 460.688 1192.532 459.248 1192.532 L 459.248 1192.532 L 459.224 1192.532 L 459.224 1206.26 L 459.224 1206.26 Q 459.224 1207.268 459.428 1207.724 L 459.428 1207.724 L 459.428 1207.724 Q 459.632 1208.18 460.172 1208.336 L 460.172 1208.336 L 460.172 1208.336 Q 460.712 1208.492 461.888 1208.492 L 461.888 1208.492 L 461.888 1208.972 L 461.888 1208.972 Q 458.504 1208.9 456.632 1208.9 L 456.632 1208.9 L 456.632 1208.9 Q 454.928 1208.9 451.688 1208.972 L 451.688 1208.972 L 451.688 1208.492 L 451.688 1208.492 Q 452.864 1208.492 453.404 1208.336 L 453.404 1208.336 L 453.404 1208.336 Q 453.944 1208.18 454.148 1207.724 L 454.148 1207.724 L 454.148 1207.724 Q 454.352 1207.268 454.352 1206.26 L 454.352 1206.26 L 454.352 1192.532 L 454.328 1192.532 L 454.328 1192.532 Q 452.864 1192.532 451.628 1193.912 L 451.628 1193.912 L 451.628 1193.912 Q 450.392 1195.292 449.6 1198.46 L 449.6 1198.46 L 449.048 1198.46 L 449.048 1198.46 Q 449.12 1197.836 449.12 1196.732 L 449.12 1196.732 L 449.12 1196.732 Q 449.12 1194.644 448.952 1191.98 L 448.952 1191.98 L 448.952 1191.98 Q 451.232 1192.052 456.8 1192.052 L 456.8 1192.052 L 456.8 1192.052 Q 462.344 1192.052 464.624 1191.98 L 464.624 1191.98 Z " id="Fill-B" fill="rgb(161,161,161)"/></g></svg>