<?xml version="1.0" encoding="UTF-8" standalone="no"?><!-- Generator: Gravit.io --><svg xmlns="http://www.w3.org/2000/svg" xmlns:xlink="http://www.w3.org/1999/xlink" style="isolation:isolate" viewBox="1150 3180 24 24" width="24" height="24"><g id="toggle-outline-small"><g opacity="0"><rect x="1150" y="3180" width="24" height="24" transform="matrix(1,0,0,1,0,0)" id="Icon Background" fill="rgb(37,86,132)"/></g><path d=" M 1165.815 3192.902 C 1166.26 3192.007 1166.5 3191.014 1166.5 3190 C 1166.5 3188.28 1165.81 3186.62 1164.6 3185.4 C 1163.38 3184.19 1161.72 3183.5 1160 3183.5 C 1158.28 3183.5 1156.62 3184.19 1155.4 3185.4 C 1154.19 3186.62 1153.5 3188.28 1153.5 3190 L 1153.5 3190 C 1153.5 3191.72 1154.19 3193.38 1155.4 3194.6 C 1156.189 3195.383 1157.163 3195.948 1158.218 3196.25 L 1156.13 3199.86 L 1156.13 3199.86 L 1162.98 3199.86 L 1169.83 3199.86 L 1166.41 3193.93 L 1165.815 3192.902 Z  M 1165.22 3193.876 C 1165.032 3194.131 1164.825 3194.373 1164.6 3194.6 C 1163.38 3195.81 1161.72 3196.5 1160 3196.5 C 1159.75 3196.5 1159.5 3196.485 1159.253 3196.457 L 1157.87 3198.86 L 1157.87 3198.86 L 1162.98 3198.86 L 1168.1 3198.86 L 1165.54 3194.43 L 1165.22 3193.876 Z  M 1165.19 3191.821 C 1165.393 3191.241 1165.5 3190.626 1165.5 3190 C 1165.5 3188.54 1164.92 3187.14 1163.89 3186.11 C 1162.86 3185.08 1161.46 3184.5 1160 3184.5 C 1158.54 3184.5 1157.14 3185.08 1156.11 3186.11 C 1155.08 3187.14 1154.5 3188.54 1154.5 3190 L 1154.5 3190 C 1154.5 3191.46 1155.08 3192.86 1156.11 3193.89 C 1156.837 3194.617 1157.75 3195.12 1158.737 3195.353 L 1159.56 3193.93 L 1162.98 3188 L 1165.19 3191.821 Z  M 1164.665 3192.916 C 1164.446 3193.266 1164.187 3193.593 1163.89 3193.89 C 1162.86 3194.92 1161.46 3195.5 1160 3195.5 C 1159.935 3195.5 1159.871 3195.499 1159.806 3195.497 L 1160.42 3194.43 L 1162.98 3190 L 1164.665 3192.916 Z " fill-rule="evenodd" id="Fill-B" fill="rgb(161,161,161)"/></g></svg>