<?xml version="1.0" encoding="UTF-8" standalone="no"?><!-- Generator: Gravit.io --><svg xmlns="http://www.w3.org/2000/svg" xmlns:xlink="http://www.w3.org/1999/xlink" style="isolation:isolate" viewBox="715 730 24 24" width="24" height="24"><g id="touch disable"><g opacity="0"><rect x="715" y="730" width="24" height="24" transform="matrix(1,0,0,1,0,0)" id="Icon Background" fill="rgb(37,86,132)"/></g><path d=" M 728.984 745.692 C 728.347 746.484 728 747.477 728 748.5 L 728 748.5 C 728 749.69 728.47 750.84 729.32 751.68 C 730.16 752.53 731.31 753 732.5 753 C 733.523 753 734.516 752.653 735.308 752.016 L 728.984 745.692 Z  M 729.692 744.984 C 730.484 744.347 731.477 744 732.5 744 C 733.69 744 734.84 744.47 735.68 745.32 C 736.53 746.16 737 747.31 737 748.5 C 737 749.523 736.653 750.516 736.016 751.308 L 729.692 744.984 Z  M 727 748.5 C 727 745.464 729.464 743 732.5 743 C 735.536 743 738 745.464 738 748.5 C 738 751.536 735.536 754 732.5 754 C 729.464 754 727 751.536 727 748.5 L 727 748.5 Z " fill-rule="evenodd" id="Fill-A" fill="rgb(215,215,215)"/><path d=" M 736 741.866 L 736 739 C 736 738.448 735.552 738 735 738 L 735 738 C 734.448 738 734 738.448 734 739 L 734 739.5 C 734 739.776 733.776 740 733.5 740 L 733.5 740 C 733.224 740 733 739.776 733 739.5 L 733 737.5 C 733 736.672 732.328 736 731.5 736 L 731.5 736 C 730.672 736 730 736.672 730 737.5 L 730 738.5 C 730 738.776 729.776 739 729.5 739 L 729.5 739 C 729.224 739 729 738.776 729 738.5 L 729 736.5 C 729 735.672 728.328 735 727.5 735 L 727.5 735 C 726.672 735 726 735.672 726 736.5 L 726 738.5 C 726 738.776 725.776 739 725.5 739 L 725.5 739 C 725.224 739 725 738.776 725 738.5 L 725 731.5 C 725 730.672 724.328 730 723.5 730 L 723.5 730 C 722.672 730 722 730.672 722 731.5 L 722 742 C 722 743.104 721.614 743.191 721.138 742.195 Q 719.613 739 718 739 C 717.448 739 717.074 739.442 717.164 739.986 L 717.63 742.78 C 717.834 744.005 718.586 745.821 719.308 746.832 L 723 752 L 725.866 752 C 725.313 750.955 725 749.764 725 748.5 C 725 744.361 728.361 741 732.5 741 C 733.764 741 734.955 741.313 736 741.866 Z " id="Fill-B" fill="rgb(161,161,161)"/></g></svg>