<?xml version="1.0" encoding="UTF-8" standalone="no"?><!-- Generator: Gravit.io --><svg xmlns="http://www.w3.org/2000/svg" xmlns:xlink="http://www.w3.org/1999/xlink" style="isolation:isolate" viewBox="715 667 24 24" width="24" height="24"><g id="touch"><g opacity="0"><rect x="715" y="667" width="24" height="24" transform="matrix(1,0,0,1,0,0)" id="Icon Background" fill="rgb(37,86,132)"/></g><path d=" M 722 680 L 722 669.5 C 722 668.672 722.672 668 723.5 668 L 723.5 668 C 724.328 668 725 668.672 725 669.5 L 725 676.5 C 725 676.776 725.224 677 725.5 677 L 725.5 677 C 725.776 677 726 676.776 726 676.5 L 726 674.5 C 726 673.672 726.672 673 727.5 673 L 727.5 673 C 728.328 673 729 673.672 729 674.5 L 729 676.5 C 729 676.776 729.224 677 729.5 677 L 729.5 677 C 729.776 677 730 676.776 730 676.5 L 730 675.5 C 730 674.672 730.672 674 731.5 674 L 731.5 674 C 732.328 674 733 674.672 733 675.5 L 733 677.5 C 733 677.776 733.224 678 733.5 678 L 733.5 678 C 733.776 678 734 677.776 734 677.5 L 734 677 C 734 676.448 734.448 676 735 676 L 735 676 C 735.552 676 736 676.448 736 677 L 736 681 Q 736 684.336 733.049 690 L 723 690 L 719.308 684.832 C 718.586 683.821 717.834 682.005 717.63 680.78 L 717.164 677.986 C 717.074 677.442 717.448 677 718 677 Q 719.613 677 721.138 680.195 C 721.614 681.191 722 681.104 722 680 Z " id="Fill-B" fill="rgb(161,161,161)"/></g></svg>