<?xml version="1.0" encoding="UTF-8" standalone="no"?><!-- Generator: Gravit.io --><svg xmlns="http://www.w3.org/2000/svg" xmlns:xlink="http://www.w3.org/1999/xlink" style="isolation:isolate" viewBox="1545 595 24 24" width="24" height="24"><g id="trim-canvas"><g opacity="0"><rect x="1545" y="595" width="24" height="24" transform="matrix(1,0,0,1,0,0)" id="Icon Background" fill="rgb(37,86,132)"/></g><path d=" M 1566 602 L 1566 598 L 1552 598 L 1552 603 L 1550 603 L 1550 597.859 C 1550 596.833 1550.833 596 1551.859 596 L 1551.859 596 L 1566.141 596 C 1567.167 596 1568 596.833 1568 597.859 L 1568 611.141 C 1568 612.167 1567.167 613 1566.141 613 L 1559 613 L 1559 611 L 1566 611 L 1566 611 L 1566 603 L 1565 603 L 1565 603 L 1565 602 L 1566 602 L 1566 602 L 1566 602 Z  M 1564 603 L 1563 603 L 1563 603 L 1563 602 L 1564 602 L 1564 603 L 1564 603 L 1564 603 L 1564 603 L 1564 603 L 1564 603 L 1564 603 Z  M 1562 603 L 1561 603 L 1561 603 L 1561 602 L 1562 602 L 1562 603 L 1562 603 L 1562 603 L 1562 603 L 1562 603 L 1562 603 L 1562 603 L 1562 603 Z  M 1560 603 L 1559 603 L 1559 603 L 1559 602 L 1560 602 L 1560 603 L 1560 603 L 1560 603 L 1560 603 L 1560 603 Z  M 1558 603 L 1557 603 L 1557 603 L 1557 602 L 1558 602 L 1558 603 L 1558 603 L 1558 603 L 1558 603 L 1558 603 L 1558 603 Z  M 1556 603 L 1555 603 L 1555 603 L 1555 602 L 1556 602 L 1556 603 L 1556 603 L 1556 603 L 1556 603 L 1556 603 L 1556 603 L 1556 603 Z  M 1554 603 L 1553 603 L 1553 603 L 1553 602 L 1554 602 L 1554 603 L 1554 603 L 1554 603 Z " fill-rule="evenodd" id="Fill-B" fill="rgb(161,161,161)"/><path d=" M 1553.141 613.453 L 1557.047 617.359 L 1559 617.359 L 1559 616.718 L 1554.453 612.141 L 1553.141 613.453 Z  M 1552.164 611.5 L 1552.164 611.5 L 1552.164 611.5 Q 1552.164 611.164 1552.5 611.164 L 1552.5 611.164 L 1552.5 611.164 Q 1552.836 611.164 1552.836 611.5 L 1552.836 611.5 L 1552.836 611.5 Q 1552.836 611.836 1552.5 611.836 L 1552.5 611.836 L 1552.5 611.836 Q 1552.164 611.836 1552.164 611.5 Z  M 1547.678 606.663 L 1547.678 606.663 L 1547.678 606.663 Q 1548.075 606.282 1548.594 606.282 L 1548.594 606.282 L 1548.594 606.282 Q 1549.113 606.282 1549.509 606.663 L 1549.509 606.663 L 1549.509 606.663 Q 1549.906 607.045 1549.906 607.594 L 1549.906 607.594 L 1549.906 607.594 Q 1549.906 608.143 1549.509 608.525 L 1549.509 608.525 L 1549.509 608.525 Q 1549.113 608.906 1548.594 608.906 L 1548.594 608.906 L 1548.594 608.906 Q 1548.075 608.906 1547.678 608.525 L 1547.678 608.525 L 1547.678 608.525 Q 1547.282 608.143 1547.282 607.594 L 1547.282 607.594 L 1547.282 607.594 Q 1547.282 607.045 1547.678 606.663 Z  M 1547.678 614.475 L 1547.678 614.475 L 1547.678 614.475 Q 1548.075 614.094 1548.594 614.094 L 1548.594 614.094 L 1548.594 614.094 Q 1549.113 614.094 1549.509 614.475 L 1549.509 614.475 L 1549.509 614.475 Q 1549.906 614.857 1549.906 615.406 L 1549.906 615.406 L 1549.906 615.406 Q 1549.906 615.955 1549.509 616.337 L 1549.509 616.337 L 1549.509 616.337 Q 1549.113 616.718 1548.594 616.718 L 1548.594 616.718 L 1548.594 616.718 Q 1548.075 616.718 1547.678 616.337 L 1547.678 616.337 L 1547.678 616.337 Q 1547.282 615.955 1547.282 615.406 L 1547.282 615.406 L 1547.282 615.406 Q 1547.282 614.857 1547.678 614.475 Z  M 1550.974 614.338 L 1550.974 614.338 L 1559 606.282 L 1559 605.641 L 1557.047 605.641 L 1552.5 610.188 L 1550.974 608.662 L 1550.974 608.662 Q 1551.188 608.204 1551.188 607.594 L 1551.188 607.594 L 1551.188 607.594 Q 1551.188 606.526 1550.425 605.763 L 1550.425 605.763 L 1550.425 605.763 Q 1549.662 605 1548.594 605 L 1548.594 605 L 1548.594 605 Q 1547.526 605 1546.763 605.763 L 1546.763 605.763 L 1546.763 605.763 Q 1546 606.526 1546 607.594 L 1546 607.594 L 1546 607.594 Q 1546 608.662 1546.763 609.425 L 1546.763 609.425 L 1546.763 609.425 Q 1547.526 610.188 1548.594 610.188 L 1548.594 610.188 L 1548.594 610.188 Q 1549.204 610.188 1549.662 609.974 L 1549.662 609.974 L 1551.188 611.5 L 1549.662 613.026 L 1549.662 613.026 Q 1549.204 612.812 1548.594 612.812 L 1548.594 612.812 L 1548.594 612.812 Q 1547.526 612.812 1546.763 613.575 L 1546.763 613.575 L 1546.763 613.575 Q 1546 614.338 1546 615.406 L 1546 615.406 L 1546 615.406 Q 1546 616.474 1546.763 617.237 L 1546.763 617.237 L 1546.763 617.237 Q 1547.526 618 1548.594 618 L 1548.594 618 L 1548.594 618 Q 1549.662 618 1550.425 617.237 L 1550.425 617.237 L 1550.425 617.237 Q 1551.188 616.474 1551.188 615.406 L 1551.188 615.406 L 1551.188 615.406 Q 1551.188 614.796 1550.974 614.338 Z " id="Fill-A" fill="rgb(215,215,215)"/></g></svg>