<?xml version="1.0" encoding="UTF-8" standalone="no"?><!-- Generator: Gravit.io --><svg xmlns="http://www.w3.org/2000/svg" xmlns:xlink="http://www.w3.org/1999/xlink" style="isolation:isolate" viewBox="1150 1255 24 24" width="24" height="24"><g id="underline-text"><g opacity="0"><rect x="1150" y="1255" width="24" height="24" transform="matrix(1,0,0,1,0,0)" id="Icon Background" fill="rgb(37,86,132)"/></g><path d=" M 1170.032 1258 L 1170.032 1258.48 L 1170.032 1258.48 Q 1169.288 1258.648 1168.928 1258.996 L 1168.928 1258.996 L 1168.928 1258.996 Q 1168.568 1259.344 1168.448 1260.064 L 1168.448 1260.064 L 1168.448 1260.064 Q 1168.328 1260.784 1168.328 1262.224 L 1168.328 1262.224 L 1168.328 1266.008 L 1168.328 1266.008 Q 1168.328 1269.464 1167.344 1271.096 L 1167.344 1271.096 L 1167.344 1271.096 Q 1166.696 1272.176 1165.436 1272.752 L 1165.436 1272.752 L 1165.436 1272.752 Q 1164.176 1273.328 1162.184 1273.328 L 1162.184 1273.328 L 1162.184 1273.328 Q 1159.28 1273.328 1157.672 1272.176 L 1157.672 1272.176 L 1157.672 1272.176 Q 1156.496 1271.336 1156.1 1269.92 L 1156.1 1269.92 L 1156.1 1269.92 Q 1155.704 1268.504 1155.704 1266.08 L 1155.704 1266.08 L 1155.704 1260.544 L 1155.704 1260.544 Q 1155.704 1259.632 1155.584 1259.224 L 1155.584 1259.224 L 1155.584 1259.224 Q 1155.464 1258.816 1155.116 1258.672 L 1155.116 1258.672 L 1155.116 1258.672 Q 1154.768 1258.528 1154 1258.48 L 1154 1258.48 L 1154 1258 L 1154 1258 Q 1155.368 1258.072 1158.224 1258.072 L 1158.224 1258.072 L 1158.224 1258.072 Q 1161.056 1258.072 1162.52 1258 L 1162.52 1258 L 1162.52 1258.48 L 1162.52 1258.48 Q 1161.656 1258.528 1161.26 1258.672 L 1161.26 1258.672 L 1161.26 1258.672 Q 1160.864 1258.816 1160.72 1259.224 L 1160.72 1259.224 L 1160.72 1259.224 Q 1160.576 1259.632 1160.576 1260.544 L 1160.576 1260.544 L 1160.576 1268.336 L 1160.576 1268.336 Q 1160.576 1270.64 1161.296 1271.564 L 1161.296 1271.564 L 1161.296 1271.564 Q 1162.016 1272.488 1163.576 1272.488 L 1163.576 1272.488 L 1163.576 1272.488 Q 1165.856 1272.488 1166.816 1270.868 L 1166.816 1270.868 L 1166.816 1270.868 Q 1167.776 1269.248 1167.776 1266.272 L 1167.776 1266.272 L 1167.776 1262.704 L 1167.776 1262.704 Q 1167.776 1260.928 1167.632 1260.148 L 1167.632 1260.148 L 1167.632 1260.148 Q 1167.488 1259.368 1166.996 1259.008 L 1166.996 1259.008 L 1166.996 1259.008 Q 1166.504 1258.648 1165.352 1258.48 L 1165.352 1258.48 L 1165.352 1258 L 1165.352 1258 Q 1166.336 1258.072 1168.04 1258.072 L 1168.04 1258.072 L 1168.04 1258.072 Q 1169.312 1258.072 1170.032 1258 L 1170.032 1258 Z " id="Fill-B" fill="rgb(161,161,161)"/><path d=" M 1154 1275 L 1170 1275 L 1170 1276 L 1154 1276 L 1154 1275 Z " id="Fill-A" fill="rgb(215,215,215)"/></g></svg>