<?xml version="1.0" encoding="UTF-8" standalone="no"?><!-- Generator: Gravit.io --><svg xmlns="http://www.w3.org/2000/svg" xmlns:xlink="http://www.w3.org/1999/xlink" style="isolation:isolate" viewBox="778 263 24 24" width="24" height="24"><g id="undo"><g opacity="0"><rect x="778" y="263" width="24" height="24" transform="matrix(1,0,0,1,0,0)" id="Icon Background" fill="rgb(37,86,132)"/></g><path d=" M 783.401 271.401 L 780 268 L 780 279.25 L 791.25 279.25 L 787.512 275.512 C 788.644 273.988 790.458 273 792.5 273 C 795.927 273 798.71 275.782 798.71 279.21 C 798.71 280.716 798.172 282.099 797.278 283.174 L 797.761 283.453 C 799.157 281.816 800 279.693 800 277.375 C 800 272.201 795.799 268 790.625 268 C 787.72 268 785.122 269.324 783.401 271.401 Z " id="Fill-B" fill="rgb(161,161,161)"/></g></svg>