<?xml version="1.0" encoding="UTF-8" standalone="no"?><!-- Generator: Gravit.io --><svg xmlns="http://www.w3.org/2000/svg" xmlns:xlink="http://www.w3.org/1999/xlink" style="isolation:isolate" viewBox="1150 1923 24 24" width="24" height="24"><g id="uppercase-text"><g opacity="0"><rect x="1150" y="1923" width="24" height="24" transform="matrix(1,0,0,1,0,0)" id="Icon Background" fill="rgb(37,86,132)"/></g><path d=" M 1161.576 1938.984 L 1161.576 1938.984 Q 1161.784 1939.496 1162.032 1939.744 L 1162.032 1939.744 L 1162.032 1939.744 Q 1162.28 1939.992 1162.52 1940.008 L 1162.52 1940.008 L 1162.52 1940.328 L 1162.52 1940.328 Q 1161.368 1940.28 1159.608 1940.28 L 1159.608 1940.28 L 1159.608 1940.28 Q 1157.784 1940.28 1156.92 1940.328 L 1156.92 1940.328 L 1156.92 1940.008 L 1156.92 1940.008 Q 1157.528 1939.976 1157.784 1939.856 L 1157.784 1939.856 L 1157.784 1939.856 Q 1158.04 1939.736 1158.04 1939.432 L 1158.04 1939.432 L 1158.04 1939.432 Q 1158.04 1939.144 1157.848 1938.664 L 1157.848 1938.664 L 1156.904 1936.04 L 1153.672 1936.04 L 1153.4 1936.76 L 1153.4 1936.76 Q 1152.872 1938.12 1152.872 1938.84 L 1152.872 1938.84 L 1152.872 1938.84 Q 1152.872 1939.496 1153.24 1939.736 L 1153.24 1939.736 L 1153.24 1939.736 Q 1153.608 1939.976 1154.328 1940.008 L 1154.328 1940.008 L 1154.328 1940.328 L 1154.328 1940.328 Q 1153.128 1940.28 1152.232 1940.28 L 1152.232 1940.28 L 1152.232 1940.28 Q 1151.48 1940.28 1151 1940.328 L 1151 1940.328 L 1151 1940.008 L 1151 1940.008 Q 1151.4 1939.944 1151.752 1939.512 L 1151.752 1939.512 L 1151.752 1939.512 Q 1152.104 1939.08 1152.472 1938.136 L 1152.472 1938.136 L 1156.024 1929 L 1156.024 1929 Q 1156.536 1929.032 1156.872 1929.032 L 1156.872 1929.032 L 1156.872 1929.032 Q 1157.192 1929.032 1157.704 1929 L 1157.704 1929 L 1161.576 1938.984 Z  M 1153.8 1935.72 L 1156.792 1935.72 L 1155.336 1931.72 L 1153.8 1935.72 Z  M 1172.648 1938.984 L 1172.648 1938.984 Q 1172.856 1939.496 1173.104 1939.744 L 1173.104 1939.744 L 1173.104 1939.744 Q 1173.352 1939.992 1173.592 1940.008 L 1173.592 1940.008 L 1173.592 1940.328 L 1173.592 1940.328 Q 1172.44 1940.28 1170.68 1940.28 L 1170.68 1940.28 L 1170.68 1940.28 Q 1168.856 1940.28 1167.992 1940.328 L 1167.992 1940.328 L 1167.992 1940.008 L 1167.992 1940.008 Q 1168.6 1939.976 1168.856 1939.856 L 1168.856 1939.856 L 1168.856 1939.856 Q 1169.112 1939.736 1169.112 1939.432 L 1169.112 1939.432 L 1169.112 1939.432 Q 1169.112 1939.144 1168.92 1938.664 L 1168.92 1938.664 L 1167.976 1936.04 L 1164.744 1936.04 L 1164.472 1936.76 L 1164.472 1936.76 Q 1163.944 1938.12 1163.944 1938.84 L 1163.944 1938.84 L 1163.944 1938.84 Q 1163.944 1939.496 1164.312 1939.736 L 1164.312 1939.736 L 1164.312 1939.736 Q 1164.68 1939.976 1165.4 1940.008 L 1165.4 1940.008 L 1165.4 1940.328 L 1165.4 1940.328 Q 1164.2 1940.28 1163.304 1940.28 L 1163.304 1940.28 L 1163.304 1940.28 Q 1162.552 1940.28 1162.072 1940.328 L 1162.072 1940.328 L 1162.072 1940.008 L 1162.072 1940.008 Q 1162.472 1939.944 1162.824 1939.512 L 1162.824 1939.512 L 1162.824 1939.512 Q 1163.176 1939.08 1163.544 1938.136 L 1163.544 1938.136 L 1167.096 1929 L 1167.096 1929 Q 1167.608 1929.032 1167.944 1929.032 L 1167.944 1929.032 L 1167.944 1929.032 Q 1168.264 1929.032 1168.776 1929 L 1168.776 1929 L 1172.648 1938.984 Z  M 1164.872 1935.72 L 1167.864 1935.72 L 1166.408 1931.72 L 1164.872 1935.72 Z " id="Fill-B" fill="rgb(161,161,161)"/></g></svg>