<?xml version="1.0" encoding="UTF-8" standalone="no"?><!-- Generator: Gravit.io --><svg xmlns="http://www.w3.org/2000/svg" xmlns:xlink="http://www.w3.org/1999/xlink" style="isolation:isolate" viewBox="778 1923 24 24" width="24" height="24"><g id="vectorize-border"><g opacity="0"><rect x="778" y="1923" width="24" height="24" transform="matrix(1,0,0,1,0,0)" id="Icon Background" fill="rgb(37,86,132)"/></g><path d=" M 783 1929 L 783 1929 C 786.45 1929 789.76 1930.37 792.19 1932.81 C 794.63 1935.24 796 1938.55 796 1942 L 794 1942 C 794 1939.08 792.84 1936.28 790.78 1934.22 C 788.72 1932.16 785.92 1931 783 1931 L 783 1931 L 783 1929 Z " id="Fill-A" fill="rgb(215,215,215)"/><path d=" M 781 1926 L 782 1926 L 782 1927 L 781 1927 L 781 1926 L 781 1926 L 781 1926 L 781 1926 Z  M 797.992 1943 L 798.992 1943 L 798.992 1944 L 797.992 1944 L 797.992 1943 L 797.992 1943 L 797.992 1943 Z  M 798.01 1942 C 798.01 1938.02 796.43 1934.21 793.61 1931.39 C 790.8 1928.58 786.98 1927 783.01 1927 C 783.007 1927 783.003 1927 783 1927 L 783 1928 L 780 1928 L 780 1925 L 780 1925 L 783 1925 L 783 1926 L 783 1926 C 783.003 1926 783.005 1926 783.008 1926 C 791.839 1926 799.008 1933.169 799.008 1942 L 799.992 1942 L 799.992 1945 L 796.992 1945 L 796.992 1942 L 796.992 1942 L 798.01 1942 L 798.01 1942 Z  M 781 1933 L 782 1933 L 782 1934 L 781 1934 L 781 1933 L 781 1933 L 781 1933 L 781 1933 Z  M 791 1943 L 792 1943 L 792 1944 L 791 1944 L 791 1943 L 791 1943 L 791 1943 Z  M 791 1942 C 791 1939.88 790.16 1937.84 788.66 1936.34 C 787.16 1934.84 785.12 1934 783 1934 L 783 1935 L 780 1935 L 780 1932 L 780 1932 L 783 1932 L 783 1933 L 783 1933 C 787.967 1933 792 1937.033 792 1942 L 793 1942 L 793 1945 L 790 1945 L 790 1942 L 790 1942 L 791 1942 L 791 1942 Z " fill-rule="evenodd" id="Fill-B" fill="rgb(161,161,161)"/></g></svg>