<?xml version="1.0" encoding="UTF-8" standalone="no"?><!-- Generator: Gravit.io --><svg xmlns="http://www.w3.org/2000/svg" xmlns:xlink="http://www.w3.org/1999/xlink" style="isolation:isolate" viewBox="1978 529 24 24" width="24" height="24"><g id="version-history"><g opacity="0"><rect x="1978" y="529" width="24" height="24" transform="matrix(1,0,0,1,0,0)" id="Icon Background" fill="rgb(37,86,132)"/></g><path d=" M 1999 539.427 L 1999 534 C 1999 533.2 1998.68 532.44 1998.12 531.88 C 1997.56 531.32 1996.8 531 1996 531 L 1988 531 L 1988 531 C 1987.2 531 1986.44 531.32 1985.88 531.88 C 1985.32 532.44 1985 533.2 1985 534 L 1985 547 C 1985 547.8 1985.32 548.56 1985.88 549.12 C 1986.44 549.68 1987.2 550 1988 550 L 1989.866 550 C 1989.538 549.38 1989.294 548.708 1989.15 548 L 1988 548 C 1987.73 548 1987.48 547.89 1987.29 547.71 C 1987.11 547.52 1987 547.27 1987 547 L 1987 534 C 1987 533.73 1987.11 533.48 1987.29 533.29 C 1987.48 533.11 1987.73 533 1988 533 L 1988 533 L 1996 533 C 1996.27 533 1996.52 533.11 1996.71 533.29 C 1996.89 533.48 1997 533.73 1997 534 L 1997 539.016 C 1997.697 539.062 1998.368 539.204 1999 539.427 Z " id="Fill-A" fill="rgb(215,215,215)"/><path d=" M 1981 546.828 C 1980.582 546.679 1980.198 546.438 1979.88 546.12 C 1979.32 545.56 1979 544.8 1979 544 L 1979 537 C 1979 536.2 1979.32 535.44 1979.88 534.88 C 1980.198 534.562 1980.582 534.321 1981 534.172 L 1981 537 L 1981 537 L 1981 544 L 1981 544 L 1981 546.828 L 1981 546.828 Z  M 1984 548.828 C 1983.582 548.679 1983.198 548.438 1982.88 548.12 C 1982.32 547.56 1982 546.8 1982 546 L 1982 535 C 1982 534.2 1982.32 533.44 1982.88 532.88 C 1983.198 532.562 1983.582 532.321 1984 532.172 L 1984 535 L 1984 535 L 1984 546 L 1984 546 L 1984 548.828 L 1984 548.828 Z  M 1993.144 542.144 C 1994.073 541.427 1995.237 541 1996.5 541 C 1999.536 541 2002 543.464 2002 546.5 C 2002 549.536 1999.536 552 1996.5 552 C 1993.85 552 1991.635 550.122 1991.115 547.625 L 1992.142 547.625 C 1992.341 548.397 1992.743 549.11 1993.32 549.68 C 1994.16 550.53 1995.31 551 1996.5 551 C 1997.69 551 1998.84 550.53 1999.68 549.68 C 2000.53 548.84 2001 547.69 2001 546.5 C 2001 545.31 2000.53 544.16 1999.68 543.32 C 1998.84 542.47 1997.69 542 1996.5 542 C 1995.547 542 1994.62 542.301 1993.857 542.857 L 1995.5 544.5 L 1991.5 544.5 L 1991.5 540.5 L 1993.144 542.144 Z " fill-rule="evenodd" id="Fill-B" fill="rgb(161,161,161)"/></g></svg>